<?xml version="1.0" encoding="utf-8"?>
<!-- Generator: Adobe Illustrator 24.3.0, SVG Export Plug-In . SVG Version: 6.00 Build 0)  -->
<svg version="1.1" id="Слой_1" xmlns="http://www.w3.org/2000/svg" xmlns:xlink="http://www.w3.org/1999/xlink" x="0px" y="0px"
	 viewBox="0 0 824.2 824.2" style="enable-background:new 0 0 824.2 824.2;" xml:space="preserve">
<style type="text/css">
	.st0{fill:#FFFFFF;}
</style>
<g id="_x23_ffffffff">
</g>
<path class="st0" d="M894.2,410.5c6.2-0.6,12.5-0.3,18.8-0.4c5.1-0.1,10.3,0.7,15.3-0.5c-11.4-0.4-22.9-0.1-34.3-0.2
	c-0.5,0-1.6,0-2.1,0c-25.3-0.2-50.5-0.1-75.8,0c0-23.8,0-47.6,0-71.3c-0.2-2.5,0.7-4.8,1.8-7c0-0.5,0-1.5,0.1-2
	c0.1-26-0.1-52,0.1-78v-2c-0.1-26.1,0-52.2,0-78.3c24.6,0.2,49.3,0.2,73.9,0c0.5,0,1.6,0,2.1,0c11.4-0.1,22.9,0.2,34.3-0.2
	c-11.3-1.5-22.8,0.4-34.1-0.9l-0.6-0.7c-0.2-26-0.1-52.1,0-78.1c11.5-0.1,22.9,0,34.4,0l-0.1-1c-11.4,0-22.9-0.1-34.3,0
	c-0.2-26.3-0.1-52.6,0-79c11.5,0,22.9,0,34.4,0V10c-11.5,0-22.9,0-34.4,0c-0.1-26.3-0.2-52.6,0-79c11.4,0.1,22.9,0,34.3,0v-1
	c-11.5,0-22.9,0-34.4,0c-0.1-10.3-0.1-20.6,0-30.9h-1.2c0.1,10.3,0.1,20.6,0,30.9c-26.3,0-52.5,0-78.8,0c-0.1-10.3-0.1-20.6,0-30.9
	c-0.3,0-0.9,0-1.2,0.1c0.2,10.3,0.1,20.6,0,30.8c-26.2,0-52.5,0-78.7,0c0-10.3-0.1-20.6,0.1-31H733c0.1,10.3-0.1,20.5-0.2,30.7
	c-26.3,0.5-52.6,0.1-78.9,0.2c0-10.4,0-20.7,0-31.1h-1c0,10.3,0,20.7,0,31c-26.3,0.1-52.6,0.1-78.9,0c0-10.4,0-20.7,0-31.1h-0.9
	c0,10.3,0,20.7,0,31.1c-26.3,0.1-52.6,0.1-78.9,0c0-10.3,0-20.7,0-31l-1-0.1c0,10.4,0,20.7,0,31.1c-26.3-0.1-52.6,0.3-78.9-0.2
	c-0.2-10.2-0.3-20.5-0.2-30.7h-0.8c0.1,10.3,0.1,20.6,0.1,30.9c-26.2,0-52.5,0.1-78.7,0c-0.2-10.3-0.2-20.6,0-30.8h-1.2
	c0.1,10.3,0.1,20.6,0,30.9c-26.2,0.1-52.5,0.1-78.8,0c-0.2-10.3-0.1-20.6,0-30.9h-1.2c0.1,10.3,0.1,20.6,0,30.9
	c-26.2,0.1-52.5,0.1-78.8,0c-0.1-10.3-0.1-20.6,0-30.9c-0.3,0-0.9,0-1.2,0.1c0.2,10.3,0.2,20.5,0,30.8c-26.2,0.1-52.5,0.1-78.7,0
	c0-10.3-0.1-20.6,0.1-31h-0.8c0.1,10.3,0,20.5-0.2,30.7C67.6-70,41.3-70.3,15-70.2c0-10.4,0-20.7,0-31.1l-1,0.1c0,10.3,0,20.7,0,31
	c-26.3,0.1-52.6,0.1-78.9,0c0-10.4,0-20.7,0-31.1h-0.9c0,10.4,0,20.7,0,31.1c-11.6,0.1-23.2,0-34.8,0.1v0.9
	c11.6,0.2,23.2,0.1,34.8,0.1c0.2,26.3,0,52.6,0.1,78.9c-11.6,0-23.2,0-34.9,0v0.9c11.6,0,23.2,0,34.9,0c0,26.3,0.1,52.6-0.1,78.9
	c-11.6,0-23.2-0.2-34.8,0.1l-0.1,0.8c11.6,0,23.2,0,34.9,0c-0.1,26.3,0.2,52.6-0.1,78.9c-11.6,0.2-23.1,0.2-34.7,0.3v0.7
	c11.6-0.1,23.2-0.1,34.8,0c-0.1,52.8,0.1,105.5-0.1,158.2c0,0.5,0,1.5,0,2c0.2,26.1,0,52.2,0.1,78.2c-11.6,0-23.2,0.1-34.8,0v0.7
	c11.5,0.1,23.1,0,34.7,0.3c0.3,26.3,0,52.6,0.1,78.9c-11.8,0.3-23.6-0.3-35.4,0.3c2,0.6,4.2,0.8,6.3,0.8c9.7-0.1,19.3,0,29-0.1
	c0.2,26.3,0,52.6,0.1,78.9c-11.6,0-23.2,0-34.9,0v0.9c11.6,0,23.2,0,34.9,0c-0.1,26.3,0.2,52.6-0.2,78.9
	c-11.5,0.2-23.1,0.2-34.7,0.3v0.7c11.6-0.1,23.2-0.1,34.8,0c-0.1,26.1,0.1,52.2-0.1,78.2c0,0.5,0,1.5,0,2.1
	c0.3,63.6-0.1,127.2,0.2,190.8h0.8c0.1-10.4,0-20.8,0-31.2c26.3-0.1,52.7-0.2,79,0c-0.1,7.1,0,14.3,0,21.4c0,3.4-0.2,7,0.7,10.3
	c0.6-10.4,0.1-20.9,0.3-31.3v-2.1c-0.1-24.7,0.2-49.3,0-73.9c26.3,0,52.6-0.1,79,0.1c0.3,24.5,0.2,49.1,0.2,73.6l-0.9,0.1
	c0.1,0.5,0.3,1.5,0.3,2c1.5,10.1-0.6,20.5,1,30.6c0.4-10.1,0.1-20.2,0.2-30.4c0-0.5,0-1.6,0-2.1c-0.1-20.6,0-41.3,0-61.9
	c0-3.9-0.3-7.9,0.3-11.8c1.9-1.7,4.5-2.4,7-2.3c23.7,0.1,47.4,0,71.1,0.1h2c26-0.1,52-0.1,78,0h2c26-0.1,52-0.1,78,0h2
	c26-0.1,52-0.1,78,0h1.1c26.3-0.2,52.7,0,79-0.1c0.1,25.3,0,50.6,0,75.9v2.1c0.2,10.4-0.3,20.9,0.3,31.3c0.7-2.4,0.8-4.9,0.8-7.3
	c-0.1-8.2,0-16.3-0.1-24.4c26.3-0.2,52.6-0.2,79,0c0,10.4-0.1,20.8,0.1,31.2h0.8c0.1-10.4,0-20.9,0-31.3c26.3-0.1,52.6-0.2,78.9,0
	c-0.1,7.5,0,14.9,0,22.4c0,3.1-0.2,6.3,0.7,9.3c0.6-10.4,0.1-20.9,0.3-31.3v-2.1c0-24.6-0.1-49.3,0-73.9c26.3,0,52.6-0.1,79,0h1.1
	c2.4-1.4,5.2-2.3,8-2.1c23.4,0.2,46.7-0.1,70.1,0.2c0.5,0,1.5,0,2,0c0.7-0.7,1.5-1.4,2.2-2.1c0-0.5,0-1.5,0-2c-0.1-26,0-52,0-78
	v-2.1c0-26.1,0-52.1,0-78.2c25.3,0.1,50.5,0.2,75.8,0c0.5,0,1.6,0,2.1,0c11.4-0.1,22.9,0.2,34.3-0.2c-5-1.2-10.2-0.4-15.3-0.5
	c-6.3-0.1-12.5,0.2-18.8-0.4l-0.6-0.7c-0.2-26-0.1-52,0-78c11.5,0,22.9,0,34.4,0v-0.9c-11.5,0-22.9,0-34.4,0
	c-0.1-26.3-0.2-52.6,0-79c11.4,0.1,22.9,0,34.3,0v-1c-11.5,0.1-22.9,0.1-34.4,0c-0.1-26-0.2-52.1,0-78.1L894.2,410.5z M414.2-68.7
	c26.3-0.1,52.6,0,78.9,0c0.1,24,0.1,48,0,71.9c0.5,3.3-3.5,4.4-6.1,4.4c-23.4,0-46.7,0-70.1,0c-1.7,0.3-3.3-0.5-2.8-2.5
	C413.8-19.4,413.9-44.1,414.2-68.7z M488.7,90c-24.8,0.1-49.7,0.1-74.5,0c-0.4-25.3-0.4-50.7,0-76.1c24.8-0.2,49.7-0.2,74.5,0
	C488.6,39.3,488.7,64.7,488.7,90z M414.2,91.2c14.9-0.5,29.9-0.1,44.8-0.2c9.8,0.1,19.7-0.3,29.5,0.2c0.9,2,2.4,3.5,4.4,4.4
	c0.5,17.5,0.1,35,0.2,52.5c-0.1,7.3,0.2,14.5-0.2,21.8c-26.2,0.3-52.5,0.4-78.7-0.1C413.8,143.7,413.9,117.5,414.2,91.2z M414,244.2
	c0-24.4-0.2-48.8,0.2-73.2c26.3-0.2,52.6,0,78.9-0.1c0,26.2,0,52.5,0,78.7c-25.7,0.2-51.4,0.1-77.1,0C413,249.8,414.5,246,414,244.2
	z M413.9,329.1c0.3-25.6-0.3-51.2,0.3-76.9c-0.3-2.1,2.5-1.3,3.8-1.6c25.1,0.1,50.1-0.1,75.1,0.1c0,26.1,0.2,52.2-0.1,78.4
	c0,0.5,0.1,1.6,0.1,2.1c0,24.5,0.3,49-0.1,73.5c-3,1.2-4.2,5.6-7.9,4.8c-23.6-0.2-47.2,0.1-70.8-0.1c-0.5-26,0.1-52-0.4-78.1h0.9
	c0.1-0.6,0.2-1.7,0.3-2.2L413.9,329.1z M488.5,489.3c-24.8-0.1-49.6,0.3-74.3-0.2c-0.3-26.2-0.4-52.5,0-78.7
	c16.9-0.5,33.8-0.2,50.8-0.3c7.6,0.1,15.3-0.3,22.9,0.4l0.6,0.7C488.7,437.2,488.7,463.3,488.5,489.3z M413.2,170
	c-24.8,0.4-49.5,0.4-74.3,0c-0.3-26.3-0.1-52.6-0.1-78.9c24.8,0,49.6,0,74.4,0C413.3,117.4,413.4,143.7,413.2,170z M413.3,489.3
	c-26.1,0-52.1,0.1-78.2,0c-0.5,0-1.6-0.1-2.1-0.1c-26.1,0.3-52.2,0.1-78.3,0.1c-0.2-25,0-50.1-0.1-75.1c0.1-1.3-0.5-4,1.6-3.7
	c25.6-0.7,51.2,0,76.8-0.3v1.1c0.6-0.1,1.7-0.3,2.3-0.3v-1c26,0.5,52-0.1,78,0.4C413.4,436.7,413.3,463,413.3,489.3z M413.3,569.2
	c-26.1,0.1-52.1,0.1-78.2,0c-0.5,0-1.6,0-2.1-0.1c-26.1,0.3-52.2,0-78.4,0.1c-0.1-26.3-0.2-52.6,0-79c26.1,0.1,52.2,0,78.3,0.1
	c0.6,0,1.7,0,2.2,0c26.1,0,52.1,0,78.1,0C413.3,516.6,413.3,542.9,413.3,569.2z M413.3,409.4c-26.1,0-52.1,0.1-78.2-0.1
	c-0.5,0-1.6,0-2.2,0c-26,0.2-51.9,0.1-77.8,0.1h-2.2c-24.6,0-49.3,0-73.9,0c0-26.1,0-52.1,0-78.2c0.1-0.5,0.3-1.7,0.4-2.2
	c-1.2-1.6-2.7-3-4.3-4.3c-0.6,0.1-1.7,0.3-2.2,0.4c-26.1,0.1-52.2,0-78.2,0c0-24.6-0.1-49.3,0.1-73.9c0-0.5,0-1.6,0-2.2
	c-0.2-26-0.1-52.1-0.1-78.2c26.1,0,52.1-0.1,78.2,0.1h2.2c24.6-0.2,49.3-0.1,73.9-0.1c-0.1,26.1,0.1,52.2-0.1,78.2
	c0.4,1.3,0.8,2.6,1.1,3.9c0.9,0.9,1.8,1.7,2.8,2.5c0.5-0.1,1.7-0.2,2.2-0.2c26,0,52-0.2,78,0.1c1.2-0.4,2.5-0.8,3.8-1.2
	c1.4-1.5,2.7-3.9,5.2-3.4c23.8,0.1,47.6-0.1,71.3,0.1c0,26.1,0.1,52.2-0.1,78.3c0,0.5,0,1.6,0,2.2
	C413.4,357.3,413.3,383.4,413.3,409.4z M253.4,489.3c-24.8,0-49.6,0-74.4,0c0-26.3-0.1-52.6,0.1-78.9c23.3-0.3,46.6-0.3,69.9-0.1
	c1.5,0.3,4.7-0.7,4.5,1.8C253.5,437.9,253.6,463.6,253.4,489.3z M179.1,490.3c24.8,0,49.5,0.1,74.3,0c0.2,26.3,0.2,52.6,0,79
	c-24.8,0-49.6,0-74.4,0C179,542.9,179,516.6,179.1,490.3z M99.2,335c23.3-0.1,46.7-0.1,70,0c0.1,24.8,0.1,49.6,0,74.4
	c-23.3,0-46.7,0.1-70,0C99.2,384.6,99.2,359.8,99.2,335z M99.2,410.4c23.3-0.4,46.6-0.4,69.8,0c0.4,26.3,0.1,52.6,0.1,78.9
	c-23.3,0-46.7,0.1-70,0C99.2,463,99.1,436.7,99.2,410.4z M99.2,490.3c23.3,0,46.7,0,70,0c0,24.8,0.3,49.7-0.2,74.5
	c-23.2-0.1-46.5-0.2-69.8,0C99.1,540,99.2,515.1,99.2,490.3z M179.4,91.3c23.2-0.5,46.4-0.1,69.5-0.2c0,26.3,0.2,52.6-0.1,78.9
	c-24.6,0.5-49.2,0-73.8,0.3v-1.1c-0.6,0.1-1.7,0.3-2.2,0.3v0.9c-25.9-0.5-51.8,0.1-77.8-0.4c-0.3-24.6,0.1-49.3-0.2-73.9l0.2-0.9
	c21,0.1,42,0,62.9,0.1c5.7,0,11.5-0.2,17.2,0.3C177,94.5,178.4,93,179.4,91.3z M179,13.9c23.3-0.1,46.6-0.1,69.9,0
	c0,25.4,0.1,50.8,0,76.2c-23.3,0-46.6,0-69.9,0C179,64.7,179,39.3,179,13.9z M328.9,90.1c-23.3,0-46.6,0-69.9,0
	c-0.1-24.8,0-49.5,0-74.3c23.3-0.1,46.7-0.1,70,0C328.9,40.6,329,65.3,328.9,90.1z M259,91.1c23.3,0,46.6-0.1,69.9,0
	c0,26.3,0.1,52.6-0.1,78.9c-23.2,0.3-46.5,0.3-69.8,0C258.9,143.7,259.1,117.4,259,91.1z M329,170.9c0,24.8,0,49.5,0,74.2
	c-23.3,0-46.6,0-69.9,0c0-24.7,0-49.5,0-74.2C282.3,170.9,305.7,170.9,329,170.9z M338.8,170.9c24.8-0.1,49.6,0,74.4,0
	c0.1,26.2,0,52.5,0,78.7c-24.8,0.1-49.6,0.1-74.4,0C338.8,223.4,338.8,197.1,338.8,170.9z M413.2,90.1c-24.8,0-49.6,0-74.4,0
	c-0.2-25.4-0.1-50.8,0-76.2c24.8-0.1,49.6-0.1,74.4,0C413.3,39.3,413.3,64.7,413.2,90.1z M94.8-68.7c26,0.1,52.1,0,78.1,0
	c0.5,0,1.7,0,2.2,0c25.9-0.1,51.9,0,77.8,0h2.2c25.9,0,51.9-0.1,77.8,0c0.6,0,1.7,0,2.2,0c26,0,52.1,0,78.1,0
	c0.1,25.4,0,50.9,0,76.3c-9.7,0-19.3,0.3-29-0.2c0.1-0.1,0.2-0.2,0.4-0.3c-0.4,0-0.7,0-1,0.1c0,0.2,0,0.3,0,0.5
	c-7.7,0-15.4,0-23.1,0c0-0.2,0-0.3,0.1-0.5c-0.4,0-0.8,0-1.2,0c0.1,0.1,0.2,0.2,0.4,0.4c-6.3,0.4-12.6,0.2-18.9,0.2
	c-2.1,0.2-4-0.8-5.9-1.7c-27.4-0.1-54.8,0-82.2,0c-3.9,2.5-8.6,1.6-12.9,1.8c-19.7,0-39.3,0-59,0c-2.1,0.1-4-1-5.9-1.8
	c-24.7,0-49.4,0-74.1,0c-2.1,0-4.2-0.2-6.3-0.4C94.8-19.3,94.6-44,94.8-68.7z M14.9-68.7c26.3,0,52.6,0,78.9,0
	C94.2-51.4,94-34.1,94-16.8C94-9.9,94.2-2.9,93.8,4C94,6.2,91.3,5.5,90,5.7C65,5.6,39.9,5.8,14.9,5.6C14.8-19.2,14.8-43.9,14.9-68.7
	z M-65-68.7c26.3,0,52.6,0,78.9,0c-0.1,24.8,0.2,49.5-0.2,74.3c-2.1,0.9-3.7,2.6-4.8,4.6c-24.6,0.1-49.3,0-73.9,0
	C-65-16.1-65.1-42.4-65-68.7z M-65,11.2c24.8,0,49.6,0,74.4,0c0.1,26.3,0.1,52.6,0,79c-24.8-0.1-49.6,0-74.3,0
	C-65.1,63.8-65,37.5-65,11.2z M-64.9,171.2c0-0.5-0.1-1.5-0.1-2c0-26,0-52.1,0-78.1c22-0.1,44,0,66-0.1c2.9,0,5.8,0.1,8.8,0.3
	c0.4,0.9,0.8,1.9,1.1,2.9c0.5,1.6,0.8,3.3,0.8,4.9c-0.1,18,0,36-0.1,54c0,6,0.2,12-0.3,18c0.6,5.7,0.2,11.3,0.3,17
	c0,68.3,0,136.7,0,205c-0.1,5.4,0.3,10.9-0.4,16.3c-25.4-0.1-50.8,0-76.2,0c0-26.1-0.1-52.1,0.1-78.2c0-0.5,0-1.6,0-2.1
	c-0.2-26-0.2-51.9,0-77.9c0-0.5,0-1.6,0-2.1C-65.1,223.2-65.2,197.2-64.9,171.2z M11.3,489.3c-25.4,0.1-50.9,0.1-76.3,0
	c0.1-26.3-0.2-52.6,0.1-78.9c25.4-0.3,50.7-0.4,76.1,0C11.5,436.7,11.3,463,11.3,489.3z M11.3,569.2c-25.4,0-50.9,0-76.3,0
	c0-26.3-0.1-52.6,0.1-78.9c25.4,0,50.8,0,76.2,0C11.4,516.6,11.4,542.9,11.3,569.2z M13.9,869.2c0.4,6.4-0.2,12.9,0,19.3
	c-26.3,0.2-52.6,0.1-79,0c0.1-26.1-0.1-52.2,0.1-78.3v-2.1c-0.2-26-0.2-51.9,0-77.9c0-0.5,0-1.6-0.1-2.1c-0.1-26-0.2-51.9,0.1-77.9
	c0-0.5-0.1-1.5-0.1-2c0-26,0-52,0-78.1c25.3,0,50.6-0.1,75.9,0.1l0.8,0.2c-0.3,26.6,0.3,53.3-0.3,79.9c0.1,24,0,47.9,0.1,71.9
	c0.2,2.1-0.8,4-1.7,5.9c0,27.7,0,55.5,0,83.2c1.4,1.1,2.7,2.2,4.1,3.3C14.5,832.8,13.8,851,13.9,869.2z M19.1,410.4
	c11.6-0.6,23.2-0.1,34.9-0.3c11.6,0.2,23.2-0.4,34.8,0.4c0.9,1.3,0.5,3.1,0.6,4.6c-0.1,24.7,0.1,49.4-0.1,74.1
	c-23.9,0.1-47.8,0.1-71.7,0c-0.2-25,0-50.1-0.1-75.1C17.7,412.9,17,410.2,19.1,410.4z M89.3,569.2c-23.9,0-47.8,0-71.7,0
	c-0.1-26.3-0.1-52.6,0-78.9c23.9,0,47.8,0,71.6,0C89.4,516.6,89.4,542.9,89.3,569.2z M17.6,570.2c23.7,0,47.5-0.1,71.2,0.1
	c1.4,2,3.2,3.6,4.8,5.4c0.7,6.2,0.4,12.4,0.4,18.6c-0.1,18.2,0.2,36.5-0.3,54.8c-17.6,0.5-35.2,0.2-52.7,0.3
	c-7.6-0.1-15.3,0.3-22.9-0.3c-0.9-1.4-0.4-3.2-0.6-4.7C17.7,619.5,17.4,594.8,17.6,570.2z M89.3,804.2c-23.3,0-46.7,0.1-70-0.1
	c0.1-23.3,0.1-46.5,0-69.8c23.3-0.2,46.7,0,70-0.1C89.4,757.5,89.4,780.8,89.3,804.2z M93.8,724.3c-25.4,0.3-50.8,0.1-76.2,0.1
	c-0.1-24.8-0.1-49.6,0-74.4c25.4,0,50.8-0.1,76.2,0.1C94.1,674.7,94.2,699.5,93.8,724.3z M94.1,251.3c-0.3,24.5,0.3,48.9-0.4,73.4
	c-1.4,1.1-2.8,2.2-4.1,3.3c0,25.4,0,50.8,0,76.2c0,1.8-0.2,3.5-0.4,5.3c-23.8,0-47.7-0.1-71.5,0c-0.6-4.4-0.4-8.9-0.4-13.3
	c0-73.4,0-146.7,0-220c0-1.7,0.2-3.4,0.4-5.1c25.4,0.5,50.8-0.1,76.1,0.3c0.5,25.9-0.1,51.8,0.4,77.7h-0.9c-0.1,0.6-0.2,1.7-0.3,2.3
	L94.1,251.3z M94,170.2c-3.6,0.8-7.4,0.4-11,0.4c-21.9-0.2-43.8,0.4-65.7-0.3c0-25,0.1-50,0-74.9c25.6-0.1,51.3-0.1,76.9,0
	c0.6,22.3,0,44.5,0.3,66.8C94.5,164.9,94.6,167.6,94,170.2z M93.2,94c-3.6-2-5.7-6-9.2-8.2c-18.7-0.3-37.3,0.1-56-0.2
	c-6.1-0.9-8,6.9-13.1,8.4c-2.9,0.8-5.4-3.1-3.5-5.4c2.3-3,5.3-5.5,7.9-8.3c0.1-19.9-0.1-39.7,0.1-59.5c-2.8-3-6.1-5.5-8.3-8.9
	c-1.4-2.8,2-5.7,4.7-4.6c3.6,2.1,5.7,6,9.2,8.2c19.3,0.2,38.7,0,58,0.1c4.5-1.3,6.4-7,11-8.6c4.8,0.9,6.7,6.6,11,8.5
	c19.7,0.2,39.4,0,59.1,0.1c3.3-2.9,5.8-7,9.9-8.7c3.1-0.2,3.9,3,3.7,5.5c-3.1,2.7-5.9,5.6-8.7,8.5c0.3,19.8,0.2,39.5,0,59.3
	c2.8,3.1,6.3,5.7,8.6,9.2c0.8,2.7-1.7,5.3-4.4,4.5c-3.6-2-5.7-6-9.2-8.2c-19-0.3-38,0-57-0.1C100.8,85.2,99.3,94.5,93.2,94z
	 M100,574.5c24.8,0,49.5,0,74.3,0c0.6,22.5,0.1,45.1,0.3,67.7c0,2.2,0.3,4.7-1.5,6.4v0.8c-26.1-0.6-52.2,0.2-78.3-0.5
	c-0.2-24.7,0.1-49.4-0.1-74.1C96.4,574.7,98.2,574.5,100,574.5z M174.7,649.9c24.8,0,49.5,0,74.3,0c0,26.2,0,52.5,0,78.7
	c-24.8,0.1-49.6,0.1-74.3,0C174.5,702.4,174.5,676.2,174.7,649.9z M94.8,723.9c-0.2-24.7-0.1-49.3-0.1-74c26.2,0,52.5-0.2,78.7,0.1
	c0.1,26.2,0.1,52.4,0,78.6c-23.5,0.2-47,0-70.5,0.1C99.3,729.4,97.7,725.3,94.8,723.9z M173.4,806.1c-24.8-0.1-49.5,0-74.3,0
	c0-25.4,0-50.8,0-76.2c24.8-0.2,49.5-0.1,74.3,0C173.6,755.2,173.7,780.7,173.4,806.1z M413.3,737.1c-0.1,23,0.1,45.9-0.1,68.9
	c-79.5,0-159,0-238.6,0c-0.2-25.4-0.1-50.8,0-76.2c24.7,0,49.4-0.2,74.1,0.1c1,1.8,2.1,3.9,4.3,4.5c26.3-0.3,52.7-0.3,79,0
	c3.2,0.8,5.9-1.5,7.1-4.3c-0.9-26.7-0.2-53.4-0.3-80.1c23.3,0,46.7-0.1,70,0c-0.1,26.8,0.1,53.5-0.1,80.3
	C409.3,733.2,413.8,733.8,413.3,737.1z M259,654.3c23.3,0,46.6,0,69.9,0c0.1,23.3,0,46.7,0,70c-23.3,0.1-46.6,0.1-69.9,0
	C259,701,259,677.7,259,654.3z M493.1,806c-26.3-0.1-52.6,0.1-78.9-0.1c-0.4-23.9-0.3-47.8-0.1-71.7c26.3-0.2,52.6,0,79-0.1
	C493.1,758.2,493.2,782.1,493.1,806z M488.7,724.3c-23.3,0.3-46.7,0.1-70,0.1c-0.1-23.3-0.1-46.7,0-70c23.3,0.1,46.7,0,70,0.1
	C488.6,677.7,488.7,701,488.7,724.3z M480,644.8c-22.7,0-45.5,0-68.2,0c-1.1,1.4-2.3,2.7-3.4,4.1c-11.8,0.5-23.6,0.3-35.4,0.3
	c-11.2-0.1-22.4,0.2-33.5-0.3c-1.2-1.6-2.5-3.1-4.1-4.2v-0.6c-1.8,0.3-3.5,0.6-5.3,0.6c-26.1,0-52.1-0.1-78.2,0
	c-1.1,1.4-2.2,2.7-3.3,4.1c-24.5,0.6-48.9,0.3-73.4,0.1c-0.4-15.6,0-31.2-0.1-46.8c0.2-9.2-0.4-18.3,0.2-27.5c1.8-1,3.2-2.6,4.2-4.4
	c24.5-0.3,49-0.2,73.5,0c0.5,0,1.6,0,2.1,0c26-0.2,51.9-0.2,77.9,0c0.5,0,1.6,0,2.1,0c26.1-0.4,52.1,0.3,78.2-0.3l0.5,0.8
	c2.1-0.3,4.2-0.5,6.3-0.5c24.4,0,48.7,0,73.1,0c0.1,24.8,0,49.5,0.1,74.2C488.8,645,484.4,644.8,480,644.8z M493.1,569.2
	c-26.3-0.1-52.6,0.2-78.9-0.1c-0.3-26.2-0.4-52.5,0-78.7c24.7,0,49.5-0.2,74.2,0.1c0.9,2,2.4,3.5,4.4,4.4
	C493.5,519.6,493,544.4,493.1,569.2z M494.1-68.7c26.3,0,52.6,0,78.8,0c0.2,24.8,0,49.5,0.1,74.3c-26.3,0.1-52.6,0.2-78.9,0
	C494.2-19.2,494.1-43.9,494.1-68.7z M573,85.6c-24.8,0.1-49.6,0.1-74.4,0c-0.1-23.3-0.1-46.5,0-69.8c24.8-0.1,49.6-0.1,74.4,0
	C573,39,573,62.3,573,85.6z M494.1,170.9c26.3-0.1,52.6,0,78.9,0c0,26.2,0,52.5,0,78.7c-26.3,0.1-52.6,0.2-79,0
	C494.2,223.4,494.1,197.1,494.1,170.9z M573,250.8c-0.1,26.1,0.2,52.2-0.1,78.4c0,0.5,0,1.6,0,2.1c0.2,24.6,0.1,49.2,0,73.8
	c-26.3,0-52.6,0-78.9,0c0-24.6,0-49.1,0-73.7c0-0.6,0-1.7,0-2.2c-0.1-26.1,0-52.2-0.1-78.3C520.4,250.6,546.7,250.7,573,250.8z
	 M494.1,570.2c26.3-0.2,52.6,0,78.9-0.1c-0.1,26.3,0.2,52.6-0.1,78.9c-21.3,0.4-42.6,0.1-63.9,0.2c-3.2-0.1-6.4,0-9.5-0.5
	c-1.7-1.7-3.3-3.5-5.3-4.8C494,619.3,494.2,594.8,494.1,570.2z M573,494.8c0,24.8,0,49.6,0,74.4c-26.3,0-52.6,0.1-78.9-0.1
	c0-24.8,0.1-49.6,0-74.3C520.4,494.7,546.7,494.7,573,494.8z M498.6,414.9c23.3-0.1,46.5-0.1,69.8,0c0.1,23.3,0.1,46.6,0,69.9
	c-23.3,0.2-46.5,0.1-69.8,0C498.5,461.5,498.5,438.2,498.6,414.9z M573,888.5c-26.3,0.1-52.6,0.1-78.9,0c0-25.4,0-50.8,0-76.3
	c26.3-0.1,52.6,0,78.9,0C573,837.7,573,863.1,573,888.5z M573,806c-26.3,0-52.6,0-78.9,0c0-23.8-0.1-47.6,0.1-71.4
	c1.4-1.1,2.8-2.2,4.2-3.3c-0.1-25.1,0-50.1-0.1-75.2c0-2.1,0.2-4.2,0.4-6.3c24.8,0.1,49.5,0,74.3,0.1c0,26.1,0.1,52.1-0.1,78.2
	c0,0.5,0,1.6,0,2.1C573.2,755.5,573,780.8,573,806z M572.9,170c-26.2,0.3-52.5,0.3-78.7,0c-0.1-24.8-0.1-49.7,0-74.5
	c26.2,0.1,52.5,0.1,78.8,0C573.1,120.3,573.2,145.2,572.9,170z M892.4,169.2l-0.6,0.6c-7.5,1-15.2,0.3-22.8,0.5
	c-16.9-0.2-33.9,0.4-50.8-0.4c-1.1-2.1-2.3-4.2-2.1-6.7c0-22,0-44.1,0-66.1c-0.2-2.2,0.8-4.1,2.1-5.8c2.9-0.6,5.8-0.3,8.7-0.3
	c21.8,0,43.6,0,65.4,0C892.5,117.1,892.6,143.2,892.4,169.2z M892.4,90.1c-24.8-0.1-49.5-0.1-74.3,0c-0.1-26.3,0-52.6,0-79
	c24.8,0,49.6,0,74.4,0C892.5,37.5,892.6,63.8,892.4,90.1z M810,165.5c-25.3,0.1-50.6,0.1-76,0c0-23.3-0.1-46.7,0.1-70
	c25.3,0.1,50.5,0.1,75.8,0C810.1,118.8,809.9,142.1,810,165.5z M738.1,250.8c23.3-0.2,46.7-0.2,70,0c0.1,24.8,0.1,49.6,0,74.4
	c-23.3,0-46.7,0-70,0C738.2,300.4,738.2,275.6,738.1,250.8z M808.2,249.6c-23.3,0.1-46.7,0.2-70,0c0.1-24.7,0-49.5,0-74.2
	c23.3,0,46.6,0,70,0C808.3,200.1,808.2,224.8,808.2,249.6z M808.2,85.6c-24.8,0.2-49.6,0.1-74.4,0c0-23.3,0-46.5,0-69.8
	c24.8-0.1,49.6-0.1,74.4,0C808.3,39,808.2,62.3,808.2,85.6z M733.7,335c25.4-0.1,50.8,0,76.2,0c0,24.8,0,49.6,0,74.5
	c-25.4,0-50.8,0-76.2,0C733.7,384.6,733.7,359.8,733.7,335z M733.8,410.4c25.4-0.4,50.7-0.3,76.1,0c0.2,26.3,0,52.6,0.1,78.9
	c-25.4,0.1-50.8,0-76.2,0C733.7,463,733.6,436.7,733.8,410.4z M810,569.2c-25.4,0-50.8,0-76.2,0c0-26.3-0.1-52.6,0-78.9
	c25.4,0,50.8,0,76.2,0C810,516.6,810,542.9,810,569.2z M653.9-68.7c26.3,0,52.6,0,78.9,0c0.4,16.9,0.2,33.9,0.2,50.8
	c-0.1,7.6,0.3,15.3-0.3,22.9c-1.3,1-3.2,0.4-4.7,0.6c-24.7-0.1-49.4,0.1-74.1-0.1C653.8-19.2,653.8-43.9,653.9-68.7z M733,76.2
	c0,3-0.1,5.9-0.4,8.9c-1.4,1-3.2,0.4-4.7,0.6c-24.7-0.1-49.4,0.1-74.1-0.1c-0.1-23.2-0.1-46.5,0-69.8c26.3-0.1,52.6-0.2,78.9,0.1
	C733.2,36,733,56.1,733,76.2z M653.9,96.1l0.2-0.9c26.4,0.1,52.8,0,79.1,0.1c0.5,20.6,0,41.2,0.2,61.8c0,2.8,0.4,5.7-1.1,8.2
	c-1.9,1.1-3.3,2.8-4.9,4.3c-3.1,0.6-6.3,0.5-9.5,0.5c-21.3-0.1-42.6,0.2-63.9-0.2C653.6,145.4,654,120.7,653.9,96.1z M732.8,569.1
	c-26.3,0.3-52.6,0-78.9,0.1c-0.1-26.3-0.1-52.6,0-78.9c26.3,0,52.6-0.1,78.9,0C733.2,516.6,733.1,542.8,732.8,569.1z M732.8,644.4
	c-26.3,0.3-52.6,0.1-78.9,0.1c-0.1-24.8-0.1-49.6,0-74.3c26.3,0.1,52.6-0.2,78.9,0.1C733.1,595,733.2,619.7,732.8,644.4z
	 M732.8,489.1c-26.3,0.5-52.6,0.1-78.9,0.2c0.1-26.3-0.3-52.6,0.2-78.9c26.2-0.3,52.5-0.4,78.7,0.1
	C733.2,436.7,733.1,462.9,732.8,489.1z M732.8,409.4c-26.3,0.2-52.6,0.1-78.9,0.1c0-26.1-0.1-52.1,0-78.2c0-0.5,0.1-1.6,0.1-2.1
	c-0.2-26-0.2-51.9,0-77.9c0-0.5,0-1.6,0-2.1c-0.2-26.1-0.1-52.1-0.1-78.2c24.8-0.1,49.5,0,74.3,0c0.6,4.4,0.4,8.9,0.4,13.3
	c0,49.4,0,98.8,0,148.1c1.4,1.1,2.7,2.2,4.1,3.3C733.3,360.2,733.1,384.8,732.8,409.4z M574-68.7c26.3,0,52.6,0,78.8,0
	c0,24.8,0,49.5,0,74.2c-26.3,0.2-52.6,0.1-78.9,0C574-19.2,573.9-44,574-68.7z M652.9,85.5c-26.3,0.2-52.6,0.1-78.9,0
	c0-23.3,0-46.5,0-69.8c26.3-0.1,52.6-0.1,78.9,0C652.9,39.1,652.9,62.3,652.9,85.5z M652.9,249.6c-26.3,0.2-52.6,0.1-79,0
	c0-26.2,0-52.5,0-78.7c26.3,0,52.6-0.1,78.9,0C652.9,197.1,652.8,223.4,652.9,249.6z M574.1,95.5c26.2,0.1,52.5,0.1,78.7,0
	c0.1,24.8,0.1,49.7,0,74.5c-26.2,0.4-52.5,0.4-78.7,0C573.9,145.2,573.9,120.3,574.1,95.5z M574,331.2c0-0.5,0-1.6,0-2.1
	c-0.3-26.1-0.1-52.2-0.1-78.4c26.3-0.1,52.6-0.2,78.9,0c-0.1,26.1,0.1,52.2-0.1,78.3c0,0.6,0,1.7,0,2.2c0,26,0,52.1,0,78.1
	c-23.7,0.1-47.3,0-71,0.1c-3.7,0.7-4.8-3.7-7.8-4.8C573.8,380.2,574,355.7,574,331.2z M652.9,489.3c-24.8,0.1-49.5,0.1-74.3,0
	c-0.1-26.3-0.2-52.6,0.1-78.9c24.7-0.3,49.5-0.4,74.2,0C652.9,436.7,652.8,463,652.9,489.3z M578.7,490.4
	c24.7-0.3,49.5-0.1,74.2-0.1c0,26.3,0,52.6,0,78.8c-26.3,0.2-52.6,0-78.9,0.1c0-24.6,0-49.3,0-73.9
	C576,494.1,577.7,492.6,578.7,490.4z M574,570.2c26.3,0,52.6-0.1,78.9,0.1c0,24.6,0,49.1,0,73.7c-2.9,1.4-4.2,5.5-7.8,5.1
	c-23.6,0.3-47.3,0.2-70.9,0C573.8,622.7,574,596.4,574,570.2z M574,888.5c0-25.4,0-50.9,0-76.3c24,0,48.1,0,72.1,0
	c2.5-0.2,4.7,1,6.8,2.1c0,24.8,0,49.5,0,74.3C626.6,888.7,600.3,888.6,574,888.5z M728.4,697.2c-0.2,7.2,0.4,14.4-0.4,21.5
	c2.8,3.1,6,5.8,8.5,9.1c1.1,2-0.6,3.8-1.6,5.4c-2.1-0.4-4.4-0.7-5.9-2.4c-0.7,11.1-0.2,22.2-0.4,33.3c0,13.2-0.1,26.5,0.1,39.8
	l-0.7,0.2c-23,0-46,0-69,0l-0.8-0.1c0-24.7,0.2-49.3-0.1-74c-1.6,2.1-4.1,2.9-6.6,3c-0.6-1.1-1.3-2.3-1.8-3.4c-0.7,1.7-1,3.6-1,5.5
	c0.1,23.6,0,47.2,0.1,70.8L648,806c-24.6,0-49.3,0-73.9,0c-0.1-25.3-0.2-50.5,0.1-75.8c0-0.5,0-1.6,0-2.1c-0.2-26.1,0-52.1-0.1-78.2
	c24.8-0.1,49.5,0.1,74.3-0.1c0.9,12.1,0.1,24.2,0.4,36.3c0,14.4,0.1,28.8-0.1,43.2l1-0.5c2-3.9,5.8-6.5,8.6-9.7
	c0.3-19.8-0.1-39.6,0.2-59.4c-2.8-3-6.1-5.5-8.3-8.9c-1.7-2.7,2-6.4,4.7-4.7c3.3,2.4,5.8,5.6,8.8,8.3c19.8-0.3,39.7,0,59.5-0.1
	c3-2.8,5.5-6.2,9-8.4c3.1-1.3,6.1,2.8,4.1,5.4c-2.4,3.1-5.4,5.7-8.1,8.5C728.7,672.3,728.2,684.8,728.4,697.2z M810,806
	c-23.9,0-47.9,0-71.8,0c0-25.4,0-50.8,0-76.2c23.9-0.2,47.9-0.1,71.8,0C810,755.2,810,780.6,810,806z M738.1,728.6
	c0.1-26.2,0-52.4,0-78.6c23.9-0.1,47.9,0,71.8,0c0,26.2,0,52.5,0,78.7C786,728.8,762.1,728.9,738.1,728.6z M809.9,649
	c-23.8,0.2-47.5,0.5-71.3-0.1c-1.2-2-2.8-3.7-4.8-4.9c-0.1-24.6-0.1-49.2-0.1-73.8c25.4,0,50.8,0,76.2,0
	C809.9,596.4,810.1,622.7,809.9,649z M812.5,5.6c-26.2,0.1-52.5,0.1-78.7,0c0-24.8-0.1-49.5,0-74.3c26.2,0,52.5,0.1,78.7,0
	C812.7-44,812.6-19.2,812.5,5.6z M813.6,5.1c0-24.6-0.1-49.2,0-73.9c26.2,0.1,52.5,0.1,78.7,0c0.2,26.3,0.1,52.6,0,79
	c-24.7-0.1-49.3,0.2-74-0.1C817.3,8,815.6,6.4,813.6,5.1z M816.2,410.4c17.9-0.7,35.9-0.2,53.8-0.4c7.2,0.2,14.5-0.5,21.8,0.5
	l0.6,0.6c0.2,26,0.1,52.1,0,78.1c-25.4,0-50.8,0.1-76.2,0C816.2,463,816.1,436.7,816.2,410.4z M892.4,648.2l-0.6,0.6
	c-8.9,1-17.8,0.2-26.8,0.5c-16.3-0.1-32.5,0.3-48.8-0.4c-0.1-26.2,0-52.5-0.1-78.7c25.4-0.1,50.8,0,76.3-0.1
	C892.5,596.2,892.6,622.2,892.4,648.2z M892.4,569.2c-25.4,0-50.8,0.1-76.3-0.1c0-26.3,0-52.6,0-78.9c25.4,0,50.8,0,76.2,0
	C892.6,516.6,892.5,542.9,892.4,569.2z"/>
<g id="_x23_c0d1ebff">
	<path class="st0" d="M172.9-68.7c0.5,0,1.7,0,2.2,0c0,24.8,0,49.7,0,74.5c-24.7,0-49.4,0-74.1,0c-2.1,0-4.2-0.2-6.3-0.4
		c6.8-0.5,13.6-0.2,20.3-0.3c19.3,0,38.6,0.1,57.9,0C172.9-19.5,172.9-44.1,172.9-68.7z"/>
	<path class="st0" d="M252.9-68.7c0.6,0,1.7,0,2.2,0c0,24.6,0,49.2,0,73.8c25.9,0.1,51.9,0,77.8,0c0-24.6,0-49.2,0-73.8
		c0.6,0,1.7,0,2.2,0c0,24.9,0.1,49.7,0,74.6c-27.4-0.1-54.8,0-82.2,0C252.8-19,252.9-43.8,252.9-68.7z"/>
	<path class="st0" d="M10.9,94.2c0.5,1.6,0.8,3.3,0.8,4.9c-0.1,18,0,36-0.1,54c0,6,0.2,12-0.3,18c-25.4,0.3-50.8,0.2-76.1,0.1
		c0-0.5-0.1-1.5-0.1-2c25.3,0,50.6,0.1,75.9,0C10.8,144.2,10.9,119.2,10.9,94.2z"/>
	<path class="st0" d="M17.3,95.4c25.6-0.1,51.3-0.1,76.9,0c0.6,22.3,0,44.5,0.3,66.8c0,2.7,0.1,5.4-0.4,8c-3.6,0.8-7.4,0.4-11,0.4
		c-21.9-0.2-43.8,0.4-65.7-0.3C17.3,145.3,17.4,120.3,17.3,95.4 M18.1,96.1c-0.1,24.4-0.1,48.7,0,73.1c25,0.1,50,0.1,75,0
		c0.1-24.4,0.1-48.8,0-73.1C68.1,95.9,43,95.9,18.1,96.1z"/>
	<path class="st0" d="M95.1,95.3c21,0.1,41.9,0,62.9,0.1c5.7,0,11.5-0.2,17.2,0.3c-0.2,24.5,0,49-0.1,73.6c-0.6,0.1-1.7,0.3-2.2,0.3
		c0.1-24.5,0-49,0-73.5c-26-0.1-52-0.2-78,0L95.1,95.3z"/>
	<path class="st0" d="M654.1,95.3c26.4,0.1,52.8,0,79.1,0.1c0.5,20.6,0,41.2,0.2,61.8c0,2.8,0.4,5.7-1.1,8.2
		c-0.6-23.1,0-46.2-0.3-69.3c-26-0.1-52.1-0.2-78.1,0L654.1,95.3z"/>
	<path class="st0" d="M11.3,171.2c0.6,5.7,0.2,11.3,0.3,17c0,68.3,0,136.7,0,205c-0.1,5.4,0.3,10.9-0.4,16.3
		c-0.6-6.8-0.3-13.5-0.3-20.3c0-19.3,0-38.6,0-57.9c-25.3-0.1-50.6,0.1-75.8-0.1c0-0.5,0-1.6,0-2.1c25.3-0.2,50.5-0.1,75.8-0.1
		c0-25.9,0-51.9,0-77.8c-25.3,0-50.5,0.1-75.8-0.1c0-0.5,0-1.6,0-2.1c25.3-0.1,50.6,0,75.8,0c-0.1-23,0-45.9-0.1-68.9
		C10.8,177.2,11,174.2,11.3,171.2z"/>
	<path class="st0" d="M17.3,176.1c0-1.7,0.2-3.4,0.4-5.1c0.2,2.7,0.3,5.5,0.3,8.2c0,23.3,0,46.6,0,69.9c25.1,0,50.2,0,75.3,0
		c-0.1,0.6-0.2,1.7-0.3,2.3c-25,0-50,0-75,0c-0.1,25.9,0,51.8,0,77.8c21.7,0,43.4-0.1,65,0.1c2.2,0,4.5-0.3,6.5-1.1
		c0,25.4,0,50.8,0,76.2c0,1.8-0.2,3.5-0.4,5.3c-0.8-26-0.2-52.1-0.3-78.2c-23.6,0-47.2,0-70.9,0c-0.2,26.1,0.4,52.1-0.3,78.2
		c-0.6-4.4-0.4-8.9-0.4-13.3C17.3,322.8,17.4,249.5,17.3,176.1z"/>
	<path class="st0" d="M172.9,171c0.5,0,1.6,0,2.2,0c0,26,0,52.1,0,78.1c24.6,0,49.2-0.1,73.8,0.1c0.4,1.3,0.8,2.6,1.1,3.9
		c-0.4-0.4-1.2-1.1-1.6-1.5c-24.4-0.4-48.9,0-73.4-0.2c0.1,24.5-0.1,49,0.1,73.5c-0.6,0.1-1.7,0.3-2.2,0.4
		c-0.1-24.6,0-49.2-0.1-73.8c-26,0-52.1,0.1-78.1,0c0-0.5,0-1.6,0-2.2c26-0.1,52.1,0,78.1,0C172.9,223.1,172.9,197,172.9,171z"/>
	<path class="st0" d="M728.2,170.9c0.6,4.4,0.4,8.9,0.4,13.3c0,49.4,0,98.8,0,148.1c-4.7-1.8-9.7-0.9-14.6-1c-20,0-40.1,0.1-60.1,0
		c0-0.5,0.1-1.6,0.1-2.1c24.6-0.1,49.3,0,73.9,0c0-25.9,0-51.9,0-77.8c-24.7,0-49.3,0.1-73.9,0c0-0.5,0-1.6,0-2.1
		c24.6-0.1,49.3,0,73.9,0C728.1,223,727.5,196.9,728.2,170.9z"/>
	<path class="st0" d="M892,170.9c0.5,0,1.6,0,2.1,0c0.2,26.1,0.1,52.1,0.1,78.2c11.3,0.1,22.7-0.3,34,0.1c0,0.5,0,1.4,0,1.9
		c-11.3,0.4-22.7,0-34,0.1c0,25.9,0,51.9,0,77.8c11.4,0.1,22.7-0.3,34,0.1c0,0.5,0,1.4,0,1.9c-11.3,0.4-22.7,0-34,0.1
		c0,26.1,0.1,52.1-0.1,78.2c-0.5,0-1.6,0-2.1,0c-0.2-26.1-0.1-52.1,0-78.2c-24.7-0.1-49.3,0.2-73.9-0.1c0-0.5,0-1.5,0.1-2
		c24.6-0.2,49.2-0.1,73.9-0.1c0-25.9,0-51.9,0-77.8c-24.6,0-49.2,0.2-73.8-0.1c0-0.5,0-1.5,0-2c24.6-0.2,49.2-0.1,73.8-0.1
		C891.9,223,891.8,197,892,170.9z"/>
	<path class="st0" d="M333,255.3c1.2-0.4,2.5-0.8,3.8-1.2c-0.4,0.4-1.1,1.2-1.4,1.6c-0.5,24.5,0,48.9-0.2,73.4c26,0,52.1-0.1,78.1,0
		c0,0.5,0,1.6,0,2.2c-26,0.1-52.1,0-78.1,0c0,26,0.1,52.1,0,78.1c-0.5,0-1.6,0-2.2,0c-0.1-26,0-52.1,0-78.1c-25.9,0-51.9,0-77.8,0
		c0,26,0.1,52.1,0,78.2c-0.5,0-1.6,0-2.2,0c-0.1-26.1,0-52.1,0-78.2c-24.6,0-49.2,0.1-73.9-0.1c0.1-0.6,0.3-1.7,0.4-2.2
		c24.5,0.1,49,0,73.4,0.1c-0.1-24.5,0-49-0.1-73.6c0.6-0.1,1.7-0.2,2.2-0.2c0.2,24.6,0.1,49.2,0.1,73.8c25.9,0,51.9,0,77.8,0
		C332.9,304.5,332.7,279.9,333,255.3z"/>
	<path class="st0" d="M415,329.1c26,0,52-0.1,78,0c0,0.5,0.1,1.6,0.1,2.1c-26.1,0.2-52.3,0-78.4,0.1
		C414.7,330.8,414.9,329.6,415,329.1z"/>
	<path class="st0" d="M494.2,329.1c26.3,0,52.5-0.1,78.8,0.1c0,0.5,0,1.6,0,2.1c-26.3,0.1-52.5,0-78.8,0.1
		C494.1,330.7,494.2,329.6,494.2,329.1z"/>
	<path class="st0" d="M574.1,329.1c26.2-0.2,52.5-0.1,78.8-0.1c0,0.6,0,1.7,0,2.2c-26.3,0-52.5,0.1-78.8,0
		C574.1,330.7,574.1,329.7,574.1,329.1z"/>
	<path class="st0" d="M332.9,411.2c0.6-0.1,1.7-0.3,2.3-0.3c-0.1,26.1,0.1,52.3-0.1,78.5c-0.5,0-1.6-0.1-2.1-0.1
		C332.8,463.2,332.9,437.2,332.9,411.2z"/>
	<path class="st0" d="M332.9,490.3c0.6,0,1.7,0,2.2,0c0,26.3,0.1,52.6,0,78.8c-0.5,0-1.6,0-2.1-0.1
		C332.8,542.8,332.9,516.6,332.9,490.3z"/>
	<path class="st0" d="M10.9,570.2l0.8,0.2c-0.3,26.6,0.3,53.3-0.3,79.9c-25.4,0-50.8,0.1-76.2-0.1c0-0.5-0.1-1.5-0.1-2
		c25.3,0,50.6,0.1,75.9,0C10.9,622.2,10.8,596.2,10.9,570.2z"/>
	<path class="st0" d="M252.9,570.3c0.5,0,1.6,0,2.1,0c0.1,24.6,0,49.2,0.1,73.8c25.9,0,51.9,0,77.8,0c0-24.6-0.1-49.2,0.1-73.8
		c0.5,0,1.6,0,2.1,0c0.3,24.6-0.3,49.3,0.3,73.9c-1.8,0.3-3.5,0.6-5.3,0.6c-26.1,0-52.1-0.1-78.2,0c1.8-4.7,0.9-9.8,1-14.6
		C252.9,610.2,252.8,590.2,252.9,570.3z"/>
	<path class="st0" d="M413.2,569.9l0.5,0.8c0.9,3.1,0.8,6.3,0.8,9.5c-0.2,21.3,0.2,42.5-0.2,63.8c18.9,0.2,37.8,0,56.7,0.1
		c7.4,0.1,14.8-0.3,22.2,0.3c-4.4,0.6-8.8,0.4-13.2,0.4c-22.7,0-45.5,0-68.2,0c1.7-4,1.1-8.4,1.1-12.6c-0.1-16.3,0-32.7,0-49
		C412.8,578.7,412.8,574.3,413.2,569.9z"/>
	<path class="st0" d="M94.6,574.9c1.8-0.2,3.5-0.4,5.3-0.4c24.8,0,49.5,0,74.3,0c0.6,22.5,0.1,45.1,0.3,67.7c0,2.2,0.3,4.7-1.5,6.4
		c-0.4-24.5-0.1-48.9-0.1-73.4c-18,0-35.9,0-53.9,0C110.9,575.1,102.8,575.5,94.6,574.9z"/>
	<path class="st0" d="M498.3,656.2c0-2.1,0.2-4.2,0.4-6.3c0.7,26,0.1,52.1,0.3,78.2c24.6,0.1,49.3-0.1,73.9,0.1c0,0.5,0,1.6,0,2.1
		c-23,0.2-46,0.1-69,0c-1.9,0-3.8,0.4-5.5,1.1C498.2,706.3,498.4,681.2,498.3,656.2z"/>
	<path class="st0" d="M648.3,649.9c0.9,12.1,0.1,24.2,0.4,36.3c0,14.4,0.1,28.8-0.1,43.2l1-0.5v0.8c-0.7,1.7-1,3.6-1,5.5
		c0.1,23.6,0,47.2,0.1,70.8l-0.8,0.1c0.1-25.2,0.1-50.5,0-75.7c-24.6,0-49.3,0.1-73.9-0.1c0-0.5,0-1.6,0-2.1
		c24.6-0.1,49.3,0,73.9-0.1C648.2,702,647.6,675.9,648.3,649.9z"/>
	<path class="st0" d="M892,649.9c0.5,0,1.6,0,2.1,0c0.2,26.1,0,52.1,0.1,78.2c11.3,0.1,22.7-0.2,34,0.1c0,0.5,0,1.4,0,1.9
		c-11.3,0.4-22.7,0-34,0.2c0,25.9,0,51.8,0,77.8c11.3,0.1,22.7-0.3,34,0.2c0,0.5,0,1.4,0,1.9c-11.3,0.4-22.7,0-34,0.2
		c0,25.9,0,51.8,0,77.8c11.3,0.1,22.7-0.2,34,0.2c0,0.5,0,1.4,0,1.9c-11.3,0.4-22.7,0-34,0.1c0,10.3,0.1,20.6,0,30.9
		c-0.5,0-1.6,0-2.2,0c-0.1-10.3,0-20.6,0-30.9c-25.9,0-51.9,0-77.8,0c-0.1,10.5,0.3,21-0.2,31.4c-2.5-0.7-1.9-3.5-2.1-5.5
		c0.1-8.6,0-17.3,0-25.9c-25.9,0-51.9,0-77.8,0c0,10.1,0.1,20.1-0.1,30.2l-1.4-0.1c0-10-0.2-20,0.1-30c-26.3-0.3-52.5,0.1-78.8-0.2
		c0-0.5,0-1.6,0-2.1c26.3-0.2,52.5,0.1,78.8-0.2c-0.3-15.6-0.1-31.2-0.1-46.8c0.1-9-0.3-18,0.3-26.9h1.1c0.5,24.6,0.1,49.2,0.2,73.8
		c25.9,0,51.9,0,77.8,0c0.1-25.2-0.2-50.5,0.1-75.7c0.5,0,1.5,0,2,0c0.2,25.2,0,50.5,0.1,75.7c25.9,0,51.9,0,77.8,0
		c-0.1-25.9,0-51.9,0-77.8c-25.2,0-50.5,0.2-75.7-0.1c0-0.5,0-1.5,0-2c25.2-0.3,50.4-0.1,75.7-0.1c0-25.9,0-51.9,0-77.8
		c-25.2,0-50.5,0.1-75.7-0.1c0-0.5,0-1.6,0-2.1c25.2-0.2,50.5,0,75.7-0.1C891.9,702,891.8,676,892,649.9z"/>
	<path class="st0" d="M726.2,727.6c0.9,1,1.8,2.1,2.7,3.3c-0.7,11.1-0.2,22.2-0.4,33.3c0,13.2-0.1,26.5,0.1,39.8l-0.7,0.2
		c0-24.6-0.1-49.2,0-73.9c-23,0-46,0-69,0c-0.2,24.6-0.2,49.2,0,73.9l-0.8-0.1c0-24.7,0.2-49.3-0.1-74c0.7-0.7,1.3-1.4,2-2
		c10.3,0,20.7,0,31,0C702.7,727.8,714.5,728.7,726.2,727.6z"/>
	<path class="st0" d="M-65,728.1c24.9-0.1,49.8,0,74.6,0c0,27.7,0,55.5,0,83.2c-4.7-1.7-9.8-0.9-14.7-1c-20,0-40,0.1-59.9-0.1
		c0-0.5,0-1.6,0-2.1c24.6-0.2,49.3,0,73.9-0.1c0-25.9,0-51.8,0-77.8c-24.6,0-49.3,0.1-73.9-0.1C-64.9,729.7-64.9,728.7-65,728.1z"/>
	<path class="st0" d="M173,812.3c0.5,0,1.5,0,2,0c0.2,25.3,0,50.5,0.1,75.8c25.9,0,51.9,0,77.8,0c0-25.3-0.1-50.5,0.1-75.8
		c0.5,0,1.5,0,2,0c0.2,25.3,0,50.5,0.1,75.8c25.9,0,51.9,0,77.8,0c0-25.3-0.1-50.5,0.1-75.8c0.5,0,1.5,0,2,0
		c0.2,25.3,0,50.5,0.1,75.8c25.9,0,51.9,0,77.8,0c0.1-25.3-0.2-50.5,0.1-75.8h1.1c0.7,14.6,0.1,29.3,0.3,43.9
		c-0.1,10.6,0.1,21.2-0.1,31.8c26.3,0.2,52.5-0.1,78.8,0.2c0,0.5,0,1.5,0,2.1c-26.3,0.3-52.5-0.1-78.8,0.2c0.3,10,0.1,20,0.1,30
		l-1.4,0.1c-0.2-10.1-0.1-20.1-0.1-30.2c-25.9,0-51.9,0-77.8,0c0,8.6,0,17.3,0.1,25.9c-0.2,2,0.4,4.8-2.1,5.5
		c-0.5-10.5-0.1-21-0.2-31.4c-25.9,0-51.9,0-77.8,0c0,10.3,0.1,20.6,0,30.9c-0.5,0-1.6,0-2.1,0c-0.1-10.3,0-20.6,0-30.9
		c-25.9,0-51.9,0-77.8,0c0,10.3,0.1,20.6,0,30.9c-0.5,0-1.6,0-2.1,0c-0.1-10.3-0.1-20.6,0-30.9c-26.1,0-52.1,0.1-78.2-0.1
		c0-0.5,0-1.6,0-2.1c26-0.2,52.1,0,78.2,0C172.9,862.8,172.8,837.5,173,812.3z"/>
</g>
<g>
	<rect x="256.6" y="13.8" class="st0" width="76.2" height="234.3"/>
	<rect x="494.1" y="13.8" class="st0" width="315.9" height="76.3"/>
	<rect x="733" y="170.9" class="st0" width="76.9" height="157"/>
	<rect x="494.1" y="412.1" class="st0" width="78.8" height="72.7"/>
	<rect x="94.8" y="330.2" class="st0" width="77.6" height="234.6"/>
	<rect x="17.5" y="731.4" class="st0" width="74.7" height="74.7"/>
	<rect x="254.5" y="650.3" class="st0" width="78.5" height="78.5"/>
	<rect x="413.5" y="649.3" class="st0" width="79.6" height="75.2"/>
	<rect x="14.9" y="13.8" class="st0" width="158.7" height="75.7"/>
	<rect x="653.9" y="651.4" class="st0" width="82.3" height="154.7"/>
</g>
<g id="_x23_e84661ff">
	<path class="st0" d="M60.4,15.6c-3.8,0-7.6,0-11.4,0v0.1c3.8,0,7.6,0,11.5,0C60.4,15.7,60.4,15.7,60.4,15.6z"/>
	<path class="st0" d="M177.6,89.5c-2.3-3.5-5.7-6.1-8.6-9.2c-7.9-7.8-15.7-15.8-23.6-23.5c-2-2-4.2-3.8-5.5-6.4
		c9.4-10.1,19.5-19.5,29.1-29.4c2.8-2.9,5.6-5.9,8.7-8.5c0.2-2.5-0.5-5.7-3.7-5.5c-4.2,1.6-6.7,5.8-9.9,8.7c-0.2,0-0.4,0-0.6,0
		c-0.1,0.1-0.1,0.2-0.2,0.3l0,0c-0.1,0.1-0.1,0.1-0.2,0.2c-0.2,0.2-0.4,0.4-0.6,0.6c-6.7,7.3-14,14-20.9,21.1
		c-2.5,2.4-4.7,5.3-7.7,7.2c-6.9-6.4-13.3-13.3-20.1-19.9c-3-3-6.1-5.9-8.8-9.2c0.3,0,0.5,0,0.8,0c-0.1-0.1-0.2-0.3-0.3-0.4
		c-0.3,0-0.5,0-0.8,0c-4.2-2-6.2-7.7-11-8.5c-4.4,1.5-6.3,6.9-10.6,8.4c-0.1,0.2-0.2,0.3-0.3,0.5c0.1,0,0.2,0,0.4,0
		C76.5,23.6,69,30.3,62,37.6C59.6,40,57.3,43,54.2,45c-6.9-6.4-13.4-13.3-20.1-19.9c-3-3-6.1-5.9-8.7-9.2c0.1,0,0.2,0,0.3,0
		c-0.1-0.1-0.2-0.3-0.3-0.4c-0.1,0-0.2,0-0.3,0c-3.5-2.1-5.6-6.1-9.2-8.2c-2.9-1-6.2,1.9-4.8,4.7c2.2,3.4,5.6,5.9,8.3,8.9
		c9.8,9.8,19.8,19.5,29.4,29.5c-1.9,2.9-4.6,5.1-7,7.6c-7.5,7.5-15,15-22.5,22.4c-2.6,2.8-5.6,5.2-7.9,8.3c-1.9,2.3,0.6,6.1,3.5,5.4
		c4.2-1.2,6.2-6.8,10.3-8.1c0.1-0.2,0.2-0.4,0.3-0.5c-0.1,0-0.2,0-0.3,0C31.6,78,39.1,71.4,46,64.3c2.8-2.8,5.5-5.7,8.6-8.3
		c9.5,10,19.8,19.3,29,29.5c-0.1,0-0.1,0-0.2,0c0.1,0.1,0.2,0.3,0.3,0.4c0.1,0,0.2,0,0.3,0c3.5,2.2,5.6,6.1,9.2,8.2
		c5.3,0.5,7.2-6.5,11.6-8c0.1-0.2,0.2-0.4,0.3-0.5c-0.1,0-0.2,0-0.3,0c9.6-9.9,19.3-19.7,29.3-29.3c3.2,2,5.5,5.1,8.3,7.7
		c7,7.2,14.5,14,21.2,21.6c-0.2,0-0.4,0-0.5,0c0.2,0.1,0.3,0.3,0.5,0.4c0.2,0,0.3,0,0.5,0c3.5,2.2,5.6,6.2,9.2,8.2
		C176,94.8,178.4,92.2,177.6,89.5z M117.7,61.9c-7.8,7.5-14.9,15.6-23.1,22.6l-0.1,1.2c-0.1-0.4-0.4-1.2-0.5-1.5
		c-1.4-0.8-2.8-1.8-4-3C80,71,69.8,60.9,59.7,50.8c8.3-9,17.2-17.4,25.8-26.1c2.8-2.6,5-5.9,8.6-7.4c0.1-0.4,0.4-1.2,0.5-1.5
		l0.1,1.2c2,1.5,3.9,3.2,5.7,5c9.4,9.6,19,19,28.5,28.5C125.6,54.7,121.3,58,117.7,61.9z"/>
	<path class="st0" d="M210.3,51.5c4.6-2.4,10.9,1.5,10.5,6.7c0.4,5.5-6.6,9.3-11.1,6.3C204.6,61.9,205,53.6,210.3,51.5z"/>
	<path class="st0" d="M209.3,118.5c5.4-1.5,10.7,4.3,8.6,9.5c-1.5,5.5-9.7,6.8-12.9,2.1C201.8,126.1,204.2,119.4,209.3,118.5z"/>
	<path class="st0" d="M131.4,121.6c4.3-2.4,10.4,0.6,10.8,5.6c1,5.7-5.8,10.3-10.7,7.5C126.3,132.3,126.2,124,131.4,121.6z"/>
	<path class="st0" d="M54.4,122.6c4.6-2.4,10.7,1.4,10.5,6.6c0.5,5.7-6.7,9.5-11.3,6.3C48.6,132.9,49.2,124.7,54.4,122.6z"/>
	<path class="st0" d="M211.4,208.6c4.6-2.4,10.9,1.3,10.6,6.6c0.5,6-7.5,9.8-11.9,5.9C205.8,218.1,206.6,210.7,211.4,208.6z"/>
	<path class="st0" d="M291.4,280.5c5.5-1.8,10.9,4.2,8.9,9.5c-1.5,5.3-9.2,6.7-12.6,2.5C284.1,288.7,286.1,281.6,291.4,280.5z"/>
	<path class="st0" d="M368.4,359.7c4.5-2,10.2,1.5,10.2,6.5c0.6,5.7-6.5,9.9-11.2,6.6C362.3,370,362.9,361.6,368.4,359.7z"/>
	<path class="st0" d="M451.3,440.5c4.8-1.7,10.2,2.6,9.5,7.7c-0.1,5.7-7.7,8.9-12,5.1C444.3,450,445.8,441.8,451.3,440.5z"/>
	<path class="st0" d="M533.4,525.7c4.6-2.8,11.2,1.1,10.9,6.5c0.3,5.8-7,9.5-11.6,6.1C528.3,535.5,528.7,528,533.4,525.7z"/>
	<path class="st0" d="M609.4,600.6c4.7-2.9,11.5,1,11,6.6c0.2,5.4-6.3,9.1-10.9,6.4C604.6,611.1,604.5,603.2,609.4,600.6z"/>
	<path class="st0" d="M773.3,600.4c4.6-2.4,10.9,1.6,10.5,6.8c0.3,5.8-7.3,9.4-11.7,5.9C767.5,610.1,768.2,602.4,773.3,600.4z"/>
	<path class="st0" d="M691.3,601.5c4.9-2.3,11.1,2.3,10.2,7.7c-0.3,5.8-8.1,8.6-12.2,4.7C685.2,610.6,686.3,603.2,691.3,601.5z"/>
	<path class="st0" d="M650.1,650.9c-1.7-2.7,2-6.4,4.7-4.7c3.3,2.4,5.8,5.6,8.8,8.3c9.8,10,19.7,19.8,29.6,29.7
		c10-9.9,19.9-19.9,29.9-29.8c3-2.8,5.5-6.2,9-8.4c3.1-1.3,6.1,2.8,4.1,5.4c-2.4,3.1-5.4,5.7-8.1,8.5c-9.9,9.7-19.7,19.6-29.5,29.5
		c9.5,10,19.5,19.6,29.4,29.3c2.8,3.1,6,5.8,8.5,9.1c1.1,2-0.6,3.8-1.6,5.4c-2.1-0.4-4.4-0.7-5.9-2.4c-0.9-1.1-1.8-2.2-2.7-3.3
		c-11-11-21.8-22.1-33-32.9c-11.1,11.1-22.3,22.1-33.2,33.3c-0.7,0.7-1.3,1.4-2,2c-1.6,2.1-4.1,2.9-6.6,3c-0.6-1.1-1.3-2.3-1.8-3.4
		v-0.8c2-3.9,5.8-6.5,8.6-9.7c9.9-10,19.9-19.8,29.8-29.9c-9.9-9.9-19.7-19.8-29.6-29.5C655.7,656.8,652.4,654.3,650.1,650.9z"/>
	<path class="st0" d="M611.4,677.6c4.5-2.1,10.5,1.6,10.3,6.7c0.5,5.6-6.6,9.5-11.2,6.4C605.5,688,606,679.6,611.4,677.6z"/>
	<path class="st0" d="M774.4,684.6c5-1.6,10.4,3.2,9.3,8.3c-0.6,5.8-8.6,8.2-12.5,4C767.2,693.3,769.1,685.9,774.4,684.6z"/>
</g>
</svg>
