<svg xmlns="http://www.w3.org/2000/svg" viewBox="0 0 824.2 824.2" style="enable-background:new 0 0 824.2 824.2" xml:space="preserve"><path class="st1" fill="#1089DE" d="M894.2 410.5c6.2-.6 12.5-.3 18.8-.4 5.1-.1 10.3.7 15.3-.5-11.4-.4-22.9-.1-34.3-.2h-2.1c-25.3-.2-50.5-.1-75.8 0v-71.3c-.2-2.5.7-4.8 1.8-7 0-.5 0-1.5.1-2 .1-26-.1-52 .1-78v-2c-.1-26.1 0-52.2 0-78.3 24.6.2 49.3.2 73.9 0h2.1c11.4-.1 22.9.2 34.3-.2-11.3-1.5-22.8.4-34.1-.9l-.6-.7c-.2-26-.1-52.1 0-78.1 11.5-.1 22.9 0 34.4 0l-.1-1c-11.4 0-22.9-.1-34.3 0-.2-26.3-.1-52.6 0-79h34.4V10h-34.4c-.1-26.3-.2-52.6 0-79 11.4.1 22.9 0 34.3 0v-1h-34.4c-.1-10.3-.1-20.6 0-30.9h-1.2c.1 10.3.1 20.6 0 30.9h-78.8c-.1-10.3-.1-20.6 0-30.9-.3 0-.9 0-1.2.1.2 10.3.1 20.6 0 30.8h-78.7c0-10.3-.1-20.6.1-31h-.8c.1 10.3-.1 20.5-.2 30.7-26.3.5-52.6.1-78.9.2v-31.1h-1v31c-26.3.1-52.6.1-78.9 0v-31.1h-.9v31.1c-26.3.1-52.6.1-78.9 0v-31l-1-.1v31.1c-26.3-.1-52.6.3-78.9-.2-.2-10.2-.3-20.5-.2-30.7h-.8c.1 10.3.1 20.6.1 30.9-26.2 0-52.5.1-78.7 0-.2-10.3-.2-20.6 0-30.8h-1.2c.1 10.3.1 20.6 0 30.9-26.2.1-52.5.1-78.8 0-.2-10.3-.1-20.6 0-30.9h-1.2c.1 10.3.1 20.6 0 30.9-26.2.1-52.5.1-78.8 0-.1-10.3-.1-20.6 0-30.9-.3 0-.9 0-1.2.1.2 10.3.2 20.5 0 30.8-26.2.1-52.5.1-78.7 0 0-10.3-.1-20.6.1-31h-.8c.1 10.3 0 20.5-.2 30.7-26.3.4-52.6.1-78.9.2v-31.1l-1 .1v31c-26.3.1-52.6.1-78.9 0v-31.1h-.9v31.1c-11.6.1-23.2 0-34.8.1v.9c11.6.2 23.2.1 34.8.1.2 26.3 0 52.6.1 78.9h-34.9v.9h34.9c0 26.3.1 52.6-.1 78.9-11.6 0-23.2-.2-34.8.1l-.1.8h34.9c-.1 26.3.2 52.6-.1 78.9-11.6.2-23.1.2-34.7.3v.7c11.6-.1 23.2-.1 34.8 0-.1 52.8.1 105.5-.1 158.2v2c.2 26.1 0 52.2.1 78.2-11.6 0-23.2.1-34.8 0v.7c11.5.1 23.1 0 34.7.3.3 26.3 0 52.6.1 78.9-11.8.3-23.6-.3-35.4.3 2 .6 4.2.8 6.3.8 9.7-.1 19.3 0 29-.1.2 26.3 0 52.6.1 78.9h-34.9v.9h34.9c-.1 26.3.2 52.6-.2 78.9-11.5.2-23.1.2-34.7.3v.7c11.6-.1 23.2-.1 34.8 0-.1 26.1.1 52.2-.1 78.2v2.1c.3 63.6-.1 127.2.2 190.8h.8c.1-10.4 0-20.8 0-31.2 26.3-.1 52.7-.2 79 0-.1 7.1 0 14.3 0 21.4 0 3.4-.2 7 .7 10.3.6-10.4.1-20.9.3-31.3v-2.1c-.1-24.7.2-49.3 0-73.9 26.3 0 52.6-.1 79 .1.3 24.5.2 49.1.2 73.6l-.9.1c.1.5.3 1.5.3 2 1.5 10.1-.6 20.5 1 30.6.4-10.1.1-20.2.2-30.4v-2.1c-.1-20.6 0-41.3 0-61.9 0-3.9-.3-7.9.3-11.8 1.9-1.7 4.5-2.4 7-2.3 23.7.1 47.4 0 71.1.1h2c26-.1 52-.1 78 0h2c26-.1 52-.1 78 0h2c26-.1 52-.1 78 0h1.1c26.3-.2 52.7 0 79-.1.1 25.3 0 50.6 0 75.9v2.1c.2 10.4-.3 20.9.3 31.3.7-2.4.8-4.9.8-7.3-.1-8.2 0-16.3-.1-24.4 26.3-.2 52.6-.2 79 0 0 10.4-.1 20.8.1 31.2h.8c.1-10.4 0-20.9 0-31.3 26.3-.1 52.6-.2 78.9 0-.1 7.5 0 14.9 0 22.4 0 3.1-.2 6.3.7 9.3.6-10.4.1-20.9.3-31.3v-2.1c0-24.6-.1-49.3 0-73.9 26.3 0 52.6-.1 79 0h1.1c2.4-1.4 5.2-2.3 8-2.1 23.4.2 46.7-.1 70.1.2h2c.7-.7 1.5-1.4 2.2-2.1v-2c-.1-26 0-52 0-78v-80.3c25.3.1 50.5.2 75.8 0h2.1c11.4-.1 22.9.2 34.3-.2-5-1.2-10.2-.4-15.3-.5-6.3-.1-12.5.2-18.8-.4l-.6-.7c-.2-26-.1-52 0-78h34.4v-.9H894c-.1-26.3-.2-52.6 0-79 11.4.1 22.9 0 34.3 0v-1c-11.5.1-22.9.1-34.4 0-.1-26-.2-52.1 0-78.1l.3.1zm-480-479.2c26.3-.1 52.6 0 78.9 0 .1 24 .1 48 0 71.9.5 3.3-3.5 4.4-6.1 4.4h-70.1c-1.7.3-3.3-.5-2.8-2.5-.3-24.5-.2-49.2.1-73.8zM488.7 90c-24.8.1-49.7.1-74.5 0-.4-25.3-.4-50.7 0-76.1 24.8-.2 49.7-.2 74.5 0-.1 25.4 0 50.8 0 76.1zm-74.5 1.2c14.9-.5 29.9-.1 44.8-.2 9.8.1 19.7-.3 29.5.2.9 2 2.4 3.5 4.4 4.4.5 17.5.1 35 .2 52.5-.1 7.3.2 14.5-.2 21.8-26.2.3-52.5.4-78.7-.1-.4-26.1-.3-52.3 0-78.6zm-.2 153c0-24.4-.2-48.8.2-73.2 26.3-.2 52.6 0 78.9-.1v78.7c-25.7.2-51.4.1-77.1 0-3 .2-1.5-3.6-2-5.4zm-.1 84.9c.3-25.6-.3-51.2.3-76.9-.3-2.1 2.5-1.3 3.8-1.6 25.1.1 50.1-.1 75.1.1 0 26.1.2 52.2-.1 78.4 0 .5.1 1.6.1 2.1 0 24.5.3 49-.1 73.5-3 1.2-4.2 5.6-7.9 4.8-23.6-.2-47.2.1-70.8-.1-.5-26 .1-52-.4-78.1h.9c.1-.6.2-1.7.3-2.2h-1.2zm74.6 160.2c-24.8-.1-49.6.3-74.3-.2-.3-26.2-.4-52.5 0-78.7 16.9-.5 33.8-.2 50.8-.3 7.6.1 15.3-.3 22.9.4l.6.7c.2 26 .2 52.1 0 78.1zM413.2 170c-24.8.4-49.5.4-74.3 0-.3-26.3-.1-52.6-.1-78.9h74.4c.1 26.3.2 52.6 0 78.9zm.1 319.3c-26.1 0-52.1.1-78.2 0-.5 0-1.6-.1-2.1-.1-26.1.3-52.2.1-78.3.1-.2-25 0-50.1-.1-75.1.1-1.3-.5-4 1.6-3.7 25.6-.7 51.2 0 76.8-.3v1.1c.6-.1 1.7-.3 2.3-.3v-1c26 .5 52-.1 78 .4.1 26.3 0 52.6 0 78.9zm0 79.9c-26.1.1-52.1.1-78.2 0-.5 0-1.6 0-2.1-.1-26.1.3-52.2 0-78.4.1-.1-26.3-.2-52.6 0-79 26.1.1 52.2 0 78.3.1h80.3c.1 26.3.1 52.6.1 78.9zm0-159.8c-26.1 0-52.1.1-78.2-.1h-2.2c-26 .2-51.9.1-77.8.1H179v-78.2c.1-.5.3-1.7.4-2.2-1.2-1.6-2.7-3-4.3-4.3-.6.1-1.7.3-2.2.4-26.1.1-52.2 0-78.2 0 0-24.6-.1-49.3.1-73.9V249c-.2-26-.1-52.1-.1-78.2 26.1 0 52.1-.1 78.2.1h2.2c24.6-.2 49.3-.1 73.9-.1-.1 26.1.1 52.2-.1 78.2.4 1.3.8 2.6 1.1 3.9.9.9 1.8 1.7 2.8 2.5.5-.1 1.7-.2 2.2-.2 26 0 52-.2 78 .1 1.2-.4 2.5-.8 3.8-1.2 1.4-1.5 2.7-3.9 5.2-3.4 23.8.1 47.6-.1 71.3.1 0 26.1.1 52.2-.1 78.3v2.2c.2 26 .1 52.1.1 78.1zm-159.9 79.9H179c0-26.3-.1-52.6.1-78.9 23.3-.3 46.6-.3 69.9-.1 1.5.3 4.7-.7 4.5 1.8 0 25.8.1 51.5-.1 77.2zm-74.3 1c24.8 0 49.5.1 74.3 0 .2 26.3.2 52.6 0 79H179c0-26.4 0-52.7.1-79zM99.2 335c23.3-.1 46.7-.1 70 0 .1 24.8.1 49.6 0 74.4-23.3 0-46.7.1-70 0V335zm0 75.4c23.3-.4 46.6-.4 69.8 0 .4 26.3.1 52.6.1 78.9-23.3 0-46.7.1-70 0 .1-26.3 0-52.6.1-78.9zm0 79.9h70c0 24.8.3 49.7-.2 74.5-23.2-.1-46.5-.2-69.8 0-.1-24.8 0-49.7 0-74.5zm80.2-399c23.2-.5 46.4-.1 69.5-.2 0 26.3.2 52.6-.1 78.9-24.6.5-49.2 0-73.8.3v-1.1c-.6.1-1.7.3-2.2.3v.9c-25.9-.5-51.8.1-77.8-.4-.3-24.6.1-49.3-.2-73.9l.2-.9c21 .1 42 0 62.9.1 5.7 0 11.5-.2 17.2.3 1.9-1.1 3.3-2.6 4.3-4.3zm-.4-77.4c23.3-.1 46.6-.1 69.9 0 0 25.4.1 50.8 0 76.2H179V13.9zm149.9 76.2H259c-.1-24.8 0-49.5 0-74.3 23.3-.1 46.7-.1 70 0-.1 24.8 0 49.5-.1 74.3zm-69.9 1c23.3 0 46.6-.1 69.9 0 0 26.3.1 52.6-.1 78.9-23.2.3-46.5.3-69.8 0-.1-26.3.1-52.6 0-78.9zm70 79.8v74.2h-69.9v-74.2H329zm9.8 0c24.8-.1 49.6 0 74.4 0 .1 26.2 0 52.5 0 78.7-24.8.1-49.6.1-74.4 0v-78.7zm74.4-80.8h-74.4c-.2-25.4-.1-50.8 0-76.2 24.8-.1 49.6-.1 74.4 0 .1 25.4.1 50.8 0 76.2zM94.8-68.7c26 .1 52.1 0 78.1 0h2.2c25.9-.1 51.9 0 77.8 0h2.2c25.9 0 51.9-.1 77.8 0h80.3c.1 25.4 0 50.9 0 76.3-9.7 0-19.3.3-29-.2.1-.1.2-.2.4-.3-.4 0-.7 0-1 .1v.5h-23.1c0-.2 0-.3.1-.5h-1.2l.4.4c-6.3.4-12.6.2-18.9.2-2.1.2-4-.8-5.9-1.7-27.4-.1-54.8 0-82.2 0-3.9 2.5-8.6 1.6-12.9 1.8h-59c-2.1.1-4-1-5.9-1.8h-74.1c-2.1 0-4.2-.2-6.3-.4.2-25 0-49.7.2-74.4zm-79.9 0h78.9c.4 17.3.2 34.6.2 51.9 0 6.9.2 13.9-.2 20.8.2 2.2-2.5 1.5-3.8 1.7-25-.1-50.1.1-75.1-.1-.1-24.8-.1-49.5 0-74.3zm-79.9 0h78.9c-.1 24.8.2 49.5-.2 74.3-2.1.9-3.7 2.6-4.8 4.6-24.6.1-49.3 0-73.9 0 0-26.3-.1-52.6 0-78.9zm0 79.9H9.4c.1 26.3.1 52.6 0 79-24.8-.1-49.6 0-74.3 0-.2-26.4-.1-52.7-.1-79zm.1 160c0-.5-.1-1.5-.1-2V91.1c22-.1 44 0 66-.1 2.9 0 5.8.1 8.8.3.4.9.8 1.9 1.1 2.9.5 1.6.8 3.3.8 4.9-.1 18 0 36-.1 54 0 6 .2 12-.3 18 .6 5.7.2 11.3.3 17v205c-.1 5.4.3 10.9-.4 16.3-25.4-.1-50.8 0-76.2 0 0-26.1-.1-52.1.1-78.2v-2.1c-.2-26-.2-51.9 0-77.9v-2.1c-.2-25.9-.3-51.9 0-77.9zm76.2 318.1c-25.4.1-50.9.1-76.3 0 .1-26.3-.2-52.6.1-78.9 25.4-.3 50.7-.4 76.1 0 .3 26.3.1 52.6.1 78.9zm0 79.9H-65c0-26.3-.1-52.6.1-78.9h76.2c.1 26.3.1 52.6 0 78.9zm2.6 300c.4 6.4-.2 12.9 0 19.3-26.3.2-52.6.1-79 0 .1-26.1-.1-52.2.1-78.3v-2.1c-.2-26-.2-51.9 0-77.9 0-.5 0-1.6-.1-2.1-.1-26-.2-51.9.1-77.9 0-.5-.1-1.5-.1-2v-78.1c25.3 0 50.6-.1 75.9.1l.8.2c-.3 26.6.3 53.3-.3 79.9.1 24 0 47.9.1 71.9.2 2.1-.8 4-1.7 5.9v83.2c1.4 1.1 2.7 2.2 4.1 3.3.7 18.2 0 36.4.1 54.6zm5.2-458.8c11.6-.6 23.2-.1 34.9-.3 11.6.2 23.2-.4 34.8.4.9 1.3.5 3.1.6 4.6-.1 24.7.1 49.4-.1 74.1-23.9.1-47.8.1-71.7 0-.2-25 0-50.1-.1-75.1.2-1.2-.5-3.9 1.6-3.7zm70.2 158.8H17.6c-.1-26.3-.1-52.6 0-78.9h71.6c.2 26.3.2 52.6.1 78.9zm-71.7 1c23.7 0 47.5-.1 71.2.1 1.4 2 3.2 3.6 4.8 5.4.7 6.2.4 12.4.4 18.6-.1 18.2.2 36.5-.3 54.8-17.6.5-35.2.2-52.7.3-7.6-.1-15.3.3-22.9-.3-.9-1.4-.4-3.2-.6-4.7.2-24.9-.1-49.6.1-74.2zm71.7 234c-23.3 0-46.7.1-70-.1.1-23.3.1-46.5 0-69.8 23.3-.2 46.7 0 70-.1.1 23.3.1 46.6 0 70zm4.5-79.9c-25.4.3-50.8.1-76.2.1-.1-24.8-.1-49.6 0-74.4 25.4 0 50.8-.1 76.2.1.3 24.6.4 49.4 0 74.2zm.3-473c-.3 24.5.3 48.9-.4 73.4-1.4 1.1-2.8 2.2-4.1 3.3v76.2c0 1.8-.2 3.5-.4 5.3-23.8 0-47.7-.1-71.5 0-.6-4.4-.4-8.9-.4-13.3v-220c0-1.7.2-3.4.4-5.1 25.4.5 50.8-.1 76.1.3.5 25.9-.1 51.8.4 77.7h-.9c-.1.6-.2 1.7-.3 2.3l1.1-.1zm-.1-81.1c-3.6.8-7.4.4-11 .4-21.9-.2-43.8.4-65.7-.3 0-25 .1-50 0-74.9 25.6-.1 51.3-.1 76.9 0 .6 22.3 0 44.5.3 66.8 0 2.7.1 5.4-.5 8zM93.2 94c-3.6-2-5.7-6-9.2-8.2-18.7-.3-37.3.1-56-.2-6.1-.9-8 6.9-13.1 8.4-2.9.8-5.4-3.1-3.5-5.4 2.3-3 5.3-5.5 7.9-8.3.1-19.9-.1-39.7.1-59.5-2.8-3-6.1-5.5-8.3-8.9-1.4-2.8 2-5.7 4.7-4.6 3.6 2.1 5.7 6 9.2 8.2 19.3.2 38.7 0 58 .1 4.5-1.3 6.4-7 11-8.6 4.8.9 6.7 6.6 11 8.5 19.7.2 39.4 0 59.1.1 3.3-2.9 5.8-7 9.9-8.7 3.1-.2 3.9 3 3.7 5.5-3.1 2.7-5.9 5.6-8.7 8.5.3 19.8.2 39.5 0 59.3 2.8 3.1 6.3 5.7 8.6 9.2.8 2.7-1.7 5.3-4.4 4.5-3.6-2-5.7-6-9.2-8.2-19-.3-38 0-57-.1-6.2-.4-7.7 8.9-13.8 8.4zm6.8 480.5h74.3c.6 22.5.1 45.1.3 67.7 0 2.2.3 4.7-1.5 6.4v.8c-26.1-.6-52.2.2-78.3-.5-.2-24.7.1-49.4-.1-74.1 1.7-.1 3.5-.3 5.3-.3zm74.7 75.4H249v78.7c-24.8.1-49.6.1-74.3 0-.2-26.2-.2-52.4 0-78.7zm-79.9 74c-.2-24.7-.1-49.3-.1-74 26.2 0 52.5-.2 78.7.1.1 26.2.1 52.4 0 78.6-23.5.2-47 0-70.5.1-3.6.7-5.2-3.4-8.1-4.8zm78.6 82.2c-24.8-.1-49.5 0-74.3 0v-76.2c24.8-.2 49.5-.1 74.3 0 .2 25.3.3 50.8 0 76.2zm239.9-69c-.1 23 .1 45.9-.1 68.9H174.6c-.2-25.4-.1-50.8 0-76.2 24.7 0 49.4-.2 74.1.1 1 1.8 2.1 3.9 4.3 4.5 26.3-.3 52.7-.3 79 0 3.2.8 5.9-1.5 7.1-4.3-.9-26.7-.2-53.4-.3-80.1 23.3 0 46.7-.1 70 0-.1 26.8.1 53.5-.1 80.3.6 2.9 5.1 3.5 4.6 6.8zM259 654.3h69.9c.1 23.3 0 46.7 0 70-23.3.1-46.6.1-69.9 0v-70zM493.1 806c-26.3-.1-52.6.1-78.9-.1-.4-23.9-.3-47.8-.1-71.7 26.3-.2 52.6 0 79-.1 0 24.1.1 48 0 71.9zm-4.4-81.7c-23.3.3-46.7.1-70 .1-.1-23.3-.1-46.7 0-70 23.3.1 46.7 0 70 .1-.1 23.2 0 46.5 0 69.8zm-8.7-79.5h-68.2c-1.1 1.4-2.3 2.7-3.4 4.1-11.8.5-23.6.3-35.4.3-11.2-.1-22.4.2-33.5-.3-1.2-1.6-2.5-3.1-4.1-4.2v-.6c-1.8.3-3.5.6-5.3.6-26.1 0-52.1-.1-78.2 0-1.1 1.4-2.2 2.7-3.3 4.1-24.5.6-48.9.3-73.4.1-.4-15.6 0-31.2-.1-46.8.2-9.2-.4-18.3.2-27.5 1.8-1 3.2-2.6 4.2-4.4 24.5-.3 49-.2 73.5 0h2.1c26-.2 51.9-.2 77.9 0h2.1c26.1-.4 52.1.3 78.2-.3l.5.8c2.1-.3 4.2-.5 6.3-.5h73.1c.1 24.8 0 49.5.1 74.2-4.5.6-8.9.4-13.3.4zm13.1-75.6c-26.3-.1-52.6.2-78.9-.1-.3-26.2-.4-52.5 0-78.7 24.7 0 49.5-.2 74.2.1.9 2 2.4 3.5 4.4 4.4.7 24.7.2 49.5.3 74.3zm1-637.9h78.8c.2 24.8 0 49.5.1 74.3-26.3.1-52.6.2-78.9 0 .1-24.8 0-49.5 0-74.3zM573 85.6c-24.8.1-49.6.1-74.4 0-.1-23.3-.1-46.5 0-69.8 24.8-.1 49.6-.1 74.4 0v69.8zm-78.9 85.3c26.3-.1 52.6 0 78.9 0v78.7c-26.3.1-52.6.2-79 0 .2-26.2.1-52.5.1-78.7zm78.9 79.9c-.1 26.1.2 52.2-.1 78.4v2.1c.2 24.6.1 49.2 0 73.8H494v-75.9c-.1-26.1 0-52.2-.1-78.3 26.5-.3 52.8-.2 79.1-.1zm-78.9 319.4c26.3-.2 52.6 0 78.9-.1-.1 26.3.2 52.6-.1 78.9-21.3.4-42.6.1-63.9.2-3.2-.1-6.4 0-9.5-.5-1.7-1.7-3.3-3.5-5.3-4.8-.2-24.6 0-49.1-.1-73.7zm78.9-75.4v74.4c-26.3 0-52.6.1-78.9-.1 0-24.8.1-49.6 0-74.3 26.3-.1 52.6-.1 78.9 0zm-74.4-79.9c23.3-.1 46.5-.1 69.8 0 .1 23.3.1 46.6 0 69.9-23.3.2-46.5.1-69.8 0-.1-23.3-.1-46.6 0-69.9zM573 888.5c-26.3.1-52.6.1-78.9 0v-76.3c26.3-.1 52.6 0 78.9 0v76.3zm0-82.5h-78.9c0-23.8-.1-47.6.1-71.4l4.2-3.3c-.1-25.1 0-50.1-.1-75.2 0-2.1.2-4.2.4-6.3 24.8.1 49.5 0 74.3.1 0 26.1.1 52.1-.1 78.2v2.1c.3 25.3.1 50.6.1 75.8zm-.1-636c-26.2.3-52.5.3-78.7 0-.1-24.8-.1-49.7 0-74.5 26.2.1 52.5.1 78.8 0 .1 24.8.2 49.7-.1 74.5zm319.5-.8-.6.6c-7.5 1-15.2.3-22.8.5-16.9-.2-33.9.4-50.8-.4-1.1-2.1-2.3-4.2-2.1-6.7V97.1c-.2-2.2.8-4.1 2.1-5.8 2.9-.6 5.8-.3 8.7-.3h65.4c.2 26.1.3 52.2.1 78.2zm0-79.1c-24.8-.1-49.5-.1-74.3 0-.1-26.3 0-52.6 0-79h74.4c0 26.4.1 52.7-.1 79zM810 165.5c-25.3.1-50.6.1-76 0 0-23.3-.1-46.7.1-70 25.3.1 50.5.1 75.8 0 .2 23.3 0 46.6.1 70zm-71.9 85.3c23.3-.2 46.7-.2 70 0 .1 24.8.1 49.6 0 74.4h-70c.1-24.8.1-49.6 0-74.4zm70.1-1.2c-23.3.1-46.7.2-70 0 .1-24.7 0-49.5 0-74.2h70c.1 24.7 0 49.4 0 74.2zm0-164c-24.8.2-49.6.1-74.4 0V15.8c24.8-.1 49.6-.1 74.4 0 .1 23.2 0 46.5 0 69.8zM733.7 335c25.4-.1 50.8 0 76.2 0v74.5h-76.2V335zm.1 75.4c25.4-.4 50.7-.3 76.1 0 .2 26.3 0 52.6.1 78.9-25.4.1-50.8 0-76.2 0-.1-26.3-.2-52.6 0-78.9zM810 569.2h-76.2c0-26.3-.1-52.6 0-78.9H810v78.9zM653.9-68.7h78.9c.4 16.9.2 33.9.2 50.8-.1 7.6.3 15.3-.3 22.9-1.3 1-3.2.4-4.7.6-24.7-.1-49.4.1-74.1-.1-.1-24.7-.1-49.4 0-74.2zM733 76.2c0 3-.1 5.9-.4 8.9-1.4 1-3.2.4-4.7.6-24.7-.1-49.4.1-74.1-.1-.1-23.2-.1-46.5 0-69.8 26.3-.1 52.6-.2 78.9.1.5 20.1.3 40.2.3 60.3zm-79.1 19.9.2-.9c26.4.1 52.8 0 79.1.1.5 20.6 0 41.2.2 61.8 0 2.8.4 5.7-1.1 8.2-1.9 1.1-3.3 2.8-4.9 4.3-3.1.6-6.3.5-9.5.5-21.3-.1-42.6.2-63.9-.2-.4-24.5 0-49.2-.1-73.8zm78.9 473c-26.3.3-52.6 0-78.9.1-.1-26.3-.1-52.6 0-78.9 26.3 0 52.6-.1 78.9 0 .4 26.3.3 52.5 0 78.8zm0 75.3c-26.3.3-52.6.1-78.9.1-.1-24.8-.1-49.6 0-74.3 26.3.1 52.6-.2 78.9.1.3 24.7.4 49.4 0 74.1zm0-155.3c-26.3.5-52.6.1-78.9.2.1-26.3-.3-52.6.2-78.9 26.2-.3 52.5-.4 78.7.1.4 26.2.3 52.4 0 78.6zm0-79.7c-26.3.2-52.6.1-78.9.1 0-26.1-.1-52.1 0-78.2 0-.5.1-1.6.1-2.1-.2-26-.2-51.9 0-77.9v-2.1c-.2-26.1-.1-52.1-.1-78.2 24.8-.1 49.5 0 74.3 0 .6 4.4.4 8.9.4 13.3v148.1c1.4 1.1 2.7 2.2 4.1 3.3.6 24.5.4 49.1.1 73.7zM574-68.7h78.8V5.5c-26.3.2-52.6.1-78.9 0 .1-24.7 0-49.5.1-74.2zm78.9 154.2c-26.3.2-52.6.1-78.9 0V15.7c26.3-.1 52.6-.1 78.9 0v69.8zm0 164.1c-26.3.2-52.6.1-79 0v-78.7c26.3 0 52.6-.1 78.9 0 .1 26.2 0 52.5.1 78.7zM574.1 95.5c26.2.1 52.5.1 78.7 0 .1 24.8.1 49.7 0 74.5-26.2.4-52.5.4-78.7 0-.2-24.8-.2-49.7 0-74.5zm-.1 235.7v-2.1c-.3-26.1-.1-52.2-.1-78.4 26.3-.1 52.6-.2 78.9 0-.1 26.1.1 52.2-.1 78.3v80.3c-23.7.1-47.3 0-71 .1-3.7.7-4.8-3.7-7.8-4.8-.1-24.4.1-48.9.1-73.4zm78.9 158.1c-24.8.1-49.5.1-74.3 0-.1-26.3-.2-52.6.1-78.9 24.7-.3 49.5-.4 74.2 0 0 26.3-.1 52.6 0 78.9zm-74.2 1.1c24.7-.3 49.5-.1 74.2-.1v78.8c-26.3.2-52.6 0-78.9.1v-73.9c2-1.2 3.7-2.7 4.7-4.9zm-4.7 79.8c26.3 0 52.6-.1 78.9.1V644c-2.9 1.4-4.2 5.5-7.8 5.1-23.6.3-47.3.2-70.9 0-.4-26.4-.2-52.7-.2-78.9zm0 318.3v-76.3h72.1c2.5-.2 4.7 1 6.8 2.1v74.3c-26.3.1-52.6 0-78.9-.1zm154.4-191.3c-.2 7.2.4 14.4-.4 21.5 2.8 3.1 6 5.8 8.5 9.1 1.1 2-.6 3.8-1.6 5.4-2.1-.4-4.4-.7-5.9-2.4-.7 11.1-.2 22.2-.4 33.3 0 13.2-.1 26.5.1 39.8l-.7.2h-69l-.8-.1c0-24.7.2-49.3-.1-74-1.6 2.1-4.1 2.9-6.6 3-.6-1.1-1.3-2.3-1.8-3.4-.7 1.7-1 3.6-1 5.5.1 23.6 0 47.2.1 70.8l-.8.1h-73.9c-.1-25.3-.2-50.5.1-75.8v-2.1c-.2-26.1 0-52.1-.1-78.2 24.8-.1 49.5.1 74.3-.1.9 12.1.1 24.2.4 36.3 0 14.4.1 28.8-.1 43.2l1-.5c2-3.9 5.8-6.5 8.6-9.7.3-19.8-.1-39.6.2-59.4-2.8-3-6.1-5.5-8.3-8.9-1.7-2.7 2-6.4 4.7-4.7 3.3 2.4 5.8 5.6 8.8 8.3 19.8-.3 39.7 0 59.5-.1 3-2.8 5.5-6.2 9-8.4 3.1-1.3 6.1 2.8 4.1 5.4-2.4 3.1-5.4 5.7-8.1 8.5.5 12.5 0 25 .2 37.4zM810 806h-71.8v-76.2c23.9-.2 47.9-.1 71.8 0V806zm-71.9-77.4c.1-26.2 0-52.4 0-78.6 23.9-.1 47.9 0 71.8 0v78.7c-23.9.1-47.8.2-71.8-.1zm71.8-79.6c-23.8.2-47.5.5-71.3-.1-1.2-2-2.8-3.7-4.8-4.9-.1-24.6-.1-49.2-.1-73.8h76.2c0 26.2.2 52.5 0 78.8zm2.6-643.4c-26.2.1-52.5.1-78.7 0 0-24.8-.1-49.5 0-74.3 26.2 0 52.5.1 78.7 0 .2 24.7.1 49.5 0 74.3zm1.1-.5c0-24.6-.1-49.2 0-73.9 26.2.1 52.5.1 78.7 0 .2 26.3.1 52.6 0 79-24.7-.1-49.3.2-74-.1-1-2.1-2.7-3.7-4.7-5zm2.6 405.3c17.9-.7 35.9-.2 53.8-.4 7.2.2 14.5-.5 21.8.5l.6.6c.2 26 .1 52.1 0 78.1-25.4 0-50.8.1-76.2 0 0-26.2-.1-52.5 0-78.8zm76.2 237.8-.6.6c-8.9 1-17.8.2-26.8.5-16.3-.1-32.5.3-48.8-.4-.1-26.2 0-52.5-.1-78.7 25.4-.1 50.8 0 76.3-.1.1 26.1.2 52.1 0 78.1zm0-79c-25.4 0-50.8.1-76.3-.1v-78.9h76.2c.3 26.4.2 52.7.1 79z"/><path class="st2" fill="#1089DE" d="M172.9-68.7h2.2V5.8H101c-2.1 0-4.2-.2-6.3-.4 6.8-.5 13.6-.2 20.3-.3 19.3 0 38.6.1 57.9 0v-73.8zM252.9-68.7h2.2V5.1c25.9.1 51.9 0 77.8 0v-73.8h2.2c0 24.9.1 49.7 0 74.6-27.4-.1-54.8 0-82.2 0-.1-24.9 0-49.7 0-74.6zM10.9 94.2c.5 1.6.8 3.3.8 4.9-.1 18 0 36-.1 54 0 6 .2 12-.3 18-25.4.3-50.8.2-76.1.1 0-.5-.1-1.5-.1-2 25.3 0 50.6.1 75.9 0-.2-25-.1-50-.1-75zM17.3 95.4c25.6-.1 51.3-.1 76.9 0 .6 22.3 0 44.5.3 66.8 0 2.7.1 5.4-.4 8-3.6.8-7.4.4-11 .4-21.9-.2-43.8.4-65.7-.3-.1-25 0-50-.1-74.9m.8.7c-.1 24.4-.1 48.7 0 73.1 25 .1 50 .1 75 0 .1-24.4.1-48.8 0-73.1-25-.2-50.1-.2-75 0zM95.1 95.3c21 .1 41.9 0 62.9.1 5.7 0 11.5-.2 17.2.3-.2 24.5 0 49-.1 73.6-.6.1-1.7.3-2.2.3.1-24.5 0-49 0-73.5-26-.1-52-.2-78 0l.2-.8zM654.1 95.3c26.4.1 52.8 0 79.1.1.5 20.6 0 41.2.2 61.8 0 2.8.4 5.7-1.1 8.2-.6-23.1 0-46.2-.3-69.3-26-.1-52.1-.2-78.1 0l.2-.8zM11.3 171.2c.6 5.7.2 11.3.3 17v205c-.1 5.4.3 10.9-.4 16.3-.6-6.8-.3-13.5-.3-20.3v-57.9c-25.3-.1-50.6.1-75.8-.1v-2.1c25.3-.2 50.5-.1 75.8-.1v-77.8c-25.3 0-50.5.1-75.8-.1V249c25.3-.1 50.6 0 75.8 0-.1-23 0-45.9-.1-68.9 0-2.9.2-5.9.5-8.9zM17.3 176.1c0-1.7.2-3.4.4-5.1.2 2.7.3 5.5.3 8.2v69.9h75.3c-.1.6-.2 1.7-.3 2.3H18c-.1 25.9 0 51.8 0 77.8 21.7 0 43.4-.1 65 .1 2.2 0 4.5-.3 6.5-1.1v76.2c0 1.8-.2 3.5-.4 5.3-.8-26-.2-52.1-.3-78.2H17.9c-.2 26.1.4 52.1-.3 78.2-.6-4.4-.4-8.9-.4-13.3.1-73.6.2-146.9.1-220.3zM172.9 171h2.2v78.1c24.6 0 49.2-.1 73.8.1.4 1.3.8 2.6 1.1 3.9-.4-.4-1.2-1.1-1.6-1.5-24.4-.4-48.9 0-73.4-.2.1 24.5-.1 49 .1 73.5-.6.1-1.7.3-2.2.4-.1-24.6 0-49.2-.1-73.8-26 0-52.1.1-78.1 0v-2.2c26-.1 52.1 0 78.1 0 .1-26.2.1-52.3.1-78.3zM728.2 170.9c.6 4.4.4 8.9.4 13.3v148.1c-4.7-1.8-9.7-.9-14.6-1-20 0-40.1.1-60.1 0 0-.5.1-1.6.1-2.1 24.6-.1 49.3 0 73.9 0v-77.8c-24.7 0-49.3.1-73.9 0v-2.1c24.6-.1 49.3 0 73.9 0 .2-26.3-.4-52.4.3-78.4zM892 170.9h2.1c.2 26.1.1 52.1.1 78.2 11.3.1 22.7-.3 34 .1v1.9c-11.3.4-22.7 0-34 .1V329c11.4.1 22.7-.3 34 .1v1.9c-11.3.4-22.7 0-34 .1 0 26.1.1 52.1-.1 78.2H892c-.2-26.1-.1-52.1 0-78.2-24.7-.1-49.3.2-73.9-.1 0-.5 0-1.5.1-2 24.6-.2 49.2-.1 73.9-.1v-77.8c-24.6 0-49.2.2-73.8-.1v-2c24.6-.2 49.2-.1 73.8-.1-.2-25.9-.3-51.9-.1-78zM333 255.3c1.2-.4 2.5-.8 3.8-1.2-.4.4-1.1 1.2-1.4 1.6-.5 24.5 0 48.9-.2 73.4 26 0 52.1-.1 78.1 0v2.2c-26 .1-52.1 0-78.1 0 0 26 .1 52.1 0 78.1H333c-.1-26 0-52.1 0-78.1h-77.8c0 26 .1 52.1 0 78.2H253c-.1-26.1 0-52.1 0-78.2-24.6 0-49.2.1-73.9-.1.1-.6.3-1.7.4-2.2 24.5.1 49 0 73.4.1-.1-24.5 0-49-.1-73.6.6-.1 1.7-.2 2.2-.2.2 24.6.1 49.2.1 73.8h77.8c0-24.6-.2-49.2.1-73.8zM415 329.1c26 0 52-.1 78 0 0 .5.1 1.6.1 2.1-26.1.2-52.3 0-78.4.1 0-.5.2-1.7.3-2.2zM494.2 329.1c26.3 0 52.5-.1 78.8.1v2.1c-26.3.1-52.5 0-78.8.1-.1-.7 0-1.8 0-2.3zM574.1 329.1c26.2-.2 52.5-.1 78.8-.1v2.2c-26.3 0-52.5.1-78.8 0v-2.1zM332.9 411.2c.6-.1 1.7-.3 2.3-.3-.1 26.1.1 52.3-.1 78.5-.5 0-1.6-.1-2.1-.1-.2-26.1-.1-52.1-.1-78.1zM332.9 490.3h2.2c0 26.3.1 52.6 0 78.8-.5 0-1.6 0-2.1-.1-.2-26.2-.1-52.4-.1-78.7zM10.9 570.2l.8.2c-.3 26.6.3 53.3-.3 79.9-25.4 0-50.8.1-76.2-.1 0-.5-.1-1.5-.1-2 25.3 0 50.6.1 75.9 0-.1-26-.2-52-.1-78zM252.9 570.3h2.1c.1 24.6 0 49.2.1 73.8h77.8c0-24.6-.1-49.2.1-73.8h2.1c.3 24.6-.3 49.3.3 73.9-1.8.3-3.5.6-5.3.6-26.1 0-52.1-.1-78.2 0 1.8-4.7.9-9.8 1-14.6 0-20-.1-40 0-59.9zM413.2 569.9l.5.8c.9 3.1.8 6.3.8 9.5-.2 21.3.2 42.5-.2 63.8 18.9.2 37.8 0 56.7.1 7.4.1 14.8-.3 22.2.3-4.4.6-8.8.4-13.2.4h-68.2c1.7-4 1.1-8.4 1.1-12.6-.1-16.3 0-32.7 0-49-.1-4.5-.1-8.9.3-13.3zM94.6 574.9c1.8-.2 3.5-.4 5.3-.4h74.3c.6 22.5.1 45.1.3 67.7 0 2.2.3 4.7-1.5 6.4-.4-24.5-.1-48.9-.1-73.4H119c-8.1-.1-16.2.3-24.4-.3zM498.3 656.2c0-2.1.2-4.2.4-6.3.7 26 .1 52.1.3 78.2 24.6.1 49.3-.1 73.9.1v2.1c-23 .2-46 .1-69 0-1.9 0-3.8.4-5.5 1.1-.2-25.1 0-50.2-.1-75.2zM648.3 649.9c.9 12.1.1 24.2.4 36.3 0 14.4.1 28.8-.1 43.2l1-.5v.8c-.7 1.7-1 3.6-1 5.5.1 23.6 0 47.2.1 70.8l-.8.1c.1-25.2.1-50.5 0-75.7-24.6 0-49.3.1-73.9-.1v-2.1c24.6-.1 49.3 0 73.9-.1.3-26.1-.3-52.2.4-78.2zM892 649.9h2.1c.2 26.1 0 52.1.1 78.2 11.3.1 22.7-.2 34 .1v1.9c-11.3.4-22.7 0-34 .2v77.8c11.3.1 22.7-.3 34 .2v1.9c-11.3.4-22.7 0-34 .2v77.8c11.3.1 22.7-.2 34 .2v1.9c-11.3.4-22.7 0-34 .1 0 10.3.1 20.6 0 30.9H892c-.1-10.3 0-20.6 0-30.9h-77.8c-.1 10.5.3 21-.2 31.4-2.5-.7-1.9-3.5-2.1-5.5.1-8.6 0-17.3 0-25.9h-77.8c0 10.1.1 20.1-.1 30.2l-1.4-.1c0-10-.2-20 .1-30-26.3-.3-52.5.1-78.8-.2v-2.1c26.3-.2 52.5.1 78.8-.2-.3-15.6-.1-31.2-.1-46.8.1-9-.3-18 .3-26.9h1.1c.5 24.6.1 49.2.2 73.8H812c.1-25.2-.2-50.5.1-75.7h2c.2 25.2 0 50.5.1 75.7H892c-.1-25.9 0-51.9 0-77.8-25.2 0-50.5.2-75.7-.1v-2c25.2-.3 50.4-.1 75.7-.1v-77.8c-25.2 0-50.5.1-75.7-.1v-2.1c25.2-.2 50.5 0 75.7-.1-.1-26-.2-52 0-78.1zM726.2 727.6c.9 1 1.8 2.1 2.7 3.3-.7 11.1-.2 22.2-.4 33.3 0 13.2-.1 26.5.1 39.8l-.7.2c0-24.6-.1-49.2 0-73.9h-69c-.2 24.6-.2 49.2 0 73.9l-.8-.1c0-24.7.2-49.3-.1-74 .7-.7 1.3-1.4 2-2h31c11.7-.3 23.5.6 35.2-.5zM-65 728.1c24.9-.1 49.8 0 74.6 0v83.2c-4.7-1.7-9.8-.9-14.7-1-20 0-40 .1-59.9-.1v-2.1c24.6-.2 49.3 0 73.9-.1v-77.8c-24.6 0-49.3.1-73.9-.1.1-.4.1-1.4 0-2zM173 812.3h2c.2 25.3 0 50.5.1 75.8h77.8c0-25.3-.1-50.5.1-75.8h2c.2 25.3 0 50.5.1 75.8h77.8c0-25.3-.1-50.5.1-75.8h2c.2 25.3 0 50.5.1 75.8h77.8c.1-25.3-.2-50.5.1-75.8h1.1c.7 14.6.1 29.3.3 43.9-.1 10.6.1 21.2-.1 31.8 26.3.2 52.5-.1 78.8.2v2.1c-26.3.3-52.5-.1-78.8.2.3 10 .1 20 .1 30l-1.4.1c-.2-10.1-.1-20.1-.1-30.2h-77.8c0 8.6 0 17.3.1 25.9-.2 2 .4 4.8-2.1 5.5-.5-10.5-.1-21-.2-31.4h-77.8c0 10.3.1 20.6 0 30.9H253c-.1-10.3 0-20.6 0-30.9h-77.8c0 10.3.1 20.6 0 30.9h-2.1c-.1-10.3-.1-20.6 0-30.9-26.1 0-52.1.1-78.2-.1v-2.1c26-.2 52.1 0 78.2 0-.2-25.4-.3-50.7-.1-75.9z"/><g><path fill="#1089DE" class="st1" d="M256.6 13.8h76.2v234.3h-76.2zM494.1 13.8H810v76.3H494.1zM733 170.9h76.9v157H733zM494.1 412.1h78.8v72.7h-78.8zM94.8 330.2h77.6v234.6H94.8zM17.5 731.4h74.7v74.7H17.5zM254.5 650.3H333v78.5h-78.5zM413.5 649.3h79.6v75.2h-79.6zM14.9 13.8h158.7v75.7H14.9zM653.9 651.4h82.3v154.7h-82.3z"/></g><g><path class="st3" fill="#E84661" d="M60.4 15.6H49v.1h11.5c-.1 0-.1 0-.1-.1z"/><path class="red" fill="#E84661" d="M177.6 89.5c-2.3-3.5-5.7-6.1-8.6-9.2-7.9-7.8-15.7-15.8-23.6-23.5-2-2-4.2-3.8-5.5-6.4 9.4-10.1 19.5-19.5 29.1-29.4 2.8-2.9 5.6-5.9 8.7-8.5.2-2.5-.5-5.7-3.7-5.5-4.2 1.6-6.7 5.8-9.9 8.7h-.6c-.1.1-.1.2-.2.3l-.2.2-.6.6c-6.7 7.3-14 14-20.9 21.1-2.5 2.4-4.7 5.3-7.7 7.2-6.9-6.4-13.3-13.3-20.1-19.9-3-3-6.1-5.9-8.8-9.2h.8c-.1-.1-.2-.3-.3-.4h-.8c-4.2-2-6.2-7.7-11-8.5-4.4 1.5-6.3 6.9-10.6 8.4-.1.2-.2.3-.3.5h.4C76.5 23.6 69 30.3 62 37.6 59.6 40 57.3 43 54.2 45c-6.9-6.4-13.4-13.3-20.1-19.9-3-3-6.1-5.9-8.7-9.2h.3c-.1-.1-.2-.3-.3-.4h-.3c-3.5-2.1-5.6-6.1-9.2-8.2-2.9-1-6.2 1.9-4.8 4.7 2.2 3.4 5.6 5.9 8.3 8.9 9.8 9.8 19.8 19.5 29.4 29.5-1.9 2.9-4.6 5.1-7 7.6-7.5 7.5-15 15-22.5 22.4-2.6 2.8-5.6 5.2-7.9 8.3-1.9 2.3.6 6.1 3.5 5.4 4.2-1.2 6.2-6.8 10.3-8.1.1-.2.2-.4.3-.5h-.3C31.6 78 39.1 71.4 46 64.3c2.8-2.8 5.5-5.7 8.6-8.3 9.5 10 19.8 19.3 29 29.5h-.2c.1.1.2.3.3.4h.3c3.5 2.2 5.6 6.1 9.2 8.2 5.3.5 7.2-6.5 11.6-8 .1-.2.2-.4.3-.5h-.3c9.6-9.9 19.3-19.7 29.3-29.3 3.2 2 5.5 5.1 8.3 7.7 7 7.2 14.5 14 21.2 21.6h-.5c.2.1.3.3.5.4h.5c3.5 2.2 5.6 6.2 9.2 8.2 2.7.6 5.1-2 4.3-4.7zm-59.9-27.6c-7.8 7.5-14.9 15.6-23.1 22.6l-.1 1.2c-.1-.4-.4-1.2-.5-1.5-1.4-.8-2.8-1.8-4-3C80 71 69.8 60.9 59.7 50.8c8.3-9 17.2-17.4 25.8-26.1 2.8-2.6 5-5.9 8.6-7.4.1-.4.4-1.2.5-1.5l.1 1.2c2 1.5 3.9 3.2 5.7 5 9.4 9.6 19 19 28.5 28.5-3.3 4.2-7.6 7.5-11.2 11.4zM210.3 51.5c4.6-2.4 10.9 1.5 10.5 6.7.4 5.5-6.6 9.3-11.1 6.3-5.1-2.6-4.7-10.9.6-13zM209.3 118.5c5.4-1.5 10.7 4.3 8.6 9.5-1.5 5.5-9.7 6.8-12.9 2.1-3.2-4-.8-10.7 4.3-11.6zM131.4 121.6c4.3-2.4 10.4.6 10.8 5.6 1 5.7-5.8 10.3-10.7 7.5-5.2-2.4-5.3-10.7-.1-13.1zM54.4 122.6c4.6-2.4 10.7 1.4 10.5 6.6.5 5.7-6.7 9.5-11.3 6.3-5-2.6-4.4-10.8.8-12.9zM211.4 208.6c4.6-2.4 10.9 1.3 10.6 6.6.5 6-7.5 9.8-11.9 5.9-4.3-3-3.5-10.4 1.3-12.5zM291.4 280.5c5.5-1.8 10.9 4.2 8.9 9.5-1.5 5.3-9.2 6.7-12.6 2.5-3.6-3.8-1.6-10.9 3.7-12zM368.4 359.7c4.5-2 10.2 1.5 10.2 6.5.6 5.7-6.5 9.9-11.2 6.6-5.1-2.8-4.5-11.2 1-13.1zM451.3 440.5c4.8-1.7 10.2 2.6 9.5 7.7-.1 5.7-7.7 8.9-12 5.1-4.5-3.3-3-11.5 2.5-12.8zM533.4 525.7c4.6-2.8 11.2 1.1 10.9 6.5.3 5.8-7 9.5-11.6 6.1-4.4-2.8-4-10.3.7-12.6zM609.4 600.6c4.7-2.9 11.5 1 11 6.6.2 5.4-6.3 9.1-10.9 6.4-4.9-2.5-5-10.4-.1-13zM773.3 600.4c4.6-2.4 10.9 1.6 10.5 6.8.3 5.8-7.3 9.4-11.7 5.9-4.6-3-3.9-10.7 1.2-12.7zM691.3 601.5c4.9-2.3 11.1 2.3 10.2 7.7-.3 5.8-8.1 8.6-12.2 4.7-4.1-3.3-3-10.7 2-12.4zM650.1 650.9c-1.7-2.7 2-6.4 4.7-4.7 3.3 2.4 5.8 5.6 8.8 8.3 9.8 10 19.7 19.8 29.6 29.7 10-9.9 19.9-19.9 29.9-29.8 3-2.8 5.5-6.2 9-8.4 3.1-1.3 6.1 2.8 4.1 5.4-2.4 3.1-5.4 5.7-8.1 8.5-9.9 9.7-19.7 19.6-29.5 29.5 9.5 10 19.5 19.6 29.4 29.3 2.8 3.1 6 5.8 8.5 9.1 1.1 2-.6 3.8-1.6 5.4-2.1-.4-4.4-.7-5.9-2.4l-2.7-3.3c-11-11-21.8-22.1-33-32.9-11.1 11.1-22.3 22.1-33.2 33.3-.7.7-1.3 1.4-2 2-1.6 2.1-4.1 2.9-6.6 3-.6-1.1-1.3-2.3-1.8-3.4v-.8c2-3.9 5.8-6.5 8.6-9.7 9.9-10 19.9-19.8 29.8-29.9-9.9-9.9-19.7-19.8-29.6-29.5-2.8-2.8-6.1-5.3-8.4-8.7zM611.4 677.6c4.5-2.1 10.5 1.6 10.3 6.7.5 5.6-6.6 9.5-11.2 6.4-5-2.7-4.5-11.1.9-13.1zM774.4 684.6c5-1.6 10.4 3.2 9.3 8.3-.6 5.8-8.6 8.2-12.5 4-4-3.6-2.1-11 3.2-12.3z"/></g></svg>