<?xml version="1.0" encoding="UTF-8" ?>
<!DOCTYPE svg PUBLIC "-//W3C//DTD SVG 1.1//EN" "http://www.w3.org/Graphics/SVG/1.1/DTD/svg11.dtd">
<svg width="750pt" height="750pt" viewBox="0 0 750 750" version="1.1" xmlns="http://www.w3.org/2000/svg">
<g id="#0e87dfff">
<path fill="#0e87df" opacity="1.00" d=" M 373.43 0.00 L 750.00 0.00 L 750.00 376.70 C 625.56 376.72 501.13 376.67 376.69 376.72 C 376.70 501.15 376.71 625.57 376.69 750.00 L 0.00 750.00 L 0.00 373.40 C 124.48 373.37 248.96 373.42 373.44 373.38 C 373.41 248.92 373.43 124.46 373.43 0.00 M 570.32 83.51 C 549.66 81.60 528.37 86.49 510.99 97.92 C 493.38 109.22 479.87 126.70 473.32 146.57 C 468.48 161.52 467.23 177.71 470.36 193.14 C 473.82 211.92 483.49 229.47 497.35 242.58 C 510.36 255.24 527.29 263.57 545.08 266.89 C 555.96 268.53 567.06 268.55 577.92 266.77 C 593.54 263.78 608.44 256.89 620.58 246.59 C 635.92 233.89 646.87 216.01 651.34 196.61 C 655.48 178.51 654.18 159.16 647.35 141.87 C 641.22 126.05 630.50 112.10 617.00 101.84 C 603.55 91.52 587.16 85.27 570.32 83.51 M 172.05 465.98 C 150.67 467.41 129.97 476.68 114.54 491.55 C 100.09 505.35 90.40 523.92 87.20 543.63 C 84.60 560.78 86.56 578.71 93.51 594.65 C 107.15 627.55 141.30 650.85 177.01 650.78 C 209.50 651.90 241.58 633.81 258.00 605.85 C 275.30 577.61 275.47 539.91 258.43 511.53 C 249.49 496.18 235.97 483.60 220.15 475.57 C 205.34 468.24 188.56 464.64 172.05 465.98 Z" />
<path fill="#0e87df" opacity="1.00" d=" M 165.61 83.90 C 180.80 82.10 196.50 83.32 210.84 88.85 C 233.23 97.02 252.09 114.32 262.21 135.89 C 269.46 150.76 272.25 167.67 270.74 184.12 C 269.01 205.70 259.07 226.44 243.61 241.56 C 229.77 255.36 211.38 264.52 192.04 267.28 C 175.03 269.57 157.34 267.58 141.62 260.54 C 123.78 252.82 108.52 239.28 98.73 222.48 C 86.72 202.08 82.81 176.94 88.64 153.95 C 93.98 130.96 108.74 110.37 128.63 97.71 C 139.76 90.45 152.51 85.93 165.61 83.90 Z" />
<path fill="#0e87df" opacity="1.00" d=" M 553.08 466.07 C 587.07 462.63 621.99 480.19 639.76 509.34 C 658.19 538.18 658.37 577.38 640.31 606.43 C 630.08 623.21 614.42 636.71 596.17 644.06 C 568.28 655.70 534.69 652.35 509.72 635.28 C 493.23 624.30 480.42 607.87 473.89 589.16 C 464.34 562.67 467.89 531.91 483.27 508.32 C 498.41 484.50 524.91 468.31 553.08 466.07 Z" />
</g>
</svg>
