<?xml version="1.0" encoding="UTF-8" ?>
<!DOCTYPE svg PUBLIC "-//W3C//DTD SVG 1.1//EN" "http://www.w3.org/Graphics/SVG/1.1/DTD/svg11.dtd">
<svg width="750pt" height="750pt" viewBox="0 0 750 750" version="1.1" xmlns="http://www.w3.org/2000/svg">
<g id="#ffffffff">
<path fill="#ffffff" opacity="1.00" d=" M 373.44 0.00 L 750.00 0.00 L 750.00 376.70 C 625.56 376.71 501.12 376.70 376.69 376.70 C 376.71 501.13 376.71 625.57 376.69 750.00 L 0.00 750.00 L 0.00 373.40 C 124.48 373.38 248.96 373.40 373.44 373.39 C 373.42 248.93 373.41 124.46 373.44 0.00 M 553.38 83.41 C 527.42 85.50 502.66 99.21 487.17 120.15 C 466.00 147.65 462.69 187.38 478.95 218.02 C 488.47 236.66 504.59 251.84 523.74 260.29 C 538.77 267.06 555.64 269.41 571.99 267.51 C 605.35 264.11 635.57 240.57 647.41 209.24 C 653.61 193.52 655.24 176.05 652.27 159.42 C 648.92 139.76 638.78 121.38 624.13 107.86 C 605.42 90.13 579.01 81.21 553.38 83.41 M 163.49 466.96 C 145.42 469.99 128.35 478.46 115.05 491.06 C 100.40 504.86 90.53 523.53 87.25 543.38 C 84.74 559.57 86.29 576.47 92.32 591.75 C 99.23 609.74 111.99 625.39 128.14 635.89 C 154.19 653.18 189.21 655.73 217.46 642.31 C 234.66 634.44 249.25 621.07 258.69 604.68 C 275.70 575.96 275.19 537.90 257.32 509.69 C 246.85 492.69 230.73 479.21 212.08 472.03 C 196.73 466.05 179.75 464.18 163.49 466.96 Z" />
<path fill="#ffffff" opacity="1.00" d=" M 170.37 83.41 C 179.03 83.04 187.83 82.85 196.33 84.79 C 221.79 89.51 244.79 105.75 257.99 128.00 C 268.05 144.51 272.51 164.27 270.80 183.51 C 268.34 220.22 241.33 253.64 206.09 264.05 C 192.08 268.67 176.96 269.08 162.46 266.91 C 142.47 263.30 123.69 253.04 110.09 237.92 C 94.06 220.46 85.32 196.63 85.98 172.99 C 86.66 152.71 94.02 132.66 106.98 116.99 C 122.45 97.88 145.88 85.49 170.37 83.41 Z" />
<path fill="#ffffff" opacity="1.00" d=" M 553.26 466.03 C 569.37 464.49 585.82 467.67 600.48 474.44 C 618.96 483.11 634.48 498.02 643.66 516.27 C 659.51 546.54 656.42 585.57 635.96 612.94 C 625.98 626.47 612.39 637.43 596.80 643.80 C 581.36 650.46 564.11 652.17 547.52 650.01 C 528.65 647.07 510.69 638.36 496.98 625.02 C 483.35 611.92 473.79 594.56 470.33 575.96 C 464.22 546.06 474.33 513.49 496.32 492.32 C 511.43 477.22 532.00 467.84 553.26 466.03 Z" />
</g>
</svg>
