<svg width="1000" height="1000" viewBox="0 0 750 750" xmlns="http://www.w3.org/2000/svg"><g fill="#0e87df"><path d="M373.43 0H750v376.7c-124.44.02-248.87-.03-373.31.02.01 124.43.02 248.85 0 373.28H0V373.4c124.48-.03 248.96.02 373.44-.02-.03-124.46-.01-248.92-.01-373.38m196.89 83.51c-20.66-1.91-41.95 2.98-59.33 14.41-17.61 11.3-31.12 28.78-37.67 48.65-4.84 14.95-6.09 31.14-2.96 46.57 3.46 18.78 13.13 36.33 26.99 49.44 13.01 12.66 29.94 20.99 47.73 24.31 10.88 1.64 21.98 1.66 32.84-.12 15.62-2.99 30.52-9.88 42.66-20.18 15.34-12.7 26.29-30.58 30.76-49.98 4.14-18.1 2.84-37.45-3.99-54.74-6.13-15.82-16.85-29.77-30.35-40.03-13.45-10.32-29.84-16.57-46.68-18.33M172.05 465.98c-21.38 1.43-42.08 10.7-57.51 25.57-14.45 13.8-24.14 32.37-27.34 52.08-2.6 17.15-.64 35.08 6.31 51.02 13.64 32.9 47.79 56.2 83.5 56.13 32.49 1.12 64.57-16.97 80.99-44.93 17.3-28.24 17.47-65.94.43-94.32-8.94-15.35-22.46-27.93-38.28-35.96-14.81-7.33-31.59-10.93-48.1-9.59z"/><path d="M165.61 83.9c15.19-1.8 30.89-.58 45.23 4.95 22.39 8.17 41.25 25.47 51.37 47.04 7.25 14.87 10.04 31.78 8.53 48.23-1.73 21.58-11.67 42.32-27.13 57.44-13.84 13.8-32.23 22.96-51.57 25.72-17.01 2.29-34.7.3-50.42-6.74-17.84-7.72-33.1-21.26-42.89-38.06-12.01-20.4-15.92-45.54-10.09-68.53 5.34-22.99 20.1-43.58 39.99-56.24 11.13-7.26 23.88-11.78 36.98-13.81zM553.08 466.07c33.99-3.44 68.91 14.12 86.68 43.27 18.43 28.84 18.61 68.04.55 97.09-10.23 16.78-25.89 30.28-44.14 37.63-27.89 11.64-61.48 8.29-86.45-8.78-16.49-10.98-29.3-27.41-35.83-46.12-9.55-26.49-6-57.25 9.38-80.84 15.14-23.82 41.64-40.01 69.81-42.25z"/></g></svg>