<svg xmlns="http://www.w3.org/2000/svg" viewBox="0 0 4096 4096" style="enable-background:new 0 0 4096 4096" xml:space="preserve"><path class="st0" fill="#0E87DF" d="M1966 246v41h-81v163h81v108.6l-275.4 105.9c-151.4 58.3-275.2 106.4-275 107 5.6 16.7 156.4 509.1 156.1 509.9-.3.6-3.3 2.2-6.8 3.5-10.1 3.8-28.6 13.3-38.4 19.8-99.9 65.9-122.4 199.6-49.6 294.8 6.2 8.2 23.1 25.5 31.7 32.6 19.2 15.7 43.3 28.9 66.5 36.4 7.5 2.4 15.3 4.7 17.3 5 2.8.6 3.6 1.2 3.6 2.9 0 9.4-2.2 128.9-3 168.1-8.5 405.4-28.6 713.5-61.6 942.5-12.8 89.2-23.2 146.4-49.8 273.5-6.3 30.2-13.1 63.6-15.2 74.1l-3.6 19.1-24.2.6c-40.7 1.1-63.9 6.1-94.1 20.7-80.7 38.8-127.3 128.4-112.4 215.9 1 6.3 1.8 11.5 1.7 11.7-.2.1-6.2 1.4-13.3 2.9-72.5 14.9-135.5 62.9-169.1 128.8-18.3 36-26.6 70.5-26.6 111.2 0 28.8 3.4 50.4 12.4 77.4 17.9 54 55 100.9 103.2 130.8 34.3 21.2 71 33.1 111.7 36.3 22 1.7 1593.4.9 1604.4-.8 43.6-6.9 77.4-20 110-42.7 51.9-36.2 88.7-92.6 100.4-153.8 6.1-31.7 5.9-66.4-.5-97.2-7.4-36.1-24.3-72-48.4-102.7-8.4-10.7-28.2-30.5-38.8-38.8-30.6-23.9-67.1-41-103.7-48.5-7.1-1.5-13.1-2.8-13.3-2.9-.1-.2.7-5.4 1.7-11.7 5.5-32.1 2.8-65.1-7.9-97.1-21.9-65.6-76.9-116.5-143.9-133.2-16.9-4.3-29.4-5.7-54.7-6.3l-24.2-.6-3.2-16.6c-1.7-9.1-10-49.9-18.5-90.6-16.6-79.8-21.6-105.3-29.4-149.5-44.4-250.5-68.9-577.6-79.1-1052-.8-38-3-159.5-3-168.6 0-1.7 1-2.3 5.8-3.4 25-5.5 58.1-21.9 80.2-39.7 9.7-7.9 27.1-25.8 34.2-35.3 61.5-82 54.2-194-17.1-265.8-20.1-20.2-46.9-37.9-72-47.3-3.5-1.3-6.5-2.9-6.8-3.5-.3-.8 150.7-494 156.1-509.9.2-.6-123.5-48.7-275-107L2130 558.6V450h81V287h-81v-82h-164v41zm287.3 534.7c112.6 43.3 204.7 79.1 204.7 79.5s-184.5.8-410 .8-410-.4-410-.8c0-.7 407.1-157.9 409.5-158.1.6-.1 93.1 35.3 205.8 78.6zm178.5 244.5c-.3.7-17.3 56.1-37.9 123l-37.4 121.8h-617l-37.4-121.8c-20.6-66.9-37.6-122.3-37.9-123-.3-.9 76.9-1.2 383.8-1.2s384.1.3 383.8 1.2zm39.9 410.4c11.1 4.6 20.2 13.7 24.6 24.7 3 7.4 2.9 21.1-.1 28.7-4.5 11.2-12.9 19.6-24.2 24.2l-5.5 2.3-416 .3c-372.1.2-416.5 0-422-1.3-16.1-4.1-27.9-17.1-30.8-33.8-3.5-20.7 11.7-42.5 32.3-46.6 2.6-.5 185.5-.8 420.5-.7l416 .1 5.2 2.1zm-134.3 265.6c.3 12.3.8 39.8 1.1 61.3 4.2 302.9 19 618.1 38.5 823 18.4 192.4 36.7 313.5 75 495 6.1 29 15 72.3 15 73.1 0 .2-188.5.4-419 .4-270.6 0-419-.3-419-1 0-.5.9-5.1 2-10.2 48.4-225.5 68-348.9 87-547.3 20.5-214.4 35.1-522.9 39.5-833 .3-21.5.8-49 1.1-61.3l.6-22.2h577.6l.6 22.2zM2668.5 3318c17.6 2.9 31.6 17.1 34.8 35.3 3 17.5-8.5 36.7-26.3 44l-5.5 2.2h-1247l-5.5-2.2c-17.8-7.3-29.3-26.5-26.3-44 3.1-17.7 17.2-32.5 33.9-35.2 7.2-1.3 1234.5-1.3 1241.9-.1zm178.8 247.7c10.1 2.9 23.6 9.9 31.5 16.5 12.6 10.3 23.1 27 27.3 43.3 2.8 11 2.8 29 0 39.6-7.6 29.1-28.2 50.4-57.6 59.6l-9 2.8h-1583l-9-2.8c-30.4-9.5-52.2-33-58.6-63.2-1.9-9.2-1.4-26.5 1-36 4.2-16.4 14.7-33 27.3-43.3 6.4-5.3 20-12.9 27.2-15.2 12.3-4-14.8-3.8 806.6-3.7l788.5.2 7.8 2.2z"/><path class="st0" fill="#0E87DF" d="M3364.55 707.52v27.3h-53.94v108.54h53.94v72.32l-183.38 70.52c-100.81 38.82-183.25 70.85-183.12 71.25 3.73 11.12 104.14 339 103.94 339.53-.2.4-2.2 1.47-4.53 2.33-6.73 2.53-19.04 8.86-25.57 13.18-66.52 43.88-81.5 132.91-33.03 196.3 4.13 5.46 15.38 16.98 21.11 21.71 12.78 10.45 28.83 19.24 44.28 24.24 4.99 1.6 10.19 3.13 11.52 3.33 1.86.4 2.4.8 2.4 1.93 0 6.26-1.46 85.83-2 111.93-5.66 269.95-19.04 475.1-41.02 627.59-8.52 59.4-15.45 97.48-33.16 182.12-4.19 20.11-8.72 42.35-10.12 49.34l-2.4 12.72-16.11.4c-27.1.73-42.55 4.06-62.66 13.78-53.74 25.84-84.77 85.5-74.84 143.76.67 4.2 1.2 7.66 1.13 7.79-.13.07-4.13.93-8.86 1.93-48.28 9.92-90.23 41.88-112.6 85.77-12.19 23.97-17.71 46.94-17.71 74.05 0 19.18 2.26 33.56 8.26 51.54 11.92 35.96 36.62 67.19 68.72 87.1 22.84 14.12 47.28 22.04 74.38 24.17 14.65 1.13 1061.01.6 1068.33-.53 29.03-4.59 51.54-13.32 73.25-28.43 34.56-24.1 59.06-61.66 66.85-102.41 4.06-21.11 3.93-44.21-.33-64.72-4.93-24.04-16.18-47.94-32.23-68.39-5.59-7.12-18.78-20.31-25.84-25.84-20.38-15.91-44.68-27.3-69.05-32.3-4.73-1-8.72-1.86-8.86-1.93-.07-.13.47-3.6 1.13-7.79 3.66-21.37 1.86-43.35-5.26-64.66-14.58-43.68-51.21-77.57-95.82-88.69-11.25-2.86-19.58-3.8-36.42-4.2l-16.11-.4-2.13-11.05c-1.13-6.06-6.66-33.23-12.32-60.33-11.05-53.14-14.38-70.12-19.58-99.55-29.57-166.8-45.88-384.61-52.67-700.5-.53-25.3-2-106.21-2-112.27 0-1.13.67-1.53 3.86-2.26 16.65-3.66 38.69-14.58 53.4-26.44 6.46-5.26 18.05-17.18 22.77-23.51 40.95-54.6 36.09-129.18-11.39-176.99-13.38-13.45-31.23-25.24-47.94-31.5-2.33-.87-4.33-1.93-4.53-2.33-.2-.53 100.35-328.94 103.94-339.53.13-.4-82.24-32.43-183.12-71.25l-183.38-70.52v-72.32h53.94V734.81h-53.94v-54.6h-109.2v27.31zm191.31 356.04c74.98 28.83 136.31 52.67 136.31 52.94 0 .27-122.85.53-273.01.53s-273.01-.27-273.01-.53c0-.47 271.08-105.14 272.68-105.28.39-.06 61.98 23.51 137.03 52.34zm118.86 162.81c-.2.47-11.52 37.36-25.24 81.9l-24.9 81.1h-410.84l-24.9-81.1c-13.72-44.55-25.04-81.44-25.24-81.9-.2-.6 51.21-.8 255.56-.8s255.76.2 255.56.8zm26.56 273.28c7.39 3.06 13.45 9.12 16.38 16.45 2 4.93 1.93 14.05-.07 19.11-3 7.46-8.59 13.05-16.11 16.11l-3.66 1.53-277.01.2c-247.77.13-277.34 0-281-.87-10.72-2.73-18.58-11.39-20.51-22.51-2.33-13.78 7.79-28.3 21.51-31.03 1.73-.33 123.52-.53 280-.47l277.01.07 3.46 1.41zm-89.42 176.85c.2 8.19.53 26.5.73 40.82 2.8 201.69 12.65 411.58 25.64 548.02 12.25 128.11 24.44 208.75 49.94 329.61 4.06 19.31 9.99 48.14 9.99 48.68 0 .13-125.52.27-279 .27-180.19 0-279-.2-279-.67 0-.33.6-3.4 1.33-6.79 32.23-150.16 45.28-232.32 57.93-364.43 13.65-142.76 23.37-348.19 26.3-554.68.2-14.32.53-32.63.73-40.82l.4-14.78h384.62l.39 14.77zm220.47 1076.59c11.72 1.93 21.04 11.39 23.17 23.51 2 11.65-5.66 24.44-17.51 29.3l-3.66 1.46h-830.34l-3.66-1.46c-11.85-4.86-19.51-17.65-17.51-29.3 2.06-11.79 11.45-21.64 22.57-23.44 4.78-.87 822.01-.87 826.94-.07zm119.06 164.94c6.73 1.93 15.71 6.59 20.98 10.99 8.39 6.86 15.38 17.98 18.18 28.83 1.86 7.32 1.86 19.31 0 26.37-5.06 19.38-18.78 33.56-38.35 39.69l-5.99 1.86H2892.13l-5.99-1.86c-20.24-6.33-34.76-21.97-39.02-42.08-1.27-6.13-.93-17.65.67-23.97 2.8-10.92 9.79-21.97 18.18-28.83 4.26-3.53 13.32-8.59 18.11-10.12 8.19-2.66-9.85-2.53 537.1-2.46l525.04.13 5.17 1.45zM626.72 707.52v27.3h-53.94v108.54h53.94v72.32L443.34 986.2c-100.81 38.82-183.25 70.85-183.12 71.25 3.73 11.12 104.14 339 103.94 339.53-.2.4-2.2 1.47-4.53 2.33-6.73 2.53-19.04 8.86-25.57 13.18-66.52 43.88-81.5 132.91-33.03 196.3 4.13 5.46 15.38 16.98 21.11 21.71 12.78 10.45 28.83 19.24 44.28 24.24 4.99 1.6 10.19 3.13 11.52 3.33 1.86.4 2.4.8 2.4 1.93 0 6.26-1.46 85.83-2 111.93-5.66 269.95-19.04 475.1-41.02 627.59-8.52 59.4-15.45 97.48-33.16 182.12-4.2 20.11-8.72 42.35-10.12 49.34l-2.4 12.72-16.11.4c-27.1.73-42.55 4.06-62.66 13.78-53.74 25.84-84.77 85.5-74.84 143.76.67 4.2 1.2 7.66 1.13 7.79-.13.07-4.13.93-8.86 1.93-48.28 9.92-90.23 41.88-112.6 85.77C5.53 2921.09 0 2944.07 0 2971.17c0 19.18 2.26 33.56 8.26 51.54 11.92 35.96 36.62 67.19 68.72 87.1 22.84 14.12 47.28 22.04 74.38 24.17 14.65 1.13 1061.01.6 1068.33-.53 29.03-4.59 51.54-13.32 73.25-28.43 34.56-24.1 59.06-61.66 66.85-102.41 4.06-21.11 3.93-44.21-.33-64.72-4.93-24.04-16.18-47.94-32.23-68.39-5.59-7.12-18.78-20.31-25.84-25.84-20.38-15.91-44.68-27.3-69.05-32.3-4.73-1-8.72-1.86-8.86-1.93-.07-.13.47-3.6 1.13-7.79 3.66-21.37 1.86-43.35-5.26-64.66-14.58-43.68-51.21-77.57-95.82-88.69-11.25-2.86-19.58-3.8-36.42-4.2l-16.11-.4-2.13-11.05c-1.13-6.06-6.66-33.23-12.32-60.33-11.05-53.14-14.38-70.12-19.58-99.55-29.56-166.8-45.88-384.61-52.67-700.5-.53-25.3-2-106.21-2-112.27 0-1.13.67-1.53 3.86-2.26 16.65-3.66 38.69-14.58 53.4-26.44 6.46-5.26 18.05-17.18 22.77-23.51 40.95-54.6 36.09-129.18-11.39-176.99-13.38-13.45-31.23-25.24-47.94-31.5-2.33-.87-4.33-1.93-4.53-2.33-.2-.53 100.35-328.94 103.94-339.53.13-.4-82.24-32.43-183.12-71.25l-183.38-70.52v-72.32H789.87V734.8h-53.94v-54.6h-109.2v27.32zm191.31 356.04c74.98 28.83 136.31 52.67 136.31 52.94 0 .27-122.85.53-273.01.53s-273.01-.27-273.01-.53c0-.47 271.08-105.14 272.68-105.28.39-.06 61.99 23.51 137.03 52.34zm118.86 162.81c-.2.47-11.52 37.36-25.24 81.9l-24.9 81.1H475.9l-24.9-81.1c-13.72-44.55-25.04-81.44-25.24-81.9-.2-.6 51.21-.8 255.56-.8s255.77.2 255.57.8zm26.57 273.28c7.39 3.06 13.45 9.12 16.38 16.45 2 4.93 1.93 14.05-.07 19.11-3 7.46-8.59 13.05-16.11 16.11l-3.66 1.53-277.01.2c-247.77.13-277.34 0-281-.87-10.72-2.73-18.58-11.39-20.51-22.51-2.33-13.78 7.79-28.3 21.51-31.03 1.73-.33 123.52-.53 280-.47l277.01.07 3.46 1.41zm-89.43 176.85c.2 8.19.53 26.5.73 40.82 2.8 201.69 12.65 411.58 25.64 548.02 12.25 128.11 24.44 208.75 49.94 329.61 4.06 19.31 9.99 48.14 9.99 48.68 0 .13-125.52.27-279 .27-180.19 0-279-.2-279-.67 0-.33.6-3.4 1.33-6.79 32.23-150.16 45.28-232.32 57.93-364.43 13.65-142.76 23.37-348.19 26.3-554.68.2-14.32.53-32.63.73-40.82l.4-14.78h384.62l.39 14.77zm220.47 1076.59c11.72 1.93 21.04 11.39 23.17 23.51 2 11.65-5.66 24.44-17.51 29.3l-3.66 1.46H266.15l-3.66-1.46c-11.85-4.86-19.51-17.65-17.51-29.3 2.06-11.79 11.45-21.64 22.57-23.44 4.79-.87 822.03-.87 826.95-.07zm119.06 164.94c6.73 1.93 15.71 6.59 20.98 10.99 8.39 6.86 15.38 17.98 18.18 28.83 1.86 7.32 1.86 19.31 0 26.37-5.06 19.38-18.78 33.56-38.35 39.69l-5.99 1.86H154.28l-5.99-1.86c-20.24-6.33-34.76-21.97-39.02-42.08-1.27-6.13-.93-17.65.67-23.97 2.8-10.92 9.79-21.97 18.18-28.83 4.26-3.53 13.32-8.59 18.11-10.12 8.19-2.66-9.85-2.53 537.1-2.46l525.04.13 5.19 1.45z"/></svg>