<?xml version="1.0" encoding="utf-8"?>
<!-- Generator: Adobe Illustrator 27.1.1, SVG Export Plug-In . SVG Version: 6.00 Build 0)  -->
<svg version="1.1" id="Слой_1" xmlns="http://www.w3.org/2000/svg" xmlns:xlink="http://www.w3.org/1999/xlink" x="0px" y="0px"
	 viewBox="0 0 4096 4096" style="enable-background:new 0 0 4096 4096;" xml:space="preserve">
<style type="text/css">
	.st0{fill:#0E87DF;}
</style>
<g transform="translate(0.000000,4096.000000) scale(0.100000,-0.100000)">
	<path class="st0" d="M19660,38500v-410h-405h-405v-815v-815h405h405v-543v-543l-2754-1059c-1514-583-2752-1064-2750-1070
		c56-167,1564-5091,1561-5099c-3-6-33-22-68-35c-101-38-286-133-384-198c-999-659-1224-1996-496-2948c62-82,231-255,317-326
		c192-157,433-289,665-364c75-24,153-47,173-50c28-6,36-12,36-29c0-94-22-1289-30-1681c-85-4054-286-7135-616-9425
		c-128-892-232-1464-498-2735c-63-302-131-636-152-741l-36-191l-242-6c-407-11-639-61-941-207c-807-388-1273-1284-1124-2159
		c10-63,18-115,17-117c-2-1-62-14-133-29c-725-149-1355-629-1691-1288c-183-360-266-705-266-1112c0-288,34-504,124-774
		c179-540,550-1009,1032-1308c343-212,710-331,1117-363c220-17,15934-9,16044,8c436,69,774,200,1100,427c519,362,887,926,1004,1538
		c61,317,59,664-5,972c-74,361-243,720-484,1027c-84,107-282,305-388,388c-306,239-671,410-1037,485c-71,15-131,28-133,29
		c-1,2,7,54,17,117c55,321,28,651-79,971c-219,656-769,1165-1439,1332c-169,43-294,57-547,63l-242,6l-32,166c-17,91-100,499-185,906
		c-166,798-216,1053-294,1495c-444,2505-689,5776-791,10520c-8,380-30,1595-30,1686c0,17,10,23,58,34c250,55,581,219,802,397
		c97,79,271,258,342,353c615,820,542,1940-171,2658c-201,202-469,379-720,473c-35,13-65,29-68,35c-3,8,1507,4940,1561,5099
		c2,6-1235,487-2750,1070l-2754,1059v543v543h405h405v815v815h-405h-405v410v410h-820h-820V38500z M22533,33153
		c1126-433,2047-791,2047-795s-1845-8-4100-8s-4100,4-4100,8c0,7,4071,1579,4095,1581C20481,33940,21406,33586,22533,33153z
		 M24318,30708c-3-7-173-561-379-1230l-374-1218h-3085h-3085l-374,1218c-206,669-376,1223-379,1230c-3,9,769,12,3838,12
		S24321,30717,24318,30708z M24717,26604c111-46,202-137,246-247c30-74,29-211-1-287c-45-112-129-196-242-242l-55-23l-4160-3
		c-3721-2-4165,0-4220,13c-161,41-279,171-308,338c-35,207,117,425,323,466c26,5,1855,8,4205,7l4160-1L24717,26604z M23374,23948
		c3-123,8-398,11-613c42-3029,190-6181,385-8230c184-1924,367-3135,750-4950c61-290,150-723,150-731c0-2-1885-4-4190-4
		c-2706,0-4190,3-4190,10c0,5,9,51,20,102c484,2255,680,3489,870,5473c205,2144,351,5229,395,8330c3,215,8,490,11,613l6,222h2888
		h2888L23374,23948z M26685,7780c176-29,316-171,348-353c30-175-85-367-263-440l-55-22h-6235h-6235l-55,22c-178,73-293,265-263,440
		c31,177,172,325,339,352C14338,7792,26611,7792,26685,7780z M28473,5303c101-29,236-99,315-165c126-103,231-270,273-433
		c28-110,28-290,0-396c-76-291-282-504-576-596l-90-28h-7915h-7915l-90,28c-304,95-522,330-586,632c-19,92-14,265,10,360
		c42,164,147,330,273,433c64,53,200,129,272,152c123,40-148,38,8066,37l7885-2L28473,5303z"/>
</g>
<g transform="translate(0.000000,4096.000000) scale(0.100000,-0.100000)">
	<path class="st0" d="M33645.5,33884.8v-273h-269.7h-269.7v-542.7v-542.7h269.7h269.7v-361.6v-361.6l-1833.8-705.2
		c-1008.1-388.2-1832.5-708.5-1831.2-712.5c37.3-111.2,1041.4-3390,1039.4-3395.3c-2-4-22-14.7-45.3-23.3
		c-67.3-25.3-190.4-88.6-255.7-131.8c-665.2-438.8-815-1329.1-330.3-1963c41.3-54.6,153.8-169.8,211.1-217.1
		c127.8-104.5,288.3-192.4,442.8-242.4c49.9-16,101.9-31.3,115.2-33.3c18.6-4,24-8,24-19.3c0-62.6-14.6-858.3-20-1119.3
		c-56.6-2699.5-190.4-4751-410.2-6275.9c-85.2-594-154.5-974.8-331.6-1821.2c-41.9-201.1-87.2-423.5-101.2-493.4l-24-127.2l-161.1-4
		c-271-7.3-425.5-40.6-626.6-137.8c-537.4-258.4-847.7-855-748.4-1437.6c6.7-42,12-76.6,11.3-77.9c-1.3-0.7-41.3-9.3-88.6-19.3
		c-482.8-99.2-902.3-418.8-1126-857.7c-121.9-239.7-177.1-469.4-177.1-740.5c0-191.8,22.6-335.6,82.6-515.4
		c119.2-359.6,366.2-671.9,687.2-871c228.4-141.2,472.8-220.4,743.8-241.7c146.5-11.3,10610.1-6,10683.3,5.3
		c290.3,45.9,515.4,133.2,732.5,284.3c345.6,241,590.6,616.6,668.5,1024.1c40.6,211.1,39.3,442.1-3.3,647.2
		c-49.3,240.4-161.8,479.4-322.3,683.9c-55.9,71.2-187.8,203.1-258.4,258.4c-203.8,159.1-446.8,273-690.5,323
		c-47.3,10-87.2,18.6-88.6,19.3c-0.7,1.3,4.7,36,11.3,77.9c36.6,213.7,18.6,433.5-52.6,646.6c-145.8,436.8-512.1,775.7-958.2,886.9
		c-112.5,28.6-195.8,38-364.2,42l-161.1,4l-21.3,110.5c-11.3,60.6-66.6,332.3-123.2,603.3c-110.5,531.4-143.8,701.2-195.8,995.5
		c-295.7,1668-458.8,3846.1-526.7,7005c-5.3,253-20,1062.1-20,1122.7c0,11.3,6.7,15.3,38.6,22.6c166.5,36.6,386.9,145.8,534,264.4
		c64.6,52.6,180.5,171.8,227.7,235.1c409.5,546,360.9,1291.8-113.9,1769.9c-133.8,134.5-312.3,252.4-479.4,315
		c-23.3,8.7-43.3,19.3-45.3,23.3c-2,5.3,1003.5,3289.4,1039.4,3395.3c1.3,4-822.4,324.3-1831.2,712.5l-1833.8,705.2v361.6v361.6
		h269.7h269.7v542.7v542.7h-269.7h-269.7v273v273h-546h-546V33884.8z M35558.6,30324.4c749.8-288.3,1363.1-526.7,1363.1-529.4
		c0-2.7-1228.5-5.3-2730.1-5.3c-1501.6,0-2730.1,2.7-2730.1,5.3c0,4.7,2710.8,1051.4,2726.8,1052.8
		C34192.2,30848.4,34808.1,30612.7,35558.6,30324.4z M36747.2,28696.3c-2-4.7-115.2-373.6-252.4-819l-249-811h-2054.2h-2054.2
		l-249,811c-137.2,445.5-250.4,814.4-252.4,819c-2,6,512.1,8,2555.6,8S36749.2,28702.3,36747.2,28696.3z M37012.8,25963.5
		c73.9-30.6,134.5-91.2,163.8-164.5c20-49.3,19.3-140.5-0.7-191.1c-30-74.6-85.9-130.5-161.1-161.1l-36.6-15.3l-2770.1-2
		c-2477.7-1.3-2773.4,0-2810,8.7c-107.2,27.3-185.8,113.9-205.1,225.1c-23.3,137.8,77.9,283,215.1,310.3
		c17.3,3.3,1235.2,5.3,2800,4.7l2770.1-0.7L37012.8,25963.5z M36118.6,24195c2-81.9,5.3-265,7.3-408.2
		c28-2016.9,126.5-4115.8,256.4-5480.2c122.5-1281.1,244.4-2087.5,499.4-3296.1c40.6-193.1,99.9-481.4,99.9-486.8
		c0-1.3-1255.2-2.7-2790-2.7c-1801.9,0-2790,2-2790,6.7c0,3.3,6,34,13.3,67.9c322.3,1501.6,452.8,2323.2,579.3,3644.3
		c136.5,1427.6,233.7,3481.9,263,5546.8c2,143.2,5.3,326.3,7.3,408.2l4,147.8h1923.1h1923.1L36118.6,24195z M38323.3,13429.1
		c117.2-19.3,210.4-113.9,231.7-235.1c20-116.5-56.6-244.4-175.1-293l-36.6-14.6h-4151.7h-4151.7l-36.6,14.6
		c-118.5,48.6-195.1,176.5-175.1,293c20.6,117.9,114.5,216.4,225.7,234.4C30101.7,13437.1,38274,13437.1,38323.3,13429.1z
		 M39513.9,11779.7c67.3-19.3,157.1-65.9,209.8-109.9c83.9-68.6,153.8-179.8,181.8-288.3c18.6-73.2,18.6-193.1,0-263.7
		c-50.6-193.8-187.8-335.6-383.5-396.9l-59.9-18.6h-5270.4h-5270.4l-59.9,18.6c-202.4,63.3-347.6,219.7-390.2,420.8
		c-12.7,61.3-9.3,176.5,6.7,239.7c28,109.2,97.9,219.7,181.8,288.3c42.6,35.3,133.2,85.9,181.1,101.2c81.9,26.6-98.5,25.3,5371,24.6
		l5250.4-1.3L39513.9,11779.7z"/>
</g>
<g transform="translate(0.000000,4096.000000) scale(0.100000,-0.100000)">
	<path class="st0" d="M6267.2,33884.8v-273h-269.7h-269.7v-542.7v-542.7h269.7h269.7v-361.6v-361.6l-1833.8-705.2
		c-1008.1-388.2-1832.5-708.5-1831.2-712.5c37.3-111.2,1041.4-3390,1039.4-3395.3c-2-4-22-14.7-45.3-23.3
		c-67.3-25.3-190.4-88.6-255.7-131.8c-665.2-438.8-815-1329.1-330.3-1963c41.3-54.6,153.8-169.8,211.1-217.1
		c127.8-104.5,288.3-192.4,442.8-242.4c49.9-16,101.9-31.3,115.2-33.3c18.6-4,24-8,24-19.3c0-62.6-14.6-858.3-20-1119.3
		c-56.6-2699.5-190.4-4751-410.2-6275.9c-85.2-594-154.5-974.8-331.6-1821.2c-42-201.1-87.2-423.5-101.2-493.4l-24-127.2l-161.1-4
		c-271-7.3-425.5-40.6-626.6-137.8c-537.4-258.4-847.7-855-748.4-1437.6c6.7-42,12-76.6,11.3-77.9c-1.3-0.7-41.3-9.3-88.6-19.3
		c-482.8-99.2-902.3-418.8-1126-857.7C55.3,11749.1,0,11519.3,0,11248.3c0-191.8,22.6-335.6,82.6-515.4
		c119.2-359.6,366.2-671.9,687.2-871c228.4-141.2,472.8-220.4,743.8-241.7c146.5-11.3,10610.1-6,10683.3,5.3
		c290.3,45.9,515.4,133.2,732.5,284.3c345.6,241,590.6,616.6,668.5,1024.1c40.6,211.1,39.3,442.1-3.3,647.2
		c-49.3,240.4-161.8,479.4-322.3,683.9c-55.9,71.2-187.8,203.1-258.4,258.4c-203.8,159.1-446.8,273-690.5,323
		c-47.3,10-87.2,18.6-88.6,19.3c-0.7,1.3,4.7,36,11.3,77.9c36.6,213.7,18.6,433.5-52.6,646.6c-145.8,436.8-512.1,775.7-958.2,886.9
		c-112.5,28.6-195.8,38-364.2,42l-161.1,4l-21.3,110.5c-11.3,60.6-66.6,332.3-123.2,603.3c-110.5,531.4-143.8,701.2-195.8,995.5
		c-295.6,1668-458.8,3846.1-526.7,7005c-5.3,253-20,1062.1-20,1122.7c0,11.3,6.7,15.3,38.6,22.6c166.5,36.6,386.9,145.8,534,264.4
		c64.6,52.6,180.5,171.8,227.7,235.1c409.5,546,360.9,1291.8-113.9,1769.9c-133.8,134.5-312.3,252.4-479.4,315
		c-23.3,8.7-43.3,19.3-45.3,23.3c-2,5.3,1003.5,3289.4,1039.4,3395.3c1.3,4-822.4,324.3-1831.2,712.5l-1833.8,705.2v361.6v361.6
		H7629h269.7v542.7v542.7H7629h-269.7v273v273h-546h-546V33884.8z M8180.3,30324.4c749.8-288.3,1363.1-526.7,1363.1-529.4
		c0-2.7-1228.5-5.3-2730.1-5.3s-2730.1,2.7-2730.1,5.3c0,4.7,2710.8,1051.4,2726.8,1052.8
		C6813.9,30848.4,7429.9,30612.7,8180.3,30324.4z M9368.9,28696.3c-2-4.7-115.2-373.6-252.4-819l-249-811H6813.3H4759l-249,811
		c-137.2,445.5-250.4,814.4-252.4,819c-2,6,512.1,8,2555.6,8S9370.9,28702.3,9368.9,28696.3z M9634.6,25963.5
		c73.9-30.6,134.5-91.2,163.8-164.5c20-49.3,19.3-140.5-0.7-191.1c-30-74.6-85.9-130.5-161.1-161.1l-36.6-15.3l-2770.1-2
		c-2477.7-1.3-2773.4,0-2810,8.7c-107.2,27.3-185.8,113.9-205.1,225.1c-23.3,137.8,77.9,283,215.1,310.3
		c17.3,3.3,1235.2,5.3,2800,4.7l2770.1-0.7L9634.6,25963.5z M8740.3,24195c2-81.9,5.3-265,7.3-408.2
		c28-2016.9,126.5-4115.8,256.4-5480.2c122.5-1281.1,244.4-2087.5,499.4-3296.1c40.6-193.1,99.9-481.4,99.9-486.8
		c0-1.3-1255.2-2.7-2790-2.7c-1801.9,0-2790,2-2790,6.7c0,3.3,6,34,13.3,67.9c322.3,1501.6,452.8,2323.2,579.3,3644.3
		c136.5,1427.6,233.7,3481.9,263,5546.8c2,143.2,5.3,326.3,7.3,408.2l4,147.8h1923.1h1923.1L8740.3,24195z M10945,13429.1
		c117.2-19.3,210.4-113.9,231.7-235.1c20-116.5-56.6-244.4-175.1-293l-36.6-14.6H6813.3H2661.5l-36.6,14.6
		c-118.5,48.6-195.1,176.5-175.1,293c20.6,117.9,114.5,216.4,225.7,234.4C2723.4,13437.1,10895.8,13437.1,10945,13429.1z
		 M12135.6,11779.7c67.3-19.3,157.1-65.9,209.8-109.9c83.9-68.6,153.8-179.8,181.8-288.3c18.6-73.2,18.6-193.1,0-263.7
		c-50.6-193.8-187.8-335.6-383.5-396.9l-59.9-18.6H6813.3H1542.8l-59.9,18.6c-202.4,63.3-347.6,219.7-390.2,420.8
		c-12.7,61.3-9.3,176.5,6.7,239.7c28,109.2,97.9,219.7,181.8,288.3c42.6,35.3,133.2,85.9,181.1,101.2c81.9,26.6-98.5,25.3,5371,24.6
		l5250.4-1.3L12135.6,11779.7z"/>
</g>
</svg>
