<?xml version="1.0" encoding="UTF-8" ?>
<!DOCTYPE svg PUBLIC "-//W3C//DTD SVG 1.1//EN" "http://www.w3.org/Graphics/SVG/1.1/DTD/svg11.dtd">
<svg width="1024pt" height="1024pt" viewBox="0 0 1024 1024" version="1.1" xmlns="http://www.w3.org/2000/svg">
<g id="#ffffffff">
<path fill="#ffffff" opacity="1.00" d=" M 491.53 51.19 C 505.17 51.20 518.82 51.20 532.48 51.20 C 532.49 58.02 532.48 64.85 532.48 71.68 C 539.30 71.69 546.13 71.68 552.96 71.68 C 552.96 85.34 552.97 98.99 552.95 112.64 C 546.13 112.63 539.31 112.64 532.49 112.63 C 532.47 121.60 532.49 130.56 532.48 139.52 C 578.43 157.20 624.38 174.86 670.32 192.56 C 657.20 235.17 644.08 277.78 630.99 320.40 C 644.68 325.15 656.24 335.82 661.75 349.27 C 667.66 363.32 666.68 380.04 659.22 393.33 C 652.20 406.17 639.43 415.62 625.14 418.69 C 625.87 475.16 627.34 531.64 630.77 588.02 C 633.66 634.01 637.75 680.01 645.82 725.42 C 649.51 746.54 654.42 767.42 658.43 788.49 C 664.99 788.43 671.66 788.28 678.06 790.02 C 692.79 793.64 705.57 804.22 711.95 817.97 C 716.74 828.06 718.00 839.73 715.58 850.63 C 729.22 852.68 742.09 859.42 751.48 869.54 C 761.22 879.91 767.18 893.75 767.90 907.98 C 768.78 922.58 764.13 937.40 755.14 948.92 C 745.65 961.25 731.34 969.78 715.94 972.08 C 711.01 972.90 705.99 972.81 701.02 972.80 C 572.67 972.78 444.32 972.84 315.98 972.77 C 298.51 972.49 281.46 964.16 270.32 950.73 C 260.61 939.22 255.38 924.03 256.05 908.98 C 256.55 894.17 262.74 879.68 273.02 869.02 C 282.36 859.19 295.03 852.66 308.42 850.64 C 305.54 837.85 307.86 824.00 314.80 812.87 C 322.39 800.46 335.48 791.55 349.85 789.21 C 355.04 788.27 360.33 788.50 365.57 788.49 C 369.23 769.09 373.74 749.86 377.27 730.43 C 386.67 679.48 390.94 627.75 393.93 576.08 C 396.85 523.66 398.18 471.17 398.86 418.68 C 384.56 415.61 371.80 406.16 364.78 393.33 C 357.31 380.04 356.33 363.32 362.25 349.27 C 367.76 335.82 379.32 325.15 393.02 320.41 C 379.92 277.79 366.81 235.18 353.68 192.57 C 399.62 174.87 445.57 157.22 491.52 139.54 C 491.51 130.57 491.52 121.60 491.51 112.63 C 484.69 112.64 477.87 112.63 471.05 112.64 C 471.03 98.99 471.04 85.34 471.04 71.68 C 477.87 71.68 484.69 71.69 491.52 71.68 C 491.52 64.85 491.51 58.02 491.53 51.19 M 409.50 214.79 C 423.01 215.33 436.55 214.89 450.07 215.03 C 483.38 215.03 516.69 215.03 550.00 215.03 C 571.51 214.88 593.04 215.34 614.54 214.79 C 580.24 202.03 546.21 188.57 512.01 175.54 C 477.82 188.58 443.79 202.04 409.50 214.79 M 416.06 256.00 C 422.37 276.48 428.67 296.96 434.97 317.43 C 486.32 317.44 537.67 317.44 589.03 317.43 C 595.33 296.96 601.63 276.48 607.94 256.00 C 543.98 256.00 480.02 256.00 416.06 256.00 M 408.37 358.50 C 402.96 359.05 398.63 364.51 399.44 369.91 C 400.04 375.00 404.86 379.11 409.98 378.87 C 478.02 378.89 546.06 378.89 614.10 378.87 C 619.53 379.11 624.55 374.39 624.63 368.95 C 624.92 363.26 619.72 358.12 614.05 358.40 C 545.49 358.46 476.93 358.27 408.37 358.50 M 439.81 419.83 C 439.09 472.94 437.75 526.05 434.77 579.08 C 431.85 629.57 427.68 680.09 418.99 729.95 C 415.62 749.56 411.26 768.99 407.30 788.48 C 477.09 788.48 546.89 788.48 616.69 788.48 C 612.18 766.32 607.23 744.24 603.64 721.90 C 595.92 674.90 592.03 627.37 589.26 579.86 C 586.26 526.57 584.90 473.20 584.19 419.83 C 536.06 419.83 487.94 419.83 439.81 419.83 M 357.43 829.51 C 351.88 829.92 347.36 835.52 348.26 841.04 C 348.90 846.14 353.80 850.23 358.94 849.92 C 460.98 849.92 563.01 849.92 665.04 849.92 C 670.57 850.28 675.75 845.52 675.83 839.98 C 676.11 834.23 670.80 829.07 665.07 829.44 C 562.52 829.49 459.97 829.33 357.43 829.51 M 314.07 891.15 C 304.94 892.53 297.46 900.76 297.00 909.98 C 295.94 921.20 305.69 931.90 316.97 931.82 C 446.67 931.85 576.37 931.82 706.06 931.84 C 713.47 932.08 720.77 927.93 724.37 921.46 C 728.12 915.01 727.88 906.50 723.77 900.27 C 720.00 894.31 713.01 890.63 705.97 890.88 C 593.95 890.89 481.94 890.88 369.93 890.88 C 351.31 891.06 332.67 890.52 314.07 891.15 Z" />
</g>
</svg>
