<svg xmlns="http://www.w3.org/2000/svg" viewBox="0 0 512 512" style="enable-background:new 0 0 512 512" xml:space="preserve"><path class="st0" fill="#0E87DF" d="M376 23.9c-.2-8.5 7.5-16.1 16-15.9h96c8.5-.2 16.2 7.4 16 15.9-1.8 71.8 3.7 144.9-2.1 216.1 5.4 33.8.5 69.6 2.1 104 .2 8.5-7.5 16.1-15.9 16H280c-8.5.2-16.1-7.5-15.9-15.9 2.8-138.1-26-109.2 112-112.1-.1-69.4-.1-138.7-.1-208.1m16 .1v96h96V24h-96m0 112v96h96v-96h-96M280 248v96h96v-96h-96m112 0v96h96v-96h-96z"/><path class="st0" fill="#0E87DF" d="M413.2 32.2c22.6-3.3 25.7 31.1 2.8 31.8-19.1.1-21.8-28.5-2.8-31.8zM461.2 32.2c26.3-2.9 23.5 37.6-2.2 31-15.5-4.5-13.9-28.7 2.2-31zM9.8 48.7c2.7-5.6 9-9.1 15.2-8.7h207c8.1-.2 15.6 6.8 15.9 14.9-3 138.3 27 110.5-111.9 113.1v208c34.4 1.6 70.2-3.4 104 2.1 71.1-5.8 144.3-.2 216-2.1 6.7-.1 13.1 4.6 15.2 11 2.2 33.4.1 67.4.8 101 .2 11.7-11.6 17.6-22 16-69.8-1.9-140.9 3.7-210-2.1-71.1 5.8-144.3.2-216.1 2.1-8.4.2-16.1-7.4-15.9-15.9 1.6-34.5-3.4-70.3 2.1-104.1-3.9-73.5-3.9-150.5 0-224-5.4-32.1-.5-66.2-2.1-99 0-4.1-.4-8.5 1.8-12.3M24 56v96h96V56H24m112 0v96h96V56h-96M24 168v96h96v-96H24m0 112v96h96v-96H24m0 112v96h96v-96H24m112 0v96h96v-96h-96m112 0v96h96v-96h-96m112 0v96h96v-96h-96z"/><path class="st0" fill="#0E87DF" d="M45.2 64.2c26.4-3 23.6 37.6-2.1 30.9-15.5-4.5-14-28.5 2.1-30.9zM413.2 80.2c21.9-3.3 25.9 29.7 3.8 31.7-19.7 1.4-23.3-28.3-3.8-31.7zM461.2 80.2c24-3.2 24.9 33.7.8 31.6-17.9-2-18.6-28.7-.8-31.6zM181.2 88.2c22.6-3.3 25.7 31.1 2.8 31.7-19.1.2-21.7-28.4-2.8-31.7zM93.2 112.2c24.1-3.3 25 33.8.7 31.6-17.8-2.1-18.5-28.6-.7-31.6zM461.2 144.2c25.2-3.1 24.5 35.4-.6 31.4-16.7-3.2-16.3-28.8.6-31.4z"/><path class="st0" fill="#0E87DF" d="M437.2 168.2c23.3-3.3 25.3 32.5 1.7 31.7-18.5-1.1-20-28.6-1.7-31.7zM45.2 176.2c22.6-3.3 25.7 31.1 2.8 31.7-19.1.2-21.7-28.4-2.8-31.7z"/><path class="st0" fill="#0E87DF" d="M413.2 192.2c25.1-3 24.5 35.4-.6 31.4-16.7-3.1-16.3-28.9.6-31.4zM93.2 224.2c25.2-3.1 24.4 35.5-.7 31.4-16.6-3.2-16.2-28.9.7-31.4zM301.1 256.2c22.7-3.4 25.7 31.2 2.8 31.7-19 .1-21.6-28.4-2.8-31.7zM349.2 256.2c23.3-3.3 25.3 32.5 1.7 31.7-18.5-1.1-20-28.6-1.7-31.7zM461.2 256.2c24-3.3 24.9 33.8.8 31.6-17.9-2.1-18.6-28.6-.8-31.6z"/><path class="st0" fill="#0E87DF" d="M325.2 280.2c22.6-3.4 25.7 31.2 2.7 31.7-19.1.1-21.6-28.4-2.7-31.7zM437.3 280.2c24-3.2 24.9 33.7.8 31.6-18-2-18.7-28.7-.8-31.6z"/><path class="st0" fill="#0E87DF" d="M301.2 304.2c21.9-3.3 25.9 29.7 3.8 31.7-19.7 1.4-23.3-28.3-3.8-31.7zM349.1 304.2c21.9-3.4 26 29.7 3.9 31.7-19.6 1.4-23.4-28.2-3.9-31.7zM413.2 304.2c24-3.3 25 33.7.8 31.6-17.8-2.1-18.6-28.6-.8-31.6zM69.2 312.2C91 308.9 95 341.9 73 343.9c-19.7 1.4-23.3-28.3-3.8-31.7zM157.2 400.2c23.4-3.4 25.4 32.5 1.7 31.7-18.4-1.1-20-28.6-1.7-31.7zM205.2 400.2c25.7-3 24.1 36.4-1.3 31.2-16.2-3.8-15.2-28.7 1.3-31.2zM269.2 400.2c24.1-3.4 25 33.8.8 31.6-17.8-2.1-18.6-28.6-.8-31.6zM317.2 400.2c23.3-3.3 25.3 32.5 1.7 31.7-18.4-1.1-20-28.6-1.7-31.7zM381.2 400.2c23.3-3.4 25.4 32.5 1.8 31.7-18.5-1-20.2-28.5-1.8-31.7zM69.2 424.2c23.4-3.4 25.3 32.5 1.7 31.7-18.4-1.1-20-28.6-1.7-31.7z"/><path class="st0" fill="#0E87DF" d="M405.2 424.2c21.8-3.3 25.9 29.7 3.9 31.7-19.8 1.4-23.4-28.3-3.9-31.7zM157.2 448.2c22.6-3.4 25.7 31.2 2.8 31.7-19.1.1-21.7-28.4-2.8-31.7zM205.2 448.2c25.1-3.1 24.5 35.4-.6 31.4-16.7-3.2-16.3-28.8.6-31.4zM269.2 448.2c22.6-3.4 25.7 31.1 2.8 31.7-19.1.2-21.7-28.4-2.8-31.7zM317.2 448.2c23.4-3.4 25.3 32.5 1.7 31.7-18.4-1.1-20-28.6-1.7-31.7z"/><path class="st0" fill="#0E87DF" d="M429.2 448.2c21.9-3.3 25.9 29.8 3.8 31.7-19.7 1.3-23.3-28.3-3.8-31.7z"/></svg>