<?xml version="1.0" encoding="UTF-8" ?>
<!DOCTYPE svg PUBLIC "-//W3C//DTD SVG 1.1//EN" "http://www.w3.org/Graphics/SVG/1.1/DTD/svg11.dtd">
<svg width="512pt" height="512pt" viewBox="0 0 512 512" version="1.1" xmlns="http://www.w3.org/2000/svg">
<g id="#ffffffff">
<path fill="#ffffff" opacity="1.00" d=" M 76.58 36.86 C 91.19 34.12 106.96 37.99 118.45 47.48 C 127.95 55.20 134.36 66.69 135.68 78.88 C 137.07 90.91 133.30 103.33 125.80 112.78 C 117.02 123.99 103.23 130.90 89.07 131.67 C 74.05 132.65 58.67 126.65 48.51 115.50 C 40.21 106.52 35.51 94.23 36.08 81.97 C 36.52 70.59 41.42 59.51 49.35 51.35 C 56.60 43.81 66.31 38.74 76.58 36.86 M 79.48 55.67 C 68.57 57.79 58.83 65.98 55.96 76.88 C 52.21 89.62 59.63 103.90 71.49 109.33 C 83.66 115.58 99.66 113.00 109.12 103.08 C 116.57 95.38 119.30 83.21 114.78 73.32 C 109.31 59.90 93.36 52.62 79.48 55.67 Z" />
<path fill="#ffffff" opacity="1.00" d=" M 160.01 45.96 C 159.61 40.87 163.86 36.02 168.98 35.88 C 174.47 35.41 179.43 40.50 178.99 45.97 C 179.01 84.91 178.99 123.85 179.00 162.80 C 229.33 162.80 279.67 162.80 330.00 162.80 C 330.03 123.49 329.93 84.17 330.05 44.86 C 330.09 38.80 336.89 34.20 342.54 36.37 C 346.53 37.65 349.23 41.77 348.99 45.93 C 349.01 84.88 348.99 123.84 349.00 162.80 C 387.35 162.81 425.70 162.78 464.05 162.81 C 469.19 162.49 474.01 166.86 474.04 172.04 C 474.33 177.37 469.45 182.12 464.15 181.79 C 425.77 181.81 387.38 181.79 349.00 181.80 C 349.00 232.13 349.00 282.47 349.00 332.80 C 388.02 332.82 427.04 332.77 466.05 332.82 C 471.52 332.51 476.47 337.61 475.85 343.08 C 475.56 347.99 470.97 352.04 466.07 351.79 C 427.05 351.81 388.02 351.79 349.00 351.80 C 348.98 389.91 349.03 428.03 348.98 466.14 C 349.34 471.90 343.64 476.99 337.95 475.84 C 333.33 475.18 329.75 470.73 330.01 466.08 C 329.98 427.99 330.01 389.89 330.00 351.80 C 279.67 351.80 229.33 351.80 179.00 351.80 C 178.99 389.90 179.02 428.01 178.98 466.11 C 179.30 471.48 174.42 476.37 169.04 475.97 C 163.97 475.84 159.70 471.12 160.01 466.07 C 159.98 427.98 160.01 389.89 160.00 351.80 C 122.00 351.80 84.01 351.81 46.02 351.80 C 41.05 352.11 36.33 348.06 36.05 343.07 C 35.43 337.57 40.43 332.48 45.92 332.82 C 83.94 332.78 121.97 332.81 160.00 332.80 C 160.00 282.47 160.00 232.13 160.00 181.80 C 121.74 181.78 83.49 181.85 45.24 181.77 C 40.14 181.78 35.71 177.04 36.03 171.96 C 36.08 166.81 40.90 162.48 46.02 162.81 C 84.01 162.78 122.01 162.81 160.00 162.80 C 160.00 123.85 159.99 84.91 160.01 45.96 M 179.00 181.80 C 179.00 232.13 179.00 282.47 179.00 332.80 C 229.33 332.80 279.67 332.80 330.00 332.80 C 330.00 282.47 330.00 232.13 330.00 181.80 C 279.67 181.80 229.33 181.80 179.00 181.80 Z" />
<path fill="#ffffff" opacity="1.00" d=" M 246.49 36.88 C 261.13 34.10 276.95 37.97 288.46 47.49 C 297.96 55.21 304.36 66.69 305.68 78.88 C 307.07 90.89 303.31 103.30 295.83 112.75 C 287.66 123.18 275.14 129.94 262.01 131.42 C 246.30 133.35 229.79 127.56 218.96 115.98 C 210.37 106.94 205.49 94.42 206.08 81.94 C 206.53 70.58 211.42 59.52 219.32 51.38 C 226.56 43.85 236.24 38.77 246.49 36.88 M 249.51 55.67 C 245.31 56.56 241.25 58.22 237.69 60.63 C 226.78 67.70 221.64 82.89 227.39 94.83 C 233.92 110.27 254.06 116.94 268.99 110.02 C 282.17 104.90 290.49 89.05 285.59 75.46 C 280.99 60.84 264.15 52.41 249.51 55.67 Z" />
<path fill="#ffffff" opacity="1.00" d=" M 387.54 48.65 C 390.76 44.51 397.48 44.05 401.25 47.70 C 408.93 55.20 416.45 62.86 424.06 70.43 C 431.33 63.23 438.49 55.93 445.79 48.75 C 449.10 45.27 455.10 45.00 458.68 48.23 C 462.83 51.59 463.09 58.48 459.20 62.14 C 452.01 69.42 444.74 76.62 437.51 83.86 C 444.91 91.37 452.46 98.73 459.83 106.27 C 463.55 109.79 463.53 116.29 459.77 119.78 C 456.23 123.42 449.82 123.32 446.36 119.62 C 438.89 112.22 431.52 104.73 424.07 97.31 C 416.74 104.59 409.51 111.97 402.12 119.18 C 397.82 123.46 389.76 121.98 387.24 116.47 C 385.33 112.82 386.23 108.07 389.23 105.29 C 396.35 98.14 403.50 91.01 410.63 83.88 C 403.21 76.44 395.77 69.02 388.34 61.58 C 384.77 58.31 384.37 52.33 387.54 48.65 Z" />
<path fill="#ffffff" opacity="1.00" d=" M 415.53 208.84 C 426.95 206.91 438.99 208.93 449.11 214.58 C 460.96 221.06 469.95 232.69 472.88 245.92 C 475.94 258.91 472.73 273.07 464.77 283.72 C 456.65 294.78 443.70 302.02 430.11 303.54 C 415.99 305.27 401.23 300.80 390.50 291.45 C 381.11 283.35 375.00 271.47 374.21 259.06 C 373.28 246.26 378.13 233.28 386.92 223.99 C 394.43 215.95 404.71 210.64 415.53 208.84 M 417.55 227.79 C 407.46 229.77 398.27 236.82 394.79 246.65 C 391.13 255.81 393.51 266.65 399.89 274.01 C 409.42 285.23 426.99 288.12 439.74 280.83 C 451.65 274.77 458.41 259.53 453.40 246.85 C 448.51 232.60 431.94 224.61 417.55 227.79 Z" />
<path fill="#ffffff" opacity="1.00" d=" M 219.59 220.65 C 222.84 216.62 229.46 216.20 233.18 219.81 C 240.86 227.32 248.38 234.99 256.00 242.56 C 263.31 235.32 270.51 227.96 277.86 220.75 C 281.18 217.38 287.05 217.17 290.59 220.32 C 294.70 223.64 295.05 230.43 291.26 234.13 C 284.05 241.47 276.70 248.69 269.46 256.00 C 276.86 263.46 284.35 270.84 291.73 278.32 C 295.45 281.81 295.49 288.26 291.80 291.78 C 288.27 295.50 281.80 295.45 278.31 291.71 C 270.83 284.33 263.46 276.84 256.00 269.44 C 248.71 276.70 241.48 284.02 234.16 291.24 C 230.64 294.80 224.32 294.72 220.88 291.09 C 217.30 287.66 217.18 281.39 220.72 277.88 C 227.97 270.55 235.29 263.29 242.58 256.00 C 235.14 248.58 227.71 241.14 220.29 233.71 C 216.66 230.41 216.33 224.31 219.59 220.65 Z" />
<path fill="#ffffff" opacity="1.00" d=" M 248.47 380.74 C 262.74 378.60 277.90 382.71 288.93 392.07 C 298.66 400.17 305.01 412.28 305.85 424.94 C 306.81 438.01 301.73 451.27 292.62 460.64 C 282.69 470.97 268.19 476.57 253.91 475.95 C 241.00 475.46 228.32 469.93 219.34 460.61 C 210.49 451.50 205.46 438.72 206.09 426.00 C 206.59 413.91 212.15 402.20 220.96 393.94 C 228.47 386.84 238.25 382.22 248.47 380.74 M 250.45 399.69 C 239.16 401.51 228.92 409.81 225.97 421.04 C 222.28 433.53 229.34 447.57 240.84 453.19 C 253.11 459.85 269.55 457.36 279.18 447.22 C 286.45 439.63 289.23 427.77 284.97 417.99 C 279.82 404.60 264.26 397.13 250.45 399.69 Z" />
<path fill="#ffffff" opacity="1.00" d=" M 50.13 392.13 C 53.67 388.42 60.15 388.55 63.63 392.28 C 71.11 399.72 78.55 407.19 86.00 414.65 C 93.31 407.39 100.53 400.05 107.87 392.83 C 111.19 389.49 117.02 389.27 120.55 392.39 C 124.68 395.67 125.07 402.45 121.31 406.17 C 114.08 413.53 106.72 420.77 99.44 428.09 C 107.00 435.69 114.66 443.20 122.15 450.87 C 125.57 454.39 125.40 460.56 121.86 463.94 C 118.49 467.48 112.32 467.67 108.80 464.26 C 101.12 456.77 93.64 449.07 86.00 441.54 C 78.74 448.76 71.54 456.04 64.27 463.24 C 60.76 466.93 54.30 466.91 50.81 463.21 C 47.22 459.74 47.16 453.41 50.76 449.93 C 58.00 442.61 65.32 435.37 72.58 428.08 C 65.11 420.63 57.66 413.16 50.21 405.70 C 46.42 402.20 46.38 395.66 50.13 392.13 Z" />
</g>
</svg>
