<?xml version="1.0" encoding="utf-8"?>
<!-- Generator: Adobe Illustrator 27.1.1, SVG Export Plug-In . SVG Version: 6.00 Build 0)  -->
<svg version="1.1" id="Слой_1" xmlns="http://www.w3.org/2000/svg" xmlns:xlink="http://www.w3.org/1999/xlink" x="0px" y="0px"
	 viewBox="0 0 512 512" style="enable-background:new 0 0 512 512;" xml:space="preserve">
<style type="text/css">
	.st0{fill:#0E87DF;}
</style>
<g transform="translate(0.000000,512.000000) scale(0.100000,-0.100000)">
	<path class="st0" d="M775,4749c-94-14-212-77-278-149c-232-251-141-634,182-762c47-19,75-22,181-22s134,3,181,22
		c321,128,414,512,184,761C1114,4718,945,4775,775,4749z M1002,4541c227-111,223-420-7-522c-207-92-445,48-445,261
		c0,122,72,223,195,273C804,4578,940,4571,1002,4541z"/>
	<path class="st0" d="M1638,4731l-33-29l-3-606l-2-606h-585H430l-32-29c-42-38-44-94-3-128l26-23h590h589v-760v-760h-585H430l-32-29
		c-42-38-44-94-3-128l26-23h589h589l3-595l3-595l26-26c36-36,92-36,128,0l26,26l3,595l3,595h754h754l3-595l3-595l26-26
		c36-36,92-36,128,0l26,26l3,595l3,595h605h605l24,25c38,37,35,95-6,129l-31,26h-599h-599v760v760h594c577,0,594,1,619,20
		c13,11,28,31,31,45c9,34-18,89-50,104c-18,8-194,11-609,11h-584l-3,606l-3,606l-33,29c-41,37-73,37-114,0l-33-29l-3-606l-2-606
		h-755h-754l-3,606l-3,606l-33,29C1711,4768,1679,4768,1638,4731z M3300,2550v-760h-755h-755v760v760h755h755V2550z"/>
	<path class="st0" d="M2205,2915c-18-17-25-35-25-61c0-34,10-48,127-166l127-128l-122-123c-113-113-122-125-122-160
		c0-52,35-87,87-87c35,0,47,9,160,122l123,122l128-127c116-114,132-127,164-127c48,0,88,40,88,88c0,32-13,48-127,164l-127,128
		l123,124c114,114,123,126,123,161c0,51-36,87-87,87c-35,0-47-9-161-123l-124-123l-128,127c-118,117-132,127-166,127
		C2240,2940,2222,2933,2205,2915z"/>
	<path class="st0" d="M2475,4749c-94-14-212-77-278-149c-232-251-141-634,182-762c47-19,75-22,181-22s134,3,181,22
		c321,128,414,512,184,761C2814,4718,2645,4775,2475,4749z M2702,4541c227-111,223-420-7-522c-207-92-445,48-445,261
		c0,122,72,223,195,273C2504,4578,2640,4571,2702,4541z"/>
	<path class="st0" d="M3885,4635c-18-17-25-35-25-61c0-34,10-48,127-166l127-128l-122-123c-113-113-122-125-122-160
		c0-51,35-87,86-87c34,0,47,10,161,122l123,122l128-127c144-142,163-150,221-101c25,21,31,33,31,66c0,38-7,47-125,167l-124,126
		l121,122c110,111,122,126,122,158c0,49-40,89-89,89c-32,0-47-12-158-122l-122-121l-126,124c-121,120-129,125-168,125
		C3920,4660,3903,4654,3885,4635z"/>
	<path class="st0" d="M4088,3011c-209-67-338-239-338-451c0-268,211-471,490-471c145,0,257,46,356,145c256,256,141,674-215,780
		C4306,3036,4162,3034,4088,3011z M4385,2818c180-92,222-311,87-451c-119-123-324-129-450-13c-146,134-114,367,63,458
		c64,33,85,38,170,34C4317,2844,4346,2838,4385,2818z"/>
	<path class="st0" d="M2408,1291c-349-112-456-524-202-779c306-307,848-97,846,328c-1,211-134,387-341,450
		C2628,1316,2488,1316,2408,1291z M2676,1109c119-45,194-149,194-269c0-111-58-202-165-258c-44-24-61-27-145-27s-101,3-145,27
		c-231,121-218,425,21,523C2513,1137,2598,1138,2676,1109z"/>
	<path class="st0" d="M506,1194c-18-19-26-37-26-63c0-32,11-47,127-163l128-128L611,716C497,602,488,590,488,555c0-51,37-89,87-89
		c32,0,48,12,160,124l125,125l128-128c118-118,130-127,165-127c51,0,87,35,87,86c0,34-10,48-127,166L986,840l122,123
		c117,117,122,124,122,164c0,51-34,83-89,83c-32,0-47-11-158-122L860,966l-128,127c-116,114-132,127-164,127
		C543,1220,525,1212,506,1194z"/>
</g>
</svg>
