<svg xmlns="http://www.w3.org/2000/svg" viewBox="0 0 512 512" style="enable-background:new 0 0 512 512" xml:space="preserve"><path class="st0" fill="#0E87DF" d="M77.5 37.1c-9.4 1.4-21.2 7.7-27.8 14.9-23.2 25.1-14.1 63.4 18.2 76.2 4.7 1.9 7.5 2.2 18.1 2.2s13.4-.3 18.1-2.2c32.1-12.8 41.4-51.2 18.4-76.1-11.1-11.9-28-17.6-45-15zm22.7 20.8c22.7 11.1 22.3 42-.7 52.2C78.8 119.3 55 105.3 55 84c0-12.2 7.2-22.3 19.5-27.3 5.9-2.5 19.5-1.8 25.7 1.2z"/><path class="st0" fill="#0E87DF" d="m163.8 38.9-3.3 2.9-.3 60.6-.2 60.6H43l-3.2 2.9c-4.2 3.8-4.4 9.4-.3 12.8l2.6 2.3H160v152H43l-3.2 2.9c-4.2 3.8-4.4 9.4-.3 12.8l2.6 2.3h117.8l.3 59.5.3 59.5 2.6 2.6c3.6 3.6 9.2 3.6 12.8 0l2.6-2.6.3-59.5.3-59.5h150.8l.3 59.5.3 59.5 2.6 2.6c3.6 3.6 9.2 3.6 12.8 0l2.6-2.6.3-59.5.3-59.5h121l2.4-2.5c3.8-3.7 3.5-9.5-.6-12.9l-3.1-2.6H349V181h59.4c57.7 0 59.4-.1 61.9-2 1.3-1.1 2.8-3.1 3.1-4.5.9-3.4-1.8-8.9-5-10.4-1.8-.8-19.4-1.1-60.9-1.1h-58.4l-.3-60.6-.3-60.6-3.3-2.9c-4.1-3.7-7.3-3.7-11.4 0l-3.3 2.9-.3 60.6-.2 60.6H179.1l-.3-60.6-.3-60.6-3.3-2.9c-4.1-3.7-7.3-3.7-11.4 0zM330 257v76H179V181h151v76z"/><path class="st0" fill="#0E87DF" d="M220.5 220.5c-1.8 1.7-2.5 3.5-2.5 6.1 0 3.4 1 4.8 12.7 16.6l12.7 12.8-12.2 12.3c-11.3 11.3-12.2 12.5-12.2 16 0 5.2 3.5 8.7 8.7 8.7 3.5 0 4.7-.9 16-12.2l12.3-12.2 12.8 12.7c11.6 11.4 13.2 12.7 16.4 12.7 4.8 0 8.8-4 8.8-8.8 0-3.2-1.3-4.8-12.7-16.4L268.6 256l12.3-12.4c11.4-11.4 12.3-12.6 12.3-16.1 0-5.1-3.6-8.7-8.7-8.7-3.5 0-4.7.9-16.1 12.3L256 243.4l-12.8-12.7C231.4 219 230 218 226.6 218c-2.6 0-4.4.7-6.1 2.5zM247.5 37.1c-9.4 1.4-21.2 7.7-27.8 14.9-23.2 25.1-14.1 63.4 18.2 76.2 4.7 1.9 7.5 2.2 18.1 2.2s13.4-.3 18.1-2.2c32.1-12.8 41.4-51.2 18.4-76.1-11.1-11.9-28-17.6-45-15zm22.7 20.8c22.7 11.1 22.3 42-.7 52.2-20.7 9.2-44.5-4.8-44.5-26.1 0-12.2 7.2-22.3 19.5-27.3 5.9-2.5 19.5-1.8 25.7 1.2zM388.5 48.5c-1.8 1.7-2.5 3.5-2.5 6.1 0 3.4 1 4.8 12.7 16.6L411.4 84l-12.2 12.3c-11.3 11.3-12.2 12.5-12.2 16 0 5.1 3.5 8.7 8.6 8.7 3.4 0 4.7-1 16.1-12.2L424 96.6l12.8 12.7c14.4 14.2 16.3 15 22.1 10.1 2.5-2.1 3.1-3.3 3.1-6.6 0-3.8-.7-4.7-12.5-16.7l-12.4-12.6 12.1-12.2c11-11.1 12.2-12.6 12.2-15.8 0-4.9-4-8.9-8.9-8.9-3.2 0-4.7 1.2-15.8 12.2l-12.2 12.1-12.6-12.4C399.8 46.5 399 46 395.1 46c-3.1 0-4.8.6-6.6 2.5zM408.8 210.9c-20.9 6.7-33.8 23.9-33.8 45.1 0 26.8 21.1 47.1 49 47.1 14.5 0 25.7-4.6 35.6-14.5 25.6-25.6 14.1-67.4-21.5-78-7.5-2.2-21.9-2-29.3.3zm29.7 19.3c18 9.2 22.2 31.1 8.7 45.1-11.9 12.3-32.4 12.9-45 1.3-14.6-13.4-11.4-36.7 6.3-45.8 6.4-3.3 8.5-3.8 17-3.4 6.2.2 9.1.8 13 2.8zM240.8 382.9c-34.9 11.2-45.6 52.4-20.2 77.9 30.6 30.7 84.8 9.7 84.6-32.8-.1-21.1-13.4-38.7-34.1-45-8.3-2.6-22.3-2.6-30.3-.1zm26.8 18.2C279.5 405.6 287 416 287 428c0 11.1-5.8 20.2-16.5 25.8-4.4 2.4-6.1 2.7-14.5 2.7s-10.1-.3-14.5-2.7c-23.1-12.1-21.8-42.5 2.1-52.3 7.7-3.2 16.2-3.3 24-.4zM50.6 392.6c-1.8 1.9-2.6 3.7-2.6 6.3 0 3.2 1.1 4.7 12.7 16.3L73.5 428l-12.4 12.4c-11.4 11.4-12.3 12.6-12.3 16.1 0 5.1 3.7 8.9 8.7 8.9 3.2 0 4.8-1.2 16-12.4L86 440.5l12.8 12.8c11.8 11.8 13 12.7 16.5 12.7 5.1 0 8.7-3.5 8.7-8.6 0-3.4-1-4.8-12.7-16.6L98.6 428l12.2-12.3c11.7-11.7 12.2-12.4 12.2-16.4 0-5.1-3.4-8.3-8.9-8.3-3.2 0-4.7 1.1-15.8 12.2L86 415.4l-12.8-12.7C61.6 391.3 60 390 56.8 390c-2.5 0-4.3.8-6.2 2.6z"/></svg>