<?xml version="1.0" encoding="UTF-8" ?>
<!DOCTYPE svg PUBLIC "-//W3C//DTD SVG 1.1//EN" "http://www.w3.org/Graphics/SVG/1.1/DTD/svg11.dtd">
<svg width="384pt" height="381pt" viewBox="0 0 384 381" version="1.1" xmlns="http://www.w3.org/2000/svg">
<g id="#ffffffff">
</g>
<g id="#000000ff">
<path fill="#000000" opacity="1.00" d=" M 178.42 118.49 C 183.90 117.64 189.47 118.12 194.99 118.00 C 202.55 117.85 210.27 118.78 217.27 121.79 C 225.60 125.58 233.96 129.93 240.25 136.75 C 256.94 152.03 265.87 175.53 262.93 198.01 C 261.77 211.68 255.85 224.63 247.06 235.07 C 233.58 250.54 213.64 260.43 193.03 260.87 C 177.22 260.73 161.49 255.62 148.72 246.28 C 130.13 232.48 118.59 209.23 119.97 185.99 C 119.66 177.73 122.47 169.82 125.23 162.16 C 134.35 140.10 154.69 122.56 178.42 118.49 M 189.36 146.28 C 176.23 147.08 162.95 153.55 155.86 164.91 C 148.09 176.41 146.73 191.62 151.37 204.59 C 154.74 213.13 160.63 220.71 168.56 225.46 C 181.62 233.95 199.00 233.37 212.73 226.78 C 221.38 222.02 228.40 214.15 231.97 204.92 C 235.29 197.39 234.01 188.96 234.04 180.99 C 232.28 169.15 224.62 158.70 214.63 152.33 C 207.12 147.77 198.10 145.61 189.36 146.28 Z" />
</g>
</svg>
