<?xml version="1.0" encoding="UTF-8" ?>
<!DOCTYPE svg PUBLIC "-//W3C//DTD SVG 1.1//EN" "http://www.w3.org/Graphics/SVG/1.1/DTD/svg11.dtd">
<svg width="384pt" height="384pt" viewBox="0 0 384 384" version="1.1" xmlns="http://www.w3.org/2000/svg">
<g id="#ffffffff">
</g>
<g id="#000000ff">
<path fill="#000000" opacity="1.00" d=" M 133.43 122.48 C 135.32 121.81 137.53 121.69 139.30 122.76 C 144.34 125.47 148.77 129.16 152.75 133.24 C 163.01 141.95 172.06 151.94 181.69 161.31 C 184.86 164.25 187.52 167.78 191.09 170.26 C 192.48 170.56 193.31 169.00 194.34 168.33 C 204.05 158.72 213.53 148.87 223.43 139.45 C 229.81 134.55 234.64 127.83 241.49 123.50 C 247.00 120.25 254.27 123.44 257.56 128.43 C 259.89 132.23 262.13 137.26 259.43 141.47 C 256.17 146.71 251.41 150.77 247.61 155.60 C 236.61 166.94 225.32 178.01 214.18 189.22 C 212.99 190.19 212.31 192.05 213.68 193.21 C 223.69 203.57 234.16 213.48 244.09 223.91 C 248.95 230.01 255.07 235.03 259.42 241.55 C 262.01 245.68 260.26 250.97 257.62 254.62 C 255.56 257.19 253.13 259.85 249.86 260.80 C 246.51 261.34 242.67 261.41 240.00 258.97 C 234.87 254.81 230.55 249.73 225.40 245.57 C 214.87 235.45 204.61 225.05 194.32 214.68 C 193.37 213.94 192.47 212.61 191.11 212.83 C 188.04 214.76 185.85 217.76 183.22 220.22 C 174.14 229.13 165.37 238.37 156.10 247.09 C 150.52 251.45 145.98 257.26 139.61 260.52 C 131.28 262.85 121.82 255.71 121.93 247.00 C 121.65 243.23 124.12 240.10 126.38 237.38 C 139.76 221.79 155.13 208.05 169.31 193.21 C 170.83 192.02 170.00 190.26 168.79 189.25 C 156.95 177.41 145.09 165.59 133.32 153.68 C 130.04 149.95 126.66 146.28 123.79 142.22 C 121.11 138.59 121.43 133.42 123.68 129.66 C 125.57 125.84 129.64 123.91 133.43 122.48 Z" />
</g>
</svg>
