<svg width="15" height="29" viewBox="0 0 15 29" fill="none" xmlns="http://www.w3.org/2000/svg">
<path fill-rule="evenodd" clip-rule="evenodd" d="M14.5113 1.33419C14.8238 1.65456 14.9993 2.08903 14.9993 2.54204C14.9993 2.99505 14.8238 3.42951 14.5113 3.74989L4.02298 14.501L14.5113 25.252C14.8149 25.5742 14.9829 26.0058 14.9791 26.4537C14.9753 26.9017 14.8 27.3302 14.491 27.6469C14.182 27.9637 13.764 28.1434 13.327 28.1473C12.89 28.1511 12.469 27.9789 12.1546 27.6677L0.487978 15.7088C0.175526 15.3884 0 14.954 0 14.501C0 14.048 0.175526 13.6135 0.487978 13.2931L12.1546 1.33419C12.4672 1.01391 12.891 0.833984 13.333 0.833984C13.7749 0.833984 14.1988 1.01391 14.5113 1.33419V1.33419Z" fill="#0E87DF"/>
</svg>
