<svg width="27" height="26" viewBox="0 0 27 26" fill="none" xmlns="http://www.w3.org/2000/svg">
<path d="M8 14.6667C8.73638 14.6667 9.33333 14.0697 9.33333 13.3333C9.33333 12.597 8.73638 12 8 12C7.26362 12 6.66667 12.597 6.66667 13.3333C6.66667 14.0697 7.26362 14.6667 8 14.6667Z" fill="white"/>
<path d="M14.6667 13.3333C14.6667 14.0697 14.0697 14.6667 13.3333 14.6667C12.597 14.6667 12 14.0697 12 13.3333C12 12.597 12.597 12 13.3333 12C14.0697 12 14.6667 12.597 14.6667 13.3333Z" fill="white"/>
<path d="M18.6667 14.6667C19.403 14.6667 20 14.0697 20 13.3333C20 12.597 19.403 12 18.6667 12C17.9303 12 17.3333 12.597 17.3333 13.3333C17.3333 14.0697 17.9303 14.6667 18.6667 14.6667Z" fill="white"/>
<path d="M9.33333 18.6667C9.33333 19.403 8.73638 20 8 20C7.26362 20 6.66667 19.403 6.66667 18.6667C6.66667 17.9303 7.26362 17.3333 8 17.3333C8.73638 17.3333 9.33333 17.9303 9.33333 18.6667Z" fill="white"/>
<path d="M13.3333 20C14.0697 20 14.6667 19.403 14.6667 18.6667C14.6667 17.9303 14.0697 17.3333 13.3333 17.3333C12.597 17.3333 12 17.9303 12 18.6667C12 19.403 12.597 20 13.3333 20Z" fill="white"/>
<path fill-rule="evenodd" clip-rule="evenodd" d="M8 1.33333C8 0.596954 7.40305 0 6.66667 0C5.93029 0 5.33333 0.596954 5.33333 1.33333H2.66667C1.19391 1.33333 0 2.52724 0 4V22.6667C0 24.1394 1.19391 25.3333 2.66667 25.3333H24C25.4728 25.3333 26.6667 24.1394 26.6667 22.6667V4C26.6667 2.52724 25.4728 1.33333 24 1.33333H21.3333C21.3333 0.596954 20.7364 0 20 0C19.2636 0 18.6667 0.596954 18.6667 1.33333H8ZM2.66667 6.66667V4H24V6.66667H2.66667ZM2.66667 9.33333V22.6667H16.2288L24 14.8955V9.33333H2.66667ZM24 18.6667L20 22.6667H24V18.6667Z" fill="white"/>
</svg>
