<?xml version="1.0" encoding="utf-8"?>
<!-- Generator: Adobe Illustrator 27.1.1, SVG Export Plug-In . SVG Version: 6.00 Build 0)  -->
<svg version="1.1" id="Слой_1" xmlns="http://www.w3.org/2000/svg" xmlns:xlink="http://www.w3.org/1999/xlink" x="0px" y="0px"
	 viewBox="0 0 100 100" style="enable-background:new 0 0 100 100;" xml:space="preserve">
<style type="text/css">
	.st0{fill:#FFFFFF;}
</style>
<g transform="translate(0.000000,100.000000) scale(0.100000,-0.100000)">
	<path class="st0" d="M586.5,980.6c-62-11-139-46-147-65c-8-21,39-53,103-72c77-23,265-23,343,0c32,10,69,28,84,40l27,23l-22,21
		C924.5,974.6,712.5,1002.6,586.5,980.6z"/>
	<path class="st0" d="M433.5,791.6c0-49,28-74,109-98c77-23,265-23,342,0c81,24,109,49,109,98c0,21-1,39-2,39c-2,0-27-9-56-20
		c-112-43-332-43-444,0c-29,11-54,20-55,20C434.5,830.6,433.5,812.6,433.5,791.6z"/>
	<path class="st0" d="M433.5,666.6c0-7,19-19,44-26c52-14,116-64,116-90c0-36,174-38,296-5c75,21,104,48,104,96c0,21-1,39-2,39
		c-2,0-27-9-55-20c-76-29-206-41-308-29c-47,5-109,18-138,29C428.5,684.6,433.5,683.6,433.5,666.6z"/>
	<path class="st0" d="M126.5,606.6c-218-50-124-146,143-147c141,0,238,22,273,64c17,21-19,53-84,73
		C387.5,618.6,204.5,623.6,126.5,606.6z"/>
	<path class="st0" d="M931.5,509.6c-62-24-192-40-273-32l-65,6v-51v-51l56-7c108-13,264,15,318,57c20,16,26,29,26,60
		C993.5,535.6,995.5,535.6,931.5,509.6z"/>
	<path class="st0" d="M513.5,448.6c-94-45-339-50-452-10l-58,21v-44c0-35,5-48,23-59c94-62,399-63,493-1c31,20,36,33,32,77l-3,33
		L513.5,448.6z"/>
	<path class="st0" d="M931.5,359.6c-62-24-192-40-273-32l-65,6v-51v-51l56-7c108-13,264,15,318,57c20,16,26,29,26,60
		C993.5,385.6,995.5,385.6,931.5,359.6z"/>
	<path class="st0" d="M513.5,298.6c-95-45-344-51-450-9c-30,11-56,21-57,21c-2,0-3-20-3-45c0-54,15-67,110-91c49-12,93-15,190-11
		c189,7,254,37,248,114l-3,38L513.5,298.6z"/>
	<path class="st0" d="M538.5,162.6c-5-5-35-18-65-28c-44-15-84-19-205-19c-131,1-157,4-205,23c-30,12-56,22-57,22c-2,0-3-20-3-44
		c0-53,19-68,112-92c81-21,290-15,359,10c64,23,81,44,77,96C549.5,157.6,545.5,168.6,538.5,162.6z"/>
</g>
</svg>
