<?xml version="1.0" encoding="utf-8"?>
<!-- Generator: Adobe Illustrator 24.3.0, SVG Export Plug-In . SVG Version: 6.00 Build 0)  -->
<svg version="1.1" id="Слой_1" xmlns="http://www.w3.org/2000/svg" xmlns:xlink="http://www.w3.org/1999/xlink" x="0px" y="0px"
	 viewBox="0 0 84 84" style="enable-background:new 0 0 84 84;" xml:space="preserve">
<style type="text/css">
	.st0{fill:#0E87DF;}
</style>
<g transform="translate(0.000000,84.000000) scale(0.100000,-0.100000)">
	<path class="st0" d="M387,734c-4-4-7-23-7-41c0-24-12-50-40-88c-22-29-44-56-49-59c-10-6-106,16-153,35c-14,6-28,20-31,31
		c-4,15-12,19-39,16c-29-3-33-7-36-35c-3-26,0-33,15-33s23-22,47-120c16-66,36-129,43-140c14-19,26-20,282-20c215,0,271,3,280,14
		c13,16,33,82,56,188c13,60,21,77,37,81c15,4,19,12,16,34c-3,24-8,28-36,31c-27,3-35-1-39-17c-5-20-24-29-133-62c-45-14-45-14-70,16
		c-44,52-64,89-70,130c-4,36-8,40-35,43C408,740,391,738,387,734z"/>
	<path class="st0" d="M140,175v-35h280h280v35v35H420H140V175z"/>
</g>
</svg>
