<?xml version="1.0" standalone="no"?>
<!DOCTYPE svg PUBLIC "-//W3C//DTD SVG 20010904//EN"
 "http://www.w3.org/TR/2001/REC-SVG-20010904/DTD/svg10.dtd">
<svg version="1.0" xmlns="http://www.w3.org/2000/svg"
 width="84.000000pt" height="84.000000pt" viewBox="0 0 84.000000 84.000000"
 preserveAspectRatio="xMidYMid meet">
<metadata>
Created by potrace 1.16, written by Peter Selinger 2001-2019
</metadata>
<g transform="translate(0.000000,84.000000) scale(0.100000,-0.100000)"
fill="#000000" stroke="none">
<path d="M387 734 c-4 -4 -7 -23 -7 -41 0 -24 -12 -50 -40 -88 -22 -29 -44
-56 -49 -59 -10 -6 -106 16 -153 35 -14 6 -28 20 -31 31 -4 15 -12 19 -39 16
-29 -3 -33 -7 -36 -35 -3 -26 0 -33 15 -33 15 0 23 -22 47 -120 16 -66 36
-129 43 -140 14 -19 26 -20 282 -20 215 0 271 3 280 14 13 16 33 82 56 188 13
60 21 77 37 81 15 4 19 12 16 34 -3 24 -8 28 -36 31 -27 3 -35 -1 -39 -17 -5
-20 -24 -29 -133 -62 -45 -14 -45 -14 -70 16 -44 52 -64 89 -70 130 -4 36 -8
40 -35 43 -17 2 -34 0 -38 -4z"/>
<path d="M140 175 l0 -35 280 0 280 0 0 35 0 35 -280 0 -280 0 0 -35z"/>
</g>
</svg>
