<svg width="20" height="20" viewBox="0 0 20 20" fill="none" xmlns="http://www.w3.org/2000/svg">
<path d="M10.9999 0C8.23848 0 5.99991 2.23858 5.99991 5C5.99991 5.55228 6.44762 6 6.99991 6C7.55219 6 7.99991 5.55228 7.99991 5C7.99991 3.34315 9.34305 2 10.9999 2H14.9999C16.6568 2 17.9999 3.34315 17.9999 5V15C17.9999 16.6569 16.6568 18 14.9999 18H10.9999C9.34305 18 7.99991 16.6569 7.99991 15C7.99991 14.4477 7.55219 14 6.99991 14C6.44762 14 5.99991 14.4477 5.99991 15C5.99991 17.7614 8.23848 20 10.9999 20H14.9999C17.7613 20 19.9999 17.7614 19.9999 15V5C19.9999 2.23858 17.7613 0 14.9999 0H10.9999Z" fill="white"/>
<path d="M11.9999 9C12.5522 9 12.9999 9.44772 12.9999 10C12.9999 10.5523 12.5522 11 11.9999 11V9Z" fill="white"/>
<path d="M3.71783 9C3.80685 8.89023 3.89214 8.78371 3.97282 8.68195C4.21831 8.37235 4.42615 8.10041 4.57291 7.90549C4.64636 7.80795 4.70468 7.72946 4.74495 7.67492L4.79152 7.61162L4.804 7.59454L4.80842 7.58848C4.80846 7.58842 4.80892 7.58778 3.99991 7L4.80842 7.58848C5.13304 7.14167 5.0345 6.51561 4.58769 6.19098C4.14091 5.86637 3.51558 5.9654 3.19094 6.41215L3.18812 6.41602L3.17788 6.43002L3.13612 6.48679C3.09918 6.53682 3.04456 6.61033 2.97516 6.7025C2.83623 6.88702 2.63874 7.14542 2.40567 7.43937C1.93443 8.0337 1.33759 8.7481 0.7928 9.29289L0.0856934 10L0.7928 10.7071C1.33759 11.2519 1.93443 11.9663 2.40567 12.5606C2.63874 12.8546 2.83623 13.113 2.97516 13.2975C3.04456 13.3897 3.09918 13.4632 3.13612 13.5132L3.17788 13.57L3.18812 13.584L3.19045 13.5872C3.51509 14.0339 4.14091 14.1336 4.58769 13.809C5.0345 13.4844 5.13355 12.859 4.80892 12.4122L3.99991 13C4.80892 12.4122 4.80897 12.4123 4.80892 12.4122L4.804 12.4055L4.79152 12.3884L4.74495 12.3251C4.70468 12.2705 4.64636 12.1921 4.57291 12.0945C4.42615 11.8996 4.21831 11.6277 3.97282 11.318C3.89214 11.2163 3.80685 11.1098 3.71783 11H11.9999V9H3.71783Z" fill="white"/>
</svg>
