<svg width="50" height="50" viewBox="0 0 50 50" fill="none" xmlns="http://www.w3.org/2000/svg">
<path fill-rule="evenodd" clip-rule="evenodd" d="M8.33317 25.0013C8.33317 20.5808 10.0891 16.3414 13.2147 13.2156C16.3403 10.0899 20.5796 8.33386 24.9998 8.33386C29.4201 8.33386 33.6593 10.0899 36.7849 13.2156C39.9106 16.3414 41.6665 20.5808 41.6665 25.0013C41.6665 29.4218 39.9106 33.6613 36.7849 36.787C33.6593 39.9128 29.4201 41.6688 24.9998 41.6688C20.5796 41.6688 16.3403 39.9128 13.2147 36.787C10.0891 33.6613 8.33317 29.4218 8.33317 25.0013V25.0013ZM24.9998 4.16699C13.4936 4.16699 4.1665 13.4945 4.1665 25.0013C4.1665 36.5081 13.4936 45.8357 24.9998 45.8357C36.5061 45.8357 45.8332 36.5081 45.8332 25.0013C45.8332 13.4945 36.5061 4.16699 24.9998 4.16699ZM20.7644 30.7183C20.6257 30.1844 20.2809 29.7273 19.8057 29.4473C19.3304 29.1672 18.7635 29.0871 18.2293 29.2245C17.6951 29.3618 17.2371 29.7055 16.9559 30.18C16.6746 30.6545 16.593 31.2212 16.729 31.7558C17.6436 35.4185 21.4228 37.5019 24.9998 37.5019C28.7186 37.5019 32.1915 35.3935 33.2707 31.7517C33.3939 31.2213 33.3045 30.6638 33.0219 30.1985C32.7392 29.7332 32.2856 29.397 31.7582 29.262C31.2307 29.1269 30.6714 29.2037 30.1999 29.4759C29.7284 29.748 29.3821 30.194 29.2353 30.7183C28.6936 32.5309 26.7498 33.3351 24.9998 33.3351C23.2498 33.3351 21.3082 32.5329 20.7644 30.7183ZM21.8748 20.8345C21.8748 21.6633 21.5456 22.4582 20.9595 23.0443C20.3735 23.6304 19.5786 23.9596 18.7498 23.9596C17.921 23.9596 17.1262 23.6304 16.5401 23.0443C15.9541 22.4582 15.6248 21.6633 15.6248 20.8345C15.6248 20.0056 15.9541 19.2107 16.5401 18.6246C17.1262 18.0386 17.921 17.7093 18.7498 17.7093C19.5786 17.7093 20.3735 18.0386 20.9595 18.6246C21.5456 19.2107 21.8748 20.0056 21.8748 20.8345ZM31.2498 23.9596C32.0786 23.9596 32.8735 23.6304 33.4595 23.0443C34.0456 22.4582 34.3748 21.6633 34.3748 20.8345C34.3748 20.0056 34.0456 19.2107 33.4595 18.6246C32.8735 18.0386 32.0786 17.7093 31.2498 17.7093C30.421 17.7093 29.6262 18.0386 29.0401 18.6246C28.4541 19.2107 28.1248 20.0056 28.1248 20.8345C28.1248 21.6633 28.4541 22.4582 29.0401 23.0443C29.6262 23.6304 30.421 23.9596 31.2498 23.9596Z" fill="white"/>
</svg>
