<?xml version="1.0" encoding="utf-8"?>
<!-- Generator: Adobe Illustrator 24.3.0, SVG Export Plug-In . SVG Version: 6.00 Build 0)  -->
<svg version="1.1" id="Слой_1" xmlns="http://www.w3.org/2000/svg" xmlns:xlink="http://www.w3.org/1999/xlink" x="0px" y="0px"
	 viewBox="0 0 84 84" style="enable-background:new 0 0 84 84;" xml:space="preserve">
<style type="text/css">
	.st0{fill:#0E87DF;}
</style>
<g transform="translate(0.000000,84.000000) scale(0.100000,-0.100000)">
	<path class="st0" d="M236.2,707.9c-60.7-16.1-116.8-70.7-127.8-142.6c-11.7-76.9,34.4-133.1,42-142l26-30l-29-16
		c-68-40-106-122-101-222l3-57l234-3c23,0.1,46.3,0.3,69.9,0.8c61.3,1.3,120.8,3.9,178.5,7.7c4.7,26.1,9.3,72.9-6.4,127.5
		c0,0-23.9,83.1-83,132c-17.7,14.6-23.6,18.5-23.6,18.5c-10,6.6-12.6,6.9-14.1,10.4c-4.4,10.4,11.8,23.9,25.2,42.8
		c0,0,15.6,22,25.1,56.7c12.5,45.6-0.1,85.9-4.6,99.6c-4.7,14.5-16,47.6-47.6,76.2c-25.9,23.4-52.4,32.1-65.5,36.2
		C324,707.9,282.7,720.3,236.2,707.9z"/>
	<path class="st0" d="M570.8,531c-33-15-44-27-64-64c-21-41-20-85,1-126c17-34,18-39,29-165l7-83l126,3l126,3l-1,73
		c0,66-3,75-31,105l-31,32l19,30c30,48,19,128-25,170C691.8,542,617.8,553,570.8,531z"/>
</g>
<path d="M120.4,29.7"/>
</svg>
