<svg width="41" height="41" viewBox="0 0 41 41" fill="none" xmlns="http://www.w3.org/2000/svg">
<path d="M29.439 2H11.1463C6.09495 2 2 6.09495 2 11.1463V29.439C2 34.4904 6.09495 38.5854 11.1463 38.5854H29.439C34.4904 38.5854 38.5853 34.4904 38.5853 29.439V11.1463C38.5853 6.09495 34.4904 2 29.439 2Z" stroke="white" stroke-width="3"/>
<path d="M5.27991 33.6109C4.56555 34.3253 4.56555 35.4835 5.27991 36.1979C5.9943 36.9122 7.15252 36.9122 7.8669 36.1979L15.8363 28.2285L27.2701 39.002C28.0055 39.6949 29.1632 39.6603 29.856 38.9251C30.5489 38.1898 30.5143 37.032 29.7791 36.3393L21.7249 28.7502L26.6674 23.0275L36.3308 33.428C37.0186 34.1681 38.176 34.2106 38.9161 33.5229C39.6562 32.8353 39.6987 31.6778 39.0111 30.9376L28.0914 19.1853L28.0658 19.1577L28.0389 19.1312C27.211 18.3107 25.8616 18.3631 25.0997 19.2451L19.0598 26.239L17.1817 24.4693L17.1786 24.4664C16.4079 23.7437 15.2097 23.74 14.4347 24.458L14.4091 24.4818L14.3843 24.5065L5.27991 33.6109ZM14.8051 18.4633C16.8257 18.4633 18.4636 16.8254 18.4636 14.8048C18.4636 12.7842 16.8257 11.1462 14.8051 11.1462C12.7846 11.1462 11.1466 12.7842 11.1466 14.8048C11.1466 16.8254 12.7846 18.4633 14.8051 18.4633Z" fill="white"/>
</svg>
