<svg width="42" height="42" viewBox="0 0 42 42" fill="none" xmlns="http://www.w3.org/2000/svg">
<mask id="path-1-inside-1_475_463" fill="white">
<path d="M18.9192 0.0574451C13.9662 0.568149 9.48338 2.6596 6.07869 6.04808C2.30921 9.80135 0.22586 14.6003 0.015093 20.0316C-0.155142 24.5712 1.11756 28.9325 3.6873 32.6128C4.51415 33.7882 5.21941 34.607 6.37052 35.7257C9.96977 39.2195 14.6634 41.238 19.6407 41.4407C20.9621 41.4974 21.5944 41.392 22.3726 40.9705C23.5966 40.322 24.3019 38.9196 24.0668 37.5901C23.9533 36.9173 23.775 36.512 23.2643 35.7743C22.5833 34.7934 22.4861 34.5097 22.4861 33.5207C22.4861 32.702 22.4942 32.6452 22.7941 32.0535C23.1751 31.2671 23.6858 30.7078 24.3019 30.3754C25.0639 29.9701 25.6557 29.8809 27.6336 29.8809C29.8791 29.8809 31.7922 29.7593 32.7974 29.5648C37.9774 28.5434 41.2281 24.6199 41.4632 19.0994C41.7631 12.3306 37.3857 5.41578 30.7546 2.15701C28.7604 1.17613 26.7176 0.560043 24.3505 0.211467C23.0454 0.016913 20.1028 -0.0641511 18.9192 0.0574451ZM24.1884 2.64339C28.3227 3.2919 31.7922 5.04289 34.4998 7.84771C38.6989 12.209 40.2067 18.4833 38.099 22.8689C37.0209 25.1144 35.124 26.5735 32.5542 27.1329C31.6301 27.3355 29.9278 27.449 27.6904 27.449C26.7176 27.449 25.6557 27.4895 25.3395 27.5382C22.859 27.903 21.0837 29.4108 20.2487 31.867C20.0785 32.3534 20.0541 32.5885 20.0541 33.5288C20.0541 35.0042 20.2568 35.6365 21.1971 37.047C21.716 37.8414 21.7727 38.0441 21.5944 38.4332C21.3593 38.9277 21.108 39.0006 19.811 38.9925C16.5603 38.9682 13.0016 37.7847 10.1643 35.7743C8.41334 34.534 6.73531 32.8155 5.51935 31.0158C4.03587 28.819 3.00636 26.1439 2.60914 23.4769C2.43891 22.3095 2.41459 19.4804 2.56861 18.3698C3.12796 14.3247 4.80598 10.839 7.56216 8.00983C10.5615 4.92129 14.6958 2.93522 19.0408 2.48937C20.2406 2.36777 22.9562 2.44884 24.1884 2.64339Z"/>
</mask>
<path d="M18.9192 0.0574451C13.9662 0.568149 9.48338 2.6596 6.07869 6.04808C2.30921 9.80135 0.22586 14.6003 0.015093 20.0316C-0.155142 24.5712 1.11756 28.9325 3.6873 32.6128C4.51415 33.7882 5.21941 34.607 6.37052 35.7257C9.96977 39.2195 14.6634 41.238 19.6407 41.4407C20.9621 41.4974 21.5944 41.392 22.3726 40.9705C23.5966 40.322 24.3019 38.9196 24.0668 37.5901C23.9533 36.9173 23.775 36.512 23.2643 35.7743C22.5833 34.7934 22.4861 34.5097 22.4861 33.5207C22.4861 32.702 22.4942 32.6452 22.7941 32.0535C23.1751 31.2671 23.6858 30.7078 24.3019 30.3754C25.0639 29.9701 25.6557 29.8809 27.6336 29.8809C29.8791 29.8809 31.7922 29.7593 32.7974 29.5648C37.9774 28.5434 41.2281 24.6199 41.4632 19.0994C41.7631 12.3306 37.3857 5.41578 30.7546 2.15701C28.7604 1.17613 26.7176 0.560043 24.3505 0.211467C23.0454 0.016913 20.1028 -0.0641511 18.9192 0.0574451ZM24.1884 2.64339C28.3227 3.2919 31.7922 5.04289 34.4998 7.84771C38.6989 12.209 40.2067 18.4833 38.099 22.8689C37.0209 25.1144 35.124 26.5735 32.5542 27.1329C31.6301 27.3355 29.9278 27.449 27.6904 27.449C26.7176 27.449 25.6557 27.4895 25.3395 27.5382C22.859 27.903 21.0837 29.4108 20.2487 31.867C20.0785 32.3534 20.0541 32.5885 20.0541 33.5288C20.0541 35.0042 20.2568 35.6365 21.1971 37.047C21.716 37.8414 21.7727 38.0441 21.5944 38.4332C21.3593 38.9277 21.108 39.0006 19.811 38.9925C16.5603 38.9682 13.0016 37.7847 10.1643 35.7743C8.41334 34.534 6.73531 32.8155 5.51935 31.0158C4.03587 28.819 3.00636 26.1439 2.60914 23.4769C2.43891 22.3095 2.41459 19.4804 2.56861 18.3698C3.12796 14.3247 4.80598 10.839 7.56216 8.00983C10.5615 4.92129 14.6958 2.93522 19.0408 2.48937C20.2406 2.36777 22.9562 2.44884 24.1884 2.64339Z" fill="white"/>
<path d="M18.9192 0.0574451L18.6115 -2.92673L18.6126 -2.92685L18.9192 0.0574451ZM6.07869 6.04808L3.96195 3.9222L3.96244 3.92171L6.07869 6.04808ZM0.015093 20.0316L-2.9828 19.9192L-2.98265 19.9153L0.015093 20.0316ZM3.6873 32.6128L1.23357 34.3389L1.22757 34.3303L3.6873 32.6128ZM6.37052 35.7257L4.28095 37.8783L4.27972 37.8771L6.37052 35.7257ZM19.6407 41.4407L19.7628 38.4432L19.7694 38.4434L19.6407 41.4407ZM22.3726 40.9705L20.9437 38.3326L20.9559 38.326L20.9681 38.3196L22.3726 40.9705ZM24.0668 37.5901L21.1126 38.1125L21.1106 38.1008L21.1086 38.0891L24.0668 37.5901ZM23.2643 35.7743L25.7287 34.0635L25.7309 34.0667L23.2643 35.7743ZM22.7941 32.0535L25.4939 33.3616L25.4822 33.3858L25.47 33.4097L22.7941 32.0535ZM24.3019 30.3754L22.8775 27.7351L22.8853 27.7309L22.8931 27.7268L24.3019 30.3754ZM32.7974 29.5648L33.3778 32.5081L33.3675 32.5101L32.7974 29.5648ZM41.4632 19.0994L38.4659 18.9718L38.4661 18.9666L41.4632 19.0994ZM30.7546 2.15701L29.4314 4.84944L29.4305 4.84898L30.7546 2.15701ZM24.3505 0.211467L23.9135 3.17946L23.9082 3.17868L24.3505 0.211467ZM24.1884 2.64339L23.7235 5.60715L23.7205 5.60668L24.1884 2.64339ZM34.4998 7.84771L36.6582 5.76414L36.6609 5.76694L34.4998 7.84771ZM38.099 22.8689L35.3946 21.5704L35.3951 21.5694L38.099 22.8689ZM32.5542 27.1329L31.9116 24.2025L31.9162 24.2015L32.5542 27.1329ZM25.3395 27.5382L25.7957 30.5033L25.7859 30.5048L25.776 30.5063L25.3395 27.5382ZM20.2487 31.867L23.0891 32.8325L23.0847 32.8453L23.0803 32.8581L20.2487 31.867ZM21.1971 37.047L23.6933 35.3829L23.7012 35.3947L23.709 35.4066L21.1971 37.047ZM21.5944 38.4332L24.3216 39.6832L24.3128 39.7023L24.3038 39.7213L21.5944 38.4332ZM19.811 38.9925L19.7922 41.9925L19.7885 41.9925L19.811 38.9925ZM10.1643 35.7743L11.8984 33.3262L11.8988 33.3265L10.1643 35.7743ZM5.51935 31.0158L3.03358 32.6954L3.03312 32.6947L5.51935 31.0158ZM2.60914 23.4769L-0.358139 23.9188L-0.359454 23.9098L2.60914 23.4769ZM2.56861 18.3698L5.54034 18.7807L5.54017 18.7819L2.56861 18.3698ZM7.56216 8.00983L9.71433 10.0999L9.71101 10.1033L7.56216 8.00983ZM19.0408 2.48937L18.7346 -0.494964L18.7383 -0.495341L19.0408 2.48937ZM19.2269 3.04162C14.9301 3.48467 11.0938 5.28938 8.19494 8.17446L3.96244 3.92171C7.87294 0.0298263 13.0023 -2.34837 18.6115 -2.92673L19.2269 3.04162ZM8.19543 8.17397C4.97469 11.3809 3.19488 15.4569 3.01284 20.148L-2.98265 19.9153C-2.74316 13.7438 -0.35627 8.22184 3.96195 3.9222L8.19543 8.17397ZM3.01299 20.1441C2.86689 24.0401 3.95592 27.7573 6.14703 30.8953L1.22757 34.3303C-1.72079 30.1077 -3.17717 25.1024 -2.9828 19.9192L3.01299 20.1441ZM6.14101 30.8867C6.8492 31.8935 7.42944 32.5714 8.46132 33.5742L4.27972 37.8771C3.00938 36.6425 2.1791 35.683 1.23358 34.3389L6.14101 30.8867ZM8.46009 33.5731C11.5325 36.5556 15.5267 38.2707 19.7628 38.4432L19.5187 44.4382C13.8 44.2053 8.40699 41.8835 4.28095 37.8783L8.46009 33.5731ZM19.7694 38.4434C20.3567 38.4687 20.5964 38.4464 20.7044 38.4279C20.7517 38.4198 20.7942 38.4136 20.9437 38.3326L23.8014 43.6084C22.3587 44.3898 21.1134 44.5067 19.512 44.4379L19.7694 38.4434ZM20.9681 38.3196C21.0018 38.3017 21.0509 38.2592 21.0854 38.1904C21.12 38.1215 21.1088 38.0906 21.1126 38.1125L27.021 37.0677C27.4919 39.731 26.1043 42.3885 23.777 43.6214L20.9681 38.3196ZM21.1086 38.0891C21.0934 37.9988 21.0825 37.9566 21.078 37.9407C21.0748 37.9291 21.0732 37.9253 21.0702 37.9184C21.0591 37.8934 21.0088 37.7868 20.7977 37.4819L25.7309 34.0667C26.4187 35.0602 26.8195 35.8728 27.025 37.0912L21.1086 38.0891ZM20.7999 37.4851C20.4643 37.0016 20.0434 36.3811 19.7839 35.6291C19.5029 34.8148 19.4861 34.0758 19.4861 33.5207H25.4861C25.4861 33.9546 25.5178 33.8519 25.4557 33.672C25.4297 33.5965 25.4107 33.574 25.4475 33.6371C25.4911 33.7119 25.5702 33.8352 25.7287 34.0635L20.7999 37.4851ZM19.4861 33.5207C19.4861 33.2202 19.4743 32.6511 19.5902 32.0926C19.7233 31.4508 19.9931 30.9439 20.1182 30.6972L25.47 33.4097C25.4342 33.4804 25.4116 33.5257 25.3953 33.5594C25.3793 33.5925 25.3772 33.5984 25.3817 33.5877C25.3871 33.575 25.4016 33.5395 25.4185 33.4876C25.436 33.4334 25.4521 33.3737 25.4651 33.3113C25.4905 33.1886 25.4911 33.1144 25.4894 33.1551C25.4885 33.1756 25.4875 33.2123 25.4869 33.2767C25.4862 33.3413 25.4861 33.4183 25.4861 33.5207H19.4861ZM20.0943 30.7453C20.6933 29.5092 21.6024 28.423 22.8775 27.7351L25.7263 33.0157C25.7377 33.0096 25.7238 33.0134 25.6873 33.0538C25.6483 33.0971 25.5771 33.1898 25.4939 33.3616L20.0943 30.7453ZM22.8931 27.7268C24.3722 26.9401 25.6399 26.8809 27.6336 26.8809V32.8809C26.6401 32.8809 26.1995 32.9069 25.9532 32.9435C25.8583 32.9576 25.8274 32.9689 25.8256 32.9695C25.823 32.9704 25.7953 32.9791 25.7107 33.024L22.8931 27.7268ZM27.6336 26.8809C29.8476 26.8809 31.5199 26.7564 32.2274 26.6194L33.3675 32.5101C32.0646 32.7623 29.9106 32.8809 27.6336 32.8809V26.8809ZM32.2171 26.6215C35.9508 25.8852 38.2859 23.199 38.4659 18.9718L44.4605 19.227C44.1703 26.0407 40.004 31.2015 33.3778 32.5081L32.2171 26.6215ZM38.4661 18.9666C38.7073 13.5237 35.12 7.64504 29.4314 4.84944L32.0778 -0.535429C39.6513 3.18653 44.8189 11.1374 44.4602 19.2322L38.4661 18.9666ZM29.4305 4.84898C27.7415 4.01821 26.0019 3.487 23.9135 3.17946L24.7876 -2.75652C27.4333 -2.36692 29.7794 -1.66596 32.0787 -0.534973L29.4305 4.84898ZM23.9082 3.17868C22.8296 3.01789 20.1393 2.94789 19.2259 3.04174L18.6126 -2.92685C20.0662 -3.07619 23.2612 -2.98407 24.7929 -2.75575L23.9082 3.17868ZM24.6533 -0.320368C29.3823 0.421436 33.4627 2.45387 36.6582 5.76415L32.3414 9.93127C30.1217 7.6319 27.263 6.16237 23.7235 5.60715L24.6533 -0.320368ZM36.6609 5.76694C41.4581 10.7494 43.6052 18.3376 40.803 24.1684L35.3951 21.5694C36.8082 18.629 35.9396 13.6685 32.3387 9.92848L36.6609 5.76694ZM40.8034 24.1674C39.3 27.2986 36.6077 29.3208 33.1923 30.0642L31.9162 24.2015C33.6402 23.8262 34.7417 22.9301 35.3946 21.5704L40.8034 24.1674ZM33.1969 30.0632C31.9272 30.3417 29.9388 30.449 27.6904 30.449V24.449C29.9167 24.449 31.333 24.3294 31.9116 24.2025L33.1969 30.0632ZM27.6904 30.449C27.2416 30.449 26.7709 30.4584 26.3827 30.4732C26.1883 30.4806 26.0256 30.4889 25.9035 30.4971C25.7553 30.5069 25.7388 30.512 25.7957 30.5033L24.8834 24.5731C25.4643 24.4837 26.7572 24.449 27.6904 24.449V30.449ZM25.776 30.5063C24.4548 30.7006 23.577 31.3973 23.0891 32.8325L17.4083 30.9015C18.5904 27.4242 21.2632 25.1054 24.903 24.5701L25.776 30.5063ZM23.0803 32.8581C23.0544 32.932 23.053 32.943 23.0573 32.9256C23.0597 32.9159 23.0625 32.9036 23.0648 32.8905C23.0671 32.8777 23.0679 32.8705 23.0678 32.8715C23.0671 32.8773 23.0627 32.9195 23.0592 33.0324C23.0557 33.147 23.0541 33.3009 23.0541 33.5288H17.0541C17.0541 32.5019 17.0751 31.8533 17.4171 30.876L23.0803 32.8581ZM23.0541 33.5288C23.0541 34.1379 23.0997 34.3034 23.1268 34.387C23.1646 34.5037 23.263 34.7375 23.6933 35.3829L18.701 38.7111C18.1909 37.946 17.7178 37.1584 17.4193 36.2375C17.11 35.2835 17.0541 34.3951 17.0541 33.5288H23.0541ZM23.709 35.4066C23.9232 35.7346 24.3393 36.3593 24.5418 37.0679C24.8584 38.1762 24.5963 39.0838 24.3216 39.6832L18.8672 37.1832C18.8524 37.2154 18.7519 37.4341 18.7076 37.7619C18.6577 38.1306 18.7001 38.4626 18.7726 38.7163C18.8322 38.9248 18.9002 39.0363 18.8766 38.9935C18.8563 38.9568 18.8047 38.8702 18.6853 38.6874L23.709 35.4066ZM24.3038 39.7213C24.1789 39.9839 23.9417 40.4337 23.5115 40.8604C23.0417 41.3263 22.5059 41.6062 21.9912 41.7662C21.2069 42.0099 20.3199 41.9958 19.7922 41.9925L19.8297 35.9926C20.1412 35.9945 20.3128 35.9906 20.412 35.9842C20.5245 35.977 20.4136 35.9734 20.2106 36.0365C19.9502 36.1174 19.6024 36.2869 19.2864 36.6003C19.0099 36.8745 18.8923 37.1297 18.885 37.1451L24.3038 39.7213ZM19.7885 41.9925C15.8838 41.9632 11.7339 40.5632 8.42988 38.2221L11.8988 33.3265C14.2692 35.0061 17.2368 35.9732 19.8334 35.9926L19.7885 41.9925ZM8.43027 38.2224C6.38121 36.7709 4.44954 34.791 3.03358 32.6954L8.00511 29.3363C9.02108 30.8399 10.4455 32.2971 11.8984 33.3262L8.43027 38.2224ZM3.03312 32.6947C1.29266 30.1173 0.103396 27.0176 -0.358126 23.9188L5.57642 23.0349C5.90932 25.2702 6.77909 27.5207 8.00557 29.3369L3.03312 32.6947ZM-0.359454 23.9098C-0.475459 23.1143 -0.524284 21.9463 -0.532617 20.9266C-0.540878 19.9157 -0.512079 18.7446 -0.402946 17.9577L5.54017 18.7819C5.49528 19.1056 5.45923 19.9044 5.46718 20.8776C5.47506 21.8419 5.52351 22.6721 5.57774 23.0439L-0.359454 23.9098ZM-0.403111 17.9589C0.240535 13.3041 2.19329 9.22167 5.41332 5.9164L9.71101 10.1033C7.41868 12.4563 6.01538 15.3453 5.54034 18.7807L-0.403111 17.9589ZM5.41 5.91981C8.90932 2.31645 13.701 0.0215468 18.7346 -0.494961L19.3471 5.4737C15.6906 5.8489 12.2137 7.52613 9.71432 10.0999L5.41 5.91981ZM18.7383 -0.495341C20.2031 -0.643792 23.1777 -0.55336 24.6563 -0.319899L23.7205 5.60668C22.7348 5.45103 20.2781 5.37934 19.3433 5.47408L18.7383 -0.495341Z" fill="white" mask="url(#path-1-inside-1_475_463)"/>
<mask id="path-3-inside-2_475_463" fill="white">
<path d="M15.0769 5.08326C13.2368 5.43994 11.9073 7.33684 12.2153 9.177C12.4748 10.7659 13.6745 11.9656 15.2634 12.225C17.1846 12.5412 19.0734 11.1469 19.3733 9.177C19.7543 6.72886 17.525 4.60498 15.0769 5.08326ZM16.3496 7.58004C16.6982 7.75838 17.0143 8.26097 17.0143 8.64198C17.0143 9.24185 16.382 9.85794 15.766 9.85794C15.4093 9.85794 14.9067 9.53368 14.7364 9.19321C14.5338 8.796 14.5419 8.43121 14.7689 8.0421C15.0931 7.46655 15.7578 7.27199 16.3496 7.58004Z"/>
</mask>
<path d="M15.0769 5.08326C13.2368 5.43994 11.9073 7.33684 12.2153 9.177C12.4748 10.7659 13.6745 11.9656 15.2634 12.225C17.1846 12.5412 19.0734 11.1469 19.3733 9.177C19.7543 6.72886 17.525 4.60498 15.0769 5.08326ZM16.3496 7.58004C16.6982 7.75838 17.0143 8.26097 17.0143 8.64198C17.0143 9.24185 16.382 9.85794 15.766 9.85794C15.4093 9.85794 14.9067 9.53368 14.7364 9.19321C14.5338 8.796 14.5419 8.43121 14.7689 8.0421C15.0931 7.46655 15.7578 7.27199 16.3496 7.58004Z" fill="white"/>
<path d="M15.0769 5.08326L15.6521 8.0276L15.6478 8.02844L15.0769 5.08326ZM12.2153 9.177L15.1742 8.68168L15.1761 8.6936L12.2153 9.177ZM15.2634 12.225L15.7468 9.26421L15.7505 9.26482L15.2634 12.225ZM19.3733 9.177L16.4075 8.72541L16.409 8.71566L19.3733 9.177ZM16.3496 7.58004L14.9832 10.2508L14.9738 10.246L14.9644 10.2411L16.3496 7.58004ZM14.7364 9.19321L17.4087 7.8298L17.4143 7.84066L17.4197 7.85157L14.7364 9.19321ZM14.7689 8.0421L17.3826 9.51463L17.3716 9.53426L17.3602 9.55371L14.7689 8.0421ZM15.6478 8.02844C15.5746 8.04262 15.4271 8.1101 15.2987 8.29354C15.1704 8.47693 15.165 8.62695 15.1742 8.68169L9.25652 9.67231C8.67644 6.2071 11.0891 2.8004 14.506 2.13808L15.6478 8.02844ZM15.1761 8.6936C15.2278 9.01014 15.4302 9.21253 15.7468 9.26421L14.78 15.1858C11.9188 14.7187 9.72168 12.5216 9.25455 9.66039L15.1761 8.6936ZM15.7505 9.26482C15.8422 9.27992 15.9854 9.26255 16.1409 9.14735C16.2961 9.03246 16.3845 8.87665 16.4075 8.72541L22.3391 9.62858C21.7955 13.1988 18.3972 15.7811 14.7762 15.1852L15.7505 9.26482ZM16.409 8.71566C16.4352 8.54698 16.3844 8.36461 16.2166 8.20469C16.0481 8.04416 15.8468 7.98956 15.6521 8.0276L14.5017 2.13892C18.9578 1.26837 23.0437 5.10124 22.3376 9.63833L16.409 8.71566ZM17.716 4.90929C18.5101 5.31554 19.0397 5.93943 19.3545 6.44146C19.6644 6.93586 20.0143 7.70863 20.0143 8.64198H14.0143C14.0143 8.94683 14.0744 9.17392 14.1184 9.30367C14.165 9.44124 14.22 9.54738 14.2709 9.62855C14.3221 9.71012 14.3906 9.80093 14.4861 9.89579C14.5766 9.98569 14.7374 10.125 14.9832 10.2508L17.716 4.90929ZM20.0143 8.64198C20.0143 9.96371 19.357 10.998 18.7145 11.6238C18.0663 12.2553 17.0397 12.8579 15.766 12.8579V6.85794C15.1083 6.85794 14.7059 7.15249 14.5278 7.32598C14.3555 7.49382 14.0143 7.92012 14.0143 8.64198H20.0143ZM15.766 12.8579C14.797 12.8579 14.0132 12.47 13.5543 12.1737C13.0777 11.8661 12.4537 11.336 12.0532 10.5349L17.4197 7.85157C17.2909 7.59395 17.1478 7.429 17.0627 7.34206C16.9712 7.24861 16.8848 7.18217 16.8083 7.13275C16.7325 7.08386 16.6283 7.02703 16.4882 6.97697C16.3603 6.93124 16.11 6.85794 15.766 6.85794V12.8579ZM12.0642 10.5566C11.7822 10.0041 11.5716 9.31921 11.5926 8.53443C11.6136 7.74885 11.8611 7.07298 12.1775 6.53049L17.3602 9.55371C17.4497 9.40033 17.5796 9.10141 17.5905 8.6948C17.6013 8.28899 17.488 7.98515 17.4087 7.8298L12.0642 10.5566ZM12.1551 6.56957C13.2857 4.56284 15.7295 3.87511 17.7348 4.91898L14.9644 10.2411C15.3214 10.4269 15.8033 10.5046 16.3009 10.3591C16.8002 10.2131 17.1752 9.88283 17.3826 9.51463L12.1551 6.56957Z" fill="white" mask="url(#path-3-inside-2_475_463)"/>
<mask id="path-5-inside-3_475_463" fill="white">
<path d="M25.1292 5.08326C23.289 5.43994 21.9595 7.33684 22.2676 9.177C22.527 10.7659 23.7267 11.9656 25.3156 12.225C27.2368 12.5412 29.1256 11.1469 29.4256 9.177C29.8066 6.72886 27.5773 4.60498 25.1292 5.08326ZM26.4262 7.60435C26.7585 7.7908 27.0666 8.28529 27.0666 8.64198C27.0666 9.03108 26.7504 9.51747 26.3856 9.6877C25.9479 9.90658 25.648 9.89847 25.2508 9.67149C24.8292 9.4283 24.6185 9.03108 24.659 8.5528C24.74 7.64489 25.6399 7.1585 26.4262 7.60435Z"/>
</mask>
<path d="M25.1292 5.08326C23.289 5.43994 21.9595 7.33684 22.2676 9.177C22.527 10.7659 23.7267 11.9656 25.3156 12.225C27.2368 12.5412 29.1256 11.1469 29.4256 9.177C29.8066 6.72886 27.5773 4.60498 25.1292 5.08326ZM26.4262 7.60435C26.7585 7.7908 27.0666 8.28529 27.0666 8.64198C27.0666 9.03108 26.7504 9.51747 26.3856 9.6877C25.9479 9.90658 25.648 9.89847 25.2508 9.67149C24.8292 9.4283 24.6185 9.03108 24.659 8.5528C24.74 7.64489 25.6399 7.1585 26.4262 7.60435Z" fill="white"/>
<path d="M25.1292 5.08326L25.7044 8.0276L25.7 8.02844L25.1292 5.08326ZM22.2676 9.177L25.2264 8.68168L25.2284 8.6936L22.2676 9.177ZM25.3156 12.225L25.799 9.26421L25.8027 9.26482L25.3156 12.225ZM29.4256 9.177L26.4597 8.72541L26.4612 8.71566L29.4256 9.177ZM26.4262 7.60435L24.9584 10.2208L24.9465 10.214L26.4262 7.60435ZM26.3856 9.6877L25.044 7.00442L25.0803 6.98629L25.117 6.96915L26.3856 9.6877ZM25.2508 9.67149L23.7623 12.2762L23.7516 12.27L25.2508 9.67149ZM24.659 8.5528L21.6697 8.29947L21.6709 8.28601L24.659 8.5528ZM25.7 8.02844C25.6269 8.04262 25.4793 8.1101 25.351 8.29354C25.2227 8.47693 25.2173 8.62695 25.2264 8.68169L19.3088 9.67231C18.7287 6.2071 21.1413 2.8004 24.5583 2.13808L25.7 8.02844ZM25.2284 8.6936C25.2801 9.01014 25.4825 9.21253 25.799 9.26421L24.8322 15.1858C21.971 14.7187 19.7739 12.5216 19.3068 9.66039L25.2284 8.6936ZM25.8027 9.26482C25.8945 9.27992 26.0376 9.26255 26.1932 9.14735C26.3483 9.03246 26.4367 8.87665 26.4597 8.72541L32.3914 9.62858C31.8478 13.1988 28.4494 15.7811 24.8285 15.1852L25.8027 9.26482ZM26.4612 8.71566C26.4875 8.54698 26.4367 8.36461 26.2688 8.20469C26.1004 8.04416 25.8991 7.98956 25.7044 8.0276L24.5539 2.13892C29.01 1.26837 33.096 5.10124 32.3899 9.63833L26.4612 8.71566ZM27.8939 4.98793C28.63 5.40082 29.1246 6.00016 29.4218 6.48026C29.7073 6.94143 30.0666 7.70604 30.0666 8.64198H24.0666C24.0666 8.96579 24.1324 9.20297 24.1753 9.3281C24.2217 9.4637 24.2747 9.56492 24.3202 9.63839C24.3663 9.71279 24.4268 9.79461 24.5105 9.88107C24.5889 9.96212 24.7333 10.0945 24.9584 10.2208L27.8939 4.98793ZM30.0666 8.64198C30.0666 9.58069 29.7162 10.3625 29.3773 10.8833C29.0341 11.4108 28.4727 12.0243 27.6543 12.4063L25.117 6.96915C24.6634 7.18084 24.4425 7.46611 24.3485 7.61055C24.2589 7.74829 24.0666 8.09237 24.0666 8.64198H30.0666ZM27.7273 12.371C27.2619 12.6037 26.586 12.8605 25.7522 12.8464C24.9033 12.832 24.2296 12.5432 23.7623 12.2762L26.7392 7.06676C26.6691 7.02673 26.344 6.85553 25.8538 6.84722C25.3787 6.83917 25.0717 6.99059 25.044 7.00442L27.7273 12.371ZM23.7516 12.27C22.3447 11.4584 21.5288 9.96233 21.6697 8.29948L27.6483 8.80613C27.672 8.52627 27.6263 8.16177 27.433 7.79664C27.2408 7.43376 26.9726 7.20139 26.7499 7.07293L23.7516 12.27ZM21.6709 8.28601C21.939 5.28305 25.1535 3.43402 27.9059 4.99467L24.9465 10.214C25.4356 10.4914 26.1096 10.5302 26.6995 10.2128C27.2823 9.89929 27.6008 9.33854 27.6471 8.8196L21.6709 8.28601Z" fill="white" mask="url(#path-5-inside-3_475_463)"/>
<mask id="path-7-inside-4_475_463" fill="white">
<path d="M7.78101 12.379C5.94086 12.7357 4.6114 14.6326 4.91945 16.4728C5.25181 18.4588 7.09197 19.8207 9.03751 19.5127C11.0074 19.2127 12.4017 17.3239 12.0855 15.4027C11.745 13.3356 9.80761 11.9818 7.78101 12.379ZM9.06993 14.8839C9.41851 15.0623 9.71844 15.5324 9.71844 15.9053C9.71844 16.2863 9.41851 16.7808 9.07804 16.9754C8.68082 17.2023 8.32414 17.2023 7.91882 16.9754C7.10007 16.5133 7.09197 15.3703 7.90261 14.9082C8.29982 14.6813 8.6565 14.6731 9.06993 14.8839Z"/>
</mask>
<path d="M7.78101 12.379C5.94086 12.7357 4.6114 14.6326 4.91945 16.4728C5.25181 18.4588 7.09197 19.8207 9.03751 19.5127C11.0074 19.2127 12.4017 17.3239 12.0855 15.4027C11.745 13.3356 9.80761 11.9818 7.78101 12.379ZM9.06993 14.8839C9.41851 15.0623 9.71844 15.5324 9.71844 15.9053C9.71844 16.2863 9.41851 16.7808 9.07804 16.9754C8.68082 17.2023 8.32414 17.2023 7.91882 16.9754C7.10007 16.5133 7.09197 15.3703 7.90261 14.9082C8.29982 14.6813 8.6565 14.6731 9.06993 14.8839Z" fill="white"/>
<path d="M7.78101 12.379L8.35803 15.323L8.35188 15.3242L7.78101 12.379ZM4.91945 16.4728L7.87828 15.9775L7.8783 15.9776L4.91945 16.4728ZM9.03751 19.5127L8.56835 16.5496L8.57713 16.5482L8.58592 16.5469L9.03751 19.5127ZM12.0855 15.4027L15.0456 14.9152L15.0457 14.9156L12.0855 15.4027ZM9.06993 14.8839L10.4325 12.2112L10.4364 12.2132L9.06993 14.8839ZM7.91882 16.9754L6.453 19.5929L6.44435 19.588L7.91882 16.9754ZM7.90261 14.9082L9.39103 17.513L9.38822 17.5146L7.90261 14.9082ZM8.35188 15.3242C8.27875 15.3384 8.13115 15.4059 8.00282 15.5893C7.87452 15.7727 7.86911 15.9227 7.87828 15.9775L1.96062 16.9681C1.38054 13.5029 3.79318 10.0962 7.21014 9.43385L8.35188 15.3242ZM7.8783 15.9776C7.9504 16.4084 8.31713 16.5894 8.56835 16.5496L9.50666 22.4758C5.8668 23.0521 2.55322 20.5092 1.96059 16.9679L7.8783 15.9776ZM8.58592 16.5469C8.73715 16.5238 8.89297 16.4355 9.00786 16.2803C9.12306 16.1247 9.14042 15.9816 9.12533 15.8898L15.0457 14.9156C15.6416 18.5366 13.0593 21.9349 9.48909 22.4785L8.58592 16.5469ZM9.1254 15.8903C9.05569 15.467 8.69793 15.2564 8.35803 15.323L7.20399 9.43505C10.9173 8.70724 14.4344 11.2042 15.0456 14.9152L9.1254 15.8903ZM10.4364 12.2132C11.1997 12.6037 11.7278 13.1951 12.0565 13.7119C12.3784 14.2182 12.7184 14.9837 12.7184 15.9053H6.71844C6.71844 16.4541 6.90854 16.798 6.99335 16.9314C7.08489 17.0753 7.28878 17.3425 7.7035 17.5547L10.4364 12.2132ZM12.7184 15.9053C12.7184 16.8063 12.3952 17.5598 12.0972 18.0557C11.7938 18.5605 11.2983 19.1619 10.5665 19.5801L7.58962 14.3706C7.19826 14.5943 7.0229 14.8512 6.95461 14.9648C6.90721 15.0437 6.85603 15.1466 6.81292 15.2793C6.77197 15.4055 6.71844 15.6198 6.71844 15.9053H12.7184ZM10.5665 19.5801C10.0238 19.8902 9.32591 20.1456 8.50147 20.1456C7.6807 20.1456 6.98785 19.8924 6.45301 19.5929L9.38463 14.3579C9.25511 14.2853 8.94326 14.1456 8.50147 14.1456C8.056 14.1456 7.73505 14.2875 7.58962 14.3706L10.5665 19.5801ZM6.44435 19.588C3.63502 18.0026 3.54394 13.9395 6.417 12.3019L9.38822 17.5146C10.64 16.8011 10.5651 15.0241 9.39329 14.3627L6.44435 19.588ZM6.41419 12.3035C6.94328 12.0012 7.61804 11.7496 8.41637 11.7326C9.21249 11.7157 9.89481 11.9371 10.4325 12.2112L7.70737 17.5566C7.83163 17.62 8.12889 17.7401 8.544 17.7312C8.96134 17.7224 9.25915 17.5883 9.39102 17.513L6.41419 12.3035Z" fill="white" mask="url(#path-7-inside-4_475_463)"/>
<mask id="path-9-inside-5_475_463" fill="white">
<path d="M32.6193 12.3387C31.6789 12.5413 31.1682 12.8007 30.5927 13.3844C30.0901 13.8789 29.7982 14.3896 29.628 15.0705C29.4659 15.7109 29.4659 16.1811 29.6199 16.7729C30.0009 18.2482 31.1358 19.2858 32.6112 19.5128C34.5567 19.8209 36.4131 18.4428 36.7211 16.4729C37.021 14.576 35.7078 12.7359 33.8028 12.3711C33.3651 12.29 32.9273 12.2819 32.6193 12.3387ZM33.7217 14.9003C34.0541 15.0867 34.3621 15.5812 34.3621 15.9379C34.3621 16.327 34.046 16.8134 33.6812 16.9836C33.2435 17.2025 32.9435 17.1944 32.5463 16.9674C32.1248 16.7242 31.914 16.327 31.9545 15.8487C32.0356 14.9408 32.9354 14.4544 33.7217 14.9003Z"/>
</mask>
<path d="M32.6193 12.3387C31.6789 12.5413 31.1682 12.8007 30.5927 13.3844C30.0901 13.8789 29.7982 14.3896 29.628 15.0705C29.4659 15.7109 29.4659 16.1811 29.6199 16.7729C30.0009 18.2482 31.1358 19.2858 32.6112 19.5128C34.5567 19.8209 36.4131 18.4428 36.7211 16.4729C37.021 14.576 35.7078 12.7359 33.8028 12.3711C33.3651 12.29 32.9273 12.2819 32.6193 12.3387ZM33.7217 14.9003C34.0541 15.0867 34.3621 15.5812 34.3621 15.9379C34.3621 16.327 34.046 16.8134 33.6812 16.9836C33.2435 17.2025 32.9435 17.1944 32.5463 16.9674C32.1248 16.7242 31.914 16.327 31.9545 15.8487C32.0356 14.9408 32.9354 14.4544 33.7217 14.9003Z" fill="white"/>
<path d="M32.6193 12.3387L31.9872 9.40599L32.0314 9.39647L32.0758 9.38829L32.6193 12.3387ZM30.5927 13.3844L32.7288 15.4908L32.7128 15.507L32.6967 15.5229L30.5927 13.3844ZM29.628 15.0705L32.5384 15.7981L32.5362 15.8068L29.628 15.0705ZM29.6199 16.7729L32.5232 16.0172L32.5246 16.0227L29.6199 16.7729ZM32.6112 19.5128L33.0673 16.5477L33.0803 16.5497L32.6112 19.5128ZM36.7211 16.4729L33.7571 16.0094L33.7579 16.0044L36.7211 16.4729ZM33.8028 12.3711L34.3491 9.42123L34.358 9.4229L34.367 9.42461L33.8028 12.3711ZM33.7217 14.9003L32.254 17.5167L32.242 17.51L33.7217 14.9003ZM33.6812 16.9836L32.3396 14.3003L32.3758 14.2822L32.4125 14.2651L33.6812 16.9836ZM32.5463 16.9674L31.0579 19.5722L31.0471 19.566L32.5463 16.9674ZM31.9545 15.8487L28.9652 15.5954L28.9664 15.5819L31.9545 15.8487ZM33.2513 15.2713C33.0876 15.3066 32.9848 15.3354 32.9206 15.3564C32.8896 15.3666 32.8695 15.3743 32.8577 15.3792C32.8462 15.3839 32.8414 15.3864 32.8414 15.3864C32.8412 15.3865 32.8417 15.3863 32.8426 15.3858C32.8434 15.3853 32.8443 15.3847 32.845 15.3843C32.8469 15.3831 32.8456 15.3838 32.8404 15.3878C32.8299 15.3958 32.795 15.4236 32.7288 15.4908L28.4566 11.2779C28.9125 10.8156 29.4348 10.3915 30.0969 10.0509C30.7356 9.72238 31.3779 9.53731 31.9872 9.40599L33.2513 15.2713ZM32.6967 15.5229C32.6117 15.6065 32.5917 15.6438 32.5898 15.647C32.5881 15.65 32.5667 15.685 32.5384 15.7981L26.7176 14.3429C27.022 13.1253 27.5934 12.1267 28.4887 11.2459L32.6967 15.5229ZM32.5362 15.8068C32.499 15.954 32.5053 15.9824 32.5054 15.9511C32.5054 15.9386 32.5043 15.9307 32.5047 15.9334C32.5053 15.9379 32.5091 15.9631 32.5232 16.0172L26.7166 17.5285C26.4281 16.4199 26.4409 15.4358 26.7198 14.3342L32.5362 15.8068ZM32.5246 16.0227C32.6128 16.3644 32.8057 16.5075 33.0673 16.5477L32.155 22.4779C29.4659 22.0642 27.389 20.132 26.7152 17.523L32.5246 16.0227ZM33.0803 16.5497C33.2066 16.5697 33.3531 16.5412 33.4949 16.4361C33.6378 16.3303 33.7307 16.1787 33.7571 16.0094L39.6851 16.9364C39.1278 20.5002 35.7711 23.0505 32.142 22.4759L33.0803 16.5497ZM33.7579 16.0044C33.7767 15.8857 33.7511 15.7365 33.6451 15.5877C33.5387 15.4382 33.3907 15.3467 33.2386 15.3175L34.367 9.42461C37.8268 10.0871 40.2427 13.4101 39.6843 16.9415L33.7579 16.0044ZM33.2565 15.3209C33.2257 15.3152 33.1941 15.3107 33.1634 15.3074C33.1325 15.3042 33.1066 15.3027 33.0874 15.3023C33.0677 15.3018 33.061 15.3025 33.068 15.302C33.0734 15.3017 33.1064 15.2994 33.1628 15.289L32.0758 9.38829C32.8356 9.24832 33.6557 9.29284 34.3491 9.42123L33.2565 15.3209ZM35.1895 12.2838C35.9255 12.6967 36.4202 13.2961 36.7174 13.7762C37.0029 14.2374 37.3621 15.002 37.3621 15.9379H31.3621C31.3621 16.2617 31.4279 16.4989 31.4708 16.624C31.5173 16.7596 31.5703 16.8608 31.6158 16.9343C31.6618 17.0087 31.7224 17.0905 31.806 17.177C31.8845 17.258 32.0288 17.3904 32.254 17.5167L35.1895 12.2838ZM37.3621 15.9379C37.3621 16.8766 37.0118 17.6584 36.6729 18.1792C36.3296 18.7067 35.7683 19.3203 34.9499 19.7022L32.4125 14.2651C31.9589 14.4768 31.7381 14.762 31.6441 14.9065C31.5544 15.0442 31.3621 15.3883 31.3621 15.9379H37.3621ZM35.0228 19.6669C34.5574 19.8996 33.8816 20.1564 33.0477 20.1423C32.1988 20.1279 31.5252 19.8392 31.0579 19.5721L34.0347 14.3627C33.9647 14.3227 33.6396 14.1515 33.1494 14.1431C32.6742 14.1351 32.3672 14.2865 32.3396 14.3003L35.0228 19.6669ZM31.0471 19.566C29.6403 18.7543 28.8243 17.2583 28.9653 15.5954L34.9438 16.1021C34.9675 15.8222 34.9218 15.4577 34.7285 15.0926C34.5364 14.7297 34.2681 14.4973 34.0455 14.3689L31.0471 19.566ZM28.9664 15.5819C29.2345 12.579 32.449 10.7299 35.2015 12.2906L32.242 17.51C32.7312 17.7873 33.4051 17.8261 33.995 17.5088C34.5778 17.1952 34.8963 16.6345 34.9427 16.1155L28.9664 15.5819Z" fill="white" mask="url(#path-9-inside-5_475_463)"/>
<mask id="path-11-inside-6_475_463" fill="white">
<path d="M8.99732 22.1068C7.15716 22.4635 5.82771 24.3604 6.13576 26.2006C6.46812 28.1866 8.30828 29.5485 10.2538 29.2405C12.2237 28.9405 13.618 27.0517 13.3018 25.1305C12.9614 23.0634 11.0239 21.7096 8.99732 22.1068ZM10.2862 24.6036C10.6105 24.7738 10.9348 25.2764 10.9348 25.6169C10.9348 26.0465 10.6348 26.5329 10.2538 26.7113C9.82417 26.922 9.61341 26.922 9.19187 26.7194C8.73791 26.5005 8.4704 26.0222 8.51904 25.5439C8.62442 24.6765 9.52424 24.1902 10.2862 24.6036Z"/>
</mask>
<path d="M8.99732 22.1068C7.15716 22.4635 5.82771 24.3604 6.13576 26.2006C6.46812 28.1866 8.30828 29.5485 10.2538 29.2405C12.2237 28.9405 13.618 27.0517 13.3018 25.1305C12.9614 23.0634 11.0239 21.7096 8.99732 22.1068ZM10.2862 24.6036C10.6105 24.7738 10.9348 25.2764 10.9348 25.6169C10.9348 26.0465 10.6348 26.5329 10.2538 26.7113C9.82417 26.922 9.61341 26.922 9.19187 26.7194C8.73791 26.5005 8.4704 26.0222 8.51904 25.5439C8.62442 24.6765 9.52424 24.1902 10.2862 24.6036Z" fill="white"/>
<path d="M8.99732 22.1068L9.57434 25.0508L9.56819 25.052L8.99732 22.1068ZM6.13576 26.2006L9.09459 25.7052L9.09461 25.7054L6.13576 26.2006ZM10.2538 29.2405L9.78466 26.2774L9.79344 26.276L9.80223 26.2746L10.2538 29.2405ZM13.3018 25.1305L16.2619 24.643L16.262 24.6434L13.3018 25.1305ZM10.2862 24.6036L8.89174 27.2598L8.87359 27.2503L8.85558 27.2405L10.2862 24.6036ZM10.2538 26.7113L8.93254 24.0179L8.95716 24.0058L8.98199 23.9942L10.2538 26.7113ZM9.19187 26.7194L7.89199 29.4231L7.88898 29.4217L9.19187 26.7194ZM8.51904 25.5439L5.53444 25.2404L5.5374 25.2112L5.54094 25.1821L8.51904 25.5439ZM9.56819 25.052C9.49506 25.0662 9.34746 25.1337 9.21913 25.3171C9.09083 25.5005 9.08542 25.6505 9.09459 25.7052L3.17693 26.6959C2.59685 23.2307 5.00949 19.824 8.42645 19.1616L9.56819 25.052ZM9.09461 25.7054C9.16671 26.1362 9.53344 26.3171 9.78466 26.2774L10.723 32.2035C7.08311 32.7799 3.76953 30.237 3.1769 26.6957L9.09461 25.7054ZM9.80223 26.2746C9.95346 26.2516 10.1093 26.1632 10.2242 26.0081C10.3394 25.8525 10.3567 25.7094 10.3416 25.6176L16.262 24.6434C16.8579 28.2643 14.2756 31.6627 10.7054 32.2063L9.80223 26.2746ZM10.3417 25.6181C10.272 25.1948 9.91424 24.9842 9.57434 25.0508L8.4203 19.1628C12.1336 18.435 15.6507 20.9319 16.2619 24.643L10.3417 25.6181ZM11.6807 21.9474C12.4569 22.3549 12.9664 22.9735 13.2569 23.4262C13.5316 23.8541 13.9348 24.6377 13.9348 25.6169H7.93475C7.93475 25.9811 8.01525 26.2419 8.05921 26.3629C8.10887 26.4997 8.16342 26.5983 8.20724 26.6666C8.25178 26.736 8.31194 26.8156 8.39776 26.9019C8.47559 26.9801 8.63524 27.1251 8.89174 27.2598L11.6807 21.9474ZM13.9348 25.6169C13.9348 26.4931 13.6445 27.2628 13.2863 27.8401C12.9305 28.4135 12.3564 29.0394 11.5256 29.4283L8.98199 23.9942C8.53219 24.2047 8.29861 24.4983 8.18804 24.6766C8.07506 24.8586 7.93475 25.1703 7.93475 25.6169H13.9348ZM11.5751 29.4046C11.2277 29.575 10.578 29.8649 9.73891 29.8703C8.89416 29.8757 8.24001 29.5904 7.89199 29.4231L10.4918 24.0156C10.5653 24.0509 10.2273 23.8671 9.7007 23.8704C9.17979 23.8737 8.85026 24.0583 8.93254 24.0179L11.5751 29.4046ZM7.88898 29.4217C6.32851 28.6693 5.35466 27.0082 5.53444 25.2404L11.5036 25.8475C11.5861 25.0362 11.1473 24.3317 10.4948 24.0171L7.88898 29.4217ZM5.54094 25.1821C5.88886 22.3185 9.00201 20.4937 11.7169 21.9667L8.85558 27.2405C10.0465 27.8866 11.36 27.0346 11.4971 25.9058L5.54094 25.1821Z" fill="white" mask="url(#path-11-inside-6_475_463)"/>
</svg>
