<svg width="50" height="50" viewBox="0 0 50 50" fill="none" xmlns="http://www.w3.org/2000/svg">
<path fill-rule="evenodd" clip-rule="evenodd" d="M43.132 15.2104C44.4558 16.0232 44.7503 17.7295 44.0605 18.9652L44.02 19.0376L43.9743 19.1066C42.8392 20.8192 41.8207 22.601 40.9186 24.4525C40.9804 24.4663 41.0457 24.4805 41.1146 24.4955C41.1347 24.4999 41.1552 24.5044 41.1761 24.5089C41.6453 24.6106 42.3173 24.7564 42.9603 25.0299C43.763 25.361 44.2977 25.8589 44.7112 26.3121L44.7318 26.3346L44.7518 26.3578C46.0866 27.9071 46.5736 30.3863 45.4854 32.5168C44.7353 34.5091 42.9475 35.8883 41.0182 36.177C39.5993 36.3963 38.4713 35.9696 37.657 35.569C37.4209 35.4528 37.1342 35.2975 36.907 35.1743C36.8458 35.1412 36.789 35.1104 36.7385 35.0833C36.2128 37.0507 35.8241 39.0442 35.5721 41.0646C35.5466 41.9625 35.0738 42.6864 34.4857 43.1042C33.904 43.5173 33.2312 43.6396 32.6403 43.5742C29.7172 43.3103 26.9564 42.3243 24.4568 41.157L24.4482 41.1529C23.0282 40.4819 21.9642 38.7795 22.4733 36.8687L22.4792 36.8465C22.7124 36.0061 23.1777 35.1256 23.485 34.5438C23.559 34.4037 23.6238 34.281 23.674 34.1803C24.0285 33.4698 24.0711 33.1843 24.0562 33.0274L24.0533 32.9968L24.0513 32.9662C24.016 32.4416 23.6038 31.8922 23.1689 31.7189C22.7812 31.5644 22.0933 31.6723 21.6802 32.0795C21.526 32.2387 21.3719 32.5251 21.1817 33.2608C21.1528 33.3726 21.1205 33.5099 21.0839 33.6657C20.935 34.2983 20.7144 35.236 20.3568 36.0156C19.4917 37.9202 17.4973 38.2651 16.1795 37.9238L16.1509 37.9164L16.1226 37.9082C13.4733 37.1396 10.7937 36.0652 8.38351 34.3763C7.10903 33.5498 6.83309 31.8755 7.5128 30.658L7.55325 30.5856L7.59898 30.5166C8.74227 28.7916 9.76726 26.9964 10.6743 25.1305C10.6384 25.1221 10.6012 25.1134 10.5625 25.1044C10.3438 25.0536 10.0772 24.9916 9.72899 24.8992C8.89701 24.6784 7.71928 24.278 6.77746 23.1479L6.75534 23.1214L6.73406 23.0941C5.48347 21.4913 5.07374 19.1912 5.85931 17.1652C6.61532 15.2154 8.43926 13.6564 10.6713 13.4679C11.3143 13.3684 12.0449 13.3949 12.788 13.6698C13.4613 13.8679 14.0627 14.2024 14.4555 14.4208C14.4773 14.4329 14.4984 14.4447 14.5189 14.4561C14.622 14.5132 14.7147 14.5642 14.799 14.6098C15.3263 12.6387 15.7161 10.6414 15.9686 8.61706C15.994 7.71912 16.4668 6.99519 17.055 6.57747C17.6552 6.15119 18.3524 6.03451 18.9565 6.11421L18.9852 6.11798C21.7633 6.52479 24.495 7.31564 27.0839 8.52467L27.0925 8.52867C28.5124 9.19976 29.5765 10.9021 29.0673 12.813L29.0614 12.8352C28.831 13.6653 28.3923 14.5225 28.0959 15.1017C28.0254 15.2395 27.9629 15.3616 27.9132 15.4638C27.5731 16.1634 27.5113 16.4716 27.5223 16.6619C27.5658 17.2807 27.9574 17.7458 28.3235 17.874C28.8175 18.0471 29.3987 17.9377 29.8587 17.4662L29.8666 17.4582C30.041 17.2813 30.205 16.9774 30.4021 16.2614C30.4336 16.1472 30.4696 16.0029 30.5108 15.8376C30.6629 15.2279 30.8862 14.333 31.2147 13.6115C32.0789 11.7035 34.0751 11.3579 35.3938 11.6994L35.4281 11.7082L35.4622 11.7183C38.2379 12.5413 40.7488 13.7062 43.132 15.2104ZM34.7968 16.0292C34.7526 16.185 34.7096 16.3568 34.659 16.5594C34.5981 16.8026 34.5263 17.09 34.428 17.447C34.1877 18.3195 33.785 19.5452 32.8013 20.5449C31.2432 22.1387 29.0124 22.6859 26.9802 21.9738C24.8195 21.2167 23.4901 19.097 23.3462 16.9574L23.3457 16.949C23.2548 15.5188 23.7887 14.3108 24.1733 13.5196C24.3115 13.2353 24.4311 12.9996 24.5347 12.7955C24.6463 12.5754 24.7394 12.392 24.8171 12.224C23.2396 11.5349 21.5946 11.0192 19.9094 10.6707C19.5947 12.6858 19.1548 14.6762 18.5899 16.6414C18.0713 18.534 16.1964 19.5718 14.4453 19.1183L14.4228 19.1125L14.4005 19.1062C13.6717 18.8996 13.0236 18.5393 12.6009 18.3044C12.5802 18.2928 12.56 18.2816 12.5403 18.2707C12.0317 17.9886 11.8057 17.8763 11.6257 17.8285L11.5 17.7952L11.3792 17.746C11.3783 17.7458 11.3735 17.7446 11.3669 17.7441C11.3536 17.7431 11.3239 17.7427 11.2754 17.7515L11.1588 17.7727L11.0406 17.7801C10.4908 17.8147 9.95713 18.2278 9.7445 18.7762C9.55302 19.2701 9.64385 19.9057 9.96833 20.345C10.0635 20.4495 10.2313 20.5635 10.7697 20.7064C10.9135 20.7446 11.0652 20.7806 11.247 20.8232L11.2827 20.8316C11.4479 20.8703 11.6391 20.9151 11.8317 20.9648C12.2446 21.0715 12.7457 21.2209 13.259 21.4678C15.0327 22.3119 15.6321 24.4556 14.8376 26.1819L14.8357 26.1861C13.9771 28.0415 13.0138 29.8348 11.9461 31.5655C13.4231 32.4185 15.0495 33.0702 16.7765 33.5984C16.8282 33.4153 16.8769 33.2109 16.9357 32.9639C16.9907 32.7331 17.0545 32.4652 17.1379 32.1427C17.3645 31.2662 17.7495 30.0028 18.7546 28.9836L18.7656 28.9724C20.3063 27.4329 22.7088 26.8966 24.6739 27.6796C26.5851 28.4411 28.0634 30.4118 28.225 32.6359C28.3561 34.1177 27.7932 35.3651 27.3939 36.1652C27.2387 36.4764 27.1069 36.7277 26.995 36.9413C26.8896 37.1423 26.8018 37.31 26.7283 37.4625C28.3615 38.1914 29.9935 38.7627 31.6222 39.0685C31.9376 37.0337 32.3805 35.024 32.9507 33.0402C33.4693 31.1476 35.3443 30.1098 37.0953 30.5633L37.1505 30.5776L37.2049 30.595C37.7251 30.7612 38.1789 30.984 38.5396 31.1735C38.7195 31.2681 38.8561 31.3426 38.9766 31.4083C39.1428 31.499 39.2785 31.573 39.4554 31.6601C39.938 31.8976 40.1684 31.9319 40.4012 31.8956L40.4171 31.8931C40.9341 31.8165 41.4325 31.4012 41.6002 30.9029L41.6653 30.7094L41.7643 30.5321C41.8753 30.3332 41.9172 30.1026 41.8872 29.8585C41.857 29.6135 41.7587 29.3994 41.6418 29.2557C41.5451 29.1516 41.4919 29.1051 41.4623 29.0821C41.4397 29.0645 41.4277 29.058 41.4082 29.0501L41.3903 29.0428L41.3726 29.0352C41.1206 28.927 40.8051 28.8517 40.2531 28.7316C40.233 28.7272 40.2125 28.7228 40.1916 28.7182C39.7183 28.6156 39.0386 28.4681 38.3904 28.1899L38.3563 28.1753L38.3228 28.1595C36.5425 27.3181 35.9399 25.1703 36.7356 23.4413L36.7376 23.4371C37.5887 21.5979 38.5426 19.8197 39.5992 18.103C38.078 17.2574 36.4947 16.5679 34.7968 16.0292Z" fill="white"/>
</svg>
