<?xml version="1.0" encoding="utf-8"?>
<!-- Generator: Adobe Illustrator 24.3.0, SVG Export Plug-In . SVG Version: 6.00 Build 0)  -->
<svg version="1.1" id="Слой_2" xmlns="http://www.w3.org/2000/svg" xmlns:xlink="http://www.w3.org/1999/xlink" x="0px" y="0px"
	 viewBox="0 0 24 24" style="enable-background:new 0 0 24 24;" xml:space="preserve">
<style type="text/css">
	
		.st0{fill-rule:evenodd;clip-rule:evenodd;fill:none;stroke:#FFFFFF;stroke-width:1.75;stroke-linecap:round;stroke-linejoin:round;stroke-miterlimit:10;}
</style>
<g>
	<path class="st0" d="M9.7,1.2C11.1,1,13,1,14.3,1.2c0,0.9,0.1,1.7,0.1,2.6c1,0.1,2.9,1.3,3.5,2.1c0.7-0.4,1.5-0.8,2.2-1.1
		c0.9,0.8,2.1,2.9,2.3,4c-0.7,0.5-1.4,1-2.1,1.5c0.4,0.8,0.4,3.1,0,3.9c0.7,0.4,1.4,0.8,2.1,1.1c-0.3,1.2-1.3,3.3-2.2,4.3
		c-0.8-0.5-1.6-0.9-2.4-1.4c-0.5,0.8-2.5,2-3.4,2c0,0.9,0,1.8,0,2.7C13,23,11,23,9.5,22.8c0-0.9,0-1.7,0-2.6
		c-0.9-0.1-2.9-1.1-3.4-1.9c-0.9,0.3-1.7,0.7-2.6,1c-0.8-1.1-1.8-2.9-2.4-4.2c0.8-0.4,1.6-0.8,2.5-1.2c-0.4-1-0.4-3.1-0.1-4
		C2.8,9.5,2,9.1,1.2,8.7c0.6-1.3,1.6-3,2.5-4.2C4.5,5,5.3,5.5,6.1,5.9c0.5-0.8,2.5-2.1,3.5-2.2C9.6,2.9,9.7,2,9.7,1.2z"/>
	<circle class="st0" cx="12" cy="12.1" r="3.7"/>
</g>
</svg>
