<svg width="24" height="24" viewBox="0 0 24 24" fill="none" xmlns="http://www.w3.org/2000/svg">
<path fill-rule="evenodd" clip-rule="evenodd" d="M9.54962 0C9.22468 0 8.91305 0.126428 8.68328 0.351472C8.45351 0.576515 8.32443 0.88174 8.32443 1.2V3.0984C7.47949 3.43361 6.68649 3.88275 5.96839 4.4328L4.28866 3.4824C4.00726 3.32328 3.67285 3.28016 3.35899 3.36252C3.04512 3.44489 2.77752 3.64599 2.61505 3.9216L0.16467 8.0784C0.00220664 8.35402 -0.04182 8.68155 0.0422743 8.98896C0.126369 9.29637 0.331696 9.55847 0.613089 9.7176L2.2916 10.6668C2.16595 11.5513 2.16595 12.4487 2.2916 13.3332L0.613089 14.2812C0.473595 14.36 0.351329 14.465 0.253282 14.5901C0.155236 14.7152 0.0833328 14.858 0.0416854 15.0104C3.80973e-05 15.1627 -0.0105367 15.3216 0.010566 15.478C0.0316687 15.6343 0.0840349 15.7851 0.16467 15.9216L2.61505 20.0784C2.77752 20.354 3.04512 20.5551 3.35899 20.6375C3.67285 20.7198 4.00726 20.6767 4.28866 20.5176L5.96839 19.5672C6.68023 20.1132 7.47292 20.5632 8.32443 20.9016V22.8C8.32443 23.1183 8.45351 23.4235 8.68328 23.6485C8.91305 23.8736 9.22468 24 9.54962 24H14.4504C14.7753 24 15.087 23.8736 15.3167 23.6485C15.5465 23.4235 15.6756 23.1183 15.6756 22.8V20.9016C16.5205 20.5664 17.3135 20.1172 18.0316 19.5672L19.7113 20.5176C19.9927 20.6767 20.3272 20.7198 20.641 20.6375C20.9549 20.5551 21.2225 20.354 21.385 20.0784L23.8353 15.9216C23.9978 15.646 24.0418 15.3184 23.9577 15.011C23.8736 14.7036 23.6683 14.4415 23.3869 14.2824L21.7084 13.3332C21.834 12.4487 21.834 11.5513 21.7084 10.6668L23.3869 9.7188C23.5264 9.64 23.6487 9.53505 23.7467 9.40993C23.8448 9.28482 23.9167 9.142 23.9583 8.98965C24 8.83729 24.0105 8.67839 23.9894 8.52203C23.9683 8.36567 23.916 8.21492 23.8353 8.0784L21.385 3.9216C21.2225 3.64599 20.9549 3.44489 20.641 3.36252C20.3272 3.28016 19.9927 3.32328 19.7113 3.4824L18.0316 4.4328C17.3135 3.88276 16.5205 3.43362 15.6756 3.0984V1.2C15.6756 0.88174 15.5465 0.576515 15.3167 0.351472C15.087 0.126428 14.7753 0 14.4504 0H9.54962ZM10.7748 3.948V2.4H13.2252V3.948C13.2253 4.20647 13.3107 4.45798 13.4685 4.66512C13.6263 4.87225 13.8483 5.02394 14.1012 5.0976C15.2043 5.42026 16.2145 5.99246 17.0502 6.768C17.2419 6.94592 17.4872 7.05839 17.7495 7.08867C18.0118 7.11894 18.2771 7.06539 18.5058 6.936L19.8755 6.1608L21.1007 8.2392L19.7322 9.0132C19.5038 9.14232 19.3241 9.34017 19.2197 9.57733C19.1153 9.81449 19.0918 10.0783 19.1527 10.3296C19.4192 11.4279 19.4192 12.5721 19.1527 13.6704C19.0918 13.9217 19.1153 14.1855 19.2197 14.4227C19.3241 14.6598 19.5038 14.8577 19.7322 14.9868L21.1007 15.7608L19.8755 17.8392L18.5045 17.064C18.276 16.9349 18.011 16.8815 17.7489 16.9118C17.4869 16.942 17.2419 17.0544 17.0502 17.232C16.2146 18.0076 15.2044 18.5798 14.1012 18.9024C13.8483 18.9761 13.6263 19.1278 13.4685 19.3349C13.3107 19.542 13.2253 19.7935 13.2252 20.052V21.6H10.7748V20.052C10.7747 19.7935 10.6893 19.542 10.5315 19.3349C10.3737 19.1278 10.1517 18.9761 9.8988 18.9024C8.79566 18.5798 7.78546 18.0076 6.94977 17.232C6.75805 17.0541 6.51277 16.9416 6.25048 16.9113C5.98819 16.8811 5.72293 16.9346 5.49424 17.064L4.12448 17.8392L2.89929 15.7608L4.26783 14.9868C4.4962 14.8577 4.67594 14.6598 4.78034 14.4227C4.88475 14.1855 4.90824 13.9217 4.84734 13.6704C4.58083 12.5721 4.58083 11.4279 4.84734 10.3296C4.90824 10.0783 4.88475 9.81449 4.78034 9.57733C4.67594 9.34017 4.4962 9.14232 4.26783 9.0132L2.89929 8.2392L4.12448 6.1608L5.49424 6.936C5.72293 7.06539 5.98819 7.11894 6.25048 7.08867C6.51277 7.05839 6.75805 6.94592 6.94977 6.768C7.78548 5.99246 8.79568 5.42026 9.8988 5.0976C10.1517 5.02394 10.3737 4.87225 10.5315 4.66512C10.6893 4.45798 10.7747 4.20647 10.7748 3.948ZM9.54962 12C9.54962 11.3635 9.80779 10.753 10.2673 10.3029C10.7269 9.85286 11.3501 9.6 12 9.6C12.6499 9.6 13.2731 9.85286 13.7327 10.3029C14.1922 10.753 14.4504 11.3635 14.4504 12C14.4504 12.6365 14.1922 13.247 13.7327 13.6971C13.2731 14.1471 12.6499 14.4 12 14.4C11.3501 14.4 10.7269 14.1471 10.2673 13.6971C9.80779 13.247 9.54962 12.6365 9.54962 12ZM12 7.2C10.7002 7.2 9.45371 7.70571 8.53464 8.60589C7.61557 9.50606 7.09924 10.727 7.09924 12C7.09924 13.273 7.61557 14.4939 8.53464 15.3941C9.45371 16.2943 10.7002 16.8 12 16.8C13.2998 16.8 14.5463 16.2943 15.4654 15.3941C16.3844 14.4939 16.9008 13.273 16.9008 12C16.9008 10.727 16.3844 9.50606 15.4654 8.60589C14.5463 7.70571 13.2998 7.2 12 7.2Z" fill="white"/>
</svg>
