<svg width="50" height="50" viewBox="0 0 50 50" fill="none" xmlns="http://www.w3.org/2000/svg">
<path fill-rule="evenodd" clip-rule="evenodd" d="M19.895 0C19.2181 0 18.5689 0.263392 18.0902 0.732233C17.6115 1.20107 17.3426 1.83696 17.3426 2.5V6.455C15.5823 7.15336 13.9302 8.08906 12.4341 9.235L8.9347 7.255C8.34845 6.92349 7.65176 6.83366 6.99789 7.00525C6.34401 7.17685 5.78651 7.59582 5.44802 8.17L0.343062 16.83C0.00459716 17.4042 -0.0871251 18.0866 0.0880715 18.727C0.263268 19.3674 0.691034 19.9135 1.27727 20.245L4.77416 22.2225C4.51239 24.0653 4.51239 25.9347 4.77416 27.7775L1.27727 29.7525C0.986656 29.9167 0.731935 30.1353 0.527671 30.396C0.323408 30.6566 0.17361 30.9542 0.0868447 31.2716C7.93693e-05 31.589 -0.0219515 31.92 0.0220125 32.2458C0.0659765 32.5715 0.175073 32.8856 0.343062 33.17L5.44802 41.83C5.78651 42.4042 6.34401 42.8232 6.99789 42.9947C7.65176 43.1663 8.34845 43.0765 8.9347 42.745L12.4341 40.765C13.9171 41.9025 15.5686 42.84 17.3426 43.545V47.5C17.3426 48.163 17.6115 48.7989 18.0902 49.2678C18.5689 49.7366 19.2181 50 19.895 50H30.105C30.7819 50 31.4311 49.7366 31.9098 49.2678C32.3885 48.7989 32.6574 48.163 32.6574 47.5V43.545C34.4177 42.8466 36.0698 41.9109 37.5658 40.765L41.0653 42.745C41.6515 43.0765 42.3482 43.1663 43.0021 42.9947C43.656 42.8232 44.2135 42.4042 44.552 41.83L49.6569 33.17C49.9954 32.5958 50.0871 31.9134 49.9119 31.273C49.7367 30.6326 49.309 30.0865 48.7227 29.755L45.2258 27.7775C45.4876 25.9347 45.4876 24.0653 45.2258 22.2225L48.7227 20.2475C49.0133 20.0833 49.2681 19.8647 49.4723 19.604C49.6766 19.3434 49.8264 19.0458 49.9131 18.7284C49.9999 18.411 50.0219 18.08 49.978 17.7542C49.934 17.4285 49.8249 17.1144 49.6569 16.83L44.552 8.17C44.2135 7.59582 43.656 7.17685 43.0021 7.00525C42.3482 6.83366 41.6515 6.92349 41.0653 7.255L37.5658 9.235C36.0698 8.08909 34.4177 7.15339 32.6574 6.455V2.5C32.6574 1.83696 32.3885 1.20107 31.9098 0.732233C31.4311 0.263392 30.7819 0 30.105 0H19.895ZM22.4475 8.225V5H27.5525V8.225C27.5528 8.76347 27.7306 9.28746 28.0594 9.71899C28.3882 10.1505 28.8505 10.4665 29.3775 10.62C31.6757 11.2922 33.7802 12.4843 35.5213 14.1C35.9207 14.4707 36.4317 14.705 36.9782 14.7681C37.5246 14.8311 38.0772 14.7196 38.5537 14.45L41.4073 12.835L43.9598 17.165L41.1087 18.7775C40.6329 19.0465 40.2585 19.4587 40.0409 19.9528C39.8234 20.4469 39.7745 20.9965 39.9014 21.52C40.4566 23.8081 40.4566 26.1919 39.9014 28.48C39.7745 29.0035 39.8234 29.5531 40.0409 30.0472C40.2585 30.5413 40.6329 30.9535 41.1087 31.2225L43.9598 32.835L41.4073 37.165L38.5511 35.55C38.0749 35.281 37.5228 35.1698 36.9769 35.2329C36.431 35.2959 35.9205 35.5299 35.5213 35.9C33.7804 37.5159 31.6757 38.708 29.3775 39.38C28.8505 39.5335 28.3882 39.8495 28.0594 40.281C27.7306 40.7125 27.5528 41.2365 27.5525 41.775V45H22.4475V41.775C22.4472 41.2365 22.2694 40.7125 21.9406 40.281C21.6118 39.8495 21.1495 39.5335 20.6225 39.38C18.3243 38.7079 16.2197 37.5158 14.4787 35.9C14.0793 35.5293 13.5683 35.295 13.0218 35.2319C12.4754 35.1689 11.9228 35.2804 11.4463 35.55L8.59267 37.165L6.04019 32.835L8.89131 31.2225C9.36708 30.9535 9.74153 30.5413 9.95904 30.0472C10.1766 29.5531 10.2255 29.0035 10.0986 28.48C9.5434 26.1919 9.5434 23.8081 10.0986 21.52C10.2255 20.9965 10.1766 20.4469 9.95904 19.9528C9.74153 19.4587 9.36708 19.0465 8.89131 18.7775L6.04019 17.165L8.59267 12.835L11.4463 14.45C11.9228 14.7196 12.4754 14.8311 13.0218 14.7681C13.5683 14.705 14.0793 14.4707 14.4787 14.1C16.2198 12.4843 18.3243 11.2922 20.6225 10.62C21.1495 10.4665 21.6118 10.1505 21.9406 9.71899C22.2694 9.28746 22.4472 8.76347 22.4475 8.225ZM19.895 25C19.895 23.6739 20.4329 22.4021 21.3902 21.4645C22.3476 20.5268 23.6461 20 25 20C26.3539 20 27.6524 20.5268 28.6097 21.4645C29.5671 22.4021 30.105 23.6739 30.105 25C30.105 26.3261 29.5671 27.5979 28.6097 28.5355C27.6524 29.4732 26.3539 30 25 30C23.6461 30 22.3476 29.4732 21.3902 28.5355C20.4329 27.5979 19.895 26.3261 19.895 25ZM25 15C22.2922 15 19.6952 16.0536 17.7805 17.9289C15.8658 19.8043 14.7901 22.3478 14.7901 25C14.7901 27.6522 15.8658 30.1957 17.7805 32.0711C19.6952 33.9464 22.2922 35 25 35C27.7078 35 30.3048 33.9464 32.2195 32.0711C34.1342 30.1957 35.2099 27.6522 35.2099 25C35.2099 22.3478 34.1342 19.8043 32.2195 17.9289C30.3048 16.0536 27.7078 15 25 15V15Z" fill="#0E87DF"/>
</svg>
