<?xml version="1.0" encoding="utf-8"?>
<!-- Generator: Adobe Illustrator 24.3.0, SVG Export Plug-In . SVG Version: 6.00 Build 0)  -->
<svg version="1.1" id="Слой_1" xmlns="http://www.w3.org/2000/svg" xmlns:xlink="http://www.w3.org/1999/xlink" x="0px" y="0px"
	 viewBox="0 0 84 84" style="enable-background:new 0 0 84 84;" xml:space="preserve">
<style type="text/css">
	.st0{fill:#0E87DF;}
</style>
<g transform="translate(0.000000,84.000000) scale(0.100000,-0.100000)">
	<path class="st0" d="M27,638.9c-13-12-7-51,9-57c9-3,28-6,44-6c27,0,30-5,53-77c38-121,75-243,88-295c6-26,23-59,37-73
		c25-25,25-25,219-25c191,0,194,0,218,24c22,22,45,81,45,117c0,8,11,49,25,89c29,85,32,135,9,144c-9,3-139,6-290,6
		c-247,0-274,2-274,16c0,34-24,95-46,119c-19,21-33,25-77,25C58,645.9,30,642.9,27,638.9z"/>
	<path class="st0" d="M313,570.9l-48-44h210h210l-48,44c-38,35-57,45-83,45c-19,0-34-4-34-8c0-5-10-13-22-19c-18-8-30-6-53,8
		C397,626.9,368,620.9,313,570.9z"/>
</g>
</svg>
