<svg width="17" height="10" viewBox="0 0 17 10" fill="none" xmlns="http://www.w3.org/2000/svg">
<path fill-rule="evenodd" clip-rule="evenodd" d="M0.471993 0.63856C0.667344 0.443278 0.932262 0.333574 1.20849 0.333574C1.48471 0.333574 1.74963 0.443278 1.94498 0.63856L8.50052 7.19377L15.056 0.63856C15.2525 0.448812 15.5157 0.343818 15.7888 0.346191C16.0619 0.348565 16.3232 0.458116 16.5163 0.651249C16.7095 0.844382 16.819 1.10565 16.8214 1.37877C16.8238 1.65189 16.7188 1.91502 16.529 2.11148L9.23701 9.40314C9.04166 9.59843 8.77674 9.70813 8.50052 9.70813C8.22429 9.70813 7.95937 9.59843 7.76402 9.40314L0.471993 2.11148C0.276701 1.91614 0.166992 1.65123 0.166992 1.37502C0.166992 1.09881 0.276701 0.833901 0.471993 0.63856Z" fill="white"/>
</svg>
