<svg width="50" height="50" viewBox="0 0 50 50" fill="none" xmlns="http://www.w3.org/2000/svg">
<path fill-rule="evenodd" clip-rule="evenodd" d="M16.6667 18.7509C16.6667 16.5406 17.5446 14.4209 19.1074 12.858C20.6702 11.2951 22.7899 10.4171 25 10.4171C27.2101 10.4171 29.3298 11.2951 30.8926 12.858C32.4554 14.4209 33.3333 16.5406 33.3333 18.7509C33.3333 20.9611 32.4554 23.0808 30.8926 24.6437C29.3298 26.2066 27.2101 27.0846 25 27.0846C22.7899 27.0846 20.6702 26.2066 19.1074 24.6437C17.5446 23.0808 16.6667 20.9611 16.6667 18.7509V18.7509ZM32.9667 28.3826C34.949 26.7426 36.377 24.5309 37.0559 22.0493C37.7348 19.5676 37.6314 16.937 36.76 14.5162C35.8885 12.0955 34.2914 10.0026 32.1865 8.52326C30.0817 7.04386 27.5717 6.25 24.999 6.25C22.4263 6.25 19.9162 7.04386 17.8114 8.52326C15.7065 10.0026 14.1094 12.0955 13.2379 14.5162C12.3665 16.937 12.2631 19.5676 12.942 22.0493C13.6209 24.5309 15.0489 26.7426 17.0312 28.3826C10.3875 30.7223 6.25 35.9329 6.25 41.6686C6.25 42.2212 6.46949 42.7511 6.86019 43.1418C7.25089 43.5326 7.7808 43.7521 8.33333 43.7521C8.88587 43.7521 9.41577 43.5326 9.80647 43.1418C10.1972 42.7511 10.4167 42.2212 10.4167 41.6686C10.4167 36.9392 15.3229 31.2515 25 31.2515C34.6771 31.2515 39.5833 36.9392 39.5833 41.6686C39.5833 42.2212 39.8028 42.7511 40.1935 43.1418C40.5842 43.5326 41.1141 43.7521 41.6667 43.7521C42.2192 43.7521 42.7491 43.5326 43.1398 43.1418C43.5305 42.7511 43.75 42.2212 43.75 41.6686C43.75 35.9329 39.6167 30.7223 32.9667 28.3826Z" fill="white"/>
</svg>
