<?xml version="1.0" encoding="utf-8"?>
<!-- Generator: Adobe Illustrator 24.3.0, SVG Export Plug-In . SVG Version: 6.00 Build 0)  -->
<svg version="1.1" id="Слой_1" xmlns="http://www.w3.org/2000/svg" xmlns:xlink="http://www.w3.org/1999/xlink" x="0px" y="0px"
	 viewBox="0 0 384 381" style="enable-background:new 0 0 384 381;" xml:space="preserve">
<g id="_x23_ffffffff">
</g>
<g id="_x23_000000ff">
	<path d="M178.4,118.5c5.5-0.8,11.1-0.4,16.6-0.5c7.6-0.2,15.3,0.8,22.3,3.8c8.3,3.8,16.7,8.1,23,15c16.7,15.3,25.6,38.8,22.7,61.3
		c-1.2,13.7-7.1,26.6-15.9,37.1c-13.5,15.5-33.4,25.4-54,25.8c-15.8-0.1-31.5-5.2-44.3-14.6c-18.6-13.8-30.1-37.1-28.8-60.3
		c-0.3-8.3,2.5-16.2,5.3-23.8C134.4,140.1,154.7,122.6,178.4,118.5"/>
</g>
</svg>
