<?xml version="1.0" encoding="utf-8"?>
<!-- Generator: Adobe Illustrator 24.3.0, SVG Export Plug-In . SVG Version: 6.00 Build 0)  -->
<svg version="1.1" id="Слой_1" xmlns="http://www.w3.org/2000/svg" xmlns:xlink="http://www.w3.org/1999/xlink" x="0px" y="0px"
	 viewBox="0 0 1280 1170" style="enable-background:new 0 0 1280 1170;" xml:space="preserve">
<g transform="translate(0.000000,1170.000000) scale(0.100000,-0.100000)">
	<path d="M4703.6,10171.5c-13.8-38,43.2-252.6,81.3-302.9c13-17.7,19-28.3,13.8-25.6c-5.2,3.5-49.3,60.9-98.6,128.1
		c-48.4,66.2-92.5,125.4-96.8,129.8c-10.4,10.6-13,16.8,61.4-159c49.3-115.7,166-419.5,180.7-472.5c1.7-7.1-1.7-3.5-9.5,8.8
		c-11.2,20.3-13-2.7-13-242.9c-0.9-581.2-62.2-1104.9-163.4-1384.9c-57.1-159-196.2-227.9-378.7-187.2
		c-207.5,45.9-543.8,169.6-969.1,356.8c-134,58.3-265.4,112.2-292.2,119.2c-25.9,7.1-51.9,15.9-56.2,18.5c-5.2,2.6-8.6,3.5-8.6,0.9
		c0-2.6,22.5-16.8,50.1-30.9c26.8-15,46.7-26.5,42.4-27.4c-3.5,0-72.6,33.6-153,75.1c-80.4,41.5-148.7,75.1-152.2,75.1
		c-2.6,0,39.8-50.3,93.4-112.2c54.5-62.7,137.5-160.7,185.9-219c75.2-91.9,87.3-110.4,85.6-135.1c-3.5-49.5-21.6-59.2-107.2-59.2
		c-58.8,0.9-102.9,7.9-204.9,35.3l-129.7,35.3h-198.8c-108.9,0-210.1,3.5-224.8,7.1l-25.9,7.1l25.9-13.2
		c25.1-13.2,14.7-13.2-29.4-0.9c-15.6,5.3-18.2,7.9-8.6,14.1c8.6,6.2,5.2,7.1-9.5,3.5c-13.8-3.5-80.4,15-190.2,53
		c-92.5,31.8-171.2,57.4-175.5,57.4s30.3-30.9,76.9-68.9c47.5-37.1,111.5-89.2,144.4-114.8c32-26.5,55.3-52.1,51.9-56.5
		c-2.6-5.3-1.7-7.1,3.5-4.4c10.4,7.1,47.5-18.5,41.5-28.3c-1.7-4.4,4.3-15,14.7-23.8c10.4-9.7,15.6-11.5,12.1-5.3
		c-3.5,5.3-3.5,10.6-0.9,10.6c7.8,0,194.5-159,194.5-165.2c0-1.8-29.4,21.2-65.7,52.1c-90.8,76.8-115.8,97.2-115.8,92.7
		c0-1.8,69.2-65.4,153.9-140.4c199.7-179.3,339.8-318,377.8-377.1c38-58.3,40.6-101.6,8.6-140.4c-40.6-49.5-66.6-54.8-415-81.3
		c-66.6-5.3-128.8-10.6-138.3-12.4c-9.5-2.6-21.6-4.4-26.8-4.4c-6.1-0.9-19-7.9-29.4-16.8c-30.3-25.6-10.4-49.5,77.8-94.5
		c61.4-31.8,88.2-39.7,127.1-41.5c27.7-0.9-26.8-4.4-121-7.1l-171.2-4.4l175.5-60.9c414.1-143.1,1125.6-428.4,1110-445.1
		c-2.6-1.8,8.6-20.3,25.9-39.7c16.4-20.3,40.6-58.3,53.6-85.7c19.9-41.5,23.3-60.1,23.3-123.6c0-65.4-2.6-80.4-23.3-118.4
		l-24.2-42.4l21.6,14.1c12.1,7.9,21.6,12.4,21.6,9.7c0-7.9-191.9-151-306.9-227c-380.4-253.5-931.9-552.9-1482.6-803.7l-134-60.9
		l95.1,5.3c52.7,2.6,120.2,6.2,151.3,8.8l56.2,3.5l-54.5-9.7c-30.3-4.4-52.7-10.6-50.1-14.1c2.6-2.6,0-10.6-5.2-17.7
		c-8.6-9.7-6.9-15.9,8.6-28.3c25.1-21.2,115-30,250.7-23c287,13.2,519.6,15.9,579.2,5.3c70-11.5,125.4-44.2,140.9-81.3
		c5.2-14.1,7.8-43.3,5.2-65.4l-4.3-41.5l19,22.1c32.9,38,2.6-4.4-42.4-59.2c-136.6-166.9-438.3-498.1-568.8-624.4
		c-38.9-38-67.4-68-63.1-68.9c3.5,0,30.3,6.2,58.8,14.1c28.5,7.1,53.6,11.5,56.2,9.7c1.7-2.6-8.6-7.1-23.3-10.6
		c-18.2-4.4-33.7-16.8-49.3-42.4c-45.8-72.4-34.6-94.5,45-94.5c30.3,0,92.5,7.9,140.1,17.7c56.2,12.4,144.4,21.2,266.3,26.5
		c144.4,6.2,224.8,15.9,389.9,43.3c453.9,77.7,774.6,101.6,876.6,67.1c93.4-31.8,114.1-112.2,57.9-226.1
		c-16.4-33.6-73.5-127.2-125.4-208.4c-115-179.3-168.6-278.2-164.3-304.7c1.7-15,9.5-21.2,28.5-23c20.7-2.6,31.1,2.6,55.3,30.9
		c30.3,35.3-44.1-79.5-103.7-160.7c-18.2-23.8-31.1-45-30.3-46.8c1.7-0.9,43.2,25.6,92.5,60.9c279.2,197,855,559.1,767.7,482.2
		c-6.9-5.3-10.4-9.7-8.6-8.8c7.8,4.4,52.7-25.6,53.6-35.3c0-5.3,4.3-2.6,8.6,7.1c16.4,36.2-5.2-324.1-36.3-591.8
		c-35.4-310.9-102-734.8-162.5-1042.2c-18.2-91.9-32.9-168.7-32-169.6c1.7-1.8,32,48.6,68.3,110.4c70.9,121,104.6,171.3,78.7,117.5
		c-19.9-42.4-22.5-209.3-3.5-221.7c6.9-4.4,16.4-8.8,21.6-8.8c20.7,0,113.3,115.7,210.9,265c163.4,248.2,286.2,423.9,327.6,466.3
		c96.8,99.8,194.5,91,261.1-22.1c27.7-45.9,77.8-183.7,134-364.8c16.4-54.8,29.4-84.8,32-75.1c1.7,9.7,10.4-12.4,19.9-50.3
		c17.3-72.4,26.8-85.7,32.9-44.2c1.7,13.2,2.6,8.8,1.7-8.8c-3.5-41.5,19.9-66.2,46.7-52.1c29.4,16.8,51.9,79.5,96,270.3
		c86.5,373.6,211.8,751.6,321.6,967.1c65.7,130.7,126.2,184.6,192.8,171.3c38.9-7.1,88.2-57.4,112.4-113.1
		c55.3-129.8,171.2-564.4,230-865.5c14.7-73.3,27.7-134.2,30.3-136.9c5.2-6.2,4.3,0-9.5,76c-6.9,38-12.1,75.1-12.1,82.1
		c1.7,21.2,47.5-219,76.9-406.3c15.6-94.5,29.4-178.4,32-185.5c4.3-11.5,14.7,34.4,68.3,298.5c9.5,47.7,17.3,68.9,22.5,61.8
		c4.3-7.1,6.1-3.5,2.6,10.6c-2.6,12.4,0.9,45.9,7.8,75.1c6.9,31.8,13,44.2,13.8,30.9c0.9-12.4,19,46.8,39.8,131.6
		c57.1,228.8,122.8,458.4,146.1,510.5c27.7,62.7,60.5,104.2,91.6,117.5c31.1,13.2,82.1,6.2,104.6-15c16.4-15,16.4-14.1,6.9,9.7
		c-5.2,14.1-7.8,27.4-5.2,29.1c3.5,4.4,158.2-390.4,214.4-549.4l37.2-106l5.2,61.8c3.5,34.4,6.1,98,6.9,141.3
		c0.9,53,3.5,75.1,9.5,66.2c15.6-24.7,19-12.4,44.1,149.3c21.6,145.7,32,175.8,70,214.6c89.9,91.9,172,66.2,592.2-184.6
		c86.5-51.2,100.3-56.5,75.2-27.4c-8.6,10.6-11.2,15.9-6.1,12.4c6.1-3.5,66.6-72.4,134.9-153.7c106.3-127.2,172-208.4,284.4-355.1
		c16.4-21.2,3.5,13.2-41.5,113.9c-35.4,79.5-63.1,146.6-61.4,148.4c2.6,1.8,8.6-7.9,13.8-22.1c13-31.8,181.5-200.5,206.6-206.7
		c30.3-8.8,47.5,15.9,42.4,58.3c-6.1,45-10.4,57.4-115.8,332.1c-186.7,482.2-270.6,750.7-315.5,1006.9c-15.6,92.7-19,144-19,322.4
		c-0.9,183.7,0.9,218.2,14.7,258.8c20.7,58.3,83.9,130.7,131.4,147.5c19,7.1,29.4,12.4,22.5,13.2c-6.9,0-10.4,1.8-7.8,4.4
		c10.4,10.6,170.3-30.9,413.2-107.8c326.8-103.3,885.3-328.6,1347.8-544.9c69.2-31.8,127.1-58.3,129.7-58.3s-49.3,56.5-115.8,125.4
		c-66.6,69.8-107.2,113.1-90.8,98c30.3-28.3,83-45.9,134.9-46.8c29.4,0,41.5,15.9,32,41.5c-4.3,13.2-74.3,112.2-89,126.3
		s-196.2,219-244.7,276.4c-101.1,119.2-183.3,267.6-303.4,552c-78.7,185.5-95.1,241.1-95.1,315.3c0.9,107.8,51,186.4,171.2,266.7
		c76.9,51.2,100.3,72.4,100.3,91c0,17.7-32,48.6-57.1,56.5c-29.4,8.8-89.9,57.4-89.9,70.7c0,7.1-6.9,14.1-14.7,15.9
		c-8.6,1.8,21.6,16.8,66.6,33.6l82.1,30.9l-77.8,5.3c-42.4,2.6-71.8,5.3-64,6.2c7.8,0.9,19,11.5,25.1,23.8
		c13.8,26.5,88.2,80.4,172.9,123.6c125.4,64.5,229.1,127.2,249,148.4c25.1,27.4,21.6,51.2-8.6,66.2
		c-32.9,15.9-239.5,37.1-265.4,26.5c-11.2-4.4-22.5-6.2-24.2-4.4c-3.5,4.4,174.6,85.7,187.6,85.7c4.3,0,9.5,2.6,11.2,7.1
		c2.6,3.5-74.3,5.3-169.4,3.5c-96-1.8-170.3,0.9-164.3,4.4c5.2,4.4,8.6,17.7,7.8,30.9c-7.8,74.2,80.4,185.5,284.4,358.6l34.6,29.1
		l-36.3-23c-47.5-28.3-48.4-21.2-2.6,8.8c19.9,12.4,39.8,20.3,45,16.8c5.2-3.5,6.9-2.6,4.3,2.6c-6.1,9.7,80.4,69.8,240.3,167.8
		c230,140.4,576.6,326.8,821.3,440.7c81.3,37.1,151.3,71.5,155.6,76.8c6.1,6.2,6.1,7.1,0,4.4c-13.8-7.9-351.9-79.5-355.3-75.1
		c-1.7,1.8,17.3,7.9,43.2,14.1c36.3,7.9,53.6,18.5,74.3,42.4c19.9,23,25.1,33.6,17.3,41.5c-6.1,6.2-72.6,11.5-188.5,14.1
		c-204,5.3-219.6,9.7-268,76c-15.6,21.2-40.6,45-56.2,53.9c-42.4,22.1-143.5,23.8-400.3,6.2c-320.7-22.1-963.1-23-1170.5-0.9
		c-77.8,8.8-163.4,22.1-189.3,30.9c-104.6,33.6-145.2,115.7-118.4,234.9c23.3,99.8,58.8,163.4,261.1,456.6
		c102,148.4,140,216.4,146.1,259.7c1.7,19.4-4.3,52.1-18.2,90.1c-32.9,90.1-26.8,111.3,89.9,303.8c61.4,99.8,70,134.2,37.2,138.7
		c-32.9,5.3-59.7-5.3-98.6-39.7c-34.6-30.9-1.7,6.2,149.6,168.7c70,75.1,69.2,76-21.6,14.1c-181.5-124.5-519.6-333-474.6-293.2
		l18.2,15.9l-22.5,10.6c-19,9.7-24.2,8.8-32.9-4.4c-6.1-7.9-11.2-11.5-11.2-7.1c0,20.3,217,403.6,302.6,534.3
		c45.8,69.8,47.5,74.2,33.7,65.4c-6.9-4.4-55.3-37.1-107.2-72.4c-52.7-35.3-83-53-69.2-39.7c14.7,13.2,44.1,62.7,65.7,108.6
		c54.5,113.9,62.2,136.9,56.2,163.4c-12.1,47.7-73.5,25.6-272.3-97.2c-106.3-65.4-198.8-108.6-242.1-113.1
		c-14.7-1.8-32.9-10.6-40.6-20.3c-12.1-15.9-12.1-15-2.6,5.3c6.1,12.4,25.9,45,44.1,74.2c18.2,28.3,32,53,31.1,54.8
		c-1.7,0.9-41.5-28.3-89-65.4c-47.5-36.2-77.8-56.5-67.4-45c17.3,19.4,18.2,26.5,11.2,52.1c-5.2,16.8-8.6,59.2-8.6,94.5
		c0,80.4-4.3,91-37.2,91c-33.7,0-99.4-37.1-271.5-152.8c-208.3-139.5-344.9-221.7-534.3-319.7c-295.7-153.7-498-223.5-684.7-239.4
		c-204.9-16.8-428.8,118.4-654.4,393.9c-116.7,141.3-153.9,217.3-256.8,525.5c-59.7,177.5-84.7,234.9-113.3,255.2
		c-17.3,12.4-20.7,12.4-34.6,0c-19.9-19.4-42.4-100.7-37.2-136.9c3.5-25.6,3.5-27.4-3.5-7.9c-4.3,12.4-25.9,83.9-47.5,159
		c-21.6,75.1-38.9,133.4-39.8,128.1c-1.7-50.3-37.2-411.6-47.5-489.3c-12.1-97.2-21.6-134.2-21.6-88.3c0,18.5-6.1,23.8-38.9,32.7
		c-51,14.1-130.5,95.4-324.2,333c-189.3,233.2-256.8,304.7-288.7,304.7C4719.2,10184.7,4707.1,10178.5,4703.6,10171.5z
		 M3131.9,7782.4c8.6-9.7,13.8-17.7,11.2-17.7s-11.2,7.9-19.9,17.7c-8.6,9.7-13.8,17.7-11.2,17.7S3123.3,7792.1,3131.9,7782.4z
		 M2406.6,7436.2l25.1-29.1l-27.7,25.6c-26.8,24.7-32.9,31.8-25.9,31.8C2379.8,7464.4,2391.9,7451.2,2406.6,7436.2z M2467.1,7383.2
		l25.1-29.1l-27.7,25.6c-15.6,15-28.5,27.4-28.5,29.1C2436,7415.8,2442.9,7409.7,2467.1,7383.2z M2527.6,7330.2l25.1-29.1
		l-27.7,25.6c-26.8,24.7-32.9,31.8-25.9,31.8C2500.8,7358.4,2512.9,7345.2,2527.6,7330.2z M2600.3,7265.7
		c11.2-12.4,18.2-22.1,15.6-22.1c-1.7,0-13,9.7-24.2,22.1c-11.2,12.4-18.2,22.1-15.6,22.1C2577.8,7287.8,2589,7278.1,2600.3,7265.7z
		 M2678.9,7193.3c11.2-14.1,10.4-15-2.6-3.5c-8.6,6.2-15.6,13.2-15.6,15C2660.8,7211.8,2667.7,7207.4,2678.9,7193.3z M6280.5,2472.5
		c-2.6-7.1-5.2-4.4-5.2,5.3c-0.9,9.7,1.7,15,4.3,11.5C6282.2,2486.6,6283.1,2478.7,6280.5,2472.5z M7248.7,2401.8
		c-1.7-15.9-3.5-5.3-3.5,23.8c0,29.1,1.7,42.4,3.5,29.1C7250.5,2441.6,7250.5,2417.7,7248.7,2401.8z M6686.8,2393
		c-2.6-7.1-5.2-4.4-5.2,5.3c-0.9,9.7,1.7,15,4.3,11.5C6688.5,2407.1,6689.4,2399.2,6686.8,2393z M6306.4,2366.5
		c-2.6-7.1-5.2-4.4-5.2,5.3c-0.9,9.7,1.7,15,4.3,11.5C6308.1,2380.6,6309,2372.7,6306.4,2366.5z M6315.1,2313.5
		c-2.6-7.1-5.2-4.4-5.2,5.3c-0.9,9.7,1.7,15,4.3,11.5C6316.8,2327.7,6317.6,2319.7,6315.1,2313.5z M6323.7,2278.2
		c-2.6-7.1-5.2-4.4-5.2,5.3c-0.9,9.7,1.7,15,4.3,11.5C6325.4,2292.3,6326.3,2284.4,6323.7,2278.2z M6650.5,2244.6
		c-7.8-36.2-14.7-29.1-7.8,7.9c3.5,15,7.8,26.5,9.5,23.8C6654.8,2274.7,6653.9,2259.6,6650.5,2244.6z M6332.3,2234
		c-2.6-7.1-5.2-4.4-5.2,5.3c-0.9,9.7,1.7,15,4.3,11.5C6334.1,2248.2,6334.9,2240.2,6332.3,2234z M6341,2198.7
		c-2.6-7.1-5.2-4.4-5.2,5.3c-0.9,9.7,1.7,15,4.3,11.5C6342.7,2212.8,6343.6,2204.9,6341,2198.7z M6634.9,2181
		c-2.6-6.2-4.3-1.8-4.3,10.6s1.7,16.8,4.3,11.5C6636.6,2196.9,6636.6,2186.3,6634.9,2181z M6349.6,2145.7c-2.6-6.2-4.3-1.8-4.3,10.6
		s1.7,16.8,4.3,11.5C6351.4,2161.6,6351.4,2151,6349.6,2145.7z M6626.3,2145.7c-2.6-7.1-5.2-4.4-5.2,5.3c-0.9,9.7,1.7,15,4.3,11.5
		C6628,2159.8,6628.9,2151.9,6626.3,2145.7z M6358.3,2101.6c-2.6-6.2-4.3-1.8-4.3,10.6s1.7,16.8,4.3,11.5
		C6360,2117.4,6360,2106.9,6358.3,2101.6z M6615.9,2094.5c-7.8-36.2-14.7-29.1-7.8,7.9c3.5,15,7.8,26.5,9.5,23.8
		C6620.2,2124.5,6619.4,2109.5,6615.9,2094.5z M6600.3,2030.9c-2.6-6.2-4.3-1.8-4.3,10.6c0,12.4,1.7,16.8,4.3,11.5
		C6602.1,2046.8,6602.1,2036.2,6600.3,2030.9z M6591.7,1995.6c-2.6-7.1-5.2-4.4-5.2,5.3c-0.9,9.7,1.7,15,4.3,11.5
		C6593.4,2009.7,6594.3,2001.7,6591.7,1995.6z M5288,1847.2c0-7.9-3.5-7.1-7.8,4.4c-4.3,9.7-7.8,23.8-7.8,30.9
		c0,7.9,3.5,7.1,7.8-4.4C5284.6,1868.4,5288,1854.3,5288,1847.2z M5294.9,1810.1c-2.6-7.1-5.2-4.4-5.2,5.3c-0.9,9.7,1.7,15,4.3,11.5
		C5296.7,1824.2,5297.5,1816.3,5294.9,1810.1z"/>
	<path d="M6577.9,1921.4c0-9.7,2.6-12.4,5.2-5.3c2.6,6.2,1.7,14.1-0.9,16.8C6579.6,1936.4,6577,1931.1,6577.9,1921.4z"/>
	<path d="M6569.2,1886c0-9.7,2.6-12.4,5.2-5.3c2.6,6.2,1.7,14.1-0.9,16.8C6570.9,1901.1,6568.4,1895.8,6569.2,1886z"/>
</g>
</svg>
