<?xml version="1.0" encoding="utf-8"?>
<!-- Generator: Adobe Illustrator 24.3.0, SVG Export Plug-In . SVG Version: 6.00 Build 0)  -->
<svg version="1.1" id="Слой_1" xmlns="http://www.w3.org/2000/svg" xmlns:xlink="http://www.w3.org/1999/xlink" x="0px" y="0px"
	 viewBox="0 0 1280 1278" style="enable-background:new 0 0 1280 1278;" xml:space="preserve">
<style type="text/css">
	.st0{stroke:#000000;stroke-width:6;stroke-miterlimit:10;}
</style>
<g transform="translate(0.000000,1278.000000) scale(0.100000,-0.100000)">
	<path class="st0" d="M2235.3,11625.8c-529-42.1-984.7-462.3-1069-989.4c-14.3-84.7-15.1-259.1-15.1-4242.8s0.8-4158.2,15.1-4242.8
		c88.1-504.8,466.2-882.9,978.5-978.5c75.5-14.2,294.3-15.1,4251.2-15.1c4409.7,49.7,4260.3-179,4897.7,348.8
		c527.4,646.3,296.3,459.2,347.2,4887.7c0,3983.7-0.9,4158.2-15.1,4242.8c-66.2,381.5-302.7,699.3-649,871.2
		c-89.7,44.4-208.8,83.8-321.2,107.3c-67.1,13.4-323.7,14.2-4209.3,15.9C4170.6,11631.6,2275.6,11629.1,2235.3,11625.8z
		 M10223.1,10712.8c191.1-57.2,331.6-183.8,409.2-367.5c50.9-122,47.1,188.4,47.1-3926.4c0-4096.3,3.1-3800.6-45.5-3921
		c-84.3-211.3-288.9-378.9-524.6-390.6c-1462.5,6.5-7770.9-14.5-7584.2,13.9c-242.3,66.9-446.2,287.9-458.7,545.6v3748.4
		c0,3653.9,0.7,3808.3,13.9,3856.2c65.5,233.2,263.6,416.1,493.3,454.7C2930.1,10719.4,8822,10761.9,10223.1,10712.8z"/>
</g>
</svg>
