<?xml version="1.0" encoding="utf-8"?>
<!-- Generator: Adobe Illustrator 24.3.0, SVG Export Plug-In . SVG Version: 6.00 Build 0)  -->
<svg version="1.1" id="Слой_1" xmlns="http://www.w3.org/2000/svg" xmlns:xlink="http://www.w3.org/1999/xlink" x="0px" y="0px"
	 viewBox="0 0 1280 1278" style="enable-background:new 0 0 1280 1278;" xml:space="preserve">
<style type="text/css">
	.st0{stroke:#000000;stroke-width:6;stroke-miterlimit:10;}
</style>
<g transform="translate(0.000000,1278.000000) scale(0.100000,-0.100000)">
	<path class="st0" d="M2238.8,11622.9c-529-42.1-984.7-462.3-1069-989.4c-14.3-84.7-15.1-259.1-15.1-4242.8s0.8-4158.2,15.1-4242.8
		c88.1-504.8,466.2-882.9,978.5-978.5c75.5-14.2,294.3-15.1,4251.2-15.1c4409.7,49.7,4260.3-179,4897.7,348.8
		c527.4,646.3,296.3,459.2,347.2,4887.7c0,3983.7-0.9,4158.2-15.1,4242.8c-66.2,381.5-302.7,699.3-649,871.2
		c-89.7,44.4-208.8,83.8-321.2,107.3c-67.1,13.4-323.7,14.2-4209.3,15.9C4174.1,11628.7,2279.1,11626.2,2238.8,11622.9z
		 M10226.6,10709.9c191.1-57.2,331.6-183.8,409.2-367.5c50.9-122,47.1,188.4,47.1-3926.4c0-4096.3,3.1-3800.6-45.5-3921
		c-84.3-211.3-288.9-378.9-524.6-390.6c-1462.5,6.5-7770.9-14.5-7584.2,13.9c-242.3,66.9-446.2,287.9-458.7,545.6v3748.4
		c0,3653.9,0.7,3808.3,13.9,3856.2c65.5,233.2,263.6,416.1,493.3,454.7C2933.6,10716.4,8825.5,10758.9,10226.6,10709.9z"/>
</g>
<g id="_x23_000000ff">
	<path d="M363.7,306.4c9-3.2,19.6-3.8,28,1.3c24.1,12.9,45.2,30.6,64.2,50.1c49,41.6,92.2,89.3,138.2,134.1
		c15.1,14,27.8,30.9,44.9,42.7c6.6,1.4,10.6-6,15.5-9.2c46.4-45.9,91.6-92.9,138.9-137.9c30.5-23.4,53.5-55.5,86.3-76.2
		c26.3-15.5,61-0.3,76.7,23.5c11.1,18.1,21.8,42.2,8.9,62.3c-15.6,25-38.3,44.4-56.4,67.5c-52.5,54.2-106.5,107-159.7,160.6
		c-5.7,4.6-8.9,13.5-2.4,19.1c47.8,49.5,97.8,96.8,145.2,146.6c23.2,29.1,52.4,53.1,73.2,84.2c12.4,19.7,4,45-8.6,62.4
		c-9.8,12.3-21.4,25-37.1,29.5c-16,2.6-34.3,2.9-47.1-8.7c-24.5-19.9-45.1-44.1-69.7-64c-50.3-48.3-99.3-98-148.4-147.5
		c-4.5-3.5-8.8-9.9-15.3-8.8c-14.7,9.2-25.1,23.5-37.7,35.3c-43.4,42.6-85.2,86.7-129.5,128.3c-26.6,20.8-48.3,48.6-78.8,64.1
		c-39.8,11.1-85-23-84.4-64.6c-1.3-18,10.5-33,21.3-45.9c63.9-74.5,137.3-140.1,205-210.9c7.3-5.7,3.3-14.1-2.5-18.9
		c-56.5-56.5-113.2-113-169.4-169.9c-15.7-17.8-31.8-35.3-45.5-54.7c-12.8-17.3-11.3-42-0.5-60C326.1,322.4,345.6,313.2,363.7,306.4
		z"/>
</g>
</svg>
