<?xml version="1.0" encoding="UTF-8" ?>
<!DOCTYPE svg PUBLIC "-//W3C//DTD SVG 1.1//EN" "http://www.w3.org/Graphics/SVG/1.1/DTD/svg11.dtd">
<svg width="178pt" height="178pt" viewBox="0 0 178 178" version="1.1" xmlns="http://www.w3.org/2000/svg">
<g id="#5e371bfd">
<path fill="#5e371b" opacity="1.00" d=" M 79.44 0.00 L 98.40 0.00 C 99.65 0.34 100.90 0.68 102.16 1.01 C 101.62 5.05 100.62 9.00 99.81 12.98 C 103.54 7.37 103.75 19.53 109.16 16.40 C 120.17 16.70 117.02 29.68 118.36 37.07 C 115.59 45.09 119.87 52.98 118.83 60.99 C 116.38 57.44 108.64 58.18 114.61 53.60 C 106.25 49.58 115.22 24.53 98.38 26.31 C 86.66 31.39 74.87 39.69 62.16 36.10 C 49.35 37.39 40.96 49.06 31.06 56.25 C 20.28 53.43 30.39 46.13 36.27 43.26 C 39.73 30.50 44.49 15.55 56.16 7.96 C 55.84 7.63 55.21 6.98 54.89 6.65 C 57.85 5.42 60.90 4.41 63.98 3.52 C 67.13 7.20 62.98 9.37 59.67 9.80 C 49.89 17.10 42.14 28.20 42.97 40.99 C 53.47 39.80 59.87 27.51 70.63 26.03 C 68.24 33.73 85.88 28.17 76.40 27.49 C 71.29 27.31 74.26 18.32 76.92 22.96 C 75.85 17.25 81.18 24.86 82.72 19.70 C 88.62 9.41 76.96 2.44 68.80 2.34 C 72.30 1.37 75.86 0.62 79.44 0.00 Z" />
</g>
<g id="#2b160df6">
<path fill="#2b160d" opacity="0.96" d=" M 102.16 1.01 C 110.87 3.32 127.96 3.28 125.42 16.38 C 123.64 19.08 129.91 25.84 124.99 24.18 C 122.73 26.98 122.62 33.43 118.36 37.07 C 117.02 29.68 120.17 16.70 109.16 16.40 C 103.75 19.53 103.54 7.37 99.81 12.98 C 100.62 9.00 101.62 5.05 102.16 1.01 Z" />
</g>
<g id="#29140cff">
<path fill="#29140c" opacity="1.00" d=" M 63.98 3.52 C 65.57 3.06 67.18 2.68 68.80 2.34 C 76.96 2.44 88.62 9.41 82.72 19.70 C 81.18 24.86 75.85 17.25 76.92 22.96 C 74.26 18.32 71.29 27.31 76.40 27.49 C 85.88 28.17 68.24 33.73 70.63 26.03 C 59.87 27.51 53.47 39.80 42.97 40.99 C 42.14 28.20 49.89 17.10 59.67 9.80 C 62.98 9.37 67.13 7.20 63.98 3.52 Z" />
</g>
<g id="#7f4a24fd">
<path fill="#7f4a24" opacity="1.00" d=" M 0.00 79.61 C 4.03 47.86 25.04 18.80 54.89 6.65 C 55.21 6.98 55.84 7.63 56.16 7.96 C 44.49 15.55 39.73 30.50 36.27 43.26 C 30.39 46.13 20.28 53.43 31.06 56.25 C 29.42 60.60 20.45 57.60 21.83 63.85 C 19.42 63.44 13.43 66.94 18.55 67.54 C 20.93 70.12 3.93 66.21 9.55 70.63 C 11.21 75.73 1.41 67.65 5.24 72.83 C 8.20 76.31 -1.64 72.39 3.77 77.03 C -0.80 79.53 5.05 85.75 0.00 85.23 L 0.00 79.61 Z" />
</g>
<g id="#997944fe">
<path fill="#997944" opacity="1.00" d=" M 98.38 26.31 C 115.22 24.53 106.25 49.58 114.61 53.60 C 108.64 58.18 116.38 57.44 118.83 60.99 C 119.51 65.48 116.23 68.99 115.66 73.14 C 114.28 72.32 112.83 71.53 111.79 70.28 C 114.78 59.72 105.78 50.34 106.93 40.00 C 100.82 44.69 102.06 55.28 95.03 59.33 C 96.83 53.84 104.15 47.69 99.67 42.04 C 90.27 39.50 86.07 48.50 82.99 55.24 C 82.94 51.50 85.00 48.34 86.68 45.17 C 80.63 37.23 73.43 49.34 75.38 55.77 C 72.13 55.46 71.80 57.24 72.90 59.91 C 71.46 61.12 69.89 62.16 68.37 63.28 C 59.18 70.17 42.67 59.04 50.91 48.99 C 45.03 45.46 43.65 55.87 38.00 55.51 C 32.97 57.42 29.19 62.48 23.16 62.17 C 25.53 64.04 24.57 64.37 21.83 63.85 C 20.45 57.60 29.42 60.60 31.06 56.25 C 40.96 49.06 49.35 37.39 62.16 36.10 C 74.87 39.69 86.66 31.39 98.38 26.31 M 62.43 46.39 C 57.45 47.34 49.68 52.35 54.19 57.82 C 64.35 71.84 82.39 39.95 62.43 46.39 Z" />
</g>
<g id="#cdb27cff">
<path fill="#cdb27c" opacity="1.00" d=" M 95.03 59.33 C 102.06 55.28 100.82 44.69 106.93 40.00 C 105.78 50.34 114.78 59.72 111.79 70.28 C 108.51 66.46 107.40 56.30 100.32 61.33 C 93.20 64.29 80.02 65.32 76.84 57.11 C 75.20 57.03 74.27 59.14 72.90 59.91 C 71.80 57.24 72.13 55.46 75.38 55.77 C 73.43 49.34 80.63 37.23 86.68 45.17 C 85.00 48.34 82.94 51.50 82.99 55.24 C 86.07 48.50 90.27 39.50 99.67 42.04 C 104.15 47.69 96.83 53.84 95.03 59.33 M 93.82 45.13 C 89.54 46.20 85.80 50.23 86.11 54.75 C 91.56 61.96 103.12 46.59 93.82 45.13 Z" />
</g>
<g id="#2b1a13ff">
<path fill="#2b1a13" opacity="1.00" d=" M 93.82 45.13 C 103.12 46.59 91.56 61.96 86.11 54.75 C 85.80 50.23 89.54 46.20 93.82 45.13 Z" />
</g>
<g id="#d3c7b2ff">
<path fill="#d3c7b2" opacity="1.00" d=" M 62.43 46.39 C 82.39 39.95 64.35 71.84 54.19 57.82 C 49.68 52.35 57.45 47.34 62.43 46.39 M 61.36 49.25 C 56.68 50.36 53.54 57.88 59.32 59.78 C 67.60 62.46 72.35 46.18 61.36 49.25 Z" />
</g>
<g id="#d7b674ff">
<path fill="#d7b674" opacity="1.00" d=" M 38.00 55.51 C 43.65 55.87 45.03 45.46 50.91 48.99 C 42.67 59.04 59.18 70.17 68.37 63.28 C 60.85 69.72 45.64 65.72 38.05 59.79 C 34.08 63.53 30.60 69.41 24.27 68.27 C 20.45 71.52 28.11 74.03 30.30 76.04 C 28.51 79.86 19.17 81.24 25.82 84.81 C 17.15 85.67 24.93 90.98 25.86 95.84 C 20.21 96.57 12.96 103.69 22.99 104.46 C 23.79 114.04 32.23 122.26 36.96 131.06 C 40.21 138.45 49.71 136.85 53.34 143.76 C 50.61 142.58 47.85 141.40 44.92 140.80 C 50.70 145.75 54.22 152.35 59.05 158.14 C 59.87 162.81 53.38 164.29 51.09 160.78 C 44.22 162.72 45.91 155.57 40.27 157.51 C 29.05 144.52 16.87 131.36 5.12 117.79 C 2.60 111.28 1.14 104.42 0.00 97.55 L 0.00 85.23 C 5.05 85.75 -0.80 79.53 3.77 77.03 C -1.64 72.39 8.20 76.31 5.24 72.83 C 1.41 67.65 11.21 75.73 9.55 70.63 C 3.93 66.21 20.93 70.12 18.55 67.54 C 13.43 66.94 19.42 63.44 21.83 63.85 C 24.57 64.37 25.53 64.04 23.16 62.17 C 29.19 62.48 32.97 57.42 38.00 55.51 Z" />
</g>
<g id="#322117ff">
<path fill="#322117" opacity="1.00" d=" M 61.36 49.25 C 72.35 46.18 67.60 62.46 59.32 59.78 C 53.54 57.88 56.68 50.36 61.36 49.25 Z" />
</g>
<g id="#faecacff">
<path fill="#faecac" opacity="1.00" d=" M 72.90 59.91 C 74.27 59.14 75.20 57.03 76.84 57.11 C 80.02 65.32 93.20 64.29 100.32 61.33 C 107.40 56.30 108.51 66.46 111.79 70.28 C 112.83 71.53 114.28 72.32 115.66 73.14 C 125.17 77.66 130.31 88.65 140.97 91.00 C 153.04 95.01 162.34 107.09 161.07 120.10 C 150.73 108.37 132.32 106.99 120.07 116.16 C 109.40 114.77 103.24 126.42 100.52 134.50 C 93.47 137.06 98.03 144.39 97.98 149.86 C 88.59 150.85 86.08 162.68 76.00 164.19 C 67.71 158.24 59.63 151.89 53.34 143.76 C 49.71 136.85 40.21 138.45 36.96 131.06 C 32.23 122.26 23.79 114.04 22.99 104.46 C 12.96 103.69 20.21 96.57 25.86 95.84 C 24.93 90.98 17.15 85.67 25.82 84.81 C 19.17 81.24 28.51 79.86 30.30 76.04 C 28.11 74.03 20.45 71.52 24.27 68.27 C 30.60 69.41 34.08 63.53 38.05 59.79 C 45.64 65.72 60.85 69.72 68.37 63.28 C 69.89 62.16 71.46 61.12 72.90 59.91 Z" />
</g>
<g id="#2c2523ff">
<path fill="#2c2523" opacity="1.00" d=" M 120.07 116.16 C 132.32 106.99 150.73 108.37 161.07 120.10 C 161.44 121.71 161.84 123.31 162.05 124.95 C 155.41 121.43 149.90 129.42 144.31 127.84 C 138.03 135.48 126.43 130.79 118.02 133.05 C 111.64 136.05 112.77 129.01 109.89 126.39 C 109.95 126.03 110.08 125.30 110.14 124.94 C 113.41 121.97 116.66 118.97 120.07 116.16 Z" />
</g>
<g id="#d0ba7bfd">
<path fill="#d0ba7b" opacity="1.00" d=" M 100.52 134.50 C 103.24 126.42 109.40 114.77 120.07 116.16 C 116.66 118.97 113.41 121.97 110.14 124.94 C 102.15 129.06 100.10 142.49 105.42 149.57 C 103.67 156.03 112.45 154.46 115.04 158.95 C 116.78 162.44 119.08 159.07 121.16 157.77 C 125.52 158.76 130.01 158.98 134.47 158.93 C 127.58 162.89 119.79 164.84 112.25 167.15 C 103.23 167.76 94.29 169.64 85.19 168.98 C 81.99 167.68 78.61 166.54 76.00 164.19 C 86.08 162.68 88.59 150.85 97.98 149.86 C 98.03 144.39 93.47 137.06 100.52 134.50 Z" />
</g>
<g id="#92703dfa">
<path fill="#92703d" opacity="0.98" d=" M 5.12 117.79 C 16.87 131.36 29.05 144.52 40.27 157.51 C 45.91 155.57 44.22 162.72 51.09 160.78 C 53.38 164.29 59.87 162.81 59.05 158.14 C 54.22 152.35 50.70 145.75 44.92 140.80 C 47.85 141.40 50.61 142.58 53.34 143.76 C 59.63 151.89 67.71 158.24 76.00 164.19 C 78.61 166.54 81.99 167.68 85.19 168.98 C 84.61 169.01 83.45 169.07 82.86 169.10 C 79.33 168.63 74.72 166.70 72.18 170.23 C 67.15 177.03 59.09 172.13 53.11 169.88 C 30.88 160.06 12.82 140.95 5.12 117.79 Z" />
</g>
<g id="#91794aff">
<path fill="#91794a" opacity="1.00" d=" M 105.42 149.57 C 100.10 142.49 102.15 129.06 110.14 124.94 C 110.08 125.30 109.95 126.03 109.89 126.39 C 99.73 137.91 109.07 152.92 121.16 157.77 C 119.08 159.07 116.78 162.44 115.04 158.95 C 112.45 154.46 103.67 156.03 105.42 149.57 Z" />
</g>
<g id="#090706fe">
<path fill="#090706" opacity="1.00" d=" M 144.31 127.84 C 149.90 129.42 155.41 121.43 162.05 124.95 C 158.94 139.02 146.91 151.59 134.47 158.93 C 130.01 158.98 125.52 158.76 121.16 157.77 C 109.07 152.92 99.73 137.91 109.89 126.39 C 112.77 129.01 111.64 136.05 118.02 133.05 C 126.43 130.79 138.03 135.48 144.31 127.84 Z" />
</g>
<g id="#443c286b">
<path fill="#443c28" opacity="0.42" d=" M 85.19 168.98 C 94.29 169.64 103.23 167.76 112.25 167.15 C 103.34 171.58 92.34 169.95 82.86 169.10 C 83.45 169.07 84.61 169.01 85.19 168.98 Z" />
</g>
</svg>
