<?xml version="1.0" encoding="UTF-8" ?>
<!DOCTYPE svg PUBLIC "-//W3C//DTD SVG 1.1//EN" "http://www.w3.org/Graphics/SVG/1.1/DTD/svg11.dtd">
<svg width="178pt" height="178pt" viewBox="0 0 178 178" version="1.1" xmlns="http://www.w3.org/2000/svg">
<g id="#f6fdebff">
<path fill="#f6fdeb" opacity="1.00" d=" M 56.32 12.34 C 61.74 5.94 69.54 1.27 78.02 0.62 C 88.37 -0.56 99.79 0.21 108.69 6.08 C 110.52 9.75 112.20 13.49 113.94 17.20 C 107.91 16.55 101.37 16.80 96.11 20.17 C 92.66 22.25 90.42 25.71 88.51 29.15 C 86.98 29.33 85.45 29.49 83.92 29.64 C 81.68 26.63 78.89 23.87 75.21 22.76 C 69.76 20.34 63.52 20.97 58.30 23.65 C 62.11 23.81 65.92 23.73 69.72 23.53 C 73.82 24.97 78.90 26.59 80.51 31.08 C 80.48 33.79 78.76 36.12 77.16 38.16 C 70.10 46.74 56.87 49.04 47.12 43.90 C 45.16 42.23 43.48 39.76 43.70 37.08 C 44.54 32.44 49.12 29.73 50.27 25.23 C 51.69 20.70 53.21 16.04 56.32 12.34 M 57.09 27.04 C 52.54 28.66 47.21 31.75 46.67 37.05 C 46.31 40.81 50.04 42.57 52.70 44.22 C 50.43 41.99 46.73 39.32 48.65 35.69 C 52.29 29.50 60.26 27.34 67.03 27.62 C 70.59 27.61 73.57 29.71 76.44 31.55 C 72.59 24.80 63.60 25.06 57.09 27.04 Z" />
</g>
<g id="#afafaffb">
<path fill="#afafaf" opacity="1.00" d=" M 108.69 6.08 C 110.67 7.10 112.75 8.11 114.22 9.83 C 115.07 12.55 115.63 15.34 116.20 18.13 C 115.45 17.79 114.70 17.49 113.94 17.20 C 112.20 13.49 110.52 9.75 108.69 6.08 Z" />
</g>
<g id="#6d6e6dff">
<path fill="#6d6e6d" opacity="1.00" d=" M 114.22 9.83 C 118.24 13.29 121.34 17.64 123.99 22.19 C 123.63 22.03 122.90 21.69 122.53 21.52 C 120.54 20.68 118.52 19.90 116.45 19.29 C 116.39 19.00 116.26 18.42 116.20 18.13 C 115.63 15.34 115.07 12.55 114.22 9.83 Z" />
</g>
<g id="#0a0c05ff">
<path fill="#0a0c05" opacity="1.00" d=" M 96.11 20.17 C 101.37 16.80 107.91 16.55 113.94 17.20 C 114.70 17.49 115.45 17.79 116.20 18.13 C 116.26 18.42 116.39 19.00 116.45 19.29 C 108.75 18.37 99.88 18.61 94.10 24.54 C 92.85 26.29 91.73 28.13 90.61 29.96 C 90.09 29.75 89.04 29.35 88.51 29.15 C 90.42 25.71 92.66 22.25 96.11 20.17 Z" />
<path fill="#0a0c05" opacity="1.00" d=" M 41.17 124.17 C 45.85 120.07 49.41 114.77 54.70 111.36 C 57.87 113.38 61.29 115.02 64.90 116.06 C 67.49 116.85 70.11 117.54 72.76 118.11 C 74.33 118.49 75.89 118.90 77.45 119.32 C 77.64 120.74 77.83 122.16 78.05 123.58 C 76.00 124.38 73.98 125.23 71.94 126.04 C 73.43 130.92 75.75 135.75 75.42 140.98 C 75.32 145.82 74.02 150.67 74.74 155.51 C 75.24 158.82 78.66 160.24 80.98 162.12 C 81.56 163.11 82.13 164.10 82.71 165.09 C 83.22 165.95 83.74 166.80 84.28 167.65 C 79.11 167.69 73.95 168.00 68.78 167.89 C 70.42 166.97 71.99 165.94 73.57 164.92 C 69.90 159.77 64.34 156.58 60.03 152.07 C 59.63 151.11 59.23 150.15 58.84 149.18 C 60.62 143.74 62.59 138.03 61.54 132.22 C 60.57 127.12 58.49 122.32 56.74 117.45 C 54.23 118.98 51.83 120.68 49.57 122.56 C 43.98 127.25 37.62 130.93 31.01 133.99 C 34.20 130.52 37.66 127.32 41.17 124.17 M 66.59 140.50 C 64.60 143.24 63.39 146.59 63.10 149.96 C 62.71 153.94 69.08 154.95 71.05 152.04 C 73.56 148.63 72.78 144.18 72.61 140.25 C 70.66 140.02 68.06 138.46 66.59 140.50 Z" />
</g>
<g id="#a0bca1ff">
<path fill="#a0bca1" opacity="1.00" d=" M 94.10 24.54 C 99.88 18.61 108.75 18.37 116.45 19.29 C 118.52 19.90 120.54 20.68 122.53 21.52 L 122.47 22.44 C 116.66 21.93 110.72 20.37 104.94 21.99 C 101.53 22.72 98.63 24.86 96.43 27.49 C 96.07 29.35 95.81 31.23 95.54 33.11 C 94.86 32.59 94.18 32.06 93.51 31.53 C 93.72 29.20 93.93 26.87 94.10 24.54 Z" />
</g>
<g id="#414432ff">
<path fill="#414432" opacity="1.00" d=" M 58.30 23.65 C 63.52 20.97 69.76 20.34 75.21 22.76 C 73.37 22.99 71.55 23.30 69.72 23.53 C 65.92 23.73 62.11 23.81 58.30 23.65 Z" />
<path fill="#414432" opacity="1.00" d=" M 38.89 116.78 C 39.87 115.54 40.85 114.30 41.83 113.06 C 41.65 114.11 41.48 115.15 41.30 116.20 C 40.70 116.35 39.49 116.63 38.89 116.78 Z" />
</g>
<g id="#070706ff">
<path fill="#070706" opacity="1.00" d=" M 104.94 21.99 C 110.72 20.37 116.66 21.93 122.47 22.44 C 124.51 25.36 127.00 28.39 126.14 32.23 C 124.07 29.28 122.74 25.10 118.91 24.03 C 111.30 21.79 103.23 23.79 96.43 27.49 C 98.63 24.86 101.53 22.72 104.94 21.99 Z" />
<path fill="#070706" opacity="1.00" d=" M 57.09 27.04 C 63.60 25.06 72.59 24.80 76.44 31.55 C 73.57 29.71 70.59 27.61 67.03 27.62 C 60.26 27.34 52.29 29.50 48.65 35.69 C 46.73 39.32 50.43 41.99 52.70 44.22 C 50.04 42.57 46.31 40.81 46.67 37.05 C 47.21 31.75 52.54 28.66 57.09 27.04 Z" />
<path fill="#070706" opacity="1.00" d=" M 138.66 100.57 C 139.60 100.14 140.55 99.74 141.52 99.38 C 141.80 99.53 142.36 99.82 142.64 99.97 C 144.07 102.71 145.42 105.57 147.66 107.76 C 143.73 113.68 144.19 121.13 145.26 127.83 C 145.85 131.60 148.27 134.69 149.46 138.25 C 149.56 140.38 149.00 142.45 148.68 144.54 C 147.06 145.34 145.44 146.14 143.80 146.91 C 141.72 147.87 139.61 148.75 137.49 149.61 C 137.08 153.26 136.70 156.94 136.85 160.62 C 134.14 160.40 131.41 160.59 128.88 161.66 C 129.51 155.35 128.77 148.81 125.92 143.09 C 124.56 140.01 122.44 137.25 121.56 133.97 C 121.26 130.37 122.43 126.66 121.08 123.16 C 120.18 119.31 116.82 116.97 113.79 114.82 C 123.56 113.54 132.27 107.90 138.66 100.57 Z" />
</g>
<g id="#bddccbff">
<path fill="#bddccb" opacity="1.00" d=" M 122.53 21.52 C 122.90 21.69 123.63 22.03 123.99 22.19 C 127.61 23.90 129.21 27.73 130.43 31.28 C 125.72 40.34 114.27 42.03 105.09 40.93 C 98.88 40.36 93.05 36.68 90.62 30.81 L 90.61 29.96 C 91.73 28.13 92.85 26.29 94.10 24.54 C 93.93 26.87 93.72 29.20 93.51 31.53 C 94.18 32.06 94.86 32.59 95.54 33.11 C 103.81 40.70 118.60 40.91 126.14 32.23 C 127.00 28.39 124.51 25.36 122.47 22.44 L 122.53 21.52 Z" />
</g>
<g id="#121005ff">
<path fill="#121005" opacity="1.00" d=" M 69.72 23.53 C 71.55 23.30 73.37 22.99 75.21 22.76 C 78.89 23.87 81.68 26.63 83.92 29.64 C 83.89 32.20 83.99 34.76 84.07 37.32 C 84.89 34.74 85.84 32.20 87.15 29.83 C 88.96 35.61 84.23 39.94 80.90 43.93 C 80.11 44.84 79.31 45.76 78.53 46.68 C 78.01 47.26 77.51 47.86 77.00 48.45 C 78.39 48.82 79.78 49.20 81.19 49.51 C 77.99 50.38 74.88 51.51 71.72 52.48 C 69.69 52.91 67.66 53.36 65.61 53.73 C 60.48 54.64 54.24 55.37 51.28 60.27 C 47.85 66.25 48.31 73.40 47.22 79.99 C 46.40 80.91 45.59 81.83 44.81 82.79 C 44.18 83.59 43.57 84.42 42.99 85.26 C 44.28 77.10 48.07 69.40 48.31 61.07 C 47.89 55.33 45.85 49.71 47.12 43.90 C 56.87 49.04 70.10 46.74 77.16 38.16 C 78.76 36.12 80.48 33.79 80.51 31.08 C 78.90 26.59 73.82 24.97 69.72 23.53 M 63.19 48.33 C 59.14 49.48 54.89 49.33 50.72 49.52 C 59.59 54.80 70.46 49.95 76.98 43.14 C 72.39 44.90 67.93 47.01 63.19 48.33 M 49.19 53.24 C 47.68 56.25 52.53 53.33 49.19 53.24 Z" />
</g>
<g id="#3f422fff">
<path fill="#3f422f" opacity="1.00" d=" M 96.43 27.49 C 103.23 23.79 111.30 21.79 118.91 24.03 C 122.74 25.10 124.07 29.28 126.14 32.23 C 118.60 40.91 103.81 40.70 95.54 33.11 C 95.81 31.23 96.07 29.35 96.43 27.49 Z" />
</g>
<g id="#807d6eff">
<path fill="#807d6e" opacity="1.00" d=" M 83.92 29.64 C 85.45 29.49 86.98 29.33 88.51 29.15 C 89.04 29.35 90.09 29.75 90.61 29.96 L 90.62 30.81 C 90.33 33.33 89.75 35.80 89.02 38.22 C 88.59 39.68 88.14 41.14 87.69 42.60 C 85.42 43.04 83.16 43.47 80.90 43.93 C 84.23 39.94 88.96 35.61 87.15 29.83 C 85.84 32.20 84.89 34.74 84.07 37.32 C 83.99 34.76 83.89 32.20 83.92 29.64 Z" />
</g>
<g id="#120903ff">
<path fill="#120903" opacity="1.00" d=" M 89.02 38.22 C 89.75 35.80 90.33 33.33 90.62 30.81 C 93.05 36.68 98.88 40.36 105.09 40.93 C 114.27 42.03 125.72 40.34 130.43 31.28 C 132.58 34.06 135.04 36.90 135.47 40.53 C 136.07 44.93 135.50 49.39 135.97 53.81 C 134.67 53.21 133.38 52.57 132.03 52.12 C 124.83 49.94 117.23 51.32 109.85 50.73 C 103.60 50.55 97.63 48.61 91.66 46.96 C 94.08 46.78 96.51 46.63 98.94 46.54 C 95.32 44.16 91.93 41.44 89.02 38.22 M 128.07 47.00 C 130.12 47.30 132.18 47.60 134.24 47.89 C 133.56 45.92 132.87 43.96 132.16 42.00 C 130.82 43.69 129.46 45.35 128.07 47.00 Z" />
</g>
<g id="#c8d5bbff">
<path fill="#c8d5bb" opacity="1.00" d=" M 87.69 42.60 C 88.14 41.14 88.59 39.68 89.02 38.22 C 91.93 41.44 95.32 44.16 98.94 46.54 C 96.51 46.63 94.08 46.78 91.66 46.96 C 87.29 47.24 82.80 48.04 78.53 46.68 C 79.31 45.76 80.11 44.84 80.90 43.93 C 83.16 43.47 85.42 43.04 87.69 42.60 Z" />
</g>
<g id="#dfe2ddff">
<path fill="#dfe2dd" opacity="1.00" d=" M 128.07 47.00 C 129.46 45.35 130.82 43.69 132.16 42.00 C 132.87 43.96 133.56 45.92 134.24 47.89 C 132.18 47.60 130.12 47.30 128.07 47.00 Z" />
<path fill="#dfe2dd" opacity="1.00" d=" M 42.99 85.26 C 43.57 84.42 44.18 83.59 44.81 82.79 C 45.66 84.98 46.48 87.17 47.21 89.40 C 47.08 90.85 46.87 92.29 46.98 93.75 C 48.66 96.35 51.29 98.13 53.81 99.83 C 57.66 102.32 62.07 103.77 66.57 104.49 C 76.48 106.14 86.66 106.22 96.58 104.58 C 104.39 103.25 112.31 101.86 119.49 98.35 C 119.07 97.68 118.24 96.34 117.82 95.67 C 121.68 95.31 125.69 95.68 129.40 94.37 C 134.12 92.69 138.15 89.65 142.15 86.73 C 143.55 85.67 145.24 85.07 147.00 85.04 C 141.70 91.04 136.64 97.71 129.35 101.41 C 127.39 102.43 125.38 103.34 123.37 104.25 C 115.33 105.58 108.02 109.63 99.89 110.56 C 90.20 111.73 80.45 113.55 70.66 112.44 C 63.01 111.88 55.70 109.31 48.85 105.98 C 47.69 104.96 46.54 103.95 45.41 102.90 C 40.60 98.50 41.44 90.96 42.99 85.26 Z" />
</g>
<g id="#866536ff">
<path fill="#866536" opacity="1.00" d=" M 63.19 48.33 C 67.93 47.01 72.39 44.90 76.98 43.14 C 70.46 49.95 59.59 54.80 50.72 49.52 C 54.89 49.33 59.14 49.48 63.19 48.33 Z" />
</g>
<g id="#3d3f3fff">
<path fill="#3d3f3f" opacity="1.00" d=" M 77.00 48.45 C 77.51 47.86 78.01 47.26 78.53 46.68 C 82.80 48.04 87.29 47.24 91.66 46.96 C 97.63 48.61 103.60 50.55 109.85 50.73 C 117.23 51.32 124.83 49.94 132.03 52.12 C 131.69 52.23 131.03 52.44 130.70 52.55 L 129.97 52.80 L 129.25 53.10 C 131.40 57.55 133.91 61.91 134.82 66.84 C 133.61 67.08 132.40 67.31 131.20 67.55 C 129.02 64.52 126.99 61.29 124.08 58.91 C 120.86 56.41 116.64 55.97 112.75 55.37 C 113.91 54.94 115.05 54.46 116.19 53.98 C 110.11 53.90 104.59 56.57 99.54 59.67 C 100.93 57.75 102.32 55.82 103.70 53.88 C 98.83 55.26 94.33 58.09 89.25 58.60 C 83.54 57.93 78.08 55.86 72.35 55.24 C 70.09 54.79 67.86 54.21 65.61 53.73 C 67.66 53.36 69.69 52.91 71.72 52.48 C 79.19 52.92 86.97 53.11 93.98 50.04 C 89.76 49.22 85.45 49.13 81.19 49.51 C 79.78 49.20 78.39 48.82 77.00 48.45 Z" />
</g>
<g id="#a78245ff">
<path fill="#a78245" opacity="1.00" d=" M 81.19 49.51 C 85.45 49.13 89.76 49.22 93.98 50.04 C 86.97 53.11 79.19 52.92 71.72 52.48 C 74.88 51.51 77.99 50.38 81.19 49.51 Z" />
</g>
<g id="#957743fe">
<path fill="#957743" opacity="1.00" d=" M 130.70 52.55 C 131.03 52.44 131.69 52.23 132.03 52.12 C 133.38 52.57 134.67 53.21 135.97 53.81 C 135.91 54.69 135.80 56.45 135.74 57.33 C 134.20 55.60 132.49 54.02 130.70 52.55 Z" />
</g>
<g id="#dfdfdfff">
<path fill="#dfdfdf" opacity="1.00" d=" M 49.19 53.24 C 52.53 53.33 47.68 56.25 49.19 53.24 Z" />
</g>
<g id="#5d8e92ff">
<path fill="#5d8e92" opacity="1.00" d=" M 129.25 53.10 L 129.97 52.80 C 134.20 58.23 136.27 64.90 140.11 70.55 C 137.42 73.74 134.73 77.29 130.66 78.75 C 130.05 78.96 128.84 79.38 128.24 79.59 C 131.22 75.85 134.74 71.91 134.82 66.84 C 133.91 61.91 131.40 57.55 129.25 53.10 Z" />
</g>
<g id="#010201ff">
<path fill="#010201" opacity="1.00" d=" M 129.97 52.80 L 130.70 52.55 C 132.49 54.02 134.20 55.60 135.74 57.33 C 138.39 60.76 140.31 64.68 142.65 68.32 C 144.36 71.26 146.46 74.10 147.31 77.45 C 147.92 80.98 147.67 84.60 147.89 88.17 C 147.82 87.57 147.67 86.37 147.59 85.77 C 147.24 82.79 147.22 79.70 146.09 76.88 C 144.84 74.17 142.19 72.55 140.11 70.55 C 136.27 64.90 134.20 58.23 129.97 52.80 Z" />
<path fill="#010201" opacity="1.00" d=" M 140.33 80.85 C 140.84 80.82 141.87 80.74 142.38 80.70 C 142.31 82.71 142.24 84.72 142.15 86.73 C 138.15 89.65 134.12 92.69 129.40 94.37 C 125.69 95.68 121.68 95.31 117.82 95.67 C 113.80 96.13 109.92 97.37 106.22 98.96 C 100.16 99.44 94.15 100.70 88.05 100.21 C 82.41 99.79 76.86 102.02 71.24 100.98 C 66.14 100.04 61.11 98.71 55.97 97.93 L 55.39 98.42 C 54.86 98.88 54.33 99.36 53.81 99.83 C 51.29 98.13 48.66 96.35 46.98 93.75 C 46.87 92.29 47.08 90.85 47.21 89.40 C 49.37 90.70 51.51 92.01 53.73 93.21 C 58.72 96.61 64.69 97.88 70.66 97.97 C 70.68 97.61 70.73 96.90 70.75 96.54 C 67.35 96.27 63.95 95.95 60.56 95.54 C 65.69 95.20 70.81 94.62 75.95 94.63 C 80.11 94.66 83.77 97.24 87.94 97.19 C 92.93 97.17 97.88 96.46 102.82 95.89 C 107.62 95.49 113.07 95.29 116.29 91.12 L 117.01 91.12 C 119.54 91.76 122.03 92.99 124.69 92.81 C 127.65 92.16 130.18 90.38 132.77 88.90 C 132.56 87.86 132.34 86.81 132.13 85.77 C 134.97 84.31 137.58 82.47 140.33 80.85 Z" />
</g>
<g id="#b1b4b2ff">
<path fill="#b1b4b2" opacity="1.00" d=" M 51.28 60.27 C 54.24 55.37 60.48 54.64 65.61 53.73 C 67.86 54.21 70.09 54.79 72.35 55.24 C 66.88 55.30 61.18 55.65 56.37 58.52 C 61.93 57.85 67.70 56.43 73.21 58.27 C 69.75 59.24 66.25 60.02 62.76 60.83 C 59.57 61.37 56.78 63.42 55.34 66.32 C 53.50 69.91 51.89 73.82 51.73 77.89 C 52.55 80.82 55.04 82.93 56.97 85.16 C 53.43 84.04 49.99 82.53 47.22 79.99 C 48.31 73.40 47.85 66.25 51.28 60.27 Z" />
</g>
<g id="#817d7bff">
<path fill="#817d7b" opacity="1.00" d=" M 89.25 58.60 C 94.33 58.09 98.83 55.26 103.70 53.88 C 102.32 55.82 100.93 57.75 99.54 59.67 C 104.59 56.57 110.11 53.90 116.19 53.98 C 115.05 54.46 113.91 54.94 112.75 55.37 C 109.23 56.68 105.25 57.72 102.81 60.80 C 99.33 65.19 98.23 70.85 97.31 76.23 C 99.15 72.35 100.82 68.40 102.59 64.49 C 102.63 66.77 102.64 69.06 102.75 71.34 C 102.13 70.50 101.51 69.68 100.88 68.85 C 100.27 72.46 100.05 76.39 102.89 79.16 C 102.24 79.78 101.58 80.40 100.93 81.02 C 97.32 79.34 93.22 76.97 92.31 72.77 C 92.21 68.46 94.51 64.58 95.98 60.64 C 93.12 60.78 90.27 60.96 87.41 61.15 C 88.01 65.90 88.52 70.74 87.57 75.48 C 86.85 76.52 86.09 77.53 85.29 78.51 C 79.35 80.67 74.59 85.92 67.98 86.11 C 62.52 86.47 56.85 83.69 54.35 78.72 C 57.01 79.91 59.65 81.16 62.27 82.45 L 61.36 82.93 L 60.36 83.43 C 63.96 84.61 67.75 84.99 71.52 84.82 C 69.27 84.14 67.00 83.51 64.68 83.08 C 71.90 83.91 79.63 81.39 83.59 75.01 C 84.17 75.79 84.82 76.52 85.54 77.19 C 84.61 72.45 81.97 68.27 78.30 65.17 C 78.43 63.88 78.56 62.60 78.68 61.31 C 76.88 60.26 75.08 59.19 73.21 58.27 C 67.70 56.43 61.93 57.85 56.37 58.52 C 61.18 55.65 66.88 55.30 72.35 55.24 C 78.08 55.86 83.54 57.93 89.25 58.60 Z" />
</g>
<g id="#1e1917ff">
<path fill="#1e1917" opacity="1.00" d=" M 102.81 60.80 C 105.25 57.72 109.23 56.68 112.75 55.37 C 116.64 55.97 120.86 56.41 124.08 58.91 C 126.99 61.29 129.02 64.52 131.20 67.55 C 132.40 67.31 133.61 67.08 134.82 66.84 C 134.74 71.91 131.22 75.85 128.24 79.59 C 124.04 81.23 119.75 82.62 115.36 83.67 C 111.70 83.46 108.07 82.86 104.51 81.98 C 108.77 81.86 113.09 81.92 117.30 81.14 C 123.79 79.52 128.81 74.71 133.13 69.86 C 131.91 69.43 130.70 69.01 129.48 68.59 C 127.17 65.65 125.40 61.95 121.99 60.11 C 118.11 58.75 113.89 59.27 109.86 59.25 C 111.27 59.68 112.69 60.12 114.13 60.48 C 110.75 60.99 106.51 61.32 104.75 64.77 C 102.89 67.68 103.45 71.71 105.98 74.04 C 109.00 77.34 115.00 77.36 117.67 73.62 C 119.33 71.04 119.19 67.81 119.56 64.87 C 120.13 66.69 120.55 68.55 120.99 70.40 C 119.94 72.31 118.91 74.22 117.90 76.15 C 114.59 76.97 111.23 77.52 107.84 77.84 C 106.06 75.73 104.31 73.61 102.75 71.34 C 102.64 69.06 102.63 66.77 102.59 64.49 C 100.82 68.40 99.15 72.35 97.31 76.23 C 98.23 70.85 99.33 65.19 102.81 60.80 Z" />
</g>
<g id="#909072ff">
<path fill="#909072" opacity="1.00" d=" M 73.21 58.27 C 75.08 59.19 76.88 60.26 78.68 61.31 C 78.56 62.60 78.43 63.88 78.30 65.17 C 73.89 61.77 68.27 60.34 62.76 60.83 C 66.25 60.02 69.75 59.24 73.21 58.27 Z" />
</g>
<g id="#bb9b94ff">
<path fill="#bb9b94" opacity="1.00" d=" M 109.86 59.25 C 113.89 59.27 118.11 58.75 121.99 60.11 C 125.40 61.95 127.17 65.65 129.48 68.59 C 128.38 72.36 125.80 75.42 122.35 77.26 C 120.87 76.89 119.39 76.51 117.90 76.15 C 118.91 74.22 119.94 72.31 120.99 70.40 C 122.72 69.67 124.44 68.91 126.15 68.14 C 124.94 65.98 123.90 63.64 122.12 61.88 C 120.54 61.17 118.79 61.03 117.09 60.79 C 116.10 60.68 115.11 60.58 114.13 60.48 C 112.69 60.12 111.27 59.68 109.86 59.25 Z" />
</g>
<g id="#b7bbb7ff">
<path fill="#b7bbb7" opacity="1.00" d=" M 87.41 61.15 C 90.27 60.96 93.12 60.78 95.98 60.64 C 94.51 64.58 92.21 68.46 92.31 72.77 C 93.22 76.97 97.32 79.34 100.93 81.02 C 102.11 81.39 103.30 81.71 104.51 81.98 C 108.07 82.86 111.70 83.46 115.36 83.67 C 114.51 84.15 113.66 84.63 112.81 85.13 C 108.98 85.30 105.14 85.56 101.30 85.52 C 95.78 83.57 92.37 78.55 87.57 75.48 C 88.52 70.74 88.01 65.90 87.41 61.15 Z" />
</g>
<g id="#292722ff">
<path fill="#292722" opacity="1.00" d=" M 55.34 66.32 C 56.78 63.42 59.57 61.37 62.76 60.83 C 68.27 60.34 73.89 61.77 78.30 65.17 C 81.97 68.27 84.61 72.45 85.54 77.19 C 84.82 76.52 84.17 75.79 83.59 75.01 C 82.62 73.62 81.58 72.27 80.77 70.77 C 80.27 72.20 79.81 73.65 79.24 75.06 C 79.13 73.20 79.05 71.31 78.44 69.54 C 76.81 67.46 74.25 66.42 71.97 65.22 C 67.80 64.33 62.86 63.39 59.17 66.15 C 55.37 69.05 54.33 74.18 54.35 78.72 C 56.85 83.69 62.52 86.47 67.98 86.11 C 74.59 85.92 79.35 80.67 85.29 78.51 C 81.67 82.86 76.46 85.33 71.62 88.02 C 66.56 88.74 61.59 87.04 56.97 85.16 C 55.04 82.93 52.55 80.82 51.73 77.89 C 51.89 73.82 53.50 69.91 55.34 66.32 Z" />
</g>
<g id="#017a34ff">
<path fill="#017a34" opacity="1.00" d=" M 104.75 64.77 C 106.51 61.32 110.75 60.99 114.13 60.48 C 115.11 60.58 116.10 60.68 117.09 60.79 C 117.92 62.14 118.76 63.49 119.56 64.87 C 119.19 67.81 119.33 71.04 117.67 73.62 C 115.00 77.36 109.00 77.34 105.98 74.04 C 103.45 71.71 102.89 67.68 104.75 64.77 M 107.79 71.05 C 109.16 71.59 110.50 72.27 111.97 72.53 C 113.42 72.10 114.75 71.38 116.12 70.75 C 115.29 68.88 115.26 65.66 112.83 65.19 C 109.31 64.34 109.10 68.86 107.79 71.05 M 107.24 66.17 C 106.72 67.80 107.28 68.36 108.91 67.83 C 109.42 66.20 108.86 65.65 107.24 66.17 Z" />
<path fill="#017a34" opacity="1.00" d=" M 66.75 73.08 C 67.47 69.94 69.95 67.60 71.97 65.22 C 74.25 66.42 76.81 67.46 78.44 69.54 C 79.05 71.31 79.13 73.20 79.24 75.06 C 78.13 79.20 73.24 78.60 69.94 79.27 C 68.78 77.27 67.11 75.42 66.75 73.08 M 70.65 73.84 C 72.17 73.96 73.70 74.08 75.22 74.20 C 75.12 72.71 75.01 71.22 74.91 69.73 C 72.37 69.86 70.79 71.27 70.65 73.84 Z" />
</g>
<g id="#dacfccff">
<path fill="#dacfcc" opacity="1.00" d=" M 117.09 60.79 C 118.79 61.03 120.54 61.17 122.12 61.88 C 123.90 63.64 124.94 65.98 126.15 68.14 C 124.44 68.91 122.72 69.67 120.99 70.40 C 120.55 68.55 120.13 66.69 119.56 64.87 C 118.76 63.49 117.92 62.14 117.09 60.79 Z" />
</g>
<g id="#fdfdfbff">
<path fill="#fdfdfb" opacity="1.00" d=" M 59.17 66.15 C 62.86 63.39 67.80 64.33 71.97 65.22 C 69.95 67.60 67.47 69.94 66.75 73.08 C 67.11 75.42 68.78 77.27 69.94 79.27 C 67.22 79.87 64.71 81.15 62.27 82.45 C 59.65 81.16 57.01 79.91 54.35 78.72 C 54.33 74.18 55.37 69.05 59.17 66.15 Z" />
</g>
<g id="#000100ff">
<path fill="#000100" opacity="1.00" d=" M 107.79 71.05 C 109.10 68.86 109.31 64.34 112.83 65.19 C 115.26 65.66 115.29 68.88 116.12 70.75 C 114.75 71.38 113.42 72.10 111.97 72.53 C 110.50 72.27 109.16 71.59 107.79 71.05 Z" />
</g>
<g id="#eef4f0ff">
<path fill="#eef4f0" opacity="1.00" d=" M 107.24 66.17 C 108.86 65.65 109.42 66.20 108.91 67.83 C 107.28 68.36 106.72 67.80 107.24 66.17 Z" />
</g>
<g id="#474938ff">
<path fill="#474938" opacity="1.00" d=" M 129.48 68.59 C 130.70 69.01 131.91 69.43 133.13 69.86 C 128.81 74.71 123.79 79.52 117.30 81.14 C 113.09 81.92 108.77 81.86 104.51 81.98 C 103.30 81.71 102.11 81.39 100.93 81.02 C 101.58 80.40 102.24 79.78 102.89 79.16 C 103.57 79.24 104.93 79.41 105.61 79.49 C 111.26 80.47 117.29 80.25 122.35 77.26 C 125.80 75.42 128.38 72.36 129.48 68.59 Z" />
</g>
<g id="#e2ceb4ff">
<path fill="#e2ceb4" opacity="1.00" d=" M 100.88 68.85 C 101.51 69.68 102.13 70.50 102.75 71.34 C 104.31 73.61 106.06 75.73 107.84 77.84 C 107.09 78.39 106.35 78.94 105.61 79.49 C 104.93 79.41 103.57 79.24 102.89 79.16 C 100.05 76.39 100.27 72.46 100.88 68.85 Z" />
</g>
<g id="#010502ff">
<path fill="#010502" opacity="1.00" d=" M 70.65 73.84 C 70.79 71.27 72.37 69.86 74.91 69.73 C 75.01 71.22 75.12 72.71 75.22 74.20 C 73.70 74.08 72.17 73.96 70.65 73.84 Z" />
</g>
<g id="#ddc0a5ff">
<path fill="#ddc0a5" opacity="1.00" d=" M 79.24 75.06 C 79.81 73.65 80.27 72.20 80.77 70.77 C 81.58 72.27 82.62 73.62 83.59 75.01 C 79.63 81.39 71.90 83.91 64.68 83.08 C 63.85 83.04 62.19 82.97 61.36 82.93 L 62.27 82.45 C 64.71 81.15 67.22 79.87 69.94 79.27 C 73.24 78.60 78.13 79.20 79.24 75.06 Z" />
</g>
<g id="#82b5bbff">
<path fill="#82b5bb" opacity="1.00" d=" M 130.66 78.75 C 134.73 77.29 137.42 73.74 140.11 70.55 C 142.19 72.55 144.84 74.17 146.09 76.88 C 147.22 79.70 147.24 82.79 147.59 85.77 L 147.00 85.04 C 145.24 85.07 143.55 85.67 142.15 86.73 C 142.24 84.72 142.31 82.71 142.38 80.70 C 141.87 80.74 140.84 80.82 140.33 80.85 C 137.72 80.95 135.12 80.97 132.51 81.05 C 132.05 80.48 131.12 79.33 130.66 78.75 Z" />
<path fill="#82b5bb" opacity="1.00" d=" M 37.42 160.88 C 41.14 158.62 45.04 156.66 49.01 154.86 C 46.66 156.86 44.40 158.96 42.13 161.04 C 42.19 162.19 42.25 163.35 42.32 164.50 C 40.70 163.28 39.05 162.09 37.42 160.88 Z" />
</g>
<g id="#c5d6dcff">
<path fill="#c5d6dc" opacity="1.00" d=" M 87.57 75.48 C 92.37 78.55 95.78 83.57 101.30 85.52 C 97.60 85.90 94.34 84.07 91.55 81.86 C 85.35 84.17 79.22 86.95 72.62 87.90 C 72.37 87.93 71.87 87.99 71.62 88.02 C 76.46 85.33 81.67 82.86 85.29 78.51 C 86.09 77.53 86.85 76.52 87.57 75.48 Z" />
</g>
<g id="#93735dff">
<path fill="#93735d" opacity="1.00" d=" M 107.84 77.84 C 111.23 77.52 114.59 76.97 117.90 76.15 C 119.39 76.51 120.87 76.89 122.35 77.26 C 117.29 80.25 111.26 80.47 105.61 79.49 C 106.35 78.94 107.09 78.39 107.84 77.84 Z" />
</g>
<g id="#d3e8e8ff">
<path fill="#d3e8e8" opacity="1.00" d=" M 115.36 83.67 C 119.75 82.62 124.04 81.23 128.24 79.59 C 128.84 79.38 130.05 78.96 130.66 78.75 C 131.12 79.33 132.05 80.48 132.51 81.05 C 126.29 85.23 119.04 87.44 112.07 90.05 C 112.33 88.41 112.57 86.77 112.81 85.13 C 113.66 84.63 114.51 84.15 115.36 83.67 Z" />
</g>
<g id="#eef1f1ff">
<path fill="#eef1f1" opacity="1.00" d=" M 44.81 82.79 C 45.59 81.83 46.40 80.91 47.22 79.99 C 49.99 82.53 53.43 84.04 56.97 85.16 C 61.59 87.04 66.56 88.74 71.62 88.02 C 71.87 87.99 72.37 87.93 72.62 87.90 C 79.22 86.95 85.35 84.17 91.55 81.86 C 94.34 84.07 97.60 85.90 101.30 85.52 C 105.14 85.56 108.98 85.30 112.81 85.13 C 112.57 86.77 112.33 88.41 112.07 90.05 C 105.39 90.37 98.62 90.18 92.12 92.01 C 79.44 94.19 66.52 93.51 53.73 93.21 C 51.51 92.01 49.37 90.70 47.21 89.40 C 46.48 87.17 45.66 84.98 44.81 82.79 Z" />
</g>
<g id="#afa7a1ff">
<path fill="#afa7a1" opacity="1.00" d=" M 112.07 90.05 C 119.04 87.44 126.29 85.23 132.51 81.05 C 135.12 80.97 137.72 80.95 140.33 80.85 C 137.58 82.47 134.97 84.31 132.13 85.77 C 127.28 88.05 122.11 89.54 117.01 91.12 L 116.29 91.12 C 110.77 90.93 105.29 91.69 99.79 92.01 C 97.23 91.97 94.67 91.91 92.12 92.01 C 98.62 90.18 105.39 90.37 112.07 90.05 Z" />
</g>
<g id="#373c2bff">
<path fill="#373c2b" opacity="1.00" d=" M 60.36 83.43 L 61.36 82.93 C 62.19 82.97 63.85 83.04 64.68 83.08 C 67.00 83.51 69.27 84.14 71.52 84.82 C 67.75 84.99 63.96 84.61 60.36 83.43 Z" />
</g>
<g id="#412c21ff">
<path fill="#412c21" opacity="1.00" d=" M 117.01 91.12 C 122.11 89.54 127.28 88.05 132.13 85.77 C 132.34 86.81 132.56 87.86 132.77 88.90 C 130.18 90.38 127.65 92.16 124.69 92.81 C 122.03 92.99 119.54 91.76 117.01 91.12 Z" />
</g>
<g id="#836663ff">
<path fill="#836663" opacity="1.00" d=" M 147.00 85.04 L 147.59 85.77 C 147.67 86.37 147.82 87.57 147.89 88.17 L 147.98 88.86 C 147.75 89.08 147.30 89.52 147.08 89.74 C 143.91 93.05 141.39 96.91 138.66 100.57 C 132.27 107.90 123.56 113.54 113.79 114.82 C 105.90 115.47 97.95 115.11 90.08 116.17 C 91.38 116.67 92.67 117.18 93.97 117.68 C 90.84 117.79 87.71 117.92 84.58 118.00 C 80.64 118.05 76.70 118.17 72.76 118.11 C 70.11 117.54 67.49 116.85 64.90 116.06 C 74.47 115.29 84.17 115.66 93.58 113.48 C 100.58 111.93 108.05 112.59 114.74 109.71 C 117.92 108.41 120.60 106.23 123.37 104.25 C 125.38 103.34 127.39 102.43 129.35 101.41 C 136.64 97.71 141.70 91.04 147.00 85.04 Z" />
</g>
<g id="#439aa5ff">
<path fill="#439aa5" opacity="1.00" d=" M 147.08 89.74 C 147.30 89.52 147.75 89.08 147.98 88.86 C 154.01 91.10 157.61 96.73 161.43 101.54 C 165.27 106.41 171.66 108.98 174.36 114.77 L 173.38 114.61 C 170.92 114.16 168.46 113.65 166.07 112.91 C 162.51 110.40 159.51 107.23 156.25 104.36 C 156.33 101.81 156.93 98.94 155.31 96.72 C 153.26 93.68 150.07 91.72 147.08 89.74 Z" />
</g>
<g id="#3c494cff">
<path fill="#3c494c" opacity="1.00" d=" M 147.08 89.74 C 150.07 91.72 153.26 93.68 155.31 96.72 C 156.93 98.94 156.33 101.81 156.25 104.36 C 159.51 107.23 162.51 110.40 166.07 112.91 C 165.05 113.64 164.04 114.36 163.04 115.12 C 155.46 111.07 150.81 103.13 142.64 99.97 C 142.36 99.82 141.80 99.53 141.52 99.38 C 140.55 99.74 139.60 100.14 138.66 100.57 C 141.39 96.91 143.91 93.05 147.08 89.74 Z" />
</g>
<g id="#553a2dff">
<path fill="#553a2d" opacity="1.00" d=" M 99.79 92.01 C 105.29 91.69 110.77 90.93 116.29 91.12 C 113.07 95.29 107.62 95.49 102.82 95.89 C 103.43 95.59 104.65 95.01 105.26 94.72 C 103.45 93.77 101.64 92.83 99.79 92.01 Z" />
</g>
<g id="#846053ff">
<path fill="#846053" opacity="1.00" d=" M 92.12 92.01 C 94.67 91.91 97.23 91.97 99.79 92.01 C 101.64 92.83 103.45 93.77 105.26 94.72 C 104.65 95.01 103.43 95.59 102.82 95.89 C 97.88 96.46 92.93 97.17 87.94 97.19 C 83.77 97.24 80.11 94.66 75.95 94.63 C 70.81 94.62 65.69 95.20 60.56 95.54 C 63.95 95.95 67.35 96.27 70.75 96.54 C 70.73 96.90 70.68 97.61 70.66 97.97 C 64.69 97.88 58.72 96.61 53.73 93.21 C 66.52 93.51 79.44 94.19 92.12 92.01 Z" />
</g>
<g id="#b0bba3ff">
<path fill="#b0bba3" opacity="1.00" d=" M 106.22 98.96 C 109.92 97.37 113.80 96.13 117.82 95.67 C 118.24 96.34 119.07 97.68 119.49 98.35 C 112.31 101.86 104.39 103.25 96.58 104.58 C 86.66 106.22 76.48 106.14 66.57 104.49 C 62.07 103.77 57.66 102.32 53.81 99.83 C 54.33 99.36 54.86 98.88 55.39 98.42 C 59.06 101.14 63.56 102.23 67.97 103.08 C 77.15 105.20 86.80 104.42 96.03 102.94 C 99.65 102.29 102.96 100.61 106.22 98.96 M 107.50 99.94 C 110.56 100.08 113.61 99.51 116.27 97.94 C 113.18 97.60 109.95 97.79 107.50 99.94 Z" />
</g>
<g id="#f6f8f1ff">
<path fill="#f6f8f1" opacity="1.00" d=" M 55.97 97.93 C 61.11 98.71 66.14 100.04 71.24 100.98 C 76.86 102.02 82.41 99.79 88.05 100.21 C 94.15 100.70 100.16 99.44 106.22 98.96 C 102.96 100.61 99.65 102.29 96.03 102.94 C 86.67 102.96 77.32 102.90 67.97 103.08 C 63.56 102.23 59.06 101.14 55.39 98.42 L 55.97 97.93 Z" />
</g>
<g id="#e8eee2ff">
<path fill="#e8eee2" opacity="1.00" d=" M 107.50 99.94 C 109.95 97.79 113.18 97.60 116.27 97.94 C 113.61 99.51 110.56 100.08 107.50 99.94 Z" />
</g>
<g id="#1e1e1eff">
<path fill="#1e1e1e" opacity="1.00" d=" M 142.64 99.97 C 150.81 103.13 155.46 111.07 163.04 115.12 C 162.20 115.76 161.38 116.43 160.57 117.11 C 156.47 113.71 151.89 110.97 147.66 107.76 C 145.42 105.57 144.07 102.71 142.64 99.97 Z" />
</g>
<g id="#a8bdb3ff">
<path fill="#a8bdb3" opacity="1.00" d=" M 45.41 102.90 C 46.54 103.95 47.69 104.96 48.85 105.98 C 50.09 107.18 51.26 108.46 52.53 109.64 C 47.45 114.21 43.78 120.12 38.52 124.50 C 34.36 127.99 30.08 131.36 25.44 134.20 C 24.59 133.47 23.70 132.79 22.80 132.14 C 28.08 126.95 33.40 121.66 37.30 115.30 C 39.85 111.06 42.56 106.93 45.41 102.90 M 38.89 116.78 C 39.49 116.63 40.70 116.35 41.30 116.20 C 41.48 115.15 41.65 114.11 41.83 113.06 C 40.85 114.30 39.87 115.54 38.89 116.78 Z" />
</g>
<g id="#8b8673ff">
<path fill="#8b8673" opacity="1.00" d=" M 67.97 103.08 C 77.32 102.90 86.67 102.96 96.03 102.94 C 86.80 104.42 77.15 105.20 67.97 103.08 Z" />
</g>
<g id="#bda4a0ff">
<path fill="#bda4a0" opacity="1.00" d=" M 99.89 110.56 C 108.02 109.63 115.33 105.58 123.37 104.25 C 120.60 106.23 117.92 108.41 114.74 109.71 C 108.05 112.59 100.58 111.93 93.58 113.48 C 84.17 115.66 74.47 115.29 64.90 116.06 C 61.29 115.02 57.87 113.38 54.70 111.36 C 53.95 110.81 53.23 110.24 52.53 109.64 C 51.26 108.46 50.09 107.18 48.85 105.98 C 55.70 109.31 63.01 111.88 70.66 112.44 C 80.45 113.55 90.20 111.73 99.89 110.56 Z" />
</g>
<g id="#373f38fd">
<path fill="#373f38" opacity="1.00" d=" M 38.52 124.50 C 43.78 120.12 47.45 114.21 52.53 109.64 C 53.23 110.24 53.95 110.81 54.70 111.36 C 49.41 114.77 45.85 120.07 41.17 124.17 C 37.66 127.32 34.20 130.52 31.01 133.99 C 29.90 135.15 28.78 136.30 27.66 137.46 C 26.97 136.34 26.23 135.25 25.44 134.20 C 30.08 131.36 34.36 127.99 38.52 124.50 Z" />
</g>
<g id="#c2e1ebff">
<path fill="#c2e1eb" opacity="1.00" d=" M 163.04 115.12 C 164.04 114.36 165.05 113.64 166.07 112.91 C 168.46 113.65 170.92 114.16 173.38 114.61 C 171.51 120.79 168.97 126.76 165.65 132.30 C 165.72 132.08 165.88 131.63 165.95 131.41 C 166.54 129.51 166.93 127.56 167.18 125.59 C 167.12 124.89 167.00 123.49 166.94 122.79 C 166.78 122.41 166.45 121.67 166.29 121.30 C 163.36 121.31 160.13 120.87 157.50 122.41 C 156.36 124.04 155.98 126.05 155.33 127.90 C 156.28 129.06 157.22 130.23 158.22 131.36 C 158.54 131.64 159.19 132.21 159.52 132.50 C 161.08 133.52 162.73 134.39 164.38 135.27 C 163.46 136.29 162.54 137.30 161.62 138.31 C 160.25 137.72 158.82 137.32 157.39 136.93 C 153.93 135.69 149.72 132.52 150.29 128.39 C 152.58 123.78 156.96 120.65 160.57 117.11 C 161.38 116.43 162.20 115.76 163.04 115.12 Z" />
</g>
<g id="#302823ff">
<path fill="#302823" opacity="1.00" d=" M 90.08 116.17 C 97.95 115.11 105.90 115.47 113.79 114.82 C 116.82 116.97 120.18 119.31 121.08 123.16 C 122.43 126.66 121.26 130.37 121.56 133.97 C 122.44 137.25 124.56 140.01 125.92 143.09 C 128.77 148.81 129.51 155.35 128.88 161.66 C 128.21 164.85 125.24 166.86 122.98 168.97 C 118.27 173.25 111.78 174.42 105.76 175.68 C 100.69 176.80 95.78 174.34 91.68 171.60 C 98.36 171.13 104.97 173.99 111.57 172.60 C 118.35 169.98 125.50 164.61 126.10 156.77 C 126.77 149.09 122.25 142.39 118.68 135.99 C 116.10 132.22 118.06 127.64 117.57 123.48 C 117.23 121.36 114.71 121.09 113.00 121.02 C 109.75 121.00 106.22 121.52 103.67 123.71 C 103.27 126.36 103.63 129.04 103.83 131.69 C 101.41 131.50 98.98 131.50 96.55 131.49 C 95.85 128.38 95.92 124.80 93.94 122.17 C 91.02 120.37 87.69 119.41 84.58 118.00 C 87.71 117.92 90.84 117.79 93.97 117.68 C 92.67 117.18 91.38 116.67 90.08 116.17 Z" />
</g>
<g id="#514341ff">
<path fill="#514341" opacity="1.00" d=" M 72.76 118.11 C 76.70 118.17 80.64 118.05 84.58 118.00 C 87.69 119.41 91.02 120.37 93.94 122.17 C 95.92 124.80 95.85 128.38 96.55 131.49 C 98.98 131.50 101.41 131.50 103.83 131.69 C 108.93 132.56 113.83 134.27 118.68 135.99 C 122.25 142.39 126.77 149.09 126.10 156.77 C 125.50 164.61 118.35 169.98 111.57 172.60 C 104.97 173.99 98.36 171.13 91.68 171.60 C 88.83 171.42 86.02 169.90 84.28 167.65 C 83.74 166.80 83.22 165.95 82.71 165.09 C 92.27 165.61 101.27 171.10 110.96 169.16 C 115.69 168.35 120.69 165.68 122.27 160.86 C 124.92 152.83 121.59 144.00 116.09 138.01 C 112.49 135.40 108.03 134.35 103.83 133.10 C 99.15 131.37 95.77 136.03 92.23 138.22 C 91.87 138.40 91.14 138.75 90.77 138.92 C 87.55 139.67 84.30 140.29 81.04 140.88 C 81.34 139.41 81.61 137.94 81.86 136.47 C 83.56 136.10 85.26 135.75 86.96 135.39 C 84.41 131.84 81.84 128.30 78.93 125.04 C 78.87 125.60 78.75 126.70 78.69 127.26 C 78.46 126.03 78.25 124.81 78.05 123.58 C 77.83 122.16 77.64 120.74 77.45 119.32 C 75.89 118.90 74.33 118.49 72.76 118.11 Z" />
</g>
<g id="#453434ff">
<path fill="#453434" opacity="1.00" d=" M 103.67 123.71 C 106.22 121.52 109.75 121.00 113.00 121.02 C 114.71 121.09 117.23 121.36 117.57 123.48 C 118.06 127.64 116.10 132.22 118.68 135.99 C 113.83 134.27 108.93 132.56 103.83 131.69 C 103.63 129.04 103.27 126.36 103.67 123.71 Z" />
</g>
<g id="#4f5456ff">
<path fill="#4f5456" opacity="1.00" d=" M 157.50 122.41 C 160.13 120.87 163.36 121.31 166.29 121.30 C 166.45 121.67 166.78 122.41 166.94 122.79 C 162.90 124.07 159.04 125.85 155.33 127.90 C 155.98 126.05 156.36 124.04 157.50 122.41 Z" />
</g>
<g id="#080808fe">
<path fill="#080808" opacity="1.00" d=" M 155.33 127.90 C 159.04 125.85 162.90 124.07 166.94 122.79 C 167.00 123.49 167.12 124.89 167.18 125.59 C 163.86 126.95 160.81 128.87 158.22 131.36 C 157.22 130.23 156.28 129.06 155.33 127.90 Z" />
</g>
<g id="#282d28ff">
<path fill="#282d28" opacity="1.00" d=" M 71.94 126.04 C 73.98 125.23 76.00 124.38 78.05 123.58 C 78.25 124.81 78.46 126.03 78.69 127.26 C 79.15 130.50 80.44 133.54 81.86 136.47 C 81.61 137.94 81.34 139.41 81.04 140.88 C 80.68 142.58 80.27 144.27 79.87 145.97 C 79.78 146.43 79.59 147.37 79.50 147.84 C 79.24 149.59 79.07 151.36 79.00 153.13 C 79.40 155.50 79.95 157.85 80.51 160.20 C 80.63 160.68 80.86 161.64 80.98 162.12 C 78.66 160.24 75.24 158.82 74.74 155.51 C 74.02 150.67 75.32 145.82 75.42 140.98 C 75.75 135.75 73.43 130.92 71.94 126.04 Z" />
</g>
<g id="#998164ff">
<path fill="#998164" opacity="1.00" d=" M 78.93 125.04 C 81.84 128.30 84.41 131.84 86.96 135.39 C 85.26 135.75 83.56 136.10 81.86 136.47 C 80.44 133.54 79.15 130.50 78.69 127.26 C 78.75 126.70 78.87 125.60 78.93 125.04 Z" />
</g>
<g id="#7b9a96e1">
<path fill="#7b9a96" opacity="0.88" d=" M 159.52 132.50 C 161.70 132.36 163.83 131.87 165.95 131.41 C 165.88 131.63 165.72 132.08 165.65 132.30 C 165.26 133.31 164.81 134.29 164.38 135.27 C 162.73 134.39 161.08 133.52 159.52 132.50 Z" />
</g>
<g id="#c4e8f1ff">
<path fill="#c4e8f1" opacity="1.00" d=" M 17.32 132.35 C 18.17 132.32 19.87 132.26 20.72 132.23 C 19.75 135.88 19.41 139.66 19.08 143.42 C 15.65 140.62 17.12 136.11 17.32 132.35 Z" />
</g>
<g id="#619695fb">
<path fill="#619695" opacity="1.00" d=" M 20.72 132.23 L 21.02 131.09 C 21.37 135.77 21.30 140.46 21.30 145.15 C 20.73 144.90 19.59 144.38 19.02 144.13 L 19.08 143.42 C 19.41 139.66 19.75 135.88 20.72 132.23 Z" />
</g>
<g id="#0c130cff">
<path fill="#0c130c" opacity="1.00" d=" M 21.02 131.09 C 21.46 131.36 22.35 131.88 22.80 132.14 C 23.70 132.79 24.59 133.47 25.44 134.20 C 26.23 135.25 26.97 136.34 27.66 137.46 C 29.56 142.02 24.88 145.62 21.34 147.50 C 21.33 146.92 21.31 145.74 21.30 145.15 C 21.30 140.46 21.37 135.77 21.02 131.09 Z" />
</g>
<g id="#817660ff">
<path fill="#817660" opacity="1.00" d=" M 92.23 138.22 C 95.77 136.03 99.15 131.37 103.83 133.10 C 108.03 134.35 112.49 135.40 116.09 138.01 C 121.59 144.00 124.92 152.83 122.27 160.86 C 120.69 165.68 115.69 168.35 110.96 169.16 C 101.27 171.10 92.27 165.61 82.71 165.09 C 82.13 164.10 81.56 163.11 80.98 162.12 C 80.86 161.64 80.63 160.68 80.51 160.20 C 89.37 162.19 97.65 166.99 106.95 166.79 C 110.79 166.66 114.99 166.44 118.22 164.13 C 120.18 162.69 119.08 160.14 118.89 158.18 C 117.79 152.99 118.32 147.30 115.32 142.66 C 113.99 139.91 111.23 138.39 108.48 137.39 C 103.20 135.10 97.20 135.21 92.23 138.22 Z" />
</g>
<g id="#b2ac9dff">
<path fill="#b2ac9d" opacity="1.00" d=" M 92.23 138.22 C 97.20 135.21 103.20 135.10 108.48 137.39 C 110.70 142.83 112.48 148.48 112.84 154.39 C 110.07 152.13 108.05 149.16 107.26 145.65 C 106.22 142.97 105.69 139.56 103.02 137.99 C 98.96 137.11 94.80 138.36 90.77 138.92 C 91.14 138.75 91.87 138.40 92.23 138.22 Z" />
</g>
<g id="#ceccb9ff">
<path fill="#ceccb9" opacity="1.00" d=" M 90.77 138.92 C 94.80 138.36 98.96 137.11 103.02 137.99 C 105.69 139.56 106.22 142.97 107.26 145.65 C 108.05 149.16 110.07 152.13 112.84 154.39 C 113.67 155.48 114.48 156.59 115.30 157.69 C 110.59 158.69 105.73 158.31 101.03 159.27 C 100.31 159.50 98.89 159.95 98.17 160.18 C 91.07 161.49 83.75 158.40 79.00 153.13 C 79.07 151.36 79.24 149.59 79.50 147.84 C 80.43 150.83 82.50 153.62 85.82 154.02 C 93.20 155.33 101.35 155.91 108.19 152.23 C 103.94 148.62 99.63 145.06 95.02 141.93 C 90.16 138.26 82.87 141.22 79.87 145.97 C 80.27 144.27 80.68 142.58 81.04 140.88 C 84.30 140.29 87.55 139.67 90.77 138.92 Z" />
</g>
<g id="#6d737ae0">
<path fill="#6d737a" opacity="0.88" d=" M 157.39 136.93 C 158.82 137.32 160.25 137.72 161.62 138.31 C 161.17 140.44 156.62 138.96 157.39 136.93 Z" />
</g>
<g id="#ad9a7eff">
<path fill="#ad9a7e" opacity="1.00" d=" M 108.48 137.39 C 111.23 138.39 113.99 139.91 115.32 142.66 C 118.32 147.30 117.79 152.99 118.89 158.18 C 119.08 160.14 120.18 162.69 118.22 164.13 C 114.99 166.44 110.79 166.66 106.95 166.79 C 97.65 166.99 89.37 162.19 80.51 160.20 C 79.95 157.85 79.40 155.50 79.00 153.13 C 83.75 158.40 91.07 161.49 98.17 160.18 C 99.99 160.90 101.80 162.02 103.83 161.98 C 105.31 161.45 106.47 160.32 107.71 159.41 C 105.49 159.26 103.25 159.12 101.03 159.27 C 105.73 158.31 110.59 158.69 115.30 157.69 C 114.48 156.59 113.67 155.48 112.84 154.39 C 112.48 148.48 110.70 142.83 108.48 137.39 Z" />
</g>
<g id="#394131ff">
<path fill="#394131" opacity="1.00" d=" M 66.59 140.50 C 68.06 138.46 70.66 140.02 72.61 140.25 C 72.78 144.18 73.56 148.63 71.05 152.04 C 69.08 154.95 62.71 153.94 63.10 149.96 C 63.39 146.59 64.60 143.24 66.59 140.50 Z" />
</g>
<g id="#f6f8edff">
<path fill="#f6f8ed" opacity="1.00" d=" M 79.87 145.97 C 82.87 141.22 90.16 138.26 95.02 141.93 C 99.63 145.06 103.94 148.62 108.19 152.23 C 101.35 155.91 93.20 155.33 85.82 154.02 C 82.50 153.62 80.43 150.83 79.50 147.84 C 79.59 147.37 79.78 146.43 79.87 145.97 Z" />
</g>
<g id="#45847bff">
<path fill="#45847b" opacity="1.00" d=" M 143.80 146.91 C 145.44 146.14 147.06 145.34 148.68 144.54 C 150.11 146.10 152.83 147.24 152.76 149.67 C 150.34 152.78 147.13 155.15 144.19 157.73 C 142.23 154.36 142.82 150.48 143.80 146.91 Z" />
</g>
<g id="#30312fff">
<path fill="#30312f" opacity="1.00" d=" M 137.49 149.61 C 139.61 148.75 141.72 147.87 143.80 146.91 C 142.82 150.48 142.23 154.36 144.19 157.73 C 142.31 159.27 140.43 160.93 138.11 161.77 C 137.80 161.49 137.16 160.91 136.85 160.62 C 136.70 156.94 137.08 153.26 137.49 149.61 Z" />
</g>
<g id="#65837fc8">
<path fill="#65837f" opacity="0.78" d=" M 24.30 149.24 C 24.81 149.75 24.81 149.75 24.30 149.24 Z" />
</g>
<g id="#5e6154ff">
<path fill="#5e6154" opacity="1.00" d=" M 49.01 154.86 C 51.92 152.41 55.41 150.78 58.84 149.18 C 59.23 150.15 59.63 151.11 60.03 152.07 C 60.86 155.11 62.94 158.84 60.93 161.77 C 55.95 163.50 50.65 164.15 45.64 165.83 C 44.50 165.47 43.41 164.97 42.32 164.50 C 42.25 163.35 42.19 162.19 42.13 161.04 C 44.40 158.96 46.66 156.86 49.01 154.86 Z" />
</g>
<g id="#312d23ff">
<path fill="#312d23" opacity="1.00" d=" M 60.03 152.07 C 64.34 156.58 69.90 159.77 73.57 164.92 C 71.99 165.94 70.42 166.97 68.78 167.89 C 65.16 168.34 61.51 167.69 57.88 167.59 C 53.77 167.31 49.43 167.77 45.64 165.83 C 50.65 164.15 55.95 163.50 60.93 161.77 C 62.94 158.84 60.86 155.11 60.03 152.07 Z" />
</g>
<g id="#6e664bff">
<path fill="#6e664b" opacity="1.00" d=" M 98.17 160.18 C 98.89 159.95 100.31 159.50 101.03 159.27 C 103.25 159.12 105.49 159.26 107.71 159.41 C 106.47 160.32 105.31 161.45 103.83 161.98 C 101.80 162.02 99.99 160.90 98.17 160.18 Z" />
</g>
</svg>
