<?xml version="1.0" encoding="UTF-8" ?>
<!DOCTYPE svg PUBLIC "-//W3C//DTD SVG 1.1//EN" "http://www.w3.org/Graphics/SVG/1.1/DTD/svg11.dtd">
<svg width="178pt" height="178pt" viewBox="0 0 178 178" version="1.1" xmlns="http://www.w3.org/2000/svg">
<g id="#000000ff">
<path fill="#000000" opacity="1.00" d=" M 94.87 8.28 C 104.06 5.86 114.32 8.31 121.61 14.36 C 128.00 19.18 132.71 25.73 137.84 31.78 C 140.64 35.10 144.42 37.66 146.33 41.68 C 148.97 46.99 148.53 53.29 151.31 58.56 C 155.75 67.32 163.05 74.67 165.38 84.44 C 166.99 93.22 166.52 102.18 166.62 111.05 C 166.78 117.61 163.79 124.43 166.83 130.73 C 165.97 132.12 165.11 133.50 164.24 134.89 C 162.95 125.23 165.24 115.48 163.49 105.87 C 161.92 96.25 157.95 87.26 155.11 78.00 C 153.52 72.10 152.15 66.10 149.69 60.48 C 146.77 53.82 139.42 49.70 138.50 42.06 C 143.12 42.87 142.96 48.80 146.57 51.06 C 145.54 46.33 142.86 40.37 137.33 39.96 C 136.90 34.08 130.10 31.09 131.19 24.84 C 125.55 19.15 118.82 14.59 111.73 10.90 C 104.47 7.92 96.48 10.09 89.21 11.93 C 84.53 13.24 79.64 13.19 74.87 13.98 C 70.57 14.68 68.00 18.93 63.75 19.75 C 61.26 20.39 58.60 20.23 56.20 21.19 C 52.16 23.43 50.13 27.80 47.10 31.09 C 38.25 41.10 29.88 51.56 20.53 61.12 C 22.51 71.01 15.13 79.25 14.74 88.85 C 14.21 96.58 13.31 104.38 14.21 112.12 C 14.41 115.00 16.23 117.36 17.03 120.07 C 17.58 123.01 17.21 126.08 18.04 128.98 C 19.89 136.04 23.94 142.42 24.63 149.80 C 23.36 148.57 22.05 147.36 21.00 145.93 C 17.28 136.45 16.06 126.18 12.32 116.69 C 12.43 124.76 14.40 132.77 16.92 140.41 C 14.64 137.57 12.07 134.56 11.68 130.79 C 11.03 125.83 9.68 120.97 9.27 115.98 C 9.26 102.34 9.30 88.69 9.25 75.05 C 9.28 72.97 9.03 70.80 9.94 68.86 C 12.38 70.74 12.04 74.20 12.24 76.95 C 12.07 81.62 12.86 86.34 11.97 90.97 C 11.08 95.03 11.46 99.22 10.78 103.32 C 11.00 103.70 11.45 104.47 11.67 104.85 C 12.91 102.77 12.93 100.35 12.63 98.02 C 12.14 94.05 12.77 90.08 12.83 86.11 C 12.62 80.32 18.01 75.86 17.09 69.97 C 16.63 71.76 15.67 72.95 14.22 73.55 C 13.30 67.25 17.88 61.89 17.73 55.77 C 18.66 56.36 19.92 57.11 20.71 55.86 C 27.54 48.32 34.53 40.90 40.82 32.89 C 45.51 27.11 50.07 20.58 57.12 17.54 C 60.23 15.96 63.81 16.27 67.12 15.47 C 70.63 14.62 73.51 12.18 77.04 11.38 C 82.92 9.99 88.99 9.69 94.87 8.28 M 156.30 70.72 C 157.51 77.79 160.62 84.32 163.12 90.99 C 163.70 83.58 159.79 76.93 156.30 70.72 Z" />
<path fill="#000000" opacity="1.00" d=" M 110.96 35.13 C 116.10 33.45 122.19 34.17 126.45 37.64 C 131.34 41.74 135.32 46.79 139.24 51.79 C 143.31 57.41 147.00 63.88 146.96 71.03 C 147.12 79.16 139.21 86.76 131.04 85.64 C 120.93 85.42 108.82 84.57 102.23 75.77 C 98.51 70.62 93.58 64.86 95.55 58.00 C 98.10 48.77 109.25 44.88 110.96 35.13 M 118.30 37.35 C 112.61 42.21 106.12 46.26 101.37 52.15 C 98.58 55.85 96.38 61.08 98.68 65.55 C 101.45 71.48 105.43 77.45 111.76 79.96 C 119.21 83.16 127.80 84.57 135.78 82.78 C 140.77 81.80 144.26 76.99 144.22 72.01 C 144.17 64.34 140.34 57.18 135.35 51.54 C 135.13 53.53 135.78 55.81 134.49 57.54 C 129.77 58.05 124.55 57.87 120.59 54.91 C 120.36 51.46 119.99 47.27 122.83 44.73 C 124.21 43.81 125.94 43.83 127.53 43.60 C 126.59 39.63 122.36 36.42 118.30 37.35 Z" />
<path fill="#000000" opacity="1.00" d=" M 18.97 51.89 C 19.91 52.71 20.07 53.91 19.45 55.50 L 19.01 55.50 C 19.00 54.60 18.98 52.79 18.97 51.89 Z" />
<path fill="#000000" opacity="1.00" d=" M 36.27 64.24 C 46.36 54.57 64.77 54.89 73.71 65.99 C 72.22 66.96 70.70 67.86 69.18 68.77 C 70.22 70.30 72.57 71.42 72.25 73.56 C 65.91 70.54 63.70 62.57 57.00 60.01 C 49.20 57.47 40.67 62.22 36.73 68.92 C 39.11 69.22 41.78 69.68 43.28 71.79 C 45.83 74.46 45.24 79.14 42.35 81.33 C 40.34 82.96 37.63 82.86 35.20 82.89 C 34.45 89.12 36.20 96.72 42.37 99.62 C 47.00 101.31 52.95 101.55 56.78 97.97 C 62.79 92.90 68.11 86.94 72.21 80.22 C 74.58 76.25 73.66 71.45 72.68 67.22 C 78.25 67.65 77.14 74.31 75.95 78.02 C 72.68 86.00 66.75 92.56 60.70 98.57 C 56.78 102.85 50.38 104.40 44.86 102.77 C 40.41 101.53 36.65 98.61 33.56 95.26 C 34.77 90.47 32.33 86.11 30.50 81.89 C 28.96 75.55 31.49 68.58 36.27 64.24 Z" />
<path fill="#000000" opacity="1.00" d=" M 115.95 116.86 C 116.15 114.60 119.56 114.95 120.08 116.86 C 122.68 122.88 120.76 129.61 121.27 135.94 C 119.26 138.63 117.18 141.36 114.36 143.25 C 109.32 146.84 102.72 145.81 96.92 145.58 C 91.33 145.51 86.27 142.27 82.85 138.01 C 80.26 134.79 79.46 130.34 81.04 126.48 C 86.39 127.60 84.65 134.76 88.75 137.28 C 94.01 141.11 100.93 141.12 107.12 140.38 C 110.55 139.71 114.44 138.36 116.15 135.06 C 116.93 129.00 115.29 122.92 115.95 116.86 Z" />
</g>
<g id="#ffffffff">
<path fill="#ffffff" opacity="1.00" d=" M 89.21 11.93 C 96.48 10.09 104.47 7.92 111.73 10.90 C 118.82 14.59 125.55 19.15 131.19 24.84 C 130.10 31.09 136.90 34.08 137.33 39.96 C 142.86 40.37 145.54 46.33 146.57 51.06 C 142.96 48.80 143.12 42.87 138.50 42.06 C 139.42 49.70 146.77 53.82 149.69 60.48 C 152.15 66.10 153.52 72.10 155.11 78.00 C 157.95 87.26 161.92 96.25 163.49 105.87 C 165.24 115.48 162.95 125.23 164.24 134.89 C 154.81 150.65 140.09 163.12 123.22 170.32 C 121.60 171.14 119.76 171.00 118.01 171.02 C 97.29 170.92 76.57 171.12 55.86 170.92 C 44.08 166.37 33.14 159.14 24.63 149.80 C 23.94 142.42 19.89 136.04 18.04 128.98 C 17.21 126.08 17.58 123.01 17.03 120.07 C 16.23 117.36 14.41 115.00 14.21 112.12 C 13.31 104.38 14.21 96.58 14.74 88.85 C 15.13 79.25 22.51 71.01 20.53 61.12 C 29.88 51.56 38.25 41.10 47.10 31.09 C 50.13 27.80 52.16 23.43 56.20 21.19 C 58.60 20.23 61.26 20.39 63.75 19.75 C 68.00 18.93 70.57 14.68 74.87 13.98 C 79.64 13.19 84.53 13.24 89.21 11.93 M 110.96 35.13 C 109.25 44.88 98.10 48.77 95.55 58.00 C 93.58 64.86 98.51 70.62 102.23 75.77 C 108.82 84.57 120.93 85.42 131.04 85.64 C 139.21 86.76 147.12 79.16 146.96 71.03 C 147.00 63.88 143.31 57.41 139.24 51.79 C 135.32 46.79 131.34 41.74 126.45 37.64 C 122.19 34.17 116.10 33.45 110.96 35.13 M 36.27 64.24 C 31.49 68.58 28.96 75.55 30.50 81.89 C 32.33 86.11 34.77 90.47 33.56 95.26 C 36.65 98.61 40.41 101.53 44.86 102.77 C 50.38 104.40 56.78 102.85 60.70 98.57 C 66.75 92.56 72.68 86.00 75.95 78.02 C 77.14 74.31 78.25 67.65 72.68 67.22 C 73.66 71.45 74.58 76.25 72.21 80.22 C 68.11 86.94 62.79 92.90 56.78 97.97 C 52.95 101.55 47.00 101.31 42.37 99.62 C 36.20 96.72 34.45 89.12 35.20 82.89 C 37.63 82.86 40.34 82.96 42.35 81.33 C 45.24 79.14 45.83 74.46 43.28 71.79 C 41.78 69.68 39.11 69.22 36.73 68.92 C 40.67 62.22 49.20 57.47 57.00 60.01 C 63.70 62.57 65.91 70.54 72.25 73.56 C 72.57 71.42 70.22 70.30 69.18 68.77 C 70.70 67.86 72.22 66.96 73.71 65.99 C 64.77 54.89 46.36 54.57 36.27 64.24 M 115.95 116.86 C 115.29 122.92 116.93 129.00 116.15 135.06 C 114.44 138.36 110.55 139.71 107.12 140.38 C 100.93 141.12 94.01 141.11 88.75 137.28 C 84.65 134.76 86.39 127.60 81.04 126.48 C 79.46 130.34 80.26 134.79 82.85 138.01 C 86.27 142.27 91.33 145.51 96.92 145.58 C 102.72 145.81 109.32 146.84 114.36 143.25 C 117.18 141.36 119.26 138.63 121.27 135.94 C 120.76 129.61 122.68 122.88 120.08 116.86 C 119.56 114.95 116.15 114.60 115.95 116.86 Z" />
<path fill="#ffffff" opacity="1.00" d=" M 118.30 37.35 C 122.36 36.42 126.59 39.63 127.53 43.60 C 125.94 43.83 124.21 43.81 122.83 44.73 C 119.99 47.27 120.36 51.46 120.59 54.91 C 124.55 57.87 129.77 58.05 134.49 57.54 C 135.78 55.81 135.13 53.53 135.35 51.54 C 140.34 57.18 144.17 64.34 144.22 72.01 C 144.26 76.99 140.77 81.80 135.78 82.78 C 127.80 84.57 119.21 83.16 111.76 79.96 C 105.43 77.45 101.45 71.48 98.68 65.55 C 96.38 61.08 98.58 55.85 101.37 52.15 C 106.12 46.26 112.61 42.21 118.30 37.35 Z" />
<path fill="#ffffff" opacity="1.00" d=" M 156.30 70.72 C 159.79 76.93 163.70 83.58 163.12 90.99 C 160.62 84.32 157.51 77.79 156.30 70.72 Z" />
<path fill="#ffffff" opacity="1.00" d=" M 16.92 140.41 C 14.40 132.77 12.43 124.76 12.32 116.69 C 16.06 126.18 17.28 136.45 21.00 145.93 C 19.56 144.16 18.03 142.42 16.92 140.41 Z" />
</g>
</svg>
