<?xml version="1.0" encoding="UTF-8" ?>
<!DOCTYPE svg PUBLIC "-//W3C//DTD SVG 1.1//EN" "http://www.w3.org/Graphics/SVG/1.1/DTD/svg11.dtd">
<svg width="178pt" height="178pt" viewBox="0 0 178 178" version="1.1" xmlns="http://www.w3.org/2000/svg">
<g id="#000000ff">
<path fill="#000000" opacity="1.00" d=" M 38.64 25.68 C 43.50 23.19 50.12 25.63 52.16 30.70 C 53.28 33.70 52.38 36.92 51.99 39.97 C 55.92 44.13 60.00 48.13 64.10 52.12 C 72.12 47.98 80.82 44.45 90.03 44.89 C 98.56 44.89 106.43 48.53 113.86 52.35 C 117.92 48.25 121.90 44.07 125.83 39.83 C 125.47 36.38 124.57 32.58 126.42 29.39 C 128.99 24.45 136.17 23.20 140.49 26.55 C 142.74 28.08 143.40 30.92 145.19 32.83 C 147.81 34.81 151.29 36.20 152.42 39.58 C 154.49 44.39 151.19 49.91 146.45 51.46 C 143.50 52.74 140.14 51.14 137.24 52.11 C 133.11 55.83 129.10 59.71 125.36 63.82 C 127.00 66.55 128.45 69.38 129.73 72.29 C 137.19 74.30 144.97 75.57 151.93 79.06 C 153.25 79.89 155.26 80.91 154.76 82.80 C 154.20 84.15 152.85 84.92 151.63 85.61 C 145.49 88.77 138.55 89.75 132.08 91.97 C 131.24 93.07 131.28 94.57 130.88 95.85 C 129.77 101.56 126.60 106.58 123.23 111.22 C 127.90 116.04 132.60 120.85 137.48 125.45 C 140.69 126.01 144.22 123.97 147.35 125.69 C 152.30 127.66 154.18 134.14 151.67 138.68 C 150.33 141.62 147.21 142.89 144.88 144.87 C 142.90 147.46 141.67 151.04 138.29 152.18 C 133.81 153.97 128.84 151.42 126.52 147.45 C 124.46 144.38 125.53 140.56 125.93 137.17 C 121.07 132.31 116.13 127.53 111.08 122.87 C 110.33 121.95 109.14 122.64 108.22 122.76 C 110.29 128.70 113.37 135.38 110.50 141.59 C 108.20 147.57 102.14 151.10 96.11 152.33 C 89.28 154.03 81.75 153.75 75.39 150.58 C 70.57 148.05 67.20 143.10 66.37 137.75 C 65.94 132.48 68.45 127.63 69.56 122.60 C 68.96 122.46 67.77 122.17 67.17 122.02 C 62.44 126.66 57.74 131.35 53.08 136.06 C 50.42 138.41 53.20 142.05 52.47 145.02 C 51.73 151.25 43.80 154.19 38.65 151.28 C 35.89 150.05 34.87 147.02 33.19 144.75 C 30.83 142.83 27.60 141.77 26.17 138.88 C 23.19 133.47 26.80 125.63 33.17 125.20 C 35.97 124.64 39.44 127.21 41.62 124.61 C 45.93 120.14 50.51 115.91 54.58 111.21 C 51.31 106.51 48.63 101.36 47.28 95.77 C 46.80 94.57 46.81 93.03 45.78 92.13 C 38.65 89.83 30.65 89.06 24.58 84.31 C 22.45 82.65 24.01 79.86 26.03 78.99 C 32.96 75.22 40.92 73.96 48.57 72.43 C 49.85 69.58 51.10 66.71 52.43 63.89 C 48.54 59.48 44.22 55.50 39.96 51.46 C 36.85 52.11 33.43 53.09 30.42 51.56 C 24.24 48.75 23.28 38.78 28.91 34.93 C 30.39 33.76 32.47 33.25 33.45 31.53 C 34.87 29.35 36.08 26.74 38.64 25.68 M 38.04 30.02 C 36.62 31.61 36.85 33.86 36.66 35.82 C 33.62 35.86 29.95 36.64 28.93 39.96 C 26.99 43.45 29.68 47.92 33.36 48.75 C 35.79 49.64 38.10 48.11 40.13 46.96 C 44.90 51.64 49.52 56.46 54.21 61.22 C 56.45 58.90 59.60 56.97 60.91 54.03 C 56.55 49.17 51.89 44.58 47.38 39.86 C 48.66 37.54 50.07 34.84 49.07 32.14 C 47.71 27.68 41.03 26.62 38.04 30.02 M 128.74 31.72 C 127.65 34.54 128.94 37.43 130.21 39.93 C 125.70 44.76 121.03 49.44 116.48 54.22 C 118.65 56.64 120.99 58.89 123.26 61.21 C 128.21 56.77 132.65 51.79 137.31 47.05 C 139.58 48.05 142.08 49.72 144.64 48.68 C 148.01 47.62 150.62 43.62 148.87 40.22 C 147.98 36.82 144.25 35.77 141.15 35.86 C 140.86 33.95 141.16 31.71 139.78 30.15 C 136.87 26.72 130.55 27.58 128.74 31.72 M 55.69 65.87 C 77.75 63.24 100.12 62.99 122.16 65.97 C 117.42 57.89 109.34 51.84 100.23 49.62 C 83.96 45.15 64.92 51.49 55.69 65.87 M 53.74 68.73 C 53.20 69.89 52.65 71.04 52.09 72.19 C 57.88 71.75 63.66 71.06 69.45 70.57 C 88.26 69.18 107.16 70.09 125.88 72.20 C 125.34 71.06 124.80 69.91 124.27 68.77 C 100.98 65.07 77.03 64.89 53.74 68.73 M 47.59 75.80 C 40.78 77.20 33.77 78.53 27.67 82.04 C 33.01 85.66 39.34 87.68 45.76 88.12 C 45.94 86.87 46.13 85.61 46.33 84.36 C 62.61 77.64 80.65 77.37 98.00 77.85 C 109.31 78.67 121.01 79.54 131.38 84.54 C 131.67 85.72 131.95 86.91 132.23 88.09 C 138.43 87.02 144.65 85.33 150.17 82.22 C 137.16 75.57 122.32 74.00 107.96 72.82 C 87.81 71.64 67.50 72.41 47.59 75.80 M 49.07 85.42 C 49.34 95.92 53.36 106.65 61.36 113.67 C 68.88 120.44 79.09 123.31 89.00 123.96 C 100.53 123.45 112.38 118.98 119.91 109.95 C 125.63 103.21 128.27 94.40 128.75 85.69 C 119.50 81.85 109.34 81.14 99.46 80.36 C 82.58 79.76 65.22 79.92 49.07 85.42 M 40.16 130.15 C 38.75 129.43 37.40 128.48 35.81 128.21 C 31.22 127.46 26.54 132.83 28.92 137.18 C 29.91 140.50 33.63 141.29 36.66 141.23 C 36.81 142.98 36.68 144.84 37.52 146.44 C 40.12 150.62 47.82 149.77 49.09 144.88 C 50.06 142.19 48.60 139.56 47.39 137.24 C 53.24 131.55 58.86 125.62 64.60 119.82 C 62.10 117.72 59.53 115.70 56.92 113.74 C 51.15 119.02 45.94 124.87 40.16 130.15 M 113.41 119.84 C 119.14 125.64 124.77 131.55 130.61 137.24 C 129.38 139.57 127.95 142.19 128.86 144.90 C 130.12 149.27 136.32 150.38 139.55 147.56 C 141.36 145.97 141.19 143.40 141.33 141.23 C 144.38 141.30 148.07 140.50 149.09 137.19 C 151.02 133.64 148.22 129.32 144.62 128.36 C 142.17 127.54 139.87 129.01 137.83 130.17 C 132.05 124.88 126.84 119.01 121.07 113.71 C 118.47 115.70 115.90 117.71 113.41 119.84 M 100.52 125.75 C 100.98 127.08 101.43 128.41 101.88 129.75 C 103.51 129.13 105.14 128.50 106.78 127.88 C 106.29 126.67 105.80 125.47 105.33 124.25 C 103.69 124.61 102.08 125.13 100.52 125.75 M 71.16 127.83 C 72.82 128.47 74.48 129.12 76.14 129.76 C 76.59 128.42 77.04 127.08 77.49 125.75 C 75.98 125.19 74.46 124.68 72.93 124.18 C 72.34 125.39 71.75 126.61 71.16 127.83 M 90.14 127.21 C 90.13 128.76 90.13 130.30 90.14 131.85 C 93.36 131.86 96.58 131.48 99.58 130.23 C 99.30 128.87 99.04 127.51 98.78 126.14 C 95.90 126.52 93.03 126.89 90.14 127.21 M 78.99 126.32 C 78.87 127.31 78.63 129.28 78.51 130.27 C 81.45 131.51 84.63 131.89 87.80 131.82 C 87.84 130.28 87.87 128.74 87.90 127.21 C 84.94 126.83 81.98 126.46 78.99 126.32 M 70.87 129.93 C 70.50 131.36 69.26 133.09 70.37 134.48 C 71.81 135.35 73.36 136.01 74.87 136.73 C 75.25 135.17 75.62 133.61 76.00 132.05 C 74.30 131.31 72.58 130.62 70.87 129.93 M 101.95 131.99 C 102.34 133.56 102.73 135.14 103.13 136.72 C 104.65 136.01 106.20 135.35 107.66 134.51 C 108.71 133.03 107.57 131.43 107.15 129.96 C 105.41 130.62 103.67 131.28 101.95 131.99 M 78.05 132.60 C 77.64 134.08 77.22 135.56 76.78 137.04 C 80.27 138.61 84.08 139.29 87.89 139.28 C 87.88 137.48 87.87 135.69 87.86 133.90 C 84.58 133.59 81.30 133.19 78.05 132.60 M 90.14 133.90 C 90.13 135.70 90.11 137.50 90.10 139.31 C 93.79 139.30 97.41 138.52 100.91 137.40 C 100.73 135.78 100.40 134.18 100.04 132.60 C 96.76 133.18 93.46 133.58 90.14 133.90 M 69.83 136.88 C 70.03 141.29 72.30 145.66 76.43 147.54 C 84.43 151.25 94.21 151.14 102.06 147.12 C 105.88 145.17 107.76 140.99 108.17 136.89 C 103.43 138.75 98.70 140.85 93.57 141.35 C 85.38 142.64 77.23 140.21 69.83 136.88 Z" />
<path fill="#000000" opacity="1.00" d=" M 68.29 86.18 C 73.75 84.83 79.74 87.82 82.04 92.93 C 85.14 99.29 81.39 107.82 74.50 109.63 C 68.33 111.78 61.07 107.74 59.32 101.52 C 57.11 95.08 61.63 87.45 68.29 86.18 Z" />
<path fill="#000000" opacity="1.00" d=" M 104.29 86.18 C 111.58 84.23 119.44 90.48 119.21 98.00 C 119.48 105.82 110.92 112.27 103.50 109.64 C 96.35 107.77 92.61 98.68 96.30 92.29 C 97.96 89.28 100.87 86.87 104.29 86.18 Z" />
<path fill="#000000" opacity="1.00" d=" M 87.50 109.49 C 91.14 108.07 95.00 112.33 93.27 115.81 C 92.00 119.38 86.39 119.53 84.85 116.12 C 83.35 113.68 84.93 110.40 87.50 109.49 Z" />
</g>
<g id="#ffffffff">
<path fill="#ffffff" opacity="1.00" d=" M 38.04 30.02 C 41.03 26.62 47.71 27.68 49.07 32.14 C 50.07 34.84 48.66 37.54 47.38 39.86 C 51.89 44.58 56.55 49.17 60.91 54.03 C 59.60 56.97 56.45 58.90 54.21 61.22 C 49.52 56.46 44.90 51.64 40.13 46.96 C 38.10 48.11 35.79 49.64 33.36 48.75 C 29.68 47.92 26.99 43.45 28.93 39.96 C 29.95 36.64 33.62 35.86 36.66 35.82 C 36.85 33.86 36.62 31.61 38.04 30.02 Z" />
<path fill="#ffffff" opacity="1.00" d=" M 128.74 31.72 C 130.55 27.58 136.87 26.72 139.78 30.15 C 141.16 31.71 140.86 33.95 141.15 35.86 C 144.25 35.77 147.98 36.82 148.87 40.22 C 150.62 43.62 148.01 47.62 144.64 48.68 C 142.08 49.72 139.58 48.05 137.31 47.05 C 132.65 51.79 128.21 56.77 123.26 61.21 C 120.99 58.89 118.65 56.64 116.48 54.22 C 121.03 49.44 125.70 44.76 130.21 39.93 C 128.94 37.43 127.65 34.54 128.74 31.72 Z" />
<path fill="#ffffff" opacity="1.00" d=" M 49.07 85.42 C 65.22 79.92 82.58 79.76 99.46 80.36 C 109.34 81.14 119.50 81.85 128.75 85.69 C 128.27 94.40 125.63 103.21 119.91 109.95 C 112.38 118.98 100.53 123.45 89.00 123.96 C 79.09 123.31 68.88 120.44 61.36 113.67 C 53.36 106.65 49.34 95.92 49.07 85.42 M 68.29 86.18 C 61.63 87.45 57.11 95.08 59.32 101.52 C 61.07 107.74 68.33 111.78 74.50 109.63 C 81.39 107.82 85.14 99.29 82.04 92.93 C 79.74 87.82 73.75 84.83 68.29 86.18 M 104.29 86.18 C 100.87 86.87 97.96 89.28 96.30 92.29 C 92.61 98.68 96.35 107.77 103.50 109.64 C 110.92 112.27 119.48 105.82 119.21 98.00 C 119.44 90.48 111.58 84.23 104.29 86.18 M 87.50 109.49 C 84.93 110.40 83.35 113.68 84.85 116.12 C 86.39 119.53 92.00 119.38 93.27 115.81 C 95.00 112.33 91.14 108.07 87.50 109.49 Z" />
<path fill="#ffffff" opacity="1.00" d=" M 40.16 130.15 C 45.94 124.87 51.15 119.02 56.92 113.74 C 59.53 115.70 62.10 117.72 64.60 119.82 C 58.86 125.62 53.24 131.55 47.39 137.24 C 48.60 139.56 50.06 142.19 49.09 144.88 C 47.82 149.77 40.12 150.62 37.52 146.44 C 36.68 144.84 36.81 142.98 36.66 141.23 C 33.63 141.29 29.91 140.50 28.92 137.18 C 26.54 132.83 31.22 127.46 35.81 128.21 C 37.40 128.48 38.75 129.43 40.16 130.15 Z" />
<path fill="#ffffff" opacity="1.00" d=" M 113.41 119.84 C 115.90 117.71 118.47 115.70 121.07 113.71 C 126.84 119.01 132.05 124.88 137.83 130.17 C 139.87 129.01 142.17 127.54 144.62 128.36 C 148.22 129.32 151.02 133.64 149.09 137.19 C 148.07 140.50 144.38 141.30 141.33 141.23 C 141.19 143.40 141.36 145.97 139.55 147.56 C 136.32 150.38 130.12 149.27 128.86 144.90 C 127.95 142.19 129.38 139.57 130.61 137.24 C 124.77 131.55 119.14 125.64 113.41 119.84 Z" />
<path fill="#ffffff" opacity="1.00" d=" M 100.52 125.75 C 102.08 125.13 103.69 124.61 105.33 124.25 C 105.80 125.47 106.29 126.67 106.78 127.88 C 105.14 128.50 103.51 129.13 101.88 129.75 C 101.43 128.41 100.98 127.08 100.52 125.75 Z" />
<path fill="#ffffff" opacity="1.00" d=" M 71.16 127.83 C 71.75 126.61 72.34 125.39 72.93 124.18 C 74.46 124.68 75.98 125.19 77.49 125.75 C 77.04 127.08 76.59 128.42 76.14 129.76 C 74.48 129.12 72.82 128.47 71.16 127.83 Z" />
<path fill="#ffffff" opacity="1.00" d=" M 90.14 127.21 C 93.03 126.89 95.90 126.52 98.78 126.14 C 99.04 127.51 99.30 128.87 99.58 130.23 C 96.58 131.48 93.36 131.86 90.14 131.85 C 90.13 130.30 90.13 128.76 90.14 127.21 Z" />
<path fill="#ffffff" opacity="1.00" d=" M 78.99 126.32 C 81.98 126.46 84.94 126.83 87.90 127.21 C 87.87 128.74 87.84 130.28 87.80 131.82 C 84.63 131.89 81.45 131.51 78.51 130.27 C 78.63 129.28 78.87 127.31 78.99 126.32 Z" />
<path fill="#ffffff" opacity="1.00" d=" M 70.87 129.93 C 72.58 130.62 74.30 131.31 76.00 132.05 C 75.62 133.61 75.25 135.17 74.87 136.73 C 73.36 136.01 71.81 135.35 70.37 134.48 C 69.26 133.09 70.50 131.36 70.87 129.93 Z" />
<path fill="#ffffff" opacity="1.00" d=" M 101.95 131.99 C 103.67 131.28 105.41 130.62 107.15 129.96 C 107.57 131.43 108.71 133.03 107.66 134.51 C 106.20 135.35 104.65 136.01 103.13 136.72 C 102.73 135.14 102.34 133.56 101.95 131.99 Z" />
<path fill="#ffffff" opacity="1.00" d=" M 78.05 132.60 C 81.30 133.19 84.58 133.59 87.86 133.90 C 87.87 135.69 87.88 137.48 87.89 139.28 C 84.08 139.29 80.27 138.61 76.78 137.04 C 77.22 135.56 77.64 134.08 78.05 132.60 Z" />
<path fill="#ffffff" opacity="1.00" d=" M 90.14 133.90 C 93.46 133.58 96.76 133.18 100.04 132.60 C 100.40 134.18 100.73 135.78 100.91 137.40 C 97.41 138.52 93.79 139.30 90.10 139.31 C 90.11 137.50 90.13 135.70 90.14 133.90 Z" />
<path fill="#ffffff" opacity="1.00" d=" M 69.83 136.88 C 77.23 140.21 85.38 142.64 93.57 141.35 C 98.70 140.85 103.43 138.75 108.17 136.89 C 107.76 140.99 105.88 145.17 102.06 147.12 C 94.21 151.14 84.43 151.25 76.43 147.54 C 72.30 145.66 70.03 141.29 69.83 136.88 Z" />
</g>
<g id="#ffff00ff">
<path fill="#ffff00" opacity="1.00" d=" M 55.69 65.87 C 64.92 51.49 83.96 45.15 100.23 49.62 C 109.34 51.84 117.42 57.89 122.16 65.97 C 100.12 62.99 77.75 63.24 55.69 65.87 Z" />
<path fill="#ffff00" opacity="1.00" d=" M 47.59 75.80 C 67.50 72.41 87.81 71.64 107.96 72.82 C 122.32 74.00 137.16 75.57 150.17 82.22 C 144.65 85.33 138.43 87.02 132.23 88.09 C 131.95 86.91 131.67 85.72 131.38 84.54 C 121.01 79.54 109.31 78.67 98.00 77.85 C 80.65 77.37 62.61 77.64 46.33 84.36 C 46.13 85.61 45.94 86.87 45.76 88.12 C 39.34 87.68 33.01 85.66 27.67 82.04 C 33.77 78.53 40.78 77.20 47.59 75.80 Z" />
</g>
<g id="#ff0000ff">
<path fill="#ff0000" opacity="1.00" d=" M 53.74 68.73 C 77.03 64.89 100.98 65.07 124.27 68.77 C 124.80 69.91 125.34 71.06 125.88 72.20 C 107.16 70.09 88.26 69.18 69.45 70.57 C 63.66 71.06 57.88 71.75 52.09 72.19 C 52.65 71.04 53.20 69.89 53.74 68.73 Z" />
</g>
</svg>
