<?xml version="1.0" encoding="UTF-8" ?>
<!DOCTYPE svg PUBLIC "-//W3C//DTD SVG 1.1//EN" "http://www.w3.org/Graphics/SVG/1.1/DTD/svg11.dtd">
<svg width="178pt" height="178pt" viewBox="0 0 178 178" version="1.1" xmlns="http://www.w3.org/2000/svg">
<g id="#000000ff">
<path fill="#000000" opacity="1.00" d=" M 60.66 13.69 C 61.41 10.58 63.73 8.07 66.18 6.13 C 73.60 6.06 81.19 5.54 88.54 6.39 C 93.48 11.45 98.45 16.48 103.46 21.46 C 103.91 28.04 103.52 34.67 103.57 41.27 C 101.91 42.44 100.33 43.72 98.73 44.98 C 98.78 51.23 98.66 57.48 98.83 63.72 C 101.28 63.69 103.48 62.76 105.18 61.00 C 106.05 61.10 107.79 61.29 108.65 61.38 C 106.84 62.69 104.90 63.80 103.00 64.97 C 104.84 65.56 106.71 66.08 108.57 66.63 C 103.22 72.34 96.42 77.18 93.95 84.98 C 93.65 85.14 93.05 85.46 92.75 85.62 C 89.08 87.55 85.39 89.79 81.12 89.98 C 77.80 90.09 74.81 93.31 71.47 91.86 C 67.35 89.75 63.21 87.67 59.17 85.41 C 56.03 81.57 52.67 77.76 48.43 75.11 C 48.50 72.44 48.68 69.77 48.37 67.11 C 47.01 65.42 45.47 63.04 42.98 63.40 C 39.57 62.81 35.53 66.32 36.56 69.85 C 37.30 72.81 38.70 75.56 39.50 78.51 C 40.99 84.27 45.43 88.49 50.12 91.83 C 53.13 96.24 54.70 101.45 55.68 106.65 C 55.01 106.26 53.66 105.48 52.99 105.10 C 50.76 103.32 51.06 99.99 48.73 98.29 C 43.85 93.76 39.45 88.73 34.48 84.30 C 33.98 87.14 34.42 90.33 32.58 92.76 C 31.25 94.82 31.61 97.44 31.88 99.74 C 34.33 105.02 37.25 110.08 39.54 115.45 C 41.66 118.55 45.77 118.85 48.47 121.27 C 51.33 123.28 54.09 126.28 57.92 125.78 C 66.56 125.61 75.22 126.03 83.84 125.57 C 90.40 123.52 97.61 121.70 102.34 116.33 C 104.88 113.97 106.30 110.78 108.07 107.87 C 105.46 104.76 102.98 101.44 101.43 97.67 C 100.92 94.88 100.96 92.02 100.69 89.21 C 98.91 90.92 97.20 92.71 95.47 94.49 C 92.16 97.61 87.51 98.62 83.66 100.93 C 82.20 100.89 80.75 100.77 79.30 100.65 C 84.26 97.71 90.04 96.06 94.37 92.11 C 96.08 90.09 96.77 87.54 96.63 84.92 C 97.75 84.87 98.87 84.79 99.99 84.70 C 101.67 78.12 106.95 73.29 110.87 67.96 C 111.54 67.33 112.21 66.71 112.90 66.10 C 116.69 65.53 120.26 64.06 123.61 62.23 C 121.91 61.79 120.20 61.39 118.46 61.16 C 115.40 61.05 112.33 61.14 109.28 60.95 C 108.93 60.43 108.25 59.39 107.91 58.87 C 112.52 58.49 117.15 58.59 121.78 58.70 C 125.97 65.50 136.64 64.60 139.07 72.87 C 135.53 70.27 131.96 67.45 127.71 66.14 C 123.47 65.08 119.43 67.29 115.56 68.69 C 115.46 69.17 115.27 70.14 115.17 70.63 C 121.14 70.65 127.59 69.82 132.98 73.02 C 137.30 75.17 138.35 80.34 139.51 84.57 C 138.97 84.78 137.88 85.18 137.33 85.38 C 136.80 88.78 137.38 92.25 136.78 95.63 C 135.62 98.04 134.57 100.63 132.59 102.51 C 131.34 103.77 129.90 105.08 129.98 107.03 C 129.83 110.97 127.00 113.95 125.39 117.35 C 124.80 119.96 125.47 122.83 124.21 125.27 C 121.44 130.07 123.26 135.83 122.76 141.06 C 123.09 143.46 121.05 145.11 120.47 147.25 C 120.05 151.10 119.87 155.28 122.44 158.47 C 123.20 162.53 122.62 166.73 122.65 170.84 C 122.04 170.84 120.81 170.85 120.20 170.85 C 120.53 166.20 120.34 161.54 120.37 156.89 C 119.75 156.88 118.50 156.88 117.88 156.88 C 117.81 162.08 117.81 167.30 118.46 172.47 C 115.99 173.37 113.46 174.11 110.85 174.46 C 110.72 167.31 110.66 160.14 110.78 152.98 C 110.76 150.40 113.42 148.64 113.19 146.03 C 113.09 143.48 110.74 141.64 110.78 139.06 C 110.49 129.60 111.15 120.11 110.44 110.66 C 106.36 114.20 102.92 118.41 98.83 121.93 C 94.76 125.25 89.43 125.75 84.76 127.78 C 82.09 128.20 79.36 128.17 76.68 128.57 C 78.44 130.49 80.29 132.34 82.25 134.07 C 79.24 136.93 76.49 140.46 72.02 140.85 C 73.74 142.59 75.60 144.21 77.10 146.16 C 77.41 149.02 77.51 151.95 77.03 154.79 C 76.07 157.05 74.92 159.23 74.39 161.65 C 71.73 161.46 69.03 161.56 66.44 160.89 C 64.48 159.82 62.99 158.09 61.34 156.62 C 59.49 158.65 58.07 161.02 57.53 163.74 C 59.11 163.75 60.69 163.72 62.27 163.73 C 62.79 163.82 63.83 164.00 64.35 164.09 C 69.22 166.89 74.47 169.37 80.24 169.21 C 82.49 169.38 84.75 169.68 87.01 169.51 C 87.78 168.44 88.38 167.28 88.95 166.10 C 89.17 165.64 89.60 164.71 89.81 164.24 C 86.33 163.94 82.83 163.98 79.34 164.06 C 77.78 164.06 76.22 164.06 74.67 164.02 C 74.82 163.44 75.12 162.27 75.27 161.69 C 79.45 161.56 83.67 161.37 87.83 161.84 C 89.25 162.75 90.53 163.85 91.89 164.85 C 92.09 169.25 89.05 172.77 88.79 177.08 C 84.47 177.28 80.14 176.97 75.85 176.39 C 79.84 176.70 83.82 176.20 87.74 175.49 C 84.71 173.63 81.65 171.37 77.97 171.16 C 73.19 170.73 68.74 168.76 64.30 167.06 C 61.35 166.00 58.30 165.20 55.30 164.27 C 56.19 166.91 57.18 169.50 58.07 172.13 C 57.64 171.67 56.79 170.74 56.36 170.28 C 55.88 168.69 54.13 168.14 52.85 169.22 C 51.30 169.28 49.93 168.24 48.51 167.73 C 49.49 165.79 50.41 163.81 51.28 161.82 C 52.97 160.44 54.60 159.00 56.27 157.60 C 56.82 157.15 57.92 156.24 58.47 155.79 C 58.23 154.72 57.97 153.66 57.71 152.60 C 57.40 152.32 56.78 151.74 56.48 151.45 L 55.74 150.78 C 55.37 150.45 54.62 149.78 54.25 149.45 C 50.75 150.64 47.62 152.67 44.30 154.24 C 42.14 155.26 40.03 153.73 38.14 152.85 C 36.20 151.78 33.91 152.04 31.79 151.80 C 31.78 153.54 31.78 155.28 31.79 157.03 C 29.40 154.56 26.75 152.34 24.62 149.63 C 26.13 150.38 27.42 151.64 29.08 152.06 C 31.29 151.89 32.78 149.58 35.03 149.55 C 38.01 149.25 39.89 152.71 42.95 152.07 C 45.96 151.58 48.50 149.58 51.43 148.74 C 49.79 147.24 48.10 145.79 46.36 144.42 C 46.19 142.96 46.05 141.51 45.89 140.06 C 42.31 140.33 37.64 138.79 35.36 142.48 C 29.67 142.53 23.98 142.48 18.29 142.53 C 17.17 140.87 16.03 139.22 14.95 137.53 C 15.30 137.71 16.01 138.07 16.36 138.25 C 18.32 139.52 20.54 140.29 22.90 140.16 C 27.56 140.10 32.48 140.77 36.87 138.84 C 40.17 137.36 43.90 138.13 47.31 137.24 C 49.62 136.14 51.79 134.77 53.92 133.36 C 52.14 133.19 50.37 133.07 48.58 133.00 C 42.47 132.75 36.36 132.92 30.25 132.88 C 25.27 132.93 20.28 132.71 15.31 133.01 C 15.10 133.52 14.70 134.53 14.49 135.04 C 14.36 135.39 14.10 136.08 13.98 136.43 C 13.01 134.85 12.05 133.27 11.11 131.68 C 12.34 131.68 13.56 131.68 14.79 131.68 C 16.40 129.03 18.55 126.63 19.73 123.76 C 20.51 122.08 18.98 121.18 17.88 120.24 C 19.43 119.18 20.99 118.15 22.53 117.10 C 20.79 115.97 19.02 114.86 17.13 113.99 C 14.95 112.20 14.04 117.00 16.79 115.83 C 16.48 116.58 16.16 117.33 15.83 118.08 C 14.81 117.07 13.77 116.08 12.71 115.12 C 13.81 113.77 15.87 112.32 14.82 110.34 C 13.46 107.70 11.79 105.24 10.36 102.64 C 9.92 99.62 9.81 96.44 10.45 93.45 C 11.70 91.16 13.04 88.88 14.80 86.95 L 14.92 88.23 C 15.40 90.57 13.70 92.27 12.74 94.20 C 12.46 97.01 12.37 99.90 12.90 102.68 C 14.26 105.01 15.43 107.51 17.24 109.55 C 20.74 114.13 26.49 117.18 32.34 115.89 C 31.51 112.33 29.62 109.13 27.24 106.40 C 26.90 101.39 26.72 96.32 27.25 91.33 C 29.08 87.69 29.66 83.53 32.19 80.23 C 30.21 80.20 28.22 80.07 26.25 80.29 C 22.04 82.01 18.52 84.93 14.93 87.66 C 16.05 83.47 20.29 80.93 23.95 79.04 C 25.98 77.70 28.49 77.71 30.81 77.99 C 32.41 79.23 33.57 80.93 34.76 82.55 C 36.21 82.59 37.66 82.63 39.11 82.66 C 37.31 80.06 36.28 77.10 36.18 73.93 C 33.78 72.51 33.79 69.70 34.16 67.25 C 35.85 64.99 37.86 62.76 40.25 61.25 C 43.38 60.95 46.55 60.95 49.68 61.26 C 53.07 64.17 56.13 67.50 59.34 70.62 C 61.69 72.53 59.26 76.88 61.85 78.33 C 63.77 76.50 62.60 73.12 63.08 70.67 C 72.81 70.84 82.60 70.16 92.31 71.02 C 89.08 73.96 86.53 77.74 82.86 80.12 C 78.63 80.39 74.37 80.42 70.15 80.09 C 67.71 79.29 65.49 77.90 62.93 77.48 C 62.90 79.20 62.90 80.93 62.90 82.65 C 71.09 82.41 79.33 83.02 87.49 82.37 C 90.59 80.09 93.44 77.19 94.63 73.43 C 96.90 68.97 96.30 63.82 96.39 58.99 C 96.48 54.53 96.09 50.04 96.56 45.59 C 97.36 44.39 98.36 43.34 99.26 42.21 C 97.50 42.05 95.74 41.91 93.98 41.78 C 94.04 39.98 94.14 38.19 94.29 36.40 C 96.50 38.40 98.55 40.58 100.74 42.60 C 101.47 35.46 101.00 28.27 101.12 21.11 C 97.12 17.76 93.62 13.89 89.94 10.19 C 89.56 9.73 88.78 8.81 88.40 8.35 C 81.09 8.54 73.76 8.09 66.47 8.53 C 66.04 8.90 65.17 9.64 64.73 10.01 C 63.39 11.25 62.04 12.49 60.66 13.69 M 48.94 63.95 C 48.40 65.57 48.95 66.13 50.60 65.62 C 51.12 63.98 50.57 63.42 48.94 63.95 M 98.72 65.94 C 98.73 66.51 98.76 67.65 98.77 68.23 C 100.35 68.24 101.93 68.26 103.52 68.27 C 103.56 67.64 103.63 66.37 103.66 65.74 C 102.01 65.81 100.36 65.88 98.72 65.94 M 65.25 73.35 C 64.16 74.80 66.61 76.52 67.61 75.01 C 68.76 73.53 66.27 71.88 65.25 73.35 M 69.95 72.98 C 69.99 74.75 70.04 76.52 70.14 78.29 C 73.26 78.37 72.18 75.07 72.47 73.04 C 71.84 73.02 70.58 72.99 69.95 72.98 M 74.87 73.00 C 74.87 74.63 74.87 76.26 74.86 77.89 C 75.47 77.90 76.67 77.91 77.28 77.91 C 77.27 76.27 77.26 74.64 77.25 73.00 C 76.66 73.00 75.47 73.00 74.87 73.00 M 79.61 73.00 C 79.62 74.63 79.62 76.26 79.63 77.90 C 80.22 77.90 81.40 77.91 81.99 77.91 C 82.00 76.27 82.00 74.64 82.01 73.00 C 81.41 73.00 80.21 73.00 79.61 73.00 M 84.41 73.34 C 83.33 74.74 85.73 76.56 86.76 75.13 C 87.84 73.66 85.52 71.90 84.41 73.34 M 113.54 73.31 C 111.26 76.00 108.97 78.74 106.00 80.71 C 105.98 82.02 105.98 83.34 106.00 84.66 C 105.43 84.82 104.27 85.13 103.69 85.29 C 104.00 88.70 101.95 93.85 106.01 95.47 C 106.00 96.55 106.00 97.63 106.00 98.71 C 107.56 99.85 108.85 101.41 110.62 102.24 C 111.66 103.68 112.73 105.10 113.69 106.60 C 116.93 106.53 120.23 106.94 123.44 106.35 C 126.78 104.43 131.18 103.39 132.44 99.22 C 135.88 94.39 135.07 88.10 134.61 82.53 L 134.42 83.61 C 133.52 82.50 132.47 81.46 132.13 80.02 C 131.11 77.25 128.62 75.38 126.98 72.99 C 122.52 73.25 117.90 72.50 113.54 73.31 M 123.76 109.47 C 121.28 109.05 118.72 108.71 116.22 109.13 C 114.67 110.22 113.73 111.94 112.66 113.47 C 113.48 113.60 115.11 113.86 115.93 113.99 C 117.33 114.56 118.84 112.48 117.90 111.32 C 119.31 111.26 120.84 111.60 122.17 110.97 C 123.98 111.23 125.80 111.40 127.63 111.48 C 127.48 109.93 127.31 108.39 127.14 106.85 C 126.00 107.71 124.84 108.54 123.76 109.47 M 31.26 117.46 C 27.07 119.23 23.65 122.34 20.84 125.87 C 19.72 127.07 19.84 128.86 19.43 130.36 C 30.41 130.67 41.40 130.39 52.39 130.51 C 53.82 132.16 55.31 133.76 56.79 135.37 C 57.71 135.32 59.55 135.22 60.47 135.17 C 60.48 132.85 60.47 130.53 60.45 128.22 C 54.51 128.97 49.54 125.40 45.32 121.71 C 40.11 120.28 36.89 115.61 34.97 110.85 C 34.21 113.32 33.88 116.22 31.26 117.46 M 117.60 113.74 C 117.81 114.21 118.23 115.14 118.44 115.61 C 116.64 115.88 114.83 116.07 113.02 116.25 C 113.07 124.85 113.09 133.45 113.01 142.05 C 113.86 142.42 114.70 142.79 115.55 143.17 C 115.51 145.24 115.51 147.32 115.53 149.39 C 114.93 149.51 113.72 149.75 113.11 149.87 C 112.99 157.55 113.49 165.27 112.79 172.92 C 113.71 172.95 114.62 172.97 115.54 172.99 C 115.40 166.08 115.61 159.17 115.41 152.26 C 116.03 152.15 117.28 151.93 117.90 151.82 C 118.13 149.05 116.62 144.88 120.43 144.18 C 120.33 138.04 120.33 131.90 120.45 125.77 C 121.02 125.78 122.16 125.78 122.74 125.79 C 122.77 122.83 122.77 119.88 122.72 116.92 C 123.95 116.13 125.12 115.26 125.69 113.85 C 122.99 113.73 120.30 113.73 117.60 113.74 M 22.34 119.10 C 21.84 120.49 22.29 121.00 23.71 120.60 C 24.21 119.20 23.75 118.70 22.34 119.10 M 63.16 130.45 C 63.04 131.09 62.78 132.36 62.66 133.00 C 64.75 135.89 69.05 135.09 72.20 135.39 C 72.25 136.05 72.37 137.38 72.42 138.04 C 73.75 137.87 75.09 137.74 76.40 137.45 C 77.88 136.25 78.82 134.54 79.90 133.01 C 79.38 133.20 78.32 133.58 77.80 133.77 C 77.56 132.94 77.08 131.27 76.84 130.44 C 72.28 130.53 67.72 130.52 63.16 130.45 M 50.93 137.74 C 50.90 138.32 50.83 139.49 50.80 140.07 C 50.18 140.05 48.95 140.02 48.34 140.01 C 48.47 141.51 48.62 143.01 48.78 144.51 C 51.46 144.53 54.17 144.65 56.72 145.55 C 56.46 145.94 55.93 146.72 55.67 147.11 C 57.27 147.18 58.88 147.18 60.49 147.17 C 60.70 144.86 61.08 142.58 61.27 140.28 C 62.13 141.16 63.03 141.99 63.90 142.86 C 65.36 141.19 66.85 139.54 68.28 137.85 C 65.53 137.74 62.77 137.78 60.04 138.13 C 60.27 138.55 60.75 139.37 60.98 139.78 C 60.34 139.84 59.06 139.95 58.43 140.01 C 58.22 136.16 53.46 138.28 50.93 137.74 M 66.08 143.22 L 65.00 142.75 C 65.05 147.45 65.01 152.16 65.20 156.86 C 68.42 156.90 71.65 156.90 74.87 156.88 C 74.88 155.28 74.88 153.68 74.89 152.08 C 74.87 149.91 74.88 147.74 74.90 145.56 C 72.37 144.18 70.51 141.92 68.90 139.59 C 67.94 140.79 66.95 141.96 66.08 143.22 M 57.39 149.94 C 58.90 151.87 60.77 153.48 62.75 154.92 C 62.87 153.12 62.97 151.33 63.05 149.54 C 61.16 149.64 59.27 149.76 57.39 149.94 Z" />
<path fill="#000000" opacity="1.00" d=" M 50.91 23.92 C 50.42 21.08 52.86 17.88 55.84 18.25 C 54.77 19.73 52.91 21.01 53.19 23.06 C 53.13 27.68 53.12 32.30 53.30 36.91 C 53.26 38.45 54.44 39.58 55.16 40.83 C 54.46 41.87 53.22 42.69 53.13 44.03 C 53.99 46.52 55.55 48.72 56.03 51.36 C 52.86 51.07 52.21 47.28 51.10 44.86 C 50.66 37.90 51.04 30.90 50.91 23.92 Z" />
<path fill="#000000" opacity="1.00" d=" M 62.97 36.62 C 63.02 30.97 62.30 25.21 63.53 19.65 C 65.78 22.09 68.21 24.34 70.57 26.68 C 69.82 27.02 68.33 27.70 67.59 28.04 C 67.64 31.88 67.62 35.71 67.62 39.54 C 64.93 39.34 61.72 40.25 59.67 37.97 C 60.49 37.64 62.14 36.96 62.97 36.62 Z" />
<path fill="#000000" opacity="1.00" d=" M 70.32 27.94 C 71.93 27.42 72.47 27.98 71.92 29.64 C 70.29 30.19 69.76 29.62 70.32 27.94 Z" />
<path fill="#000000" opacity="1.00" d=" M 79.66 27.50 C 85.22 27.50 90.79 27.50 96.36 27.50 C 96.36 28.12 96.37 29.37 96.37 30.00 C 94.00 30.00 91.63 30.00 89.26 30.02 C 89.26 32.19 89.24 34.37 89.14 36.54 C 89.97 36.92 91.62 37.67 92.45 38.05 C 89.36 40.66 85.07 39.19 81.40 39.32 C 82.29 38.08 83.35 36.97 84.27 35.74 C 84.46 33.84 84.39 31.93 84.41 30.03 C 82.81 30.01 81.20 29.99 79.60 29.98 C 79.61 29.36 79.64 28.12 79.66 27.50 Z" />
<path fill="#000000" opacity="1.00" d=" M 70.32 42.44 C 71.69 41.21 73.06 39.97 74.47 38.79 C 74.71 40.46 74.89 42.14 75.04 43.82 C 75.62 44.04 76.79 44.47 77.38 44.69 C 77.29 46.36 77.19 48.03 77.08 49.70 C 75.59 49.04 74.77 47.68 73.94 46.37 C 72.71 47.50 71.51 48.66 70.20 49.69 C 70.19 47.31 69.49 44.73 70.32 42.44 Z" />
<path fill="#000000" opacity="1.00" d=" M 55.44 41.32 C 57.33 42.00 59.38 41.97 61.27 42.66 C 59.37 44.33 57.59 46.13 55.62 47.72 C 55.61 45.58 55.55 43.45 55.44 41.32 Z" />
<path fill="#000000" opacity="1.00" d=" M 90.41 49.36 C 92.16 46.83 90.86 43.01 93.65 41.14 C 94.37 50.76 93.80 60.44 94.18 70.08 C 93.67 70.27 92.64 70.65 92.12 70.84 C 91.74 68.48 91.60 66.10 91.44 63.72 C 90.91 63.53 89.86 63.16 89.33 62.97 C 89.27 60.49 89.22 58.02 89.10 55.55 C 87.47 56.81 85.92 58.16 84.31 59.45 C 84.36 61.79 84.41 64.13 84.52 66.47 C 85.99 65.42 87.41 64.31 88.90 63.27 C 89.07 65.44 87.29 66.86 85.79 68.10 C 79.25 68.55 72.67 68.16 66.12 68.24 C 64.35 66.25 62.49 64.35 60.53 62.56 C 60.50 60.75 60.47 58.94 60.44 57.13 C 58.77 55.67 57.11 54.18 55.41 52.73 L 56.25 52.12 C 56.64 51.82 57.43 51.22 57.83 50.91 C 58.03 49.45 58.22 47.99 58.39 46.53 C 58.93 46.66 60.01 46.94 60.55 47.07 C 60.51 49.10 60.48 51.12 60.43 53.14 C 61.71 54.11 62.92 55.18 64.25 56.07 C 70.50 56.53 76.79 56.12 83.05 56.28 C 87.24 57.05 88.97 52.41 90.41 49.36 M 62.87 58.67 C 62.87 60.08 62.87 61.50 62.88 62.92 C 64.43 64.08 65.88 65.37 67.47 66.48 C 67.63 63.85 67.65 61.21 67.59 58.57 C 66.02 58.60 64.44 58.63 62.87 58.67 M 70.00 58.63 C 70.00 61.05 70.00 63.47 70.02 65.89 C 71.63 65.88 73.25 65.87 74.87 65.86 C 74.87 63.45 74.87 61.05 74.89 58.64 C 73.26 58.63 71.63 58.63 70.00 58.63 M 77.22 58.63 C 77.25 61.04 77.25 63.44 77.26 65.84 C 78.83 65.87 80.40 65.88 81.98 65.90 C 82.00 63.48 82.00 61.05 82.00 58.63 C 80.40 58.63 78.81 58.63 77.22 58.63 Z" />
<path fill="#000000" opacity="1.00" d=" M 168.34 74.60 C 169.98 76.07 171.86 77.38 173.05 79.25 C 173.91 82.49 170.51 84.10 168.23 85.46 C 169.07 83.64 169.95 81.83 170.81 80.02 C 169.97 78.23 169.12 76.43 168.34 74.60 Z" />
<path fill="#000000" opacity="1.00" d=" M 146.46 85.01 C 150.96 81.80 155.53 78.65 160.38 76.01 C 163.34 74.25 167.11 76.22 168.25 79.22 C 168.90 81.85 165.73 83.01 164.18 84.55 L 163.53 85.03 C 163.49 84.48 163.41 83.37 163.37 82.82 C 164.02 82.68 165.31 82.40 165.96 82.26 C 165.97 80.78 165.98 79.30 166.01 77.82 C 164.04 77.84 162.06 77.77 160.11 77.99 C 155.99 80.98 152.07 85.63 146.46 85.01 Z" />
<path fill="#000000" opacity="1.00" d=" M 74.40 101.94 C 75.93 101.91 77.45 101.91 78.98 101.94 C 78.96 102.38 78.94 103.27 78.92 103.71 C 78.09 104.61 77.26 105.51 76.42 106.41 C 75.69 104.95 75.05 103.44 74.40 101.94 Z" />
<path fill="#000000" opacity="1.00" d=" M 67.09 104.35 C 68.57 104.27 70.06 104.27 71.54 104.33 C 71.67 104.88 71.94 105.98 72.07 106.53 C 70.82 106.58 69.58 106.62 68.33 106.67 C 68.02 106.09 67.40 104.93 67.09 104.35 Z" />
<path fill="#000000" opacity="1.00" d=" M 7.74 124.13 C 10.21 121.97 12.45 119.30 15.71 118.34 C 13.60 121.33 10.89 123.81 8.41 126.47 C 8.24 125.89 7.91 124.71 7.74 124.13 Z" />
</g>
<g id="#fdfdfdff">
<path fill="#fdfdfd" opacity="1.00" d=" M 64.73 10.01 C 65.17 9.64 66.04 8.90 66.47 8.53 C 73.76 8.09 81.09 8.54 88.40 8.35 C 88.78 8.81 89.56 9.73 89.94 10.19 C 81.58 11.21 73.07 11.44 64.73 10.01 Z" />
</g>
<g id="#eaeaeaff">
<path fill="#eaeaea" opacity="1.00" d=" M 64.73 10.01 C 73.07 11.44 81.58 11.21 89.94 10.19 C 93.62 13.89 97.12 17.76 101.12 21.11 C 101.00 28.27 101.47 35.46 100.74 42.60 C 98.55 40.58 96.50 38.40 94.29 36.40 C 94.14 38.19 94.04 39.98 93.98 41.78 C 95.74 41.91 97.50 42.05 99.26 42.21 C 98.36 43.34 97.36 44.39 96.56 45.59 C 96.09 50.04 96.48 54.53 96.39 58.99 C 96.30 63.82 96.90 68.97 94.63 73.43 C 93.86 72.63 93.08 71.82 92.31 71.02 L 92.12 70.84 C 92.64 70.65 93.67 70.27 94.18 70.08 C 93.80 60.44 94.37 50.76 93.65 41.14 C 90.86 43.01 92.16 46.83 90.41 49.36 C 88.97 52.41 87.24 57.05 83.05 56.28 C 76.79 56.12 70.50 56.53 64.25 56.07 C 62.92 55.18 61.71 54.11 60.43 53.14 C 60.48 51.12 60.51 49.10 60.55 47.07 C 60.01 46.94 58.93 46.66 58.39 46.53 C 58.22 47.99 58.03 49.45 57.83 50.91 C 57.43 51.22 56.64 51.82 56.25 52.12 L 56.03 51.36 C 55.55 48.72 53.99 46.52 53.13 44.03 C 53.22 42.69 54.46 41.87 55.16 40.83 C 54.44 39.58 53.26 38.45 53.30 36.91 C 53.12 32.30 53.13 27.68 53.19 23.06 C 52.91 21.01 54.77 19.73 55.84 18.25 C 57.23 17.06 58.66 15.83 60.52 15.53 C 60.56 15.07 60.62 14.15 60.66 13.69 C 62.04 12.49 63.39 11.25 64.73 10.01 M 58.11 18.00 C 58.10 18.59 58.08 19.77 58.07 20.37 C 59.69 20.38 61.32 20.40 62.94 20.41 C 62.93 19.81 62.91 18.60 62.90 18.00 C 61.30 18.00 59.71 18.00 58.11 18.00 M 62.97 36.62 C 62.14 36.96 60.49 37.64 59.67 37.97 C 61.72 40.25 64.93 39.34 67.62 39.54 C 67.62 35.71 67.64 31.88 67.59 28.04 C 68.33 27.70 69.82 27.02 70.57 26.68 C 68.21 24.34 65.78 22.09 63.53 19.65 C 62.30 25.21 63.02 30.97 62.97 36.62 M 70.32 27.94 C 69.76 29.62 70.29 30.19 71.92 29.64 C 72.47 27.98 71.93 27.42 70.32 27.94 M 79.66 27.50 C 79.64 28.12 79.61 29.36 79.60 29.98 C 81.20 29.99 82.81 30.01 84.41 30.03 C 84.39 31.93 84.46 33.84 84.27 35.74 C 83.35 36.97 82.29 38.08 81.40 39.32 C 85.07 39.19 89.36 40.66 92.45 38.05 C 91.62 37.67 89.97 36.92 89.14 36.54 C 89.24 34.37 89.26 32.19 89.26 30.02 C 91.63 30.00 94.00 30.00 96.37 30.00 C 96.37 29.37 96.36 28.12 96.36 27.50 C 90.79 27.50 85.22 27.50 79.66 27.50 M 70.32 42.44 C 69.49 44.73 70.19 47.31 70.20 49.69 C 71.51 48.66 72.71 47.50 73.94 46.37 C 74.77 47.68 75.59 49.04 77.08 49.70 C 77.19 48.03 77.29 46.36 77.38 44.69 C 76.79 44.47 75.62 44.04 75.04 43.82 C 74.89 42.14 74.71 40.46 74.47 38.79 C 73.06 39.97 71.69 41.21 70.32 42.44 M 55.44 41.32 C 55.55 43.45 55.61 45.58 55.62 47.72 C 57.59 46.13 59.37 44.33 61.27 42.66 C 59.38 41.97 57.33 42.00 55.44 41.32 Z" />
<path fill="#eaeaea" opacity="1.00" d=" M 113.54 73.31 C 117.90 72.50 122.52 73.25 126.98 72.99 C 128.62 75.38 131.11 77.25 132.13 80.02 C 132.47 81.46 133.52 82.50 134.42 83.61 C 133.54 89.57 132.36 95.83 128.88 100.86 C 123.85 105.19 116.39 104.76 110.62 102.24 C 108.85 101.41 107.56 99.85 106.00 98.71 C 106.00 97.63 106.00 96.55 106.01 95.47 C 101.95 93.85 104.00 88.70 103.69 85.29 C 104.27 85.13 105.43 84.82 106.00 84.66 C 105.98 83.34 105.98 82.02 106.00 80.71 C 108.97 78.74 111.26 76.00 113.54 73.31 Z" />
<path fill="#eaeaea" opacity="1.00" d=" M 14.93 87.66 C 18.52 84.93 22.04 82.01 26.25 80.29 C 28.22 80.07 30.21 80.20 32.19 80.23 C 29.66 83.53 29.08 87.69 27.25 91.33 C 26.72 96.32 26.90 101.39 27.24 106.40 C 27.57 108.96 28.18 111.48 28.77 113.99 C 24.91 112.56 21.03 111.16 17.24 109.55 C 15.43 107.51 14.26 105.01 12.90 102.68 C 12.37 99.90 12.46 97.01 12.74 94.20 C 13.70 92.27 15.40 90.57 14.92 88.23 L 14.93 87.66 Z" />
<path fill="#eaeaea" opacity="1.00" d=" M 34.48 84.30 C 39.45 88.73 43.85 93.76 48.73 98.29 C 51.06 99.99 50.76 103.32 52.99 105.10 C 53.71 105.89 54.46 106.65 55.24 107.39 C 58.39 110.00 60.67 114.47 65.35 114.09 C 65.57 111.58 65.11 109.20 62.76 107.88 C 63.68 106.76 64.59 105.63 65.49 104.50 C 65.89 104.46 66.69 104.38 67.09 104.35 C 67.40 104.93 68.02 106.09 68.33 106.67 C 69.58 106.62 70.82 106.58 72.07 106.53 C 72.27 107.35 72.66 109.00 72.85 109.83 C 74.09 108.74 75.29 107.60 76.42 106.41 C 77.26 105.51 78.09 104.61 78.92 103.71 C 80.41 102.63 82.04 101.78 83.66 100.93 C 87.51 98.62 92.16 97.61 95.47 94.49 C 96.32 93.76 97.18 93.03 98.05 92.31 C 98.59 96.31 98.99 100.46 101.04 104.03 C 102.07 106.48 104.05 108.86 103.68 111.65 C 101.89 115.64 97.88 118.12 93.99 119.77 C 88.91 121.78 83.57 123.52 78.03 123.42 C 68.15 123.27 58.07 124.23 48.47 121.27 C 45.77 118.85 41.66 118.55 39.54 115.45 C 37.25 110.08 34.33 105.02 31.88 99.74 C 31.61 97.44 31.25 94.82 32.58 92.76 C 34.42 90.33 33.98 87.14 34.48 84.30 M 79.14 106.84 C 80.42 108.43 81.69 110.04 83.21 111.41 C 86.39 112.16 87.93 108.79 89.76 106.88 C 86.23 106.53 82.68 106.54 79.14 106.84 M 79.69 113.77 C 79.68 114.36 79.65 115.53 79.64 116.11 C 81.21 116.12 82.78 116.12 84.35 116.12 C 84.35 115.52 84.34 114.33 84.34 113.74 C 82.79 113.74 81.24 113.75 79.69 113.77 M 87.16 114.12 C 86.64 115.74 87.19 116.29 88.83 115.78 C 89.35 114.15 88.80 113.60 87.16 114.12 M 80.22 118.16 C 80.04 118.86 79.68 120.25 79.51 120.94 C 81.28 120.88 83.06 120.79 84.84 120.68 C 84.14 118.57 82.16 118.29 80.22 118.16 Z" />
<path fill="#eaeaea" opacity="1.00" d=" M 15.71 118.34 C 16.44 118.98 17.16 119.60 17.88 120.24 C 18.98 121.18 20.51 122.08 19.73 123.76 C 18.55 126.63 16.40 129.03 14.79 131.68 C 13.56 131.68 12.34 131.68 11.11 131.68 C 10.22 129.94 9.31 128.21 8.41 126.47 C 10.89 123.81 13.60 121.33 15.71 118.34 Z" />
<path fill="#eaeaea" opacity="1.00" d=" M 30.25 132.88 C 36.36 132.92 42.47 132.75 48.58 133.00 C 44.98 135.36 40.58 135.51 36.54 136.64 C 29.96 138.47 23.07 137.48 16.36 138.25 C 16.01 138.07 15.30 137.71 14.95 137.53 C 14.71 137.26 14.22 136.70 13.98 136.43 C 14.10 136.08 14.36 135.39 14.49 135.04 C 19.11 135.83 23.80 135.97 28.47 135.78 C 29.06 134.81 29.65 133.84 30.25 132.88 Z" />
<path fill="#eaeaea" opacity="1.00" d=" M 66.08 143.22 C 66.95 141.96 67.94 140.79 68.90 139.59 C 70.51 141.92 72.37 144.18 74.90 145.56 C 74.88 147.74 74.87 149.91 74.89 152.08 C 72.08 153.58 69.05 154.58 65.93 155.23 C 65.63 151.24 65.45 147.20 66.08 143.22 Z" />
</g>
<g id="#000000df">
<path fill="#000000" opacity="0.87" d=" M 58.31 13.39 C 59.99 12.71 60.50 13.21 59.85 14.87 C 58.22 15.60 57.71 15.11 58.31 13.39 Z" />
</g>
<g id="#0a0a0aff">
<path fill="#0a0a0a" opacity="1.00" d=" M 58.11 18.00 C 59.71 18.00 61.30 18.00 62.90 18.00 C 62.91 18.60 62.93 19.81 62.94 20.41 C 61.32 20.40 59.69 20.38 58.07 20.37 C 58.08 19.77 58.10 18.59 58.11 18.00 Z" />
</g>
<g id="#ffffffff">
<path fill="#ffffff" opacity="1.00" d=" M 84.31 59.45 C 85.92 58.16 87.47 56.81 89.10 55.55 C 89.22 58.02 89.27 60.49 89.33 62.97 L 88.90 63.27 C 87.41 64.31 85.99 65.42 84.52 66.47 C 84.41 64.13 84.36 61.79 84.31 59.45 Z" />
<path fill="#ffffff" opacity="1.00" d=" M 62.87 58.67 C 64.44 58.63 66.02 58.60 67.59 58.57 C 67.65 61.21 67.63 63.85 67.47 66.48 C 65.88 65.37 64.43 64.08 62.88 62.92 C 62.87 61.50 62.87 60.08 62.87 58.67 Z" />
<path fill="#ffffff" opacity="1.00" d=" M 70.00 58.63 C 71.63 58.63 73.26 58.63 74.89 58.64 C 74.87 61.05 74.87 63.45 74.87 65.86 C 73.25 65.87 71.63 65.88 70.02 65.89 C 70.00 63.47 70.00 61.05 70.00 58.63 Z" />
<path fill="#ffffff" opacity="1.00" d=" M 77.22 58.63 C 78.81 58.63 80.40 58.63 82.00 58.63 C 82.00 61.05 82.00 63.48 81.98 65.90 C 80.40 65.88 78.83 65.87 77.26 65.84 C 77.25 63.44 77.25 61.04 77.22 58.63 Z" />
<path fill="#ffffff" opacity="1.00" d=" M 65.25 73.35 C 66.27 71.88 68.76 73.53 67.61 75.01 C 66.61 76.52 64.16 74.80 65.25 73.35 Z" />
<path fill="#ffffff" opacity="1.00" d=" M 84.41 73.34 C 85.52 71.90 87.84 73.66 86.76 75.13 C 85.73 76.56 83.33 74.74 84.41 73.34 Z" />
</g>
<g id="#fa613bff">
<path fill="#fa613b" opacity="1.00" d=" M 108.65 61.38 L 109.28 60.95 C 109.74 61.99 110.20 63.03 110.66 64.08 C 107.85 62.90 108.58 67.40 110.99 65.86 C 110.96 66.38 110.90 67.44 110.87 67.96 C 106.95 73.29 101.67 78.12 99.99 84.70 C 98.87 84.79 97.75 84.87 96.63 84.92 C 95.96 84.93 94.62 84.96 93.95 84.98 C 96.42 77.18 103.22 72.34 108.57 66.63 C 106.71 66.08 104.84 65.56 103.00 64.97 C 104.90 63.80 106.84 62.69 108.65 61.38 Z" />
</g>
<g id="#ff4b16ff">
<path fill="#ff4b16" opacity="1.00" d=" M 109.28 60.95 C 112.33 61.14 115.40 61.05 118.46 61.16 C 116.61 62.81 114.73 64.43 112.90 66.10 C 112.21 66.71 111.54 67.33 110.87 67.96 C 110.90 67.44 110.96 66.38 110.99 65.86 C 110.90 65.41 110.74 64.52 110.66 64.08 C 110.20 63.03 109.74 61.99 109.28 60.95 Z" />
</g>
<g id="#73240cff">
<path fill="#73240c" opacity="1.00" d=" M 118.46 61.16 C 120.20 61.39 121.91 61.79 123.61 62.23 C 120.26 64.06 116.69 65.53 112.90 66.10 C 114.73 64.43 116.61 62.81 118.46 61.16 Z" />
</g>
<g id="#ff7a53ff">
<path fill="#ff7a53" opacity="1.00" d=" M 36.56 69.85 C 35.53 66.32 39.57 62.81 42.98 63.40 C 45.47 63.04 47.01 65.42 48.37 67.11 C 48.68 69.77 48.50 72.44 48.43 75.11 C 48.03 74.85 47.23 74.35 46.83 74.10 C 46.07 71.48 45.78 68.77 45.43 66.09 C 43.22 66.12 41.01 66.16 38.80 66.21 C 39.24 70.26 41.96 74.65 39.50 78.51 C 38.70 75.56 37.30 72.81 36.56 69.85 Z" />
</g>
<g id="#df7050ff">
<path fill="#df7050" opacity="1.00" d=" M 48.94 63.95 C 50.57 63.42 51.12 63.98 50.60 65.62 C 48.95 66.13 48.40 65.57 48.94 63.95 Z" />
</g>
<g id="#2a0e06ff">
<path fill="#2a0e06" opacity="1.00" d=" M 110.99 65.86 C 108.58 67.40 107.85 62.90 110.66 64.08 C 110.74 64.52 110.90 65.41 110.99 65.86 Z" />
</g>
<g id="#ff4711ff">
<path fill="#ff4711" opacity="1.00" d=" M 38.80 66.21 C 41.01 66.16 43.22 66.12 45.43 66.09 C 45.78 68.77 46.07 71.48 46.83 74.10 C 47.23 74.35 48.03 74.85 48.43 75.11 C 52.67 77.76 56.03 81.57 59.17 85.41 C 61.53 90.00 66.32 92.32 70.96 94.01 C 73.55 95.08 76.25 93.79 78.80 93.19 C 82.48 92.04 86.43 91.66 89.89 89.87 C 91.13 88.67 91.83 87.05 92.75 85.62 C 93.05 85.46 93.65 85.14 93.95 84.98 C 94.62 84.96 95.96 84.93 96.63 84.92 C 96.77 87.54 96.08 90.09 94.37 92.11 C 87.41 93.31 81.57 97.45 75.32 100.42 C 71.75 102.20 67.69 101.15 63.89 101.09 C 63.29 99.90 62.68 98.72 62.03 97.56 C 61.58 97.36 60.68 96.95 60.23 96.75 C 59.26 97.42 58.34 98.14 57.42 98.88 C 55.59 95.97 53.04 93.62 50.12 91.83 C 45.43 88.49 40.99 84.27 39.50 78.51 C 41.96 74.65 39.24 70.26 38.80 66.21 Z" />
<path fill="#ff4711" opacity="1.00" d=" M 43.79 156.71 C 48.18 155.71 51.82 152.85 55.74 150.78 L 56.48 151.45 C 56.39 153.50 56.32 155.55 56.27 157.60 C 54.60 159.00 52.97 160.44 51.28 161.82 C 49.46 163.30 47.67 164.82 45.88 166.34 C 43.72 165.11 41.59 163.83 39.48 162.51 C 40.86 162.11 42.25 161.73 43.64 161.35 C 43.68 160.95 43.75 160.14 43.79 159.73 C 40.35 158.59 37.06 156.96 33.42 156.56 C 33.98 156.16 35.11 155.37 35.68 154.98 C 38.34 155.68 40.98 156.83 43.79 156.71 Z" />
</g>
<g id="#ff805bff">
<path fill="#ff805b" opacity="1.00" d=" M 98.72 65.94 C 100.36 65.88 102.01 65.81 103.66 65.74 C 103.63 66.37 103.56 67.64 103.52 68.27 C 101.93 68.26 100.35 68.24 98.77 68.23 C 98.76 67.65 98.73 66.51 98.72 65.94 Z" />
<path fill="#ff805b" opacity="1.00" d=" M 59.17 85.41 C 63.21 87.67 67.35 89.75 71.47 91.86 C 74.81 93.31 77.80 90.09 81.12 89.98 C 85.39 89.79 89.08 87.55 92.75 85.62 C 91.83 87.05 91.13 88.67 89.89 89.87 C 86.43 91.66 82.48 92.04 78.80 93.19 C 76.25 93.79 73.55 95.08 70.96 94.01 C 66.32 92.32 61.53 90.00 59.17 85.41 Z" />
<path fill="#ff805b" opacity="1.00" d=" M 44.30 154.24 C 47.62 152.67 50.75 150.64 54.25 149.45 C 54.62 149.78 55.37 150.45 55.74 150.78 C 51.82 152.85 48.18 155.71 43.79 156.71 C 40.98 156.83 38.34 155.68 35.68 154.98 C 35.11 155.37 33.98 156.16 33.42 156.56 L 32.51 156.82 L 31.79 157.03 C 31.78 155.28 31.78 153.54 31.79 151.80 C 33.91 152.04 36.20 151.78 38.14 152.85 C 40.03 153.73 42.14 155.26 44.30 154.24 Z" />
</g>
<g id="#84290eff">
<path fill="#84290e" opacity="1.00" d=" M 115.56 68.69 C 119.43 67.29 123.47 65.08 127.71 66.14 C 131.96 67.45 135.53 70.27 139.07 72.87 L 139.40 73.27 C 141.13 75.20 142.55 79.02 145.78 77.77 C 150.21 76.63 154.68 75.39 158.75 73.25 L 159.51 72.86 C 161.73 73.06 163.95 73.10 166.17 73.16 C 166.57 73.18 167.35 73.20 167.75 73.21 C 167.90 73.56 168.19 74.26 168.34 74.60 C 169.12 76.43 169.97 78.23 170.81 80.02 C 169.95 81.83 169.07 83.64 168.23 85.46 C 168.01 85.92 167.57 86.85 167.35 87.32 C 166.31 86.37 165.27 85.42 164.18 84.55 C 165.73 83.01 168.90 81.85 168.25 79.22 C 167.11 76.22 163.34 74.25 160.38 76.01 C 155.53 78.65 150.96 81.80 146.46 85.01 C 144.54 86.39 141.98 85.56 139.79 85.71 L 139.51 84.57 C 138.35 80.34 137.30 75.17 132.98 73.02 C 127.59 69.82 121.14 70.65 115.17 70.63 C 115.27 70.14 115.46 69.17 115.56 68.69 Z" />
<path fill="#84290e" opacity="1.00" d=" M 50.12 91.83 C 53.04 93.62 55.59 95.97 57.42 98.88 C 59.48 101.84 60.44 105.34 60.83 108.89 C 58.96 108.42 57.09 107.94 55.24 107.39 C 54.46 106.65 53.71 105.89 52.99 105.10 C 53.66 105.48 55.01 106.26 55.68 106.65 C 54.70 101.45 53.13 96.24 50.12 91.83 Z" />
</g>
<g id="#e9e9e9ff">
<path fill="#e9e9e9" opacity="1.00" d=" M 92.31 71.02 C 93.08 71.82 93.86 72.63 94.63 73.43 C 93.44 77.19 90.59 80.09 87.49 82.37 C 79.33 83.02 71.09 82.41 62.90 82.65 C 62.90 80.93 62.90 79.20 62.93 77.48 C 65.49 77.90 67.71 79.29 70.15 80.09 C 74.37 80.42 78.63 80.39 82.86 80.12 C 86.53 77.74 89.08 73.96 92.31 71.02 Z" />
<path fill="#e9e9e9" opacity="1.00" d=" M 117.88 156.88 C 118.50 156.88 119.75 156.88 120.37 156.89 C 120.34 161.54 120.53 166.20 120.20 170.85 C 119.76 171.26 118.89 172.07 118.46 172.47 C 117.81 167.30 117.81 162.08 117.88 156.88 Z" />
<path fill="#e9e9e9" opacity="1.00" d=" M 52.85 169.22 C 54.13 168.14 55.88 168.69 56.36 170.28 C 54.82 171.15 53.65 170.79 52.85 169.22 Z" />
</g>
<g id="#000000fa">
<path fill="#000000" opacity="0.98" d=" M 158.16 70.88 C 160.78 71.11 166.21 68.94 166.17 73.16 C 163.95 73.10 161.73 73.06 159.51 72.86 C 159.17 72.37 158.50 71.38 158.16 70.88 Z" />
</g>
<g id="#f9f9f9ff">
<path fill="#f9f9f9" opacity="1.00" d=" M 69.95 72.98 C 70.58 72.99 71.84 73.02 72.47 73.04 C 72.18 75.07 73.26 78.37 70.14 78.29 C 70.04 76.52 69.99 74.75 69.95 72.98 Z" />
<path fill="#f9f9f9" opacity="1.00" d=" M 74.87 73.00 C 75.47 73.00 76.66 73.00 77.25 73.00 C 77.26 74.64 77.27 76.27 77.28 77.91 C 76.67 77.91 75.47 77.90 74.86 77.89 C 74.87 76.26 74.87 74.63 74.87 73.00 Z" />
<path fill="#f9f9f9" opacity="1.00" d=" M 79.61 73.00 C 80.21 73.00 81.41 73.00 82.01 73.00 C 82.00 74.64 82.00 76.27 81.99 77.91 C 81.40 77.91 80.22 77.90 79.63 77.90 C 79.62 76.26 79.62 74.63 79.61 73.00 Z" />
</g>
<g id="#060200ff">
<path fill="#060200" opacity="1.00" d=" M 139.40 73.27 C 141.08 73.18 142.14 74.45 143.27 75.49 C 144.95 75.28 146.86 75.62 148.30 74.56 C 151.17 71.94 155.28 73.20 158.75 73.25 C 154.68 75.39 150.21 76.63 145.78 77.77 C 142.55 79.02 141.13 75.20 139.40 73.27 Z" />
</g>
<g id="#a8a8a8ff">
<path fill="#a8a8a8" opacity="1.00" d=" M 134.42 83.61 L 134.61 82.53 C 135.07 88.10 135.88 94.39 132.44 99.22 C 131.18 103.39 126.78 104.43 123.44 106.35 C 120.23 106.94 116.93 106.53 113.69 106.60 C 112.73 105.10 111.66 103.68 110.62 102.24 C 116.39 104.76 123.85 105.19 128.88 100.86 C 132.36 95.83 133.54 89.57 134.42 83.61 Z" />
</g>
<g id="#a5a5a5ff">
<path fill="#a5a5a5" opacity="1.00" d=" M 95.47 94.49 C 97.20 92.71 98.91 90.92 100.69 89.21 C 100.96 92.02 100.92 94.88 101.43 97.67 C 102.98 101.44 105.46 104.76 108.07 107.87 C 106.30 110.78 104.88 113.97 102.34 116.33 C 97.61 121.70 90.40 123.52 83.84 125.57 C 75.22 126.03 66.56 125.61 57.92 125.78 C 54.09 126.28 51.33 123.28 48.47 121.27 C 58.07 124.23 68.15 123.27 78.03 123.42 C 83.57 123.52 88.91 121.78 93.99 119.77 C 97.88 118.12 101.89 115.64 103.68 111.65 C 104.05 108.86 102.07 106.48 101.04 104.03 C 98.99 100.46 98.59 96.31 98.05 92.31 C 97.18 93.03 96.32 93.76 95.47 94.49 Z" />
<path fill="#a5a5a5" opacity="1.00" d=" M 27.24 106.40 C 29.62 109.13 31.51 112.33 32.34 115.89 C 26.49 117.18 20.74 114.13 17.24 109.55 C 21.03 111.16 24.91 112.56 28.77 113.99 C 28.18 111.48 27.57 108.96 27.24 106.40 Z" />
<path fill="#a5a5a5" opacity="1.00" d=" M 48.58 133.00 C 50.37 133.07 52.14 133.19 53.92 133.36 C 51.79 134.77 49.62 136.14 47.31 137.24 C 43.90 138.13 40.17 137.36 36.87 138.84 C 32.48 140.77 27.56 140.10 22.90 140.16 C 20.54 140.29 18.32 139.52 16.36 138.25 C 23.07 137.48 29.96 138.47 36.54 136.64 C 40.58 135.51 44.98 135.36 48.58 133.00 Z" />
</g>
<g id="#7f280dff">
<path fill="#7f280d" opacity="1.00" d=" M 75.32 100.42 C 81.57 97.45 87.41 93.31 94.37 92.11 C 90.04 96.06 84.26 97.71 79.30 100.65 C 80.75 100.77 82.20 100.89 83.66 100.93 C 82.04 101.78 80.41 102.63 78.92 103.71 C 78.94 103.27 78.96 102.38 78.98 101.94 C 77.45 101.91 75.93 101.91 74.40 101.94 C 75.05 103.44 75.69 104.95 76.42 106.41 C 75.29 107.60 74.09 108.74 72.85 109.83 C 72.66 109.00 72.27 107.35 72.07 106.53 C 71.94 105.98 71.67 104.88 71.54 104.33 C 70.06 104.27 68.57 104.27 67.09 104.35 C 66.69 104.38 65.89 104.46 65.49 104.50 C 62.43 102.93 60.47 100.21 60.23 96.75 C 60.68 96.95 61.58 97.36 62.03 97.56 C 62.68 98.72 63.29 99.90 63.89 101.09 C 67.69 101.15 71.75 102.20 75.32 100.42 Z" />
</g>
<g id="#040201ff">
<path fill="#040201" opacity="1.00" d=" M 57.42 98.88 C 58.34 98.14 59.26 97.42 60.23 96.75 C 60.47 100.21 62.43 102.93 65.49 104.50 C 64.59 105.63 63.68 106.76 62.76 107.88 C 65.11 109.20 65.57 111.58 65.35 114.09 C 60.67 114.47 58.39 110.00 55.24 107.39 C 57.09 107.94 58.96 108.42 60.83 108.89 C 60.44 105.34 59.48 101.84 57.42 98.88 M 61.11 109.42 C 60.66 110.83 61.14 111.30 62.55 110.85 C 63.00 109.44 62.52 108.97 61.11 109.42 Z" />
</g>
<g id="#ff6411ff">
<path fill="#ff6411" opacity="1.00" d=" M 79.14 106.84 C 82.68 106.54 86.23 106.53 89.76 106.88 C 87.93 108.79 86.39 112.16 83.21 111.41 C 81.69 110.04 80.42 108.43 79.14 106.84 Z" />
<path fill="#ff6411" opacity="1.00" d=" M 79.69 113.77 C 81.24 113.75 82.79 113.74 84.34 113.74 C 84.34 114.33 84.35 115.52 84.35 116.12 C 82.78 116.12 81.21 116.12 79.64 116.11 C 79.65 115.53 79.68 114.36 79.69 113.77 Z" />
<path fill="#ff6411" opacity="1.00" d=" M 87.16 114.12 C 88.80 113.60 89.35 114.15 88.83 115.78 C 87.19 116.29 86.64 115.74 87.16 114.12 Z" />
<path fill="#ff6411" opacity="1.00" d=" M 80.22 118.16 C 82.16 118.29 84.14 118.57 84.84 120.68 C 83.06 120.79 81.28 120.88 79.51 120.94 C 79.68 120.25 80.04 118.86 80.22 118.16 Z" />
</g>
<g id="#fae065ff">
<path fill="#fae065" opacity="1.00" d=" M 123.76 109.47 C 124.84 108.54 126.00 107.71 127.14 106.85 C 127.31 108.39 127.48 109.93 127.63 111.48 C 125.80 111.40 123.98 111.23 122.17 110.97 C 122.57 110.60 123.36 109.85 123.76 109.47 Z" />
<path fill="#fae065" opacity="1.00" d=" M 62.27 163.73 C 64.33 162.15 66.91 161.93 69.41 161.93 C 71.09 162.77 72.83 163.56 74.67 164.02 C 76.22 164.06 77.78 164.06 79.34 164.06 C 81.85 166.78 85.59 166.60 88.95 166.10 C 88.38 167.28 87.78 168.44 87.01 169.51 C 84.75 169.68 82.49 169.38 80.24 169.21 C 79.96 168.61 79.40 167.41 79.12 166.81 C 74.13 166.31 69.28 164.96 64.35 164.09 C 63.83 164.00 62.79 163.82 62.27 163.73 Z" />
</g>
<g id="#7d270dff">
<path fill="#7d270d" opacity="1.00" d=" M 61.11 109.42 C 62.52 108.97 63.00 109.44 62.55 110.85 C 61.14 111.30 60.66 110.83 61.11 109.42 Z" />
</g>
<g id="#8b7e43ff">
<path fill="#8b7e43" opacity="1.00" d=" M 112.66 113.47 C 113.73 111.94 114.67 110.22 116.22 109.13 C 118.72 108.71 121.28 109.05 123.76 109.47 C 123.36 109.85 122.57 110.60 122.17 110.97 C 120.84 111.60 119.31 111.26 117.90 111.32 C 116.13 110.69 114.54 112.47 115.93 113.99 C 115.11 113.86 113.48 113.60 112.66 113.47 Z" />
<path fill="#8b7e43" opacity="1.00" d=" M 57.53 163.74 C 58.07 161.02 59.49 158.65 61.34 156.62 C 62.99 158.09 64.48 159.82 66.44 160.89 C 69.03 161.56 71.73 161.46 74.39 161.65 L 75.27 161.69 C 73.31 161.75 71.36 161.83 69.41 161.93 C 66.91 161.93 64.33 162.15 62.27 163.73 C 60.69 163.72 59.11 163.75 57.53 163.74 Z" />
</g>
<g id="#d4be59ff">
<path fill="#d4be59" opacity="1.00" d=" M 115.93 113.99 C 114.54 112.47 116.13 110.69 117.90 111.32 C 118.84 112.48 117.33 114.56 115.93 113.99 Z" />
</g>
<g id="#ffe467ff">
<path fill="#ffe467" opacity="1.00" d=" M 16.79 115.83 C 14.04 117.00 14.95 112.20 17.13 113.99 C 17.05 114.45 16.88 115.37 16.79 115.83 Z" />
</g>
<g id="#887d4bff">
<path fill="#887d4b" opacity="1.00" d=" M 17.13 113.99 C 19.02 114.86 20.79 115.97 22.53 117.10 C 20.99 118.15 19.43 119.18 17.88 120.24 C 17.16 119.60 16.44 118.98 15.71 118.34 L 15.83 118.08 C 16.16 117.33 16.48 116.58 16.79 115.83 C 16.88 115.37 17.05 114.45 17.13 113.99 M 18.12 116.35 C 17.68 117.75 18.16 118.23 19.56 117.78 C 20.01 116.38 19.53 115.90 18.12 116.35 Z" />
</g>
<g id="#fcfcfcff">
<path fill="#fcfcfc" opacity="1.00" d=" M 117.60 113.74 C 120.30 113.73 122.99 113.73 125.69 113.85 C 125.12 115.26 123.95 116.13 122.72 116.92 C 122.77 119.88 122.77 122.83 122.74 125.79 C 122.16 125.78 121.02 125.78 120.45 125.77 C 120.60 122.27 120.08 118.73 118.44 115.61 C 118.23 115.14 117.81 114.21 117.60 113.74 Z" />
</g>
<g id="#f0d662ff">
<path fill="#f0d662" opacity="1.00" d=" M 18.12 116.35 C 19.53 115.90 20.01 116.38 19.56 117.78 C 18.16 118.23 17.68 117.75 18.12 116.35 Z" />
</g>
<g id="#ecececff">
<path fill="#ececec" opacity="1.00" d=" M 113.02 116.25 C 114.83 116.07 116.64 115.88 118.44 115.61 C 120.08 118.73 120.60 122.27 120.45 125.77 C 120.33 131.90 120.33 138.04 120.43 144.18 C 116.62 144.88 118.13 149.05 117.90 151.82 C 117.28 151.93 116.03 152.15 115.41 152.26 C 115.61 159.17 115.40 166.08 115.54 172.99 C 114.62 172.97 113.71 172.95 112.79 172.92 C 113.49 165.27 112.99 157.55 113.11 149.87 C 113.72 149.75 114.93 149.51 115.53 149.39 C 115.51 147.32 115.51 145.24 115.55 143.17 C 114.70 142.79 113.86 142.42 113.01 142.05 C 113.09 133.45 113.07 124.85 113.02 116.25 Z" />
</g>
<g id="#7b6f3cff">
<path fill="#7b6f3c" opacity="1.00" d=" M 22.34 119.10 C 23.75 118.70 24.21 119.20 23.71 120.60 C 22.29 121.00 21.84 120.49 22.34 119.10 Z" />
</g>
<g id="#fff3baff">
<path fill="#fff3ba" opacity="1.00" d=" M 63.16 130.45 C 67.72 130.52 72.28 130.53 76.84 130.44 C 77.08 131.27 77.56 132.94 77.80 133.77 C 72.77 133.26 67.71 132.91 62.66 133.00 C 62.78 132.36 63.04 131.09 63.16 130.45 Z" />
</g>
<g id="#fbfbfbff">
<path fill="#fbfbfb" opacity="1.00" d=" M 15.31 133.01 C 20.28 132.71 25.27 132.93 30.25 132.88 C 29.65 133.84 29.06 134.81 28.47 135.78 C 23.80 135.97 19.11 135.83 14.49 135.04 C 14.70 134.53 15.10 133.52 15.31 133.01 Z" />
</g>
<g id="#d9c35bff">
<path fill="#d9c35b" opacity="1.00" d=" M 62.66 133.00 C 67.71 132.91 72.77 133.26 77.80 133.77 C 75.98 134.46 74.11 135.04 72.20 135.39 C 69.05 135.09 64.75 135.89 62.66 133.00 Z" />
</g>
<g id="#85783eff">
<path fill="#85783e" opacity="1.00" d=" M 77.80 133.77 C 78.32 133.58 79.38 133.20 79.90 133.01 C 78.82 134.54 77.88 136.25 76.40 137.45 C 75.09 137.74 73.75 137.87 72.42 138.04 C 72.37 137.38 72.25 136.05 72.20 135.39 C 74.11 135.04 75.98 134.46 77.80 133.77 Z" />
</g>
<g id="#fff4beff">
<path fill="#fff4be" opacity="1.00" d=" M 50.93 137.74 C 53.46 138.28 58.22 136.16 58.43 140.01 C 55.89 140.15 53.34 140.14 50.80 140.07 C 50.83 139.49 50.90 138.32 50.93 137.74 Z" />
<path fill="#fff4be" opacity="1.00" d=" M 79.34 164.06 C 82.83 163.98 86.33 163.94 89.81 164.24 C 89.60 164.71 89.17 165.64 88.95 166.10 C 85.59 166.60 81.85 166.78 79.34 164.06 Z" />
</g>
<g id="#dbc466ff">
<path fill="#dbc466" opacity="1.00" d=" M 48.34 140.01 C 48.95 140.02 50.18 140.05 50.80 140.07 C 53.34 140.14 55.89 140.15 58.43 140.01 C 59.06 139.95 60.34 139.84 60.98 139.78 C 59.59 141.72 58.14 143.62 56.72 145.55 C 54.17 144.65 51.46 144.53 48.78 144.51 C 48.62 143.01 48.47 141.51 48.34 140.01 Z" />
</g>
<g id="#7a703ffe">
<path fill="#7a703f" opacity="1.00" d=" M 60.98 139.78 L 61.27 140.28 C 61.08 142.58 60.70 144.86 60.49 147.17 C 58.88 147.18 57.27 147.18 55.67 147.11 C 55.93 146.72 56.46 145.94 56.72 145.55 C 58.14 143.62 59.59 141.72 60.98 139.78 Z" />
</g>
<g id="#a0a0a0ff">
<path fill="#a0a0a0" opacity="1.00" d=" M 65.00 142.75 L 66.08 143.22 C 65.45 147.20 65.63 151.24 65.93 155.23 C 69.05 154.58 72.08 153.58 74.89 152.08 C 74.88 153.68 74.88 155.28 74.87 156.88 C 71.65 156.90 68.42 156.90 65.20 156.86 C 65.01 152.16 65.05 147.45 65.00 142.75 Z" />
</g>
<g id="#0000000c">
<path fill="#000000" opacity="0.05" d=" M 57.39 149.94 C 59.27 149.76 61.16 149.64 63.05 149.54 C 62.97 151.33 62.87 153.12 62.75 154.92 C 60.77 153.48 58.90 151.87 57.39 149.94 Z" />
</g>
<g id="#f97d59ff">
<path fill="#f97d59" opacity="1.00" d=" M 56.48 151.45 C 56.78 151.74 57.40 152.32 57.71 152.60 C 57.97 153.66 58.23 154.72 58.47 155.79 C 57.92 156.24 56.82 157.15 56.27 157.60 C 56.32 155.55 56.39 153.50 56.48 151.45 Z" />
</g>
<g id="#020100ff">
<path fill="#020100" opacity="1.00" d=" M 32.51 156.82 L 33.42 156.56 C 37.06 156.96 40.35 158.59 43.79 159.73 C 43.75 160.14 43.68 160.95 43.64 161.35 C 42.25 161.73 40.86 162.11 39.48 162.51 C 37.02 160.79 34.61 158.98 32.51 156.82 Z" />
</g>
<g id="#922c0df9">
<path fill="#922c0d" opacity="0.98" d=" M 45.88 166.34 C 47.67 164.82 49.46 163.30 51.28 161.82 C 50.41 163.81 49.49 165.79 48.51 167.73 C 47.85 167.39 46.53 166.69 45.88 166.34 Z" />
</g>
<g id="#f8edb9ff">
<path fill="#f8edb9" opacity="1.00" d=" M 69.41 161.93 C 71.36 161.83 73.31 161.75 75.27 161.69 C 75.12 162.27 74.82 163.44 74.67 164.02 C 72.83 163.56 71.09 162.77 69.41 161.93 Z" />
</g>
<g id="#315580ff">
<path fill="#315580" opacity="1.00" d=" M 55.30 164.27 C 58.30 165.20 61.35 166.00 64.30 167.06 C 63.11 168.97 61.96 170.91 60.80 172.86 C 59.89 172.61 58.98 172.36 58.07 172.13 C 57.18 169.50 56.19 166.91 55.30 164.27 Z" />
</g>
<g id="#877a41ff">
<path fill="#877a41" opacity="1.00" d=" M 64.35 164.09 C 69.28 164.96 74.13 166.31 79.12 166.81 C 79.40 167.41 79.96 168.61 80.24 169.21 C 74.47 169.37 69.22 166.89 64.35 164.09 Z" />
</g>
<g id="#4f87cbff">
<path fill="#4f87cb" opacity="1.00" d=" M 60.80 172.86 C 61.96 170.91 63.11 168.97 64.30 167.06 C 68.74 168.76 73.19 170.73 77.97 171.16 C 81.65 171.37 84.71 173.63 87.74 175.49 C 83.82 176.20 79.84 176.70 75.85 176.39 C 70.74 175.71 65.72 174.40 60.80 172.86 Z" />
</g>
</svg>
