<?xml version="1.0" encoding="UTF-8" ?>
<!DOCTYPE svg PUBLIC "-//W3C//DTD SVG 1.1//EN" "http://www.w3.org/Graphics/SVG/1.1/DTD/svg11.dtd">
<svg width="178pt" height="178pt" viewBox="0 0 178 178" version="1.1" xmlns="http://www.w3.org/2000/svg">
<g id="#000000ff">
<path fill="#000000" opacity="1.00" d=" M 130.13 45.07 C 132.85 41.27 136.17 37.17 141.11 36.51 C 148.98 35.36 158.65 37.61 162.73 45.09 C 166.10 51.55 167.76 58.81 168.20 66.05 C 169.09 80.22 168.51 94.86 163.22 108.20 C 159.86 115.99 151.79 122.25 143.01 121.36 C 136.40 120.47 129.13 116.85 127.00 110.05 C 125.09 104.02 125.00 97.62 123.63 91.48 C 123.20 89.26 121.09 88.21 119.29 87.27 C 120.28 85.61 121.81 84.06 121.82 82.02 C 121.94 69.38 123.08 55.95 130.13 45.07 M 130.63 46.67 C 124.19 57.35 123.18 70.24 123.08 82.43 C 123.12 83.99 122.03 85.21 121.32 86.49 C 125.43 89.14 125.41 94.32 126.12 98.62 C 127.10 104.57 127.16 111.78 132.40 115.81 C 136.70 118.59 141.83 120.82 147.06 119.96 C 153.46 118.90 159.04 114.35 161.68 108.46 C 165.45 99.79 166.74 90.28 167.30 80.91 C 167.25 69.20 167.32 56.89 161.85 46.20 C 158.59 39.32 150.07 37.06 143.05 37.48 C 137.37 37.55 133.47 42.31 130.63 46.67 Z" />
<path fill="#000000" opacity="1.00" d=" M 34.77 48.83 C 42.35 41.45 53.38 36.87 63.98 39.61 C 74.80 42.73 83.11 52.27 85.91 63.05 C 89.74 73.63 88.31 84.99 88.29 96.00 C 88.50 106.97 83.73 118.32 74.92 125.03 C 73.71 125.68 71.97 127.82 73.81 128.83 C 76.83 130.63 80.35 130.98 83.78 131.28 C 84.62 132.09 85.31 133.04 86.05 133.95 C 88.02 133.96 89.68 134.93 91.10 136.21 C 92.87 135.74 94.93 133.72 96.68 135.24 C 98.95 137.82 101.23 140.66 104.75 141.52 C 105.94 144.90 104.75 148.59 106.17 151.95 C 108.74 159.40 107.32 167.62 110.84 174.82 C 110.50 174.79 109.83 174.75 109.50 174.73 C 105.66 166.20 106.57 156.51 103.63 147.70 C 97.99 152.78 89.50 153.98 82.83 150.19 C 80.75 152.56 78.38 154.65 75.63 156.20 C 76.04 162.79 76.21 169.39 76.05 176.00 C 82.52 176.49 89.02 176.34 95.51 176.51 C 95.67 169.76 96.78 162.92 99.69 156.79 C 99.81 159.78 99.28 162.74 98.65 165.65 C 99.74 164.42 100.83 163.20 101.97 162.02 C 100.82 167.08 96.86 171.19 97.10 176.59 C 98.72 176.53 100.33 176.43 101.95 176.30 C 92.66 177.72 83.14 177.56 73.88 176.08 C 74.94 170.98 74.53 165.71 74.11 160.56 C 72.91 161.74 71.69 162.90 70.46 164.05 C 70.61 167.76 70.66 171.49 70.91 175.20 C 71.42 175.35 72.45 175.64 72.97 175.79 C 71.80 175.65 70.62 175.53 69.50 175.19 L 68.46 174.78 C 67.32 174.35 66.24 173.78 65.21 173.14 C 65.24 170.49 65.19 167.85 65.07 165.20 C 63.90 164.75 62.73 164.29 61.56 163.84 C 61.59 166.95 61.70 170.06 61.76 173.18 C 61.31 173.01 60.42 172.67 59.97 172.50 C 59.79 167.95 59.70 163.41 59.14 158.89 C 53.02 158.99 48.25 152.74 42.07 154.99 C 42.52 155.47 43.41 156.43 43.85 156.90 C 42.98 156.54 42.13 156.11 41.30 155.67 C 38.63 156.83 35.74 157.35 32.84 157.41 C 32.31 157.02 31.26 156.25 30.73 155.87 C 35.03 155.52 39.31 154.65 43.36 153.17 C 45.47 152.44 45.84 149.93 45.82 148.01 C 45.74 145.99 45.96 143.23 43.70 142.32 C 43.52 140.81 43.36 139.30 43.24 137.78 C 42.27 137.70 41.29 137.62 40.32 137.54 C 41.36 139.37 41.56 141.47 41.64 143.54 C 41.86 143.73 42.28 144.11 42.49 144.30 C 42.59 146.69 43.81 149.24 42.56 151.53 C 39.90 153.31 36.33 154.40 33.28 152.95 C 31.16 152.03 28.90 151.57 26.58 151.74 C 26.45 151.74 26.18 151.74 26.04 151.74 C 27.52 151.27 32.07 151.65 30.21 148.98 C 28.17 148.14 25.89 148.86 23.75 148.64 C 23.60 148.62 23.29 148.58 23.14 148.56 C 25.43 148.30 27.73 148.10 29.98 147.58 C 27.72 147.15 25.44 146.82 23.15 146.58 C 23.37 146.19 23.80 145.40 24.01 145.01 C 22.58 144.92 21.14 144.82 19.70 144.70 C 20.50 143.55 21.88 143.44 23.16 143.30 C 24.12 142.37 24.71 140.87 26.05 140.45 C 31.51 139.40 35.99 135.72 40.70 133.14 C 40.46 136.56 45.08 133.81 42.30 132.12 L 41.92 131.71 C 44.09 128.92 42.99 125.14 42.84 121.91 C 38.57 117.67 35.59 112.35 33.96 106.56 C 28.67 107.80 25.02 103.07 22.96 98.92 C 20.42 92.79 20.62 85.27 25.08 80.06 C 23.44 68.84 27.64 57.43 34.77 48.83 M 50.46 41.41 L 50.93 42.75 C 48.95 42.84 46.97 43.01 45.00 43.23 C 46.23 43.95 47.57 44.41 49.00 44.62 C 46.24 44.61 43.39 44.56 40.82 45.72 C 43.53 46.24 46.30 46.31 49.05 46.50 C 45.78 47.17 41.07 45.50 38.94 48.55 C 41.62 48.99 44.83 47.78 47.20 49.42 C 43.20 50.45 37.79 48.37 34.72 51.66 C 38.76 52.28 42.85 52.32 46.93 52.49 C 42.30 52.86 37.65 52.56 33.04 53.10 C 34.46 54.86 37.04 54.13 39.01 54.54 C 36.60 55.00 33.38 54.05 31.66 56.19 C 33.72 56.32 35.79 56.33 37.85 56.38 C 35.15 56.77 31.77 56.29 30.01 58.87 C 34.97 59.58 40.01 59.50 44.91 60.57 C 39.90 60.20 34.76 59.63 29.80 60.61 L 29.06 61.97 C 32.75 62.28 36.45 62.19 40.13 62.41 C 36.72 62.86 33.27 62.81 29.86 63.26 C 28.90 63.30 28.18 63.74 27.72 64.61 C 32.03 65.11 36.36 65.28 40.70 65.40 L 40.68 65.63 C 36.19 65.72 31.69 65.84 27.21 66.24 L 27.88 67.31 C 32.24 68.17 36.95 66.75 41.13 68.52 C 36.03 69.06 30.84 68.23 25.80 69.38 C 27.02 70.33 28.46 70.83 30.01 70.58 C 34.34 70.59 38.83 69.88 43.01 71.30 C 37.61 71.49 32.20 71.49 26.83 72.16 C 30.46 74.12 34.97 72.88 38.96 73.49 C 34.55 73.85 30.11 73.68 25.70 74.13 C 26.51 75.14 27.45 76.31 28.92 76.16 C 32.91 76.50 36.92 76.38 40.91 76.54 C 36.36 76.61 31.80 76.80 27.24 76.80 L 27.32 77.97 C 29.60 78.09 31.89 78.18 34.16 78.40 C 31.63 78.92 29.04 79.05 26.47 79.00 C 27.05 80.22 26.58 81.53 26.45 82.79 C 25.18 83.08 24.26 83.80 23.72 84.96 C 26.22 85.45 28.78 85.52 31.32 85.28 C 30.63 83.76 28.87 83.50 27.54 82.83 C 27.69 82.16 27.98 80.84 28.13 80.18 C 30.63 81.25 33.29 81.57 35.98 81.50 C 34.66 81.64 33.35 81.78 32.03 81.91 C 32.33 83.02 32.60 84.14 32.83 85.27 C 35.87 86.19 39.08 86.03 42.18 86.61 C 38.00 87.11 33.79 86.58 29.60 86.78 L 29.52 88.19 C 34.41 88.57 39.32 88.93 44.19 89.55 C 39.48 90.05 34.78 89.03 30.07 89.29 C 31.35 93.55 36.57 91.81 39.89 92.57 C 36.94 93.09 33.21 91.80 30.88 94.09 C 32.25 94.66 33.65 95.16 35.05 95.65 C 32.83 96.15 30.08 95.53 28.31 97.20 C 28.64 97.54 29.28 98.23 29.60 98.57 C 30.06 98.19 30.98 97.43 31.44 97.05 C 34.50 99.86 39.31 98.26 43.06 99.65 C 39.73 99.62 36.32 99.03 33.05 99.87 C 31.77 100.94 30.64 102.31 28.84 102.48 C 28.43 101.25 27.85 97.71 25.62 99.80 C 27.16 101.85 28.60 106.06 32.00 104.95 C 37.55 103.65 43.28 104.25 48.91 104.52 C 44.29 105.23 39.12 103.76 34.88 105.81 C 36.04 108.47 38.18 110.70 38.78 113.51 C 42.20 114.08 45.69 114.03 49.11 114.54 C 45.75 114.88 42.35 114.80 38.98 115.09 C 41.12 117.51 44.72 116.61 47.57 116.81 C 47.56 116.91 47.54 117.11 47.53 117.21 C 45.32 117.27 43.11 117.41 40.91 117.55 C 45.23 122.14 51.00 125.26 57.01 127.02 C 62.92 128.19 69.97 127.90 74.51 123.40 C 83.66 116.25 87.15 104.15 87.26 92.95 C 87.29 83.12 87.39 73.09 84.74 63.54 C 82.68 57.23 79.20 51.21 74.21 46.78 C 70.61 43.97 66.34 42.07 61.97 40.83 C 58.17 39.72 54.25 40.85 50.46 41.41 M 23.13 86.42 C 22.53 88.11 23.04 88.62 24.64 87.94 C 25.23 86.27 24.73 85.76 23.13 86.42 M 26.32 86.99 C 28.78 89.37 24.74 90.18 23.02 89.00 C 23.13 90.91 23.24 92.82 23.39 94.73 C 25.68 94.93 28.13 94.79 29.89 93.10 C 28.16 92.94 26.43 92.78 24.69 92.62 C 26.16 92.26 27.65 91.98 29.13 91.68 C 28.91 90.01 27.42 88.76 27.63 87.00 C 27.30 87.00 26.65 86.99 26.32 86.99 M 24.10 96.11 C 23.09 97.58 25.69 99.16 26.74 97.88 C 27.70 96.40 25.17 94.95 24.10 96.11 M 45.09 123.78 C 45.17 124.49 45.32 125.91 45.40 126.63 C 46.89 126.72 48.39 126.86 49.79 127.41 C 48.11 127.83 45.94 127.20 44.77 128.85 C 47.74 128.75 51.88 130.52 54.16 128.04 C 52.18 127.18 50.13 126.52 48.05 126.00 C 47.67 124.53 46.49 123.95 45.09 123.78 M 55.56 128.65 C 55.25 128.95 54.64 129.55 54.33 129.86 C 51.39 129.86 48.46 130.13 45.56 130.59 C 45.37 133.31 45.26 136.03 45.31 138.76 C 46.35 140.34 47.30 142.09 49.02 143.05 C 54.59 146.51 61.56 148.03 68.01 146.56 C 71.46 145.78 74.63 143.23 75.33 139.63 C 74.59 139.66 73.10 139.71 72.36 139.74 C 72.31 135.68 72.19 131.63 72.05 127.57 C 66.69 129.14 61.07 129.19 55.56 128.65 M 73.81 130.26 C 73.96 132.75 73.40 135.69 75.24 137.73 C 78.15 141.18 80.54 145.07 83.76 148.24 C 86.51 150.96 90.69 150.98 94.27 150.47 C 98.08 149.94 100.82 147.02 103.83 144.92 C 103.82 144.45 103.81 143.52 103.81 143.05 C 100.35 141.73 97.87 139.07 95.61 136.26 C 93.04 135.36 91.86 137.99 92.58 140.22 C 90.98 138.33 89.21 136.59 87.19 135.15 C 87.59 136.56 87.85 138.08 88.77 139.27 C 91.06 140.61 93.66 141.29 95.90 142.74 C 96.91 142.17 97.93 141.63 98.97 141.11 C 98.09 143.14 96.79 144.97 96.16 147.11 C 93.71 149.12 89.28 150.89 86.86 148.01 C 82.90 141.91 80.98 133.51 73.81 130.26 M 79.95 132.11 C 81.60 134.61 83.18 137.15 84.54 139.82 C 85.12 139.81 86.27 139.80 86.84 139.79 C 85.79 137.10 84.53 134.51 83.00 132.07 C 82.24 132.08 80.71 132.10 79.95 132.11 M 33.63 138.10 C 33.96 138.49 34.60 139.25 34.93 139.63 C 33.03 139.13 32.20 139.83 32.42 141.76 C 30.14 141.64 27.85 141.69 25.57 141.91 C 26.46 143.20 26.92 144.80 28.09 145.89 C 29.82 146.13 31.57 146.01 33.31 146.00 C 32.82 145.52 31.85 144.54 31.36 144.05 C 33.18 142.18 35.07 144.49 37.04 143.99 C 38.90 142.90 36.38 141.38 35.16 141.64 C 36.35 140.49 37.60 139.41 38.81 138.29 C 37.22 137.26 35.35 137.52 33.63 138.10 M 70.14 147.73 C 72.14 151.28 71.38 155.65 73.66 159.09 C 73.79 157.62 72.75 155.41 74.59 154.63 C 76.81 152.91 79.82 151.58 80.92 148.89 C 79.89 146.79 78.65 144.75 77.02 143.06 C 74.40 143.74 73.00 147.02 70.14 147.73 M 47.63 144.35 C 47.85 146.87 47.11 149.64 48.20 151.99 C 51.14 156.12 56.65 157.48 61.48 157.18 C 59.72 154.66 60.24 151.70 60.99 148.94 C 56.37 147.94 51.86 146.46 47.63 144.35 M 66.24 148.23 C 66.57 151.59 69.10 146.56 66.24 148.23 M 65.26 150.37 C 63.96 151.36 65.71 153.48 66.95 152.50 C 68.19 151.49 66.52 149.37 65.26 150.37 M 62.80 151.75 C 63.01 153.35 63.27 154.95 63.58 156.54 C 62.60 158.02 61.56 159.79 62.50 161.58 C 64.61 164.74 69.68 163.09 71.42 160.34 C 72.49 158.61 70.74 157.22 69.74 156.04 C 69.91 154.48 70.08 152.92 70.22 151.36 C 68.51 151.75 67.65 153.46 66.10 154.12 C 64.43 154.60 63.84 152.56 62.80 151.75 M 67.12 166.10 C 67.45 169.38 70.08 164.43 67.12 166.10 M 67.24 168.13 C 66.88 169.51 67.39 170.05 68.79 169.74 C 69.16 168.36 68.64 167.83 67.24 168.13 M 67.26 171.01 C 66.89 172.40 67.39 172.91 68.76 172.54 C 69.12 171.15 68.62 170.64 67.26 171.01 Z" />
<path fill="#000000" opacity="1.00" d=" M 48.66 72.44 C 54.39 71.39 60.25 71.12 66.07 71.48 C 64.64 74.00 61.39 72.71 59.06 73.02 C 55.62 72.74 51.79 74.35 48.66 72.44 Z" />
<path fill="#000000" opacity="1.00" d=" M 71.96 72.50 C 76.25 72.24 80.90 70.70 85.01 72.54 C 80.82 73.28 75.88 74.50 71.96 72.50 Z" />
<path fill="#000000" opacity="1.00" d=" M 139.42 72.57 C 141.93 71.76 144.72 73.76 144.53 76.47 C 144.41 80.69 140.37 85.35 135.86 84.34 C 131.28 81.14 134.74 73.69 139.42 72.57 M 139.09 74.22 C 136.01 75.00 133.72 78.92 135.36 81.86 C 139.09 84.93 143.94 79.81 143.40 75.88 C 143.00 73.93 140.65 73.71 139.09 74.22 Z" />
<path fill="#000000" opacity="1.00" d=" M 145.63 77.00 C 145.86 75.46 145.06 73.08 147.03 72.40 C 147.12 74.36 147.10 76.32 147.10 78.28 C 149.26 76.27 151.31 74.14 153.39 72.05 C 154.73 74.82 150.63 76.44 149.44 78.58 C 151.54 79.78 154.38 80.95 154.66 83.71 C 152.36 82.11 150.09 80.20 147.15 80.03 C 147.00 81.75 146.89 83.47 146.68 85.19 C 144.82 82.90 145.93 79.69 145.63 77.00 Z" />
<path fill="#000000" opacity="1.00" d=" M 53.46 75.74 C 56.73 75.60 60.31 75.24 63.32 76.77 C 64.52 80.41 60.71 83.55 57.61 84.56 C 53.41 85.58 47.10 82.96 47.28 78.03 C 48.62 76.12 51.37 76.15 53.46 75.74 M 48.60 77.86 C 48.14 81.94 52.64 83.52 55.93 83.64 C 58.58 82.94 62.30 81.30 62.02 77.97 C 57.89 76.31 53.00 77.69 48.60 77.86 Z" />
<path fill="#000000" opacity="1.00" d=" M 75.44 75.62 C 78.32 74.98 81.71 74.91 84.08 76.93 C 85.98 83.13 76.17 87.79 72.36 82.63 C 69.45 80.20 71.91 75.58 75.44 75.62 M 75.59 76.75 C 74.30 77.36 72.62 77.64 71.83 78.95 C 71.90 80.61 73.11 81.85 74.35 82.80 C 77.75 84.71 82.57 82.03 82.93 78.20 C 82.39 76.26 79.68 76.99 78.28 76.32 C 78.05 77.53 77.85 78.73 77.59 79.93 C 77.10 78.83 77.22 76.87 75.59 76.75 Z" />
<path fill="#000000" opacity="1.00" d=" M 57.23 78.11 C 60.63 78.47 55.44 81.01 57.23 78.11 Z" />
<path fill="#000000" opacity="1.00" d=" M 68.68 85.18 C 68.55 83.45 67.98 81.41 69.28 79.99 C 69.76 85.02 70.62 90.00 71.75 94.93 C 72.43 96.19 71.22 97.08 70.53 97.93 C 70.65 93.59 69.07 89.47 68.68 85.18 Z" />
<path fill="#000000" opacity="1.00" d=" M 65.03 106.56 C 66.89 104.76 70.11 104.89 72.02 106.56 C 69.71 107.07 67.33 107.21 65.03 106.56 Z" />
<path fill="#000000" opacity="1.00" d=" M 65.49 159.10 C 66.48 157.92 68.72 159.49 67.77 160.79 C 66.77 161.95 64.59 160.39 65.49 159.10 Z" />
</g>
<g id="#fdfefeff">
<path fill="#fdfefe" opacity="1.00" d=" M 130.63 46.67 C 133.47 42.31 137.37 37.55 143.05 37.48 C 150.07 37.06 158.59 39.32 161.85 46.20 C 167.32 56.89 167.25 69.20 167.30 80.91 C 166.74 90.28 165.45 99.79 161.68 108.46 C 159.04 114.35 153.46 118.90 147.06 119.96 C 141.83 120.82 136.70 118.59 132.40 115.81 C 127.16 111.78 127.10 104.57 126.12 98.62 C 125.41 94.32 125.43 89.14 121.32 86.49 C 122.03 85.21 123.12 83.99 123.08 82.43 C 123.18 70.24 124.19 57.35 130.63 46.67 M 139.42 72.57 C 134.74 73.69 131.28 81.14 135.86 84.34 C 140.37 85.35 144.41 80.69 144.53 76.47 C 144.72 73.76 141.93 71.76 139.42 72.57 M 145.63 77.00 C 145.93 79.69 144.82 82.90 146.68 85.19 C 146.89 83.47 147.00 81.75 147.15 80.03 C 150.09 80.20 152.36 82.11 154.66 83.71 C 154.38 80.95 151.54 79.78 149.44 78.58 C 150.63 76.44 154.73 74.82 153.39 72.05 C 151.31 74.14 149.26 76.27 147.10 78.28 C 147.10 76.32 147.12 74.36 147.03 72.40 C 145.06 73.08 145.86 75.46 145.63 77.00 Z" />
<path fill="#fdfefe" opacity="1.00" d=" M 139.09 74.22 C 140.65 73.71 143.00 73.93 143.40 75.88 C 143.94 79.81 139.09 84.93 135.36 81.86 C 133.72 78.92 136.01 75.00 139.09 74.22 Z" />
<path fill="#fdfefe" opacity="1.00" d=" M 48.60 77.86 C 53.00 77.69 57.89 76.31 62.02 77.97 C 62.30 81.30 58.58 82.94 55.93 83.64 C 52.64 83.52 48.14 81.94 48.60 77.86 M 57.23 78.11 C 55.44 81.01 60.63 78.47 57.23 78.11 Z" />
<path fill="#fdfefe" opacity="1.00" d=" M 75.59 76.75 C 77.22 76.87 77.10 78.83 77.59 79.93 C 77.85 78.73 78.05 77.53 78.28 76.32 C 79.68 76.99 82.39 76.26 82.93 78.20 C 82.57 82.03 77.75 84.71 74.35 82.80 C 73.11 81.85 71.90 80.61 71.83 78.95 C 72.62 77.64 74.30 77.36 75.59 76.75 Z" />
<path fill="#fdfefe" opacity="1.00" d=" M 73.81 130.26 C 80.98 133.51 82.90 141.91 86.86 148.01 C 89.28 150.89 93.71 149.12 96.16 147.11 C 96.79 144.97 98.09 143.14 98.97 141.11 C 97.93 141.63 96.91 142.17 95.90 142.74 C 93.66 141.29 91.06 140.61 88.77 139.27 C 87.85 138.08 87.59 136.56 87.19 135.15 C 89.21 136.59 90.98 138.33 92.58 140.22 C 91.86 137.99 93.04 135.36 95.61 136.26 C 97.87 139.07 100.35 141.73 103.81 143.05 C 103.81 143.52 103.82 144.45 103.83 144.92 C 100.82 147.02 98.08 149.94 94.27 150.47 C 90.69 150.98 86.51 150.96 83.76 148.24 C 80.54 145.07 78.15 141.18 75.24 137.73 C 73.40 135.69 73.96 132.75 73.81 130.26 Z" />
<path fill="#fdfefe" opacity="1.00" d=" M 42.30 132.12 C 45.08 133.81 40.46 136.56 40.70 133.14 C 41.10 132.88 41.90 132.38 42.30 132.12 Z" />
<path fill="#fdfefe" opacity="1.00" d=" M 79.95 132.11 C 80.71 132.10 82.24 132.08 83.00 132.07 C 84.53 134.51 85.79 137.10 86.84 139.79 C 86.27 139.80 85.12 139.81 84.54 139.82 C 83.18 137.15 81.60 134.61 79.95 132.11 Z" />
<path fill="#fdfefe" opacity="1.00" d=" M 40.32 137.54 C 41.29 137.62 42.27 137.70 43.24 137.78 C 43.36 139.30 43.52 140.81 43.70 142.32 C 45.96 143.23 45.74 145.99 45.82 148.01 C 45.84 149.93 45.47 152.44 43.36 153.17 C 39.31 154.65 35.03 155.52 30.73 155.87 L 30.33 155.91 L 30.72 154.67 C 29.03 154.17 27.61 153.17 26.58 151.74 C 28.90 151.57 31.16 152.03 33.28 152.95 C 36.33 154.40 39.90 153.31 42.56 151.53 C 43.81 149.24 42.59 146.69 42.49 144.30 C 42.28 144.11 41.86 143.73 41.64 143.54 C 41.56 141.47 41.36 139.37 40.32 137.54 Z" />
<path fill="#fdfefe" opacity="1.00" d=" M 70.14 147.73 C 73.00 147.02 74.40 143.74 77.02 143.06 C 78.65 144.75 79.89 146.79 80.92 148.89 C 79.82 151.58 76.81 152.91 74.59 154.63 C 72.75 155.41 73.79 157.62 73.66 159.09 C 71.38 155.65 72.14 151.28 70.14 147.73 Z" />
<path fill="#fdfefe" opacity="1.00" d=" M 19.70 144.70 C 21.14 144.82 22.58 144.92 24.01 145.01 C 23.80 145.40 23.37 146.19 23.15 146.58 C 25.44 146.82 27.72 147.15 29.98 147.58 C 27.73 148.10 25.43 148.30 23.14 148.56 C 22.16 147.13 21.09 145.76 19.70 144.70 Z" />
<path fill="#fdfefe" opacity="1.00" d=" M 47.63 144.35 C 51.86 146.46 56.37 147.94 60.99 148.94 C 60.24 151.70 59.72 154.66 61.48 157.18 C 56.65 157.48 51.14 156.12 48.20 151.99 C 47.11 149.64 47.85 146.87 47.63 144.35 Z" />
<path fill="#fdfefe" opacity="1.00" d=" M 70.46 164.05 C 71.69 162.90 72.91 161.74 74.11 160.56 C 74.53 165.71 74.94 170.98 73.88 176.08 L 72.97 175.79 C 72.45 175.64 71.42 175.35 70.91 175.20 C 70.66 171.49 70.61 167.76 70.46 164.05 Z" />
<path fill="#fdfefe" opacity="1.00" d=" M 61.56 163.84 C 62.73 164.29 63.90 164.75 65.07 165.20 C 65.19 167.85 65.24 170.49 65.21 173.14 C 66.24 173.78 67.32 174.35 68.46 174.78 L 69.50 175.19 C 66.81 174.95 64.31 173.96 61.76 173.18 C 61.70 170.06 61.59 166.95 61.56 163.84 Z" />
</g>
<g id="#ddb59cff">
<path fill="#ddb59c" opacity="1.00" d=" M 50.46 41.41 C 54.25 40.85 58.17 39.72 61.97 40.83 C 66.34 42.07 70.61 43.97 74.21 46.78 C 79.20 51.21 82.68 57.23 84.74 63.54 C 87.39 73.09 87.29 83.12 87.26 92.95 C 87.15 104.15 83.66 116.25 74.51 123.40 C 69.97 127.90 62.92 128.19 57.01 127.02 C 51.00 125.26 45.23 122.14 40.91 117.55 C 43.11 117.41 45.32 117.27 47.53 117.21 C 47.54 117.11 47.56 116.91 47.57 116.81 C 44.72 116.61 41.12 117.51 38.98 115.09 C 42.35 114.80 45.75 114.88 49.11 114.54 C 45.69 114.03 42.20 114.08 38.78 113.51 C 38.18 110.70 36.04 108.47 34.88 105.81 C 39.12 103.76 44.29 105.23 48.91 104.52 C 43.28 104.25 37.55 103.65 32.00 104.95 C 28.60 106.06 27.16 101.85 25.62 99.80 C 27.85 97.71 28.43 101.25 28.84 102.48 C 30.64 102.31 31.77 100.94 33.05 99.87 C 36.32 99.03 39.73 99.62 43.06 99.65 C 39.31 98.26 34.50 99.86 31.44 97.05 C 30.98 97.43 30.06 98.19 29.60 98.57 C 29.28 98.23 28.64 97.54 28.31 97.20 C 30.08 95.53 32.83 96.15 35.05 95.65 C 33.65 95.16 32.25 94.66 30.88 94.09 C 33.21 91.80 36.94 93.09 39.89 92.57 C 36.57 91.81 31.35 93.55 30.07 89.29 C 34.78 89.03 39.48 90.05 44.19 89.55 C 39.32 88.93 34.41 88.57 29.52 88.19 L 29.60 86.78 C 33.79 86.58 38.00 87.11 42.18 86.61 C 39.08 86.03 35.87 86.19 32.83 85.27 C 32.60 84.14 32.33 83.02 32.03 81.91 C 33.35 81.78 34.66 81.64 35.98 81.50 C 33.29 81.57 30.63 81.25 28.13 80.18 C 27.98 80.84 27.69 82.16 27.54 82.83 C 28.87 83.50 30.63 83.76 31.32 85.28 C 28.78 85.52 26.22 85.45 23.72 84.96 C 24.26 83.80 25.18 83.08 26.45 82.79 C 26.58 81.53 27.05 80.22 26.47 79.00 C 29.04 79.05 31.63 78.92 34.16 78.40 C 31.89 78.18 29.60 78.09 27.32 77.97 L 27.24 76.80 C 31.80 76.80 36.36 76.61 40.91 76.54 C 36.92 76.38 32.91 76.50 28.92 76.16 C 27.45 76.31 26.51 75.14 25.70 74.13 C 30.11 73.68 34.55 73.85 38.96 73.49 C 34.97 72.88 30.46 74.12 26.83 72.16 C 32.20 71.49 37.61 71.49 43.01 71.30 C 38.83 69.88 34.34 70.59 30.01 70.58 C 28.46 70.83 27.02 70.33 25.80 69.38 C 30.84 68.23 36.03 69.06 41.13 68.52 C 36.95 66.75 32.24 68.17 27.88 67.31 L 27.21 66.24 C 31.69 65.84 36.19 65.72 40.68 65.63 L 40.70 65.40 C 36.36 65.28 32.03 65.11 27.72 64.61 C 28.18 63.74 28.90 63.30 29.86 63.26 C 33.27 62.81 36.72 62.86 40.13 62.41 C 36.45 62.19 32.75 62.28 29.06 61.97 L 29.80 60.61 C 34.76 59.63 39.90 60.20 44.91 60.57 C 40.01 59.50 34.97 59.58 30.01 58.87 C 31.77 56.29 35.15 56.77 37.85 56.38 C 35.79 56.33 33.72 56.32 31.66 56.19 C 33.38 54.05 36.60 55.00 39.01 54.54 C 37.04 54.13 34.46 54.86 33.04 53.10 C 37.65 52.56 42.30 52.86 46.93 52.49 C 42.85 52.32 38.76 52.28 34.72 51.66 C 37.79 48.37 43.20 50.45 47.20 49.42 C 44.83 47.78 41.62 48.99 38.94 48.55 C 41.07 45.50 45.78 47.17 49.05 46.50 C 46.30 46.31 43.53 46.24 40.82 45.72 C 43.39 44.56 46.24 44.61 49.00 44.62 C 47.57 44.41 46.23 43.95 45.00 43.23 C 46.97 43.01 48.95 42.84 50.93 42.75 L 50.46 41.41 M 41.40 57.20 C 41.65 58.53 42.38 58.75 43.59 57.87 C 43.34 56.54 42.61 56.31 41.40 57.20 M 49.31 60.14 C 49.60 63.45 52.22 58.46 49.31 60.14 M 46.27 63.12 C 46.60 66.44 49.15 61.42 46.27 63.12 M 46.26 66.11 C 46.53 69.44 49.15 64.45 46.26 66.11 M 44.32 68.07 C 44.46 71.40 47.31 66.54 44.32 68.07 M 48.66 72.44 C 51.79 74.35 55.62 72.74 59.06 73.02 C 61.39 72.71 64.64 74.00 66.07 71.48 C 60.25 71.12 54.39 71.39 48.66 72.44 M 71.96 72.50 C 75.88 74.50 80.82 73.28 85.01 72.54 C 80.90 70.70 76.25 72.24 71.96 72.50 M 53.46 75.74 C 51.37 76.15 48.62 76.12 47.28 78.03 C 47.10 82.96 53.41 85.58 57.61 84.56 C 60.71 83.55 64.52 80.41 63.32 76.77 C 60.31 75.24 56.73 75.60 53.46 75.74 M 75.44 75.62 C 71.91 75.58 69.45 80.20 72.36 82.63 C 76.17 87.79 85.98 83.13 84.08 76.93 C 81.71 74.91 78.32 74.98 75.44 75.62 M 68.68 85.18 C 69.07 89.47 70.65 93.59 70.53 97.93 C 71.22 97.08 72.43 96.19 71.75 94.93 C 70.62 90.00 69.76 85.02 69.28 79.99 C 67.98 81.41 68.55 83.45 68.68 85.18 M 39.29 81.12 C 39.50 84.45 42.23 79.52 39.29 81.12 M 35.27 83.08 C 35.35 86.42 38.26 81.60 35.27 83.08 M 40.28 84.06 C 40.21 87.40 43.36 82.72 40.28 84.06 M 45.26 84.14 C 45.64 87.44 48.13 82.40 45.26 84.14 M 41.29 95.04 C 41.31 98.37 44.32 93.61 41.29 95.04 M 47.28 99.13 C 47.48 102.46 50.23 97.54 47.28 99.13 M 65.03 106.56 C 67.33 107.21 69.71 107.07 72.02 106.56 C 70.11 104.89 66.89 104.76 65.03 106.56 M 38.03 107.06 C 38.81 107.92 39.60 108.78 40.38 109.64 C 42.26 109.63 44.14 109.62 46.03 109.61 C 44.74 109.33 43.46 109.04 42.18 108.73 C 44.35 107.73 46.82 107.94 49.12 107.48 C 45.46 106.83 41.73 106.92 38.03 107.06 M 47.41 120.34 C 47.85 121.75 50.55 121.47 51.62 120.74 C 51.22 119.26 48.47 119.59 47.41 120.34 M 51.37 122.09 C 51.00 123.46 51.51 123.98 52.92 123.66 C 53.29 122.29 52.78 121.77 51.37 122.09 Z" />
<path fill="#ddb59c" opacity="1.00" d=" M 23.13 86.42 C 24.73 85.76 25.23 86.27 24.64 87.94 C 23.04 88.62 22.53 88.11 23.13 86.42 Z" />
<path fill="#ddb59c" opacity="1.00" d=" M 26.32 86.99 C 26.65 86.99 27.30 87.00 27.63 87.00 C 27.42 88.76 28.91 90.01 29.13 91.68 C 27.65 91.98 26.16 92.26 24.69 92.62 C 26.43 92.78 28.16 92.94 29.89 93.10 C 28.13 94.79 25.68 94.93 23.39 94.73 C 23.24 92.82 23.13 90.91 23.02 89.00 C 24.74 90.18 28.78 89.37 26.32 86.99 Z" />
<path fill="#ddb59c" opacity="1.00" d=" M 24.10 96.11 C 25.17 94.95 27.70 96.40 26.74 97.88 C 25.69 99.16 23.09 97.58 24.10 96.11 Z" />
<path fill="#ddb59c" opacity="1.00" d=" M 45.09 123.78 C 46.49 123.95 47.67 124.53 48.05 126.00 C 50.13 126.52 52.18 127.18 54.16 128.04 C 51.88 130.52 47.74 128.75 44.77 128.85 C 45.94 127.20 48.11 127.83 49.79 127.41 C 48.39 126.86 46.89 126.72 45.40 126.63 C 45.32 125.91 45.17 124.49 45.09 123.78 Z" />
<path fill="#ddb59c" opacity="1.00" d=" M 55.56 128.65 C 61.07 129.19 66.69 129.14 72.05 127.57 C 72.19 131.63 72.31 135.68 72.36 139.74 C 73.10 139.71 74.59 139.66 75.33 139.63 C 74.63 143.23 71.46 145.78 68.01 146.56 C 61.56 148.03 54.59 146.51 49.02 143.05 C 47.30 142.09 46.35 140.34 45.31 138.76 C 45.26 136.03 45.37 133.31 45.56 130.59 C 48.46 130.13 51.39 129.86 54.33 129.86 C 54.64 129.55 55.25 128.95 55.56 128.65 Z" />
</g>
<g id="#acb2b5ff">
<path fill="#acb2b5" opacity="1.00" d=" M 41.40 57.20 C 42.61 56.31 43.34 56.54 43.59 57.87 C 42.38 58.75 41.65 58.53 41.40 57.20 Z" />
<path fill="#acb2b5" opacity="1.00" d=" M 49.31 60.14 C 52.22 58.46 49.60 63.45 49.31 60.14 Z" />
<path fill="#acb2b5" opacity="1.00" d=" M 44.32 68.07 C 47.31 66.54 44.46 71.40 44.32 68.07 Z" />
<path fill="#acb2b5" opacity="1.00" d=" M 39.29 81.12 C 42.23 79.52 39.50 84.45 39.29 81.12 Z" />
<path fill="#acb2b5" opacity="1.00" d=" M 40.28 84.06 C 43.36 82.72 40.21 87.40 40.28 84.06 Z" />
<path fill="#acb2b5" opacity="1.00" d=" M 47.28 99.13 C 50.23 97.54 47.48 102.46 47.28 99.13 Z" />
<path fill="#acb2b5" opacity="1.00" d=" M 47.41 120.34 C 48.47 119.59 51.22 119.26 51.62 120.74 C 50.55 121.47 47.85 121.75 47.41 120.34 Z" />
<path fill="#acb2b5" opacity="1.00" d=" M 33.63 138.10 C 35.35 137.52 37.22 137.26 38.81 138.29 C 37.60 139.41 36.35 140.49 35.16 141.64 C 36.38 141.38 38.90 142.90 37.04 143.99 C 35.07 144.49 33.18 142.18 31.36 144.05 C 31.85 144.54 32.82 145.52 33.31 146.00 C 31.57 146.01 29.82 146.13 28.09 145.89 C 26.92 144.80 26.46 143.20 25.57 141.91 C 27.85 141.69 30.14 141.64 32.42 141.76 C 32.20 139.83 33.03 139.13 34.93 139.63 C 34.60 139.25 33.96 138.49 33.63 138.10 Z" />
<path fill="#acb2b5" opacity="1.00" d=" M 23.75 148.64 C 25.89 148.86 28.17 148.14 30.21 148.98 C 32.07 151.65 27.52 151.27 26.04 151.74 C 25.24 150.73 24.48 149.70 23.75 148.64 Z" />
<path fill="#acb2b5" opacity="1.00" d=" M 65.26 150.37 C 66.52 149.37 68.19 151.49 66.95 152.50 C 65.71 153.48 63.96 151.36 65.26 150.37 Z" />
<path fill="#acb2b5" opacity="1.00" d=" M 62.80 151.75 C 63.84 152.56 64.43 154.60 66.10 154.12 C 67.65 153.46 68.51 151.75 70.22 151.36 C 70.08 152.92 69.91 154.48 69.74 156.04 C 70.74 157.22 72.49 158.61 71.42 160.34 C 69.68 163.09 64.61 164.74 62.50 161.58 C 61.56 159.79 62.60 158.02 63.58 156.54 C 63.27 154.95 63.01 153.35 62.80 151.75 M 65.49 159.10 C 64.59 160.39 66.77 161.95 67.77 160.79 C 68.72 159.49 66.48 157.92 65.49 159.10 Z" />
<path fill="#acb2b5" opacity="1.00" d=" M 67.26 171.01 C 68.62 170.64 69.12 171.15 68.76 172.54 C 67.39 172.91 66.89 172.40 67.26 171.01 Z" />
</g>
<g id="#665a4efd">
<path fill="#665a4e" opacity="1.00" d=" M 46.27 63.12 C 49.15 61.42 46.60 66.44 46.27 63.12 Z" />
<path fill="#665a4e" opacity="1.00" d=" M 46.26 66.11 C 49.15 64.45 46.53 69.44 46.26 66.11 Z" />
<path fill="#665a4e" opacity="1.00" d=" M 35.27 83.08 C 38.26 81.60 35.35 86.42 35.27 83.08 Z" />
<path fill="#665a4e" opacity="1.00" d=" M 45.26 84.14 C 48.13 82.40 45.64 87.44 45.26 84.14 Z" />
<path fill="#665a4e" opacity="1.00" d=" M 41.29 95.04 C 44.32 93.61 41.31 98.37 41.29 95.04 Z" />
<path fill="#665a4e" opacity="1.00" d=" M 38.03 107.06 C 41.73 106.92 45.46 106.83 49.12 107.48 C 46.82 107.94 44.35 107.73 42.18 108.73 C 43.46 109.04 44.74 109.33 46.03 109.61 C 44.14 109.62 42.26 109.63 40.38 109.64 C 39.60 108.78 38.81 107.92 38.03 107.06 Z" />
<path fill="#665a4e" opacity="1.00" d=" M 51.37 122.09 C 52.78 121.77 53.29 122.29 52.92 123.66 C 51.51 123.98 51.00 123.46 51.37 122.09 Z" />
<path fill="#665a4e" opacity="1.00" d=" M 66.24 148.23 C 69.10 146.56 66.57 151.59 66.24 148.23 Z" />
<path fill="#665a4e" opacity="1.00" d=" M 34.99 159.25 C 38.21 159.01 41.44 158.89 44.65 159.24 C 42.47 161.25 39.31 160.33 36.63 160.60 C 36.09 160.14 35.54 159.70 34.99 159.25 Z" />
<path fill="#665a4e" opacity="1.00" d=" M 37.69 160.90 C 39.78 161.44 41.85 162.03 43.93 162.60 C 43.25 162.88 41.90 163.43 41.22 163.70 C 40.05 162.75 38.87 161.83 37.69 160.90 Z" />
<path fill="#665a4e" opacity="1.00" d=" M 67.12 166.10 C 70.08 164.43 67.45 169.38 67.12 166.10 Z" />
<path fill="#665a4e" opacity="1.00" d=" M 67.24 168.13 C 68.64 167.83 69.16 168.36 68.79 169.74 C 67.39 170.05 66.88 169.51 67.24 168.13 Z" />
</g>
<g id="#ebbe65ff">
<path fill="#ebbe65" opacity="1.00" d=" M 82.83 150.19 C 89.50 153.98 97.99 152.78 103.63 147.70 C 106.57 156.51 105.66 166.20 109.50 174.73 C 107.04 175.49 104.50 175.98 101.95 176.30 C 100.33 176.43 98.72 176.53 97.10 176.59 C 96.86 171.19 100.82 167.08 101.97 162.02 C 100.83 163.20 99.74 164.42 98.65 165.65 C 99.28 162.74 99.81 159.78 99.69 156.79 C 96.78 162.92 95.67 169.76 95.51 176.51 C 89.02 176.34 82.52 176.49 76.05 176.00 C 76.21 169.39 76.04 162.79 75.63 156.20 C 78.38 154.65 80.75 152.56 82.83 150.19 Z" />
<path fill="#ebbe65" opacity="1.00" d=" M 42.07 154.99 C 48.25 152.74 53.02 158.99 59.14 158.89 C 59.70 163.41 59.79 167.95 59.97 172.50 C 53.35 170.43 47.25 167.06 41.22 163.70 C 41.90 163.43 43.25 162.88 43.93 162.60 C 41.85 162.03 39.78 161.44 37.69 160.90 L 36.63 160.60 C 39.31 160.33 42.47 161.25 44.65 159.24 C 41.44 158.89 38.21 159.01 34.99 159.25 C 34.27 158.64 33.55 158.03 32.84 157.41 C 35.74 157.35 38.63 156.83 41.30 155.67 C 42.13 156.11 42.98 156.54 43.85 156.90 C 43.41 156.43 42.52 155.47 42.07 154.99 Z" />
</g>
</svg>
