<?xml version="1.0" encoding="UTF-8" ?>
<!DOCTYPE svg PUBLIC "-//W3C//DTD SVG 1.1//EN" "http://www.w3.org/Graphics/SVG/1.1/DTD/svg11.dtd">
<svg width="178pt" height="178pt" viewBox="0 0 178 178" version="1.1" xmlns="http://www.w3.org/2000/svg">
<g id="#000000ff">
<path fill="#000000" opacity="1.00" d=" M 68.41 6.37 C 81.10 6.38 93.80 6.37 106.49 6.38 C 106.50 7.16 106.51 8.72 106.52 9.50 C 109.63 9.51 112.75 9.50 115.86 9.43 C 115.91 10.26 116.01 11.92 116.06 12.75 C 118.15 12.75 120.25 12.75 122.35 12.74 C 122.36 13.70 122.38 14.65 122.39 15.61 C 124.47 15.73 126.34 16.19 125.53 18.74 C 126.57 18.89 127.61 19.04 128.66 19.18 C 128.67 19.96 128.69 21.52 128.70 22.30 C 129.49 22.28 131.08 22.23 131.88 22.20 C 131.87 22.97 131.85 24.52 131.84 25.29 C 132.57 25.29 134.04 25.30 134.77 25.30 C 134.96 27.23 135.15 29.16 135.44 31.07 C 134.31 31.15 133.19 31.24 132.06 31.34 C 131.94 29.35 131.87 27.35 131.81 25.35 C 131.01 25.36 129.42 25.37 128.62 25.37 C 128.63 24.59 128.64 23.03 128.65 22.24 C 127.85 22.24 126.25 22.24 125.45 22.24 C 125.49 21.47 125.57 19.92 125.62 19.14 C 124.52 19.06 123.43 18.99 122.34 18.91 C 122.35 18.15 122.38 16.63 122.39 15.87 C 120.26 15.87 118.14 15.88 116.02 15.88 C 116.01 15.10 115.99 13.53 115.99 12.75 C 112.82 12.75 109.65 12.75 106.49 12.75 C 106.50 11.94 106.51 10.32 106.51 9.51 C 93.80 9.49 81.09 9.50 68.38 9.50 C 68.37 10.31 68.36 11.93 68.36 12.74 C 65.20 12.75 62.05 12.75 58.90 12.75 C 58.89 13.53 58.86 15.10 58.84 15.88 C 56.72 15.88 54.60 15.88 52.48 15.88 C 52.50 16.52 52.54 17.79 52.56 18.43 C 50.59 18.90 48.64 19.80 49.10 22.24 C 48.11 22.26 47.11 22.28 46.11 22.30 C 46.12 23.07 46.13 24.60 46.14 25.37 C 45.09 25.38 44.05 25.38 43.00 25.38 C 43.00 27.50 43.00 29.63 43.00 31.75 C 42.19 31.75 40.56 31.75 39.75 31.75 C 39.75 39.17 39.75 46.58 39.75 54.00 C 40.56 54.00 42.19 54.00 43.00 54.00 C 43.00 56.13 43.00 58.25 43.00 60.37 C 43.80 60.37 45.39 60.38 46.19 60.39 C 46.13 62.34 46.05 64.29 45.92 66.24 C 44.80 66.20 43.67 66.18 42.55 66.16 C 42.83 64.26 43.03 62.35 43.14 60.43 C 42.00 60.38 40.87 60.34 39.73 60.29 C 39.75 58.22 39.76 56.15 39.79 54.08 C 39.00 54.05 37.41 53.98 36.62 53.95 C 36.65 46.56 36.57 39.17 36.67 31.78 C 37.44 31.77 38.98 31.75 39.75 31.74 C 39.75 29.63 39.74 27.51 39.73 25.40 C 40.80 25.39 41.88 25.38 42.96 25.36 C 42.99 24.58 43.04 23.00 43.07 22.21 C 43.83 22.22 45.36 22.24 46.13 22.25 C 46.11 21.53 46.08 20.07 46.07 19.35 C 48.03 19.49 49.88 18.30 49.59 16.10 C 50.31 16.02 51.74 15.87 52.46 15.79 C 52.49 14.78 52.53 13.77 52.56 12.76 C 54.65 12.75 56.73 12.73 58.81 12.71 C 58.89 11.89 59.04 10.26 59.11 9.44 C 62.19 9.50 65.27 9.51 68.35 9.50 C 68.36 8.72 68.39 7.16 68.41 6.37 Z" />
<path fill="#000000" opacity="1.00" d=" M 134.97 31.69 C 135.79 31.72 137.43 31.77 138.25 31.80 C 138.25 39.20 138.25 46.59 138.25 53.99 C 137.44 53.99 135.83 54.00 135.03 54.00 C 135.00 56.15 134.96 58.30 134.91 60.46 C 134.16 60.43 132.64 60.39 131.88 60.36 C 131.88 62.46 131.88 64.55 131.88 66.65 C 132.63 66.61 134.14 66.54 134.89 66.51 C 135.06 70.82 135.05 75.14 134.92 79.46 C 134.16 79.43 132.65 79.38 131.90 79.35 C 131.89 80.14 131.87 81.71 131.87 82.50 C 136.09 82.49 140.32 82.48 144.55 82.54 C 144.53 83.33 144.48 84.91 144.45 85.70 C 145.26 85.72 146.88 85.75 147.69 85.77 C 147.74 86.80 147.79 87.82 147.84 88.85 C 148.61 88.88 150.14 88.92 150.90 88.95 C 150.89 89.74 150.87 91.33 150.86 92.12 C 150.08 92.12 148.50 92.13 147.72 92.13 C 147.73 92.91 147.76 94.47 147.78 95.25 C 148.55 95.25 150.10 95.23 150.87 95.23 C 150.87 97.29 150.88 99.35 150.89 101.41 C 153.19 101.31 154.91 101.97 154.27 104.72 C 155.24 104.74 156.22 104.76 157.20 104.78 C 157.24 105.78 157.28 106.79 157.32 107.79 C 158.10 107.88 159.66 108.05 160.45 108.14 C 160.41 110.19 160.38 112.23 160.36 114.28 C 161.18 114.27 162.82 114.24 163.64 114.23 C 163.64 115.04 163.63 116.67 163.63 117.49 C 164.41 117.49 165.97 117.50 166.75 117.50 C 166.78 120.51 166.50 123.56 166.97 126.54 C 167.36 126.81 168.14 127.35 168.53 127.62 C 167.92 128.53 167.30 129.44 166.69 130.35 C 166.75 129.54 166.86 127.92 166.92 127.11 C 166.10 127.06 164.46 126.98 163.64 126.94 C 163.63 123.75 163.61 120.58 163.54 117.40 C 162.76 117.44 161.20 117.51 160.43 117.55 C 160.41 116.73 160.37 115.09 160.35 114.27 C 159.58 114.27 158.04 114.25 157.27 114.24 C 157.26 112.14 157.24 110.04 157.23 107.94 C 156.46 107.91 154.92 107.85 154.15 107.82 C 154.13 107.06 154.10 105.55 154.09 104.79 C 153.30 104.77 151.73 104.74 150.94 104.73 C 150.91 103.98 150.85 102.48 150.83 101.73 C 149.80 101.65 148.77 101.57 147.74 101.49 C 147.74 99.42 147.75 97.36 147.75 95.30 C 146.97 95.28 145.41 95.24 144.63 95.23 C 144.53 94.24 144.44 93.25 144.34 92.27 C 145.19 92.22 146.87 92.13 147.71 92.08 C 147.72 91.28 147.72 89.68 147.72 88.88 C 145.63 88.88 143.54 88.88 141.45 88.88 C 141.42 89.51 141.36 90.76 141.33 91.39 C 139.99 92.63 138.69 93.91 137.42 95.22 C 136.83 95.24 135.64 95.28 135.04 95.30 C 135.00 96.08 134.92 97.65 134.87 98.43 C 134.14 98.42 132.68 98.40 131.94 98.39 C 131.91 99.20 131.85 100.82 131.82 101.64 C 131.04 101.64 129.48 101.65 128.69 101.66 C 128.67 102.39 128.62 103.84 128.60 104.57 C 127.54 104.73 126.49 104.89 125.44 105.06 C 125.45 105.77 125.47 107.18 125.47 107.88 C 122.33 107.88 119.18 107.88 116.04 107.88 C 116.02 108.69 115.98 110.31 115.96 111.12 C 113.85 111.12 111.75 111.12 109.64 111.13 C 109.97 120.72 108.85 130.41 110.29 139.93 C 111.15 139.19 112.00 138.43 112.85 137.67 C 112.77 135.18 112.73 132.69 112.69 130.19 C 113.79 130.16 114.89 130.13 116.00 130.11 C 116.00 133.11 116.00 136.11 115.96 139.11 C 114.74 139.67 113.54 140.26 112.37 140.90 C 112.57 142.54 112.76 144.20 112.94 145.85 C 112.14 145.91 110.53 146.03 109.73 146.09 C 109.67 147.13 109.60 148.17 109.54 149.21 C 108.78 149.23 107.26 149.28 106.50 149.30 C 106.50 151.36 106.50 153.42 106.51 155.49 C 114.96 155.48 123.41 155.54 131.85 155.45 C 131.90 154.68 131.99 153.13 132.04 152.35 C 132.77 152.36 134.22 152.36 134.95 152.37 C 134.98 151.58 135.03 150.02 135.06 149.24 C 135.86 149.23 137.44 149.23 138.24 149.23 C 138.25 144.08 138.27 138.94 138.22 133.79 C 137.18 133.56 136.16 133.29 135.15 132.98 C 134.83 129.92 134.99 126.83 135.00 123.75 C 134.23 123.75 132.70 123.76 131.93 123.76 C 131.91 124.57 131.86 126.18 131.84 126.98 C 129.71 127.00 127.59 127.03 125.47 127.05 C 125.47 127.82 125.48 129.36 125.49 130.12 C 122.32 130.12 119.16 130.12 116.00 130.11 C 116.00 129.33 116.01 127.78 116.01 127.00 C 118.13 127.00 120.24 127.00 122.36 127.00 C 122.35 126.21 122.33 124.64 122.32 123.86 C 124.40 123.80 126.47 123.75 128.55 123.70 C 128.59 122.93 128.66 121.41 128.70 120.64 C 129.46 120.64 130.97 120.65 131.73 120.66 C 131.86 119.59 131.99 118.53 132.12 117.46 C 132.84 117.47 134.28 117.48 135.00 117.48 C 135.00 114.28 135.00 111.08 135.00 107.87 C 135.81 107.87 137.43 107.87 138.24 107.87 C 138.25 115.23 138.25 122.60 138.24 129.96 C 139.02 130.02 140.58 130.15 141.36 130.21 C 141.58 138.55 141.02 146.91 141.60 155.22 C 142.31 155.37 143.72 155.66 144.43 155.81 C 144.45 154.95 144.51 153.22 144.54 152.36 C 146.45 152.37 148.36 152.39 150.28 152.41 C 148.74 153.92 147.11 155.45 144.92 155.89 C 144.62 157.77 143.11 158.61 141.46 159.17 C 141.43 158.26 141.38 156.43 141.35 155.52 C 140.58 155.51 139.03 155.49 138.26 155.48 C 138.25 157.71 138.25 159.94 138.26 162.18 C 123.50 172.08 105.77 177.57 87.97 177.27 C 70.56 177.32 53.34 171.74 38.91 162.10 C 37.77 161.33 36.93 160.23 36.08 159.17 C 33.88 158.49 32.06 157.08 30.50 155.42 C 31.25 155.48 32.74 155.60 33.49 155.65 C 33.51 148.23 33.49 140.80 33.49 133.38 C 34.26 133.39 35.79 133.42 36.56 133.43 C 36.71 124.89 36.58 116.35 36.63 107.82 C 37.42 107.85 38.98 107.93 39.76 107.96 C 39.75 113.20 39.75 118.43 39.75 123.66 C 40.84 123.72 41.93 123.78 43.02 123.84 C 43.02 124.63 43.01 126.21 43.01 127.00 C 43.79 127.00 45.35 127.00 46.12 127.00 C 46.12 127.78 46.11 129.34 46.11 130.11 C 44.00 130.12 41.89 130.12 39.78 130.13 C 39.75 131.22 39.72 132.32 39.70 133.42 C 38.93 133.40 37.38 133.36 36.61 133.34 C 36.64 139.69 36.62 146.04 36.64 152.38 C 38.72 152.36 40.80 152.35 42.87 152.33 C 42.93 153.12 43.03 154.71 43.09 155.50 C 43.80 155.49 45.21 155.48 45.92 155.47 C 46.03 156.57 46.14 157.68 46.25 158.79 C 52.57 158.72 58.90 158.75 65.23 158.75 C 65.26 153.47 65.25 148.19 65.24 142.91 C 64.43 142.89 62.81 142.86 62.00 142.85 C 62.00 137.57 62.00 132.28 62.00 127.00 C 56.71 127.00 51.42 127.00 46.12 127.00 C 46.13 126.20 46.13 124.58 46.13 123.77 C 50.38 123.74 54.62 123.74 58.86 123.74 C 58.88 118.54 58.87 113.35 58.90 108.16 C 58.02 107.98 57.15 107.80 56.28 107.63 C 55.26 104.48 52.15 104.40 49.40 104.68 C 49.38 103.92 49.34 102.42 49.32 101.67 C 48.53 101.66 46.96 101.64 46.17 101.63 C 46.15 100.82 46.10 99.20 46.08 98.39 C 42.95 98.38 39.82 98.37 36.69 98.37 C 36.66 97.59 36.61 96.04 36.58 95.27 C 33.56 95.25 30.53 95.22 27.50 95.15 C 27.25 96.25 26.99 97.35 26.74 98.45 C 26.04 98.43 24.64 98.40 23.94 98.38 C 23.91 99.19 23.85 100.83 23.82 101.64 C 23.05 101.64 21.51 101.65 20.74 101.65 C 20.74 102.41 20.75 103.92 20.76 104.68 C 21.80 104.73 22.85 104.77 23.90 104.81 C 23.91 105.55 23.92 107.02 23.92 107.76 C 23.14 107.81 21.57 107.91 20.78 107.97 C 20.77 108.73 20.74 110.27 20.73 111.04 C 20.08 111.09 18.78 111.18 18.14 111.22 C 17.86 113.36 16.54 114.57 14.39 114.78 C 14.38 116.71 14.38 118.66 14.39 120.60 C 13.61 120.60 12.05 120.62 11.27 120.62 C 11.24 124.58 11.02 128.56 11.59 132.48 L 11.66 132.95 C 9.74 129.02 7.14 125.11 8.06 120.51 C 8.86 120.55 10.46 120.63 11.26 120.67 C 11.25 118.54 11.24 116.42 11.23 114.30 C 12.01 114.27 13.58 114.22 14.37 114.20 C 14.36 113.44 14.35 111.93 14.34 111.17 C 15.16 111.15 16.78 111.11 17.59 111.09 C 17.61 110.00 17.64 108.92 17.66 107.83 C 18.43 107.86 19.96 107.92 20.73 107.94 C 20.73 107.15 20.72 105.56 20.72 104.76 C 19.92 104.75 18.33 104.71 17.53 104.69 C 17.58 103.68 17.63 102.66 17.68 101.65 C 18.45 101.64 20.01 101.62 20.79 101.61 C 20.77 100.81 20.72 99.21 20.70 98.41 C 21.75 98.38 22.79 98.35 23.84 98.32 C 23.87 97.55 23.95 96.01 23.99 95.24 C 24.77 95.24 26.33 95.24 27.11 95.24 C 27.12 93.12 27.13 91.00 27.13 88.88 C 27.91 88.88 29.46 88.87 30.24 88.87 C 30.26 87.82 30.28 86.77 30.31 85.72 C 31.10 85.73 32.69 85.74 33.48 85.75 C 33.49 84.94 33.51 83.31 33.52 82.49 C 36.84 82.53 40.16 82.52 43.48 82.36 L 42.31 79.85 C 43.52 79.82 44.74 79.79 45.95 79.74 C 46.02 81.24 46.07 82.73 46.10 84.23 C 47.17 84.90 48.25 85.56 49.33 86.21 C 49.35 87.07 49.36 87.93 49.37 88.79 C 50.09 88.85 51.53 88.98 52.24 89.04 C 51.69 93.15 56.45 92.01 58.89 92.20 C 58.88 92.96 58.87 94.49 58.86 95.25 C 61.90 95.25 64.94 95.24 67.98 95.28 C 67.95 96.75 69.04 97.94 70.36 98.34 C 81.97 98.56 93.59 98.11 105.20 98.55 C 105.84 97.49 106.42 96.39 106.99 95.29 C 109.99 95.25 112.99 95.24 115.99 95.25 C 116.00 94.46 116.01 92.90 116.02 92.11 C 118.14 92.12 120.26 92.13 122.38 92.14 C 122.38 91.33 122.37 89.70 122.37 88.89 C 123.14 88.89 124.68 88.90 125.45 88.90 C 125.48 87.85 125.50 86.80 125.53 85.76 C 126.30 85.75 127.84 85.72 128.61 85.71 C 128.62 83.60 128.62 81.50 128.62 79.39 C 129.70 79.38 130.79 79.36 131.87 79.35 C 131.87 75.12 131.87 70.88 131.87 66.65 C 130.79 66.63 129.70 66.62 128.62 66.61 C 128.62 64.54 128.62 62.46 128.62 60.38 C 129.43 60.38 131.05 60.37 131.87 60.36 C 131.87 58.24 131.87 56.12 131.88 54.00 C 132.66 54.00 134.22 54.00 135.00 54.00 C 134.98 46.56 135.03 39.13 134.97 31.69 M 33.49 85.76 C 33.50 86.53 33.51 88.08 33.52 88.86 C 32.70 88.86 31.07 88.86 30.25 88.86 C 30.25 89.67 30.26 91.30 30.26 92.11 C 33.42 92.13 36.57 92.12 39.73 92.14 C 39.74 92.92 39.75 94.48 39.76 95.26 C 41.87 95.25 43.98 95.24 46.09 95.23 C 46.10 96.01 46.13 97.58 46.14 98.36 C 47.22 98.37 48.31 98.37 49.39 98.38 C 49.39 99.19 49.38 100.81 49.37 101.62 C 51.31 101.62 53.24 101.62 55.18 101.63 C 55.99 103.07 56.49 105.60 58.85 104.90 C 58.84 105.89 58.83 106.89 58.81 107.88 C 63.05 107.87 67.29 107.89 71.53 107.85 C 71.51 105.77 71.49 103.69 71.47 101.61 C 70.68 101.61 69.08 101.61 68.28 101.61 C 68.37 100.78 68.55 99.11 68.64 98.27 C 65.42 98.36 62.19 98.56 58.98 98.23 C 58.94 97.49 58.86 95.99 58.83 95.25 C 56.73 95.25 54.64 95.26 52.54 95.27 C 52.54 94.24 52.53 93.20 52.54 92.18 C 51.73 92.12 50.11 92.00 49.30 91.94 C 49.33 91.16 49.39 89.60 49.41 88.82 C 48.68 88.85 47.20 88.91 46.47 88.94 C 46.14 87.82 46.25 85.93 44.69 85.72 C 40.96 85.69 37.23 85.78 33.49 85.76 M 128.62 85.76 C 128.63 86.54 128.64 88.10 128.64 88.89 C 127.90 88.87 126.41 88.85 125.66 88.84 C 125.57 89.91 125.45 90.96 125.29 92.02 C 124.56 92.07 123.12 92.17 122.40 92.22 C 122.37 93.23 122.34 94.24 122.31 95.25 C 120.22 95.25 118.14 95.25 116.05 95.25 C 116.01 96.04 115.93 97.64 115.88 98.44 C 112.70 98.37 109.51 98.38 106.33 98.30 C 106.39 99.13 106.51 100.79 106.57 101.61 C 104.42 101.62 102.27 101.63 100.12 101.64 C 100.12 103.71 100.13 105.79 100.13 107.87 C 105.42 107.88 110.71 107.87 116.00 107.88 C 115.99 107.11 115.98 105.55 115.97 104.78 C 118.10 104.76 120.22 104.74 122.35 104.73 C 122.36 103.95 122.38 102.39 122.39 101.61 C 124.47 101.62 126.55 101.62 128.63 101.62 C 128.62 100.81 128.61 99.19 128.61 98.38 C 129.68 98.37 130.76 98.37 131.84 98.37 C 131.87 97.59 131.92 96.02 131.95 95.24 C 132.70 95.24 134.22 95.25 134.97 95.26 C 134.98 94.53 135.01 93.05 135.02 92.32 C 137.19 92.70 138.91 91.11 138.47 88.86 C 139.18 88.87 140.62 88.88 141.34 88.88 C 141.35 88.10 141.38 86.53 141.40 85.74 C 137.14 85.75 132.88 85.74 128.62 85.76 M 74.72 101.64 C 74.75 103.68 74.66 105.73 74.87 107.76 C 75.62 107.82 77.11 107.92 77.86 107.98 C 77.87 109.03 77.88 110.07 77.90 111.12 C 78.98 111.12 80.06 111.13 81.14 111.13 C 81.14 111.91 81.12 113.49 81.11 114.27 C 85.32 114.24 89.54 114.25 93.75 114.25 C 93.75 112.12 93.75 110.00 93.75 107.87 C 94.52 107.87 96.08 107.87 96.86 107.87 C 96.87 105.81 96.88 103.75 96.90 101.69 C 95.84 101.65 94.78 101.62 93.73 101.59 C 93.74 102.38 93.75 103.96 93.76 104.75 C 88.47 104.75 83.18 104.74 77.89 104.75 C 77.86 103.70 77.84 102.64 77.81 101.58 C 76.78 101.60 75.75 101.62 74.72 101.64 M 62.02 111.11 C 62.00 114.28 61.99 117.45 62.00 120.61 C 64.12 120.62 66.25 120.62 68.39 120.62 C 68.38 117.45 68.37 114.29 68.34 111.12 C 66.24 111.12 64.13 111.12 62.02 111.11 M 103.25 114.21 C 103.26 116.35 103.27 118.50 103.29 120.65 C 104.36 120.63 105.43 120.62 106.50 120.61 C 106.50 118.50 106.51 116.40 106.52 114.30 C 105.43 114.27 104.34 114.24 103.25 114.21 M 77.88 117.50 C 77.87 128.08 77.88 138.67 77.87 149.25 C 83.17 149.24 88.46 149.27 93.76 149.23 C 93.73 139.71 93.76 130.19 93.75 120.66 C 92.70 120.64 91.65 120.62 90.60 120.61 C 90.61 119.83 90.63 118.28 90.63 117.50 C 86.38 117.49 82.13 117.50 77.88 117.50 M 62.00 123.76 C 62.00 124.56 62.00 126.17 62.00 126.97 C 62.81 126.99 64.45 127.02 65.26 127.03 C 65.24 129.07 65.23 131.12 65.20 133.17 C 66.00 133.24 67.60 133.40 68.40 133.48 C 68.38 132.66 68.34 131.02 68.32 130.20 C 69.10 130.17 70.66 130.11 71.44 130.08 C 71.46 129.33 71.50 127.81 71.52 127.06 C 70.72 127.02 69.12 126.94 68.33 126.90 C 68.34 126.11 68.37 124.53 68.38 123.75 C 66.25 123.75 64.13 123.75 62.00 123.76 M 103.22 123.88 C 103.22 124.65 103.24 126.18 103.24 126.95 C 102.45 126.98 100.87 127.04 100.08 127.07 C 100.09 127.84 100.13 129.36 100.14 130.13 C 102.26 130.12 104.37 130.12 106.49 130.12 C 106.49 127.98 106.49 125.84 106.48 123.70 C 105.66 123.74 104.03 123.83 103.22 123.88 M 100.16 133.33 C 100.15 135.44 100.14 137.55 100.14 139.66 C 102.21 139.65 104.28 139.65 106.35 139.61 C 106.42 141.68 106.47 143.76 106.50 145.83 C 107.27 145.92 108.82 146.08 109.59 146.17 C 109.62 143.94 109.65 141.72 109.70 139.50 C 108.95 139.53 107.44 139.58 106.68 139.61 C 106.58 137.54 106.51 135.47 106.45 133.40 C 104.35 133.38 102.25 133.36 100.16 133.33 M 68.44 133.42 C 68.41 134.17 68.36 135.67 68.33 136.42 C 67.54 136.46 65.98 136.52 65.20 136.56 C 65.23 138.62 65.19 140.70 65.46 142.75 C 66.16 142.83 67.55 142.97 68.25 143.05 C 68.33 141.91 68.40 140.78 68.48 139.64 C 69.23 139.63 70.74 139.59 71.50 139.57 C 71.50 137.51 71.50 135.45 71.51 133.39 C 70.74 133.40 69.21 133.41 68.44 133.42 M 68.39 142.83 C 68.37 146.02 68.37 149.20 68.38 152.39 C 69.16 152.38 70.71 152.38 71.48 152.38 C 71.50 149.22 71.50 146.06 71.49 142.90 C 70.71 142.88 69.16 142.85 68.39 142.83 M 100.13 142.87 C 100.13 146.02 100.12 149.17 100.11 152.32 C 100.90 152.34 102.47 152.36 103.26 152.38 C 103.25 149.22 103.25 146.06 103.24 142.91 C 102.46 142.90 100.91 142.88 100.13 142.87 Z" />
<path fill="#000000" opacity="1.00" d=" M 55.62 38.15 C 61.99 38.10 68.36 38.13 74.72 38.14 C 74.73 38.92 74.75 40.48 74.76 41.26 C 75.54 41.25 77.10 41.23 77.88 41.23 C 77.87 45.48 77.87 49.73 77.88 53.99 C 77.10 53.99 75.53 54.00 74.75 54.01 C 74.75 56.14 74.75 58.28 74.75 60.41 C 73.94 60.40 72.32 60.37 71.51 60.36 C 71.50 61.15 71.49 62.72 71.49 63.51 C 70.71 63.50 69.14 63.50 68.36 63.49 C 68.37 62.71 68.39 61.15 68.40 60.37 C 64.14 60.38 59.88 60.38 55.62 60.37 C 55.63 59.56 55.64 57.94 55.65 57.13 C 53.56 57.13 51.48 57.12 49.40 57.12 C 49.38 56.07 49.36 55.02 49.34 53.98 C 48.53 53.99 46.93 54.00 46.12 54.01 C 46.12 50.83 46.12 47.66 46.13 44.49 C 46.94 44.49 48.55 44.50 49.36 44.51 C 49.37 43.70 49.39 42.08 49.40 41.27 C 51.47 41.25 53.55 41.25 55.62 41.23 C 55.62 40.46 55.62 38.92 55.62 38.15 M 62.00 47.62 C 62.00 49.75 62.00 51.87 62.00 54.00 C 64.13 54.00 66.25 54.00 68.38 54.00 C 68.38 51.88 68.37 49.75 68.37 47.63 C 66.25 47.62 64.12 47.62 62.00 47.62 Z" />
<path fill="#000000" opacity="1.00" d=" M 100.13 38.13 C 106.46 38.11 112.78 38.14 119.11 38.11 C 119.12 39.16 119.13 40.22 119.14 41.27 C 121.26 41.26 123.38 41.25 125.50 41.25 C 125.50 42.06 125.50 43.69 125.50 44.50 C 126.28 44.50 127.84 44.50 128.62 44.50 C 128.62 47.65 128.62 50.81 128.64 53.96 C 127.85 53.98 126.26 54.01 125.46 54.03 C 125.48 54.79 125.53 56.29 125.55 57.05 C 123.41 57.11 121.27 57.13 119.13 57.16 C 119.13 57.96 119.13 59.57 119.13 60.38 C 114.92 60.38 110.70 60.38 106.49 60.38 C 106.50 61.16 106.50 62.72 106.51 63.50 C 105.70 63.50 104.07 63.50 103.26 63.50 C 103.25 62.72 103.24 61.17 103.23 60.39 C 102.46 60.38 100.91 60.37 100.13 60.36 C 100.13 58.24 100.12 56.12 100.12 54.00 C 99.31 54.00 97.69 54.00 96.88 54.00 C 96.88 49.76 96.86 45.52 96.89 41.28 C 97.97 41.26 99.05 41.23 100.13 41.20 C 100.13 40.44 100.13 38.90 100.13 38.13 M 106.51 47.62 C 106.50 49.73 106.49 51.85 106.47 53.97 C 108.57 53.99 110.66 54.00 112.76 54.00 C 112.75 51.88 112.75 49.76 112.73 47.64 C 110.66 47.63 108.58 47.62 106.51 47.62 Z" />
<path fill="#000000" opacity="1.00" d=" M 84.24 54.00 C 86.38 54.00 88.51 54.01 90.64 54.03 C 90.63 56.13 90.62 58.24 90.62 60.35 C 91.40 60.37 92.96 60.39 93.74 60.41 C 93.75 63.57 93.74 66.72 93.77 69.88 C 89.56 69.87 85.34 69.88 81.13 69.87 C 81.12 66.69 81.12 63.52 81.13 60.35 C 81.91 60.36 83.48 60.38 84.26 60.40 C 84.25 58.26 84.25 56.13 84.24 54.00 Z" />
<path fill="#000000" opacity="1.00" d=" M 61.97 63.50 C 64.10 63.50 66.23 63.50 68.36 63.50 C 68.37 64.54 68.38 65.58 68.40 66.61 C 66.29 66.62 64.17 66.63 62.06 66.66 C 62.04 65.87 61.99 64.29 61.97 63.50 Z" />
<path fill="#000000" opacity="1.00" d=" M 106.51 63.52 C 108.56 63.50 110.60 63.49 112.65 63.46 C 112.71 64.52 112.76 65.58 112.81 66.64 C 110.70 66.63 108.60 66.62 106.49 66.61 C 106.49 65.84 106.50 64.29 106.51 63.52 Z" />
<path fill="#000000" opacity="1.00" d=" M 39.93 66.70 C 40.52 66.72 41.68 66.76 42.26 66.78 L 42.99 67.21 L 43.00 67.91 C 43.01 71.38 42.99 74.85 42.99 78.33 L 42.99 78.75 L 42.26 79.09 C 41.68 79.17 40.52 79.32 39.95 79.40 C 39.64 75.17 39.64 70.92 39.93 66.70 Z" />
<path fill="#000000" opacity="1.00" d=" M 55.62 66.63 C 56.43 66.63 58.05 66.63 58.87 66.63 C 58.87 67.71 58.87 68.79 58.87 69.88 C 59.65 69.88 61.21 69.87 61.99 69.87 C 62.00 70.66 62.01 72.22 62.02 73.00 C 61.22 73.00 59.62 73.00 58.82 73.00 C 58.93 74.91 58.58 76.91 59.23 78.75 C 59.89 79.02 61.21 79.56 61.87 79.83 C 61.98 77.55 62.01 75.28 62.02 73.00 C 64.13 73.00 66.25 73.00 68.37 73.00 C 68.37 73.82 68.38 75.45 68.38 76.26 C 67.60 76.26 66.03 76.25 65.25 76.24 C 65.25 78.33 65.25 80.42 65.25 82.51 C 66.04 82.50 67.61 82.50 68.39 82.50 C 68.38 83.31 68.34 84.93 68.33 85.74 C 66.23 85.75 64.13 85.75 62.03 85.76 C 62.01 84.96 61.97 83.36 61.95 82.57 C 61.26 82.48 59.88 82.32 59.18 82.24 C 59.08 81.72 58.86 80.68 58.75 80.16 C 57.82 79.50 56.78 79.16 55.61 79.14 C 55.62 78.41 55.64 76.96 55.65 76.23 C 53.56 76.25 51.46 76.25 49.37 76.27 C 49.37 75.46 49.38 73.82 49.38 73.01 C 51.47 73.00 53.55 72.99 55.64 72.97 C 55.63 70.86 55.62 68.74 55.62 66.63 Z" />
<path fill="#000000" opacity="1.00" d=" M 116.00 66.62 C 116.78 66.62 118.35 66.62 119.13 66.62 C 119.13 67.43 119.13 69.05 119.13 69.86 C 119.94 69.87 121.58 69.87 122.39 69.88 C 122.38 70.64 122.34 72.16 122.33 72.92 C 123.40 72.97 124.48 73.03 125.55 73.08 C 125.52 74.14 125.49 75.20 125.47 76.25 C 123.36 76.25 121.26 76.25 119.15 76.26 C 119.14 77.04 119.13 78.61 119.12 79.40 C 118.35 79.38 116.82 79.35 116.05 79.33 C 116.03 80.13 115.99 81.71 115.97 82.51 C 115.16 82.50 113.55 82.50 112.74 82.50 C 112.75 80.42 112.75 78.35 112.75 76.28 C 112.06 76.20 110.67 76.04 109.97 75.96 C 109.88 75.22 109.69 73.74 109.59 73.00 C 111.73 73.00 113.86 73.00 116.00 73.00 C 116.00 70.87 116.00 68.75 116.00 66.62 Z" />
<path fill="#000000" opacity="1.00" d=" M 68.54 76.22 C 82.07 76.29 95.61 76.24 109.14 76.24 C 110.19 78.12 109.40 80.43 109.62 82.49 C 110.67 82.50 111.71 82.51 112.76 82.52 C 112.76 83.33 112.75 84.93 112.75 85.74 C 111.97 85.75 110.41 85.76 109.62 85.77 C 109.63 86.54 109.65 88.07 109.65 88.83 C 107.48 88.86 105.23 88.69 103.19 89.57 C 103.17 90.19 103.14 91.42 103.12 92.04 C 93.67 92.24 84.21 92.07 74.76 92.12 C 74.75 91.31 74.75 89.70 74.74 88.90 C 72.61 88.88 70.48 88.87 68.35 88.87 C 68.36 88.09 68.39 86.54 68.40 85.76 C 70.51 85.75 72.63 85.75 74.75 85.75 C 74.75 83.63 74.75 81.51 74.74 79.39 C 72.59 79.38 70.44 79.37 68.29 79.37 C 68.35 78.58 68.47 77.00 68.54 76.22 M 77.91 79.35 C 77.87 82.52 77.87 85.70 77.86 88.87 C 80.00 88.87 82.13 88.87 84.27 88.88 C 84.24 85.73 84.25 82.58 84.26 79.44 C 82.14 79.39 80.03 79.37 77.91 79.35 M 87.38 79.38 C 87.37 82.55 87.37 85.71 87.36 88.87 C 90.53 88.87 93.70 88.88 96.87 88.87 C 96.88 85.70 96.87 82.53 96.88 79.36 C 93.71 79.38 90.54 79.38 87.38 79.38 M 100.12 79.36 C 100.12 82.62 100.10 85.88 100.20 89.14 C 102.43 89.64 103.64 87.94 103.63 85.87 C 104.59 85.74 105.55 85.70 106.52 85.64 C 106.50 83.55 106.50 81.46 106.50 79.38 C 104.37 79.38 102.25 79.37 100.12 79.36 Z" />
<path fill="#000000" opacity="1.00" d=" M 138.36 104.69 C 139.34 104.71 140.33 104.74 141.32 104.76 C 141.37 105.77 141.42 106.77 141.47 107.78 C 140.37 107.79 139.27 107.79 138.17 107.80 C 138.23 106.76 138.29 105.72 138.36 104.69 Z" />
<path fill="#000000" opacity="1.00" d=" M 19.34 142.84 C 19.68 142.90 20.34 143.02 20.68 143.08 C 20.77 143.65 20.96 144.78 21.06 145.35 C 19.82 146.06 18.37 143.78 19.34 142.84 Z" />
<path fill="#000000" opacity="1.00" d=" M 21.08 146.06 C 23.06 146.02 25.05 145.99 27.04 145.96 C 27.09 148.19 27.12 150.42 27.31 152.64 L 27.33 152.89 C 25.21 150.64 23.11 148.38 21.08 146.06 Z" />
</g>
<g id="#ffffffff">
<path fill="#ffffff" opacity="1.00" d=" M 68.38 9.50 C 81.09 9.50 93.80 9.49 106.51 9.51 C 106.51 10.32 106.50 11.94 106.49 12.75 C 109.65 12.75 112.82 12.75 115.99 12.75 C 115.99 13.53 116.01 15.10 116.02 15.88 C 118.14 15.88 120.26 15.87 122.39 15.87 C 122.38 16.63 122.35 18.15 122.34 18.91 C 123.43 18.99 124.52 19.06 125.62 19.14 C 125.57 19.92 125.49 21.47 125.45 22.24 C 126.25 22.24 127.85 22.24 128.65 22.24 C 128.64 23.03 128.63 24.59 128.62 25.37 C 129.42 25.37 131.01 25.36 131.81 25.35 C 131.87 27.35 131.94 29.35 132.06 31.34 L 132.09 31.82 C 132.81 31.79 134.25 31.72 134.97 31.69 C 135.03 39.13 134.98 46.56 135.00 54.00 C 134.22 54.00 132.66 54.00 131.88 54.00 C 131.87 56.12 131.87 58.24 131.87 60.36 C 131.05 60.37 129.43 60.38 128.62 60.38 C 128.62 62.46 128.62 64.54 128.62 66.61 C 129.70 66.62 130.79 66.63 131.87 66.65 C 131.87 70.88 131.87 75.12 131.87 79.35 C 130.79 79.36 129.70 79.38 128.62 79.39 C 128.62 81.50 128.62 83.60 128.61 85.71 C 127.84 85.72 126.30 85.75 125.53 85.76 C 125.50 86.80 125.48 87.85 125.45 88.90 C 124.68 88.90 123.14 88.89 122.37 88.89 C 122.37 89.70 122.38 91.33 122.38 92.14 C 120.26 92.13 118.14 92.12 116.02 92.11 C 116.01 92.90 116.00 94.46 115.99 95.25 C 112.99 95.24 109.99 95.25 106.99 95.29 C 106.42 96.39 105.84 97.49 105.20 98.55 C 93.59 98.11 81.97 98.56 70.36 98.34 C 69.04 97.94 67.95 96.75 67.98 95.28 C 64.94 95.24 61.90 95.25 58.86 95.25 C 58.87 94.49 58.88 92.96 58.89 92.20 C 56.45 92.01 51.69 93.15 52.24 89.04 C 51.53 88.98 50.09 88.85 49.37 88.79 C 49.36 87.93 49.35 87.07 49.33 86.21 C 48.25 85.56 47.17 84.90 46.10 84.23 C 46.07 82.73 46.02 81.24 45.95 79.74 L 45.94 79.59 C 45.20 79.38 43.73 78.96 42.99 78.75 L 42.99 78.33 C 42.99 74.85 43.01 71.38 43.00 67.91 L 42.99 67.21 C 43.72 67.04 45.18 66.70 45.91 66.53 L 45.92 66.24 C 46.05 64.29 46.13 62.34 46.19 60.39 C 45.39 60.38 43.80 60.37 43.00 60.37 C 43.00 58.25 43.00 56.13 43.00 54.00 C 42.19 54.00 40.56 54.00 39.75 54.00 C 39.75 46.58 39.75 39.17 39.75 31.75 C 40.56 31.75 42.19 31.75 43.00 31.75 C 43.00 29.63 43.00 27.50 43.00 25.38 C 44.05 25.38 45.09 25.38 46.14 25.37 C 46.13 24.60 46.12 23.07 46.11 22.30 C 47.11 22.28 48.11 22.26 49.10 22.24 C 48.64 19.80 50.59 18.90 52.56 18.43 C 52.54 17.79 52.50 16.52 52.48 15.88 C 54.60 15.88 56.72 15.88 58.84 15.88 C 58.86 15.10 58.89 13.53 58.90 12.75 C 62.05 12.75 65.20 12.75 68.36 12.74 C 68.36 11.93 68.37 10.31 68.38 9.50 M 55.62 38.15 C 55.62 38.92 55.62 40.46 55.62 41.23 C 53.55 41.25 51.47 41.25 49.40 41.27 C 49.39 42.08 49.37 43.70 49.36 44.51 C 48.55 44.50 46.94 44.49 46.13 44.49 C 46.12 47.66 46.12 50.83 46.12 54.01 C 46.93 54.00 48.53 53.99 49.34 53.98 C 49.36 55.02 49.38 56.07 49.40 57.12 C 51.48 57.12 53.56 57.13 55.65 57.13 C 55.64 57.94 55.63 59.56 55.62 60.37 C 59.88 60.38 64.14 60.38 68.40 60.37 C 68.39 61.15 68.37 62.71 68.36 63.49 C 69.14 63.50 70.71 63.50 71.49 63.51 C 71.49 62.72 71.50 61.15 71.51 60.36 C 72.32 60.37 73.94 60.40 74.75 60.41 C 74.75 58.28 74.75 56.14 74.75 54.01 C 75.53 54.00 77.10 53.99 77.88 53.99 C 77.87 49.73 77.87 45.48 77.88 41.23 C 77.10 41.23 75.54 41.25 74.76 41.26 C 74.75 40.48 74.73 38.92 74.72 38.14 C 68.36 38.13 61.99 38.10 55.62 38.15 M 100.13 38.13 C 100.13 38.90 100.13 40.44 100.13 41.20 C 99.05 41.23 97.97 41.26 96.89 41.28 C 96.86 45.52 96.88 49.76 96.88 54.00 C 97.69 54.00 99.31 54.00 100.12 54.00 C 100.12 56.12 100.13 58.24 100.13 60.36 C 100.91 60.37 102.46 60.38 103.23 60.39 C 103.24 61.17 103.25 62.72 103.26 63.50 C 104.07 63.50 105.70 63.50 106.51 63.50 C 106.50 62.72 106.50 61.16 106.49 60.38 C 110.70 60.38 114.92 60.38 119.13 60.38 C 119.13 59.57 119.13 57.96 119.13 57.16 C 121.27 57.13 123.41 57.11 125.55 57.05 C 125.53 56.29 125.48 54.79 125.46 54.03 C 126.26 54.01 127.85 53.98 128.64 53.96 C 128.62 50.81 128.62 47.65 128.62 44.50 C 127.84 44.50 126.28 44.50 125.50 44.50 C 125.50 43.69 125.50 42.06 125.50 41.25 C 123.38 41.25 121.26 41.26 119.14 41.27 C 119.13 40.22 119.12 39.16 119.11 38.11 C 112.78 38.14 106.46 38.11 100.13 38.13 M 84.24 54.00 C 84.25 56.13 84.25 58.26 84.26 60.40 C 83.48 60.38 81.91 60.36 81.13 60.35 C 81.12 63.52 81.12 66.69 81.13 69.87 C 85.34 69.88 89.56 69.87 93.77 69.88 C 93.74 66.72 93.75 63.57 93.74 60.41 C 92.96 60.39 91.40 60.37 90.62 60.35 C 90.62 58.24 90.63 56.13 90.64 54.03 C 88.51 54.01 86.38 54.00 84.24 54.00 M 61.97 63.50 C 61.99 64.29 62.04 65.87 62.06 66.66 C 64.17 66.63 66.29 66.62 68.40 66.61 C 68.38 65.58 68.37 64.54 68.36 63.50 C 66.23 63.50 64.10 63.50 61.97 63.50 M 106.51 63.52 C 106.50 64.29 106.49 65.84 106.49 66.61 C 108.60 66.62 110.70 66.63 112.81 66.64 C 112.76 65.58 112.71 64.52 112.65 63.46 C 110.60 63.49 108.56 63.50 106.51 63.52 M 55.62 66.63 C 55.62 68.74 55.63 70.86 55.64 72.97 C 53.55 72.99 51.47 73.00 49.38 73.01 C 49.38 73.82 49.37 75.46 49.37 76.27 C 51.46 76.25 53.56 76.25 55.65 76.23 C 55.64 76.96 55.62 78.41 55.61 79.14 C 56.78 79.16 57.82 79.50 58.75 80.16 C 58.86 80.68 59.08 81.72 59.18 82.24 C 59.88 82.32 61.26 82.48 61.95 82.57 C 61.97 83.36 62.01 84.96 62.03 85.76 C 64.13 85.75 66.23 85.75 68.33 85.74 C 68.34 84.93 68.38 83.31 68.39 82.50 C 67.61 82.50 66.04 82.50 65.25 82.51 C 65.25 80.42 65.25 78.33 65.25 76.24 C 66.03 76.25 67.60 76.26 68.38 76.26 C 68.38 75.45 68.37 73.82 68.37 73.00 C 66.25 73.00 64.13 73.00 62.02 73.00 C 62.01 72.22 62.00 70.66 61.99 69.87 C 61.21 69.87 59.65 69.88 58.87 69.88 C 58.87 68.79 58.87 67.71 58.87 66.63 C 58.05 66.63 56.43 66.63 55.62 66.63 M 116.00 66.62 C 116.00 68.75 116.00 70.87 116.00 73.00 C 113.86 73.00 111.73 73.00 109.59 73.00 C 109.69 73.74 109.88 75.22 109.97 75.96 C 110.67 76.04 112.06 76.20 112.75 76.28 C 112.75 78.35 112.75 80.42 112.74 82.50 C 113.55 82.50 115.16 82.50 115.97 82.51 C 115.99 81.71 116.03 80.13 116.05 79.33 C 116.82 79.35 118.35 79.38 119.12 79.40 C 119.13 78.61 119.14 77.04 119.15 76.26 C 121.26 76.25 123.36 76.25 125.47 76.25 C 125.49 75.20 125.52 74.14 125.55 73.08 C 124.48 73.03 123.40 72.97 122.33 72.92 C 122.34 72.16 122.38 70.64 122.39 69.88 C 121.58 69.87 119.94 69.87 119.13 69.86 C 119.13 69.05 119.13 67.43 119.13 66.62 C 118.35 66.62 116.78 66.62 116.00 66.62 M 68.54 76.22 C 68.47 77.00 68.35 78.58 68.29 79.37 C 70.44 79.37 72.59 79.38 74.74 79.39 C 74.75 81.51 74.75 83.63 74.75 85.75 C 72.63 85.75 70.51 85.75 68.40 85.76 C 68.39 86.54 68.36 88.09 68.35 88.87 C 70.48 88.87 72.61 88.88 74.74 88.90 C 74.75 89.70 74.75 91.31 74.76 92.12 C 84.21 92.07 93.67 92.24 103.12 92.04 C 103.14 91.42 103.17 90.19 103.19 89.57 C 105.23 88.69 107.48 88.86 109.65 88.83 C 109.65 88.07 109.63 86.54 109.62 85.77 C 110.41 85.76 111.97 85.75 112.75 85.74 C 112.75 84.93 112.76 83.33 112.76 82.52 C 111.71 82.51 110.67 82.50 109.62 82.49 C 109.40 80.43 110.19 78.12 109.14 76.24 C 95.61 76.24 82.07 76.29 68.54 76.22 Z" />
<path fill="#ffffff" opacity="1.00" d=" M 106.51 47.62 C 108.58 47.62 110.66 47.63 112.73 47.64 C 112.75 49.76 112.75 51.88 112.76 54.00 C 110.66 54.00 108.57 53.99 106.47 53.97 C 106.49 51.85 106.50 49.73 106.51 47.62 Z" />
<path fill="#ffffff" opacity="1.00" d=" M 62.00 47.62 C 64.12 47.62 66.25 47.62 68.37 47.63 C 68.37 49.75 68.38 51.88 68.38 54.00 C 66.25 54.00 64.13 54.00 62.00 54.00 C 62.00 51.87 62.00 49.75 62.00 47.62 Z" />
<path fill="#ffffff" opacity="1.00" d=" M 58.82 73.00 C 59.62 73.00 61.22 73.00 62.02 73.00 C 62.01 75.28 61.98 77.55 61.87 79.83 C 61.21 79.56 59.89 79.02 59.23 78.75 C 58.58 76.91 58.93 74.91 58.82 73.00 Z" />
<path fill="#ffffff" opacity="1.00" d=" M 77.91 79.35 C 80.03 79.37 82.14 79.39 84.26 79.44 C 84.25 82.58 84.24 85.73 84.27 88.88 C 82.13 88.87 80.00 88.87 77.86 88.87 C 77.87 85.70 77.87 82.52 77.91 79.35 Z" />
<path fill="#ffffff" opacity="1.00" d=" M 87.38 79.38 C 90.54 79.38 93.71 79.38 96.88 79.36 C 96.87 82.53 96.88 85.70 96.87 88.87 C 93.70 88.88 90.53 88.87 87.36 88.87 C 87.37 85.71 87.37 82.55 87.38 79.38 Z" />
<path fill="#ffffff" opacity="1.00" d=" M 100.12 79.36 C 102.25 79.37 104.37 79.38 106.50 79.38 C 106.50 81.46 106.50 83.55 106.52 85.64 C 105.55 85.70 104.59 85.74 103.63 85.87 C 103.64 87.94 102.43 89.64 100.20 89.14 C 100.10 85.88 100.12 82.62 100.12 79.36 Z" />
<path fill="#ffffff" opacity="1.00" d=" M 74.72 101.64 C 75.75 101.62 76.78 101.60 77.81 101.58 C 77.84 102.64 77.86 103.70 77.89 104.75 C 83.18 104.74 88.47 104.75 93.76 104.75 C 93.75 103.96 93.74 102.38 93.73 101.59 C 94.78 101.62 95.84 101.65 96.90 101.69 C 96.88 103.75 96.87 105.81 96.86 107.87 C 96.08 107.87 94.52 107.87 93.75 107.87 C 93.75 110.00 93.75 112.12 93.75 114.25 C 89.54 114.25 85.32 114.24 81.11 114.27 C 81.12 113.49 81.14 111.91 81.14 111.13 C 80.06 111.13 78.98 111.12 77.90 111.12 C 77.88 110.07 77.87 109.03 77.86 107.98 C 77.11 107.92 75.62 107.82 74.87 107.76 C 74.66 105.73 74.75 103.68 74.72 101.64 Z" />
<path fill="#ffffff" opacity="1.00" d=" M 77.88 117.50 C 82.13 117.50 86.38 117.49 90.63 117.50 C 90.63 118.28 90.61 119.83 90.60 120.61 C 91.65 120.62 92.70 120.64 93.75 120.66 C 93.76 130.19 93.73 139.71 93.76 149.23 C 88.46 149.27 83.17 149.24 77.87 149.25 C 77.88 138.67 77.87 128.08 77.88 117.50 Z" />
</g>
<g id="#9edbffff">
<path fill="#9edbff" opacity="1.00" d=" M 33.49 85.76 C 37.23 85.78 40.96 85.69 44.69 85.72 C 46.25 85.93 46.14 87.82 46.47 88.94 C 47.20 88.91 48.68 88.85 49.41 88.82 C 49.39 89.60 49.33 91.16 49.30 91.94 C 50.11 92.00 51.73 92.12 52.54 92.18 C 52.53 93.20 52.54 94.24 52.54 95.27 C 54.64 95.26 56.73 95.25 58.83 95.25 C 58.86 95.99 58.94 97.49 58.98 98.23 C 62.19 98.56 65.42 98.36 68.64 98.27 C 68.55 99.11 68.37 100.78 68.28 101.61 C 69.08 101.61 70.68 101.61 71.47 101.61 C 71.49 103.69 71.51 105.77 71.53 107.85 C 67.29 107.89 63.05 107.87 58.81 107.88 C 58.83 106.89 58.84 105.89 58.85 104.90 C 56.49 105.60 55.99 103.07 55.18 101.63 C 53.24 101.62 51.31 101.62 49.37 101.62 C 49.38 100.81 49.39 99.19 49.39 98.38 C 48.31 98.37 47.22 98.37 46.14 98.36 C 46.13 97.58 46.10 96.01 46.09 95.23 C 43.98 95.24 41.87 95.25 39.76 95.26 C 39.75 94.48 39.74 92.92 39.73 92.14 C 36.57 92.12 33.42 92.13 30.26 92.11 C 30.26 91.30 30.25 89.67 30.25 88.86 C 31.07 88.86 32.70 88.86 33.52 88.86 C 33.51 88.08 33.50 86.53 33.49 85.76 Z" />
<path fill="#9edbff" opacity="1.00" d=" M 128.62 85.76 C 132.88 85.74 137.14 85.75 141.40 85.74 C 141.38 86.53 141.35 88.10 141.34 88.88 C 140.62 88.88 139.18 88.87 138.47 88.86 C 138.91 91.11 137.19 92.70 135.02 92.32 C 135.01 93.05 134.98 94.53 134.97 95.26 C 134.22 95.25 132.70 95.24 131.95 95.24 C 131.92 96.02 131.87 97.59 131.84 98.37 C 130.76 98.37 129.68 98.37 128.61 98.38 C 128.61 99.19 128.62 100.81 128.63 101.62 C 126.55 101.62 124.47 101.62 122.39 101.61 C 122.38 102.39 122.36 103.95 122.35 104.73 C 120.22 104.74 118.10 104.76 115.97 104.78 C 115.98 105.55 115.99 107.11 116.00 107.88 C 110.71 107.87 105.42 107.88 100.13 107.87 C 100.13 105.79 100.12 103.71 100.12 101.64 C 102.27 101.63 104.42 101.62 106.57 101.61 C 106.51 100.79 106.39 99.13 106.33 98.30 C 109.51 98.38 112.70 98.37 115.88 98.44 C 115.93 97.64 116.01 96.04 116.05 95.25 C 118.14 95.25 120.22 95.25 122.31 95.25 C 122.34 94.24 122.37 93.23 122.40 92.22 C 123.12 92.17 124.56 92.07 125.29 92.02 C 125.45 90.96 125.57 89.91 125.66 88.84 C 126.41 88.85 127.90 88.87 128.64 88.89 C 128.64 88.10 128.63 86.54 128.62 85.76 Z" />
</g>
<g id="#1079c9ff">
<path fill="#1079c9" opacity="1.00" d=" M 141.45 88.88 C 143.54 88.88 145.63 88.88 147.72 88.88 C 147.72 89.68 147.72 91.28 147.71 92.08 C 146.87 92.13 145.19 92.22 144.34 92.27 C 144.44 93.25 144.53 94.24 144.63 95.23 C 145.41 95.24 146.97 95.28 147.75 95.30 C 147.75 97.36 147.74 99.42 147.74 101.49 C 148.77 101.57 149.80 101.65 150.83 101.73 C 150.85 102.48 150.91 103.98 150.94 104.73 C 151.73 104.74 153.30 104.77 154.09 104.79 C 154.10 105.55 154.13 107.06 154.15 107.82 C 154.92 107.85 156.46 107.91 157.23 107.94 C 157.24 110.04 157.26 112.14 157.27 114.24 C 158.04 114.25 159.58 114.27 160.35 114.27 C 160.37 115.09 160.41 116.73 160.43 117.55 C 161.20 117.51 162.76 117.44 163.54 117.40 C 163.61 120.58 163.63 123.75 163.64 126.94 C 164.46 126.98 166.10 127.06 166.92 127.11 C 166.86 127.92 166.75 129.54 166.69 130.35 C 162.83 138.69 156.73 145.90 150.28 152.41 C 148.36 152.39 146.45 152.37 144.54 152.36 C 144.51 153.22 144.45 154.95 144.43 155.81 C 143.72 155.66 142.31 155.37 141.60 155.22 C 141.02 146.91 141.58 138.55 141.36 130.21 C 140.58 130.15 139.02 130.02 138.24 129.96 C 138.25 122.60 138.25 115.23 138.24 107.87 C 137.43 107.87 135.81 107.87 135.00 107.87 C 135.00 111.08 135.00 114.28 135.00 117.48 C 134.28 117.48 132.84 117.47 132.12 117.46 C 131.99 118.53 131.86 119.59 131.73 120.66 C 130.97 120.65 129.46 120.64 128.70 120.64 C 128.66 121.41 128.59 122.93 128.55 123.70 C 126.47 123.75 124.40 123.80 122.32 123.86 C 122.33 124.64 122.35 126.21 122.36 127.00 C 120.24 127.00 118.13 127.00 116.01 127.00 C 116.01 127.78 116.00 129.33 116.00 130.11 C 114.89 130.13 113.79 130.16 112.69 130.19 C 112.73 132.69 112.77 135.18 112.85 137.67 C 112.00 138.43 111.15 139.19 110.29 139.93 C 108.85 130.41 109.97 120.72 109.64 111.13 C 111.75 111.12 113.85 111.12 115.96 111.12 C 115.98 110.31 116.02 108.69 116.04 107.88 C 119.18 107.88 122.33 107.88 125.47 107.88 C 125.47 107.18 125.45 105.77 125.44 105.06 C 126.49 104.89 127.54 104.73 128.60 104.57 C 128.62 103.84 128.67 102.39 128.69 101.66 C 129.48 101.65 131.04 101.64 131.82 101.64 C 131.85 100.82 131.91 99.20 131.94 98.39 C 132.68 98.40 134.14 98.42 134.87 98.43 C 134.92 97.65 135.00 96.08 135.04 95.30 C 135.64 95.28 136.83 95.24 137.42 95.22 C 138.69 93.91 139.99 92.63 141.33 91.39 C 141.36 90.76 141.42 89.51 141.45 88.88 M 138.36 104.69 C 138.29 105.72 138.23 106.76 138.17 107.80 C 139.27 107.79 140.37 107.79 141.47 107.78 C 141.42 106.77 141.37 105.77 141.32 104.76 C 140.33 104.74 139.34 104.71 138.36 104.69 Z" />
<path fill="#1079c9" opacity="1.00" d=" M 26.74 98.45 C 26.99 97.35 27.25 96.25 27.50 95.15 C 30.53 95.22 33.56 95.25 36.58 95.27 C 36.61 96.04 36.66 97.59 36.69 98.37 C 39.82 98.37 42.95 98.38 46.08 98.39 C 46.10 99.20 46.15 100.82 46.17 101.63 C 46.96 101.64 48.53 101.66 49.32 101.67 C 49.34 102.42 49.38 103.92 49.40 104.68 C 52.15 104.40 55.26 104.48 56.28 107.63 C 57.15 107.80 58.02 107.98 58.90 108.16 C 58.87 113.35 58.88 118.54 58.86 123.74 C 54.62 123.74 50.38 123.74 46.13 123.77 C 46.13 124.58 46.13 126.20 46.12 127.00 C 45.35 127.00 43.79 127.00 43.01 127.00 C 43.01 126.21 43.02 124.63 43.02 123.84 C 41.93 123.78 40.84 123.72 39.75 123.66 C 39.75 118.43 39.75 113.20 39.76 107.96 C 38.98 107.93 37.42 107.85 36.63 107.82 C 36.58 116.35 36.71 124.89 36.56 133.43 C 35.79 133.42 34.26 133.39 33.49 133.38 C 33.49 140.80 33.51 148.23 33.49 155.65 C 32.74 155.60 31.25 155.48 30.50 155.42 C 29.30 154.66 28.26 153.68 27.31 152.64 C 27.12 150.42 27.09 148.19 27.04 145.96 C 25.05 145.99 23.06 146.02 21.08 146.06 L 21.06 145.35 C 20.96 144.78 20.77 143.65 20.68 143.08 C 20.34 143.02 19.68 142.90 19.34 142.84 L 18.38 142.72 C 16.14 139.29 13.49 136.13 11.59 132.48 C 11.02 128.56 11.24 124.58 11.27 120.62 C 12.05 120.62 13.61 120.60 14.39 120.60 C 14.38 118.66 14.38 116.71 14.39 114.78 C 16.54 114.57 17.86 113.36 18.14 111.22 C 18.78 111.18 20.08 111.09 20.73 111.04 C 20.74 110.27 20.77 108.73 20.78 107.97 C 21.57 107.91 23.14 107.81 23.92 107.76 C 23.92 107.02 23.91 105.55 23.90 104.81 C 22.85 104.77 21.80 104.73 20.76 104.68 C 20.75 103.92 20.74 102.41 20.74 101.65 C 21.51 101.65 23.05 101.64 23.82 101.64 C 23.85 100.83 23.91 99.19 23.94 98.38 C 24.64 98.40 26.04 98.43 26.74 98.45 Z" />
<path fill="#1079c9" opacity="1.00" d=" M 131.93 123.76 C 132.70 123.76 134.23 123.75 135.00 123.75 C 134.99 126.83 134.83 129.92 135.15 132.98 C 136.16 133.29 137.18 133.56 138.22 133.79 C 138.27 138.94 138.25 144.08 138.24 149.23 C 137.44 149.23 135.86 149.23 135.06 149.24 C 135.03 150.02 134.98 151.58 134.95 152.37 C 134.22 152.36 132.77 152.36 132.04 152.35 C 131.99 153.13 131.90 154.68 131.85 155.45 C 123.41 155.54 114.96 155.48 106.51 155.49 C 106.50 153.42 106.50 151.36 106.50 149.30 C 107.26 149.28 108.78 149.23 109.54 149.21 C 109.60 148.17 109.67 147.13 109.73 146.09 C 110.53 146.03 112.14 145.91 112.94 145.85 C 112.76 144.20 112.57 142.54 112.37 140.90 C 113.54 140.26 114.74 139.67 115.96 139.11 C 116.00 136.11 116.00 133.11 116.00 130.11 C 119.16 130.12 122.32 130.12 125.49 130.12 C 125.48 129.36 125.47 127.82 125.47 127.05 C 127.59 127.03 129.71 127.00 131.84 126.98 C 131.86 126.18 131.91 124.57 131.93 123.76 Z" />
<path fill="#1079c9" opacity="1.00" d=" M 46.12 127.00 C 51.42 127.00 56.71 127.00 62.00 127.00 C 62.00 132.28 62.00 137.57 62.00 142.85 C 62.81 142.86 64.43 142.89 65.24 142.91 C 65.25 148.19 65.26 153.47 65.23 158.75 C 58.90 158.75 52.57 158.72 46.25 158.79 C 46.14 157.68 46.03 156.57 45.92 155.47 C 45.21 155.48 43.80 155.49 43.09 155.50 C 43.03 154.71 42.93 153.12 42.87 152.33 C 40.80 152.35 38.72 152.36 36.64 152.38 C 36.62 146.04 36.64 139.69 36.61 133.34 C 37.38 133.36 38.93 133.40 39.70 133.42 C 39.72 132.32 39.75 131.22 39.78 130.13 C 41.89 130.12 44.00 130.12 46.11 130.11 C 46.11 129.34 46.12 127.78 46.12 127.00 Z" />
<path fill="#1079c9" opacity="1.00" d=" M 106.35 139.61 L 106.68 139.61 C 107.44 139.58 108.95 139.53 109.70 139.50 C 109.65 141.72 109.62 143.94 109.59 146.17 C 108.82 146.08 107.27 145.92 106.50 145.83 C 106.47 143.76 106.42 141.68 106.35 139.61 Z" />
</g>
<g id="#707070ff">
<path fill="#707070" opacity="1.00" d=" M 62.02 111.11 C 64.13 111.12 66.24 111.12 68.34 111.12 C 68.37 114.29 68.38 117.45 68.39 120.62 C 66.25 120.62 64.12 120.62 62.00 120.61 C 61.99 117.45 62.00 114.28 62.02 111.11 Z" />
<path fill="#707070" opacity="1.00" d=" M 103.25 114.21 C 104.34 114.24 105.43 114.27 106.52 114.30 C 106.51 116.40 106.50 118.50 106.50 120.61 C 105.43 120.62 104.36 120.63 103.29 120.65 C 103.27 118.50 103.26 116.35 103.25 114.21 Z" />
<path fill="#707070" opacity="1.00" d=" M 62.00 123.76 C 64.13 123.75 66.25 123.75 68.38 123.75 C 68.37 124.53 68.34 126.11 68.33 126.90 C 69.12 126.94 70.72 127.02 71.52 127.06 C 71.50 127.81 71.46 129.33 71.44 130.08 C 70.66 130.11 69.10 130.17 68.32 130.20 C 68.34 131.02 68.38 132.66 68.40 133.48 C 67.60 133.40 66.00 133.24 65.20 133.17 C 65.23 131.12 65.24 129.07 65.26 127.03 C 64.45 127.02 62.81 126.99 62.00 126.97 C 62.00 126.17 62.00 124.56 62.00 123.76 Z" />
<path fill="#707070" opacity="1.00" d=" M 103.22 123.88 C 104.03 123.83 105.66 123.74 106.48 123.70 C 106.49 125.84 106.49 127.98 106.49 130.12 C 104.37 130.12 102.26 130.12 100.14 130.13 C 100.13 129.36 100.09 127.84 100.08 127.07 C 100.87 127.04 102.45 126.98 103.24 126.95 C 103.24 126.18 103.22 124.65 103.22 123.88 Z" />
<path fill="#707070" opacity="1.00" d=" M 100.16 133.33 C 102.25 133.36 104.35 133.38 106.45 133.40 C 106.51 135.47 106.58 137.54 106.68 139.61 L 106.35 139.61 C 104.28 139.65 102.21 139.65 100.14 139.66 C 100.14 137.55 100.15 135.44 100.16 133.33 Z" />
<path fill="#707070" opacity="1.00" d=" M 68.44 133.42 C 69.21 133.41 70.74 133.40 71.51 133.39 C 71.50 135.45 71.50 137.51 71.50 139.57 C 70.74 139.59 69.23 139.63 68.48 139.64 C 68.40 140.78 68.33 141.91 68.25 143.05 C 67.55 142.97 66.16 142.83 65.46 142.75 C 65.19 140.70 65.23 138.62 65.20 136.56 C 65.98 136.52 67.54 136.46 68.33 136.42 C 68.36 135.67 68.41 134.17 68.44 133.42 Z" />
<path fill="#707070" opacity="1.00" d=" M 68.39 142.83 C 69.16 142.85 70.71 142.88 71.49 142.90 C 71.50 146.06 71.50 149.22 71.48 152.38 C 70.71 152.38 69.16 152.38 68.38 152.39 C 68.37 149.20 68.37 146.02 68.39 142.83 Z" />
<path fill="#707070" opacity="1.00" d=" M 100.13 142.87 C 100.91 142.88 102.46 142.90 103.24 142.91 C 103.25 146.06 103.25 149.22 103.26 152.38 C 102.47 152.36 100.90 152.34 100.11 152.32 C 100.12 149.17 100.13 146.02 100.13 142.87 Z" />
</g>
</svg>
