<?xml version="1.0" encoding="UTF-8" ?>
<!DOCTYPE svg PUBLIC "-//W3C//DTD SVG 1.1//EN" "http://www.w3.org/Graphics/SVG/1.1/DTD/svg11.dtd">
<svg width="178pt" height="178pt" viewBox="0 0 178 178" version="1.1" xmlns="http://www.w3.org/2000/svg">
<g id="#cbd127ff">
<path fill="#cbd127" opacity="1.00" d=" M 91.88 12.76 C 99.86 10.97 108.27 12.30 115.76 15.37 C 120.55 17.19 124.58 21.81 130.16 20.33 C 128.64 21.07 127.17 21.88 125.68 22.67 C 124.53 23.20 123.35 23.67 122.16 24.12 C 119.11 25.04 116.03 26.58 112.77 26.28 C 108.19 24.57 104.51 21.09 100.01 19.15 C 100.06 19.57 100.14 20.39 100.18 20.81 C 99.21 20.10 98.21 19.44 97.19 18.79 C 95.58 17.74 93.77 17.01 91.90 16.56 C 91.89 15.29 91.89 14.02 91.88 12.76 Z" />
</g>
<g id="#909621ea">
<path fill="#909621" opacity="0.92" d=" M 84.52 15.13 C 86.94 14.24 89.38 13.39 91.88 12.76 C 91.89 14.02 91.89 15.29 91.90 16.56 C 89.37 16.56 86.82 16.27 84.52 15.13 Z" />
</g>
<g id="#6f6e24ff">
<path fill="#6f6e24" opacity="1.00" d=" M 71.60 24.93 C 75.35 21.04 79.24 16.87 84.52 15.13 C 86.82 16.27 89.37 16.56 91.90 16.56 C 93.77 17.01 95.58 17.74 97.19 18.79 C 98.89 21.90 100.07 25.25 101.16 28.60 C 99.76 28.52 98.37 28.45 96.98 28.32 L 96.45 27.96 C 93.69 26.16 91.08 24.00 87.93 22.93 C 85.97 23.08 84.10 23.74 82.29 24.49 C 80.60 23.62 78.88 22.81 77.16 22.02 C 75.83 23.55 74.51 25.07 73.19 26.61 C 72.79 26.19 72.00 25.35 71.60 24.93 Z" />
</g>
<g id="#848427ff">
<path fill="#848427" opacity="1.00" d=" M 97.19 18.79 C 98.21 19.44 99.21 20.10 100.18 20.81 C 101.15 22.17 102.11 23.53 103.04 24.91 C 104.40 28.72 105.84 32.50 107.78 36.06 C 103.58 32.80 99.30 37.14 97.56 40.91 C 96.94 40.10 96.32 39.30 95.68 38.51 C 96.83 36.02 97.97 33.54 99.12 31.06 C 98.41 30.14 97.71 29.22 96.98 28.32 C 98.37 28.45 99.76 28.52 101.16 28.60 C 100.07 25.25 98.89 21.90 97.19 18.79 Z" />
</g>
<g id="#dcde67ff">
<path fill="#dcde67" opacity="1.00" d=" M 100.01 19.15 C 104.51 21.09 108.19 24.57 112.77 26.28 C 116.03 26.58 119.11 25.04 122.16 24.12 C 121.45 25.44 120.72 26.75 120.01 28.07 C 118.31 29.98 116.43 31.72 114.58 33.48 C 111.78 31.83 108.89 30.31 105.93 28.95 C 104.96 27.61 103.99 26.27 103.04 24.91 C 102.11 23.53 101.15 22.17 100.18 20.81 C 100.14 20.39 100.06 19.57 100.01 19.15 Z" />
</g>
<g id="#717025ff">
<path fill="#717025" opacity="1.00" d=" M 135.54 19.73 C 140.15 24.14 144.39 29.63 145.13 36.18 C 143.41 32.49 141.50 28.10 137.24 26.83 C 132.95 25.24 128.24 26.33 124.63 28.98 C 123.46 29.68 122.28 30.37 121.10 31.06 C 122.13 28.03 123.45 25.03 125.68 22.67 C 127.17 21.88 128.64 21.07 130.16 20.33 C 131.94 20.06 133.73 19.67 135.54 19.73 Z" />
</g>
<g id="#5c622bff">
<path fill="#5c622b" opacity="1.00" d=" M 73.19 26.61 C 74.51 25.07 75.83 23.55 77.16 22.02 C 78.88 22.81 80.60 23.62 82.29 24.49 C 81.93 24.81 81.20 25.45 80.84 25.77 C 79.73 26.76 78.66 27.80 77.60 28.85 C 75.18 31.94 73.12 36.19 74.89 40.08 C 76.49 43.62 81.08 42.30 84.14 42.93 C 85.45 43.05 86.76 43.22 88.06 43.41 C 85.08 44.70 82.47 46.67 80.29 49.08 C 81.01 50.55 81.74 52.03 82.48 53.49 L 82.87 54.20 C 81.07 54.05 79.27 53.97 77.47 53.94 C 81.18 56.60 85.75 57.36 90.20 57.70 C 85.04 58.30 79.29 58.40 75.04 54.90 C 74.66 54.35 73.89 53.25 73.50 52.70 L 73.05 52.07 C 69.85 52.23 67.49 54.51 65.61 56.88 C 64.48 62.79 63.80 68.78 62.73 74.71 C 61.77 79.56 63.24 85.32 59.44 89.20 C 56.74 86.93 53.35 84.46 49.62 85.53 C 44.61 86.97 40.54 90.47 35.81 92.58 C 39.06 92.23 42.43 91.50 45.65 92.37 C 47.78 93.03 49.02 95.03 49.63 97.06 C 47.18 95.78 44.81 94.04 41.98 93.77 C 39.00 94.13 36.47 96.07 33.51 96.46 C 30.72 95.59 30.94 92.35 30.57 90.02 C 31.04 89.94 31.97 89.79 32.44 89.71 C 32.93 89.63 33.91 89.47 34.41 89.38 C 34.68 85.27 34.13 81.14 32.17 77.47 C 32.54 76.58 32.93 75.69 33.37 74.83 C 33.92 75.82 34.49 76.80 35.05 77.77 C 36.97 76.36 38.84 74.73 41.15 74.01 C 43.38 73.36 44.97 75.40 46.62 76.50 C 48.23 78.01 50.43 78.40 52.52 78.81 C 53.88 80.92 55.19 83.07 56.53 85.19 C 58.96 82.33 59.12 78.57 59.07 75.00 C 58.97 66.73 62.13 58.97 63.88 51.00 C 64.72 47.51 65.15 43.87 66.61 40.55 C 68.59 36.19 72.27 32.97 74.79 28.97 C 74.32 28.13 73.79 27.35 73.19 26.61 Z" />
</g>
<g id="#b5bb27ff">
<path fill="#b5bb27" opacity="1.00" d=" M 82.29 24.49 C 84.10 23.74 85.97 23.08 87.93 22.93 C 91.08 24.00 93.69 26.16 96.45 27.96 C 96.15 29.86 96.55 32.42 94.59 33.57 C 90.21 34.56 85.86 32.88 81.86 31.25 C 81.50 29.42 81.19 27.59 80.84 25.77 C 81.20 25.45 81.93 24.81 82.29 24.49 Z" />
</g>
<g id="#9a9c1fff">
<path fill="#9a9c1f" opacity="1.00" d=" M 122.16 24.12 C 123.35 23.67 124.53 23.20 125.68 22.67 C 123.45 25.03 122.13 28.03 121.10 31.06 C 122.28 30.37 123.46 29.68 124.63 28.98 C 124.98 30.03 125.35 31.09 125.71 32.15 C 128.91 32.97 132.08 33.93 135.16 35.11 C 132.77 35.84 130.37 36.55 127.96 37.25 C 128.61 38.27 129.26 39.28 129.92 40.30 C 126.04 41.07 123.43 44.07 121.79 47.47 C 119.85 44.54 118.01 41.38 117.48 37.86 C 117.33 34.44 118.77 31.19 120.01 28.07 C 120.72 26.75 121.45 25.44 122.16 24.12 Z" />
</g>
<g id="#4e582aff">
<path fill="#4e582a" opacity="1.00" d=" M 63.03 42.10 C 65.32 36.13 67.35 29.88 71.60 24.93 C 72.00 25.35 72.79 26.19 73.19 26.61 C 73.79 27.35 74.32 28.13 74.79 28.97 C 72.27 32.97 68.59 36.19 66.61 40.55 C 65.15 43.87 64.72 47.51 63.88 51.00 C 62.13 58.97 58.97 66.73 59.07 75.00 C 59.12 78.57 58.96 82.33 56.53 85.19 C 55.19 83.07 53.88 80.92 52.52 78.81 C 50.43 78.40 48.23 78.01 46.62 76.50 C 44.97 75.40 43.38 73.36 41.15 74.01 C 38.84 74.73 36.97 76.36 35.05 77.77 C 34.49 76.80 33.92 75.82 33.37 74.83 C 34.69 73.68 36.11 72.64 37.50 71.57 C 42.59 71.24 47.62 70.14 52.24 67.92 C 51.52 67.37 50.81 66.82 50.09 66.28 C 51.48 66.44 52.87 66.63 54.26 66.82 C 55.31 62.57 56.17 58.28 57.25 54.05 C 54.01 50.38 49.86 47.08 44.80 46.65 C 39.99 45.96 34.16 47.27 30.48 43.28 C 32.64 43.21 34.80 43.12 36.96 42.95 C 39.50 42.86 42.19 42.23 44.64 43.23 C 48.49 44.76 51.93 47.35 56.07 48.12 C 58.03 48.71 59.13 46.64 60.45 45.63 C 59.82 45.33 58.58 44.73 57.95 44.43 C 59.85 44.44 62.46 44.38 63.03 42.10 Z" />
</g>
<g id="#9b9e28ff">
<path fill="#9b9e28" opacity="1.00" d=" M 103.04 24.91 C 103.99 26.27 104.96 27.61 105.93 28.95 C 107.85 32.03 111.13 34.50 111.85 38.18 C 111.29 43.44 107.86 48.21 108.74 53.71 C 109.42 55.23 110.17 56.73 110.98 58.20 C 112.76 60.29 114.56 62.82 117.40 63.45 C 121.22 64.20 125.15 64.10 129.02 63.90 C 127.77 64.36 126.52 64.84 125.23 65.18 C 120.41 64.99 115.15 64.91 111.07 61.96 C 108.12 59.94 106.37 56.73 104.47 53.79 C 103.06 55.76 101.69 57.75 100.34 59.76 C 99.01 59.27 97.67 58.80 96.32 58.36 C 94.32 57.85 92.26 57.71 90.20 57.70 C 85.75 57.36 81.18 56.60 77.47 53.94 C 79.27 53.97 81.07 54.05 82.87 54.20 C 87.21 54.82 92.00 55.10 95.59 52.09 C 96.72 51.35 97.82 50.56 98.94 49.79 C 98.22 48.33 97.63 46.76 96.58 45.50 C 94.02 43.99 90.91 43.98 88.06 43.41 C 86.76 43.22 85.45 43.05 84.14 42.93 C 83.97 41.15 83.91 39.36 83.72 37.57 C 81.84 37.01 79.91 36.59 78.14 35.73 C 76.46 33.87 77.65 31.08 77.60 28.85 C 78.66 27.80 79.73 26.76 80.84 25.77 C 81.19 27.59 81.50 29.42 81.86 31.25 C 85.86 32.88 90.21 34.56 94.59 33.57 C 96.55 32.42 96.15 29.86 96.45 27.96 L 96.98 28.32 C 97.71 29.22 98.41 30.14 99.12 31.06 C 97.97 33.54 96.83 36.02 95.68 38.51 C 93.18 38.83 90.57 39.24 88.71 41.10 C 92.92 41.89 97.09 43.22 100.38 46.08 C 100.77 48.08 101.08 50.10 101.43 52.11 C 104.57 48.83 107.16 44.94 108.43 40.56 C 108.96 39.03 108.21 37.50 107.78 36.06 C 105.84 32.50 104.40 28.72 103.04 24.91 Z" />
</g>
<g id="#b6bb1fff">
<path fill="#b6bb1f" opacity="1.00" d=" M 124.63 28.98 C 128.24 26.33 132.95 25.24 137.24 26.83 C 141.50 28.10 143.41 32.49 145.13 36.18 L 145.41 37.15 C 146.27 36.27 147.14 35.39 147.98 34.48 C 149.07 35.36 150.26 36.15 151.18 37.21 C 151.33 38.48 151.23 39.76 151.22 41.04 C 149.26 42.32 147.75 44.12 146.37 45.99 C 143.09 48.31 140.28 51.98 135.84 51.75 C 136.30 51.46 137.20 50.87 137.66 50.58 C 139.42 49.53 140.88 48.04 141.81 46.21 C 141.46 43.79 142.57 39.77 139.57 38.84 C 136.30 38.66 133.08 39.58 129.92 40.30 C 129.26 39.28 128.61 38.27 127.96 37.25 C 130.37 36.55 132.77 35.84 135.16 35.11 C 132.08 33.93 128.91 32.97 125.71 32.15 C 125.35 31.09 124.98 30.03 124.63 28.98 Z" />
</g>
<g id="#938b2dfd">
<path fill="#938b2d" opacity="1.00" d=" M 30.85 34.98 C 32.01 31.06 34.40 26.87 39.04 26.87 C 38.82 27.26 38.39 28.04 38.18 28.43 C 36.43 30.96 35.61 33.96 35.74 37.03 C 35.33 35.75 34.87 34.50 34.44 33.24 C 33.25 33.82 32.05 34.40 30.85 34.98 Z" />
</g>
<g id="#afaf34ff">
<path fill="#afaf34" opacity="1.00" d=" M 38.18 28.43 C 38.39 28.04 38.82 27.26 39.04 26.87 C 42.08 29.59 44.44 32.92 46.75 36.25 C 49.42 40.20 53.81 42.37 57.95 44.43 C 58.58 44.73 59.82 45.33 60.45 45.63 C 59.13 46.64 58.03 48.71 56.07 48.12 C 51.93 47.35 48.49 44.76 44.64 43.23 C 42.19 42.23 39.50 42.86 36.96 42.95 C 36.99 42.62 37.07 41.96 37.10 41.62 C 38.95 40.59 41.76 40.26 42.35 37.87 C 42.45 34.26 39.95 31.35 38.18 28.43 Z" />
</g>
<g id="#c5c731ff">
<path fill="#c5c731" opacity="1.00" d=" M 114.58 33.48 C 116.43 31.72 118.31 29.98 120.01 28.07 C 118.77 31.19 117.33 34.44 117.48 37.86 C 118.01 41.38 119.85 44.54 121.79 47.47 C 122.16 47.58 122.92 47.79 123.29 47.90 C 124.01 48.10 125.44 48.50 126.16 48.70 C 120.20 49.50 113.39 49.26 108.74 53.71 C 107.86 48.21 111.29 43.44 111.85 38.18 C 111.13 34.50 107.85 32.03 105.93 28.95 C 108.89 30.31 111.78 31.83 114.58 33.48 Z" />
</g>
<g id="#7f7b2fff">
<path fill="#7f7b2f" opacity="1.00" d=" M 147.98 34.48 C 149.80 32.30 151.27 29.86 152.80 27.47 C 154.99 29.81 157.17 32.17 159.07 34.75 C 156.88 36.35 154.83 38.14 152.82 39.96 C 152.42 40.23 151.62 40.77 151.22 41.04 C 151.23 39.76 151.33 38.48 151.18 37.21 C 150.26 36.15 149.07 35.36 147.98 34.48 Z" />
</g>
<g id="#494827ff">
<path fill="#494827" opacity="1.00" d=" M 35.74 37.03 C 35.61 33.96 36.43 30.96 38.18 28.43 C 39.95 31.35 42.45 34.26 42.35 37.87 C 41.76 40.26 38.95 40.59 37.10 41.62 C 36.70 40.08 36.19 38.56 35.74 37.03 Z" />
</g>
<g id="#838625ff">
<path fill="#838625" opacity="1.00" d=" M 74.89 40.08 C 73.12 36.19 75.18 31.94 77.60 28.85 C 77.65 31.08 76.46 33.87 78.14 35.73 C 79.91 36.59 81.84 37.01 83.72 37.57 C 83.91 39.36 83.97 41.15 84.14 42.93 C 81.08 42.30 76.49 43.62 74.89 40.08 Z" />
</g>
<g id="#c1c141ff">
<path fill="#c1c141" opacity="1.00" d=" M 30.85 34.98 C 32.05 34.40 33.25 33.82 34.44 33.24 C 34.87 34.50 35.33 35.75 35.74 37.03 C 36.19 38.56 36.70 40.08 37.10 41.62 C 37.07 41.96 36.99 42.62 36.96 42.95 C 34.80 43.12 32.64 43.21 30.48 43.28 C 30.19 40.51 30.30 37.71 30.85 34.98 Z" />
</g>
<g id="#5c5a29ff">
<path fill="#5c5a29" opacity="1.00" d=" M 97.56 40.91 C 99.30 37.14 103.58 32.80 107.78 36.06 C 108.21 37.50 108.96 39.03 108.43 40.56 C 107.16 44.94 104.57 48.83 101.43 52.11 C 101.08 50.10 100.77 48.08 100.38 46.08 C 99.62 44.26 98.69 42.52 97.56 40.91 Z" />
</g>
<g id="#554e22ee">
<path fill="#554e22" opacity="0.93" d=" M 159.07 34.75 C 159.88 35.85 160.66 36.98 161.44 38.11 C 158.58 38.79 155.70 39.36 152.82 39.96 C 154.83 38.14 156.88 36.35 159.07 34.75 Z" />
</g>
<g id="#6b682dff">
<path fill="#6b682d" opacity="1.00" d=" M 129.92 40.30 C 133.08 39.58 136.30 38.66 139.57 38.84 C 142.57 39.77 141.46 43.79 141.81 46.21 C 140.45 44.59 139.39 42.46 137.37 41.56 C 134.84 40.94 132.20 41.33 129.64 41.60 C 126.97 43.07 125.11 45.52 123.29 47.90 C 122.92 47.79 122.16 47.58 121.79 47.47 C 123.43 44.07 126.04 41.07 129.92 40.30 Z" />
<path fill="#6b682d" opacity="1.00" d=" M 100.34 59.76 C 101.69 57.75 103.06 55.76 104.47 53.79 C 106.37 56.73 108.12 59.94 111.07 61.96 C 115.15 64.91 120.41 64.99 125.23 65.18 C 116.26 68.33 107.35 62.50 98.29 64.78 C 97.31 63.07 96.31 61.38 95.41 59.63 C 95.64 59.31 96.10 58.68 96.32 58.36 C 97.67 58.80 99.01 59.27 100.34 59.76 Z" />
</g>
<g id="#bfbf4eff">
<path fill="#bfbf4e" opacity="1.00" d=" M 88.71 41.10 C 90.57 39.24 93.18 38.83 95.68 38.51 C 96.32 39.30 96.94 40.10 97.56 40.91 C 98.69 42.52 99.62 44.26 100.38 46.08 C 97.09 43.22 92.92 41.89 88.71 41.10 Z" />
</g>
<g id="#f7efd2ff">
<path fill="#f7efd2" opacity="1.00" d=" M 129.64 41.60 C 132.20 41.33 134.84 40.94 137.37 41.56 C 139.39 42.46 140.45 44.59 141.81 46.21 C 140.88 48.04 139.42 49.53 137.66 50.58 C 136.86 48.57 136.35 46.40 135.11 44.60 C 134.03 43.63 132.39 43.97 131.07 43.68 C 130.67 43.65 129.87 43.60 129.47 43.57 C 129.51 43.08 129.60 42.09 129.64 41.60 Z" />
</g>
<g id="#9f9270ff">
<path fill="#9f9270" opacity="1.00" d=" M 123.29 47.90 C 125.11 45.52 126.97 43.07 129.64 41.60 C 129.60 42.09 129.51 43.08 129.47 43.57 C 129.87 43.60 130.67 43.65 131.07 43.68 C 129.96 45.50 128.84 47.32 127.75 49.16 C 127.36 49.04 126.56 48.82 126.16 48.70 C 125.44 48.50 124.01 48.10 123.29 47.90 Z" />
</g>
<g id="#a39676ff">
<path fill="#a39676" opacity="1.00" d=" M 80.29 49.08 C 82.47 46.67 85.08 44.70 88.06 43.41 C 87.79 44.50 85.08 47.11 87.71 46.57 C 87.00 48.89 86.29 51.21 85.60 53.53 C 84.56 53.52 83.52 53.51 82.48 53.49 C 81.74 52.03 81.01 50.55 80.29 49.08 Z" />
</g>
<g id="#f7efd3ff">
<path fill="#f7efd3" opacity="1.00" d=" M 88.06 43.41 C 90.91 43.98 94.02 43.99 96.58 45.50 C 97.63 46.76 98.22 48.33 98.94 49.79 C 97.82 50.56 96.72 51.35 95.59 52.09 C 94.63 51.55 93.67 51.00 92.72 50.45 L 92.23 49.99 C 92.82 49.65 94.02 48.97 94.61 48.63 C 92.84 46.59 90.23 46.38 87.71 46.57 C 85.08 47.11 87.79 44.50 88.06 43.41 Z" />
</g>
<g id="#5d2b23ff">
<path fill="#5d2b23" opacity="1.00" d=" M 131.07 43.68 C 132.39 43.97 134.03 43.63 135.11 44.60 C 136.35 46.40 136.86 48.57 137.66 50.58 C 137.20 50.87 136.30 51.46 135.84 51.75 C 134.61 51.86 133.37 51.98 132.14 52.10 C 131.91 51.89 131.46 51.46 131.23 51.25 C 130.70 50.90 129.64 50.21 129.11 49.87 C 128.77 49.69 128.09 49.33 127.75 49.16 C 128.84 47.32 129.96 45.50 131.07 43.68 M 132.37 47.29 C 130.96 48.24 132.35 50.97 133.88 49.74 C 135.30 48.80 133.88 46.07 132.37 47.29 Z" />
</g>
<g id="#5d3124ff">
<path fill="#5d3124" opacity="1.00" d=" M 87.71 46.57 C 90.23 46.38 92.84 46.59 94.61 48.63 C 94.02 48.97 92.82 49.65 92.23 49.99 C 90.86 48.95 88.65 50.15 89.61 51.90 C 90.62 53.53 92.55 51.76 92.72 50.45 C 93.67 51.00 94.63 51.55 95.59 52.09 C 92.00 55.10 87.21 54.82 82.87 54.20 L 82.48 53.49 C 83.52 53.51 84.56 53.52 85.60 53.53 C 86.29 51.21 87.00 48.89 87.71 46.57 Z" />
</g>
<g id="#d0d334ff">
<path fill="#d0d334" opacity="1.00" d=" M 135.84 51.75 C 140.28 51.98 143.09 48.31 146.37 45.99 C 147.89 48.59 149.40 51.22 151.15 53.68 C 148.68 55.32 146.32 57.27 143.47 58.21 C 141.07 58.58 138.73 57.57 136.45 56.97 C 135.07 55.30 133.67 53.63 132.14 52.10 C 133.37 51.98 134.61 51.86 135.84 51.75 Z" />
</g>
<g id="#130c14ff">
<path fill="#130c14" opacity="1.00" d=" M 132.37 47.29 C 133.88 46.07 135.30 48.80 133.88 49.74 C 132.35 50.97 130.96 48.24 132.37 47.29 Z" />
</g>
<g id="#170e13ff">
<path fill="#170e13" opacity="1.00" d=" M 89.61 51.90 C 88.65 50.15 90.86 48.95 92.23 49.99 L 92.72 50.45 C 92.55 51.76 90.62 53.53 89.61 51.90 Z" />
</g>
<g id="#d0cd50ff">
<path fill="#d0cd50" opacity="1.00" d=" M 108.74 53.71 C 113.39 49.26 120.20 49.50 126.16 48.70 C 126.56 48.82 127.36 49.04 127.75 49.16 C 128.09 49.33 128.77 49.69 129.11 49.87 C 123.45 50.58 117.08 49.99 112.41 53.88 C 116.17 58.94 123.05 58.31 128.55 57.42 C 131.31 56.82 130.73 53.35 131.23 51.25 C 131.46 51.46 131.91 51.89 132.14 52.10 C 133.67 53.63 135.07 55.30 136.45 56.97 C 137.25 57.99 138.03 59.03 138.84 60.04 C 133.23 57.61 127.49 60.68 121.78 60.74 C 118.01 60.89 114.44 59.51 110.98 58.20 C 110.17 56.73 109.42 55.23 108.74 53.71 Z" />
</g>
<g id="#e4e391ff">
<path fill="#e4e391" opacity="1.00" d=" M 112.41 53.88 C 117.08 49.99 123.45 50.58 129.11 49.87 C 129.64 50.21 130.70 50.90 131.23 51.25 C 130.73 53.35 131.31 56.82 128.55 57.42 C 123.05 58.31 116.17 58.94 112.41 53.88 Z" />
</g>
<g id="#918c27ff">
<path fill="#918c27" opacity="1.00" d=" M 65.61 56.88 C 67.49 54.51 69.85 52.23 73.05 52.07 L 73.50 52.70 C 71.57 53.85 68.46 54.51 68.33 57.23 C 68.58 65.41 72.14 74.31 79.84 78.14 C 83.19 80.01 85.88 76.05 88.16 74.16 C 84.52 80.52 80.92 86.91 77.48 93.38 C 75.36 89.68 76.33 85.31 75.56 81.29 C 74.96 79.47 73.53 78.10 72.41 76.59 C 67.64 71.16 67.32 63.58 65.61 56.88 Z" />
</g>
<g id="#a6a530ff">
<path fill="#a6a530" opacity="1.00" d=" M 68.33 57.23 C 68.46 54.51 71.57 53.85 73.50 52.70 C 73.89 53.25 74.66 54.35 75.04 54.90 C 73.68 55.71 72.37 56.62 71.01 57.44 C 72.55 62.02 74.36 66.69 77.72 70.27 C 80.07 72.77 84.06 73.69 87.21 72.27 C 89.39 69.37 90.74 65.94 92.93 63.05 C 91.79 65.94 90.88 68.92 89.53 71.72 C 89.09 72.54 88.63 73.36 88.16 74.16 C 85.88 76.05 83.19 80.01 79.84 78.14 C 72.14 74.31 68.58 65.41 68.33 57.23 Z" />
</g>
<g id="#e8e968ff">
<path fill="#e8e968" opacity="1.00" d=" M 143.47 58.21 C 146.32 57.27 148.68 55.32 151.15 53.68 C 154.23 57.53 156.01 62.19 157.32 66.89 C 154.29 67.18 151.22 67.42 148.18 67.03 C 145.11 64.65 141.93 62.41 138.84 60.04 C 138.03 59.03 137.25 57.99 136.45 56.97 C 138.73 57.57 141.07 58.58 143.47 58.21 Z" />
</g>
<g id="#c9c93fff">
<path fill="#c9c93f" opacity="1.00" d=" M 71.01 57.44 C 72.37 56.62 73.68 55.71 75.04 54.90 C 79.29 58.40 85.04 58.30 90.20 57.70 C 92.26 57.71 94.32 57.85 96.32 58.36 C 96.10 58.68 95.64 59.31 95.41 59.63 C 94.58 60.77 93.72 61.88 92.93 63.05 C 90.74 65.94 89.39 69.37 87.21 72.27 C 84.06 73.69 80.07 72.77 77.72 70.27 C 74.36 66.69 72.55 62.02 71.01 57.44 Z" />
</g>
<g id="#737325ff">
<path fill="#737325" opacity="1.00" d=" M 62.73 74.71 C 63.80 68.78 64.48 62.79 65.61 56.88 C 67.32 63.58 67.64 71.16 72.41 76.59 C 73.53 78.10 74.96 79.47 75.56 81.29 C 76.33 85.31 75.36 89.68 77.48 93.38 C 80.92 86.91 84.52 80.52 88.16 74.16 C 88.63 73.36 89.09 72.54 89.53 71.72 C 89.80 73.12 90.07 74.51 90.35 75.90 C 99.17 73.31 108.38 74.43 117.43 74.29 L 116.66 74.70 C 113.07 75.38 109.45 75.92 105.89 76.71 C 103.85 77.10 101.81 77.45 99.78 77.86 C 96.39 78.90 93.35 80.76 90.57 82.92 C 94.96 87.45 100.47 91.69 107.16 91.31 C 99.82 92.89 91.35 93.15 85.97 99.12 C 86.54 100.47 87.07 101.85 87.82 103.11 C 89.10 103.69 90.47 104.01 91.82 104.38 C 92.39 104.51 93.53 104.79 94.10 104.93 C 93.29 105.04 91.68 105.27 90.87 105.39 C 96.30 112.90 106.37 113.92 114.42 117.15 C 111.29 118.06 108.16 118.97 104.98 119.67 C 105.16 121.36 105.21 123.11 105.81 124.73 C 108.58 126.47 111.84 127.28 114.62 129.03 C 111.27 131.51 107.20 132.61 103.59 134.60 C 101.29 135.86 99.57 140.00 102.65 141.37 C 107.34 144.13 112.94 144.68 118.19 145.76 C 117.11 146.19 116.07 146.70 115.06 147.28 C 113.75 148.15 112.44 149.02 111.12 149.88 C 111.28 149.00 111.41 148.12 111.53 147.24 L 111.63 146.47 C 107.99 145.59 104.18 145.02 100.92 143.05 C 96.54 140.34 91.28 139.14 87.44 135.58 C 83.06 131.64 78.13 128.13 74.87 123.12 C 70.62 116.72 66.30 110.37 62.10 103.93 C 61.61 104.18 60.62 104.66 60.12 104.90 C 57.04 106.59 53.51 106.98 50.06 106.98 C 50.05 106.18 50.02 104.59 50.01 103.79 C 53.44 103.34 56.95 103.24 60.28 102.25 C 64.32 98.66 61.81 92.97 59.44 89.20 C 63.24 85.32 61.77 79.56 62.73 74.71 Z" />
</g>
<g id="#c3c42cff">
<path fill="#c3c42c" opacity="1.00" d=" M 110.98 58.20 C 114.44 59.51 118.01 60.89 121.78 60.74 C 127.49 60.68 133.23 57.61 138.84 60.04 C 141.93 62.41 145.11 64.65 148.18 67.03 C 151.52 70.04 156.06 73.73 155.04 78.78 C 154.81 81.07 152.77 82.37 151.22 83.78 C 150.49 82.39 149.84 80.97 149.10 79.59 C 151.91 77.11 150.52 73.09 148.18 70.82 C 145.52 68.15 142.83 65.51 140.13 62.88 C 137.92 60.74 134.54 61.91 132.03 62.79 C 131.02 63.16 130.02 63.52 129.02 63.90 C 125.15 64.10 121.22 64.20 117.40 63.45 C 114.56 62.82 112.76 60.29 110.98 58.20 Z" />
</g>
<g id="#5a5325ff">
<path fill="#5a5325" opacity="1.00" d=" M 95.41 59.63 C 96.31 61.38 97.31 63.07 98.29 64.78 C 107.35 62.50 116.26 68.33 125.23 65.18 C 126.52 64.84 127.77 64.36 129.02 63.90 C 130.02 63.52 131.02 63.16 132.03 62.79 C 133.36 62.79 134.68 62.81 136.01 62.86 C 136.11 63.67 136.31 65.30 136.41 66.12 C 134.94 66.76 133.43 67.30 131.93 67.88 C 130.91 68.15 129.89 68.43 128.88 68.72 C 127.78 69.03 126.71 69.39 125.65 69.80 C 122.81 71.12 120.15 72.77 117.43 74.29 C 108.38 74.43 99.17 73.31 90.35 75.90 C 90.07 74.51 89.80 73.12 89.53 71.72 C 90.88 68.92 91.79 65.94 92.93 63.05 C 93.72 61.88 94.58 60.77 95.41 59.63 M 101.28 66.13 C 99.60 67.02 99.50 69.91 101.41 70.57 C 104.33 71.21 107.46 71.12 110.34 70.29 C 111.83 69.11 110.38 67.60 109.29 66.79 C 106.80 65.78 103.88 65.33 101.28 66.13 Z" />
</g>
<g id="#949022ff">
<path fill="#949022" opacity="1.00" d=" M 132.03 62.79 C 134.54 61.91 137.92 60.74 140.13 62.88 C 142.83 65.51 145.52 68.15 148.18 70.82 C 150.52 73.09 151.91 77.11 149.10 79.59 C 146.68 75.28 143.57 71.32 139.79 68.13 C 137.66 65.92 134.48 67.62 131.93 67.88 C 133.43 67.30 134.94 66.76 136.41 66.12 C 136.31 65.30 136.11 63.67 136.01 62.86 C 134.68 62.81 133.36 62.79 132.03 62.79 Z" />
</g>
<g id="#7f6c4aff">
<path fill="#7f6c4a" opacity="1.00" d=" M 5.84 67.08 C 7.04 64.94 8.26 61.70 10.97 61.42 C 14.59 63.59 16.86 67.39 20.42 69.62 C 25.12 71.20 30.08 69.32 34.35 67.33 C 39.26 64.98 44.87 65.74 50.09 66.28 C 50.81 66.82 51.52 67.37 52.24 67.92 C 47.62 70.14 42.59 71.24 37.50 71.57 C 37.73 71.34 38.19 70.89 38.42 70.66 C 36.05 71.53 33.69 72.43 31.26 73.12 C 31.55 74.57 31.77 76.04 32.17 77.47 C 34.13 81.14 34.68 85.27 34.41 89.38 C 33.91 89.47 32.93 89.63 32.44 89.71 C 32.87 86.60 32.48 83.48 31.51 80.50 C 26.88 80.81 22.10 81.04 17.67 79.39 C 13.79 77.91 9.08 77.00 6.69 73.24 C 5.40 71.45 5.78 69.14 5.84 67.08 Z" />
</g>
<g id="#2f2728ff">
<path fill="#2f2728" opacity="1.00" d=" M 101.28 66.13 C 103.88 65.33 106.80 65.78 109.29 66.79 C 110.38 67.60 111.83 69.11 110.34 70.29 C 107.46 71.12 104.33 71.21 101.41 70.57 C 99.50 69.91 99.60 67.02 101.28 66.13 Z" />
</g>
<g id="#dadf45ff">
<path fill="#dadf45" opacity="1.00" d=" M 131.93 67.88 C 134.48 67.62 137.66 65.92 139.79 68.13 C 143.57 71.32 146.68 75.28 149.10 79.59 C 149.84 80.97 150.49 82.39 151.22 83.78 C 152.77 82.37 154.81 81.07 155.04 78.78 C 156.06 73.73 151.52 70.04 148.18 67.03 C 151.22 67.42 154.29 67.18 157.32 66.89 C 158.61 73.00 156.91 79.16 156.63 85.28 C 156.28 91.78 155.14 98.20 153.96 104.59 C 153.68 105.88 153.38 107.17 153.06 108.46 C 150.34 108.24 147.66 107.72 145.03 107.02 C 146.77 102.57 146.91 97.73 146.40 93.04 C 147.26 92.65 148.13 92.30 149.01 91.95 C 148.85 90.04 148.67 88.13 148.49 86.23 C 145.34 86.29 142.18 86.42 139.10 87.12 C 141.03 85.69 143.05 84.28 144.58 82.40 C 145.65 80.24 144.65 77.58 142.69 76.31 C 138.44 73.23 134.02 70.08 128.88 68.72 C 129.89 68.43 130.91 68.15 131.93 67.88 Z" />
</g>
<g id="#2b262bff">
<path fill="#2b262b" opacity="1.00" d=" M 4.33 71.82 C 4.76 70.22 5.24 68.62 5.84 67.08 C 5.78 69.14 5.40 71.45 6.69 73.24 C 9.08 77.00 13.79 77.91 17.67 79.39 C 22.10 81.04 26.88 80.81 31.51 80.50 C 32.48 83.48 32.87 86.60 32.44 89.71 C 31.97 89.79 31.04 89.94 30.57 90.02 C 29.97 90.10 28.77 90.25 28.16 90.33 C 27.50 90.35 26.17 90.40 25.50 90.42 C 25.96 88.97 26.30 87.49 26.77 86.04 C 19.41 83.04 11.30 84.67 3.79 82.49 C 3.90 78.93 3.96 75.36 4.33 71.82 Z" />
</g>
<g id="#e1e35dff">
<path fill="#e1e35d" opacity="1.00" d=" M 125.65 69.80 C 126.71 69.39 127.78 69.03 128.88 68.72 C 134.02 70.08 138.44 73.23 142.69 76.31 C 144.65 77.58 145.65 80.24 144.58 82.40 C 143.05 84.28 141.03 85.69 139.10 87.12 C 138.76 87.36 138.07 87.83 137.72 88.07 C 136.54 88.15 135.37 88.25 134.19 88.40 C 137.44 84.86 137.07 80.00 136.54 75.59 C 133.64 74.10 130.73 72.65 127.77 71.30 C 128.45 75.50 129.86 79.59 130.04 83.86 C 129.21 85.92 127.57 87.50 126.21 89.22 C 126.92 89.24 128.33 89.29 129.04 89.31 C 127.76 89.59 126.50 89.91 125.21 90.13 C 123.85 90.01 122.50 89.87 121.16 89.71 C 121.28 87.30 121.70 84.86 121.27 82.46 C 120.52 80.01 118.92 77.94 117.61 75.77 C 118.21 75.60 119.40 75.27 120.00 75.10 C 121.80 74.94 123.61 74.81 125.41 74.69 C 125.52 73.06 125.54 71.43 125.65 69.80 Z" />
</g>
<g id="#e2dec7ff">
<path fill="#e2dec7" opacity="1.00" d=" M 31.26 73.12 C 33.69 72.43 36.05 71.53 38.42 70.66 C 38.19 70.89 37.73 71.34 37.50 71.57 C 36.11 72.64 34.69 73.68 33.37 74.83 C 32.93 75.69 32.54 76.58 32.17 77.47 C 31.77 76.04 31.55 74.57 31.26 73.12 Z" />
<path fill="#e2dec7" opacity="1.00" d=" M 0.00 80.46 L 0.24 79.45 C 1.45 80.43 2.60 81.47 3.79 82.49 C 3.92 83.22 4.17 84.70 4.30 85.44 C 2.87 85.29 1.43 85.21 0.00 85.10 L 0.00 80.46 Z" />
</g>
<g id="#b8b536ff">
<path fill="#b8b536" opacity="1.00" d=" M 117.43 74.29 C 120.15 72.77 122.81 71.12 125.65 69.80 C 125.54 71.43 125.52 73.06 125.41 74.69 C 123.61 74.81 121.80 74.94 120.00 75.10 C 119.17 75.00 117.49 74.80 116.66 74.70 L 117.43 74.29 Z" />
</g>
<g id="#ecee82ff">
<path fill="#ecee82" opacity="1.00" d=" M 127.77 71.30 C 130.73 72.65 133.64 74.10 136.54 75.59 C 137.07 80.00 137.44 84.86 134.19 88.40 C 132.46 88.63 130.75 88.97 129.04 89.31 C 128.33 89.29 126.92 89.24 126.21 89.22 C 127.57 87.50 129.21 85.92 130.04 83.86 C 129.86 79.59 128.45 75.50 127.77 71.30 Z" />
</g>
<g id="#595f79f8">
<path fill="#595f79" opacity="0.97" d=" M 1.59 72.43 C 2.27 72.27 3.64 71.97 4.33 71.82 C 3.96 75.36 3.90 78.93 3.79 82.49 C 2.60 81.47 1.45 80.43 0.24 79.45 C 0.40 78.81 0.71 77.54 0.87 76.90 C 2.34 76.67 2.90 74.16 1.02 74.19 C 1.16 73.75 1.45 72.87 1.59 72.43 Z" />
</g>
<g id="#a8a5a3ef">
<path fill="#a8a5a3" opacity="0.94" d=" M 1.02 74.19 C 2.90 74.16 2.34 76.67 0.87 76.90 C 0.91 76.22 0.98 74.87 1.02 74.19 Z" />
</g>
<g id="#cfd157ff">
<path fill="#cfd157" opacity="1.00" d=" M 105.89 76.71 C 109.45 75.92 113.07 75.38 116.66 74.70 C 117.49 74.80 119.17 75.00 120.00 75.10 C 119.40 75.27 118.21 75.60 117.61 75.77 C 115.82 76.13 114.01 76.33 112.20 76.54 C 111.54 81.04 112.86 85.44 113.12 89.91 C 111.39 90.08 109.67 90.17 107.95 90.28 C 105.11 87.18 102.93 83.51 102.08 79.35 C 103.33 78.45 104.60 77.57 105.89 76.71 Z" />
</g>
<g id="#f0ee8fff">
<path fill="#f0ee8f" opacity="1.00" d=" M 112.20 76.54 C 114.01 76.33 115.82 76.13 117.61 75.77 C 118.92 77.94 120.52 80.01 121.27 82.46 C 121.70 84.86 121.28 87.30 121.16 89.71 C 122.50 89.87 123.85 90.01 125.21 90.13 C 121.24 90.90 117.18 90.58 113.17 90.70 L 113.12 89.91 C 112.86 85.44 111.54 81.04 112.20 76.54 Z" />
</g>
<g id="#b0b341ff">
<path fill="#b0b341" opacity="1.00" d=" M 99.78 77.86 C 101.81 77.45 103.85 77.10 105.89 76.71 C 104.60 77.57 103.33 78.45 102.08 79.35 C 102.93 83.51 105.11 87.18 107.95 90.28 C 103.28 90.48 100.09 86.67 97.85 83.08 C 96.25 81.22 98.91 79.42 99.78 77.86 Z" />
</g>
<g id="#979937ff">
<path fill="#979937" opacity="1.00" d=" M 90.57 82.92 C 93.35 80.76 96.39 78.90 99.78 77.86 C 98.91 79.42 96.25 81.22 97.85 83.08 C 100.09 86.67 103.28 90.48 107.95 90.28 C 109.67 90.17 111.39 90.08 113.12 89.91 L 113.17 90.70 C 111.16 90.84 109.16 91.08 107.16 91.31 C 100.47 91.69 94.96 87.45 90.57 82.92 Z" />
</g>
<g id="#6a563dff">
<path fill="#6a563d" opacity="1.00" d=" M 3.79 82.49 C 11.30 84.67 19.41 83.04 26.77 86.04 C 26.30 87.49 25.96 88.97 25.50 90.42 C 26.17 90.40 27.50 90.35 28.16 90.33 C 26.50 90.54 24.83 90.74 23.16 90.94 C 22.89 89.38 22.61 87.82 22.40 86.26 C 21.36 85.86 20.33 85.45 19.29 85.06 C 19.72 86.42 20.14 87.78 20.57 89.15 C 18.06 88.59 15.56 87.98 13.07 87.37 C 10.17 86.61 7.28 85.81 4.30 85.44 C 4.17 84.70 3.92 83.22 3.79 82.49 Z" />
</g>
<g id="#b9ad42ff">
<path fill="#b9ad42" opacity="1.00" d=" M 0.00 85.10 C 1.43 85.21 2.87 85.29 4.30 85.44 C 7.28 85.81 10.17 86.61 13.07 87.37 C 10.30 87.54 7.55 87.95 4.87 88.69 C 1.21 89.24 1.79 93.33 2.22 96.00 C 5.92 95.80 9.07 93.81 12.45 92.55 C 16.61 91.04 20.76 93.27 24.59 94.69 C 24.87 96.82 26.05 99.43 24.30 101.24 C 22.62 103.17 20.65 105.48 17.89 105.59 C 14.00 105.77 10.08 105.72 6.20 105.36 C 4.01 105.19 2.58 103.32 0.98 102.04 C 0.65 99.48 0.33 96.92 0.00 94.36 L 0.00 85.10 Z" />
</g>
<g id="#898543ff">
<path fill="#898543" opacity="1.00" d=" M 19.29 85.06 C 20.33 85.45 21.36 85.86 22.40 86.26 C 22.61 87.82 22.89 89.38 23.16 90.94 L 23.37 91.68 C 20.01 90.96 16.46 89.98 13.05 90.98 C 9.89 91.87 6.86 93.18 3.68 94.02 C 4.07 91.10 6.46 89.76 8.95 88.78 C 7.59 88.73 6.23 88.70 4.87 88.69 C 7.55 87.95 10.30 87.54 13.07 87.37 C 15.56 87.98 18.06 88.59 20.57 89.15 C 20.14 87.78 19.72 86.42 19.29 85.06 Z" />
</g>
<g id="#a19b3bff">
<path fill="#a19b3b" opacity="1.00" d=" M 49.62 85.53 C 53.35 84.46 56.74 86.93 59.44 89.20 C 61.81 92.97 64.32 98.66 60.28 102.25 C 56.95 103.24 53.44 103.34 50.01 103.79 C 49.92 101.54 49.82 99.29 49.63 97.06 C 49.02 95.03 47.78 93.03 45.65 92.37 C 42.43 91.50 39.06 92.23 35.81 92.58 C 40.54 90.47 44.61 86.97 49.62 85.53 Z" />
</g>
<g id="#b9b520ff">
<path fill="#b9b520" opacity="1.00" d=" M 139.10 87.12 C 142.18 86.42 145.34 86.29 148.49 86.23 C 148.67 88.13 148.85 90.04 149.01 91.95 C 148.13 92.30 147.26 92.65 146.40 93.04 C 146.08 93.50 145.45 94.42 145.13 94.88 C 143.82 96.65 142.36 98.31 141.05 100.08 C 142.36 96.37 144.14 92.87 145.66 89.24 C 143.11 88.37 140.41 88.07 137.72 88.07 C 138.07 87.83 138.76 87.36 139.10 87.12 Z" />
</g>
<g id="#5e4e30ff">
<path fill="#5e4e30" opacity="1.00" d=" M 129.04 89.31 C 130.75 88.97 132.46 88.63 134.19 88.40 C 135.37 88.25 136.54 88.15 137.72 88.07 C 140.41 88.07 143.11 88.37 145.66 89.24 C 142.46 89.72 139.30 90.59 136.68 92.57 C 134.70 94.20 132.08 93.63 129.73 93.59 C 129.29 94.61 128.85 95.63 128.42 96.66 C 125.63 96.91 122.84 96.56 120.39 95.14 C 118.99 95.88 117.61 96.65 116.19 97.37 C 116.48 95.91 116.76 94.46 117.04 93.00 C 114.71 93.46 112.43 94.21 110.48 95.61 C 110.18 95.47 109.88 95.34 109.58 95.20 C 106.88 95.89 104.10 96.03 101.34 95.73 C 100.36 96.72 99.22 97.52 98.26 98.52 C 96.64 97.83 94.96 96.27 93.09 97.00 C 91.55 97.63 90.22 98.66 88.86 99.59 C 89.85 101.18 90.86 102.77 91.82 104.38 C 90.47 104.01 89.10 103.69 87.82 103.11 C 87.07 101.85 86.54 100.47 85.97 99.12 C 91.35 93.15 99.82 92.89 107.16 91.31 C 109.16 91.08 111.16 90.84 113.17 90.70 C 117.18 90.58 121.24 90.90 125.21 90.13 C 126.50 89.91 127.76 89.59 129.04 89.31 Z" />
</g>
<g id="#484127ff">
<path fill="#484127" opacity="1.00" d=" M 2.22 96.00 C 1.79 93.33 1.21 89.24 4.87 88.69 C 6.23 88.70 7.59 88.73 8.95 88.78 C 6.46 89.76 4.07 91.10 3.68 94.02 C 6.86 93.18 9.89 91.87 13.05 90.98 C 16.46 89.98 20.01 90.96 23.37 91.68 C 23.57 92.01 23.98 92.65 24.18 92.98 C 24.28 93.41 24.49 94.26 24.59 94.69 C 20.76 93.27 16.61 91.04 12.45 92.55 C 9.07 93.81 5.92 95.80 2.22 96.00 Z" />
<path fill="#484127" opacity="1.00" d=" M 13.68 113.32 C 15.89 112.38 18.09 113.43 20.28 113.84 C 23.04 114.18 25.90 113.38 28.59 114.37 C 31.97 115.30 35.26 117.16 38.86 116.86 C 41.70 116.14 44.13 114.43 46.63 112.99 C 46.59 114.06 46.56 115.14 46.54 116.22 C 46.09 116.65 45.21 117.50 44.77 117.93 C 41.41 118.76 38.03 119.52 34.64 120.25 C 35.00 121.20 35.35 122.15 35.71 123.10 C 34.60 124.66 33.49 126.21 32.37 127.77 C 33.60 128.08 34.83 128.41 36.06 128.74 C 32.65 128.72 29.37 129.72 26.21 130.89 C 25.65 129.42 25.05 127.96 24.36 126.55 C 23.52 125.44 22.66 124.35 21.76 123.29 C 18.02 128.44 21.73 135.88 16.75 140.43 C 12.63 134.93 9.38 128.82 6.71 122.50 C 10.80 122.47 15.76 122.58 18.05 118.48 C 16.55 116.79 15.09 115.08 13.68 113.32 Z" />
</g>
<g id="#bcb142ff">
<path fill="#bcb142" opacity="1.00" d=" M 28.16 90.33 C 28.77 90.25 29.97 90.10 30.57 90.02 C 30.94 92.35 30.72 95.59 33.51 96.46 C 36.47 96.07 39.00 94.13 41.98 93.77 C 44.81 94.04 47.18 95.78 49.63 97.06 C 49.82 99.29 49.92 101.54 50.01 103.79 C 50.02 104.59 50.05 106.18 50.06 106.98 C 49.85 107.33 49.44 108.04 49.23 108.39 C 42.64 107.64 36.09 106.08 29.75 104.30 C 27.47 100.76 26.90 96.32 24.18 92.98 C 23.98 92.65 23.57 92.01 23.37 91.68 L 23.16 90.94 C 24.83 90.74 26.50 90.54 28.16 90.33 Z" />
</g>
<g id="#2c1924ff">
<path fill="#2c1924" opacity="1.00" d=" M 136.68 92.57 C 139.30 90.59 142.46 89.72 145.66 89.24 C 144.14 92.87 142.36 96.37 141.05 100.08 C 139.52 102.31 138.18 105.09 135.41 105.96 C 132.94 106.83 130.55 107.93 128.03 108.64 C 124.62 109.18 121.15 109.12 117.72 109.48 C 116.62 109.55 115.53 109.62 114.43 109.70 C 112.19 109.79 109.95 109.90 107.71 109.94 L 106.86 109.61 C 102.64 107.97 98.55 105.91 94.10 104.93 C 93.53 104.79 92.39 104.51 91.82 104.38 C 90.86 102.77 89.85 101.18 88.86 99.59 C 90.22 98.66 91.55 97.63 93.09 97.00 C 94.96 96.27 96.64 97.83 98.26 98.52 C 99.22 97.52 100.36 96.72 101.34 95.73 C 104.10 96.03 106.88 95.89 109.58 95.20 C 109.88 95.34 110.18 95.47 110.48 95.61 C 112.28 96.50 114.20 97.12 116.19 97.37 C 117.61 96.65 118.99 95.88 120.39 95.14 C 122.84 96.56 125.63 96.91 128.42 96.66 C 128.85 95.63 129.29 94.61 129.73 93.59 C 132.08 93.63 134.70 94.20 136.68 92.57 Z" />
</g>
<g id="#a09335ff">
<path fill="#a09335" opacity="1.00" d=" M 24.18 92.98 C 26.90 96.32 27.47 100.76 29.75 104.30 C 36.09 106.08 42.64 107.64 49.23 108.39 C 45.44 112.16 39.67 111.63 34.96 110.28 C 31.34 109.35 29.19 106.05 26.84 103.42 C 23.44 105.63 20.02 108.17 15.90 108.79 C 11.21 109.68 6.43 108.82 1.95 107.35 C 1.59 105.59 1.26 103.82 0.98 102.04 C 2.58 103.32 4.01 105.19 6.20 105.36 C 10.08 105.72 14.00 105.77 17.89 105.59 C 20.65 105.48 22.62 103.17 24.30 101.24 C 26.05 99.43 24.87 96.82 24.59 94.69 C 24.49 94.26 24.28 93.41 24.18 92.98 Z" />
</g>
<g id="#7e6f5bff">
<path fill="#7e6f5b" opacity="1.00" d=" M 110.48 95.61 C 112.43 94.21 114.71 93.46 117.04 93.00 C 116.76 94.46 116.48 95.91 116.19 97.37 C 114.20 97.12 112.28 96.50 110.48 95.61 Z" />
</g>
<g id="#d6c76dff">
<path fill="#d6c76d" opacity="1.00" d=" M 146.40 93.04 C 146.91 97.73 146.77 102.57 145.03 107.02 C 144.81 107.30 144.37 107.87 144.15 108.16 C 143.40 107.12 142.66 106.08 141.92 105.04 C 143.71 101.92 144.49 98.38 145.13 94.88 C 145.45 94.42 146.08 93.50 146.40 93.04 Z" />
</g>
<g id="#bfac73ff">
<path fill="#bfac73" opacity="1.00" d=" M 141.05 100.08 C 142.36 98.31 143.82 96.65 145.13 94.88 C 144.49 98.38 143.71 101.92 141.92 105.04 C 134.91 111.31 125.04 112.87 115.95 112.36 C 113.04 112.24 110.33 111.11 107.71 109.94 C 109.95 109.90 112.19 109.79 114.43 109.70 C 114.04 109.99 113.27 110.57 112.89 110.86 C 115.72 110.95 118.55 110.89 121.38 110.72 C 120.17 110.28 118.95 109.87 117.72 109.48 C 121.15 109.12 124.62 109.18 128.03 108.64 C 130.55 107.93 132.94 106.83 135.41 105.96 C 138.18 105.09 139.52 102.31 141.05 100.08 Z" />
</g>
<g id="#5f5824ff">
<path fill="#5f5824" opacity="1.00" d=" M 15.90 108.79 C 20.02 108.17 23.44 105.63 26.84 103.42 C 29.19 106.05 31.34 109.35 34.96 110.28 C 39.67 111.63 45.44 112.16 49.23 108.39 C 49.44 108.04 49.85 107.33 50.06 106.98 C 53.51 106.98 57.04 106.59 60.12 104.90 C 63.84 109.91 66.68 115.52 70.64 120.35 C 73.50 123.84 76.35 127.34 78.86 131.09 C 68.89 128.08 61.16 120.22 56.69 111.00 C 53.24 111.98 49.79 113.26 47.10 115.71 L 46.54 116.22 C 46.56 115.14 46.59 114.06 46.63 112.99 C 44.13 114.43 41.70 116.14 38.86 116.86 C 35.26 117.16 31.97 115.30 28.59 114.37 C 25.90 113.38 23.04 114.18 20.28 113.84 C 18.09 113.43 15.89 112.38 13.68 113.32 C 15.09 115.08 16.55 116.79 18.05 118.48 C 15.76 122.58 10.80 122.47 6.71 122.50 C 4.69 117.60 3.10 112.53 1.95 107.35 C 6.43 108.82 11.21 109.68 15.90 108.79 Z" />
</g>
<g id="#6a6b29ff">
<path fill="#6a6b29" opacity="1.00" d=" M 60.12 104.90 C 60.62 104.66 61.61 104.18 62.10 103.93 C 66.30 110.37 70.62 116.72 74.87 123.12 C 78.13 128.13 83.06 131.64 87.44 135.58 C 91.28 139.14 96.54 140.34 100.92 143.05 C 104.18 145.02 107.99 145.59 111.63 146.47 L 111.53 147.24 C 106.67 147.13 102.01 145.57 97.19 145.20 C 93.81 145.11 92.27 148.57 90.58 150.90 C 85.89 149.28 80.51 149.75 76.33 146.75 C 71.82 143.69 66.50 141.22 63.76 136.24 C 61.28 131.75 56.74 129.00 53.88 124.81 C 51.71 121.71 49.50 118.63 47.10 115.71 C 49.79 113.26 53.24 111.98 56.69 111.00 C 61.16 120.22 68.89 128.08 78.86 131.09 C 76.35 127.34 73.50 123.84 70.64 120.35 C 66.68 115.52 63.84 109.91 60.12 104.90 Z" />
</g>
<g id="#c6b460ff">
<path fill="#c6b460" opacity="1.00" d=" M 90.87 105.39 C 91.68 105.27 93.29 105.04 94.10 104.93 C 98.55 105.91 102.64 107.97 106.86 109.61 C 106.20 110.61 105.56 111.62 104.91 112.62 C 113.04 115.37 121.66 116.84 130.26 116.19 C 126.12 116.83 121.95 117.31 117.76 117.28 C 116.64 117.24 115.53 117.20 114.42 117.15 C 106.37 113.92 96.30 112.90 90.87 105.39 Z" />
</g>
<g id="#e1d2a9ff">
<path fill="#e1d2a9" opacity="1.00" d=" M 115.95 112.36 C 125.04 112.87 134.91 111.31 141.92 105.04 C 142.66 106.08 143.40 107.12 144.15 108.16 C 142.32 110.26 140.27 112.17 138.00 113.79 C 136.25 114.48 134.51 115.17 132.72 115.74 C 132.10 115.85 130.87 116.08 130.26 116.19 C 121.66 116.84 113.04 115.37 104.91 112.62 C 105.56 111.62 106.20 110.61 106.86 109.61 L 107.71 109.94 C 110.33 111.11 113.04 112.24 115.95 112.36 Z" />
</g>
<g id="#826f51ff">
<path fill="#826f51" opacity="1.00" d=" M 153.96 104.59 C 154.66 105.32 155.35 106.07 156.05 106.82 C 155.26 113.21 159.00 118.86 160.52 124.86 C 161.11 123.31 161.73 121.76 162.31 120.21 C 161.43 125.05 162.73 129.88 164.68 134.28 C 164.04 135.33 163.39 136.36 162.72 137.39 C 161.61 135.51 160.67 133.51 159.42 131.71 C 157.94 131.66 156.47 131.94 155.00 132.11 C 156.33 133.47 157.80 134.73 158.82 136.35 C 158.90 137.75 158.77 139.15 158.70 140.55 C 156.67 140.22 154.65 139.86 152.63 139.51 C 154.23 140.83 155.81 142.19 157.37 143.57 C 156.07 143.57 154.77 143.57 153.48 143.42 C 151.37 142.04 150.05 139.81 148.30 138.05 C 148.93 137.92 150.19 137.64 150.83 137.51 C 150.77 136.12 150.75 134.74 150.71 133.36 C 151.81 133.91 152.91 134.46 154.01 135.01 C 153.66 132.72 153.33 130.42 153.00 128.13 C 152.28 129.01 151.56 129.90 150.83 130.78 C 150.50 127.05 152.05 122.77 149.48 119.56 C 150.87 115.93 152.06 112.22 153.06 108.46 C 153.38 107.17 153.68 105.88 153.96 104.59 Z" />
</g>
<g id="#ced431ff">
<path fill="#ced431" opacity="1.00" d=" M 145.03 107.02 C 147.66 107.72 150.34 108.24 153.06 108.46 C 152.06 112.22 150.87 115.93 149.48 119.56 C 147.26 124.12 144.89 128.62 142.25 132.95 C 141.05 134.87 139.77 136.73 138.27 138.43 C 134.44 138.89 130.56 138.66 126.79 137.86 C 128.35 132.52 133.87 130.73 138.18 128.20 C 142.47 125.74 146.35 121.33 146.31 116.16 C 145.06 112.77 140.79 113.85 138.00 113.79 C 140.27 112.17 142.32 110.26 144.15 108.16 C 144.37 107.87 144.81 107.30 145.03 107.02 Z" />
</g>
<g id="#59473bff">
<path fill="#59473b" opacity="1.00" d=" M 156.05 106.82 C 159.78 110.08 160.92 114.96 162.59 119.40 L 162.31 120.21 C 161.73 121.76 161.11 123.31 160.52 124.86 C 159.00 118.86 155.26 113.21 156.05 106.82 Z" />
</g>
<g id="#e9dfbcff">
<path fill="#e9dfbc" opacity="1.00" d=" M 112.89 110.86 C 113.27 110.57 114.04 109.99 114.43 109.70 C 115.53 109.62 116.62 109.55 117.72 109.48 C 118.95 109.87 120.17 110.28 121.38 110.72 C 118.55 110.89 115.72 110.95 112.89 110.86 Z" />
</g>
<g id="#b7bb21ff">
<path fill="#b7bb21" opacity="1.00" d=" M 132.72 115.74 C 134.51 115.17 136.25 114.48 138.00 113.79 C 140.79 113.85 145.06 112.77 146.31 116.16 C 146.35 121.33 142.47 125.74 138.18 128.20 C 133.87 130.73 128.35 132.52 126.79 137.86 C 130.56 138.66 134.44 138.89 138.27 138.43 C 137.30 139.33 136.30 140.20 135.34 141.11 C 127.38 139.49 118.94 143.87 111.38 140.15 C 115.07 135.88 120.83 135.00 125.69 132.68 C 128.66 131.28 131.58 129.77 134.54 128.33 C 137.19 127.03 139.47 125.11 141.53 123.01 C 138.79 120.36 135.83 117.94 132.72 115.74 Z" />
</g>
<g id="#6a6264ff">
<path fill="#6a6264" opacity="1.00" d=" M 46.54 116.22 L 47.10 115.71 C 49.50 118.63 51.71 121.71 53.88 124.81 C 56.74 129.00 61.28 131.75 63.76 136.24 C 66.50 141.22 71.82 143.69 76.33 146.75 C 80.51 149.75 85.89 149.28 90.58 150.90 C 92.53 151.52 94.44 152.22 96.40 152.77 C 96.21 154.60 96.01 156.42 95.79 158.25 C 97.33 159.12 98.88 159.99 100.43 160.87 C 95.82 163.73 90.11 163.42 84.89 163.46 C 80.70 163.61 76.88 161.85 73.21 160.08 C 72.59 157.46 72.13 154.67 70.46 152.48 C 64.71 145.27 56.14 140.58 51.56 132.39 C 48.74 127.85 46.62 122.93 44.77 117.93 C 45.21 117.50 46.09 116.65 46.54 116.22 Z" />
</g>
<g id="#979b1dff">
<path fill="#979b1d" opacity="1.00" d=" M 130.26 116.19 C 130.87 116.08 132.10 115.85 132.72 115.74 C 135.83 117.94 138.79 120.36 141.53 123.01 C 139.47 125.11 137.19 127.03 134.54 128.33 C 134.58 125.85 135.50 122.65 133.09 120.93 C 128.83 117.42 122.94 117.75 117.76 117.28 C 121.95 117.31 126.12 116.83 130.26 116.19 Z" />
</g>
<g id="#797820ff">
<path fill="#797820" opacity="1.00" d=" M 114.42 117.15 C 115.53 117.20 116.64 117.24 117.76 117.28 C 122.94 117.75 128.83 117.42 133.09 120.93 C 135.50 122.65 134.58 125.85 134.54 128.33 C 131.58 129.77 128.66 131.28 125.69 132.68 C 120.83 135.00 115.07 135.88 111.38 140.15 C 118.94 143.87 127.38 139.49 135.34 141.11 C 133.53 142.85 131.78 145.11 129.01 145.07 C 128.64 145.11 127.89 145.20 127.52 145.25 C 124.41 145.51 121.31 145.71 118.19 145.76 C 112.94 144.68 107.34 144.13 102.65 141.37 C 99.57 140.00 101.29 135.86 103.59 134.60 C 107.20 132.61 111.27 131.51 114.62 129.03 C 111.84 127.28 108.58 126.47 105.81 124.73 C 105.21 123.11 105.16 121.36 104.98 119.67 C 108.16 118.97 111.29 118.06 114.42 117.15 Z" />
</g>
<g id="#2f262bff">
<path fill="#2f262b" opacity="1.00" d=" M 34.64 120.25 C 38.03 119.52 41.41 118.76 44.77 117.93 C 46.62 122.93 48.74 127.85 51.56 132.39 C 56.14 140.58 64.71 145.27 70.46 152.48 C 72.13 154.67 72.59 157.46 73.21 160.08 C 69.80 158.68 65.59 157.70 64.52 153.64 C 62.02 156.28 59.55 158.95 57.18 161.70 C 61.73 162.59 66.30 163.39 70.85 164.30 C 68.78 167.51 66.82 170.79 64.91 174.09 C 54.12 170.98 43.83 165.95 34.87 159.18 C 35.56 157.56 36.26 155.94 36.95 154.32 C 38.88 155.12 40.74 156.06 42.62 156.97 C 42.28 155.71 41.94 154.45 41.60 153.20 C 45.14 151.28 50.20 148.65 48.51 143.75 C 48.21 142.45 47.88 141.16 47.50 139.89 C 46.37 134.16 41.84 129.67 36.06 128.74 C 34.83 128.41 33.60 128.08 32.37 127.77 C 33.49 126.21 34.60 124.66 35.71 123.10 C 35.35 122.15 35.00 121.20 34.64 120.25 Z" />
</g>
<g id="#6f5e45ff">
<path fill="#6f5e45" opacity="1.00" d=" M 149.48 119.56 C 152.05 122.77 150.50 127.05 150.83 130.78 C 151.56 129.90 152.28 129.01 153.00 128.13 C 153.33 130.42 153.66 132.72 154.01 135.01 C 152.91 134.46 151.81 133.91 150.71 133.36 C 150.75 134.74 150.77 136.12 150.83 137.51 C 150.19 137.64 148.93 137.92 148.30 138.05 C 146.32 136.31 144.25 134.67 142.25 132.95 C 144.89 128.62 147.26 124.12 149.48 119.56 Z" />
</g>
<g id="#f3efd8ff">
<path fill="#f3efd8" opacity="1.00" d=" M 162.31 120.21 L 162.59 119.40 C 164.70 121.66 167.01 123.73 169.09 126.02 C 167.74 128.84 166.30 131.61 164.68 134.28 C 162.73 129.88 161.43 125.05 162.31 120.21 Z" />
<path fill="#f3efd8" opacity="1.00" d=" M 109.56 166.85 C 110.14 167.65 111.44 168.64 110.69 169.73 C 109.42 170.66 107.84 169.02 108.12 167.70 C 108.48 167.49 109.20 167.06 109.56 166.85 Z" />
</g>
<g id="#69652bfb">
<path fill="#69652b" opacity="1.00" d=" M 16.75 140.43 C 21.73 135.88 18.02 128.44 21.76 123.29 C 22.66 124.35 23.52 125.44 24.36 126.55 C 23.20 126.42 22.04 126.30 20.88 126.17 C 20.80 128.36 20.74 130.55 20.68 132.74 C 21.82 132.26 22.96 131.77 24.10 131.29 C 21.26 135.39 20.31 140.34 20.47 145.26 C 19.18 143.69 17.95 142.07 16.75 140.43 Z" />
</g>
<g id="#9e9739ff">
<path fill="#9e9739" opacity="1.00" d=" M 20.88 126.17 C 22.04 126.30 23.20 126.42 24.36 126.55 C 25.05 127.96 25.65 129.42 26.21 130.89 C 26.02 132.31 25.79 133.74 25.85 135.17 C 28.36 137.78 31.56 139.62 34.04 142.27 C 38.63 142.26 43.15 141.31 47.50 139.89 C 47.88 141.16 48.21 142.45 48.51 143.75 C 41.63 146.93 35.62 152.12 27.90 153.21 C 25.26 150.71 22.81 148.03 20.47 145.26 C 20.31 140.34 21.26 135.39 24.10 131.29 C 22.96 131.77 21.82 132.26 20.68 132.74 C 20.74 130.55 20.80 128.36 20.88 126.17 Z" />
</g>
<g id="#aeaa41ff">
<path fill="#aeaa41" opacity="1.00" d=" M 26.21 130.89 C 29.37 129.72 32.65 128.72 36.06 128.74 C 41.84 129.67 46.37 134.16 47.50 139.89 C 43.15 141.31 38.63 142.26 34.04 142.27 C 31.56 139.62 28.36 137.78 25.85 135.17 C 25.79 133.74 26.02 132.31 26.21 130.89 Z" />
</g>
<g id="#574738ff">
<path fill="#574738" opacity="1.00" d=" M 155.00 132.11 C 156.47 131.94 157.94 131.66 159.42 131.71 C 160.67 133.51 161.61 135.51 162.72 137.39 C 158.50 143.95 153.26 149.80 147.43 154.96 C 145.09 154.24 142.73 153.60 140.35 153.00 C 141.13 154.94 141.97 156.86 142.88 158.75 C 130.07 168.70 114.49 175.08 98.35 176.78 C 98.32 174.03 98.48 171.29 98.78 168.56 C 101.90 169.28 105.09 168.50 108.12 167.70 C 107.84 169.02 109.42 170.66 110.69 169.73 C 111.44 168.64 110.14 167.65 109.56 166.85 L 109.12 166.20 C 110.38 166.62 111.64 167.05 112.90 167.49 C 113.76 166.79 114.63 166.09 115.50 165.40 C 115.93 167.18 116.64 168.87 117.76 170.33 C 118.07 166.85 117.54 163.38 116.59 160.04 C 116.20 161.30 115.81 162.55 115.44 163.81 C 114.43 163.13 113.42 162.44 112.42 161.76 C 113.47 160.38 114.12 158.44 115.96 157.92 C 119.11 156.81 121.94 155.00 124.20 152.54 C 124.93 153.23 125.68 153.91 126.41 154.60 C 126.80 153.19 127.21 151.78 127.61 150.37 C 128.81 150.74 130.02 151.12 131.23 151.50 C 130.60 149.32 129.93 147.14 129.01 145.07 C 131.78 145.11 133.53 142.85 135.34 141.11 C 136.30 140.20 137.30 139.33 138.27 138.43 C 139.77 136.73 141.05 134.87 142.25 132.95 C 144.25 134.67 146.32 136.31 148.30 138.05 C 150.05 139.81 151.37 142.04 153.48 143.42 C 154.77 143.57 156.07 143.57 157.37 143.57 C 155.81 142.19 154.23 140.83 152.63 139.51 C 154.65 139.86 156.67 140.22 158.70 140.55 C 158.77 139.15 158.90 137.75 158.82 136.35 C 157.80 134.73 156.33 133.47 155.00 132.11 M 142.93 139.52 C 145.52 143.42 142.67 147.81 144.19 151.91 C 146.34 151.44 148.48 150.94 150.61 150.41 C 150.13 147.32 149.92 144.12 148.74 141.20 C 147.88 138.75 144.87 139.80 142.93 139.52 Z" />
</g>
<g id="#7f6c4eff">
<path fill="#7f6c4e" opacity="1.00" d=" M 142.93 139.52 C 144.87 139.80 147.88 138.75 148.74 141.20 C 149.92 144.12 150.13 147.32 150.61 150.41 C 148.48 150.94 146.34 151.44 144.19 151.91 C 142.67 147.81 145.52 143.42 142.93 139.52 Z" />
</g>
<g id="#897d32ff">
<path fill="#897d32" opacity="1.00" d=" M 48.51 143.75 C 50.20 148.65 45.14 151.28 41.60 153.20 C 41.94 154.45 42.28 155.71 42.62 156.97 C 40.74 156.06 38.88 155.12 36.95 154.32 C 34.64 154.49 32.34 154.83 30.05 155.16 C 29.32 154.52 28.61 153.86 27.90 153.21 C 35.62 152.12 41.63 146.93 48.51 143.75 Z" />
</g>
<g id="#5a5827ff">
<path fill="#5a5827" opacity="1.00" d=" M 90.58 150.90 C 92.27 148.57 93.81 145.11 97.19 145.20 C 102.01 145.57 106.67 147.13 111.53 147.24 C 111.41 148.12 111.28 149.00 111.12 149.88 C 106.51 151.92 101.44 152.90 96.40 152.77 C 94.44 152.22 92.53 151.52 90.58 150.90 Z" />
</g>
<g id="#c1b895ff">
<path fill="#c1b895" opacity="1.00" d=" M 118.19 145.76 C 121.31 145.71 124.41 145.51 127.52 145.25 C 123.59 150.38 117.65 153.13 111.72 155.26 C 112.39 152.44 113.47 149.70 115.06 147.28 C 116.07 146.70 117.11 146.19 118.19 145.76 Z" />
</g>
<g id="#746344ff">
<path fill="#746344" opacity="1.00" d=" M 127.52 145.25 C 127.89 145.20 128.64 145.11 129.01 145.07 C 129.93 147.14 130.60 149.32 131.23 151.50 C 130.02 151.12 128.81 150.74 127.61 150.37 C 127.21 151.78 126.80 153.19 126.41 154.60 C 125.68 153.91 124.93 153.23 124.20 152.54 C 121.94 155.00 119.11 156.81 115.96 157.92 C 114.12 158.44 113.47 160.38 112.42 161.76 C 111.75 162.58 111.02 163.36 110.30 164.14 C 110.57 161.66 110.93 159.18 111.40 156.73 C 111.48 156.36 111.64 155.63 111.72 155.26 C 117.65 153.13 123.59 150.38 127.52 145.25 Z" />
</g>
<g id="#5f5551ff">
<path fill="#5f5551" opacity="1.00" d=" M 111.12 149.88 C 112.44 149.02 113.75 148.15 115.06 147.28 C 113.47 149.70 112.39 152.44 111.72 155.26 C 111.64 155.63 111.48 156.36 111.40 156.73 C 107.40 155.58 104.04 158.27 101.01 160.46 L 100.43 160.87 C 98.88 159.99 97.33 159.12 95.79 158.25 C 96.01 156.42 96.21 154.60 96.40 152.77 C 101.44 152.90 106.51 151.92 111.12 149.88 Z" />
</g>
<g id="#1b181dff">
<path fill="#1b181d" opacity="1.00" d=" M 57.18 161.70 C 59.55 158.95 62.02 156.28 64.52 153.64 C 65.59 157.70 69.80 158.68 73.21 160.08 C 76.88 161.85 80.70 163.61 84.89 163.46 C 90.11 163.42 95.82 163.73 100.43 160.87 L 101.01 160.46 C 102.85 160.84 104.71 161.11 106.55 161.50 C 107.39 163.07 108.19 164.67 109.12 166.20 L 109.56 166.85 C 109.20 167.06 108.48 167.49 108.12 167.70 C 105.09 168.50 101.90 169.28 98.78 168.56 C 94.32 167.17 89.60 167.22 85.14 168.61 C 86.20 171.38 87.21 174.17 88.15 176.98 C 86.83 176.98 85.50 176.98 84.18 176.98 C 83.79 175.03 83.59 173.00 82.78 171.17 C 81.26 169.76 79.26 169.05 77.44 168.15 C 75.89 169.86 74.33 171.57 72.75 173.26 C 71.81 172.31 70.90 171.33 69.95 170.40 C 71.63 168.67 73.31 166.92 74.97 165.16 C 73.60 164.88 72.23 164.58 70.85 164.30 C 66.30 163.39 61.73 162.59 57.18 161.70 Z" />
</g>
<g id="#705e46ff">
<path fill="#705e46" opacity="1.00" d=" M 140.35 153.00 C 142.73 153.60 145.09 154.24 147.43 154.96 C 145.95 156.27 144.43 157.53 142.88 158.75 C 141.97 156.86 141.13 154.94 140.35 153.00 Z" />
</g>
<g id="#534a20ec">
<path fill="#534a20" opacity="0.93" d=" M 30.05 155.16 C 32.34 154.83 34.64 154.49 36.95 154.32 C 36.26 155.94 35.56 157.56 34.87 159.18 C 33.22 157.90 31.61 156.55 30.05 155.16 Z" />
</g>
<g id="#352a30ff">
<path fill="#352a30" opacity="1.00" d=" M 101.01 160.46 C 104.04 158.27 107.40 155.58 111.40 156.73 C 110.93 159.18 110.57 161.66 110.30 164.14 C 111.02 163.36 111.75 162.58 112.42 161.76 C 113.42 162.44 114.43 163.13 115.44 163.81 C 115.81 162.55 116.20 161.30 116.59 160.04 C 117.54 163.38 118.07 166.85 117.76 170.33 C 116.64 168.87 115.93 167.18 115.50 165.40 C 114.63 166.09 113.76 166.79 112.90 167.49 C 111.64 167.05 110.38 166.62 109.12 166.20 C 108.19 164.67 107.39 163.07 106.55 161.50 C 104.71 161.11 102.85 160.84 101.01 160.46 Z" />
</g>
<g id="#63575aff">
<path fill="#63575a" opacity="1.00" d=" M 70.85 164.30 C 72.23 164.58 73.60 164.88 74.97 165.16 C 73.31 166.92 71.63 168.67 69.95 170.40 C 70.90 171.33 71.81 172.31 72.75 173.26 C 74.33 171.57 75.89 169.86 77.44 168.15 C 79.26 169.05 81.26 169.76 82.78 171.17 C 83.59 173.00 83.79 175.03 84.18 176.98 C 77.65 177.03 71.19 175.80 64.91 174.09 C 66.82 170.79 68.78 167.51 70.85 164.30 Z" />
</g>
<g id="#63585dff">
<path fill="#63585d" opacity="1.00" d=" M 85.14 168.61 C 89.60 167.22 94.32 167.17 98.78 168.56 C 98.48 171.29 98.32 174.03 98.35 176.78 L 97.56 176.83 C 97.11 176.32 96.20 175.30 95.74 174.79 C 94.28 175.35 92.95 176.19 91.61 176.97 C 90.46 176.98 89.30 176.98 88.15 176.98 C 87.21 174.17 86.20 171.38 85.14 168.61 Z" />
</g>
<g id="#c7bfa9ff">
<path fill="#c7bfa9" opacity="1.00" d=" M 91.61 176.97 C 92.95 176.19 94.28 175.35 95.74 174.79 C 96.20 175.30 97.11 176.32 97.56 176.83 C 95.58 176.96 93.60 176.99 91.61 176.97 Z" />
</g>
</svg>
