<?xml version="1.0" encoding="UTF-8" ?>
<!DOCTYPE svg PUBLIC "-//W3C//DTD SVG 1.1//EN" "http://www.w3.org/Graphics/SVG/1.1/DTD/svg11.dtd">
<svg width="178pt" height="178pt" viewBox="0 0 178 178" version="1.1" xmlns="http://www.w3.org/2000/svg">
<g id="#050605f5">
<path fill="#050605" opacity="0.96" d=" M 62.38 12.39 C 80.42 6.70 100.74 5.85 118.28 13.77 C 127.96 18.21 138.04 24.37 142.16 34.73 C 144.55 39.78 143.78 45.44 144.19 50.83 C 146.54 54.53 149.77 58.26 149.03 63.02 C 149.17 67.90 144.67 70.88 143.26 75.17 C 142.34 82.13 147.10 88.23 147.54 95.02 C 147.01 102.16 138.98 104.16 135.08 109.03 C 131.17 113.41 132.11 119.62 132.00 125.00 C 132.20 131.73 131.59 138.57 132.91 145.21 C 135.61 149.42 140.36 153.38 139.24 158.97 C 138.09 164.34 131.79 165.96 127.02 165.98 C 122.51 165.58 119.35 169.60 115.00 169.93 C 108.80 170.89 102.86 168.55 96.98 166.99 C 86.72 164.09 76.67 159.60 68.80 152.26 C 60.49 148.11 52.34 143.53 43.60 140.30 C 50.14 129.69 55.85 118.32 58.76 106.15 C 48.11 103.33 39.43 95.29 34.45 85.63 C 30.51 78.08 29.57 69.45 29.05 61.07 C 28.59 51.11 29.54 40.59 34.88 31.91 C 40.86 21.92 51.59 15.91 62.38 12.39 M 61.54 15.35 C 51.06 18.99 40.64 25.34 35.70 35.68 C 30.26 46.90 31.02 59.93 32.77 71.94 C 34.42 84.10 42.03 95.29 52.81 101.18 C 56.37 103.20 60.53 103.47 64.47 104.23 C 63.48 105.06 62.43 105.82 61.35 106.54 C 58.65 118.07 53.13 128.66 47.58 139.03 C 54.65 141.76 61.03 145.93 68.01 148.87 C 66.99 135.28 66.88 121.60 68.55 108.05 C 64.60 104.72 60.99 100.38 60.62 95.01 C 60.36 90.93 61.43 85.99 65.28 83.84 C 64.75 86.33 63.66 88.64 62.98 91.07 C 61.78 95.47 63.41 100.27 66.56 103.45 C 71.33 108.40 78.42 110.60 85.19 109.78 C 85.29 114.59 85.77 119.38 85.89 124.19 C 82.52 121.21 84.16 116.02 83.60 112.02 C 79.00 111.60 74.43 110.81 70.14 109.06 C 69.17 121.67 68.95 134.34 69.74 146.97 C 69.52 150.33 72.69 152.24 74.96 154.10 C 84.42 161.02 95.87 164.32 107.10 167.09 C 111.93 168.24 117.52 167.72 121.43 164.41 C 122.67 160.51 124.12 154.65 120.03 151.95 C 116.93 149.81 112.41 151.45 109.65 148.98 C 113.77 148.62 118.57 148.23 122.00 150.99 C 125.49 154.18 124.05 159.36 123.82 163.48 C 127.87 163.47 132.66 163.69 135.73 160.57 C 137.89 158.07 136.60 154.49 134.89 152.13 C 133.24 149.48 130.12 147.49 130.07 144.07 C 129.25 135.08 129.50 126.02 129.57 117.00 C 129.55 111.19 133.22 106.04 138.04 103.07 C 141.07 100.92 145.29 98.44 144.99 94.15 C 144.09 89.85 142.25 85.79 141.09 81.55 C 140.99 79.29 140.90 77.02 140.73 74.76 C 141.93 70.12 146.92 67.12 146.53 62.00 C 146.90 57.75 143.46 54.93 141.47 51.70 C 141.41 45.99 142.11 39.93 139.38 34.67 C 135.45 25.84 126.73 20.61 118.37 16.62 C 100.66 8.17 79.79 9.20 61.54 15.35 Z" />
<path fill="#050605" opacity="0.96" d=" M 109.96 31.88 C 111.21 32.20 112.33 32.91 112.80 34.16 C 115.12 38.76 116.66 43.79 116.95 48.95 C 116.58 48.84 115.84 48.64 115.47 48.53 C 114.96 42.58 112.13 37.32 109.96 31.88 Z" />
<path fill="#050605" opacity="0.96" d=" M 63.89 38.02 C 66.93 38.52 68.74 41.22 70.50 43.47 C 72.18 45.98 74.22 48.76 73.89 51.95 C 73.10 55.77 69.76 58.37 68.56 62.02 C 67.56 65.26 71.34 68.05 69.99 71.18 C 66.77 68.20 65.18 62.81 68.04 59.04 C 69.56 55.91 73.39 53.04 71.88 49.20 C 70.50 44.61 66.06 42.09 63.89 38.02 Z" />
<path fill="#050605" opacity="0.96" d=" M 118.13 54.94 C 118.51 51.57 119.28 47.36 122.86 45.97 C 121.73 49.32 119.73 52.41 119.45 56.00 C 119.11 59.12 120.49 62.05 121.00 65.07 C 117.63 62.88 117.93 58.46 118.13 54.94 Z" />
<path fill="#050605" opacity="0.96" d=" M 108.90 46.68 C 112.45 48.73 112.96 53.40 113.65 57.07 C 113.70 60.51 114.37 64.70 111.82 67.43 C 111.77 63.79 112.42 60.11 111.72 56.49 C 111.13 53.12 109.68 49.99 108.90 46.68 Z" />
<path fill="#050605" opacity="0.96" d=" M 82.80 70.34 C 89.97 70.29 97.30 68.44 103.17 64.22 C 102.55 65.16 101.92 66.09 101.28 67.02 C 104.17 69.41 107.82 71.92 108.07 76.04 C 107.98 79.67 105.06 82.44 104.95 86.10 C 101.93 89.70 97.63 92.25 92.96 92.97 C 97.43 90.86 102.64 88.92 105.04 84.26 C 102.07 85.18 99.25 86.97 96.02 86.75 C 91.11 86.69 85.25 84.49 83.75 79.33 C 82.85 76.39 84.65 73.66 85.95 71.16 C 84.90 70.90 83.85 70.63 82.80 70.34 M 88.12 71.02 C 85.66 71.68 85.24 74.63 84.40 76.63 C 90.25 75.17 96.27 73.52 102.31 74.92 C 98.69 74.93 95.09 75.37 91.50 75.75 C 88.99 76.16 86.56 76.93 84.22 77.90 C 85.42 85.02 94.94 87.66 100.91 85.08 C 104.26 83.45 108.66 79.37 106.16 75.42 L 107.20 75.56 C 106.50 71.71 103.03 69.44 100.03 67.39 C 96.15 68.90 92.12 69.90 88.12 71.02 Z" />
<path fill="#050605" opacity="0.96" d=" M 71.87 74.17 C 74.69 75.41 77.57 76.57 80.69 76.74 C 80.64 76.96 80.54 77.40 80.48 77.62 C 77.36 77.26 73.97 76.78 71.87 74.17 Z" />
<path fill="#050605" opacity="0.96" d=" M 76.39 80.27 C 77.13 79.79 79.35 79.07 79.45 80.48 C 78.33 81.42 76.84 81.95 75.53 82.61 C 74.16 82.29 75.67 80.51 76.39 80.27 Z" />
<path fill="#050605" opacity="0.96" d=" M 94.86 112.80 C 96.99 108.23 99.13 103.42 103.07 100.09 C 101.85 102.21 100.11 104.02 99.17 106.29 C 98.95 108.28 99.64 110.22 100.00 112.16 C 99.24 111.05 98.48 109.95 97.73 108.85 C 94.07 114.51 93.01 121.30 90.08 127.26 C 90.90 122.22 92.86 117.46 94.86 112.80 Z" />
<path fill="#050605" opacity="0.96" d=" M 108.40 121.56 C 112.02 120.80 115.88 121.74 119.59 121.39 C 122.03 123.47 123.38 126.73 123.70 129.87 C 122.54 134.60 118.31 138.47 113.59 139.49 C 108.86 139.85 104.75 136.60 101.59 133.43 C 100.81 132.31 98.97 131.17 99.72 129.61 C 101.81 126.23 104.83 123.33 108.40 121.56 M 109.30 122.17 C 105.52 123.60 102.43 126.64 100.61 130.22 C 104.82 130.76 108.79 129.11 111.77 126.20 C 111.73 127.51 111.70 128.83 111.69 130.14 C 114.30 130.36 116.48 129.03 118.39 127.42 C 119.66 128.41 121.09 129.15 122.64 129.61 C 122.70 126.59 121.08 123.97 119.01 121.92 C 115.80 123.03 112.54 122.01 109.30 122.17 M 100.72 131.14 C 103.50 134.77 107.45 137.72 112.01 138.52 C 117.02 138.74 120.53 134.48 122.98 130.67 C 121.34 130.06 119.69 129.47 118.07 128.84 C 115.71 130.97 112.16 131.77 109.77 129.19 C 106.93 130.52 103.80 130.80 100.72 131.14 Z" />
<path fill="#050605" opacity="0.96" d=" M 106.75 142.22 C 110.25 143.65 113.84 143.77 117.32 142.16 C 114.58 145.47 109.70 144.88 106.75 142.22 Z" />
</g>
<g id="#acd2c3ff">
<path fill="#acd2c3" opacity="1.00" d=" M 61.54 15.35 C 79.79 9.20 100.66 8.17 118.37 16.62 C 126.73 20.61 135.45 25.84 139.38 34.67 C 142.11 39.93 141.41 45.99 141.47 51.70 C 143.46 54.93 146.90 57.75 146.53 62.00 C 146.92 67.12 141.93 70.12 140.73 74.76 C 140.20 76.09 139.64 77.40 139.06 78.71 C 138.29 76.30 137.70 73.84 137.35 71.33 C 132.41 71.38 127.84 69.41 124.31 66.00 C 124.41 66.95 124.51 67.89 124.61 68.84 C 123.33 69.88 122.05 70.93 120.73 71.93 C 120.35 72.16 119.60 72.61 119.22 72.84 C 118.58 71.79 117.93 70.75 117.27 69.71 C 116.44 72.30 115.45 75.04 116.09 77.80 C 117.20 81.11 120.41 83.11 121.86 86.24 C 123.01 90.48 121.14 94.75 121.17 99.02 C 121.25 103.59 122.52 108.16 121.79 112.74 C 120.48 114.90 117.73 116.14 115.23 115.98 C 111.18 113.84 109.11 109.00 104.70 107.40 C 103.61 107.01 102.74 107.32 102.09 108.31 C 101.68 110.17 103.41 111.35 104.39 112.67 C 104.07 111.25 103.73 109.85 103.40 108.45 C 107.88 110.27 110.30 114.71 114.19 117.30 C 117.61 118.02 120.53 115.68 123.15 113.87 C 123.13 110.39 123.06 106.90 123.39 103.43 C 124.53 110.08 125.88 116.71 127.94 123.14 C 128.26 117.51 125.37 112.34 125.53 106.74 C 125.94 103.41 122.34 101.31 122.56 98.04 C 122.60 95.33 123.29 92.70 123.91 90.08 C 126.62 90.43 129.33 90.75 132.06 90.96 C 129.58 90.14 127.07 89.42 124.60 88.60 C 127.30 88.00 130.12 87.74 132.66 86.59 C 135.00 85.35 136.57 83.12 138.30 81.19 C 139.23 81.30 140.16 81.42 141.09 81.55 C 142.25 85.79 144.09 89.85 144.99 94.15 C 145.29 98.44 141.07 100.92 138.04 103.07 C 133.22 106.04 129.55 111.19 129.57 117.00 C 129.50 126.02 129.25 135.08 130.07 144.07 C 130.12 147.49 133.24 149.48 134.89 152.13 C 136.60 154.49 137.89 158.07 135.73 160.57 C 132.66 163.69 127.87 163.47 123.82 163.48 C 124.05 159.36 125.49 154.18 122.00 150.99 C 118.57 148.23 113.77 148.62 109.65 148.98 C 112.41 151.45 116.93 149.81 120.03 151.95 C 124.12 154.65 122.67 160.51 121.43 164.41 C 117.52 167.72 111.93 168.24 107.10 167.09 C 95.87 164.32 84.42 161.02 74.96 154.10 C 72.69 152.24 69.52 150.33 69.74 146.97 C 68.95 134.34 69.17 121.67 70.14 109.06 C 74.43 110.81 79.00 111.60 83.60 112.02 C 84.16 116.02 82.52 121.21 85.89 124.19 C 85.77 119.38 85.29 114.59 85.19 109.78 C 78.42 110.60 71.33 108.40 66.56 103.45 C 63.41 100.27 61.78 95.47 62.98 91.07 C 63.66 88.64 64.75 86.33 65.28 83.84 C 61.43 85.99 60.36 90.93 60.62 95.01 C 60.99 100.38 64.60 104.72 68.55 108.05 C 66.88 121.60 66.99 135.28 68.01 148.87 C 61.03 145.93 54.65 141.76 47.58 139.03 C 53.13 128.66 58.65 118.07 61.35 106.54 C 62.43 105.82 63.48 105.06 64.47 104.23 C 60.53 103.47 56.37 103.20 52.81 101.18 C 42.03 95.29 34.42 84.10 32.77 71.94 C 31.02 59.93 30.26 46.90 35.70 35.68 C 40.64 25.34 51.06 18.99 61.54 15.35 M 54.02 21.12 C 48.21 24.31 42.82 29.46 41.51 36.20 C 41.14 38.76 44.04 40.92 46.29 39.27 C 51.99 35.92 57.13 31.51 61.66 26.71 C 63.51 25.03 63.10 22.53 62.72 20.35 C 59.82 19.79 56.68 19.59 54.02 21.12 M 109.96 31.88 C 112.13 37.32 114.96 42.58 115.47 48.53 C 115.84 48.64 116.58 48.84 116.95 48.95 C 116.66 43.79 115.12 38.76 112.80 34.16 C 112.33 32.91 111.21 32.20 109.96 31.88 M 63.89 38.02 C 66.06 42.09 70.50 44.61 71.88 49.20 C 73.39 53.04 69.56 55.91 68.04 59.04 C 65.18 62.81 66.77 68.20 69.99 71.18 C 71.34 68.05 67.56 65.26 68.56 62.02 C 69.76 58.37 73.10 55.77 73.89 51.95 C 74.22 48.76 72.18 45.98 70.50 43.47 C 68.74 41.22 66.93 38.52 63.89 38.02 M 118.13 54.94 C 117.93 58.46 117.63 62.88 121.00 65.07 C 120.49 62.05 119.11 59.12 119.45 56.00 C 119.73 52.41 121.73 49.32 122.86 45.97 C 119.28 47.36 118.51 51.57 118.13 54.94 M 108.90 46.68 C 109.68 49.99 111.13 53.12 111.72 56.49 C 112.42 60.11 111.77 63.79 111.82 67.43 C 114.37 64.70 113.70 60.51 113.65 57.07 C 112.96 53.40 112.45 48.73 108.90 46.68 M 82.80 70.34 C 83.85 70.63 84.90 70.90 85.95 71.16 C 84.65 73.66 82.85 76.39 83.75 79.33 C 85.25 84.49 91.11 86.69 96.02 86.75 C 99.25 86.97 102.07 85.18 105.04 84.26 C 102.64 88.92 97.43 90.86 92.96 92.97 C 97.63 92.25 101.93 89.70 104.95 86.10 C 105.06 82.44 107.98 79.67 108.07 76.04 C 107.82 71.92 104.17 69.41 101.28 67.02 C 101.92 66.09 102.55 65.16 103.17 64.22 C 97.30 68.44 89.97 70.29 82.80 70.34 M 71.87 74.17 C 73.97 76.78 77.36 77.26 80.48 77.62 C 80.54 77.40 80.64 76.96 80.69 76.74 C 77.57 76.57 74.69 75.41 71.87 74.17 M 76.39 80.27 C 75.67 80.51 74.16 82.29 75.53 82.61 C 76.84 81.95 78.33 81.42 79.45 80.48 C 79.35 79.07 77.13 79.79 76.39 80.27 M 94.86 112.80 C 92.86 117.46 90.90 122.22 90.08 127.26 C 93.01 121.30 94.07 114.51 97.73 108.85 C 98.48 109.95 99.24 111.05 100.00 112.16 C 99.64 110.22 98.95 108.28 99.17 106.29 C 100.11 104.02 101.85 102.21 103.07 100.09 C 99.13 103.42 96.99 108.23 94.86 112.80 M 108.40 121.56 C 104.83 123.33 101.81 126.23 99.72 129.61 C 98.97 131.17 100.81 132.31 101.59 133.43 C 104.75 136.60 108.86 139.85 113.59 139.49 C 118.31 138.47 122.54 134.60 123.70 129.87 C 123.38 126.73 122.03 123.47 119.59 121.39 C 115.88 121.74 112.02 120.80 108.40 121.56 M 106.75 142.22 C 109.70 144.88 114.58 145.47 117.32 142.16 C 113.84 143.77 110.25 143.65 106.75 142.22 Z" />
</g>
<g id="#c5e9dbff">
<path fill="#c5e9db" opacity="1.00" d=" M 54.02 21.12 C 56.68 19.59 59.82 19.79 62.72 20.35 C 63.10 22.53 63.51 25.03 61.66 26.71 C 57.13 31.51 51.99 35.92 46.29 39.27 C 44.04 40.92 41.14 38.76 41.51 36.20 C 42.82 29.46 48.21 24.31 54.02 21.12 Z" />
</g>
<g id="#4e5d55ff">
<path fill="#4e5d55" opacity="1.00" d=" M 124.31 66.00 C 127.84 69.41 132.41 71.38 137.35 71.33 C 137.70 73.84 138.29 76.30 139.06 78.71 C 139.64 77.40 140.20 76.09 140.73 74.76 C 140.90 77.02 140.99 79.29 141.09 81.55 C 140.16 81.42 139.23 81.30 138.30 81.19 C 136.57 83.12 135.00 85.35 132.66 86.59 C 130.12 87.74 127.30 88.00 124.60 88.60 C 127.07 89.42 129.58 90.14 132.06 90.96 C 129.33 90.75 126.62 90.43 123.91 90.08 C 123.29 92.70 122.60 95.33 122.56 98.04 C 122.34 101.31 125.94 103.41 125.53 106.74 C 125.37 112.34 128.26 117.51 127.94 123.14 C 125.88 116.71 124.53 110.08 123.39 103.43 C 123.06 106.90 123.13 110.39 123.15 113.87 C 120.53 115.68 117.61 118.02 114.19 117.30 C 110.30 114.71 107.88 110.27 103.40 108.45 C 103.73 109.85 104.07 111.25 104.39 112.67 C 103.41 111.35 101.68 110.17 102.09 108.31 C 102.74 107.32 103.61 107.01 104.70 107.40 C 109.11 109.00 111.18 113.84 115.23 115.98 C 117.73 116.14 120.48 114.90 121.79 112.74 C 122.52 108.16 121.25 103.59 121.17 99.02 C 121.14 94.75 123.01 90.48 121.86 86.24 C 120.41 83.11 117.20 81.11 116.09 77.80 C 115.45 75.04 116.44 72.30 117.27 69.71 C 117.93 70.75 118.58 71.79 119.22 72.84 C 118.85 74.71 117.80 76.33 116.88 77.96 C 122.27 76.84 127.85 75.24 133.35 76.75 C 130.63 76.92 127.93 77.23 125.24 77.62 C 122.78 77.99 120.35 78.51 117.93 79.08 C 120.13 81.57 121.95 84.51 124.67 86.47 C 129.09 87.39 134.53 85.66 136.54 81.35 C 137.29 80.14 136.51 78.82 136.14 77.64 L 135.30 77.07 C 135.75 76.97 136.66 76.77 137.12 76.67 C 136.73 72.59 132.23 71.87 129.06 70.80 C 126.25 69.64 123.38 71.00 120.73 71.93 C 122.05 70.93 123.33 69.88 124.61 68.84 C 124.51 67.89 124.41 66.95 124.31 66.00 Z" />
</g>
<g id="#80b99fff">
<path fill="#80b99f" opacity="1.00" d=" M 88.12 71.02 C 92.12 69.90 96.15 68.90 100.03 67.39 C 103.03 69.44 106.50 71.71 107.20 75.56 L 106.16 75.42 C 104.88 75.25 103.59 75.08 102.31 74.92 C 96.27 73.52 90.25 75.17 84.40 76.63 C 85.24 74.63 85.66 71.68 88.12 71.02 Z" />
<path fill="#80b99f" opacity="1.00" d=" M 120.73 71.93 C 123.38 71.00 126.25 69.64 129.06 70.80 C 132.23 71.87 136.73 72.59 137.12 76.67 C 136.66 76.77 135.75 76.97 135.30 77.07 C 134.81 76.99 133.83 76.83 133.35 76.75 C 127.85 75.24 122.27 76.84 116.88 77.96 C 117.80 76.33 118.85 74.71 119.22 72.84 C 119.60 72.61 120.35 72.16 120.73 71.93 Z" />
</g>
<g id="#7d2617ff">
<path fill="#7d2617" opacity="1.00" d=" M 91.50 75.75 C 95.09 75.37 98.69 74.93 102.31 74.92 C 103.59 75.08 104.88 75.25 106.16 75.42 C 102.40 76.21 101.25 81.64 97.08 80.94 C 93.99 81.04 92.71 78.02 91.50 75.75 Z" />
<path fill="#7d2617" opacity="1.00" d=" M 125.24 77.62 C 127.93 77.23 130.63 76.92 133.35 76.75 C 133.83 76.83 134.81 76.99 135.30 77.07 L 136.14 77.64 C 135.04 79.89 134.09 83.24 130.91 82.88 C 127.52 83.48 126.04 80.32 125.24 77.62 Z" />
</g>
<g id="#e5e4adff">
<path fill="#e5e4ad" opacity="1.00" d=" M 84.22 77.90 C 86.56 76.93 88.99 76.16 91.50 75.75 C 92.71 78.02 93.99 81.04 97.08 80.94 C 101.25 81.64 102.40 76.21 106.16 75.42 C 108.66 79.37 104.26 83.45 100.91 85.08 C 94.94 87.66 85.42 85.02 84.22 77.90 Z" />
<path fill="#e5e4ad" opacity="1.00" d=" M 117.93 79.08 C 120.35 78.51 122.78 77.99 125.24 77.62 C 126.04 80.32 127.52 83.48 130.91 82.88 C 134.09 83.24 135.04 79.89 136.14 77.64 C 136.51 78.82 137.29 80.14 136.54 81.35 C 134.53 85.66 129.09 87.39 124.67 86.47 C 121.95 84.51 120.13 81.57 117.93 79.08 Z" />
</g>
<g id="#d4b09fff">
<path fill="#d4b09f" opacity="1.00" d=" M 109.30 122.17 C 112.54 122.01 115.80 123.03 119.01 121.92 C 121.08 123.97 122.70 126.59 122.64 129.61 C 121.09 129.15 119.66 128.41 118.39 127.42 C 116.48 129.03 114.30 130.36 111.69 130.14 C 111.70 128.83 111.73 127.51 111.77 126.20 C 108.79 129.11 104.82 130.76 100.61 130.22 C 102.43 126.64 105.52 123.60 109.30 122.17 Z" />
<path fill="#d4b09f" opacity="1.00" d=" M 100.72 131.14 C 103.80 130.80 106.93 130.52 109.77 129.19 C 112.16 131.77 115.71 130.97 118.07 128.84 C 119.69 129.47 121.34 130.06 122.98 130.67 C 120.53 134.48 117.02 138.74 112.01 138.52 C 107.45 137.72 103.50 134.77 100.72 131.14 Z" />
</g>
</svg>
