<?xml version="1.0" encoding="UTF-8" ?>
<!DOCTYPE svg PUBLIC "-//W3C//DTD SVG 1.1//EN" "http://www.w3.org/Graphics/SVG/1.1/DTD/svg11.dtd">
<svg width="178pt" height="178pt" viewBox="0 0 178 178" version="1.1" xmlns="http://www.w3.org/2000/svg">
<g id="#f9f8f8ff">
<path fill="#f9f8f8" opacity="1.00" d=" M 60.09 17.95 C 70.45 13.14 82.33 9.07 93.81 12.05 C 99.17 13.49 105.12 13.79 109.58 17.47 C 113.61 19.76 115.82 23.91 118.55 27.44 C 124.99 34.81 127.45 44.51 131.97 53.00 C 133.48 56.11 135.08 59.20 136.77 62.22 C 137.20 64.73 137.62 67.28 137.67 69.83 C 137.02 73.68 134.87 78.63 138.35 81.70 C 142.81 87.75 142.16 96.17 140.12 103.04 C 139.68 107.85 137.03 111.95 135.50 116.42 C 134.70 122.49 131.37 128.41 131.56 134.45 C 136.94 139.38 145.01 138.46 151.26 141.74 C 153.27 143.08 156.67 143.19 157.21 145.97 L 156.37 145.65 C 149.40 142.79 142.35 139.98 134.82 139.06 C 132.80 138.08 130.98 136.77 129.14 135.50 C 129.87 131.63 130.59 127.75 131.53 123.93 C 132.45 120.70 133.27 117.43 134.25 114.22 C 134.84 112.61 135.55 111.06 136.20 109.48 C 137.30 106.70 137.99 103.79 138.75 100.91 C 139.08 99.68 139.41 98.44 139.61 97.19 C 140.67 92.30 139.33 87.20 136.64 83.06 C 135.72 81.52 134.90 79.92 134.19 78.27 C 134.84 73.47 136.25 68.65 135.13 63.79 C 130.10 54.46 125.87 44.73 121.58 35.05 C 118.36 30.43 114.80 26.06 111.33 21.62 C 108.24 18.75 104.48 16.63 100.40 15.56 C 93.32 13.74 85.85 12.50 78.60 14.04 C 68.49 16.06 58.84 20.26 50.38 26.13 C 43.84 29.39 38.48 35.32 36.66 42.47 C 35.30 49.20 33.88 56.12 35.07 63.00 C 35.48 66.93 37.37 70.44 38.84 74.04 C 38.87 80.93 37.83 88.44 41.81 94.55 C 44.38 98.52 43.90 103.40 42.91 107.79 C 41.79 112.63 42.76 117.61 42.21 122.50 C 40.35 125.27 38.26 127.89 36.42 130.69 C 35.56 132.21 34.80 133.78 33.95 135.31 C 29.94 139.42 25.01 142.53 20.13 145.49 C 21.57 139.63 29.57 139.26 31.97 133.98 C 34.33 128.48 39.33 124.69 41.16 118.90 C 40.60 115.09 40.14 111.14 41.17 107.37 C 41.73 104.67 42.52 101.86 41.93 99.11 C 40.88 96.62 39.28 94.41 38.05 92.01 C 36.73 89.93 37.42 87.35 37.20 85.03 C 36.93 81.40 36.91 77.76 36.80 74.12 C 30.57 64.12 32.60 51.70 34.56 40.73 C 37.39 34.12 41.89 27.84 48.49 24.61 C 52.66 22.87 55.54 18.87 60.09 17.95 Z" />
</g>
<g id="#38343bff">
<path fill="#38343b" opacity="1.00" d=" M 78.60 14.04 C 85.85 12.50 93.32 13.74 100.40 15.56 C 104.48 16.63 108.24 18.75 111.33 21.62 C 109.35 21.32 107.38 20.89 105.37 20.85 C 102.60 21.20 100.24 23.17 97.38 23.08 C 94.23 23.08 90.96 22.51 87.93 23.70 C 82.61 25.53 76.83 28.57 71.24 25.80 C 71.29 26.79 71.34 27.78 71.40 28.78 C 68.67 28.02 65.07 26.03 62.91 28.94 C 60.78 32.10 60.09 36.03 57.97 39.23 C 56.86 38.48 55.71 37.77 54.74 36.84 C 54.67 35.10 55.27 33.43 55.64 31.75 C 53.99 32.32 52.12 32.55 50.73 33.67 C 50.07 35.72 50.28 37.91 50.29 40.04 C 49.14 41.06 47.74 41.90 46.96 43.27 C 46.61 45.10 46.67 46.97 46.63 48.83 C 48.14 47.96 49.65 47.11 51.17 46.26 C 51.32 47.03 51.47 47.79 51.62 48.55 C 55.73 48.11 59.38 46.18 62.43 43.44 L 62.03 44.39 C 61.19 46.48 60.18 48.50 58.99 50.41 C 53.42 50.90 47.83 51.70 42.25 50.87 C 44.78 54.77 49.67 54.64 53.78 54.51 C 55.27 55.36 56.78 56.20 58.34 56.92 C 55.88 62.50 53.21 67.98 49.90 73.12 C 48.64 72.28 47.37 71.44 46.11 70.60 C 45.75 72.69 45.37 74.77 44.96 76.85 C 43.50 77.24 42.05 77.64 40.60 78.05 C 40.00 76.72 39.41 75.39 38.84 74.04 C 37.37 70.44 35.48 66.93 35.07 63.00 C 33.88 56.12 35.30 49.20 36.66 42.47 C 38.48 35.32 43.84 29.39 50.38 26.13 C 58.84 20.26 68.49 16.06 78.60 14.04 M 42.41 56.49 C 40.88 57.07 38.85 58.10 39.12 60.06 C 39.53 63.85 40.69 67.55 42.22 71.03 C 45.14 71.33 44.93 67.06 46.26 65.20 C 46.94 61.55 52.09 61.55 52.16 57.57 C 48.86 57.70 45.67 56.71 42.41 56.49 Z" />
</g>
<g id="#1d1314ff">
<path fill="#1d1314" opacity="1.00" d=" M 97.38 23.08 C 100.24 23.17 102.60 21.20 105.37 20.85 C 107.38 20.89 109.35 21.32 111.33 21.62 C 114.80 26.06 118.36 30.43 121.58 35.05 C 115.94 32.24 109.93 35.18 104.05 35.00 C 100.10 34.99 96.15 35.33 92.28 36.12 C 85.30 37.45 78.15 35.98 71.17 37.16 C 67.42 37.73 64.64 40.59 62.43 43.44 C 59.38 46.18 55.73 48.11 51.62 48.55 C 51.47 47.79 51.32 47.03 51.17 46.26 C 49.65 47.11 48.14 47.96 46.63 48.83 C 46.67 46.97 46.61 45.10 46.96 43.27 C 47.74 41.90 49.14 41.06 50.29 40.04 C 50.28 37.91 50.07 35.72 50.73 33.67 C 52.12 32.55 53.99 32.32 55.64 31.75 C 55.27 33.43 54.67 35.10 54.74 36.84 C 55.71 37.77 56.86 38.48 57.97 39.23 C 60.09 36.03 60.78 32.10 62.91 28.94 C 65.07 26.03 68.67 28.02 71.40 28.78 C 71.34 27.78 71.29 26.79 71.24 25.80 C 76.83 28.57 82.61 25.53 87.93 23.70 C 90.96 22.51 94.23 23.08 97.38 23.08 Z" />
<path fill="#1d1314" opacity="1.00" d=" M 98.05 112.89 C 98.70 111.16 99.86 109.70 101.07 108.32 C 100.96 109.74 100.84 111.16 100.73 112.58 C 105.52 114.32 109.69 117.29 113.78 120.28 L 112.90 120.38 C 109.55 120.26 106.22 119.84 102.90 119.45 C 103.01 119.99 103.25 121.06 103.37 121.59 C 108.95 123.24 114.30 125.83 120.09 126.70 C 124.02 126.39 127.69 124.73 131.53 123.93 C 130.59 127.75 129.87 131.63 129.14 135.50 C 127.98 137.75 126.39 139.80 125.54 142.20 C 126.00 146.96 128.47 151.29 128.90 156.08 C 129.60 160.25 128.55 164.44 127.13 168.34 C 126.14 168.94 125.09 169.46 124.07 170.00 C 123.67 165.72 124.32 160.93 121.89 157.14 C 120.54 155.00 117.82 155.22 115.63 155.36 C 111.26 155.73 106.89 156.12 102.53 156.51 C 98.10 156.92 94.14 159.14 90.26 161.14 C 90.23 154.63 91.74 148.25 91.70 141.74 C 91.88 138.93 91.65 136.06 92.35 133.31 C 93.71 129.83 96.45 126.99 97.27 123.29 C 97.99 119.87 97.83 116.36 98.05 112.89 Z" />
</g>
<g id="#5a4439ff">
<path fill="#5a4439" opacity="1.00" d=" M 104.05 35.00 C 109.93 35.18 115.94 32.24 121.58 35.05 C 125.87 44.73 130.10 54.46 135.13 63.79 C 133.81 64.51 132.50 65.22 131.17 65.92 C 130.71 66.01 129.78 66.19 129.32 66.27 L 129.77 65.35 C 130.12 64.59 130.47 63.83 130.82 63.07 C 125.78 62.17 122.97 57.77 120.15 53.99 C 120.90 50.85 122.02 47.65 121.70 44.39 C 120.20 41.25 116.09 42.59 113.33 42.47 C 111.03 39.91 108.74 36.46 104.85 36.62 C 104.16 36.58 102.78 36.49 102.09 36.45 C 98.95 36.31 95.84 36.72 92.77 37.32 C 85.53 38.18 78.14 37.43 70.98 38.95 C 69.00 39.30 67.47 40.68 65.91 41.84 C 65.03 42.46 64.14 43.06 63.24 43.65 L 62.57 44.06 L 62.03 44.39 L 62.43 43.44 C 64.64 40.59 67.42 37.73 71.17 37.16 C 78.15 35.98 85.30 37.45 92.28 36.12 C 96.15 35.33 100.10 34.99 104.05 35.00 Z" />
</g>
<g id="#856f71ff">
<path fill="#856f71" opacity="1.00" d=" M 92.77 37.32 C 95.84 36.72 98.95 36.31 102.09 36.45 C 104.37 39.83 107.01 43.22 107.64 47.38 C 108.45 51.06 107.11 54.68 106.28 58.22 C 105.13 62.56 105.91 67.42 103.23 71.30 C 96.04 71.65 88.30 71.54 82.05 75.67 C 80.71 74.49 77.68 72.74 79.68 70.77 C 82.68 68.34 86.74 67.73 90.35 66.59 C 88.51 62.58 84.70 59.80 80.74 58.12 C 77.32 57.68 73.89 59.00 70.49 58.34 C 66.12 56.61 62.57 53.37 58.99 50.41 C 60.18 48.50 61.19 46.48 62.03 44.39 L 62.57 44.06 C 63.02 46.86 63.35 49.69 63.53 52.52 C 67.19 53.95 71.07 55.00 74.99 53.96 C 81.47 52.43 88.34 55.05 94.66 52.65 C 98.35 50.34 100.33 45.93 101.48 41.87 C 100.81 37.93 95.82 38.01 92.77 37.32 Z" />
</g>
<g id="#694d3dff">
<path fill="#694d3d" opacity="1.00" d=" M 104.85 36.62 C 108.74 36.46 111.03 39.91 113.33 42.47 C 116.09 42.59 120.20 41.25 121.70 44.39 C 122.02 47.65 120.90 50.85 120.15 53.99 C 122.97 57.77 125.78 62.17 130.82 63.07 C 130.47 63.83 130.12 64.59 129.77 65.35 C 122.11 64.49 114.97 68.16 108.53 71.84 C 107.87 71.89 106.55 71.99 105.88 72.04 C 102.23 72.38 98.55 72.47 94.90 72.78 C 89.19 73.95 84.88 78.20 79.92 80.96 C 77.00 82.51 75.20 85.37 75.06 88.67 C 78.09 88.24 81.13 87.81 84.16 87.33 C 88.23 86.95 92.29 86.53 96.38 86.52 C 97.37 85.20 98.37 83.87 99.36 82.55 C 99.99 82.77 101.26 83.22 101.89 83.45 C 101.37 85.25 101.55 87.72 99.76 88.83 C 96.50 90.08 92.91 89.92 89.47 90.13 C 90.02 91.38 90.56 92.64 91.11 93.91 C 88.05 93.96 84.99 94.60 82.38 96.24 C 81.30 98.77 80.78 101.51 80.69 104.25 C 77.15 105.05 73.52 105.42 69.93 105.97 C 73.04 103.73 75.99 101.29 79.12 99.08 C 77.40 97.49 75.70 95.88 73.89 94.39 C 73.56 91.89 74.03 88.89 72.06 86.94 C 70.14 84.90 67.90 82.88 65.11 82.19 C 63.10 83.31 61.67 85.18 59.93 86.64 C 58.97 87.31 57.99 87.95 57.00 88.58 C 56.83 93.43 59.27 98.97 56.13 103.26 C 55.61 103.30 54.56 103.38 54.04 103.43 C 53.04 101.13 51.84 98.68 52.56 96.11 C 53.39 92.24 53.44 88.28 54.03 84.39 C 55.62 81.65 58.29 79.64 59.99 76.93 C 62.17 73.82 64.96 71.25 67.75 68.71 C 68.42 67.51 69.00 66.25 69.58 65.01 C 72.59 64.60 75.62 64.60 78.65 64.71 C 77.57 67.64 76.14 70.58 76.08 73.76 C 76.51 75.37 77.16 76.92 77.80 78.45 C 79.20 77.50 80.60 76.54 82.05 75.67 C 88.30 71.54 96.04 71.65 103.23 71.30 C 110.15 70.67 115.50 63.50 114.44 56.72 C 112.79 49.45 109.52 42.47 104.85 36.62 M 70.43 67.78 C 68.11 71.90 64.09 74.46 60.90 77.79 C 62.69 78.41 64.54 78.44 66.21 77.45 C 67.62 79.80 69.19 82.22 71.89 83.23 C 73.45 78.19 73.50 72.27 70.43 67.78 Z" />
</g>
<g id="#7e645dff">
<path fill="#7e645d" opacity="1.00" d=" M 102.09 36.45 C 102.78 36.49 104.16 36.58 104.85 36.62 C 109.52 42.47 112.79 49.45 114.44 56.72 C 115.50 63.50 110.15 70.67 103.23 71.30 C 105.91 67.42 105.13 62.56 106.28 58.22 C 107.11 54.68 108.45 51.06 107.64 47.38 C 107.01 43.22 104.37 39.83 102.09 36.45 Z" />
</g>
<g id="#8f7c80ff">
<path fill="#8f7c80" opacity="1.00" d=" M 70.98 38.95 C 78.14 37.43 85.53 38.18 92.77 37.32 C 95.82 38.01 100.81 37.93 101.48 41.87 C 100.33 45.93 98.35 50.34 94.66 52.65 C 88.34 55.05 81.47 52.43 74.99 53.96 C 71.07 55.00 67.19 53.95 63.53 52.52 C 63.35 49.69 63.02 46.86 62.57 44.06 L 63.24 43.65 C 64.42 45.96 64.56 50.08 68.07 49.78 C 74.89 50.22 82.16 50.31 88.53 47.49 C 91.71 46.49 91.71 41.49 88.57 40.45 C 81.27 37.45 73.13 39.64 65.91 41.84 C 67.47 40.68 69.00 39.30 70.98 38.95 Z" />
</g>
<g id="#9b8d94ff">
<path fill="#9b8d94" opacity="1.00" d=" M 65.91 41.84 C 73.13 39.64 81.27 37.45 88.57 40.45 C 91.71 41.49 91.71 46.49 88.53 47.49 C 82.16 50.31 74.89 50.22 68.07 49.78 C 64.56 50.08 64.42 45.96 63.24 43.65 C 64.14 43.06 65.03 42.46 65.91 41.84 Z" />
</g>
<g id="#755e5aff">
<path fill="#755e5a" opacity="1.00" d=" M 42.25 50.87 C 47.83 51.70 53.42 50.90 58.99 50.41 C 62.57 53.37 66.12 56.61 70.49 58.34 C 73.89 59.00 77.32 57.68 80.74 58.12 C 84.70 59.80 88.51 62.58 90.35 66.59 C 86.74 67.73 82.68 68.34 79.68 70.77 C 77.68 72.74 80.71 74.49 82.05 75.67 C 80.60 76.54 79.20 77.50 77.80 78.45 C 77.16 76.92 76.51 75.37 76.08 73.76 C 76.14 70.58 77.57 67.64 78.65 64.71 C 75.62 64.60 72.59 64.60 69.58 65.01 L 68.60 65.12 C 67.71 65.13 65.94 65.14 65.05 65.15 C 65.79 64.73 66.52 64.31 67.26 63.90 C 65.22 61.49 63.53 58.81 61.64 56.28 C 59.83 53.84 56.40 54.64 53.78 54.51 C 49.67 54.64 44.78 54.77 42.25 50.87 Z" />
</g>
<g id="#58453eff">
<path fill="#58453e" opacity="1.00" d=" M 53.78 54.51 C 56.40 54.64 59.83 53.84 61.64 56.28 C 63.53 58.81 65.22 61.49 67.26 63.90 C 66.52 64.31 65.79 64.73 65.05 65.15 C 64.65 65.37 63.86 65.82 63.47 66.05 C 57.74 69.70 53.32 75.00 49.23 80.34 C 47.80 79.18 46.37 78.02 44.96 76.85 C 45.37 74.77 45.75 72.69 46.11 70.60 C 47.37 71.44 48.64 72.28 49.90 73.12 C 53.21 67.98 55.88 62.50 58.34 56.92 C 56.78 56.20 55.27 55.36 53.78 54.51 Z" />
</g>
<g id="#1d1415ff">
<path fill="#1d1415" opacity="1.00" d=" M 42.41 56.49 C 45.67 56.71 48.86 57.70 52.16 57.57 C 52.09 61.55 46.94 61.55 46.26 65.20 C 44.93 67.06 45.14 71.33 42.22 71.03 C 40.69 67.55 39.53 63.85 39.12 60.06 C 38.85 58.10 40.88 57.07 42.41 56.49 Z" />
</g>
<g id="#664620ff">
<path fill="#664620" opacity="1.00" d=" M 108.53 71.84 C 114.97 68.16 122.11 64.49 129.77 65.35 L 129.32 66.27 C 125.47 68.82 122.19 72.36 117.80 74.00 C 114.59 74.05 111.59 72.62 108.53 71.84 Z" />
</g>
<g id="#1f1414ff">
<path fill="#1f1414" opacity="1.00" d=" M 131.17 65.92 C 132.50 65.22 133.81 64.51 135.13 63.79 C 136.25 68.65 134.84 73.47 134.19 78.27 L 133.70 77.58 C 132.51 77.00 131.34 76.38 130.29 75.57 C 129.00 77.45 128.11 80.26 125.45 80.47 C 123.72 81.03 122.29 79.66 120.84 78.98 C 122.36 73.32 127.20 69.83 131.17 65.92 Z" />
<path fill="#1f1414" opacity="1.00" d=" M 94.90 72.78 C 98.55 72.47 102.23 72.38 105.88 72.04 C 108.43 74.13 113.12 75.70 112.72 79.68 C 111.52 82.15 109.16 84.05 106.62 85.02 C 104.95 84.93 103.46 83.94 101.89 83.45 C 101.26 83.22 99.99 82.77 99.36 82.55 C 98.37 83.87 97.37 85.20 96.38 86.52 C 92.29 86.53 88.23 86.95 84.16 87.33 C 83.02 86.65 81.80 86.23 80.48 86.07 C 85.89 81.26 93.13 80.17 99.75 77.93 C 97.38 76.75 94.86 75.90 92.24 75.50 C 93.14 74.60 94.02 73.69 94.90 72.78 Z" />
</g>
<g id="#cbbfb1ff">
<path fill="#cbbfb1" opacity="1.00" d=" M 63.47 66.05 C 63.86 65.82 64.65 65.37 65.05 65.15 C 65.94 65.14 67.71 65.13 68.60 65.12 C 68.10 65.65 67.09 66.71 66.58 67.24 C 65.54 66.85 64.51 66.45 63.47 66.05 Z" />
</g>
<g id="#9e8c8cff">
<path fill="#9e8c8c" opacity="1.00" d=" M 68.60 65.12 L 69.58 65.01 C 69.00 66.25 68.42 67.51 67.75 68.71 C 60.89 70.18 58.29 77.47 52.37 80.44 C 50.92 81.29 49.43 82.05 47.93 82.81 C 48.35 81.97 48.79 81.15 49.23 80.34 C 53.32 75.00 57.74 69.70 63.47 66.05 C 64.51 66.45 65.54 66.85 66.58 67.24 C 67.09 66.71 68.10 65.65 68.60 65.12 Z" />
</g>
<g id="#3f2719ff">
<path fill="#3f2719" opacity="1.00" d=" M 129.32 66.27 C 129.78 66.19 130.71 66.01 131.17 65.92 C 127.20 69.83 122.36 73.32 120.84 78.98 C 122.29 79.66 123.72 81.03 125.45 80.47 C 128.11 80.26 129.00 77.45 130.29 75.57 C 130.14 76.50 129.86 78.36 129.72 79.29 C 131.03 78.69 132.36 78.12 133.70 77.58 L 134.19 78.27 C 134.90 79.92 135.72 81.52 136.64 83.06 C 133.50 86.32 129.05 86.96 124.74 86.54 C 123.28 84.18 122.02 81.58 119.84 79.78 C 118.50 79.58 117.31 80.40 116.12 80.88 C 112.56 82.62 109.53 85.25 106.98 88.25 C 104.91 90.44 102.62 92.71 99.61 93.45 C 96.80 93.96 93.94 93.78 91.11 93.91 C 90.56 92.64 90.02 91.38 89.47 90.13 C 92.91 89.92 96.50 90.08 99.76 88.83 C 101.55 87.72 101.37 85.25 101.89 83.45 C 103.46 83.94 104.95 84.93 106.62 85.02 C 109.16 84.05 111.52 82.15 112.72 79.68 C 113.12 75.70 108.43 74.13 105.88 72.04 C 106.55 71.99 107.87 71.89 108.53 71.84 C 111.59 72.62 114.59 74.05 117.80 74.00 C 122.19 72.36 125.47 68.82 129.32 66.27 Z" />
</g>
<g id="#463020ff">
<path fill="#463020" opacity="1.00" d=" M 70.43 67.78 C 73.50 72.27 73.45 78.19 71.89 83.23 C 69.19 82.22 67.62 79.80 66.21 77.45 C 64.54 78.44 62.69 78.41 60.90 77.79 C 64.09 74.46 68.11 71.90 70.43 67.78 Z" />
</g>
<g id="#8a7473ff">
<path fill="#8a7473" opacity="1.00" d=" M 52.37 80.44 C 58.29 77.47 60.89 70.18 67.75 68.71 C 64.96 71.25 62.17 73.82 59.99 76.93 C 56.72 79.97 51.43 81.89 50.85 86.90 C 50.13 92.53 47.60 98.12 48.94 103.84 C 50.64 103.67 52.34 103.53 54.04 103.43 C 54.56 103.38 55.61 103.30 56.13 103.26 C 56.78 103.19 58.07 103.06 58.72 102.99 C 57.87 105.13 57.19 107.34 56.60 109.57 C 54.72 109.52 52.84 109.52 50.95 109.49 C 48.70 113.85 49.60 118.85 49.88 123.53 C 48.39 123.52 46.89 123.52 45.40 123.51 C 45.75 127.74 45.23 131.95 44.70 136.14 C 43.15 131.76 42.43 127.13 42.21 122.50 C 42.76 117.61 41.79 112.63 42.91 107.79 C 43.90 103.40 44.38 98.52 41.81 94.55 C 43.09 89.73 44.79 85.02 46.84 80.48 C 44.50 80.45 42.16 80.41 39.82 80.37 C 40.08 79.60 40.34 78.82 40.60 78.05 C 42.05 77.64 43.50 77.24 44.96 76.85 C 46.37 78.02 47.80 79.18 49.23 80.34 C 48.79 81.15 48.35 81.97 47.93 82.81 C 49.43 82.05 50.92 81.29 52.37 80.44 Z" />
</g>
<g id="#583b1eff">
<path fill="#583b1e" opacity="1.00" d=" M 79.92 80.96 C 84.88 78.20 89.19 73.95 94.90 72.78 C 94.02 73.69 93.14 74.60 92.24 75.50 C 94.86 75.90 97.38 76.75 99.75 77.93 C 93.13 80.17 85.89 81.26 80.48 86.07 C 81.80 86.23 83.02 86.65 84.16 87.33 C 81.13 87.81 78.09 88.24 75.06 88.67 C 75.20 85.37 77.00 82.51 79.92 80.96 Z" />
</g>
<g id="#60391cff">
<path fill="#60391c" opacity="1.00" d=" M 38.84 74.04 C 39.41 75.39 40.00 76.72 40.60 78.05 C 40.34 78.82 40.08 79.60 39.82 80.37 C 42.16 80.41 44.50 80.45 46.84 80.48 C 44.79 85.02 43.09 89.73 41.81 94.55 C 37.83 88.44 38.87 80.93 38.84 74.04 Z" />
</g>
<g id="#78686aff">
<path fill="#78686a" opacity="1.00" d=" M 130.29 75.57 C 131.34 76.38 132.51 77.00 133.70 77.58 C 132.36 78.12 131.03 78.69 129.72 79.29 C 129.86 78.36 130.14 76.50 130.29 75.57 Z" />
</g>
<g id="#7d6359ff">
<path fill="#7d6359" opacity="1.00" d=" M 50.85 86.90 C 51.43 81.89 56.72 79.97 59.99 76.93 C 58.29 79.64 55.62 81.65 54.03 84.39 C 53.44 88.28 53.39 92.24 52.56 96.11 C 51.84 98.68 53.04 101.13 54.04 103.43 C 52.34 103.53 50.64 103.67 48.94 103.84 C 47.60 98.12 50.13 92.53 50.85 86.90 Z" />
</g>
<g id="#86685cff">
<path fill="#86685c" opacity="1.00" d=" M 116.12 80.88 C 117.31 80.40 118.50 79.58 119.84 79.78 C 122.02 81.58 123.28 84.18 124.74 86.54 C 126.68 89.95 130.56 91.25 133.47 93.59 C 134.55 95.66 131.56 97.08 130.28 98.26 C 124.93 101.52 118.32 102.40 112.17 101.76 C 109.20 101.58 109.77 98.03 109.10 95.98 C 103.36 99.33 97.57 104.67 90.39 102.99 C 89.35 102.02 88.29 101.06 87.21 100.14 C 85.61 98.82 83.98 97.54 82.38 96.24 C 84.99 94.60 88.05 93.96 91.11 93.91 C 93.94 93.78 96.80 93.96 99.61 93.45 C 102.62 92.71 104.91 90.44 106.98 88.25 C 108.74 87.96 110.54 87.78 112.23 87.17 C 114.12 85.51 115.01 83.07 116.12 80.88 M 118.58 83.42 C 117.20 86.40 115.52 89.39 115.60 92.78 C 115.79 95.99 113.55 98.48 111.83 100.94 C 117.40 101.14 123.08 100.38 128.09 97.84 C 127.10 92.34 123.66 87.82 120.69 83.25 C 120.16 83.29 119.11 83.38 118.58 83.42 Z" />
</g>
<g id="#694d3eff">
<path fill="#694d3e" opacity="1.00" d=" M 106.98 88.25 C 109.53 85.25 112.56 82.62 116.12 80.88 C 115.01 83.07 114.12 85.51 112.23 87.17 C 110.54 87.78 108.74 87.96 106.98 88.25 Z" />
</g>
<g id="#6c5856ff">
<path fill="#6c5856" opacity="1.00" d=" M 59.93 86.64 C 61.67 85.18 63.10 83.31 65.11 82.19 C 67.90 82.88 70.14 84.90 72.06 86.94 C 74.03 88.89 73.56 91.89 73.89 94.39 L 73.31 94.00 C 71.91 93.50 70.35 91.96 68.84 92.92 C 67.38 94.59 66.66 96.75 65.73 98.73 C 64.37 99.41 63.04 100.14 61.71 100.87 C 59.32 96.50 60.28 91.40 59.93 86.64 Z" />
</g>
<g id="#a18479ff">
<path fill="#a18479" opacity="1.00" d=" M 118.58 83.42 C 119.11 83.38 120.16 83.29 120.69 83.25 C 123.66 87.82 127.10 92.34 128.09 97.84 C 123.08 100.38 117.40 101.14 111.83 100.94 C 113.55 98.48 115.79 95.99 115.60 92.78 C 115.52 89.39 117.20 86.40 118.58 83.42 Z" />
</g>
<g id="#5c4125ff">
<path fill="#5c4125" opacity="1.00" d=" M 136.64 83.06 C 139.33 87.20 140.67 92.30 139.61 97.19 C 139.36 95.83 139.09 94.48 138.81 93.13 C 137.81 93.24 136.82 93.35 135.82 93.46 C 134.58 96.22 133.03 98.83 131.12 101.17 C 124.25 103.83 116.68 103.34 109.44 103.31 C 110.59 104.86 111.78 106.38 113.00 107.88 C 112.75 108.21 112.27 108.86 112.03 109.19 C 109.21 110.21 106.26 110.76 103.33 111.34 C 104.17 109.11 105.03 106.88 105.93 104.67 C 101.14 104.55 96.50 106.21 91.69 105.89 C 93.97 108.08 96.01 110.49 98.05 112.89 C 97.83 116.36 97.99 119.87 97.27 123.29 C 96.45 126.99 93.71 129.83 92.35 133.31 C 91.65 136.06 91.88 138.93 91.70 141.74 C 89.12 147.11 88.29 152.99 87.35 158.79 C 85.47 161.46 82.86 163.81 82.03 167.08 C 82.15 169.82 84.79 171.54 86.54 173.38 C 86.49 174.67 86.43 175.96 86.38 177.25 C 84.24 177.12 82.09 177.10 79.95 177.11 C 79.43 172.53 77.41 167.18 80.96 163.27 C 86.02 157.45 86.25 149.42 88.33 142.35 C 89.87 137.12 89.28 131.67 89.65 126.31 C 90.12 123.30 90.26 120.22 89.49 117.23 C 91.53 115.75 93.57 114.25 95.60 112.75 C 93.42 110.58 91.24 108.37 89.53 105.80 C 89.59 104.81 90.04 103.90 90.39 102.99 C 97.57 104.67 103.36 99.33 109.10 95.98 C 109.77 98.03 109.20 101.58 112.17 101.76 C 118.32 102.40 124.93 101.52 130.28 98.26 C 131.56 97.08 134.55 95.66 133.47 93.59 C 130.56 91.25 126.68 89.95 124.74 86.54 C 129.05 86.96 133.50 86.32 136.64 83.06 Z" />
</g>
<g id="#836658ff">
<path fill="#836658" opacity="1.00" d=" M 57.00 88.58 C 57.99 87.95 58.97 87.31 59.93 86.64 C 60.28 91.40 59.32 96.50 61.71 100.87 C 63.04 100.14 64.37 99.41 65.73 98.73 C 68.46 97.51 71.06 95.98 73.31 94.00 L 73.89 94.39 C 75.70 95.88 77.40 97.49 79.12 99.08 C 75.99 101.29 73.04 103.73 69.93 105.97 C 73.52 105.42 77.15 105.05 80.69 104.25 C 81.17 104.14 82.11 103.91 82.58 103.79 C 83.69 104.65 84.81 105.51 85.93 106.38 C 84.23 107.75 82.32 108.99 81.10 110.84 C 80.05 113.28 80.48 116.37 78.45 118.34 C 77.41 119.43 76.22 120.36 75.07 121.31 C 74.69 125.33 74.76 129.37 75.23 133.38 C 77.56 134.10 81.73 133.80 81.78 137.17 C 82.49 142.85 77.12 146.67 76.15 151.88 C 76.25 157.99 78.39 164.02 76.98 170.16 C 76.34 170.16 75.69 170.16 75.05 170.14 C 76.16 165.88 74.48 161.87 72.07 158.42 C 65.91 160.40 59.49 161.47 53.01 161.53 C 52.43 160.32 51.84 159.11 51.31 157.88 C 50.62 151.80 49.02 145.85 46.27 140.37 C 45.70 138.98 45.16 137.57 44.70 136.14 C 45.23 131.95 45.75 127.74 45.40 123.51 C 46.89 123.52 48.39 123.52 49.88 123.53 C 49.60 118.85 48.70 113.85 50.95 109.49 C 52.84 109.52 54.72 109.52 56.60 109.57 C 57.19 107.34 57.87 105.13 58.72 102.99 C 58.07 103.06 56.78 103.19 56.13 103.26 C 59.27 98.97 56.83 93.43 57.00 88.58 M 59.36 113.66 C 62.85 113.27 66.56 112.45 69.91 113.97 C 72.81 115.25 76.00 114.91 79.08 114.77 C 78.51 113.31 78.08 111.80 77.86 110.24 C 75.36 110.41 72.85 110.54 70.34 110.67 C 68.27 109.06 66.21 105.97 63.21 107.06 C 60.32 107.86 58.82 110.81 59.36 113.66 Z" />
</g>
<g id="#bcae8fff">
<path fill="#bcae8f" opacity="1.00" d=" M 68.84 92.92 C 70.35 91.96 71.91 93.50 73.31 94.00 C 71.06 95.98 68.46 97.51 65.73 98.73 C 66.66 96.75 67.38 94.59 68.84 92.92 Z" />
<path fill="#bcae8f" opacity="1.00" d=" M 74.40 170.10 L 75.05 170.14 C 75.69 170.16 76.34 170.16 76.98 170.16 C 76.71 171.86 76.35 173.54 75.99 175.23 C 77.07 175.64 78.13 176.09 79.17 176.59 C 76.53 176.41 73.90 176.14 71.29 175.71 C 72.37 173.86 73.31 171.94 74.40 170.10 Z" />
</g>
<g id="#412819ff">
<path fill="#412819" opacity="1.00" d=" M 135.82 93.46 C 136.82 93.35 137.81 93.24 138.81 93.13 C 139.09 94.48 139.36 95.83 139.61 97.19 C 139.41 98.44 139.08 99.68 138.75 100.91 C 136.22 100.61 133.60 100.35 131.12 101.17 C 133.03 98.83 134.58 96.22 135.82 93.46 Z" />
</g>
<g id="#56381eff">
<path fill="#56381e" opacity="1.00" d=" M 80.69 104.25 C 80.78 101.51 81.30 98.77 82.38 96.24 C 83.98 97.54 85.61 98.82 87.21 100.14 C 87.09 100.82 86.86 102.17 86.74 102.84 C 85.35 103.14 83.96 103.45 82.58 103.79 C 82.11 103.91 81.17 104.14 80.69 104.25 Z" />
</g>
<g id="#7a5a3cff">
<path fill="#7a5a3c" opacity="1.00" d=" M 87.21 100.14 C 88.29 101.06 89.35 102.02 90.39 102.99 C 90.04 103.90 89.59 104.81 89.53 105.80 C 91.24 108.37 93.42 110.58 95.60 112.75 C 93.57 114.25 91.53 115.75 89.49 117.23 C 90.26 120.22 90.12 123.30 89.65 126.31 C 86.22 124.65 82.57 123.47 78.77 123.08 C 80.86 127.16 85.90 129.94 85.48 135.03 C 86.55 142.99 79.73 149.20 80.15 157.04 C 80.21 159.14 80.60 161.20 80.96 163.27 C 77.41 167.18 79.43 172.53 79.95 177.11 L 79.17 176.59 C 78.13 176.09 77.07 175.64 75.99 175.23 C 76.35 173.54 76.71 171.86 76.98 170.16 C 78.39 164.02 76.25 157.99 76.15 151.88 C 77.12 146.67 82.49 142.85 81.78 137.17 C 81.73 133.80 77.56 134.10 75.23 133.38 C 74.76 129.37 74.69 125.33 75.07 121.31 C 76.22 120.36 77.41 119.43 78.45 118.34 C 80.48 116.37 80.05 113.28 81.10 110.84 C 82.32 108.99 84.23 107.75 85.93 106.38 C 84.81 105.51 83.69 104.65 82.58 103.79 C 83.96 103.45 85.35 103.14 86.74 102.84 C 86.86 102.17 87.09 100.82 87.21 100.14 Z" />
</g>
<g id="#1e1414ff">
<path fill="#1e1414" opacity="1.00" d=" M 131.12 101.17 C 133.60 100.35 136.22 100.61 138.75 100.91 C 137.99 103.79 137.30 106.70 136.20 109.48 C 132.06 109.27 127.67 108.50 123.79 110.41 C 120.67 112.01 117.43 113.38 113.99 114.10 C 112.37 114.01 110.75 113.87 109.13 113.75 C 110.06 112.21 111.00 110.67 112.03 109.19 C 112.27 108.86 112.75 108.21 113.00 107.88 C 111.78 106.38 110.59 104.86 109.44 103.31 C 116.68 103.34 124.25 103.83 131.12 101.17 Z" />
</g>
<g id="#3d2719ff">
<path fill="#3d2719" opacity="1.00" d=" M 91.69 105.89 C 96.50 106.21 101.14 104.55 105.93 104.67 C 105.03 106.88 104.17 109.11 103.33 111.34 C 106.26 110.76 109.21 110.21 112.03 109.19 C 111.00 110.67 110.06 112.21 109.13 113.75 C 110.75 113.87 112.37 114.01 113.99 114.10 C 112.83 115.33 111.73 116.60 110.64 117.89 C 116.20 117.61 122.66 117.00 126.43 112.36 C 125.77 111.87 124.45 110.90 123.79 110.41 C 127.67 108.50 132.06 109.27 136.20 109.48 C 135.55 111.06 134.84 112.61 134.25 114.22 C 127.98 117.86 120.90 119.37 113.78 120.28 C 109.69 117.29 105.52 114.32 100.73 112.58 C 100.84 111.16 100.96 109.74 101.07 108.32 C 99.86 109.70 98.70 111.16 98.05 112.89 C 96.01 110.49 93.97 108.08 91.69 105.89 Z" />
</g>
<g id="#98817cff">
<path fill="#98817c" opacity="1.00" d=" M 59.36 113.66 C 58.82 110.81 60.32 107.86 63.21 107.06 C 66.21 105.97 68.27 109.06 70.34 110.67 C 72.85 110.54 75.36 110.41 77.86 110.24 C 78.08 111.80 78.51 113.31 79.08 114.77 C 76.00 114.91 72.81 115.25 69.91 113.97 C 66.56 112.45 62.85 113.27 59.36 113.66 Z" />
</g>
<g id="#5f4944ff">
<path fill="#5f4944" opacity="1.00" d=" M 113.99 114.10 C 117.43 113.38 120.67 112.01 123.79 110.41 C 124.45 110.90 125.77 111.87 126.43 112.36 C 122.66 117.00 116.20 117.61 110.64 117.89 C 111.73 116.60 112.83 115.33 113.99 114.10 Z" />
</g>
<g id="#825a50ff">
<path fill="#825a50" opacity="1.00" d=" M 113.78 120.28 C 120.90 119.37 127.98 117.86 134.25 114.22 C 133.27 117.43 132.45 120.70 131.53 123.93 C 131.38 123.29 131.08 122.01 130.93 121.37 C 125.04 122.72 117.93 125.10 112.90 120.38 L 113.78 120.28 Z" />
</g>
<g id="#4b3324ff">
<path fill="#4b3324" opacity="1.00" d=" M 102.90 119.45 C 106.22 119.84 109.55 120.26 112.90 120.38 C 117.93 125.10 125.04 122.72 130.93 121.37 C 131.08 122.01 131.38 123.29 131.53 123.93 C 127.69 124.73 124.02 126.39 120.09 126.70 C 114.30 125.83 108.95 123.24 103.37 121.59 C 103.25 121.06 103.01 119.99 102.90 119.45 Z" />
</g>
<g id="#8a8b9cff">
<path fill="#8a8b9c" opacity="1.00" d=" M 36.42 130.69 C 38.26 127.89 40.35 125.27 42.21 122.50 C 42.43 127.13 43.15 131.76 44.70 136.14 C 45.16 137.57 45.70 138.98 46.27 140.37 C 43.97 140.13 41.47 139.98 39.62 138.41 C 36.97 136.79 37.06 133.37 36.42 130.69 Z" />
</g>
<g id="#725026ff">
<path fill="#725026" opacity="1.00" d=" M 78.77 123.08 C 82.57 123.47 86.22 124.65 89.65 126.31 C 89.28 131.67 89.87 137.12 88.33 142.35 C 86.25 149.42 86.02 157.45 80.96 163.27 C 80.60 161.20 80.21 159.14 80.15 157.04 C 79.73 149.20 86.55 142.99 85.48 135.03 C 85.90 129.94 80.86 127.16 78.77 123.08 Z" />
</g>
<g id="#77788bff">
<path fill="#77788b" opacity="1.00" d=" M 33.95 135.31 C 34.80 133.78 35.56 132.21 36.42 130.69 C 37.06 133.37 36.97 136.79 39.62 138.41 C 41.47 139.98 43.97 140.13 46.27 140.37 C 49.02 145.85 50.62 151.80 51.31 157.88 C 50.95 161.42 50.40 164.95 49.64 168.43 C 49.28 168.07 48.56 167.34 48.21 166.98 C 46.48 162.65 45.71 157.86 42.94 154.00 C 40.73 150.83 38.40 147.66 37.24 143.92 C 36.13 143.48 35.03 143.05 33.92 142.62 L 33.98 141.61 C 34.30 139.52 34.23 137.40 33.95 135.31 Z" />
</g>
<g id="#6c6c7fff">
<path fill="#6c6c7f" opacity="1.00" d=" M 20.13 145.49 C 25.01 142.53 29.94 139.42 33.95 135.31 C 34.23 137.40 34.30 139.52 33.98 141.61 C 32.57 146.16 31.40 150.78 30.37 155.43 C 30.22 152.32 30.01 149.21 29.76 146.11 C 28.60 145.80 27.43 145.49 26.26 145.18 C 25.85 146.92 25.41 148.66 24.94 150.38 C 23.43 148.66 21.94 146.91 20.13 145.49 Z" />
</g>
<g id="#252735ff">
<path fill="#252735" opacity="1.00" d=" M 129.14 135.50 C 130.98 136.77 132.80 138.08 134.82 139.06 C 136.69 145.86 139.94 152.17 143.57 158.19 C 138.49 162.17 133.11 165.85 127.13 168.34 C 128.55 164.44 129.60 160.25 128.90 156.08 C 128.47 151.29 126.00 146.96 125.54 142.20 C 126.39 139.80 127.98 137.75 129.14 135.50 Z" />
</g>
<g id="#363a4aff">
<path fill="#363a4a" opacity="1.00" d=" M 134.82 139.06 C 142.35 139.98 149.40 142.79 156.37 145.65 C 152.64 150.35 148.34 154.56 143.57 158.19 C 139.94 152.17 136.69 145.86 134.82 139.06 Z" />
</g>
<g id="#474b5cff">
<path fill="#474b5c" opacity="1.00" d=" M 30.37 155.43 C 31.40 150.78 32.57 146.16 33.98 141.61 L 33.92 142.62 C 33.91 144.81 33.98 147.00 34.00 149.20 C 35.22 149.41 36.44 149.63 37.66 149.85 C 38.08 153.64 38.35 157.46 37.83 161.26 C 35.22 159.48 32.74 157.51 30.37 155.43 Z" />
</g>
<g id="#3b2518ff">
<path fill="#3b2518" opacity="1.00" d=" M 87.35 158.79 C 88.29 152.99 89.12 147.11 91.70 141.74 C 91.74 148.25 90.23 154.63 90.26 161.14 C 94.14 159.14 98.10 156.92 102.53 156.51 C 106.89 156.12 111.26 155.73 115.63 155.36 C 117.82 155.22 120.54 155.00 121.89 157.14 C 124.32 160.93 123.67 165.72 124.07 170.00 C 123.13 170.38 122.19 170.75 121.25 171.12 C 121.95 166.95 122.46 162.69 121.38 158.53 C 119.30 160.64 117.15 162.69 115.26 164.97 C 115.65 162.61 116.07 160.26 116.46 157.90 C 114.40 159.94 112.87 163.59 109.50 163.47 C 105.06 163.18 100.74 161.92 96.40 160.97 C 95.67 163.58 95.11 166.33 93.62 168.64 C 92.02 168.44 90.45 168.05 88.88 167.70 C 87.73 168.86 86.59 170.03 85.43 171.19 C 84.98 169.85 84.48 168.52 84.25 167.12 C 85.23 164.32 86.76 161.72 87.35 158.79 Z" />
</g>
<g id="#616377ff">
<path fill="#616377" opacity="1.00" d=" M 33.92 142.62 C 35.03 143.05 36.13 143.48 37.24 143.92 C 38.40 147.66 40.73 150.83 42.94 154.00 C 45.71 157.86 46.48 162.65 48.21 166.98 C 44.29 166.02 41.10 163.48 37.83 161.26 C 38.35 157.46 38.08 153.64 37.66 149.85 C 36.44 149.63 35.22 149.41 34.00 149.20 C 33.98 147.00 33.91 144.81 33.92 142.62 Z" />
</g>
<g id="#2c303eff">
<path fill="#2c303e" opacity="1.00" d=" M 26.26 145.18 C 27.43 145.49 28.60 145.80 29.76 146.11 C 30.01 149.21 30.22 152.32 30.37 155.43 C 28.45 153.86 26.69 152.12 24.94 150.38 C 25.41 148.66 25.85 146.92 26.26 145.18 Z" />
</g>
<g id="#977b6fff">
<path fill="#977b6f" opacity="1.00" d=" M 51.31 157.88 C 51.84 159.11 52.43 160.32 53.01 161.53 C 59.49 161.47 65.91 160.40 72.07 158.42 C 74.48 161.87 76.16 165.88 75.05 170.14 L 74.40 170.10 C 68.95 169.37 63.83 167.33 58.62 165.69 C 56.22 164.79 53.79 165.84 51.60 166.81 C 54.07 167.10 56.55 167.33 59.03 167.51 C 56.93 168.21 54.86 168.98 52.75 169.64 C 51.67 169.34 50.67 168.83 49.64 168.43 C 50.40 164.95 50.95 161.42 51.31 157.88 Z" />
</g>
<g id="#4c3421ff">
<path fill="#4c3421" opacity="1.00" d=" M 109.50 163.47 C 112.87 163.59 114.40 159.94 116.46 157.90 C 116.07 160.26 115.65 162.61 115.26 164.97 C 117.15 162.69 119.30 160.64 121.38 158.53 C 122.46 162.69 121.95 166.95 121.25 171.12 C 110.21 175.53 98.26 177.59 86.38 177.25 C 86.43 175.96 86.49 174.67 86.54 173.38 C 84.79 171.54 82.15 169.82 82.03 167.08 C 82.86 163.81 85.47 161.46 87.35 158.79 C 86.76 161.72 85.23 164.32 84.25 167.12 C 84.48 168.52 84.98 169.85 85.43 171.19 C 86.59 170.03 87.73 168.86 88.88 167.70 C 90.45 168.05 92.02 168.44 93.62 168.64 C 95.11 166.33 95.67 163.58 96.40 160.97 C 100.74 161.92 105.06 163.18 109.50 163.47 Z" />
</g>
<g id="#d7d3b5ff">
<path fill="#d7d3b5" opacity="1.00" d=" M 51.60 166.81 C 53.79 165.84 56.22 164.79 58.62 165.69 C 63.83 167.33 68.95 169.37 74.40 170.10 C 73.31 171.94 72.37 173.86 71.29 175.71 C 68.26 174.99 65.27 174.13 62.25 173.35 C 61.83 171.31 61.48 169.25 61.18 167.18 C 60.48 168.91 59.76 170.64 59.02 172.35 C 56.92 171.48 54.81 170.60 52.75 169.64 C 54.86 168.98 56.93 168.21 59.03 167.51 C 56.55 167.33 54.07 167.10 51.60 166.81 Z" />
</g>
<g id="#ebe7def9">
<path fill="#ebe7de" opacity="0.98" d=" M 59.02 172.35 C 59.76 170.64 60.48 168.91 61.18 167.18 C 61.48 169.25 61.83 171.31 62.25 173.35 C 61.45 173.10 59.83 172.60 59.02 172.35 Z" />
</g>
</svg>
