<?xml version="1.0" encoding="UTF-8" ?>
<!DOCTYPE svg PUBLIC "-//W3C//DTD SVG 1.1//EN" "http://www.w3.org/Graphics/SVG/1.1/DTD/svg11.dtd">
<svg width="178pt" height="178pt" viewBox="0 0 178 178" version="1.1" xmlns="http://www.w3.org/2000/svg">
<g id="#f1ebe8ff">
<path fill="#f1ebe8" opacity="1.00" d=" M 70.00 14.48 C 74.69 13.98 79.22 11.70 84.00 12.49 C 88.46 12.15 92.72 13.64 97.10 14.21 C 100.71 14.46 103.48 17.12 106.89 18.05 C 111.06 20.70 116.76 20.87 119.86 25.14 C 121.65 26.82 122.47 29.13 124.00 30.99 C 124.20 33.93 127.51 34.82 128.84 37.13 C 130.28 40.20 133.00 42.59 133.88 45.89 C 135.41 49.74 137.50 53.41 139.57 57.01 C 139.55 62.01 140.86 66.93 139.91 71.96 C 140.35 75.60 138.43 78.74 137.48 82.12 C 136.41 83.25 137.12 85.20 135.61 85.93 C 135.94 90.95 135.81 96.09 135.13 101.09 C 134.23 102.28 133.73 103.70 133.27 105.11 C 131.92 106.59 130.17 107.59 128.84 109.09 C 127.63 114.62 127.69 120.56 124.57 125.45 C 124.23 128.24 121.19 130.13 121.87 133.10 C 120.97 140.95 121.15 148.83 122.65 156.60 C 123.64 156.12 124.91 155.23 125.96 156.11 C 131.14 156.69 136.10 158.40 140.92 160.08 C 140.48 160.41 139.59 161.07 139.15 161.40 C 134.12 159.87 129.11 157.90 123.81 157.80 L 122.50 158.90 C 121.14 158.40 120.49 157.48 120.53 156.14 C 120.43 153.59 119.78 151.09 119.98 148.54 C 119.17 142.95 120.37 137.32 120.03 131.70 L 119.92 130.54 C 122.05 127.54 123.27 124.07 124.82 120.76 C 126.05 116.43 126.18 111.80 127.53 107.54 C 130.16 106.34 131.69 103.93 132.94 101.45 C 133.70 99.89 133.75 98.06 134.03 96.36 C 133.53 92.87 133.65 89.36 133.77 85.85 C 133.90 85.56 134.17 84.97 134.30 84.67 C 135.47 82.25 136.68 79.84 137.12 77.16 C 139.31 70.76 138.14 63.95 137.48 57.40 C 135.74 53.57 133.43 50.04 131.95 46.09 C 130.52 42.66 128.07 39.85 126.29 36.62 C 124.62 35.69 122.89 34.71 122.54 32.63 C 121.98 30.66 120.41 29.24 119.51 27.43 C 117.62 24.90 115.15 23.34 112.16 22.45 C 107.74 20.45 103.17 18.76 98.93 16.39 C 95.98 16.51 93.28 15.09 90.31 15.25 C 86.22 13.65 81.09 13.70 76.90 15.31 C 74.16 16.21 70.49 15.49 68.70 18.20 C 67.19 18.50 66.33 19.92 64.97 20.52 C 63.03 21.91 60.91 22.92 58.79 23.98 C 54.91 26.68 51.39 29.83 47.69 32.77 C 44.97 37.43 42.02 42.02 40.23 47.14 C 35.53 57.16 36.15 68.47 35.99 79.26 C 36.13 82.59 36.14 85.92 36.92 89.18 C 37.67 92.88 38.54 96.58 39.61 100.21 C 41.66 102.51 43.27 105.38 46.27 106.47 C 47.87 110.25 49.69 113.98 50.84 117.92 C 52.26 119.61 53.72 121.27 54.90 123.13 C 55.86 124.72 57.45 125.97 57.37 127.99 C 57.46 128.44 57.62 129.33 57.71 129.78 C 59.63 138.51 58.85 147.60 57.43 156.35 C 54.60 157.48 55.80 161.67 53.06 163.20 C 48.94 162.01 44.73 162.58 40.55 163.04 C 39.45 162.85 38.75 161.82 37.81 161.30 C 42.83 161.09 47.84 160.35 52.88 160.86 C 54.33 158.98 53.44 155.92 55.76 154.74 C 57.30 148.08 57.25 140.80 56.74 133.88 C 56.64 131.44 55.16 129.27 55.27 126.83 C 53.53 123.61 50.74 121.24 48.77 118.19 C 47.92 114.40 46.18 110.98 44.62 107.44 C 41.43 106.91 40.52 103.37 38.32 101.55 C 35.93 96.18 35.32 89.68 33.97 84.11 C 33.88 73.34 33.56 62.46 36.44 52.00 C 38.74 44.42 42.40 37.34 46.80 30.77 C 50.90 28.15 54.25 24.72 58.22 21.99 C 62.36 19.87 66.25 17.23 70.00 14.48 Z" />
</g>
<g id="#60514cff">
<path fill="#60514c" opacity="1.00" d=" M 76.90 15.31 C 81.09 13.70 86.22 13.65 90.31 15.25 C 89.06 15.36 87.81 15.47 86.56 15.57 C 86.49 15.75 86.34 16.10 86.27 16.28 C 87.85 16.25 89.64 15.89 90.44 17.68 C 86.51 18.19 82.91 19.89 79.12 20.92 C 78.18 20.35 77.44 19.53 76.75 18.70 C 76.71 17.85 76.69 17.01 76.69 16.16 C 74.07 17.01 71.43 17.82 68.70 18.20 C 70.49 15.49 74.16 16.21 76.90 15.31 M 81.10 16.26 C 81.13 17.77 83.88 17.05 84.85 16.71 C 84.63 15.35 82.04 15.70 81.10 16.26 Z" />
</g>
<g id="#3a2b21ff">
<path fill="#3a2b21" opacity="1.00" d=" M 86.56 15.57 C 87.81 15.47 89.06 15.36 90.31 15.25 C 93.28 15.09 95.98 16.51 98.93 16.39 C 103.17 18.76 107.74 20.45 112.16 22.45 C 109.26 23.18 106.76 24.84 104.06 26.03 C 100.08 26.54 96.07 26.34 92.08 26.71 C 93.38 25.84 94.70 25.01 95.96 24.09 C 93.18 23.74 90.44 24.48 87.66 24.36 C 84.73 24.20 82.30 26.17 79.65 27.10 C 80.12 26.25 80.38 25.34 80.44 24.39 C 79.14 24.10 79.18 23.03 79.34 21.94 C 75.77 21.76 73.46 25.16 69.95 25.17 C 70.68 22.82 72.33 20.94 73.85 19.06 C 70.55 18.33 68.18 21.30 65.16 22.02 C 65.11 21.64 65.01 20.89 64.97 20.52 C 66.33 19.92 67.19 18.50 68.70 18.20 C 71.43 17.82 74.07 17.01 76.69 16.16 C 76.69 17.01 76.71 17.85 76.75 18.70 C 77.44 19.53 78.18 20.35 79.12 20.92 C 82.91 19.89 86.51 18.19 90.44 17.68 C 89.64 15.89 87.85 16.25 86.27 16.28 C 86.34 16.10 86.49 15.75 86.56 15.57 M 82.41 22.39 C 84.00 25.00 87.23 21.67 89.58 22.29 C 90.89 21.06 92.37 20.12 94.09 19.53 C 93.86 19.30 93.40 18.84 93.17 18.61 C 89.33 19.05 85.59 20.13 82.41 22.39 Z" />
</g>
<g id="#857a74ff">
<path fill="#857a74" opacity="1.00" d=" M 81.10 16.26 C 82.04 15.70 84.63 15.35 84.85 16.71 C 83.88 17.05 81.13 17.77 81.10 16.26 Z" />
</g>
<g id="#18130eff">
<path fill="#18130e" opacity="1.00" d=" M 65.16 22.02 C 68.18 21.30 70.55 18.33 73.85 19.06 C 72.33 20.94 70.68 22.82 69.95 25.17 C 73.46 25.16 75.77 21.76 79.34 21.94 C 79.18 23.03 79.14 24.10 80.44 24.39 C 80.38 25.34 80.12 26.25 79.65 27.10 C 82.30 26.17 84.73 24.20 87.66 24.36 C 90.44 24.48 93.18 23.74 95.96 24.09 C 94.70 25.01 93.38 25.84 92.08 26.71 C 96.07 26.34 100.08 26.54 104.06 26.03 C 106.76 24.84 109.26 23.18 112.16 22.45 C 115.15 23.34 117.62 24.90 119.51 27.43 C 118.50 28.40 117.46 29.35 116.52 30.38 C 117.05 31.53 117.69 32.63 118.46 33.64 C 119.88 33.61 121.19 33.01 122.54 32.63 C 122.89 34.71 124.62 35.69 126.29 36.62 C 128.07 39.85 130.52 42.66 131.95 46.09 C 130.22 45.84 128.47 45.63 126.81 45.11 C 125.17 41.59 120.69 41.18 119.45 37.49 C 118.91 37.25 117.81 36.78 117.27 36.55 C 117.65 36.33 118.41 35.88 118.79 35.66 C 116.90 33.86 115.18 31.08 112.26 31.13 C 110.27 31.29 108.27 31.46 106.29 31.69 C 106.13 30.06 108.45 30.40 108.94 29.10 C 105.90 28.17 102.43 26.29 99.34 28.06 C 96.90 28.63 94.27 27.54 91.90 28.60 C 91.52 30.44 90.10 31.70 88.49 32.54 C 86.14 34.05 85.99 37.24 83.86 38.94 C 82.75 39.91 81.80 41.05 81.09 42.35 C 80.78 42.72 80.16 43.46 79.85 43.83 C 76.84 45.56 75.43 48.83 73.52 51.56 C 71.53 54.51 69.00 57.04 66.64 59.69 C 65.32 60.76 63.98 61.81 62.73 62.96 C 61.85 63.75 60.98 64.64 60.77 65.86 C 59.63 70.56 59.28 75.43 58.04 80.11 C 56.96 82.77 55.51 85.30 54.89 88.13 C 54.14 91.08 53.18 93.96 52.51 96.93 C 52.42 95.30 52.28 93.67 51.43 92.23 C 50.73 89.95 48.84 88.81 46.69 88.13 C 44.77 84.92 44.46 81.08 43.20 77.61 C 42.44 75.76 40.01 76.92 38.52 76.69 C 37.50 77.36 36.74 78.33 35.99 79.26 C 36.15 68.47 35.53 57.16 40.23 47.14 C 42.02 42.02 44.97 37.43 47.69 32.77 C 51.39 29.83 54.91 26.68 58.79 23.98 C 60.91 22.92 63.03 21.91 64.97 20.52 C 65.01 20.89 65.11 21.64 65.16 22.02 Z" />
<path fill="#18130e" opacity="1.00" d=" M 46.27 106.47 C 48.00 106.29 49.75 106.31 51.49 106.35 C 53.14 111.81 53.47 117.60 54.90 123.13 C 53.72 121.27 52.26 119.61 50.84 117.92 C 49.69 113.98 47.87 110.25 46.27 106.47 Z" />
<path fill="#18130e" opacity="1.00" d=" M 53.06 163.20 C 55.80 161.67 54.60 157.48 57.43 156.35 C 59.96 158.12 60.13 161.65 62.62 163.42 C 63.60 164.12 64.60 164.81 65.55 165.54 C 67.72 168.68 70.28 171.72 73.94 173.12 C 75.65 173.57 76.39 175.25 77.03 176.73 C 64.12 174.62 51.42 170.39 40.55 163.04 C 44.73 162.58 48.94 162.01 53.06 163.20 Z" />
<path fill="#18130e" opacity="1.00" d=" M 122.50 158.90 L 123.81 157.80 C 129.11 157.90 134.12 159.87 139.15 161.40 C 136.18 163.89 132.51 165.53 129.29 167.64 C 125.95 165.54 122.83 163.07 121.66 159.12 C 121.87 159.07 122.29 158.96 122.50 158.90 Z" />
<path fill="#18130e" opacity="1.00" d=" M 118.07 172.30 C 117.38 169.02 118.73 164.81 122.72 164.97 C 122.39 165.36 121.73 166.14 121.39 166.53 C 121.56 166.86 121.89 167.52 122.05 167.85 C 124.05 167.62 126.13 167.12 128.02 168.16 C 124.97 169.84 121.40 170.95 118.07 172.30 Z" />
</g>
<g id="#76695fff">
<path fill="#76695f" opacity="1.00" d=" M 82.41 22.39 C 85.59 20.13 89.33 19.05 93.17 18.61 C 93.40 18.84 93.86 19.30 94.09 19.53 C 92.37 20.12 90.89 21.06 89.58 22.29 C 87.23 21.67 84.00 25.00 82.41 22.39 Z" />
</g>
<g id="#382418ff">
<path fill="#382418" opacity="1.00" d=" M 99.34 28.06 C 102.43 26.29 105.90 28.17 108.94 29.10 C 108.45 30.40 106.13 30.06 106.29 31.69 C 108.27 31.46 110.27 31.29 112.26 31.13 C 115.18 31.08 116.90 33.86 118.79 35.66 C 118.41 35.88 117.65 36.33 117.27 36.55 C 117.81 36.78 118.91 37.25 119.45 37.49 C 120.69 41.18 125.17 41.59 126.81 45.11 C 128.47 45.63 130.22 45.84 131.95 46.09 C 133.43 50.04 135.74 53.57 137.48 57.40 C 138.14 63.95 139.31 70.76 137.12 77.16 C 136.50 73.77 138.73 69.31 135.16 67.03 C 134.54 65.08 133.65 63.26 132.04 61.95 C 131.34 63.05 131.70 64.33 131.69 65.54 C 130.00 65.48 128.32 65.15 126.66 64.84 C 126.69 59.48 123.57 54.76 123.42 49.41 C 123.33 45.65 120.76 42.66 117.64 40.86 C 116.15 39.59 114.86 38.13 113.54 36.69 C 108.50 34.74 102.92 33.87 97.50 34.66 C 95.52 35.56 93.38 36.00 91.35 36.75 C 87.55 37.84 84.64 40.72 81.09 42.35 C 81.80 41.05 82.75 39.91 83.86 38.94 C 85.99 37.24 86.14 34.05 88.49 32.54 C 90.10 31.70 91.52 30.44 91.90 28.60 C 94.27 27.54 96.90 28.63 99.34 28.06 Z" />
</g>
<g id="#3f3831ff">
<path fill="#3f3831" opacity="1.00" d=" M 116.52 30.38 C 117.46 29.35 118.50 28.40 119.51 27.43 C 120.41 29.24 121.98 30.66 122.54 32.63 C 121.19 33.01 119.88 33.61 118.46 33.64 C 117.69 32.63 117.05 31.53 116.52 30.38 Z" />
</g>
<g id="#b17b54ff">
<path fill="#b17b54" opacity="1.00" d=" M 97.50 34.66 C 102.92 33.87 108.50 34.74 113.54 36.69 C 114.86 38.13 116.15 39.59 117.64 40.86 C 117.53 41.40 117.32 42.49 117.21 43.04 C 113.26 40.74 109.02 37.55 104.21 39.32 C 103.11 38.51 102.06 37.64 101.01 36.78 C 98.15 38.54 94.98 41.31 96.37 44.96 C 95.32 45.55 93.67 45.74 93.19 46.94 C 95.78 49.23 93.48 52.24 93.04 54.91 C 92.61 57.90 87.58 58.00 88.31 61.41 C 88.35 62.73 88.58 64.04 88.66 65.36 C 89.82 67.40 91.88 68.74 93.27 70.63 C 94.35 73.79 94.60 77.17 95.68 80.34 C 96.57 84.39 97.40 88.52 97.56 92.68 C 96.95 94.94 95.34 96.76 94.34 98.85 C 94.62 100.26 96.32 101.02 97.63 100.85 C 97.45 101.30 97.08 102.21 96.89 102.67 C 96.21 104.45 95.48 106.24 95.09 108.12 C 95.80 108.83 96.72 109.43 97.78 109.36 C 99.16 107.38 102.05 109.03 102.78 110.77 C 100.89 112.33 98.50 112.76 96.24 113.49 C 96.91 114.04 97.56 114.62 98.20 115.21 C 96.18 115.64 94.02 115.78 92.03 115.12 C 90.65 114.26 91.55 112.29 92.78 111.82 C 91.43 111.65 90.31 111.07 89.43 110.09 C 90.05 108.80 90.11 107.21 91.09 106.11 C 91.93 106.28 92.79 106.35 93.65 106.31 C 93.51 104.10 93.90 101.81 93.11 99.68 C 92.38 98.25 92.48 96.67 93.18 95.25 C 94.58 88.75 92.92 82.13 92.27 75.65 C 89.64 71.28 85.79 67.66 80.65 66.68 C 80.20 66.63 79.30 66.55 78.85 66.50 C 78.68 64.23 78.17 61.72 79.84 59.84 C 81.85 57.48 81.25 54.31 82.39 51.59 C 81.67 50.62 80.05 49.80 80.48 48.38 C 81.58 46.12 82.77 43.20 85.61 42.87 C 88.68 42.29 90.13 39.28 91.35 36.75 C 93.38 36.00 95.52 35.56 97.50 34.66 Z" />
</g>
<g id="#9b5e38ff">
<path fill="#9b5e38" opacity="1.00" d=" M 81.09 42.35 C 84.64 40.72 87.55 37.84 91.35 36.75 C 90.13 39.28 88.68 42.29 85.61 42.87 C 82.77 43.20 81.58 46.12 80.48 48.38 C 80.05 49.80 81.67 50.62 82.39 51.59 C 81.25 54.31 81.85 57.48 79.84 59.84 C 78.17 61.72 78.68 64.23 78.85 66.50 C 76.83 66.41 74.79 66.53 72.80 66.13 C 74.10 60.74 78.44 56.08 77.47 50.31 C 78.24 48.14 79.24 46.05 79.85 43.83 C 80.16 43.46 80.78 42.72 81.09 42.35 Z" />
</g>
<g id="#c59a74ff">
<path fill="#c59a74" opacity="1.00" d=" M 96.37 44.96 C 94.98 41.31 98.15 38.54 101.01 36.78 C 102.06 37.64 103.11 38.51 104.21 39.32 C 109.02 37.55 113.26 40.74 117.21 43.04 C 121.92 49.00 123.81 56.58 125.50 63.84 C 126.32 74.67 129.88 85.27 128.36 96.20 C 128.30 96.84 128.18 98.12 128.12 98.76 C 129.52 99.99 131.32 100.60 132.94 101.45 C 131.69 103.93 130.16 106.34 127.53 107.54 C 126.18 111.80 126.05 116.43 124.82 120.76 C 123.27 124.07 122.05 127.54 119.92 130.54 C 118.25 130.72 116.54 131.03 115.63 132.62 C 114.40 134.70 112.02 135.22 109.89 135.92 C 106.42 136.71 105.08 140.88 101.61 141.63 C 98.70 142.42 97.22 139.05 95.55 137.30 C 97.47 134.88 100.20 135.56 102.63 136.65 C 103.74 134.74 104.43 132.62 104.86 130.46 C 103.18 130.19 101.48 130.14 99.78 130.25 C 101.70 129.15 103.63 127.97 104.66 125.93 C 106.29 126.37 107.92 126.82 109.50 127.43 C 109.38 129.11 107.47 131.20 109.10 132.59 C 111.56 132.40 114.28 131.82 115.52 129.44 C 117.08 126.63 120.70 124.76 120.68 121.27 C 120.50 118.50 123.59 116.41 122.42 113.52 C 121.91 113.23 120.88 112.64 120.37 112.35 C 119.76 110.83 121.34 109.41 121.68 107.95 C 121.36 106.76 120.89 105.62 120.53 104.44 C 122.28 103.63 124.78 103.52 125.20 101.21 C 127.30 95.31 128.82 87.79 124.31 82.68 C 122.95 81.79 121.48 82.67 120.17 83.15 C 118.50 83.91 116.70 83.00 115.01 82.77 C 113.72 83.21 112.53 83.85 111.27 84.36 C 110.73 83.99 109.66 83.25 109.12 82.88 C 110.86 81.39 113.18 81.55 115.31 81.34 C 117.06 81.37 118.68 80.68 120.28 80.05 C 121.20 78.33 120.81 76.09 119.16 74.94 C 116.93 71.88 112.81 72.62 109.55 72.03 C 110.18 71.16 111.02 70.56 112.09 70.24 C 115.93 70.24 120.21 69.53 123.15 72.55 C 125.52 72.33 124.07 69.76 123.26 68.65 C 120.70 66.81 117.70 66.33 114.73 67.35 C 116.82 65.06 120.58 64.90 121.84 61.79 C 123.61 59.37 121.66 56.50 121.00 54.03 C 119.35 48.75 115.93 43.62 110.65 41.47 C 107.97 40.79 105.12 41.66 102.59 42.56 C 102.42 43.45 102.60 44.42 102.22 45.26 C 100.80 45.48 98.64 45.16 98.44 47.13 C 99.75 49.03 99.97 51.22 99.42 53.42 C 100.72 54.23 103.06 53.75 103.72 55.20 C 102.73 58.68 97.67 59.60 97.34 63.50 C 96.25 64.59 94.72 65.24 93.96 66.65 C 95.52 66.65 97.65 65.46 98.70 67.13 C 98.56 69.04 96.61 70.13 96.17 71.92 C 95.59 74.64 96.43 77.37 96.83 80.05 L 95.68 80.34 C 94.60 77.17 94.35 73.79 93.27 70.63 C 91.88 68.74 89.82 67.40 88.66 65.36 C 88.58 64.04 88.35 62.73 88.31 61.41 C 87.58 58.00 92.61 57.90 93.04 54.91 C 93.48 52.24 95.78 49.23 93.19 46.94 C 93.67 45.74 95.32 45.55 96.37 44.96 Z" />
</g>
<g id="#d0a885ff">
<path fill="#d0a885" opacity="1.00" d=" M 102.59 42.56 C 105.12 41.66 107.97 40.79 110.65 41.47 C 115.93 43.62 119.35 48.75 121.00 54.03 C 121.66 56.50 123.61 59.37 121.84 61.79 C 120.58 64.90 116.82 65.06 114.73 67.35 C 112.43 67.45 110.13 67.53 107.85 67.85 C 105.86 68.39 103.81 68.46 101.78 68.74 C 101.31 70.31 101.41 71.99 101.22 73.61 C 102.49 73.46 103.72 73.06 104.97 72.79 C 105.39 72.99 106.22 73.37 106.63 73.56 C 105.22 74.34 103.79 75.10 102.44 75.99 C 99.07 77.26 100.68 81.41 98.90 83.79 C 97.14 83.74 97.47 81.20 96.83 80.05 C 96.43 77.37 95.59 74.64 96.17 71.92 C 96.61 70.13 98.56 69.04 98.70 67.13 C 97.65 65.46 95.52 66.65 93.96 66.65 C 94.72 65.24 96.25 64.59 97.34 63.50 C 97.67 59.60 102.73 58.68 103.72 55.20 C 103.06 53.75 100.72 54.23 99.42 53.42 C 99.97 51.22 99.75 49.03 98.44 47.13 C 98.64 45.16 100.80 45.48 102.22 45.26 C 102.60 44.42 102.42 43.45 102.59 42.56 Z" />
</g>
<g id="#7a4e31ff">
<path fill="#7a4e31" opacity="1.00" d=" M 117.64 40.86 C 120.76 42.66 123.33 45.65 123.42 49.41 C 123.57 54.76 126.69 59.48 126.66 64.84 C 127.45 69.28 127.34 73.82 128.60 78.19 C 129.47 82.03 129.73 85.96 129.41 89.88 C 131.86 90.14 132.69 87.49 133.77 85.85 C 133.65 89.36 133.53 92.87 134.03 96.36 C 133.46 94.90 132.80 93.47 132.13 92.05 C 130.56 93.09 130.30 95.01 129.35 96.48 C 129.10 96.41 128.61 96.27 128.36 96.20 C 129.88 85.27 126.32 74.67 125.50 63.84 C 123.81 56.58 121.92 49.00 117.21 43.04 C 117.32 42.49 117.53 41.40 117.64 40.86 Z" />
</g>
<g id="#7f3f1eff">
<path fill="#7f3f1e" opacity="1.00" d=" M 73.52 51.56 C 75.43 48.83 76.84 45.56 79.85 43.83 C 79.24 46.05 78.24 48.14 77.47 50.31 C 78.44 56.08 74.10 60.74 72.80 66.13 C 70.51 65.41 68.33 64.27 66.50 62.70 C 66.52 61.70 66.57 60.69 66.64 59.69 C 69.00 57.04 71.53 54.51 73.52 51.56 Z" />
</g>
<g id="#672f15ff">
<path fill="#672f15" opacity="1.00" d=" M 62.73 62.96 C 63.98 61.81 65.32 60.76 66.64 59.69 C 66.57 60.69 66.52 61.70 66.50 62.70 C 68.33 64.27 70.51 65.41 72.80 66.13 C 74.79 66.53 76.83 66.41 78.85 66.50 C 79.30 66.55 80.20 66.63 80.65 66.68 L 80.15 68.07 C 74.31 69.14 68.87 64.79 63.03 67.00 C 62.63 65.69 62.53 64.34 62.73 62.96 Z" />
</g>
<g id="#1a140fff">
<path fill="#1a140f" opacity="1.00" d=" M 132.04 61.95 C 133.65 63.26 134.54 65.08 135.16 67.03 C 138.73 69.31 136.50 73.77 137.12 77.16 C 136.68 79.84 135.47 82.25 134.30 84.67 C 132.60 83.98 132.42 82.29 132.21 80.72 C 130.64 80.58 129.50 79.36 128.60 78.19 C 127.34 73.82 127.45 69.28 126.66 64.84 C 128.32 65.15 130.00 65.48 131.69 65.54 C 131.70 64.33 131.34 63.05 132.04 61.95 Z" />
</g>
<g id="#3a2417ff">
<path fill="#3a2417" opacity="1.00" d=" M 60.77 65.86 C 60.98 64.64 61.85 63.75 62.73 62.96 C 62.53 64.34 62.63 65.69 63.03 67.00 C 68.87 64.79 74.31 69.14 80.15 68.07 L 79.73 69.07 C 76.95 69.64 74.02 68.90 71.17 69.12 C 67.20 68.86 63.18 70.72 60.82 73.92 C 59.70 78.30 58.69 82.72 56.81 86.86 C 56.33 87.18 55.37 87.81 54.89 88.13 C 55.51 85.30 56.96 82.77 58.04 80.11 C 59.28 75.43 59.63 70.56 60.77 65.86 Z" />
</g>
<g id="#7b4e30ff">
<path fill="#7b4e30" opacity="1.00" d=" M 114.73 67.35 C 117.70 66.33 120.70 66.81 123.26 68.65 C 124.07 69.76 125.52 72.33 123.15 72.55 C 120.21 69.53 115.93 70.24 112.09 70.24 C 110.38 70.24 108.66 70.28 106.95 70.22 C 107.18 69.62 107.63 68.44 107.85 67.85 C 110.13 67.53 112.43 67.45 114.73 67.35 Z" />
</g>
<g id="#80401fff">
<path fill="#80401f" opacity="1.00" d=" M 80.65 66.68 C 85.79 67.66 89.64 71.28 92.27 75.65 C 92.92 82.13 94.58 88.75 93.18 95.25 C 92.48 96.67 92.38 98.25 93.11 99.68 C 93.90 101.81 93.51 104.10 93.65 106.31 C 92.79 106.35 91.93 106.28 91.09 106.11 C 90.11 107.21 90.05 108.80 89.43 110.09 C 90.31 111.07 91.43 111.65 92.78 111.82 C 91.55 112.29 90.65 114.26 92.03 115.12 C 94.02 115.78 96.18 115.64 98.20 115.21 C 99.82 115.32 101.44 115.35 103.06 115.30 C 102.84 115.41 102.42 115.63 102.21 115.74 C 97.95 114.62 94.15 118.04 89.92 117.19 C 86.30 116.40 82.89 122.17 79.93 118.24 C 79.77 115.20 76.93 113.72 74.94 111.86 C 75.05 111.50 75.26 110.79 75.36 110.43 C 78.19 109.39 79.40 105.37 82.80 106.03 C 82.32 107.02 81.79 107.99 81.31 108.98 C 83.42 108.44 85.70 107.26 86.12 104.90 C 85.64 102.15 82.79 100.84 81.15 98.84 C 78.78 96.89 79.91 93.61 79.15 91.02 C 77.27 89.71 75.93 87.59 75.86 85.29 C 77.59 83.68 79.97 83.12 81.97 81.95 C 81.52 83.39 80.95 85.13 82.17 86.39 C 86.10 87.71 90.93 83.55 89.63 79.43 C 89.02 77.59 88.29 75.31 86.13 74.85 C 84.12 73.75 82.15 74.81 80.39 75.83 C 80.99 73.68 78.04 74.26 76.81 74.00 C 73.32 71.97 69.49 73.37 65.82 73.95 C 65.47 71.01 69.19 70.37 71.17 69.12 C 74.02 68.90 76.95 69.64 79.73 69.07 L 80.15 68.07 L 80.65 66.68 M 69.80 72.13 C 73.14 72.19 76.66 72.69 79.94 71.82 C 78.01 68.44 71.56 68.67 69.80 72.13 M 87.20 98.30 C 85.83 100.10 88.14 102.11 89.86 102.37 C 90.82 102.80 93.05 102.83 92.13 101.07 C 91.49 99.01 89.13 98.33 87.20 98.30 Z" />
</g>
<g id="#9f7253ff">
<path fill="#9f7253" opacity="1.00" d=" M 101.78 68.74 C 103.81 68.46 105.86 68.39 107.85 67.85 C 107.63 68.44 107.18 69.62 106.95 70.22 C 108.66 70.28 110.38 70.24 112.09 70.24 C 111.02 70.56 110.18 71.16 109.55 72.03 C 112.81 72.62 116.93 71.88 119.16 74.94 C 117.83 74.91 116.52 74.80 115.21 74.60 C 112.71 72.68 109.53 72.91 106.63 73.56 C 106.22 73.37 105.39 72.99 104.97 72.79 C 103.72 73.06 102.49 73.46 101.22 73.61 C 101.41 71.99 101.31 70.31 101.78 68.74 Z" />
</g>
<g id="#622a11ff">
<path fill="#622a11" opacity="1.00" d=" M 60.82 73.92 C 63.18 70.72 67.20 68.86 71.17 69.12 C 69.19 70.37 65.47 71.01 65.82 73.95 C 69.49 73.37 73.32 71.97 76.81 74.00 C 75.35 75.14 73.40 75.10 71.80 75.93 C 71.48 76.27 70.84 76.96 70.52 77.31 C 70.53 78.64 70.82 80.00 70.48 81.30 C 68.21 80.99 65.90 80.27 63.60 80.66 C 60.42 81.60 59.55 85.29 56.81 86.86 C 58.69 82.72 59.70 78.30 60.82 73.92 Z" />
</g>
<g id="#a16c47ff">
<path fill="#a16c47" opacity="1.00" d=" M 69.80 72.13 C 71.56 68.67 78.01 68.44 79.94 71.82 C 76.66 72.69 73.14 72.19 69.80 72.13 Z" />
</g>
<g id="#8d512fff">
<path fill="#8d512f" opacity="1.00" d=" M 106.63 73.56 C 109.53 72.91 112.71 72.68 115.21 74.60 C 113.34 74.43 111.44 74.59 109.81 75.57 C 108.38 76.35 106.20 76.64 106.24 78.71 C 108.65 79.34 111.04 81.27 113.60 80.47 C 114.03 80.68 114.88 81.12 115.31 81.34 C 113.18 81.55 110.86 81.39 109.12 82.88 C 109.66 83.25 110.73 83.99 111.27 84.36 C 108.00 86.40 104.21 84.10 101.62 81.95 C 101.79 79.94 102.99 78.10 102.44 75.99 C 103.79 75.10 105.22 74.34 106.63 73.56 Z" />
</g>
<g id="#be9b7eff">
<path fill="#be9b7e" opacity="1.00" d=" M 71.80 75.93 C 73.40 75.10 75.35 75.14 76.81 74.00 C 78.04 74.26 80.99 73.68 80.39 75.83 L 80.07 76.79 C 80.64 76.98 81.78 77.37 82.34 77.56 C 81.09 78.57 79.03 77.69 78.35 79.48 C 75.67 79.76 72.17 79.20 71.80 75.93 Z" />
</g>
<g id="#392417ff">
<path fill="#392417" opacity="1.00" d=" M 80.39 75.83 C 82.15 74.81 84.12 73.75 86.13 74.85 C 86.58 77.20 86.41 79.59 85.44 81.80 C 84.72 81.32 84.09 80.63 83.22 80.42 C 81.65 79.84 80.03 79.52 78.35 79.48 C 79.03 77.69 81.09 78.57 82.34 77.56 C 81.78 77.37 80.64 76.98 80.07 76.79 L 80.39 75.83 Z" />
<path fill="#392417" opacity="1.00" d=" M 128.60 78.19 C 129.50 79.36 130.64 80.58 132.21 80.72 C 132.42 82.29 132.60 83.98 134.30 84.67 C 134.17 84.97 133.90 85.56 133.77 85.85 C 132.69 87.49 131.86 90.14 129.41 89.88 C 129.73 85.96 129.47 82.03 128.60 78.19 Z" />
</g>
<g id="#602911ff">
<path fill="#602911" opacity="1.00" d=" M 86.13 74.85 C 88.29 75.31 89.02 77.59 89.63 79.43 C 90.93 83.55 86.10 87.71 82.17 86.39 C 80.95 85.13 81.52 83.39 81.97 81.95 C 82.28 81.57 82.90 80.80 83.22 80.42 C 84.09 80.63 84.72 81.32 85.44 81.80 C 86.41 79.59 86.58 77.20 86.13 74.85 Z" />
</g>
<g id="#624732ff">
<path fill="#624732" opacity="1.00" d=" M 109.81 75.57 C 111.44 74.59 113.34 74.43 115.21 74.60 C 116.52 74.80 117.83 74.91 119.16 74.94 C 120.81 76.09 121.20 78.33 120.28 80.05 C 118.68 80.68 117.06 81.37 115.31 81.34 C 114.88 81.12 114.03 80.68 113.60 80.47 C 114.37 79.31 115.54 78.65 117.10 78.49 C 116.29 78.17 115.48 77.86 114.67 77.57 C 114.85 77.12 115.22 76.22 115.40 75.77 C 113.62 75.07 111.65 75.33 109.81 75.57 Z" />
<path fill="#624732" opacity="1.00" d=" M 119.64 159.99 C 120.41 156.19 119.13 152.20 119.98 148.54 C 119.78 151.09 120.43 153.59 120.53 156.14 C 120.49 157.48 121.14 158.40 122.50 158.90 C 122.29 158.96 121.87 159.07 121.66 159.12 C 121.38 159.23 120.82 159.45 120.54 159.56 C 119.33 162.98 117.87 166.31 116.50 169.67 C 114.26 170.13 112.68 171.41 113.01 173.90 C 101.35 177.32 89.05 177.94 77.03 176.73 C 76.39 175.25 75.65 173.57 73.94 173.12 C 70.28 171.72 67.72 168.68 65.55 165.54 C 66.17 165.66 67.42 165.90 68.05 166.02 C 69.29 168.06 70.89 169.82 73.02 170.96 C 76.56 173.62 80.84 174.41 85.12 174.96 C 87.40 175.52 89.66 176.52 92.05 176.29 C 96.07 175.33 100.29 175.82 104.26 174.53 C 111.70 172.97 116.91 166.74 119.64 159.99 Z" />
</g>
<g id="#502511ff">
<path fill="#502511" opacity="1.00" d=" M 38.52 76.69 C 40.01 76.92 42.44 75.76 43.20 77.61 C 44.46 81.08 44.77 84.92 46.69 88.13 C 48.84 88.81 50.73 89.95 51.43 92.23 C 48.42 92.79 49.54 96.17 48.15 97.99 C 46.11 95.66 42.33 94.45 41.90 91.07 C 42.83 90.00 43.74 88.91 44.76 87.92 C 43.96 84.81 41.56 82.45 39.67 79.97 C 38.56 82.81 39.63 85.88 39.50 88.83 C 38.85 88.92 37.57 89.09 36.92 89.18 C 36.14 85.92 36.13 82.59 35.99 79.26 C 36.74 78.33 37.50 77.36 38.52 76.69 Z" />
</g>
<g id="#95552bff">
<path fill="#95552b" opacity="1.00" d=" M 70.52 77.31 C 70.84 76.96 71.48 76.27 71.80 75.93 C 72.17 79.20 75.67 79.76 78.35 79.48 C 80.03 79.52 81.65 79.84 83.22 80.42 C 82.90 80.80 82.28 81.57 81.97 81.95 C 79.97 83.12 77.59 83.68 75.86 85.29 C 75.93 87.59 77.27 89.71 79.15 91.02 C 79.91 93.61 78.78 96.89 81.15 98.84 C 82.79 100.84 85.64 102.15 86.12 104.90 C 85.70 107.26 83.42 108.44 81.31 108.98 C 81.79 107.99 82.32 107.02 82.80 106.03 C 79.40 105.37 78.19 109.39 75.36 110.43 C 75.26 110.79 75.05 111.50 74.94 111.86 C 74.48 114.21 74.75 116.62 74.47 118.99 C 71.44 115.73 72.54 111.05 72.54 107.06 C 71.55 108.39 70.48 109.65 69.40 110.90 C 69.30 106.66 67.96 102.09 64.18 99.69 C 62.09 97.95 58.68 96.98 58.16 93.98 C 58.85 91.02 63.49 92.11 64.23 89.12 C 64.50 87.92 64.45 86.68 64.75 85.48 C 66.18 84.61 67.78 84.06 69.30 83.34 C 69.59 82.83 70.18 81.81 70.48 81.30 C 70.82 80.00 70.53 78.64 70.52 77.31 M 68.38 89.27 C 68.43 91.55 67.92 93.67 66.50 95.47 C 67.62 97.24 69.04 98.78 70.52 100.24 C 71.99 102.81 72.71 106.05 75.53 107.58 C 78.04 105.07 81.32 104.37 84.79 104.69 C 83.24 102.13 80.76 100.39 78.67 98.32 C 77.43 96.70 77.36 94.50 76.25 92.81 C 73.98 91.01 71.70 87.68 68.38 89.27 Z" />
</g>
<g id="#cea37dff">
<path fill="#cea37d" opacity="1.00" d=" M 98.90 83.79 C 100.68 81.41 99.07 77.26 102.44 75.99 C 102.99 78.10 101.79 79.94 101.62 81.95 C 104.21 84.10 108.00 86.40 111.27 84.36 C 112.53 83.85 113.72 83.21 115.01 82.77 C 116.70 83.00 118.50 83.91 120.17 83.15 C 121.48 82.67 122.95 81.79 124.31 82.68 C 128.82 87.79 127.30 95.31 125.20 101.21 C 124.78 103.52 122.28 103.63 120.53 104.44 C 120.89 105.62 121.36 106.76 121.68 107.95 C 121.34 109.41 119.76 110.83 120.37 112.35 C 120.88 112.64 121.91 113.23 122.42 113.52 C 123.59 116.41 120.50 118.50 120.68 121.27 C 120.70 124.76 117.08 126.63 115.52 129.44 C 114.28 131.82 111.56 132.40 109.10 132.59 C 107.47 131.20 109.38 129.11 109.50 127.43 C 107.92 126.82 106.29 126.37 104.66 125.93 C 105.03 122.58 110.74 121.01 107.93 117.44 C 106.60 117.83 105.44 119.53 103.96 118.83 C 101.98 117.82 100.27 120.82 98.37 119.05 C 99.63 117.93 101.03 116.96 102.21 115.74 C 102.42 115.63 102.84 115.41 103.06 115.30 C 101.44 115.35 99.82 115.32 98.20 115.21 C 97.56 114.62 96.91 114.04 96.24 113.49 C 98.50 112.76 100.89 112.33 102.78 110.77 C 102.05 109.03 99.16 107.38 97.78 109.36 C 96.72 109.43 95.80 108.83 95.09 108.12 C 95.48 106.24 96.21 104.45 96.89 102.67 C 99.78 102.49 102.57 101.69 105.27 100.67 C 106.40 101.35 107.51 102.08 108.59 102.85 C 108.94 100.89 109.07 98.89 109.63 96.97 C 111.13 93.43 114.72 91.49 117.31 88.92 C 114.78 86.72 111.11 86.85 107.95 86.70 C 104.73 87.58 106.98 90.83 107.63 92.81 C 106.80 94.54 104.59 94.51 103.04 95.20 C 103.94 95.92 104.88 96.59 105.70 97.41 C 103.65 99.23 100.33 99.95 97.63 100.85 C 96.32 101.02 94.62 100.26 94.34 98.85 C 95.34 96.76 96.95 94.94 97.56 92.68 C 97.40 88.52 96.57 84.39 95.68 80.34 L 96.83 80.05 C 97.47 81.20 97.14 83.74 98.90 83.79 M 113.13 99.13 C 113.06 100.98 113.72 102.78 114.67 104.35 C 117.15 105.45 118.99 103.01 120.82 101.78 C 122.46 100.55 125.18 99.63 124.84 97.10 C 124.17 95.62 122.42 94.94 121.04 94.27 C 117.90 94.79 114.71 96.22 113.13 99.13 M 107.51 104.96 C 108.61 107.39 111.59 106.44 113.53 107.52 C 114.61 107.85 115.55 109.10 116.75 108.74 C 117.08 106.48 114.72 105.56 112.97 105.08 C 111.21 104.72 109.13 103.60 107.51 104.96 M 108.08 112.61 C 108.83 112.66 110.32 112.77 111.07 112.82 C 111.94 115.04 111.50 117.55 111.32 119.88 C 114.55 117.81 113.73 113.56 113.63 110.29 C 111.82 107.71 109.69 111.55 108.08 112.61 Z" />
</g>
<g id="#cead96ff">
<path fill="#cead96" opacity="1.00" d=" M 106.24 78.71 C 106.20 76.64 108.38 76.35 109.81 75.57 C 111.65 75.33 113.62 75.07 115.40 75.77 C 115.22 76.22 114.85 77.12 114.67 77.57 C 115.48 77.86 116.29 78.17 117.10 78.49 C 115.54 78.65 114.37 79.31 113.60 80.47 C 111.04 81.27 108.65 79.34 106.24 78.71 Z" />
</g>
<g id="#7a3d1dff">
<path fill="#7a3d1d" opacity="1.00" d=" M 39.50 88.83 C 39.63 85.88 38.56 82.81 39.67 79.97 C 41.56 82.45 43.96 84.81 44.76 87.92 C 43.74 88.91 42.83 90.00 41.90 91.07 C 42.33 94.45 46.11 95.66 48.15 97.99 C 49.54 96.17 48.42 92.79 51.43 92.23 C 52.28 93.67 52.42 95.30 52.51 96.93 C 53.18 93.96 54.14 91.08 54.89 88.13 C 55.37 87.81 56.33 87.18 56.81 86.86 C 59.55 85.29 60.42 81.60 63.60 80.66 C 65.90 80.27 68.21 80.99 70.48 81.30 C 70.18 81.81 69.59 82.83 69.30 83.34 C 67.78 84.06 66.18 84.61 64.75 85.48 C 64.45 86.68 64.50 87.92 64.23 89.12 C 61.99 89.02 59.64 88.47 57.46 89.28 C 56.55 91.37 55.17 94.12 56.80 96.22 C 58.54 99.11 61.56 100.74 64.05 102.87 C 65.65 104.31 65.14 106.53 65.58 108.40 C 66.05 108.72 66.98 109.35 67.45 109.67 C 67.76 110.69 67.96 111.74 68.05 112.82 C 66.55 111.72 65.23 110.34 63.60 109.43 C 61.16 109.91 58.88 109.57 56.81 108.13 C 55.78 109.11 54.99 110.42 55.05 111.89 C 58.31 115.21 60.13 119.48 62.85 123.19 C 65.02 126.42 69.39 123.94 72.34 125.56 C 73.74 126.93 75.18 128.28 76.84 129.33 C 77.12 129.50 77.67 129.83 77.95 130.00 C 78.73 130.70 79.52 131.37 80.33 132.04 C 81.40 132.78 82.74 133.22 83.59 134.24 C 83.57 135.70 83.45 137.16 83.36 138.62 C 83.94 139.25 84.61 139.79 85.36 140.25 C 85.68 140.50 86.30 141.02 86.62 141.27 C 87.67 142.59 88.74 143.88 89.88 145.12 C 89.33 145.96 88.64 146.72 88.34 147.70 C 89.19 149.00 90.67 149.99 90.86 151.64 C 90.21 151.76 88.90 152.00 88.25 152.12 C 85.01 151.74 81.51 151.43 78.67 153.38 C 78.71 154.21 78.68 155.04 78.60 155.87 C 75.98 152.56 71.91 149.67 67.48 151.20 C 65.64 156.10 67.25 161.12 68.05 166.02 C 67.42 165.90 66.17 165.66 65.55 165.54 C 64.60 164.81 63.60 164.12 62.62 163.42 C 60.13 161.65 59.96 158.12 57.43 156.35 C 58.85 147.60 59.63 138.51 57.71 129.78 C 64.76 136.92 71.10 145.24 80.31 149.71 C 82.36 150.79 84.71 150.87 86.98 150.81 C 86.27 149.34 86.03 147.70 85.28 146.25 C 85.93 146.04 87.24 145.62 87.89 145.41 C 85.63 143.53 82.55 142.49 81.02 139.85 C 80.09 137.66 76.97 138.27 75.88 136.22 C 74.60 134.27 71.79 134.42 70.93 132.03 C 69.41 132.32 67.87 132.39 66.33 132.53 C 63.97 130.20 61.40 128.11 59.02 125.80 C 58.61 126.34 57.78 127.44 57.37 127.99 C 57.45 125.97 55.86 124.72 54.90 123.13 C 53.47 117.60 53.14 111.81 51.49 106.35 C 49.75 106.31 48.00 106.29 46.27 106.47 C 43.27 105.38 41.66 102.51 39.61 100.21 C 38.54 96.58 37.67 92.88 36.92 89.18 C 37.57 89.09 38.85 88.92 39.50 88.83 Z" />
</g>
<g id="#b98761ff">
<path fill="#b98761" opacity="1.00" d=" M 107.63 92.81 C 106.98 90.83 104.73 87.58 107.95 86.70 C 111.11 86.85 114.78 86.72 117.31 88.92 C 114.72 91.49 111.13 93.43 109.63 96.97 C 109.07 98.89 108.94 100.89 108.59 102.85 C 107.51 102.08 106.40 101.35 105.27 100.67 C 102.57 101.69 99.78 102.49 96.89 102.67 C 97.08 102.21 97.45 101.30 97.63 100.85 C 100.33 99.95 103.65 99.23 105.70 97.41 C 104.88 96.59 103.94 95.92 103.04 95.20 C 104.59 94.51 106.80 94.54 107.63 92.81 Z" />
</g>
<g id="#894924ff">
<path fill="#894924" opacity="1.00" d=" M 57.46 89.28 C 59.64 88.47 61.99 89.02 64.23 89.12 C 63.49 92.11 58.85 91.02 58.16 93.98 C 58.68 96.98 62.09 97.95 64.18 99.69 C 67.96 102.09 69.30 106.66 69.40 110.90 C 70.48 109.65 71.55 108.39 72.54 107.06 C 72.54 111.05 71.44 115.73 74.47 118.99 C 74.75 116.62 74.48 114.21 74.94 111.86 C 76.93 113.72 79.77 115.20 79.93 118.24 C 78.73 117.23 77.55 116.19 76.29 115.25 C 75.78 119.96 76.98 124.62 76.84 129.33 C 75.18 128.28 73.74 126.93 72.34 125.56 C 69.39 123.94 65.02 126.42 62.85 123.19 C 60.13 119.48 58.31 115.21 55.05 111.89 C 54.99 110.42 55.78 109.11 56.81 108.13 C 58.88 109.57 61.16 109.91 63.60 109.43 C 65.23 110.34 66.55 111.72 68.05 112.82 C 67.96 111.74 67.76 110.69 67.45 109.67 C 66.98 109.35 66.05 108.72 65.58 108.40 C 65.14 106.53 65.65 104.31 64.05 102.87 C 61.56 100.74 58.54 99.11 56.80 96.22 C 55.17 94.12 56.55 91.37 57.46 89.28 Z" />
</g>
<g id="#ab693cff">
<path fill="#ab693c" opacity="1.00" d=" M 68.38 89.27 C 71.70 87.68 73.98 91.01 76.25 92.81 C 77.36 94.50 77.43 96.70 78.67 98.32 C 80.76 100.39 83.24 102.13 84.79 104.69 C 81.32 104.37 78.04 105.07 75.53 107.58 C 72.71 106.05 71.99 102.81 70.52 100.24 C 69.04 98.78 67.62 97.24 66.50 95.47 C 67.92 93.67 68.43 91.55 68.38 89.27 Z" />
</g>
<g id="#b58765ff">
<path fill="#b58765" opacity="1.00" d=" M 129.35 96.48 C 130.30 95.01 130.56 93.09 132.13 92.05 C 132.80 93.47 133.46 94.90 134.03 96.36 C 133.75 98.06 133.70 99.89 132.94 101.45 C 131.32 100.60 129.52 99.99 128.12 98.76 C 128.18 98.12 128.30 96.84 128.36 96.20 C 128.61 96.27 129.10 96.41 129.35 96.48 Z" />
</g>
<g id="#dcb491ff">
<path fill="#dcb491" opacity="1.00" d=" M 113.13 99.13 C 114.71 96.22 117.90 94.79 121.04 94.27 C 122.42 94.94 124.17 95.62 124.84 97.10 C 125.18 99.63 122.46 100.55 120.82 101.78 C 118.99 103.01 117.15 105.45 114.67 104.35 C 113.72 102.78 113.06 100.98 113.13 99.13 Z" />
</g>
<g id="#622c13ff">
<path fill="#622c13" opacity="1.00" d=" M 87.20 98.30 C 89.13 98.33 91.49 99.01 92.13 101.07 C 93.05 102.83 90.82 102.80 89.86 102.37 C 88.14 102.11 85.83 100.10 87.20 98.30 Z" />
</g>
<g id="#c08f69ff">
<path fill="#c08f69" opacity="1.00" d=" M 107.51 104.96 C 109.13 103.60 111.21 104.72 112.97 105.08 C 114.72 105.56 117.08 106.48 116.75 108.74 C 115.55 109.10 114.61 107.85 113.53 107.52 C 111.59 106.44 108.61 107.39 107.51 104.96 Z" />
</g>
<g id="#a5744fff">
<path fill="#a5744f" opacity="1.00" d=" M 108.08 112.61 C 109.69 111.55 111.82 107.71 113.63 110.29 C 113.73 113.56 114.55 117.81 111.32 119.88 C 111.50 117.55 111.94 115.04 111.07 112.82 C 110.32 112.77 108.83 112.66 108.08 112.61 Z" />
</g>
<g id="#9a5830ff">
<path fill="#9a5830" opacity="1.00" d=" M 76.29 115.25 C 77.55 116.19 78.73 117.23 79.93 118.24 C 82.89 122.17 86.30 116.40 89.92 117.19 C 93.26 117.55 92.04 120.98 92.26 123.28 C 90.56 123.36 88.84 122.85 87.18 123.21 C 86.60 124.31 86.40 125.56 86.25 126.78 C 87.37 127.04 88.49 127.29 89.61 127.53 C 88.98 132.01 86.62 135.95 85.36 140.25 C 84.61 139.79 83.94 139.25 83.36 138.62 C 83.45 137.16 83.57 135.70 83.59 134.24 C 82.74 133.22 81.40 132.78 80.33 132.04 C 81.59 129.90 81.98 127.48 80.75 125.22 C 80.01 125.61 79.30 126.06 78.63 126.57 C 78.40 127.71 78.18 128.86 77.95 130.00 C 77.67 129.83 77.12 129.50 76.84 129.33 C 76.98 124.62 75.78 119.96 76.29 115.25 Z" />
</g>
<g id="#b68965ff">
<path fill="#b68965" opacity="1.00" d=" M 89.92 117.19 C 94.15 118.04 97.95 114.62 102.21 115.74 C 101.03 116.96 99.63 117.93 98.37 119.05 C 96.76 119.53 95.11 119.87 93.57 120.57 C 93.70 123.46 95.12 126.42 94.54 129.51 C 96.25 129.94 98.01 130.27 99.78 130.25 C 101.48 130.14 103.18 130.19 104.86 130.46 C 104.43 132.62 103.74 134.74 102.63 136.65 C 100.20 135.56 97.47 134.88 95.55 137.30 C 97.22 139.05 98.70 142.42 101.61 141.63 C 105.08 140.88 106.42 136.71 109.89 135.92 C 112.02 135.22 114.40 134.70 115.63 132.62 C 116.54 131.03 118.25 130.72 119.92 130.54 L 120.03 131.70 C 116.94 136.09 113.81 140.46 109.71 143.98 C 108.07 142.89 106.23 143.59 104.50 143.96 C 104.50 143.52 104.51 142.65 104.52 142.21 C 102.70 142.39 100.91 143.18 99.07 142.92 C 97.04 142.14 95.48 140.52 93.51 139.63 C 91.62 140.45 89.70 141.28 87.66 141.65 C 87.64 140.33 87.12 138.93 87.55 137.64 C 88.55 134.31 93.00 135.39 94.86 132.81 C 93.52 131.89 92.13 131.05 90.87 130.01 C 91.47 127.80 92.92 125.64 92.26 123.28 C 92.04 120.98 93.26 117.55 89.92 117.19 Z" />
</g>
<g id="#d6b08fff">
<path fill="#d6b08f" opacity="1.00" d=" M 103.96 118.83 C 105.44 119.53 106.60 117.83 107.93 117.44 C 110.74 121.01 105.03 122.58 104.66 125.93 C 103.63 127.97 101.70 129.15 99.78 130.25 C 98.01 130.27 96.25 129.94 94.54 129.51 C 95.12 126.42 93.70 123.46 93.57 120.57 C 95.11 119.87 96.76 119.53 98.37 119.05 C 100.27 120.82 101.98 117.82 103.96 118.83 Z" />
</g>
<g id="#ac744cff">
<path fill="#ac744c" opacity="1.00" d=" M 87.18 123.21 C 88.84 122.85 90.56 123.36 92.26 123.28 C 92.92 125.64 91.47 127.80 90.87 130.01 C 92.13 131.05 93.52 131.89 94.86 132.81 C 93.00 135.39 88.55 134.31 87.55 137.64 C 87.12 138.93 87.64 140.33 87.66 141.65 L 86.62 141.27 C 86.30 141.02 85.68 140.50 85.36 140.25 C 86.62 135.95 88.98 132.01 89.61 127.53 C 88.49 127.29 87.37 127.04 86.25 126.78 C 86.40 125.56 86.60 124.31 87.18 123.21 Z" />
</g>
<g id="#af7248ff">
<path fill="#af7248" opacity="1.00" d=" M 78.63 126.57 C 79.30 126.06 80.01 125.61 80.75 125.22 C 81.98 127.48 81.59 129.90 80.33 132.04 C 79.52 131.37 78.73 130.70 77.95 130.00 C 78.18 128.86 78.40 127.71 78.63 126.57 Z" />
</g>
<g id="#5d2810ff">
<path fill="#5d2810" opacity="1.00" d=" M 57.37 127.99 C 57.78 127.44 58.61 126.34 59.02 125.80 C 61.40 128.11 63.97 130.20 66.33 132.53 C 67.87 132.39 69.41 132.32 70.93 132.03 C 71.79 134.42 74.60 134.27 75.88 136.22 C 76.97 138.27 80.09 137.66 81.02 139.85 C 82.55 142.49 85.63 143.53 87.89 145.41 C 87.24 145.62 85.93 146.04 85.28 146.25 C 86.03 147.70 86.27 149.34 86.98 150.81 C 84.71 150.87 82.36 150.79 80.31 149.71 C 71.10 145.24 64.76 136.92 57.71 129.78 C 57.62 129.33 57.46 128.44 57.37 127.99 Z" />
</g>
<g id="#d0ab83ff">
<path fill="#d0ab83" opacity="1.00" d=" M 109.71 143.98 C 113.81 140.46 116.94 136.09 120.03 131.70 C 120.37 137.32 119.17 142.95 119.98 148.54 C 119.13 152.20 120.41 156.19 119.64 159.99 C 116.91 166.74 111.70 172.97 104.26 174.53 C 102.65 174.31 101.03 174.10 99.45 173.74 C 100.27 170.81 97.48 170.07 95.38 169.18 C 95.48 168.12 95.76 167.08 95.87 166.03 C 92.41 164.83 93.05 160.80 94.08 158.10 C 95.44 156.43 97.46 155.19 98.04 152.98 C 102.04 150.13 106.62 147.94 109.71 143.98 Z" />
</g>
<g id="#a67c59ff">
<path fill="#a67c59" opacity="1.00" d=" M 87.66 141.65 C 89.70 141.28 91.62 140.45 93.51 139.63 C 95.48 140.52 97.04 142.14 99.07 142.92 C 100.91 143.18 102.70 142.39 104.52 142.21 C 104.51 142.65 104.50 143.52 104.50 143.96 C 106.23 143.59 108.07 142.89 109.71 143.98 C 106.62 147.94 102.04 150.13 98.04 152.98 C 96.33 153.22 94.60 153.30 92.90 153.00 C 94.73 152.09 96.84 151.30 97.85 149.39 C 96.10 148.85 94.10 148.97 92.53 147.94 C 94.43 147.34 95.98 146.01 97.87 145.41 C 94.38 144.40 91.29 142.04 87.66 141.65 Z" />
</g>
<g id="#885a3aff">
<path fill="#885a3a" opacity="1.00" d=" M 86.62 141.27 L 87.66 141.65 C 91.29 142.04 94.38 144.40 97.87 145.41 C 95.98 146.01 94.43 147.34 92.53 147.94 C 94.10 148.97 96.10 148.85 97.85 149.39 C 96.84 151.30 94.73 152.09 92.90 153.00 C 91.22 153.05 89.53 153.10 87.86 152.89 L 88.25 152.12 C 88.90 152.00 90.21 151.76 90.86 151.64 C 90.67 149.99 89.19 149.00 88.34 147.70 C 88.64 146.72 89.33 145.96 89.88 145.12 C 88.74 143.88 87.67 142.59 86.62 141.27 Z" />
</g>
<g id="#8f5028ff">
<path fill="#8f5028" opacity="1.00" d=" M 67.48 151.20 C 71.91 149.67 75.98 152.56 78.60 155.87 C 78.68 155.04 78.71 154.21 78.67 153.38 C 81.51 151.43 85.01 151.74 88.25 152.12 L 87.86 152.89 L 86.89 152.83 C 86.20 152.92 84.84 153.10 84.16 153.19 C 83.63 155.07 84.82 157.01 84.84 158.94 C 85.52 162.07 82.35 164.74 83.80 167.89 C 79.33 167.32 78.87 161.56 75.04 159.82 C 72.63 162.61 72.17 167.28 73.02 170.96 C 70.89 169.82 69.29 168.06 68.05 166.02 C 67.25 161.12 65.64 156.10 67.48 151.20 Z" />
</g>
<g id="#a46d40ff">
<path fill="#a46d40" opacity="1.00" d=" M 84.16 153.19 C 84.84 153.10 86.20 152.92 86.89 152.83 C 86.74 156.79 88.34 160.58 88.54 164.43 C 87.56 164.38 86.67 164.76 85.71 164.83 C 84.65 168.16 86.58 171.68 85.12 174.96 C 80.84 174.41 76.56 173.62 73.02 170.96 C 72.17 167.28 72.63 162.61 75.04 159.82 C 78.87 161.56 79.33 167.32 83.80 167.89 C 82.35 164.74 85.52 162.07 84.84 158.94 C 84.82 157.01 83.63 155.07 84.16 153.19 Z" />
</g>
<g id="#b7845dff">
<path fill="#b7845d" opacity="1.00" d=" M 86.89 152.83 L 87.86 152.89 C 89.53 153.10 91.22 153.05 92.90 153.00 C 91.51 155.87 90.57 159.05 91.74 162.17 C 92.85 164.80 91.17 167.28 90.92 169.87 C 91.97 171.89 93.03 173.99 92.05 176.29 C 89.66 176.52 87.40 175.52 85.12 174.96 C 86.58 171.68 84.65 168.16 85.71 164.83 C 86.67 164.76 87.56 164.38 88.54 164.43 C 88.34 160.58 86.74 156.79 86.89 152.83 Z" />
</g>
<g id="#c69d77ff">
<path fill="#c69d77" opacity="1.00" d=" M 92.90 153.00 C 94.60 153.30 96.33 153.22 98.04 152.98 C 97.46 155.19 95.44 156.43 94.08 158.10 C 93.05 160.80 92.41 164.83 95.87 166.03 C 95.76 167.08 95.48 168.12 95.38 169.18 C 97.48 170.07 100.27 170.81 99.45 173.74 C 101.03 174.10 102.65 174.31 104.26 174.53 C 100.29 175.82 96.07 175.33 92.05 176.29 C 93.03 173.99 91.97 171.89 90.92 169.87 C 91.17 167.28 92.85 164.80 91.74 162.17 C 90.57 159.05 91.51 155.87 92.90 153.00 Z" />
</g>
<g id="#3a291eff">
<path fill="#3a291e" opacity="1.00" d=" M 120.54 159.56 C 120.82 159.45 121.38 159.23 121.66 159.12 C 122.83 163.07 125.95 165.54 129.29 167.64 C 128.97 167.77 128.33 168.03 128.02 168.16 C 126.13 167.12 124.05 167.62 122.05 167.85 C 121.89 167.52 121.56 166.86 121.39 166.53 C 121.73 166.14 122.39 165.36 122.72 164.97 C 118.73 164.81 117.38 169.02 118.07 172.30 C 116.42 172.93 114.69 173.35 113.01 173.90 C 112.68 171.41 114.26 170.13 116.50 169.67 C 117.87 166.31 119.33 162.98 120.54 159.56 Z" />
</g>
</svg>
