<?xml version="1.0" encoding="UTF-8" ?>
<!DOCTYPE svg PUBLIC "-//W3C//DTD SVG 1.1//EN" "http://www.w3.org/Graphics/SVG/1.1/DTD/svg11.dtd">
<svg width="178pt" height="178pt" viewBox="0 0 178 178" version="1.1" xmlns="http://www.w3.org/2000/svg">
<g id="#818181fe">
<path fill="#818181" opacity="1.00" d=" M 67.32 15.67 C 72.86 14.80 78.39 13.72 84.00 13.44 C 93.02 14.37 102.27 15.48 110.51 19.56 C 112.24 20.42 113.72 21.69 114.97 23.16 C 98.03 13.45 76.72 12.47 58.73 19.84 C 54.97 21.58 51.61 24.06 48.03 26.13 C 50.66 22.25 55.13 20.38 59.09 18.17 C 61.59 16.67 64.51 16.26 67.32 15.67 Z" />
<path fill="#818181" opacity="1.00" d=" M 116.05 23.92 C 122.20 26.20 126.40 31.46 131.17 35.70 C 135.28 34.52 139.38 35.94 143.19 37.47 C 140.28 37.41 137.40 37.89 134.70 38.99 C 135.18 40.34 135.67 41.70 136.17 43.05 C 140.25 43.17 144.33 43.22 148.41 43.07 C 146.90 41.37 145.34 39.71 143.77 38.08 C 149.21 39.60 151.51 45.19 154.78 49.24 C 157.77 52.71 157.78 57.45 158.44 61.73 C 160.63 68.65 160.70 76.38 158.14 83.21 C 156.91 88.48 155.91 93.83 153.88 98.87 C 153.06 100.62 153.09 102.55 153.45 104.41 C 154.43 110.53 152.59 116.92 154.78 122.86 C 155.11 123.17 155.76 123.80 156.08 124.11 C 159.60 124.31 163.19 124.16 166.52 125.53 C 166.70 127.36 166.80 129.22 166.49 131.05 C 165.96 129.33 165.41 127.60 164.89 125.87 C 159.18 125.45 153.38 125.95 147.76 124.62 C 149.56 124.43 151.36 124.28 153.17 124.15 C 152.43 118.18 152.58 112.18 152.40 106.20 C 152.55 104.02 150.89 102.67 149.20 101.69 C 147.65 107.34 146.83 113.15 146.04 118.95 C 145.66 122.65 143.36 125.71 140.89 128.33 C 142.61 124.27 144.97 120.34 145.00 115.79 C 141.90 118.56 139.81 122.20 138.35 126.06 C 137.53 123.48 137.15 120.80 136.72 118.15 C 137.39 119.42 138.09 120.68 138.78 121.95 C 141.32 112.66 142.86 102.84 141.36 93.25 C 140.85 90.18 141.31 87.08 141.80 84.05 C 140.04 89.15 137.58 94.01 136.21 99.24 C 135.07 105.53 137.22 111.82 136.72 118.15 C 134.50 110.42 134.80 102.29 134.57 94.34 C 133.33 95.23 132.11 96.14 130.91 97.07 C 133.50 91.71 136.42 86.36 137.29 80.40 C 138.64 72.55 136.92 64.69 136.45 56.86 C 139.77 66.23 138.93 76.38 139.42 86.15 C 141.05 77.39 141.72 68.36 140.78 59.47 C 140.24 52.87 136.74 47.06 133.55 41.44 C 129.27 34.20 122.23 29.37 116.05 23.92 M 134.15 36.18 C 133.91 36.44 133.44 36.97 133.20 37.24 C 134.03 40.27 137.62 35.54 134.15 36.18 M 137.53 43.96 C 138.24 47.49 140.36 50.55 140.98 54.10 C 141.80 59.03 142.75 64.00 142.60 69.02 C 142.54 73.48 141.59 77.97 142.56 82.40 C 144.01 89.28 143.31 96.38 144.58 103.28 C 145.43 95.80 145.12 88.28 145.43 80.78 C 147.67 85.94 146.59 91.71 146.40 97.15 C 146.32 102.78 144.14 108.06 143.63 113.62 C 147.08 110.48 146.57 105.49 147.28 101.30 C 148.82 101.06 150.35 100.84 151.90 100.64 C 156.58 91.19 156.88 80.28 155.03 70.07 C 154.08 65.31 151.23 61.31 149.11 57.05 C 152.15 60.15 154.33 63.98 156.00 67.96 C 157.63 71.80 157.17 76.06 157.64 80.12 C 161.23 73.58 158.18 66.29 156.65 59.68 C 157.15 54.04 153.59 49.05 149.36 45.70 C 146.06 42.92 141.47 44.00 137.53 43.96 M 135.83 93.35 C 137.40 91.19 137.55 88.45 137.80 85.89 C 136.22 88.05 135.62 90.69 135.83 93.35 Z" />
<path fill="#818181" opacity="1.00" d=" M 35.67 38.69 C 38.64 34.12 42.37 29.80 47.10 27.00 C 44.95 29.85 42.39 32.34 39.99 34.97 C 37.33 37.89 35.89 41.63 34.60 45.30 C 36.17 43.90 37.67 42.43 39.20 41.00 C 37.18 45.01 34.77 48.81 32.93 52.91 C 28.28 64.38 25.40 76.62 25.00 89.02 C 24.65 98.60 22.66 108.00 21.72 117.52 C 22.86 115.69 23.95 113.83 25.10 112.00 C 24.06 117.35 21.89 122.50 21.78 128.01 C 21.60 134.51 21.45 141.20 23.61 147.43 C 24.30 140.73 23.65 133.78 25.90 127.32 C 25.88 135.79 26.85 144.48 30.80 152.11 C 29.19 142.72 25.79 132.91 28.57 123.44 C 29.34 128.46 28.86 133.57 29.58 138.59 C 30.31 143.86 31.57 149.04 33.07 154.14 C 35.11 149.46 37.81 144.92 38.34 139.74 C 39.17 132.90 39.25 125.94 38.80 119.07 C 37.61 114.05 35.23 109.40 33.27 104.66 C 32.45 110.39 34.57 116.62 32.17 122.00 C 29.20 110.57 30.48 98.59 31.34 86.97 C 30.69 69.04 36.43 51.40 44.84 35.75 C 46.37 32.68 48.57 30.00 51.21 27.82 C 49.29 31.30 46.85 34.46 44.95 37.95 C 36.43 53.84 32.07 71.94 32.49 89.98 C 32.76 97.16 34.85 104.12 37.23 110.86 C 38.93 115.39 40.76 120.06 44.28 123.52 C 42.66 117.54 39.69 112.03 38.10 106.05 C 35.76 98.36 35.16 90.28 35.34 82.29 C 35.66 82.29 36.32 82.30 36.64 82.31 C 35.57 96.71 39.23 111.17 46.12 123.77 C 48.57 128.06 51.09 132.31 53.34 136.71 C 56.58 136.87 59.82 136.88 63.07 136.83 C 61.33 133.32 59.14 129.94 58.34 126.06 C 58.73 125.18 59.17 124.34 59.67 123.53 C 61.27 126.99 62.52 130.61 63.75 134.22 C 65.75 132.70 67.81 131.27 69.88 129.86 C 66.73 127.08 63.11 124.93 59.41 122.98 C 56.91 118.18 55.76 112.75 55.89 107.36 C 57.82 111.42 57.74 116.16 59.90 120.11 C 62.83 124.22 67.71 126.23 71.70 129.12 C 71.26 131.18 70.86 133.25 70.31 135.29 C 70.52 134.02 68.70 132.76 68.12 134.35 C 68.00 135.55 68.59 136.07 69.90 135.91 C 69.43 136.56 68.96 137.20 68.48 137.84 C 72.16 137.67 75.84 137.69 79.52 137.50 C 79.86 137.74 80.54 138.21 80.88 138.44 C 73.42 141.70 64.87 140.17 57.49 143.63 C 55.52 144.52 53.67 145.66 51.85 146.81 C 56.00 145.17 60.13 142.90 64.75 143.21 C 71.33 143.53 77.12 139.59 83.62 139.25 C 86.40 139.19 88.64 137.44 90.90 136.04 C 95.28 133.28 100.66 133.48 105.52 132.17 C 108.41 131.09 110.65 128.83 113.01 126.92 C 117.31 122.95 122.53 119.35 124.39 113.50 C 126.63 108.46 125.17 101.73 129.91 97.99 C 130.28 99.90 130.88 101.81 130.70 103.78 C 129.55 112.41 129.68 121.20 127.38 129.66 C 127.10 129.46 126.54 129.07 126.27 128.88 C 125.83 128.57 124.97 127.94 124.53 127.63 C 125.07 124.19 125.20 120.70 125.04 117.22 C 120.20 120.43 121.27 126.57 120.53 131.53 C 122.06 131.34 123.61 131.17 125.15 131.03 C 126.59 131.19 128.01 131.45 129.43 131.73 C 124.85 136.42 119.62 140.50 115.67 145.78 C 117.93 144.08 120.08 142.14 122.81 141.23 C 120.76 147.90 121.01 155.78 125.71 161.31 C 127.37 163.74 130.27 164.62 132.92 165.51 C 128.78 167.69 124.69 170.08 120.16 171.36 C 114.32 171.20 108.46 171.44 102.77 172.84 C 93.83 174.21 84.90 176.12 75.84 176.33 C 60.73 174.27 46.14 168.00 34.19 158.54 L 34.11 157.74 C 33.86 156.14 33.34 155.99 32.53 157.29 C 27.36 152.86 27.71 145.47 25.11 139.67 C 24.51 143.48 24.80 147.36 25.67 151.10 C 24.44 149.74 22.90 148.56 22.17 146.83 C 20.25 140.64 20.89 134.08 20.65 127.69 C 18.82 131.28 17.62 135.15 15.77 138.72 C 15.46 138.27 14.84 137.37 14.53 136.92 C 21.41 118.22 23.47 98.24 24.68 78.48 C 25.51 72.13 27.07 65.91 28.72 59.73 C 30.03 52.44 32.33 45.30 35.67 38.69 M 128.04 101.72 C 127.69 104.43 127.51 107.17 126.93 109.84 C 126.27 112.86 127.35 115.93 126.96 118.97 C 126.66 121.34 126.31 123.71 126.25 126.10 C 128.16 122.18 128.05 117.69 128.68 113.47 C 129.31 109.57 129.03 105.53 128.04 101.72 M 115.01 127.21 C 114.23 129.63 114.99 132.05 115.99 134.27 C 117.10 133.53 118.34 132.93 119.22 131.90 C 119.53 128.93 119.74 125.96 120.10 123.00 C 118.19 124.10 116.24 125.30 115.01 127.21 M 42.67 124.93 C 41.53 130.69 40.86 136.53 39.58 142.27 C 41.43 141.72 43.11 140.77 44.71 139.71 C 45.07 136.19 45.58 132.63 44.99 129.12 C 44.73 127.53 44.38 125.59 42.67 124.93 M 46.28 130.56 C 45.49 131.81 45.15 134.81 46.66 135.44 C 47.39 134.16 47.77 131.22 46.28 130.56 M 112.24 130.30 C 111.00 130.42 109.53 132.52 111.14 133.21 C 113.09 133.96 115.04 130.03 112.24 130.30 M 48.03 132.75 C 47.79 134.60 47.57 136.46 47.31 138.32 C 48.91 138.16 50.51 137.96 52.11 137.75 C 51.08 135.83 49.68 134.16 48.03 132.75 M 94.00 146.07 C 96.46 144.47 98.61 142.35 101.38 141.26 C 102.92 140.80 104.60 141.47 106.11 140.95 C 108.59 139.62 110.88 137.95 113.02 136.13 C 105.81 137.16 98.99 140.78 94.00 146.07 M 72.70 144.65 C 73.96 144.62 75.23 144.57 76.50 144.53 C 71.81 150.22 65.26 154.15 61.08 160.27 C 64.39 158.28 66.82 155.22 69.53 152.54 C 73.45 148.48 77.95 145.05 81.95 141.07 C 78.72 141.85 75.57 142.98 72.70 144.65 M 92.20 147.12 C 90.84 147.79 90.80 148.47 92.08 149.14 C 93.43 148.46 93.47 147.79 92.20 147.12 M 67.30 150.35 C 67.84 150.86 67.84 150.86 67.30 150.35 Z" />
<path fill="#818181" opacity="1.00" d=" M 92.28 30.62 C 92.89 31.49 93.51 32.35 94.09 33.24 C 91.44 38.03 93.26 43.71 92.50 48.90 C 92.39 58.19 90.57 67.29 88.22 76.24 C 89.59 75.98 90.96 75.72 92.34 75.50 C 91.30 77.45 89.42 78.57 87.61 79.72 C 85.69 82.51 85.13 86.01 85.96 89.29 C 83.58 87.37 81.43 84.98 78.52 83.85 C 74.86 82.74 71.00 83.55 67.25 83.39 C 65.79 83.33 64.32 83.27 62.86 83.23 C 62.87 82.13 62.88 81.03 62.91 79.93 C 63.39 78.18 63.90 76.44 64.42 74.71 C 62.64 74.42 60.87 74.11 59.10 73.85 C 57.85 80.50 57.76 87.32 58.40 94.05 C 58.51 93.68 58.74 92.96 58.85 92.60 C 59.23 93.13 59.98 94.19 60.36 94.72 C 60.15 96.63 59.95 98.55 59.70 100.47 C 58.62 99.14 57.83 97.62 57.21 96.03 C 56.95 99.82 56.57 103.61 56.10 107.38 C 54.23 102.95 54.40 97.61 55.71 92.98 C 57.21 85.83 56.23 78.40 58.27 71.33 C 60.36 72.62 62.73 73.27 65.13 73.71 C 71.01 62.91 77.13 52.18 81.79 40.77 C 82.52 38.96 83.46 37.24 84.62 35.67 C 82.16 44.47 77.23 52.27 73.65 60.61 C 71.77 65.18 68.97 69.40 67.86 74.27 C 71.72 71.16 73.72 66.44 76.45 62.41 C 79.96 57.08 82.61 51.23 86.12 45.91 C 84.92 51.39 81.34 55.87 78.67 60.67 C 76.13 65.29 72.82 69.43 70.47 74.15 C 75.84 75.10 81.26 76.06 86.73 75.95 C 90.75 63.21 91.96 49.78 91.16 36.48 C 89.36 39.29 88.14 42.43 86.20 45.15 C 86.99 41.59 88.44 38.22 90.20 35.04 L 90.04 35.80 C 90.78 34.07 91.52 32.34 92.28 30.62 M 65.85 81.85 C 72.23 80.35 78.78 80.82 85.04 82.59 C 84.98 82.03 84.86 80.90 84.79 80.33 C 80.10 79.91 75.39 80.03 70.69 79.75 C 75.59 77.77 81.10 79.44 86.24 78.91 C 81.61 77.44 76.74 76.89 71.98 76.00 C 68.24 74.86 67.26 79.41 65.85 81.85 Z" />
<path fill="#818181" opacity="1.00" d=" M 45.52 67.41 C 47.44 55.89 50.94 44.25 58.04 34.81 C 55.72 40.77 52.20 46.22 50.40 52.40 C 47.46 61.95 45.15 72.43 47.74 82.26 C 47.98 76.05 47.67 69.36 50.96 63.82 C 50.08 71.68 48.98 79.89 51.54 87.57 C 52.25 90.44 54.33 93.18 53.43 96.24 C 52.37 101.38 53.87 106.49 54.18 111.61 C 51.18 107.02 51.71 101.22 51.61 95.99 C 51.83 92.18 50.34 88.60 49.13 85.07 C 49.49 88.64 50.10 92.19 50.12 95.78 C 48.32 93.49 47.82 90.55 47.08 87.81 C 45.54 81.15 44.25 74.23 45.52 67.41 Z" />
<path fill="#818181" opacity="1.00" d=" M 144.04 47.89 C 148.93 48.99 152.76 52.66 155.20 56.90 C 151.80 53.49 148.04 50.54 144.04 47.89 Z" />
<path fill="#818181" opacity="1.00" d=" M 60.10 66.29 C 61.74 66.52 60.63 70.02 59.13 69.45 C 58.27 68.47 58.93 66.70 60.10 66.29 Z" />
<path fill="#818181" opacity="1.00" d=" M 118.16 73.41 C 119.73 73.68 119.28 76.46 118.69 77.55 C 117.32 77.14 117.29 74.43 118.16 73.41 Z" />
<path fill="#818181" opacity="1.00" d=" M 103.68 77.85 C 105.66 77.26 107.60 75.93 109.74 76.17 C 112.05 76.85 114.31 77.71 116.53 78.64 C 111.95 78.81 107.60 80.22 103.33 81.78 C 103.42 80.80 103.59 78.83 103.68 77.85 Z" />
<path fill="#818181" opacity="1.00" d=" M 103.95 82.43 C 104.38 82.14 105.24 81.56 105.67 81.27 C 105.64 81.90 105.56 83.17 105.53 83.81 C 106.54 83.36 107.55 82.93 108.57 82.51 C 108.94 84.23 108.92 85.98 108.59 87.70 C 107.95 87.22 106.65 86.25 106.01 85.76 L 105.44 85.33 C 104.41 86.26 103.35 87.17 102.25 88.03 C 102.81 86.16 103.42 84.31 103.95 82.43 Z" />
<path fill="#818181" opacity="1.00" d=" M 108.55 89.06 C 109.67 90.65 110.81 92.23 112.00 93.78 C 113.19 92.30 114.36 90.80 115.49 89.27 C 115.80 91.36 116.18 93.44 116.56 95.51 C 116.78 100.57 108.38 100.83 107.31 96.59 C 107.76 94.09 108.20 91.58 108.55 89.06 Z" />
<path fill="#818181" opacity="1.00" d=" M 74.98 100.84 C 70.42 101.43 67.37 93.93 72.32 92.25 C 73.10 93.92 73.98 95.54 74.96 97.10 C 76.33 95.72 77.68 94.32 79.03 92.92 C 82.65 95.64 78.68 101.06 74.98 100.84 Z" />
<path fill="#818181" opacity="1.00" d=" M 111.46 101.30 C 112.55 100.52 114.32 100.48 115.42 101.27 C 115.30 102.78 111.55 102.82 111.46 101.30 Z" />
<path fill="#818181" opacity="1.00" d=" M 71.43 103.30 C 72.92 102.54 74.97 102.57 76.47 103.28 C 75.87 104.70 71.95 104.82 71.43 103.30 Z" />
<path fill="#818181" opacity="1.00" d=" M 113.16 105.50 C 114.57 105.70 114.81 106.37 113.86 107.49 C 112.45 107.29 112.21 106.63 113.16 105.50 Z" />
<path fill="#818181" opacity="1.00" d=" M 119.33 105.26 C 120.67 104.31 122.11 106.61 120.94 107.58 C 119.62 108.52 118.17 106.21 119.33 105.26 Z" />
<path fill="#818181" opacity="1.00" d=" M 116.52 106.22 C 117.77 105.49 118.91 107.63 117.85 108.45 C 116.61 109.18 115.51 107.02 116.52 106.22 Z" />
<path fill="#818181" opacity="1.00" d=" M 70.13 107.57 C 71.37 106.84 72.47 108.98 71.47 109.79 C 70.22 110.51 69.06 108.38 70.13 107.57 Z" />
<path fill="#818181" opacity="1.00" d=" M 73.62 107.24 C 75.16 106.73 76.45 109.30 75.67 110.51 C 74.17 110.94 72.87 108.45 73.62 107.24 Z" />
<path fill="#818181" opacity="1.00" d=" M 65.11 108.44 C 66.49 108.00 66.98 108.49 66.59 109.89 C 65.20 110.33 64.71 109.85 65.11 108.44 Z" />
<path fill="#818181" opacity="1.00" d=" M 78.23 108.34 C 79.44 107.57 80.66 109.65 79.71 110.52 C 78.50 111.30 77.26 109.22 78.23 108.34 Z" />
<path fill="#818181" opacity="1.00" d=" M 132.27 108.71 C 132.82 109.77 133.30 110.88 133.42 112.08 C 134.04 116.33 135.78 120.34 136.19 124.63 C 132.95 120.14 132.06 114.15 132.27 108.71 Z" />
<path fill="#818181" opacity="1.00" d=" M 98.23 110.44 C 99.61 110.60 99.83 111.28 98.89 112.48 C 97.52 112.31 97.29 111.63 98.23 110.44 Z" />
<path fill="#818181" opacity="1.00" d=" M 54.17 112.45 C 55.57 112.62 55.83 113.30 54.98 114.50 C 53.58 114.33 53.32 113.65 54.17 112.45 Z" />
<path fill="#818181" opacity="1.00" d=" M 87.82 121.88 C 90.22 119.05 93.86 117.88 97.43 117.46 C 94.47 119.41 91.13 120.69 87.82 121.88 Z" />
<path fill="#818181" opacity="1.00" d=" M 98.41 117.98 C 99.38 116.77 101.66 118.27 100.70 119.60 C 99.74 120.76 97.46 119.29 98.41 117.98 Z" />
<path fill="#818181" opacity="1.00" d=" M 136.20 125.43 C 137.55 124.79 138.19 127.17 137.53 128.04 C 136.23 128.63 135.38 126.28 136.20 125.43 Z" />
<path fill="#818181" opacity="1.00" d=" M 138.60 126.91 C 139.41 127.71 140.24 128.51 141.07 129.31 C 140.04 131.51 139.12 133.78 137.88 135.88 C 136.42 138.38 132.78 139.11 132.16 142.17 C 130.83 147.41 132.28 152.77 133.51 157.88 C 133.63 158.37 133.88 159.36 134.00 159.85 C 131.22 156.19 130.11 151.52 129.96 146.99 C 129.81 142.31 132.56 138.30 134.95 134.52 C 132.77 135.41 130.59 136.29 128.43 137.23 C 128.01 136.84 127.17 136.06 126.75 135.66 C 128.15 134.10 129.87 132.83 131.76 131.92 C 134.31 131.37 136.79 130.54 139.34 130.00 C 139.09 128.97 138.84 127.94 138.60 126.91 Z" />
<path fill="#818181" opacity="1.00" d=" M 107.08 172.80 C 110.46 172.05 113.94 171.91 117.38 172.26 C 112.16 174.68 106.40 175.59 100.75 176.45 C 95.35 177.08 89.81 177.85 84.43 176.74 C 91.89 174.92 99.58 174.39 107.08 172.80 Z" />
</g>
<g id="#fefefeff">
<path fill="#fefefe" opacity="1.00" d=" M 58.73 19.84 C 76.72 12.47 98.03 13.45 114.97 23.16 C 115.24 23.35 115.78 23.73 116.05 23.92 C 122.23 29.37 129.27 34.20 133.55 41.44 C 136.74 47.06 140.24 52.87 140.78 59.47 C 141.72 68.36 141.05 77.39 139.42 86.15 C 138.93 76.38 139.77 66.23 136.45 56.86 C 136.92 64.69 138.64 72.55 137.29 80.40 C 136.42 86.36 133.50 91.71 130.91 97.07 C 130.66 97.30 130.16 97.76 129.91 97.99 C 125.17 101.73 126.63 108.46 124.39 113.50 C 122.53 119.35 117.31 122.95 113.01 126.92 C 110.65 128.83 108.41 131.09 105.52 132.17 C 100.66 133.48 95.28 133.28 90.90 136.04 C 84.16 135.02 77.98 132.01 71.57 129.86 C 73.71 132.90 76.51 135.36 79.52 137.50 C 75.84 137.69 72.16 137.67 68.48 137.84 C 68.96 137.20 69.43 136.56 69.90 135.91 L 70.31 135.29 C 70.86 133.25 71.26 131.18 71.70 129.12 C 67.71 126.23 62.83 124.22 59.90 120.11 C 57.74 116.16 57.82 111.42 55.89 107.36 C 55.76 112.75 56.91 118.18 59.41 122.98 L 59.67 123.53 C 59.17 124.34 58.73 125.18 58.34 126.06 C 59.14 129.94 61.33 133.32 63.07 136.83 C 59.82 136.88 56.58 136.87 53.34 136.71 C 51.09 132.31 48.57 128.06 46.12 123.77 C 39.23 111.17 35.57 96.71 36.64 82.31 C 36.32 82.30 35.66 82.29 35.34 82.29 C 35.16 90.28 35.76 98.36 38.10 106.05 C 39.69 112.03 42.66 117.54 44.28 123.52 C 40.76 120.06 38.93 115.39 37.23 110.86 C 34.85 104.12 32.76 97.16 32.49 89.98 C 32.07 71.94 36.43 53.84 44.95 37.95 C 46.85 34.46 49.29 31.30 51.21 27.82 C 48.57 30.00 46.37 32.68 44.84 35.75 C 36.43 51.40 30.69 69.04 31.34 86.97 C 30.48 98.59 29.20 110.57 32.17 122.00 C 34.57 116.62 32.45 110.39 33.27 104.66 C 35.23 109.40 37.61 114.05 38.80 119.07 C 39.25 125.94 39.17 132.90 38.34 139.74 C 37.81 144.92 35.11 149.46 33.07 154.14 C 31.57 149.04 30.31 143.86 29.58 138.59 C 28.86 133.57 29.34 128.46 28.57 123.44 C 25.79 132.91 29.19 142.72 30.80 152.11 C 26.85 144.48 25.88 135.79 25.90 127.32 C 23.65 133.78 24.30 140.73 23.61 147.43 C 21.45 141.20 21.60 134.51 21.78 128.01 C 21.89 122.50 24.06 117.35 25.10 112.00 C 23.95 113.83 22.86 115.69 21.72 117.52 C 22.66 108.00 24.65 98.60 25.00 89.02 C 25.40 76.62 28.28 64.38 32.93 52.91 C 34.77 48.81 37.18 45.01 39.20 41.00 C 37.67 42.43 36.17 43.90 34.60 45.30 C 35.89 41.63 37.33 37.89 39.99 34.97 C 42.39 32.34 44.95 29.85 47.10 27.00 C 47.33 26.78 47.79 26.35 48.03 26.13 C 51.61 24.06 54.97 21.58 58.73 19.84 M 91.63 28.90 C 91.13 30.94 90.63 32.98 90.20 35.04 C 88.44 38.22 86.99 41.59 86.20 45.15 C 88.14 42.43 89.36 39.29 91.16 36.48 C 91.96 49.78 90.75 63.21 86.73 75.95 C 81.26 76.06 75.84 75.10 70.47 74.15 C 72.82 69.43 76.13 65.29 78.67 60.67 C 81.34 55.87 84.92 51.39 86.12 45.91 C 82.61 51.23 79.96 57.08 76.45 62.41 C 73.72 66.44 71.72 71.16 67.86 74.27 C 68.97 69.40 71.77 65.18 73.65 60.61 C 77.23 52.27 82.16 44.47 84.62 35.67 C 83.46 37.24 82.52 38.96 81.79 40.77 C 77.13 52.18 71.01 62.91 65.13 73.71 C 62.73 73.27 60.36 72.62 58.27 71.33 C 56.23 78.40 57.21 85.83 55.71 92.98 C 54.40 97.61 54.23 102.95 56.10 107.38 C 56.57 103.61 56.95 99.82 57.21 96.03 C 57.83 97.62 58.62 99.14 59.70 100.47 C 59.95 98.55 60.15 96.63 60.36 94.72 C 61.60 96.69 63.23 98.38 64.98 99.92 C 63.83 97.39 61.91 94.98 62.07 92.06 C 62.22 88.49 64.77 85.68 67.25 83.39 C 71.00 83.55 74.86 82.74 78.52 83.85 C 81.43 84.98 83.58 87.37 85.96 89.29 C 85.13 86.01 85.69 82.51 87.61 79.72 C 89.42 78.57 91.30 77.45 92.34 75.50 C 90.96 75.72 89.59 75.98 88.22 76.24 C 90.57 67.29 92.39 58.19 92.50 48.90 C 93.26 43.71 91.44 38.03 94.09 33.24 C 99.55 46.06 104.17 59.82 103.44 73.95 C 101.76 77.04 103.08 80.48 102.23 83.74 C 102.66 83.41 103.52 82.76 103.95 82.43 C 103.42 84.31 102.81 86.16 102.25 88.03 C 103.35 87.17 104.41 86.26 105.44 85.33 L 106.01 85.76 C 105.51 89.41 105.25 93.33 107.31 96.59 C 108.38 100.83 116.78 100.57 116.56 95.51 C 118.06 92.25 117.90 88.37 116.96 84.98 C 116.31 82.53 113.93 81.39 111.98 80.13 C 114.99 80.74 119.97 79.34 120.80 83.46 C 123.17 88.31 120.73 93.39 119.27 98.08 C 120.57 95.88 121.56 93.50 123.09 91.43 C 123.46 94.04 123.19 96.67 123.29 99.29 C 124.63 97.31 123.61 93.33 126.55 93.01 C 126.49 95.09 126.33 97.18 126.37 99.26 C 128.10 93.67 127.35 87.74 127.75 81.98 C 128.19 75.60 127.57 69.19 126.33 62.93 C 126.38 65.08 126.57 67.22 126.73 69.37 C 124.79 69.96 122.84 70.53 120.88 71.06 C 121.17 71.67 121.47 72.28 121.77 72.88 C 122.31 70.32 125.00 70.19 127.14 70.28 C 127.50 77.13 127.15 84.00 126.18 90.79 C 125.68 91.87 124.89 92.69 123.83 93.26 C 123.91 88.43 124.11 83.62 123.64 78.79 C 123.31 79.85 123.01 80.91 122.72 81.98 C 121.69 81.01 120.66 80.05 119.61 79.11 C 119.39 74.16 121.59 69.05 119.52 64.27 C 116.50 54.94 114.32 44.89 108.14 37.01 C 113.32 45.14 116.24 54.41 118.50 63.71 C 119.06 66.89 120.57 70.72 117.92 73.37 C 114.73 67.10 113.29 60.09 109.89 53.91 C 105.34 44.55 98.86 36.31 91.63 28.90 M 45.52 67.41 C 44.25 74.23 45.54 81.15 47.08 87.81 C 47.82 90.55 48.32 93.49 50.12 95.78 C 50.10 92.19 49.49 88.64 49.13 85.07 C 50.34 88.60 51.83 92.18 51.61 95.99 C 51.71 101.22 51.18 107.02 54.18 111.61 C 53.87 106.49 52.37 101.38 53.43 96.24 C 54.33 93.18 52.25 90.44 51.54 87.57 C 48.98 79.89 50.08 71.68 50.96 63.82 C 47.67 69.36 47.98 76.05 47.74 82.26 C 45.15 72.43 47.46 61.95 50.40 52.40 C 52.20 46.22 55.72 40.77 58.04 34.81 C 50.94 44.25 47.44 55.89 45.52 67.41 M 60.10 66.29 C 58.93 66.70 58.27 68.47 59.13 69.45 C 60.63 70.02 61.74 66.52 60.10 66.29 M 69.83 85.88 C 66.81 88.51 67.10 92.97 67.62 96.57 C 68.86 100.63 73.29 102.17 77.11 102.61 C 81.46 99.24 84.00 92.89 81.20 87.76 C 79.78 83.03 72.67 81.95 69.83 85.88 M 125.46 100.45 C 124.42 101.78 124.23 103.84 124.37 105.48 C 126.01 105.23 127.47 101.06 125.46 100.45 M 111.46 101.30 C 111.55 102.82 115.30 102.78 115.42 101.27 C 114.32 100.48 112.55 100.52 111.46 101.30 M 71.43 103.30 C 71.95 104.82 75.87 104.70 76.47 103.28 C 74.97 102.57 72.92 102.54 71.43 103.30 M 113.16 105.50 C 112.21 106.63 112.45 107.29 113.86 107.49 C 114.81 106.37 114.57 105.70 113.16 105.50 M 119.33 105.26 C 118.17 106.21 119.62 108.52 120.94 107.58 C 122.11 106.61 120.67 104.31 119.33 105.26 M 116.52 106.22 C 115.51 107.02 116.61 109.18 117.85 108.45 C 118.91 107.63 117.77 105.49 116.52 106.22 M 70.13 107.57 C 69.06 108.38 70.22 110.51 71.47 109.79 C 72.47 108.98 71.37 106.84 70.13 107.57 M 73.62 107.24 C 72.87 108.45 74.17 110.94 75.67 110.51 C 76.45 109.30 75.16 106.73 73.62 107.24 M 65.11 108.44 C 64.71 109.85 65.20 110.33 66.59 109.89 C 66.98 108.49 66.49 108.00 65.11 108.44 M 78.23 108.34 C 77.26 109.22 78.50 111.30 79.71 110.52 C 80.66 109.65 79.44 107.57 78.23 108.34 M 98.23 110.44 C 97.29 111.63 97.52 112.31 98.89 112.48 C 99.83 111.28 99.61 110.60 98.23 110.44 M 54.17 112.45 C 53.32 113.65 53.58 114.33 54.98 114.50 C 55.83 113.30 55.57 112.62 54.17 112.45 M 87.82 121.88 C 91.13 120.69 94.47 119.41 97.43 117.46 C 93.86 117.88 90.22 119.05 87.82 121.88 M 98.41 117.98 C 97.46 119.29 99.74 120.76 100.70 119.60 C 101.66 118.27 99.38 116.77 98.41 117.98 M 32.34 122.78 C 32.24 128.98 33.74 135.08 35.49 140.99 C 34.29 134.95 34.15 128.66 32.34 122.78 Z" />
<path fill="#fefefe" opacity="1.00" d=" M 134.15 36.18 C 137.62 35.54 134.03 40.27 133.20 37.24 C 133.44 36.97 133.91 36.44 134.15 36.18 Z" />
<path fill="#fefefe" opacity="1.00" d=" M 95.99 35.74 C 97.80 36.18 98.91 37.76 100.08 39.06 C 107.60 49.23 113.44 60.76 116.10 73.19 C 112.25 74.50 108.27 75.38 104.34 76.47 C 104.48 68.61 103.81 60.69 101.57 53.13 C 100.14 47.19 97.66 41.59 95.99 35.74 Z" />
<path fill="#fefefe" opacity="1.00" d=" M 134.70 38.99 C 137.40 37.89 140.28 37.41 143.19 37.47 L 143.77 38.08 C 145.34 39.71 146.90 41.37 148.41 43.07 C 144.33 43.22 140.25 43.17 136.17 43.05 C 135.67 41.70 135.18 40.34 134.70 38.99 Z" />
<path fill="#fefefe" opacity="1.00" d=" M 137.53 43.96 C 141.47 44.00 146.06 42.92 149.36 45.70 C 153.59 49.05 157.15 54.04 156.65 59.68 C 158.18 66.29 161.23 73.58 157.64 80.12 C 157.17 76.06 157.63 71.80 156.00 67.96 C 154.33 63.98 152.15 60.15 149.11 57.05 C 151.23 61.31 154.08 65.31 155.03 70.07 C 156.88 80.28 156.58 91.19 151.90 100.64 C 150.35 100.84 148.82 101.06 147.28 101.30 C 146.57 105.49 147.08 110.48 143.63 113.62 C 144.14 108.06 146.32 102.78 146.40 97.15 C 146.59 91.71 147.67 85.94 145.43 80.78 C 145.12 88.28 145.43 95.80 144.58 103.28 C 143.31 96.38 144.01 89.28 142.56 82.40 C 141.59 77.97 142.54 73.48 142.60 69.02 C 142.75 64.00 141.80 59.03 140.98 54.10 C 140.36 50.55 138.24 47.49 137.53 43.96 M 144.04 47.89 C 148.04 50.54 151.80 53.49 155.20 56.90 C 152.76 52.66 148.93 48.99 144.04 47.89 Z" />
<path fill="#fefefe" opacity="1.00" d=" M 59.10 73.85 C 60.87 74.11 62.64 74.42 64.42 74.71 C 63.90 76.44 63.39 78.18 62.91 79.93 C 61.60 84.17 59.85 88.26 58.85 92.60 C 58.74 92.96 58.51 93.68 58.40 94.05 C 57.76 87.32 57.85 80.50 59.10 73.85 Z" />
<path fill="#fefefe" opacity="1.00" d=" M 109.74 76.17 C 111.98 75.38 114.19 74.42 116.55 74.05 C 116.90 75.71 117.26 77.38 117.56 79.06 L 116.53 78.64 C 114.31 77.71 112.05 76.85 109.74 76.17 Z" />
<path fill="#fefefe" opacity="1.00" d=" M 65.85 81.85 C 67.26 79.41 68.24 74.86 71.98 76.00 C 76.74 76.89 81.61 77.44 86.24 78.91 C 81.10 79.44 75.59 77.77 70.69 79.75 C 75.39 80.03 80.10 79.91 84.79 80.33 C 84.86 80.90 84.98 82.03 85.04 82.59 C 78.78 80.82 72.23 80.35 65.85 81.85 Z" />
<path fill="#fefefe" opacity="1.00" d=" M 136.21 99.24 C 137.58 94.01 140.04 89.15 141.80 84.05 C 141.31 87.08 140.85 90.18 141.36 93.25 C 142.86 102.84 141.32 112.66 138.78 121.95 C 138.09 120.68 137.39 119.42 136.72 118.15 C 137.22 111.82 135.07 105.53 136.21 99.24 Z" />
<path fill="#fefefe" opacity="1.00" d=" M 70.91 85.86 C 72.16 86.53 72.13 87.22 70.80 87.93 C 69.52 87.28 69.55 86.59 70.91 85.86 Z" />
<path fill="#fefefe" opacity="1.00" d=" M 135.83 93.35 C 135.62 90.69 136.22 88.05 137.80 85.89 C 137.55 88.45 137.40 91.19 135.83 93.35 Z" />
<path fill="#fefefe" opacity="1.00" d=" M 149.20 101.69 C 150.89 102.67 152.55 104.02 152.40 106.20 C 152.58 112.18 152.43 118.18 153.17 124.15 C 151.36 124.28 149.56 124.43 147.76 124.62 C 153.38 125.95 159.18 125.45 164.89 125.87 C 165.41 127.60 165.96 129.33 166.49 131.05 C 161.10 141.01 153.73 149.85 145.03 157.09 C 144.16 157.73 143.36 158.56 142.28 158.83 C 139.40 158.18 136.48 157.49 133.51 157.88 C 132.28 152.77 130.83 147.41 132.16 142.17 C 132.78 139.11 136.42 138.38 137.88 135.88 C 139.12 133.78 140.04 131.51 141.07 129.31 C 140.24 128.51 139.41 127.71 138.60 126.91 L 138.35 126.06 C 139.81 122.20 141.90 118.56 145.00 115.79 C 144.97 120.34 142.61 124.27 140.89 128.33 C 143.36 125.71 145.66 122.65 146.04 118.95 C 146.83 113.15 147.65 107.34 149.20 101.69 Z" />
<path fill="#fefefe" opacity="1.00" d=" M 46.28 130.56 C 47.77 131.22 47.39 134.16 46.66 135.44 C 45.15 134.81 45.49 131.81 46.28 130.56 Z" />
<path fill="#fefefe" opacity="1.00" d=" M 128.43 137.23 C 130.59 136.29 132.77 135.41 134.95 134.52 C 132.56 138.30 129.81 142.31 129.96 146.99 C 130.11 151.52 131.22 156.19 134.00 159.85 C 134.85 160.99 135.80 162.03 136.73 163.11 C 135.46 163.91 134.19 164.71 132.92 165.51 C 130.27 164.62 127.37 163.74 125.71 161.31 C 121.01 155.78 120.76 147.90 122.81 141.23 C 124.00 139.29 125.35 137.45 126.75 135.66 C 127.17 136.06 128.01 136.84 128.43 137.23 Z" />
</g>
<g id="#040404ff">
<path fill="#040404" opacity="1.00" d=" M 91.63 28.90 C 98.86 36.31 105.34 44.55 109.89 53.91 C 113.29 60.09 114.73 67.10 117.92 73.37 C 120.57 70.72 119.06 66.89 118.50 63.71 C 116.24 54.41 113.32 45.14 108.14 37.01 C 114.32 44.89 116.50 54.94 119.52 64.27 C 121.59 69.05 119.39 74.16 119.61 79.11 C 120.66 80.05 121.69 81.01 122.72 81.98 C 123.01 80.91 123.31 79.85 123.64 78.79 C 124.11 83.62 123.91 88.43 123.83 93.26 C 124.89 92.69 125.68 91.87 126.18 90.79 C 127.15 84.00 127.50 77.13 127.14 70.28 C 125.00 70.19 122.31 70.32 121.77 72.88 C 121.47 72.28 121.17 71.67 120.88 71.06 C 122.84 70.53 124.79 69.96 126.73 69.37 C 126.57 67.22 126.38 65.08 126.33 62.93 C 127.57 69.19 128.19 75.60 127.75 81.98 C 127.35 87.74 128.10 93.67 126.37 99.26 C 126.33 97.18 126.49 95.09 126.55 93.01 C 123.61 93.33 124.63 97.31 123.29 99.29 C 123.19 96.67 123.46 94.04 123.09 91.43 C 121.56 93.50 120.57 95.88 119.27 98.08 C 120.73 93.39 123.17 88.31 120.80 83.46 C 119.97 79.34 114.99 80.74 111.98 80.13 C 113.93 81.39 116.31 82.53 116.96 84.98 C 117.90 88.37 118.06 92.25 116.56 95.51 C 116.18 93.44 115.80 91.36 115.49 89.27 C 114.36 90.80 113.19 92.30 112.00 93.78 C 110.81 92.23 109.67 90.65 108.55 89.06 C 108.20 91.58 107.76 94.09 107.31 96.59 C 105.25 93.33 105.51 89.41 106.01 85.76 C 106.65 86.25 107.95 87.22 108.59 87.70 C 108.92 85.98 108.94 84.23 108.57 82.51 C 107.55 82.93 106.54 83.36 105.53 83.81 C 105.56 83.17 105.64 81.90 105.67 81.27 C 105.24 81.56 104.38 82.14 103.95 82.43 C 103.52 82.76 102.66 83.41 102.23 83.74 C 103.08 80.48 101.76 77.04 103.44 73.95 C 104.17 59.82 99.55 46.06 94.09 33.24 C 93.51 32.35 92.89 31.49 92.28 30.62 C 91.52 32.34 90.78 34.07 90.04 35.80 L 90.20 35.04 C 90.63 32.98 91.13 30.94 91.63 28.90 M 95.99 35.74 C 97.66 41.59 100.14 47.19 101.57 53.13 C 103.81 60.69 104.48 68.61 104.34 76.47 C 108.27 75.38 112.25 74.50 116.10 73.19 C 113.44 60.76 107.60 49.23 100.08 39.06 C 98.91 37.76 97.80 36.18 95.99 35.74 M 118.16 73.41 C 117.29 74.43 117.32 77.14 118.69 77.55 C 119.28 76.46 119.73 73.68 118.16 73.41 M 109.74 76.17 C 107.60 75.93 105.66 77.26 103.68 77.85 C 103.59 78.83 103.42 80.80 103.33 81.78 C 107.60 80.22 111.95 78.81 116.53 78.64 L 117.56 79.06 C 117.26 77.38 116.90 75.71 116.55 74.05 C 114.19 74.42 111.98 75.38 109.74 76.17 Z" />
<path fill="#040404" opacity="1.00" d=" M 58.85 92.60 C 59.85 88.26 61.60 84.17 62.91 79.93 C 62.88 81.03 62.87 82.13 62.86 83.23 C 64.32 83.27 65.79 83.33 67.25 83.39 C 64.77 85.68 62.22 88.49 62.07 92.06 C 61.91 94.98 63.83 97.39 64.98 99.92 C 63.23 98.38 61.60 96.69 60.36 94.72 C 59.98 94.19 59.23 93.13 58.85 92.60 Z" />
<path fill="#040404" opacity="1.00" d=" M 69.83 85.88 C 72.67 81.95 79.78 83.03 81.20 87.76 C 84.00 92.89 81.46 99.24 77.11 102.61 C 73.29 102.17 68.86 100.63 67.62 96.57 C 67.10 92.97 66.81 88.51 69.83 85.88 M 70.91 85.86 C 69.55 86.59 69.52 87.28 70.80 87.93 C 72.13 87.22 72.16 86.53 70.91 85.86 M 74.98 100.84 C 78.68 101.06 82.65 95.64 79.03 92.92 C 77.68 94.32 76.33 95.72 74.96 97.10 C 73.98 95.54 73.10 93.92 72.32 92.25 C 67.37 93.93 70.42 101.43 74.98 100.84 Z" />
<path fill="#040404" opacity="1.00" d=" M 125.46 100.45 C 127.47 101.06 126.01 105.23 124.37 105.48 C 124.23 103.84 124.42 101.78 125.46 100.45 Z" />
<path fill="#040404" opacity="1.00" d=" M 32.34 122.78 C 34.15 128.66 34.29 134.95 35.49 140.99 C 33.74 135.08 32.24 128.98 32.34 122.78 Z" />
<path fill="#040404" opacity="1.00" d=" M 126.27 128.88 C 126.54 129.07 127.10 129.46 127.38 129.66 C 128.80 130.49 130.27 131.22 131.76 131.92 C 129.87 132.83 128.15 134.10 126.75 135.66 C 125.35 137.45 124.00 139.29 122.81 141.23 C 120.08 142.14 117.93 144.08 115.67 145.78 C 119.62 140.50 124.85 136.42 129.43 131.73 C 128.01 131.45 126.59 131.19 125.15 131.03 C 125.43 130.49 125.99 129.41 126.27 128.88 Z" />
<path fill="#040404" opacity="1.00" d=" M 71.57 129.86 C 77.98 132.01 84.16 135.02 90.90 136.04 C 88.64 137.44 86.40 139.19 83.62 139.25 C 77.12 139.59 71.33 143.53 64.75 143.21 C 60.13 142.90 56.00 145.17 51.85 146.81 C 53.67 145.66 55.52 144.52 57.49 143.63 C 64.87 140.17 73.42 141.70 80.88 138.44 C 80.54 138.21 79.86 137.74 79.52 137.50 C 76.51 135.36 73.71 132.90 71.57 129.86 Z" />
<path fill="#040404" opacity="1.00" d=" M 68.12 134.35 C 68.70 132.76 70.52 134.02 70.31 135.29 L 69.90 135.91 C 68.59 136.07 68.00 135.55 68.12 134.35 Z" />
<path fill="#040404" opacity="1.00" d=" M 94.00 146.07 C 98.99 140.78 105.81 137.16 113.02 136.13 C 110.88 137.95 108.59 139.62 106.11 140.95 C 104.60 141.47 102.92 140.80 101.38 141.26 C 98.61 142.35 96.46 144.47 94.00 146.07 Z" />
<path fill="#040404" opacity="1.00" d=" M 72.70 144.65 C 75.57 142.98 78.72 141.85 81.95 141.07 C 77.95 145.05 73.45 148.48 69.53 152.54 C 66.82 155.22 64.39 158.28 61.08 160.27 C 65.26 154.15 71.81 150.22 76.50 144.53 C 75.23 144.57 73.96 144.62 72.70 144.65 Z" />
<path fill="#040404" opacity="1.00" d=" M 92.20 147.12 C 93.47 147.79 93.43 148.46 92.08 149.14 C 90.80 148.47 90.84 147.79 92.20 147.12 Z" />
<path fill="#040404" opacity="1.00" d=" M 67.30 150.35 C 67.84 150.86 67.84 150.86 67.30 150.35 Z" />
<path fill="#040404" opacity="1.00" d=" M 32.53 157.29 C 33.34 155.99 33.86 156.14 34.11 157.74 C 33.72 157.63 32.92 157.40 32.53 157.29 Z" />
<path fill="#040404" opacity="1.00" d=" M 133.51 157.88 C 136.48 157.49 139.40 158.18 142.28 158.83 C 140.64 160.51 138.73 161.89 136.73 163.11 C 135.80 162.03 134.85 160.99 134.00 159.85 C 133.88 159.36 133.63 158.37 133.51 157.88 Z" />
<path fill="#040404" opacity="1.00" d=" M 102.77 172.84 C 108.46 171.44 114.32 171.20 120.16 171.36 C 119.25 171.68 118.38 172.31 117.38 172.26 C 113.94 171.91 110.46 172.05 107.08 172.80 C 99.58 174.39 91.89 174.92 84.43 176.74 C 81.58 177.29 78.67 176.76 75.84 176.33 C 84.90 176.12 93.83 174.21 102.77 172.84 Z" />
</g>
</svg>
