<?xml version="1.0" encoding="utf-8"?>
<!-- Generator: Adobe Illustrator 24.3.0, SVG Export Plug-In . SVG Version: 6.00 Build 0)  -->
<svg version="1.1" id="Слой_1" xmlns="http://www.w3.org/2000/svg" xmlns:xlink="http://www.w3.org/1999/xlink" x="0px" y="0px"
	 viewBox="0 0 423 312" style="enable-background:new 0 0 423 312;" xml:space="preserve">
<style type="text/css">
	.st0{fill:#F1F2F2;}
	.st1{fill:#F0B238;}
	.st2{fill:#FFCC65;}
	.st3{fill:#FDDBBB;}
	.st4{fill:#F5F5F5;}
	.st5{fill:#7B98B5;}
	.st6{fill:#6D6E71;}
	.st7{fill:#95C8E7;}
	.st8{fill:#4F423A;}
	.st9{fill:#EB8890;}
	.st10{fill:#BF6649;}
	.st11{fill:#BDBDBD;}
</style>
<g>
	<path class="st0" d="M286,311.7c78.2,0.5,78.2-41.5,0-41C207.8,270.1,207.8,312.2,286,311.7z"/>
</g>
<g>
	<path class="st0" d="M364.7,273.8c74.2,0.5,74.2-37.8,0-37.2C290.5,236,290.5,274.3,364.7,273.8z"/>
</g>
<g>
	<path class="st0" d="M231,266.6c74.2,0.5,74.2-37.8,0-37.2C156.8,228.9,156.8,267.1,231,266.6z"/>
</g>
<path class="st1" d="M253,163c-14.4,35.7,109.8,35.7,95.4,0C348.5,163,253,163,253,163z"/>
<path class="st2" d="M300.8,179.2c61.9,0.4,61.9-32.8,0-32.4C238.9,146.4,238.9,179.6,300.8,179.2z"/>
<path class="st1" d="M300.8,176.2c50.3,0.3,50.3-26.7,0-26.4C250.4,149.4,250.4,176.5,300.8,176.2z"/>
<path class="st2" d="M289,168.8c-11.1-7.2,12.5-0.7,14.1-1.7c-0.4-4.4-33.2-6.6-5.6-11.7c-1.2-2.2,4.8-0.8,5.5-1.2
	c21.8,6.9,7,5.7-4.8,4.1c1.9,6.9,35.8,1.9,4.8,13.4C298.2,172,293.5,169,289,168.8z"/>
<path class="st1" d="M258,149.6c-14.4,35.7,109.8,35.7,95.4,0C353.4,149.6,258,149.6,258,149.6z"/>
<path class="st2" d="M353.4,149.6c1.6,20.9-97.1,20.9-95.4,0C256.3,128.8,355.1,128.8,353.4,149.6z"/>
<path class="st1" d="M344.5,149.6c1.3,17-79,17-77.7,0C265.5,132.6,345.9,132.7,344.5,149.6z"/>
<path class="st2" d="M293.9,155.5c-11.1-7.2,12.5-0.7,14.1-1.7c-0.4-4.4-33.2-6.6-5.6-11.7c-1.2-2.2,4.8-0.8,5.5-1.2
	c21.8,6.9,7,5.7-4.8,4.1c2.4,7,35.5,1.8,4.8,13.4C303.2,158.6,298.4,155.6,293.9,155.5z"/>
<path class="st1" d="M254.7,136.3c-14.4,35.7,109.8,35.7,95.4,0C350.1,136.3,254.7,136.3,254.7,136.3z"/>
<path class="st2" d="M302.4,152.5c61.9,0.4,61.9-32.8,0-32.4C240.5,119.7,240.5,152.9,302.4,152.5z"/>
<path class="st1" d="M302.4,149.5c50.3,0.3,50.4-26.7,0-26.4C252,122.8,252,149.8,302.4,149.5z"/>
<path class="st2" d="M290.6,142.1c-11.1-7.2,12.5-0.7,14.1-1.7c2.1-5.4-15.6-1-16.4-7.3c-0.6-3.5,11.9-5.5,16.3-5.5
	c2.1,3.4,11.1-0.1,11.3,5.5c-5.2,1.8-14.1-3.8-16.9-0.6c14.6,4.8,28.5,4.4,5.6,12.6C299.9,145.3,295.1,142.3,290.6,142.1z"/>
<path class="st1" d="M246.4,123c-14.4,35.7,109.8,35.7,95.4,0C341.9,123,246.4,123,246.4,123z"/>
<path class="st2" d="M341.9,123c1.6,20.9-97.1,20.9-95.4,0C244.8,102.1,343.5,102.1,341.9,123z"/>
<path class="st1" d="M333,123c1.3,17-79,17-77.7,0C254,106,334.3,106,333,123z"/>
<path class="st2" d="M282.4,128.8c-11.1-7.2,12.5-0.7,14.1-1.7c-0.4-4.4-33.2-6.6-5.6-11.7c-1.2-2.2,4.8-0.8,5.5-1.2
	c21.8,6.9,7,5.6-4.8,4.1c2.9,7.1,35.4,1.9,4.8,13.4C291.6,131.9,286.9,129,282.4,128.8z"/>
<path class="st1" d="M251.4,109.6c-14.4,35.7,109.8,35.7,95.4,0C346.8,109.6,251.4,109.6,251.4,109.6z"/>
<path class="st2" d="M299.1,125.8c61.9,0.4,61.9-32.8,0-32.4C237.2,93,237.2,126.3,299.1,125.8z"/>
<path class="st1" d="M299.1,122.8c50.4,0.3,50.4-26.7,0-26.4C248.8,96.1,248.8,123.2,299.1,122.8z"/>
<path class="st2" d="M287.3,115.5c-11.1-7.2,12.5-0.7,14.1-1.7c-0.4-4.4-33.2-6.6-5.6-11.7c-1.2-2.2,4.8-0.8,5.5-1.2
	c2.1,3.4,11.1-0.1,11.3,5.5c-5.2,1.8-14.1-3.8-16.9-0.6c14.6,4.8,28.5,4.4,5.6,12.6C296.6,118.6,291.8,115.6,287.3,115.5z"/>
<path class="st1" d="M258,96.3c-14.4,35.7,109.8,35.7,95.4,0C353.4,96.3,258,96.3,258,96.3z"/>
<path class="st2" d="M353.4,96.3c1.6,20.9-97.1,20.9-95.4,0C256.3,75.4,355.1,75.4,353.4,96.3z"/>
<path class="st1" d="M344.5,96.3c1.3,17-79,17-77.7,0C265.5,79.3,345.9,79.3,344.5,96.3z"/>
<path class="st2" d="M293.9,102.1c-11.1-7.2,12.5-0.7,14.1-1.7c-0.4-4.4-33.2-6.6-5.6-11.7c-1.2-2.2,4.8-0.8,5.5-1.2
	c21.8,6.9,7,5.7-4.8,4.1c2.3,6.9,35.5,1.8,4.8,13.4C303.2,105.3,298.4,102.3,293.9,102.1z"/>
<path class="st1" d="M254.7,82.9c-14.4,35.7,109.8,35.7,95.4,0C350.1,82.9,254.7,82.9,254.7,82.9z"/>
<path class="st2" d="M302.4,99.1c61.9,0.4,61.9-32.8,0-32.4C240.5,66.3,240.5,99.6,302.4,99.1z"/>
<path class="st1" d="M302.4,96.1c50.3,0.3,50.4-26.7,0-26.4C252,69.4,252,96.5,302.4,96.1z"/>
<path class="st2" d="M290.6,88.8c-11.1-7.2,12.5-0.7,14.1-1.7c-0.4-4.4-33.2-6.6-5.6-11.7c-1.2-2.2,4.8-0.8,5.5-1.2
	c21.8,6.9,7,5.7-4.8,4.1c-2.9,5,27,1.9,14.1,10.4c-1.2,1.5-9.5-0.7-9.3,3C299.9,91.9,295.1,88.9,290.6,88.8z"/>
<path class="st1" d="M259.6,69.6c-14.4,35.7,109.8,35.7,95.4,0C355.1,69.6,259.6,69.6,259.6,69.6z"/>
<path class="st2" d="M307.3,85.8c61.9,0.4,61.9-32.8,0-32.4C245.5,52.9,245.5,86.2,307.3,85.8z"/>
<path class="st1" d="M307.3,82.8c50.4,0.3,50.4-26.7,0-26.4C257,56,257,83.1,307.3,82.8z"/>
<path class="st2" d="M295.6,75.4c-11.1-7.2,12.5-0.7,14.1-1.7c-0.4-4.4-33.2-6.6-5.6-11.7c-1.2-2.2,4.8-0.8,5.5-1.2
	c21.8,6.9,7,5.7-4.8,4.1c-2.9,5,27,1.9,14.1,10.4c-1.2,1.5-9.5-0.7-9.3,3C304.8,78.6,300.1,75.6,295.6,75.4z"/>
<path class="st1" d="M254.7,56.2c-14.4,35.7,109.8,35.7,95.4,0C350.1,56.2,254.7,56.2,254.7,56.2z"/>
<path class="st2" d="M302.4,72.5c61.9,0.4,61.9-32.8,0-32.4C240.5,39.6,240.5,72.9,302.4,72.5z"/>
<path class="st1" d="M302.4,69.4c50.3,0.3,50.4-26.7,0-26.4C252,42.7,252,69.8,302.4,69.4z"/>
<path class="st2" d="M290.6,62.1c-11.1-7.2,12.5-0.7,14.1-1.7c-0.4-4.4-33.2-6.6-5.6-11.7c-1.2-2.2,4.8-0.8,5.5-1.2
	c21.8,6.9,7,5.7-4.8,4.1c-2.9,5,27,1.9,14.1,10.4c-1.2,1.5-9.5-0.7-9.3,3C299.9,65.2,295.1,62.2,290.6,62.1z"/>
<path class="st1" d="M261.3,42.9c-14.4,35.7,109.8,35.7,95.4,0C356.7,42.9,261.3,42.9,261.3,42.9z"/>
<path class="st2" d="M309,59.1c61.9,0.4,61.9-32.8,0-32.4C247.1,26.3,247.1,59.5,309,59.1z"/>
<path class="st1" d="M309,56.1c50.4,0.3,50.4-26.7,0-26.4C258.6,29.4,258.6,56.4,309,56.1z"/>
<path class="st2" d="M297.2,48.7c-11.1-7.2,12.5-0.7,14.1-1.7c-0.4-4.4-33.2-6.6-5.6-11.7c-1.2-2.2,4.8-0.8,5.5-1.2
	c2.1,3.4,11.1-0.1,11.3,5.5c-5.2,1.8-14.1-3.8-16.9-0.6c14.6,4.8,28.5,4.4,5.6,12.6C306.5,51.9,301.7,48.9,297.2,48.7z"/>
<path class="st1" d="M254.7,29.6c-14.4,35.7,109.8,35.7,95.4,0C350.1,29.6,254.7,29.6,254.7,29.6z"/>
<path class="st2" d="M302.4,45.8c61.9,0.4,61.9-32.8,0-32.4C240.5,12.9,240.5,46.2,302.4,45.8z"/>
<path class="st1" d="M302.4,42.7c50.3,0.3,50.4-26.7,0-26.4C252,16,252,43.1,302.4,42.7z"/>
<path class="st2" d="M290.6,35.4c-11.1-7.2,12.5-0.7,14.1-1.7c-0.4-4.4-33.2-6.6-5.6-11.7c-1.2-2.2,4.8-0.8,5.5-1.2
	c21.8,6.9,7,5.7-4.8,4.1c-2.9,5,27,1.9,14.1,10.4c-1.2,1.5-9.5-0.7-9.3,3C299.9,38.5,295.1,35.6,290.6,35.4z"/>
<path class="st1" d="M251.4,16.2c-14.4,35.7,109.8,35.7,95.4,0C346.8,16.2,251.4,16.2,251.4,16.2z"/>
<path class="st2" d="M299.1,32.4C361,32.8,361-0.4,299.1,0C237.2-0.4,237.2,32.8,299.1,32.4z"/>
<path class="st1" d="M299.1,29.4c50.4,0.3,50.4-26.7,0-26.4C248.8,2.7,248.8,29.7,299.1,29.4z"/>
<path class="st2" d="M287.3,22.1c-11.1-7.2,12.5-0.7,14.1-1.7c-0.4-4.4-33.2-6.6-5.6-11.7c-1.2-2.2,4.8-0.8,5.5-1.2
	c21.8,6.9,7,5.7-4.8,4.1c-2.9,5,27,1.9,14.1,10.4c-1.2,1.5-9.5-0.7-9.3,3C296.6,25.2,291.8,22.2,287.3,22.1z"/>
<path class="st1" d="M318.7,238.2c-14.4,35.7,109.8,35.7,95.4,0C414.1,238.2,318.7,238.2,318.7,238.2z"/>
<path class="st2" d="M366.4,254.4c61.9,0.4,61.9-32.8,0-32.4C304.5,221.6,304.5,254.8,366.4,254.4z"/>
<path class="st1" d="M366.4,251.4c50.3,0.3,50.4-26.7,0-26.4C316,224.7,316,251.7,366.4,251.4z"/>
<path class="st2" d="M354.6,244c-11.1-7.2,12.5-0.7,14.1-1.7c-0.4-4.4-33.2-6.6-5.6-11.7c-1.2-2.2,4.8-0.8,5.5-1.2
	c21.8,6.9,7,5.7-4.8,4.1c2.4,7,35.5,1.8,4.8,13.4C363.9,247.2,359.1,244.2,354.6,244z"/>
<path class="st1" d="M323.6,224.9c-14.4,35.7,109.8,35.7,95.4,0C419,224.9,323.6,224.9,323.6,224.9z"/>
<path class="st2" d="M419,224.9c1.6,20.9-97.1,20.9-95.4,0C322,204,420.7,204,419,224.9z"/>
<path class="st1" d="M410.2,224.9c1.3,17-79,17-77.7,0C331.2,207.9,411.5,207.8,410.2,224.9z"/>
<path class="st2" d="M359.6,230.7c-11.1-7.2,12.5-0.7,14.1-1.7c-0.4-4.4-33.2-6.6-5.6-11.7c-1.2-2.2,4.8-0.8,5.5-1.2
	c2.1,3.4,11.1-0.1,11.3,5.5c-5.2,1.8-14.1-3.8-16.9-0.6c14.6,4.8,28.5,4.4,5.6,12.6C368.8,233.8,364.1,230.8,359.6,230.7z"/>
<path class="st1" d="M320.3,211.5c-14.4,35.7,109.8,35.7,95.4,0C415.8,211.5,320.3,211.5,320.3,211.5z"/>
<path class="st2" d="M368,227.7c61.9,0.4,61.9-32.8,0-32.4C306.2,194.9,306.2,228.1,368,227.7z"/>
<path class="st1" d="M368,224.7c50.4,0.3,50.4-26.7,0-26.4C317.7,198,317.7,225,368,224.7z"/>
<path class="st2" d="M356.3,217.4c-11.1-7.2,12.5-0.7,14.1-1.7c-0.4-4.4-33.2-6.6-5.6-11.7c-1.2-2.2,4.8-0.8,5.5-1.2
	c2.1,3.4,11.1-0.1,11.3,5.5c-5.2,1.8-14.1-3.8-16.9-0.6c14.6,4.8,28.5,4.4,5.6,12.6C365.5,220.5,360.8,217.5,356.3,217.4z"/>
<path class="st1" d="M312.1,198.2c-14.4,35.7,109.8,35.7,95.4,0C407.5,198.2,312.1,198.2,312.1,198.2z"/>
<path class="st2" d="M407.5,198.2c1.6,20.9-97.1,20.9-95.4,0C310.4,177.3,409.1,177.3,407.5,198.2z"/>
<path class="st1" d="M398.6,198.2c1.3,17-79,17-77.7,0C319.6,181.2,400,181.2,398.6,198.2z"/>
<path class="st2" d="M348,204c-11.1-7.2,12.5-0.7,14.1-1.7c-0.4-4.4-33.2-6.6-5.6-11.7c-1.2-2.2,4.8-0.8,5.5-1.2
	c2.1,3.4,11.1-0.1,11.3,5.5c-5.2,1.8-14.1-3.8-16.9-0.6c14.6,4.8,28.5,4.4,5.6,12.6C357.3,207.1,352.5,204.1,348,204z"/>
<path class="st1" d="M317,184.8c-14.4,35.7,109.8,35.7,95.4,0C412.5,184.8,317,184.8,317,184.8z"/>
<path class="st2" d="M364.7,201c61.9,0.4,61.9-32.8,0-32.4C302.9,168.2,302.9,201.5,364.7,201z"/>
<path class="st1" d="M364.7,198c50.4,0.3,50.4-26.7,0-26.4C314.4,171.3,314.4,198.4,364.7,198z"/>
<path class="st2" d="M353,190.7c-11.1-7.2,12.5-0.7,14.1-1.7c-0.4-4.4-33.2-6.6-5.6-11.7c-1.2-2.2,4.8-0.8,5.5-1.2
	c21.8,6.9,7,5.7-4.8,4.1c-2.9,5,27,1.9,14.1,10.4c-1.2,1.5-9.5-0.7-9.3,3C362.2,193.8,357.5,190.8,353,190.7z"/>
<path class="st1" d="M323.6,171.5c-14.4,35.7,109.8,35.7,95.4,0C419,171.5,323.6,171.5,323.6,171.5z"/>
<path class="st2" d="M419,171.5c1.6,20.9-97.1,20.9-95.4,0C322,150.6,420.7,150.6,419,171.5z"/>
<path class="st1" d="M410.2,171.5c1.3,17-79,17-77.7,0C331.2,154.5,411.5,154.5,410.2,171.5z"/>
<path class="st2" d="M359.6,177.3c-11.1-7.2,12.5-0.7,14.1-1.7c-0.4-4.4-33.2-6.6-5.6-11.7c-1.2-2.2,4.8-0.8,5.5-1.2
	c2.1,3.4,11.1-0.1,11.3,5.5c-5.2,1.8-14.1-3.8-16.9-0.6c14.6,4.8,28.5,4.4,5.6,12.6C368.8,180.5,364.1,177.5,359.6,177.3z"/>
<path class="st1" d="M320.3,158.1c-14.4,35.7,109.8,35.7,95.4,0C415.8,158.1,320.3,158.1,320.3,158.1z"/>
<path class="st2" d="M368,174.3c61.9,0.4,61.9-32.8,0-32.4C306.2,141.5,306.2,174.8,368,174.3z"/>
<path class="st1" d="M368,171.3c50.4,0.3,50.4-26.7,0-26.4C317.7,144.6,317.7,171.7,368,171.3z"/>
<path class="st2" d="M356.3,164c-11.1-7.2,12.5-0.7,14.1-1.7c-0.4-4.4-33.2-6.6-5.6-11.7c-1.2-2.2,4.8-0.8,5.5-1.2
	c21.8,6.9,7,5.6-4.8,4.1c-2.9,5,27,1.9,14.1,10.4c-1.2,1.5-9.5-0.7-9.3,3C365.5,167.1,360.8,164.1,356.3,164z"/>
<path class="st1" d="M325.2,144.8c-14.4,35.7,109.8,35.7,95.4,0C420.7,144.8,325.2,144.8,325.2,144.8z"/>
<path class="st2" d="M373,161c61.9,0.4,61.9-32.8,0-32.4C311.1,128.2,311.1,161.4,373,161z"/>
<path class="st1" d="M411.8,144.8c1.3,17-79,17-77.7,0C332.8,127.8,413.2,127.8,411.8,144.8z"/>
<path class="st2" d="M361.2,150.6c-11.1-7.2,12.5-0.7,14.1-1.7c-0.4-4.4-33.2-6.6-5.6-11.7c-1.2-2.2,4.8-0.8,5.5-1.2
	c21.8,6.9,7,5.7-4.8,4.1c2.5,7,35.6,1.8,4.8,13.4C370.4,153.8,365.7,150.8,361.2,150.6z"/>
<path class="st1" d="M318.7,131.4c-14.4,35.7,109.8,35.7,95.4,0C414.1,131.4,318.7,131.4,318.7,131.4z"/>
<path class="st2" d="M366.4,147.7c61.9,0.4,61.9-32.8,0-32.4C304.5,114.8,304.5,148.1,366.4,147.7z"/>
<path class="st1" d="M366.4,144.6c50.3,0.3,50.4-26.7,0-26.4C316,117.9,316,145,366.4,144.6z"/>
<path class="st2" d="M354.6,137.3c-11.1-7.2,12.5-0.7,14.1-1.7c-0.4-4.4-33.2-6.6-5.6-11.7c-1.2-2.2,4.8-0.8,5.5-1.2
	c21.8,6.9,7,5.7-4.8,4.1c-2.9,5,27,1.9,14.1,10.4c-1.2,1.5-9.5-0.7-9.3,3C363.9,140.4,359.1,137.4,354.6,137.3z"/>
<path class="st1" d="M313.7,118.1c-14.4,35.7,109.8,35.7,95.4,0C409.2,118.1,313.7,118.1,313.7,118.1z"/>
<path class="st2" d="M409.2,118.1c1.6,20.9-97.1,20.9-95.4,0C312.1,97.2,410.8,97.2,409.2,118.1z"/>
<path class="st1" d="M400.3,118.1c1.3,17-79,17-77.7,0C321.3,101.1,401.6,101.1,400.3,118.1z"/>
<path class="st2" d="M349.7,123.9c-11.1-7.2,12.5-0.7,14.1-1.7c-0.4-4.4-33.2-6.6-5.6-11.7c-1.2-2.2,4.8-0.8,5.5-1.2
	c21.8,6.9,7,5.6-4.8,4.1c-2.9,5,27,1.9,14.1,10.4c-1.2,1.5-9.5-0.7-9.3,3C358.9,127.1,354.2,124.1,349.7,123.9z"/>
<path class="st1" d="M320.3,104.8c-14.4,35.7,109.8,35.7,95.4,0C415.8,104.8,320.3,104.8,320.3,104.8z"/>
<path class="st2" d="M368,121c61.9,0.4,61.9-32.8,0-32.4C306.2,88.1,306.2,121.4,368,121z"/>
<path class="st1" d="M368,117.9c50.4,0.3,50.4-26.7,0-26.4C317.7,91.2,317.7,118.3,368,117.9z"/>
<path class="st2" d="M356.3,110.6c-11.1-7.2,12.5-0.7,14.1-1.7c-0.4-4.4-33.2-6.6-5.6-11.7c-1.2-2.2,4.8-0.8,5.5-1.2
	c2.1,3.4,11.1-0.1,11.3,5.5c-5.2,1.8-14.1-3.8-16.9-0.6c14.6,4.8,28.5,4.4,5.6,12.6C365.5,113.7,360.8,110.7,356.3,110.6z"/>
<path class="st1" d="M325.2,91.4c-14.4,35.7,109.8,35.7,95.4,0C420.7,91.4,325.2,91.4,325.2,91.4z"/>
<path class="st2" d="M420.7,91.4c1.6,20.9-97.1,20.9-95.4,0C323.6,70.5,422.3,70.5,420.7,91.4z"/>
<path class="st1" d="M411.8,91.4c1.3,17-79,17-77.7,0C332.8,74.4,413.2,74.4,411.8,91.4z"/>
<path class="st2" d="M361.2,97.3c-11.1-7.2,12.5-0.7,14.1-1.7c-0.4-4.4-33.2-6.6-5.6-11.7c-1.2-2.2,4.8-0.8,5.5-1.2
	c21.8,6.9,7,5.7-4.8,4.1c-2.9,5,27,1.9,14.1,10.4c-1.2,1.5-9.5-0.7-9.3,3C370.4,100.4,365.7,97.4,361.2,97.3z"/>
<path class="st1" d="M182,232c-14.4,35.7,109.8,35.7,95.4,0C277.5,232,182,232,182,232z"/>
<path class="st2" d="M277.5,232c1.6,20.9-97.1,20.9-95.4,0C180.4,211.1,279.1,211.1,277.5,232z"/>
<path class="st1" d="M268.6,232c1.3,17-79,17-77.7,0C189.6,215,269.9,215,268.6,232z"/>
<path class="st2" d="M218,237.9c-11.1-7.2,12.5-0.7,14.1-1.7c-0.4-4.4-33.2-6.6-5.6-11.7c-1.2-2.2,4.8-0.8,5.5-1.2
	c2.1,3.4,11.1-0.1,11.3,5.5c-5.2,1.8-14.1-3.8-16.9-0.6c14.6,4.8,28.5,4.4,5.6,12.6C227.2,241,222.5,238,218,237.9z"/>
<path class="st1" d="M187,218.7c-14.4,35.7,109.8,35.7,95.4,0C282.4,218.7,187,218.7,187,218.7z"/>
<path class="st2" d="M234.7,234.9c61.9,0.4,61.9-32.8,0-32.4C172.9,202.1,172.9,235.3,234.7,234.9z"/>
<path class="st1" d="M234.7,231.9c50.3,0.3,50.3-26.7,0-26.4C184.4,205.1,184.4,232.2,234.7,231.9z"/>
<path class="st2" d="M223,224.5c-11.1-7.2,12.5-0.7,14.1-1.7c-0.4-4.4-33.2-6.6-5.6-11.7c-1.2-2.2,4.8-0.8,5.5-1.2
	c21.8,6.9,7,5.7-4.8,4.1c-2.9,5,27,1.9,14.1,10.4c-1.2,1.5-9.5-0.7-9.3,3C232.2,227.7,227.4,224.7,223,224.5z"/>
<path class="st1" d="M183.7,205.3c-14.4,35.7,109.8,35.7,95.4,0C279.1,205.3,183.7,205.3,183.7,205.3z"/>
<path class="st2" d="M279.1,205.3c1.6,20.9-97.1,20.9-95.4,0C182.1,184.5,280.8,184.5,279.1,205.3z"/>
<path class="st1" d="M270.3,205.3c1.3,17-79,17-77.7,0C191.2,188.3,271.6,188.3,270.3,205.3z"/>
<path class="st2" d="M219.7,211.2c-11.1-7.2,12.5-0.7,14.1-1.7c-0.4-4.4-33.2-6.6-5.6-11.7c-1.2-2.2,4.8-0.8,5.5-1.2
	c2.1,3.4,11.1-0.1,11.3,5.5c-5.2,1.8-14.1-3.8-16.9-0.6c14.6,4.8,28.5,4.4,5.6,12.6C228.9,214.3,224.2,211.3,219.7,211.2z"/>
<path class="st1" d="M175.4,192c-14.4,35.7,109.8,35.7,95.4,0C270.9,192,175.4,192,175.4,192z"/>
<path class="st2" d="M223.2,208.2c61.9,0.4,61.9-32.8,0-32.4C161.3,175.4,161.3,208.6,223.2,208.2z"/>
<path class="st1" d="M223.2,205.2c50.3,0.3,50.4-26.7,0-26.4C172.8,178.5,172.8,205.5,223.2,205.2z"/>
<path class="st2" d="M211.4,197.9c-11.1-7.2,12.5-0.7,14.1-1.7c-0.4-4.4-33.2-6.6-5.6-11.7c-1.2-2.2,4.8-0.8,5.5-1.2
	c21.8,6.9,7,5.7-4.8,4.1c2.1,6.9,35.7,1.9,4.8,13.4C220.6,201,215.9,198,211.4,197.9z"/>
<path class="st1" d="M180.4,178.7c-14.4,35.7,109.8,35.7,95.4,0C275.8,178.7,180.4,178.7,180.4,178.7z"/>
<path class="st2" d="M275.8,178.7c1.6,20.9-97.1,20.9-95.4,0C178.8,157.8,277.5,157.8,275.8,178.7z"/>
<path class="st1" d="M267,178.7c1.3,17-79,17-77.7,0C188,161.7,268.3,161.6,267,178.7z"/>
<path class="st2" d="M216.4,184.5c-11.1-7.2,12.5-0.7,14.1-1.7c-0.4-4.4-33.2-6.6-5.6-11.7c-1.2-2.2,4.8-0.8,5.5-1.2
	c21.8,6.9,7,5.6-4.8,4.1c-2.9,5,27,1.9,14.1,10.4c-1.2,1.5-9.5-0.7-9.3,3C225.6,187.6,220.9,184.7,216.4,184.5z"/>
<path class="st1" d="M187,165.3c-14.4,35.7,109.8,35.7,95.4,0C282.4,165.3,187,165.3,187,165.3z"/>
<path class="st2" d="M234.7,181.5c61.9,0.4,61.9-32.8,0-32.4C172.9,148.7,172.9,181.9,234.7,181.5z"/>
<path class="st1" d="M234.7,178.5c50.3,0.3,50.3-26.7,0-26.4C184.4,151.8,184.4,178.9,234.7,178.5z"/>
<path class="st2" d="M223,171.2c-11.1-7.2,12.5-0.7,14.1-1.7c-0.4-4.4-33.2-6.6-5.6-11.7c-1.2-2.2,4.8-0.8,5.5-1.2
	c21.8,6.9,7,5.7-4.8,4.1c2.5,7,35.6,1.8,4.8,13.4C232.2,174.3,227.4,171.3,223,171.2z"/>
<path class="st1" d="M183.7,152c-14.4,35.7,109.8,35.7,95.4,0C279.1,152,183.7,152,183.7,152z"/>
<path class="st2" d="M231.4,168.2c61.9,0.4,61.9-32.8,0-32.4C169.6,135.3,169.6,168.6,231.4,168.2z"/>
<path class="st1" d="M231.4,165.2c50.3,0.3,50.4-26.7,0-26.4C181.1,138.4,181.1,165.5,231.4,165.2z"/>
<path class="st2" d="M219.7,157.8c-11.1-7.2,12.5-0.7,14.1-1.7c-0.4-4.4-33.2-6.6-5.6-11.7c-1.2-2.2,4.8-0.8,5.5-1.2
	c2.1,3.4,11.1-0.1,11.3,5.5c-5.2,1.8-14.1-3.8-16.9-0.6c14.6,4.8,28.5,4.4,5.6,12.6C228.9,161,224.2,158,219.7,157.8z"/>
<path class="st1" d="M188.6,138.6c-14.4,35.7,109.8,35.7,95.4,0C284.1,138.6,188.6,138.6,188.6,138.6z"/>
<path class="st2" d="M236.4,154.8c61.9,0.4,61.9-32.8,0-32.4C174.5,122,174.5,155.3,236.4,154.8z"/>
<path class="st1" d="M236.4,151.8c50.4,0.3,50.4-26.7,0-26.4C186,125.1,186,152.2,236.4,151.8z"/>
<path class="st2" d="M224.6,144.5c-11.1-7.2,12.5-0.7,14.1-1.7c-0.4-4.4-33.2-6.6-5.6-11.7c-1.2-2.2,4.8-0.8,5.5-1.2
	c21.8,6.9,7,5.7-4.8,4.1c-2.9,5,27,1.9,14.1,10.4c-1.2,1.5-9.5-0.7-9.3,3C233.8,147.6,229.1,144.6,224.6,144.5z"/>
<path class="st1" d="M176.6,125.3c-14.4,35.7,109.8,35.7,95.4,0C272,125.3,176.6,125.3,176.6,125.3z"/>
<path class="st2" d="M224.3,141.5c61.9,0.4,61.9-32.8,0-32.4C162.4,108.6,162.4,141.9,224.3,141.5z"/>
<path class="st1" d="M224.3,138.5c50.3,0.3,50.4-26.7,0-26.4C174,111.7,174,138.8,224.3,138.5z"/>
<path class="st2" d="M212.5,131.1c-11.1-7.2,12.5-0.7,14.1-1.7c-0.4-4.4-33.2-6.6-5.6-11.7c-1.2-2.2,4.8-0.8,5.5-1.2
	c21.8,6.9,7,5.6-4.8,4.1c-2.9,5,27,1.9,14.1,10.4c-1.2,1.5-9.5-0.7-9.3,3C221.8,134.3,217,131.3,212.5,131.1z"/>
<path class="st1" d="M176.4,111.9c-14.4,35.7,109.8,35.7,95.4,0C271.9,111.9,176.4,111.9,176.4,111.9z"/>
<path class="st2" d="M224.1,128.2c61.9,0.4,61.9-32.8,0-32.4C162.3,95.3,162.3,128.6,224.1,128.2z"/>
<path class="st1" d="M224.1,125.1c50.4,0.3,50.4-26.7,0-26.4C173.8,98.4,173.8,125.5,224.1,125.1z"/>
<path class="st2" d="M212.4,117.8c-11.1-7.2,12.5-0.7,14.1-1.7c-0.4-4.4-33.2-6.6-5.6-11.7c-1.2-2.2,4.8-0.8,5.5-1.2
	c21.8,6.9,7,5.7-4.8,4.1c2.1,6.9,35.7,1.9,4.8,13.4C221.6,120.9,216.9,117.9,212.4,117.8z"/>
<path class="st1" d="M183.7,98.6c-14.4,35.7,109.8,35.7,95.4,0C279.1,98.6,183.7,98.6,183.7,98.6z"/>
<path class="st2" d="M231.4,114.8c61.9,0.4,61.9-32.8,0-32.4C169.6,82,169.6,115.2,231.4,114.8z"/>
<path class="st1" d="M270.3,98.6c1.3,17-79,17-77.7,0C191.2,81.6,271.6,81.6,270.3,98.6z"/>
<path class="st2" d="M219.7,104.4c-11.1-7.2,12.5-0.7,14.1-1.7c-0.4-4.4-33.2-6.6-5.6-11.7c-1.2-2.2,4.8-0.8,5.5-1.2
	c2.1,3.4,11.1-0.1,11.3,5.5c-5.2,1.8-14.1-3.8-16.9-0.6c14.6,4.8,28.5,4.4,5.6,12.6C228.9,107.6,224.2,104.6,219.7,104.4z"/>
<path class="st1" d="M188.6,85.3c-14.4,35.7,109.8,35.7,95.4,0C284.1,85.3,188.6,85.3,188.6,85.3z"/>
<path class="st2" d="M236.4,101.5c61.9,0.4,61.9-32.8,0-32.4C174.5,68.6,174.5,101.9,236.4,101.5z"/>
<path class="st1" d="M236.4,98.4c50.4,0.3,50.4-26.7,0-26.4C186,71.7,186,98.8,236.4,98.4z"/>
<path class="st2" d="M224.6,91.1c-11.1-7.2,12.5-0.7,14.1-1.7c-0.4-4.4-33.2-6.6-5.6-11.7c-1.2-2.2,4.8-0.8,5.5-1.2
	c21.8,6.9,7,5.7-4.8,4.1c-1.5,5.5,16.2,0.7,17.2,7.4c-0.2,5.9-11.6,1.4-12.4,6.1C233.8,94.2,229.1,91.3,224.6,91.1z"/>
<g>
	<path class="st0" d="M313.7,121.8c-2.5,8.2,6,12.1,4.9,19.9c3.4,10.6,9.3,4.1,1.6,16.5c-1,6.4,1,13.1,3.3,18.5
		c-9,7.1-19.4,35.3-3.3,40.9c-1.6,5.3,3.5,8.5,3.3,13.5c-12.1,13.5-5,27.7,17.7,31.2c2.8-14.5-13.4-8.6-3.7-21.8
		c-0.1-13.5,15-2.5,3.7-32.8c7.7-3.6,5.2-11.3,5.5-17.4c0.9-4.7-9.6-6.9-7.4-13.3c-8.9-13.1-1.7-5.6,1.8-16.5
		C350.7,137.7,351.2,125.9,313.7,121.8z"/>
</g>
<g>
	<path class="st0" d="M239.9,136.8c1.5,7.8-8,10.6-5.5,18.5c-10.4,4.6-10.6,19.9-1.8,25.6c-2.5,17.5,12.9,6.8,1.8,22.6
		c-1.1,6.5,1.1,13.1,3.7,18.5c-10,5-6.3,13.6-12.9,21.6c-6.9,32.1,59.4,5.1,52.3-1.2c0-8.4,7.6-14,4.9-23.6
		c-5.2-7.8,0.2-17.5-11.5-22.4c5.1-3.5,5.3-7.4,4.9-12.5c12-6.3,5.4-18.9,3.3-27.7c7.9-6,7.7-20.6-1.6-25.6
		C278.9,108.7,233.5,134.4,239.9,136.8z"/>
</g>
<path class="st1" d="M238.3,278.8c-14.4,35.7,109.8,35.7,95.4,0C333.7,278.8,238.3,278.8,238.3,278.8z"/>
<path class="st2" d="M286,295c61.9,0.4,61.9-32.8,0-32.4C224.1,262.1,224.1,295.4,286,295z"/>
<path class="st1" d="M324.8,278.7c1.3,17-79,17-77.7,0C245.8,261.7,326.2,261.7,324.8,278.7z"/>
<path class="st2" d="M274.2,284.6c-11.1-7.2,12.5-0.7,14.1-1.7c-0.4-4.4-33.2-6.6-5.6-11.7c-1.2-2.2,4.8-0.8,5.5-1.2
	c21.8,6.9,7,5.6-4.8,4.1c2.1,6.9,35.7,1.9,4.8,13.4C283.5,287.7,278.7,284.7,274.2,284.6z"/>
<path class="st1" d="M243.2,265.4c-14.4,35.7,109.8,35.7,95.4,0C338.7,265.4,243.2,265.4,243.2,265.4z"/>
<path class="st2" d="M290.9,281.6c61.9,0.4,61.9-32.8,0-32.4C229.1,248.8,229.1,282,290.9,281.6z"/>
<path class="st1" d="M290.9,278.6c50.4,0.3,50.3-26.7,0-26.4C240.6,251.9,240.6,278.9,290.9,278.6z"/>
<path class="st2" d="M279.2,271.3c-11.1-7.2,12.5-0.7,14.1-1.7c-0.4-4.4-33.2-6.6-5.6-11.7c-1.2-2.2,4.8-0.8,5.5-1.2
	c2.1,3.4,11.1-0.1,11.3,5.5c-5.2,1.8-14.1-3.8-16.9-0.6c14.6,4.8,28.5,4.4,5.6,12.6C288.4,274.4,283.7,271.4,279.2,271.3z"/>
<path class="st1" d="M239.9,252.1c-14.4,35.7,109.8,35.7,95.4,0C335.4,252.1,239.9,252.1,239.9,252.1z"/>
<path class="st2" d="M287.6,268.3c61.9,0.4,61.9-32.8,0-32.4C225.8,235.4,225.8,268.7,287.6,268.3z"/>
<path class="st1" d="M326.5,252.1c1.3,17-79,17-77.7,0C247.5,235.1,327.8,235.1,326.5,252.1z"/>
<path class="st2" d="M275.9,257.9c-11.1-7.2,12.5-0.7,14.1-1.7c-0.4-4.4-33.2-6.6-5.6-11.7c-1.2-2.2,4.8-0.8,5.5-1.2
	c2.1,3.4,11.1-0.1,11.3,5.5c-5.2,1.8-14.1-3.8-16.9-0.6c14.6,4.8,28.5,4.4,5.6,12.6C285.1,261,280.4,258.1,275.9,257.9z"/>
<path class="st1" d="M231.7,238.7c-14.4,35.7,109.8,35.7,95.4,0C327.1,238.7,231.7,238.7,231.7,238.7z"/>
<path class="st2" d="M279.4,254.9c61.9,0.4,61.9-32.8,0-32.4C217.5,222.1,217.5,255.4,279.4,254.9z"/>
<path class="st1" d="M279.4,251.9c50.4,0.3,50.4-26.7,0-26.4C229,225.2,229,252.3,279.4,251.9z"/>
<path class="st2" d="M267.6,244.6c-11.1-7.2,12.5-0.7,14.1-1.7c-0.4-4.4-33.2-6.6-5.6-11.7c-1.2-2.2,4.8-0.8,5.5-1.2
	c2.1,3.4,11.1-0.1,11.3,5.5c-5.2,1.8-14.1-3.8-16.9-0.6c14.6,4.8,28.5,4.4,5.6,12.6C276.9,247.7,272.1,244.7,267.6,244.6z"/>
<path class="st1" d="M236.6,225.4c-14.4,35.7,109.8,35.7,95.4,0C332.1,225.4,236.6,225.4,236.6,225.4z"/>
<path class="st2" d="M284.3,241.6c61.9,0.4,61.9-32.8,0-32.4C222.5,208.7,222.5,242,284.3,241.6z"/>
<path class="st1" d="M284.3,238.6c50.3,0.3,50.4-26.7,0-26.4C234,211.8,234,238.9,284.3,238.6z"/>
<path class="st2" d="M272.6,231.2c-11.1-7.2,12.5-0.7,14.1-1.7c-0.4-4.4-33.2-6.6-5.6-11.7c-1.2-2.2,4.8-0.8,5.5-1.2
	c21.8,6.9,7,5.7-4.8,4.1c-2.9,5,27,1.9,14.1,10.4c-1.2,1.5-9.5-0.7-9.3,3C281.8,234.4,277.1,231.4,272.6,231.2z"/>
<path class="st1" d="M243.2,212c-14.4,35.7,109.8,35.7,95.4,0C338.7,212,243.2,212,243.2,212z"/>
<path class="st2" d="M290.9,228.2c61.9,0.4,61.9-32.8,0-32.4C229.1,195.4,229.1,228.7,290.9,228.2z"/>
<path class="st1" d="M290.9,225.2c50.3,0.3,50.4-26.7,0-26.4C240.6,198.5,240.6,225.6,290.9,225.2z"/>
<path class="st2" d="M279.2,217.9c-11.1-7.2,12.5-0.7,14.1-1.7c-0.4-4.4-33.2-6.6-5.6-11.7c-1.2-2.2,4.8-0.8,5.5-1.2
	c21.8,6.9,7,5.6-4.8,4.1c-1.5,5.5,16.2,0.7,17.2,7.4c-0.2,5.9-11.6,1.4-12.4,6.1C288.4,221,283.7,218,279.2,217.9z"/>
<path class="st1" d="M239.9,198.7c-14.4,35.7,109.8,35.7,95.4,0C335.4,198.7,239.9,198.7,239.9,198.7z"/>
<path class="st2" d="M335.4,198.7c1.6,20.9-97.1,20.9-95.4,0C238.3,177.8,337,177.8,335.4,198.7z"/>
<path class="st1" d="M326.5,198.7c1.3,17-79,17-77.7,0C247.5,181.7,327.8,181.7,326.5,198.7z"/>
<path class="st2" d="M275.9,204.5c-11.1-7.2,12.5-0.7,14.1-1.7c-0.4-4.4-33.2-6.6-5.6-11.7c-1.2-2.2,4.8-0.8,5.5-1.2
	c2.1,3.4,11.1-0.1,11.3,5.5c-5.2,1.8-14.1-3.8-16.9-0.6c14.6,4.8,28.5,4.4,5.6,12.6C285.1,207.7,280.4,204.7,275.9,204.5z"/>
<path class="st1" d="M244.9,185.3c-14.4,35.7,109.8,35.7,95.4,0C340.3,185.3,244.9,185.3,244.9,185.3z"/>
<path class="st2" d="M292.6,201.6c61.9,0.4,61.9-32.8,0-32.4C230.7,168.7,230.7,202,292.6,201.6z"/>
<path class="st1" d="M292.6,198.5c50.4,0.3,50.3-26.7,0-26.4C242.2,171.8,242.2,198.9,292.6,198.5z"/>
<path class="st2" d="M280.8,191.2c-11.1-7.2,12.5-0.7,14.1-1.7c-0.4-4.4-33.2-6.6-5.6-11.7c-1.2-2.2,4.8-0.8,5.5-1.2
	c2.1,3.4,11.1-0.1,11.3,5.5c-5.2,1.8-14.1-3.8-16.9-0.6c14.6,4.8,28.5,4.4,5.6,12.6C290.1,194.3,285.3,191.3,280.8,191.2z"/>
<path class="st1" d="M238.3,172c-14.4,35.7,109.8,35.7,95.4,0C333.7,172,238.3,172,238.3,172z"/>
<path class="st2" d="M333.7,172c1.6,20.9-97.1,20.9-95.4,0C236.6,151.1,335.4,151.1,333.7,172z"/>
<path class="st1" d="M324.8,172c1.3,17-79,17-77.7,0C245.8,155,326.2,155,324.8,172z"/>
<path class="st2" d="M274.2,177.8c-11.1-7.2,12.5-0.7,14.1-1.7c-0.4-4.4-33.2-6.6-5.6-11.7c-1.2-2.2,4.8-0.8,5.5-1.2
	c21.8,6.9,7,5.7-4.8,4.1c-2.9,5,27,1.9,14.1,10.4c-1.2,1.5-9.5-0.7-9.3,3C283.5,181,278.7,178,274.2,177.8z"/>
<path class="st1" d="M233.3,158.7c-14.4,35.7,109.8,35.7,95.4,0C328.8,158.7,233.3,158.7,233.3,158.7z"/>
<path class="st2" d="M281,174.9c61.9,0.4,61.9-32.8,0-32.4C219.2,142,219.2,175.3,281,174.9z"/>
<path class="st1" d="M281,171.8c50.3,0.3,50.4-26.7,0-26.4C230.7,145.1,230.7,172.2,281,171.8z"/>
<path class="st2" d="M269.3,164.5c-11.1-7.2,12.5-0.7,14.1-1.7c-0.4-4.4-33.2-6.6-5.6-11.7c-1.2-2.2,4.8-0.8,5.5-1.2
	c2.1,3.4,11.1-0.1,11.3,5.5c-5.2,1.8-14.1-3.8-16.9-0.6c14.6,4.8,28.5,4.4,5.6,12.6C278.5,167.6,273.8,164.6,269.3,164.5z"/>
<path class="st1" d="M239.9,145.3c-14.4,35.7,109.8,35.7,95.4,0C335.4,145.3,239.9,145.3,239.9,145.3z"/>
<path class="st2" d="M335.4,145.3c1.6,20.9-97.1,20.9-95.4,0C238.3,124.4,337,124.4,335.4,145.3z"/>
<path class="st1" d="M326.5,145.3c1.3,17-79,17-77.7,0C247.5,128.3,327.8,128.3,326.5,145.3z"/>
<path class="st2" d="M275.9,151.2c-11.1-7.2,12.5-0.7,14.1-1.7c-0.4-4.4-33.2-6.6-5.6-11.7c-1.2-2.2,4.8-0.8,5.5-1.2
	c2.1,3.4,11.1-0.1,11.3,5.5c-5.2,1.8-14.1-3.8-16.9-0.6c14.6,4.8,28.5,4.4,5.6,12.6C285.1,154.3,280.4,151.3,275.9,151.2z"/>
<path class="st1" d="M244.9,132c-14.4,35.7,109.8,35.7,95.4,0C340.3,132,244.9,132,244.9,132z"/>
<path class="st2" d="M292.6,148.2c61.9,0.4,61.9-32.8,0-32.4C230.7,115.3,230.7,148.6,292.6,148.2z"/>
<path class="st1" d="M292.6,145.2c50.3,0.3,50.4-26.7,0-26.4C242.2,118.4,242.2,145.5,292.6,145.2z"/>
<path class="st2" d="M280.8,137.8c-11.1-7.2,12.5-0.7,14.1-1.7c-0.4-4.4-33.2-6.6-5.6-11.7c-1.2-2.2,4.8-0.8,5.5-1.2
	c2.1,3.4,11.1-0.1,11.3,5.5c-5.2,1.8-14.1-3.8-16.9-0.6c14.6,4.8,28.5,4.4,5.6,12.6C290.1,141,285.3,138,280.8,137.8z"/>
<g>
	<path class="st0" d="M177.3,120c-0.3,0-0.6,0.2-0.8,0.4v1.8c0,1.1,0.2,3.1,0.2,3.1v10.2c0,2,1,3.9,3,5.6c0.5-1.8,0.9-4.9,0.9-10.6
		C180.5,118.8,177.3,120,177.3,120z"/>
</g>
<g>
	<path class="st0" d="M71.5,275.6c76.3,0,76.3-22.3,0-22.3C-4.9,253.3-4.9,275.5,71.5,275.6z"/>
</g>
<path class="st3" d="M166.5,141.4c0,0,7.9-5.5,2.3-10.7c-5.5-5.2-9,3.7-9,3.7L166.5,141.4L166.5,141.4z"/>
<path class="st4" d="M158.1,136.2l1.5-1.9l7.2,7.5l-1.6,2L158.1,136.2z"/>
<path class="st5" d="M98.5,140.4c0,0,28.7,44.9,67.7,3.1l-7.9-8.8c0,0-23.4,31.9-52.2,0.5L98.5,140.4L98.5,140.4z"/>
<path class="st6" d="M158.1,149.1c0.4-0.5,0.3-1.1-0.2-1.5c-0.5-0.4-1.2-0.3-1.5,0.2c-0.4,0.5-0.3,1.1,0.2,1.5
	C157,149.6,157.7,149.6,158.1,149.1L158.1,149.1z"/>
<path class="st6" d="M160.9,146.6c0.4-0.5,0.3-1.2-0.2-1.5c-0.5-0.4-1.2-0.3-1.5,0.2c-0.4,0.5-0.3,1.1,0.2,1.5
	C159.9,147.1,160.5,147,160.9,146.6z"/>
<path class="st6" d="M163.7,144.1c0.4-0.5,0.3-1.1-0.2-1.5c-0.5-0.4-1.1-0.3-1.5,0.2c-0.4,0.5-0.3,1.2,0.2,1.5
	C162.6,144.7,163.3,144.6,163.7,144.1z"/>
<path class="st3" d="M18.3,145.2C-5,35.6,113,30.1,105.7,137L18.3,145.2L18.3,145.2z"/>
<path class="st5" d="M109.7,201.9c-1,13.5-4.4,40.9-7.6,53.9c0,0,9.9-5.6,13.6,2.1c5.3,10.9-20.6,3.5-20.6,3.5l4.4-30.5l-0.6-19
	c0,0-22.9,7-56.9,6L41.5,233L36,261c0,0,6.3-9,13.3-1.2c9.4,10.6-19.5,4-19.5,4l3.7-31.4l-2.2-19.2
	C31.3,213.3,60.5,201.5,109.7,201.9L109.7,201.9z"/>
<path class="st5" d="M44.8,139.5l31.2,32.7l22.8-38.4l7.8-0.8l3,68.9c-16.9,8.4-54.7,11.5-78.4,11.4L15.9,143L44.8,139.5L44.8,139.5
	z"/>
<path class="st4" d="M98.9,133.8l-22.8,38.4l-31.2-32.7L98.9,133.8z"/>
<path class="st7" d="M98.9,133.8l1.9,15.2l-8.4,2.6l2.4,11.5l-18.7,9L98.9,133.8z"/>
<path class="st7" d="M76.1,172.2L56.3,165l-0.2-8.5l-9.4-2.4l-1.9-14.6L76.1,172.2z"/>
<path class="st5" d="M80.9,143.2l-3.3-4l-7.4,0.5l-2.2,5.4l3.3,3.2L69,164.9l7.1,7.3l6.1-10.2l-4.3-14.2L80.9,143.2z"/>
<path class="st6" d="M74.4,179.6c1,3.1,5.8,1.5,4.7-1.5C78.2,174.9,73.4,176.5,74.4,179.6z"/>
<path class="st6" d="M75.2,190.9c0.9,3.1,5.8,1.5,4.7-1.5C79,186.3,74.2,187.9,75.2,190.9L75.2,190.9z"/>
<path class="st8" d="M105.8,32c0,0,16.7,55.8-71.9,53.6L33,103c0,0-8.4-8-9.5,0.8c-1.4,10.1,7.9,6.5,7.9,6.5s-6.7,21.2-14.8,30.6
	c-0.5,0.5-38.1-81.3,1.5-80.5c0,0,0.5-18.7,25.4-24.2C78.4,28.5,85.7,59.1,105.8,32L105.8,32z"/>
<path class="st9" d="M87.5,114.4c2.1,18.3-25.6,21.7-27.9,3.4L87.5,114.4z"/>
<path class="st8" d="M57.1,104c1,7-4.7,7.8-5.6,0.8C50.5,97.8,56.2,97,57.1,104z"/>
<path class="st8" d="M93.7,98.9c1,7-4.7,7.8-5.6,0.8C87.1,92.7,92.8,91.9,93.7,98.9z"/>
<path class="st10" d="M27,108.6l-1.2-2.9C28.5,99.8,32.6,110.5,27,108.6z"/>
<g>
	<path class="st0" d="M50.8,173.3c0.8-0.5,1.6,0.7,0.8,1.2C50.9,175,50,173.8,50.8,173.3z"/>
</g>
<path class="st11" d="M14.3,184.8l-0.5,0.4l12.9,18.3l0.5-0.4L14.3,184.8z"/>
<path class="st11" d="M10.9,187.2l-0.5,0.4l12.9,18.3l0.5-0.4L10.9,187.2z"/>
<path class="st3" d="M27.9,208.9c8.9,8.8,19.8-5.5,4.9-8L27.9,208.9z"/>
<path class="st4" d="M31.8,199.8l2.2,1l-5.7,8.7l-1.9-1.6L31.8,199.8z"/>
<path class="st5" d="M16.3,144.6c0,0-38.5,34,10.1,64.8l6.9-9.6c0,0-36.1-16.7-14.2-44.1L16.3,144.6L16.3,144.6z"/>
<path class="st6" d="M19.2,202.6c1.3,0.6,2.2-1.4,0.9-2C18.9,200,17.9,202,19.2,202.6z"/>
<path class="st6" d="M22.3,204.8c1.3,0.6,2.2-1.4,0.9-2C22,202.2,21,204.2,22.3,204.8z"/>
<path class="st6" d="M25.3,207c1.3,0.6,2.2-1.4,0.9-1.9C25,204.4,24,206.4,25.3,207L25.3,207z"/>
</svg>
