<?xml version="1.0" encoding="utf-8"?>
<!-- Generator: Adobe Illustrator 24.3.0, SVG Export Plug-In . SVG Version: 6.00 Build 0)  -->
<svg version="1.1" id="Слой_1" xmlns="http://www.w3.org/2000/svg" xmlns:xlink="http://www.w3.org/1999/xlink" x="0px" y="0px"
	 viewBox="0 0 70.7 71" style="enable-background:new 0 0 70.7 71;" xml:space="preserve">
<style type="text/css">
	.st0{fill:none;stroke:#0E87DF;stroke-width:3;stroke-miterlimit:10;}
	.st1{fill:#0E87DF;}
</style>
<g>
	<path class="st0" d="M35.4,69c18.5,0,33.5-15,33.5-33.5S53.9,2,35.4,2S1.9,17,1.9,35.5S16.9,69,35.4,69z"/>
	<path class="st1" d="M30.7,24c0.7,0.2,1.4,0.6,1.9,1.2l5.8,7.3c1,1.3,1,3.1,0,4.4l5.6,7.1c0.3,0.3,0.2,0.9-0.1,1.1
		c-0.3,0.3-0.9,0.2-1.1-0.1L37,38c-1.5,0.7-3.2,0.3-4.3-1L27,29.6c-0.5-0.6-0.7-1.4-0.7-2.1c-3.7,4.3-4,10.7-0.4,15.3l6.5,8.3
		c4.1,5.2,11.6,6.1,16.9,2l0.8-0.6c5.2-4.1,6.1-11.6,2-16.9l-6.5-8.3C41.9,22.7,35.7,21.5,30.7,24L30.7,24z"/>
	<path class="st1" d="M34.7,33.9c0.6-0.5,0.1-2.1-1.1-3.7c-1.2-1.6-2.7-2.4-3.3-2c-0.6,0.5-0.1,2.1,1.1,3.7
		C32.7,33.5,34.1,34.3,34.7,33.9z"/>
	<path class="st0" d="M16.5,8c-5.4,4.4-8.2,9.6-7.1,13c0.8,2.4,2.4,3.5,2.4,3.5c1.2,0.8,2.4,0.9,3.5,1.1c0.8,0.1,2.6,0.2,4.6-0.6
		c2.3-0.9,2.6-2.2,4-2.3c0.9-0.1,2.2,0.3,4,2.5"/>
</g>
</svg>
