<?xml version="1.0" encoding="utf-8"?>
<!-- Generator: Adobe Illustrator 27.1.1, SVG Export Plug-In . SVG Version: 6.00 Build 0)  -->
<svg version="1.1" id="Слой_1" xmlns="http://www.w3.org/2000/svg" xmlns:xlink="http://www.w3.org/1999/xlink" x="0px" y="0px"
	 viewBox="0 0 590 615" style="enable-background:new 0 0 590 615;" xml:space="preserve">
<style type="text/css">
	.st0{fill:#0E87DF;}
</style>
<g transform="translate(0.000000,615.000000) scale(0.100000,-0.100000)">
	<path class="st0" d="M2790,6129c-137-15-347-56-477-93c-245-71-551-208-596-268c-87-117-257-441-342-654c-129-321-173-580-145-856
		c17-175-2-355-67-633c-14-60-26-111-27-112s-38,10-81,24c-107,35-297,44-408,19c-256-57-414-246-393-471c13-143,77-224,266-342
		c174-108,219-165,228-284c4-61-21-219-34-219c-3,0-24,11-47,24c-90,52-240,75-368,57c-114-16-186-46-242-101c-44-44-47-50-47-99
		c0-83,32-127,125-174c69-34,139-47,255-47c120,0,187,13,260,51c101,52,135,103,188,274l15,50l9-40c21-98,92-333,123-406
		c56-134,173-299,304-429c64-64,152-140,196-170c123-84,312-174,477-227l148-48l32-75c91-219,107-393,48-528l-19-42l-54,34
		c-119,76-255,114-437,123c-148,7-243-7-327-46c-100-48-144-108-145-195c-1-89,45-147,146-185c199-74,670-35,812,68
		c43,31,112,136,146,223c16,39,22,84,26,169c5,130-11,234-54,347c-13,36-22,67-20,70c3,2,47-3,98-12c298-50,770-66,1011-34
		c97,13,107,13,101-1c-47-104-58-159-58-281c-1-139,15-217,66-330c42-95,73-134,128-164c109-59,385-104,570-93
		c251,15,370,86,370,220c0,165-177,257-470,244c-186-9-333-50-446-127l-45-30l-10,28c-74,190-61,388,34,529l32,47l165,42
		c396,102,580,202,879,477c257,237,366,409,402,637c11,66,14,71,22,47c5-15,15-27,22-27c8,0,27-12,42-26c93-88,292-125,470-88
		c160,33,243,104,243,207c0,121-156,206-376,207c-120,0-184-13-266-53c-77-38-72-42-87,66c-18,131,19,239,102,295
		c23,16,88,53,144,81c128,66,193,122,233,205c85,173,56,354-81,500c-149,160-434,223-657,146c-35-12-65-20-66-19c-2,2-19,78-39,169
		c-45,206-72,371-92,570c-60,595-162,1103-287,1427l-39,102l-77,32c-205,85-479,159-747,200c-111,17-197,22-410,24
		C2997,6137,2837,6134,2790,6129z M3209,6012c15-25,66-727,82-1127c12-315,2-597-23-700l-13-50l-70-8c-81-9-506,0-517,11
		c-31,31-35,505-8,847c33,430,95,1004,108,1017c11,11,243,27,350,24C3170,6024,3204,6019,3209,6012z M3551,5989
		c211-30,454-93,644-166l91-34l32-87c71-196,142-481,191-772c35-207,86-628,77-637c-23-24-612-114-896-138c-343-28-313-28-306-2
		c46,183,31,923-33,1652c-10,110-17,203-15,206C3340,6018,3385,6013,3551,5989z M2636,5953c-19-129-75-702-97-1003
		c-14-188-18-666-6-754l8-59l-113,7c-270,17-637,64-901,116c-83,17-160,33-171,36c-17,6-18,15-13,158c6,171,25,268,88,462
		c70,217,163,415,312,667l69,118l97,48c121,61,299,131,416,165c81,23,286,73,308,75C2638,5990,2639,5973,2636,5953z M1493,4146
		c265-54,630-100,977-124c180-13,820-14,1011-2c334,21,684,65,973,121c83,15,150,27,151,26s9-54,19-117c27-175,77-398,180-800
		c143-553,171-692,182-910c11-197-27-381-107-518c-45-75-313-345-454-456c-216-171-515-285-925-355c-426-73-985-41-1414,79
		c-435,122-734,339-936,679c-49,83-98,217-147,400c-59,227-53,269,177,1056c110,378,159,614,167,813c3,72,10,132,15,132
		S1426,4159,1493,4146z M5277,3515c130-41,221-114,266-214c33-71,30-179-6-253s-73-105-206-173s-189-110-229-171c-29-43-31-44-36-23
		c-3,13-15,67-26,119c-12,52-54,226-95,387c-41,160-75,294-75,296c0,8,103,47,150,57C5085,3553,5188,3544,5277,3515z M895,3450
		c82-12,205-50,205-63c0-5-36-132-80-281c-86-294-121-426-141-525l-12-64l-12,41c-31,105-104,183-255,276c-52,32-112,72-133,88
		c-112,89-128,258-34,377c64,81,139,121,272,146C793,3462,809,3462,895,3450z"/>
	<path class="st0" d="M2943,5538c-32-36-52-82-71-165c-22-102-24-501-3-608c30-150,66-205,133-205c98,0,138,125,146,446
		c8,371-41,554-148,554C2975,5560,2957,5553,2943,5538z"/>
	<path class="st0" d="M3750,3500c-120-19-231-78-347-184c-54-50-63-63-63-92c0-44,32-76,109-105c76-30,267-33,353-6
		c123,38,163,114,93,176c-49,43-130,64-247,65c-94,1-97,2-75,18c34,26,123,57,199,70c163,28,421-48,594-175c47-34,67-44,88-40
		c32,6,33,16,4,44c-79,74-272,174-401,208C3965,3503,3828,3512,3750,3500z M3566,3244c16-24,16-26-3-46c-13-12-34-20-56-20
		c-41,0-53,6-67,32C3411,3263,3533,3296,3566,3244z"/>
	<path class="st0" d="M2031,3490c-93-13-193-45-294-96c-99-49-211-125-227-153c-8-16-5-19,22-23c25-4,42,3,82,34
		c68,52,234,132,326,157c155,43,301,35,423-23l52-24l-60-1c-83-2-182-19-231-41c-60-26-84-53-84-95c0-61,65-103,194-126
		c244-42,500,75,389,178C2434,3451,2245,3519,2031,3490z M2228,3289c65-23,44-89-29-89c-41,0-69,20-69,51c0,17,18,30,66,49
		C2197,3300,2211,3295,2228,3289z"/>
	<path class="st0" d="M3535,2148c-92-59-212-114-310-144c-79-24-107-28-230-28c-120-1-151,2-215,22c-98,31-173,70-255,132
		c-61,46-69,50-83,36c-13-13-13-17-2-31c26-31,137-104,211-139c123-58,185-71,344-70c157,1,236,18,375,78c83,36,250,132,250,144
		c0,4-6,14-13,23C3596,2185,3588,2182,3535,2148z"/>
</g>
</svg>
