<?xml version="1.0" encoding="utf-8"?>
<!-- Generator: Adobe Illustrator 27.1.1, SVG Export Plug-In . SVG Version: 6.00 Build 0)  -->
<svg version="1.1" id="Слой_1" xmlns="http://www.w3.org/2000/svg" xmlns:xlink="http://www.w3.org/1999/xlink" x="0px" y="0px"
	 viewBox="0 0 590 615" style="enable-background:new 0 0 590 615;" xml:space="preserve">
<g transform="translate(0.000000,615.000000) scale(0.100000,-0.100000)">
	<path d="M2870,6133c-116-8-342-46-472-79c-188-47-357-110-531-198l-141-71l-83-140c-186-312-323-636-382-903c-36-161-45-292-31-445
		c15-157,9-294-20-461c-21-123-64-313-73-322c-3-3-34,3-69,15c-100,32-193,44-297,38c-177-11-292-56-389-153
		c-100-100-140-215-121-352c18-125,89-212,254-312c131-79,179-122,210-185c26-53,27-61,22-158c-3-56-11-119-18-139l-12-37l-51,29
		c-75,43-155,60-276,60c-218,0-364-75-377-194c-10-85,48-152,175-198c48-18,79-22,202-22c156,0,220,15,293,66c76,53,93,81,143,233
		c20,62,33,89,33,72c1-37,71-290,111-399c94-259,325-530,588-689c141-86,355-175,538-224c6-2,23-29,38-61c67-141,103-299,93-414
		c-6-66-41-180-57-180c-4,0-32,16-62,35c-222,146-655,166-818,37c-77-62-102-169-56-247c52-88,181-128,411-128c285,0,550,73,571,158
		c3,14,10,25,14,25c15,0,80,139,96,206c30,127,5,336-56,479c-11,26-19,49-18,50c2,2,53-5,113-16c334-57,842-67,1093-22l34,6l-20-40
		c-59-114-73-308-33-458c24-90,70-193,107-242c45-59,170-107,349-134c105-16,333-16,414,0c180,35,265,127,232,250
		c-16,61-49,101-107,133c-91,49-157,63-304,63c-202-1-345-36-483-121c-32-20-60-34-62-33c-2,2-13,33-26,69c-16,46-23,97-27,177
		c-5,131,14,210,73,304l35,56l132,32c247,61,458,143,603,236c174,111,488,406,582,547c63,94,107,205,129,327l17,93l14-32
		c7-18,16-30,20-27c3,4,24-9,45-29c75-67,183-98,338-97c238,2,400,112,366,247c-10,39-64,94-119,122c-161,82-457,65-569-33
		c-21-18-23-13-38,76c-32,189,22,293,196,377c171,82,242,143,289,247c75,164,39,351-95,488c-147,150-440,212-645,136
		c-38-14-70-25-71-24s-20,85-42,187c-46,210-75,392-97,625c-52,533-158,1042-287,1378c-35,90-34,90-228,160c-232,84-548,152-820,177
		C3254,6139,2977,6141,2870,6133z M3215,6018c6-18,42-462,61-758c21-318,24-913,5-1025c-21-129,12-118-321-114c-159,2-291,7-295,10
		c-31,31-31,597,0,959c32,381,88,907,98,916c8,8,196,21,325,23C3178,6030,3212,6027,3215,6018z M3550,5994c156-22,357-70,520-124
		c226-75,214-67,248-157c67-173,142-476,192-768c37-220,71-490,73-585l2-74l-55-13c-114-26-482-84-655-103c-216-23-485-43-492-36
		c-3,2,1,38,8,78c10,54,14,175,13,463c-1,392-11,609-54,1109c-11,126-20,231-20,234C3330,6022,3404,6014,3550,5994z M2640,5977
		c0-8-11-113-25-233c-72-649-106-1219-86-1468c7-76,10-140,9-141c-5-3-232,14-383,30c-309,32-785,112-809,135c-5,5-9,65-8,132
		c2,318,142,718,400,1150l75,126l116,56c200,95,364,152,571,200C2624,5993,2640,5994,2640,5977z M1480,4151c241-49,580-94,925-123
		c202-17,983-17,1175,0c337,29,630,68,877,117c70,14,133,25,139,25s22-69,37-158c32-183,87-422,215-922c107-422,132-555,139-755
		c8-221-23-375-103-506c-75-124-297-346-494-495c-94-71-258-156-391-203c-129-45-390-108-551-133c-124-19-183-22-438-22
		c-222-1-331,4-440,17c-590,72-1007,253-1258,547c-89,104-186,252-223,341c-16,41-50,146-75,233c-70,252-62,336,77,815
		c172,592,207,733,240,956c10,71,19,167,19,213c0,75,2,83,18,78C1377,4173,1428,4162,1480,4151z M5244,3530c105-28,170-62,226-120
		c66-68,94-129,98-215c8-149-50-227-238-325c-131-68-190-113-231-179c-18-27-30-39-33-30c-2,8-16,70-31,139c-14,69-57,245-95,392
		c-39,147-70,274-70,282c0,33,129,74,236,75C5139,3550,5201,3541,5244,3530z M946,3445c41-9,94-24,118-35l44-18l-24-84
		c-112-378-176-610-195-702l-23-109l-12,45c-17,69-63,146-113,190c-25,22-95,70-156,108c-171,107-215,163-215,278
		c0,80,24,143,77,202C549,3434,752,3485,946,3445z"/>
	<path d="M2953,5545c-64-45-97-209-97-480c-1-342,46-505,144-505c103,0,159,215,147,565c-9,238-39,372-95,415
		C3023,5564,2983,5566,2953,5545z"/>
	<path d="M3685,3482c-33-10-87-32-120-50c-78-42-214-159-222-191c-23-92,176-168,369-142c260,35,297,185,60,241c-29,7-93,12-142,12
		c-50,0-90,1-90,4c0,9,125,66,177,79c120,31,291,12,443-51c80-32,190-96,234-134c19-17,37-26,42-21s18,11,29,13c30,5-78,87-195,147
		c-155,80-242,103-395,107C3772,3499,3733,3496,3685,3482z M3618,3274c48-33,10-84-63-84c-22,0-51,7-63,16c-48,33-10,84,63,84
		C3577,3290,3606,3283,3618,3274z"/>
	<path d="M1935,3466c-144-38-313-124-392-199c-39-37-41-44-10-49c14-2,41,10,72,33c113,84,275,154,409,179c128,24,300-2,389-59
		l31-19l-95-1c-140,0-247-32-283-83c-88-126,222-224,468-147c116,35,152,110,80,166c-20,15-57,45-82,65c-63,51-164,103-238,122
		C2192,3498,2045,3494,1935,3466z M2331,3270c11-6,19-21,19-35c0-30-26-45-80-45c-23,0-50,5-61,10c-24,13-25,56-1,69
		C2230,3283,2306,3283,2331,3270z"/>
	<path d="M2444,2165c-18-13-17-15,16-44c112-98,274-170,430-191c199-27,434,33,648,166c67,42,85,65,63,79c-6,3-34-10-63-28
		c-85-55-206-113-298-142c-122-39-309-47-430-16c-105,26-229,87-297,146C2468,2175,2461,2178,2444,2165z"/>
</g>
</svg>
