<?xml version="1.0" encoding="utf-8"?>
<!-- Generator: Adobe Illustrator 24.3.0, SVG Export Plug-In . SVG Version: 6.00 Build 0)  -->
<svg version="1.1" id="Слой_1" xmlns="http://www.w3.org/2000/svg" xmlns:xlink="http://www.w3.org/1999/xlink" x="0px" y="0px"
	 viewBox="0 0 838 981" style="enable-background:new 0 0 838 981;" xml:space="preserve">
<style type="text/css">
	.st0{fill:#0E87DF;}
</style>
<g transform="translate(0.000000,981.000000) scale(0.100000,-0.100000)">
	<path class="st0" d="M2560.1,9794.1c-215-43-459-185-661-385c-189-188-309-401-349-621c-17-91-14-277,6-372
		c93-461,514-930,1235-1377l112-70l-1329-2l-1329-3l-50-27c-68-36-128-101-162-173l-28-60l-3-965c-3-1005-1-1053,39-1132
		c32-62,93-122,156-153c47-23,75-29,145-33l88-4l2-2072c3-1933,4-2074,20-2114c39-97,127-181,223-214c60-20,6970-20,7030,0
		c96,33,184,117,223,214c16,40,17,181,20,2114l2,2072l83,4c181,9,307,117,337,288c8,46,10,351,8,1030l-3,965l-28,60
		c-34,72-94,137-162,173l-50,27l-1204,5l-1204,5l99,70c252,179,503,412,636,591c331,447,315,894-46,1250c-301,295-685,421-1018,334
		c-425-111-777-562-1027-1317l-48-142l-23,82c-13,45-56,179-96,297c-331,980-772,1551-1276,1654
		C2835.1,9812.1,2652.1,9813.1,2560.1,9794.1z M2862.1,9091.1c233-114,506-607,731-1323c48-151,127-429,127-445c0-7-217,108-384,203
		c-176,101-476,302-611,409c-60,48-160,138-220,198c-238,238-324,446-250,605c62,132,238,297,384,358
		C2710.1,9126.1,2793.1,9124.1,2862.1,9091.1z M5745.1,8520.1c116-55,231-158,256-230c15-42-9-119-62-201c-86-136-344-363-624-550
		c-135-90-387-242-393-236c-6,7,63,249,118,411c118,346,256,611,386,741C5535.1,8564.1,5617.1,8581.1,5745.1,8520.1z M3570.1,5709.1
		v-570h-1435h-1435v570v570h1435h1435V5709.1z M7680.1,5709.1v-570h-1420h-1420v570v570h1420h1420V5709.1z M3570.1,2709.1v-2010
		h-1225h-1225v2010v2010h1225h1225V2709.1z M7250.1,2709.1v-2010h-1205h-1205v2010v2010h1205h1205V2709.1z"/>
</g>
</svg>
